<svg xmlns="http://www.w3.org/2000/svg" width="19.4" height="23.652" viewBox="0 0 19.4 23.652">
  <g id="apple" transform="translate(-46.022)">
    <path id="Path_210" data-name="Path 210" d="M52.454,136.161c-3.52-.02-6.432-7.206-6.432-10.866,0-5.978,4.484-7.287,6.213-7.287a7.149,7.149,0,0,1,2.344.577,5.24,5.24,0,0,0,1.339.384,4.165,4.165,0,0,0,.96-.311,7.7,7.7,0,0,1,2.894-.7h.007a5.932,5.932,0,0,1,4.964,2.507l.362.544-.521.393a4.385,4.385,0,0,0-2.1,3.616,4.081,4.081,0,0,0,2.277,3.773c.326.2.664.4.664.841,0,.289-2.306,6.494-5.655,6.494a4.548,4.548,0,0,1-1.91-.464,3.872,3.872,0,0,0-1.7-.409,4.372,4.372,0,0,0-1.346.364,6.592,6.592,0,0,1-2.335.545Z" transform="translate(0 -112.509)" fill="#fff"/>
    <path id="Path_211" data-name="Path 211" d="M259.6,0c.087,3.145-2.162,5.327-4.408,5.19C254.819,2.68,257.436,0,259.6,0Z" transform="translate(-199.471)" fill="#fff"/>
  </g>
</svg>
