<svg xmlns="http://www.w3.org/2000/svg" width="19.4" height="14.616" viewBox="0 0 19.4 14.616">
  <g id="huawei" transform="translate(0 -0.285)">
    <g id="Group_425" data-name="Group 425" transform="translate(0 0.285)">
      <path id="Path_216" data-name="Path 216" d="M38.276,69.167a.076.076,0,0,0-.114-.005c-.3.306-1.623,1.733-1.515,3.164a2.857,2.857,0,0,0,.981,1.942c.038.031,1.315,1.4,5.9,3.678.012,0,.055.017.08-.014a.064.064,0,0,0,.017-.073A44.573,44.573,0,0,0,38.276,69.167Z" transform="translate(-35.253 -66.53)" fill="#fff"/>
      <path id="Path_217" data-name="Path 217" d="M53.777,332.3c-.015-.051-.077-.051-.077-.051v0l-5.836.2a.077.077,0,0,0-.063.116c.653,1.1,1.709,1.928,2.806,1.66a15.084,15.084,0,0,0,3.143-1.851h0C53.792,332.333,53.777,332.3,53.777,332.3Z" transform="translate(-45.979 -319.669)" fill="#fff"/>
      <path id="Path_218" data-name="Path 218" d="M7.866,204.343c-2.424-1.636-6.952-4.081-7.614-4.437a.076.076,0,0,0-.109.045,3.531,3.531,0,0,0,2.068,4.273,3.658,3.658,0,0,0,1.142.249c.089.016,3.546,0,4.473,0a.077.077,0,0,0,.06-.039C7.917,204.385,7.866,204.343,7.866,204.343Z" transform="translate(0 -192.334)" fill="#fff"/>
      <path id="Path_219" data-name="Path 219" d="M140.271.464A2.865,2.865,0,0,0,138.325,4.2v0c.528,2.339,3.12,6.18,3.677,6.985.039.04.07.023.07.023a.071.071,0,0,0,.055-.073h0c.795-7.947-.655-10.485-.873-10.816a.076.076,0,0,0-.073-.034C140.9.322,140.271.464,140.271.464Z" transform="translate(-132.946 -0.285)" fill="#fff"/>
      <path id="Path_220" data-name="Path 220" d="M267.447,2.363v0A2.767,2.767,0,0,0,265.474.522s-.426-.108-.891-.179c-.192-.029-1.769,2.732-.954,10.854a.076.076,0,0,0,.046.066.068.068,0,0,0,.086-.033h0c.573-.828,3.151-4.651,3.676-6.978A3.959,3.959,0,0,0,267.447,2.363Z" transform="translate(-253.416 -0.341)" fill="#fff"/>
      <path id="Path_221" data-name="Path 221" d="M306.264,332.355l-.01,0a.075.075,0,0,0-.051.1.062.062,0,0,0,.016.021h0a15.56,15.56,0,0,0,3.135,1.854s1.491.508,2.814-1.663a.077.077,0,0,0-.063-.117l-5.841-.2Z" transform="translate(-294.594 -319.772)" fill="#fff"/>
      <path id="Path_222" data-name="Path 222" d="M311.385,199.64a.077.077,0,0,0-.11-.046c-.661.357-5.184,2.809-7.608,4.443h0a.071.071,0,0,0,.03.132c.939,0,4.492.007,4.581-.009a3.653,3.653,0,0,0,1.026-.237,3.5,3.5,0,0,0,1.921-1.837A3.608,3.608,0,0,0,311.385,199.64Z" transform="translate(-292.128 -192.033)" fill="#fff"/>
      <path id="Path_223" data-name="Path 223" d="M298.179,72.294a4.72,4.72,0,0,0-1.514-3.157.076.076,0,0,0-.113.006,44.523,44.523,0,0,0-5.335,8.668h0a.075.075,0,0,0,.1.1c4.394-2.187,5.664-3.49,5.884-3.671A2.878,2.878,0,0,0,298.179,72.294Z" transform="translate(-280.175 -66.507)" fill="#fff"/>
    </g>
    <g id="Group_426" data-name="Group 426" transform="translate(0 0.285)">
      <path id="Path_224" data-name="Path 224" d="M43.456,77.5c-3.911-2.048-4.875-3.114-5.018-3.229a2.857,2.857,0,0,1-.981-1.942,4.249,4.249,0,0,1,1.143-2.75c-.15-.195-.261-.333-.321-.408a.076.076,0,0,0-.114-.005c-.3.306-1.623,1.733-1.515,3.164a2.857,2.857,0,0,0,.981,1.942c.038.031,1.317,1.4,5.9,3.678.012,0,.055.017.08-.014a.063.063,0,0,0,.017-.073Q43.54,77.676,43.456,77.5Z" transform="translate(-35.255 -66.529)" fill="#fff"/>
      <path id="Path_225" data-name="Path 225" d="M4.16,204.474a3.657,3.657,0,0,1-1.142-.249,3.53,3.53,0,0,1-2.141-3.98l-.625-.338a.076.076,0,0,0-.109.045,3.531,3.531,0,0,0,2.068,4.273,3.657,3.657,0,0,0,1.142.249c.038.007.707.009,1.529.008C4.467,204.48,4.185,204.478,4.16,204.474Z" transform="translate(0 -192.334)" fill="#fff"/>
      <path id="Path_226" data-name="Path 226" d="M142.208,10.287A23.774,23.774,0,0,1,139.133,4.2v0A2.865,2.865,0,0,1,141.077.463l.236-.052c-.023-.041-.043-.072-.057-.093a.076.076,0,0,0-.073-.033c-.287.037-.913.178-.913.178A2.865,2.865,0,0,0,138.325,4.2v0c.528,2.339,3.12,6.18,3.677,6.985.039.04.07.023.07.023a.071.071,0,0,0,.055-.073h0C142.159,10.845,142.185,10.563,142.208,10.287Z" transform="translate(-132.946 -0.285)" fill="#fff"/>
      <path id="Path_227" data-name="Path 227" d="M265.258.471c-.168-.037-.415-.088-.675-.128-.192-.029-1.769,2.732-.954,10.854a.076.076,0,0,0,.046.066.068.068,0,0,0,.086-.033h0c.122-.175.333-.486.6-.888C263.814,3.859,264.854,1.072,265.258.471Z" transform="translate(-253.416 -0.341)" fill="#fff"/>
      <path id="Path_228" data-name="Path 228" d="M307.06,332.381l-.8-.027h0l-.01,0a.075.075,0,0,0-.051.1.061.061,0,0,0,.016.021h0a15.56,15.56,0,0,0,3.136,1.854,1.705,1.705,0,0,0,.94-.026A17.28,17.28,0,0,1,307.06,332.381Z" transform="translate(-294.594 -319.772)" fill="#fff"/>
      <path id="Path_229" data-name="Path 229" d="M311.51,200.278a3.384,3.384,0,0,0-.125-.637.077.077,0,0,0-.11-.046c-.661.357-5.184,2.809-7.608,4.443h0a.071.071,0,0,0,.03.132l1.174,0C306.858,202.874,309.809,201.215,311.51,200.278Z" transform="translate(-292.127 -192.033)" fill="#fff"/>
      <path id="Path_230" data-name="Path 230" d="M297.04,69.548c-.163-.194-.3-.336-.376-.41a.076.076,0,0,0-.113.006,44.523,44.523,0,0,0-5.335,8.668h0a.075.075,0,0,0,.1.1q.455-.226.865-.44A45.109,45.109,0,0,1,297.04,69.548Z" transform="translate(-280.175 -66.508)" fill="#fff"/>
    </g>
    <path id="Path_237" data-name="Path 237" d="M48.685,337.241h0a.839.839,0,0,1-.066-.108l-.009-.015a.076.076,0,0,1-.009-.023.332.332,0,0,1-.029-.117l-.706.025a.077.077,0,0,0-.063.116c.649,1.093,1.7,1.918,2.787,1.664A3.309,3.309,0,0,1,48.685,337.241Z" transform="translate(-45.98 -323.935)" fill="#fff"/>
  </g>
</svg>
