<svg id="Layer_1" data-name="Layer 1" xmlns="http://www.w3.org/2000/svg" viewBox="0 0 78 47.74"><defs><style>.cls-1{fill:#fff;}</style></defs><path class="cls-1" d="M31.14,35.64l2.52-2.29c-.1-.29-.44-1.32-.86-2.6-.85-3.13-2.16-7.87-2.16-7.87l-2-1.87v2.11c0,4.54-3.21,6.81-7.57,8.7a16.31,16.31,0,0,1,10.06,3.82M30.06,3.15c-1,1.61-1.41,3.85-1.41,6.68V17.3L38.21,3a7.56,7.56,0,0,0,4.57,1.58,7.62,7.62,0,0,0,4.63-1.3l.11.07c-.55,1.7-3.17,6-7.36,6A9,9,0,0,1,35.5,7.91l-4.58,6.85L36.14,19s2.22,7.56,3.12,10.48c1,3.24,1.9,3.66,3.78,4.53.74.35,1.49.68,2.58,1.17a4,4,0,0,0,2.09.5A2.14,2.14,0,0,0,49,35.25l.21.27-5.21,5L38.43,38a8.43,8.43,0,0,1-4.54-4.2c-2.25,2-5.06,4.55-7.32,6.67a18,18,0,0,0-10.37-3c-7.79,0-14.65,3.73-14.65,8.15,0,2.8,2,4.28,4.49,4.28l0,.41a4.68,4.68,0,0,1-5-4.88c0-7.44,9.38-13,17.59-13.6.84-1.12,2.06-2.52,2.06-6.42V14.46a4.18,4.18,0,0,1,.79-2.8h0a8.94,8.94,0,0,0-.32,2.93V25.85a8.31,8.31,0,0,1-2,6c.3,0,.59,0,.89,0h.5c1.83-2.06,2-4.37,2-6.55,0,0,0-7.84,0-11,0-3.68,1.2-5,3.44-7.28.54-.54,1.09-1.09,1.52-1.5l-.1-.11c-2.74,2.09-5,3.76-8.56,3.76-2.83,0-5.29-1.25-8-1.25A5.12,5.12,0,0,0,7.38,9.12L7.3,9.05c1.15-2,4.24-6.48,8.9-6.48C19.64,2.57,21.27,4,24.68,4a11.57,11.57,0,0,0,5.25-1Z" transform="translate(-1 -2.57)"/><path class="cls-1" d="M65,35.2a14,14,0,0,0,3.49-.45V10.69c-.88,0-2-.17-2.53-.24V23.52c0,6.33-6.49,8.51-8.3,9.45A13.31,13.31,0,0,0,65,35.2m-7.61-2.44a8.43,8.43,0,0,0,2.27-6.28V9.06c-.34-.09-1.07-.29-1.38-.35V26.5a8.23,8.23,0,0,1-1.74,5.61c.22.18.6.48.85.65M79,3.29a8.3,8.3,0,0,1-8.66,7.45c-.44,0-1,0-1.37,0v23.9a13.29,13.29,0,0,0,8.61-9l.19,0c-.55,8.39-7.29,15-15.41,15C53.55,40.57,47,33.76,47,24.45a16.47,16.47,0,0,1,7.9-14.4l.11.13a14.64,14.64,0,0,0-3.55,9.94,15.65,15.65,0,0,0,4.78,11.73,8.86,8.86,0,0,0,1.55-5.59V8.6a12,12,0,0,0-2.43-.31,9.94,9.94,0,0,0-8.19,3.61L47,11.82c.76-5.35,4.57-9.23,11.54-9.23C64.85,2.59,68.09,5,73,5a10.2,10.2,0,0,0,5.88-1.74Z" transform="translate(-1 -2.57)"/></svg>