<?xml version="1.0" standalone="no"?>
<!DOCTYPE svg PUBLIC "-//W3C//DTD SVG 1.1//EN" "http://www.w3.org/Graphics/SVG/1.1/DTD/svg11.dtd" >
<svg xmlns="http://www.w3.org/2000/svg" xmlns:xlink="http://www.w3.org/1999/xlink" version="1.1">
<metadata>
Created by FontForge 20170731 at Thu Dec 24 14:22:12 2020
 By Aleksey,,,
(c)2010 Kai Bernau and Commercial Type.
</metadata>
<defs>
<font id="LyonDisplay-RegularItalic" horiz-adv-x="819" >
  <font-face 
    font-family="Lyon Display Regular"
    font-weight="400"
    font-style="italic"
    font-stretch="normal"
    units-per-em="2048"
    panose-1="2 0 6 3 8 0 0 9 0 4"
    ascent="1638"
    descent="-410"
    x-height="997"
    cap-height="1360"
    bbox="-391 -545 2658 2222"
    underline-thickness="102"
    underline-position="-409"
    slope="-12"
    unicode-range="U+0020-FB04"
  />
<missing-glyph horiz-adv-x="309" 
 />
    <glyph glyph-name="f_f" unicode="ff" horiz-adv-x="1153" 
d="M72 887l14 82h199q81 194 239 334.5t307 140.5q111 0 199 -96q86 86 177 134t175 48q74 0 127.5 -36t53.5 -79q-2 -64 -82 -139q-56 71 -107 111t-112 40q-23 0 -46 -10.5t-52.5 -41t-57.5 -79.5t-58 -133t-55 -194h242l-21 -82h-237l-152 -756q-55 -271 -192.5 -430.5
t-284.5 -159.5q-56 0 -94.5 36t-38.5 83q0 36 21.5 66t52.5 47q38 -70 82 -108t80 -38q42 0 75.5 71.5t69.5 250.5l186 938h-338l-163 -819q-53 -261 -189 -428.5t-303 -167.5q-48 0 -94.5 33.5t-46.5 84.5q0 45 25.5 77.5t58.5 49.5q89 -157 172 -157q46 0 78 74t67 247
l191 942q2 11 16 64h-184zM801 969q43 141 135 268q-39 53 -89.5 84t-101.5 31q-38 0 -71.5 -16t-70 -56t-72 -118.5t-66.5 -192.5h336z" />
    <glyph glyph-name="f_i" unicode="fi" horiz-adv-x="1050" 
d="M72 887l14 82h184q66 237 242 399t385 162q76 0 132 -37t56 -82q0 -70 -79 -135q-51 63 -117.5 106t-124.5 43q-18 0 -29.5 -1t-36 -9.5t-43.5 -24.5t-46.5 -50t-50 -80.5t-48 -121.5t-47.5 -169h461l61 30h23l-238 -849h6q47 30 102 91t89 119l43 -14
q-61 -131 -173 -250t-184 -119q-55 0 -74 40.5t3 125.5l213 744h-351l-163 -819q-56 -274 -194 -435t-298 -161q-45 0 -93 32.5t-48 85.5q0 79 84 127q85 -157 172 -157q48 0 79.5 77t65.5 244l203 1006h-180z" />
    <glyph glyph-name="f_l" unicode="fl" horiz-adv-x="1064" 
d="M1016 344q-60 -139 -169.5 -253t-184.5 -114q-117 0 -72 166l194 744h-340l-163 -819q-53 -261 -189 -428.5t-303 -167.5q-48 0 -94.5 33.5t-46.5 84.5q0 45 25.5 77.5t58.5 49.5q89 -157 172 -157q46 0 78 74.5t67 248.5l203 1004h-180l14 82h184q42 142 135.5 271.5
t214 209.5t230.5 80q70 0 127 -47l151 47l-350 -1380h6q88 55 195 208zM764 1436q-42 0 -78.5 -19t-76.5 -67.5t-77 -144.5t-69 -236h342l104 393q-71 74 -145 74z" />
    <glyph glyph-name="f_f_i" unicode="ffi" horiz-adv-x="1581" 
d="M70 887l16 82h199q81 194 239 334.5t307 140.5q109 0 197 -92q185 178 402 178q76 0 131 -36.5t55 -82.5q0 -70 -78 -135q-51 63 -117.5 106t-124.5 43q-18 0 -29.5 -1t-36.5 -9.5t-44 -24.5t-46.5 -50t-50 -80.5t-48 -121.5t-46.5 -169h461l62 30h22l-240 -849h7
q47 29 100.5 89t91.5 121l43 -14q-63 -132 -174.5 -250.5t-183.5 -118.5q-54 0 -73.5 40.5t1.5 125.5l213 744h-348l-152 -754q-53 -264 -188 -428t-289 -164q-56 0 -94.5 36t-38.5 83q0 36 21.5 66t52.5 47q38 -70 82 -108t80 -38q44 0 77 76t66 244l188 940h-338
l-163 -819q-53 -261 -189 -428.5t-303 -167.5q-48 0 -94.5 33.5t-46.5 84.5q0 45 25.5 77.5t58.5 49.5q89 -157 172 -157q46 0 78 74t67 247l191 942q2 11 16 64h-186zM801 969q45 151 133 274q-88 109 -189 109q-38 0 -71.5 -16t-70 -56t-72 -118.5t-66.5 -192.5h336z" />
    <glyph glyph-name="f_f_l" unicode="ffl" horiz-adv-x="1597" 
d="M72 887l14 82h199q81 194 239 334.5t307 140.5q109 0 199 -94q84 84 175 132t175 48q70 0 127 -47l154 47l-352 -1380h6q54 34 99 84t97 124l37 -14q-62 -139 -171.5 -253t-182.5 -114q-117 0 -72 166l193 744h-340l-150 -754q-29 -143 -83 -258.5t-119.5 -186.5
t-136 -109t-138.5 -38q-56 0 -94.5 36t-38.5 83q0 36 21.5 66t52.5 47q38 -70 82 -108t80 -38q42 0 76 74t69 248l188 938h-340l-163 -819q-53 -261 -189 -428.5t-303 -167.5q-48 0 -94.5 33.5t-46.5 84.5q0 45 25.5 77.5t58.5 49.5q89 -157 172 -157q46 0 78 74t67 247
l191 942q2 11 16 64h-184zM1294 1436q-33 0 -61.5 -10.5t-61.5 -41t-62 -81t-59.5 -135.5t-56.5 -199h342l103 395q-66 72 -144 72zM803 969q41 140 133 268q-39 53 -89 84t-102 31q-38 0 -71.5 -16t-70 -56t-72 -118.5t-66.5 -192.5h338z" />
    <glyph glyph-name="f_b" unicode="fb" horiz-adv-x="1546" 
d="M883 -33q-158 0 -277 135l-16 21l317 1241q-66 72 -143 72q-33 0 -62.5 -10.5t-63 -41t-62.5 -81t-59 -135.5t-56 -199h219l-23 -82h-213l-163 -819q-53 -261 -189 -428.5t-303 -167.5q-48 0 -94.5 33.5t-46.5 84.5q0 45 25.5 77.5t58.5 49.5q89 -157 172 -157
q46 0 78 74.5t67 248.5l203 1004h-180l14 82h184q42 142 135.5 271.5t214 209.5t230.5 80q70 0 125 -45l158 45l-248 -946h8q63 108 138 199t163.5 153.5t163.5 62.5q80 0 126 -74t42 -200q-4 -85 -37.5 -186.5t-94 -202t-136.5 -183.5t-175 -134.5t-200 -51.5zM809 268
l-37 -135q20 -46 58.5 -77t93.5 -31q87 0 178 110.5t149.5 265t65.5 287.5q3 76 -18.5 115t-59.5 39q-56 0 -126 -63t-129.5 -154t-107 -187.5t-67.5 -169.5z" />
    <glyph glyph-name="f_f_b" unicode="ffb" horiz-adv-x="2076" 
d="M1415 -33q-159 0 -278 135l-17 21l318 1241q-66 72 -144 72q-33 0 -61.5 -10.5t-61.5 -41t-62 -81t-59.5 -135.5t-56.5 -199h217l-20 -82h-215l-150 -752q-55 -272 -192.5 -433t-284.5 -161q-56 0 -94.5 36t-38.5 83q0 36 21.5 66t52.5 47q38 -70 82 -108t80 -38
q42 0 75.5 72t69.5 252l188 936h-340l-163 -819q-53 -261 -189 -428.5t-303 -167.5q-48 0 -94.5 33.5t-46.5 84.5q0 45 25.5 77.5t58.5 49.5q89 -157 172 -157q46 0 78 74t67 247l191 942q2 11 16 64h-186l16 82h199q81 194 239 334.5t307 140.5q109 0 199 -94
q84 84 175 132t175 48q70 0 125 -45l158 45l-248 -946h8q99 170 227.5 292.5t239.5 122.5q79 0 125.5 -74t40.5 -200q-3 -70 -27.5 -153.5t-65.5 -168t-100.5 -163t-127.5 -139.5t-151.5 -97.5t-168.5 -36.5zM1341 268l-36 -135q17 -45 55.5 -76.5t95.5 -31.5
q86 0 177 110.5t149.5 265t64.5 287.5q4 75 -17 114.5t-58 39.5q-56 0 -126 -63t-129.5 -154t-107.5 -187.5t-68 -169.5zM803 969q41 140 133 268q-39 53 -89.5 84t-101.5 31q-38 0 -71.5 -16t-70 -56t-72 -118.5t-66.5 -192.5h338z" />
    <glyph glyph-name="f_f_h" unicode="ffh" horiz-adv-x="2117" 
d="M1671 1530l-254 -975h10q48 83 102 158t116 140.5t129 104.5t127 39q83 0 110 -50.5t-4 -170.5l-174 -626h6q89 58 195 208l39 -14q-69 -137 -178.5 -252t-180.5 -115q-55 0 -74 40t5 126l180 623q13 41 3 62.5t-38 21.5q-45 0 -111 -57t-131.5 -146t-125 -209.5
t-91.5 -236.5l-49 -185l-166 -45l-26 27l354 1358q-69 80 -150 80q-33 0 -61.5 -10.5t-61.5 -41t-62 -81t-59.5 -135.5t-56.5 -199h217l-20 -82h-215l-150 -754q-55 -272 -192.5 -432t-284.5 -160q-56 0 -94.5 36t-38.5 83q0 36 21.5 66t52.5 47q38 -70 82 -108t80 -38
q42 0 75.5 72t69.5 252l188 936h-340l-163 -819q-53 -261 -189 -428.5t-303 -167.5q-48 0 -94.5 33.5t-46.5 84.5q0 45 25.5 77.5t58.5 49.5q89 -157 172 -157q46 0 78 74t67 247l191 942q2 11 16 64h-186l16 82h199q81 194 239 334.5t307 140.5q109 0 199 -94
q84 84 175 132t175 48q72 0 127 -45zM803 969q41 140 133 268q-39 53 -89 84t-102 31q-38 0 -71.5 -16t-70 -56t-72 -118.5t-66.5 -192.5h338z" />
    <glyph glyph-name="f_f_j" unicode="ffj" horiz-adv-x="1546" 
d="M72 887l14 82h199q81 194 239 334.5t307 140.5q109 0 197 -92q185 178 402 178q76 0 131 -36.5t55 -82.5q0 -70 -78 -135q-51 63 -117.5 106t-124.5 43q-18 0 -29.5 -1t-36.5 -9.5t-44 -24.5t-46.5 -50t-50 -80.5t-48 -121.5t-46.5 -169h459l62 30h18l-170 -809
q-30 -144 -83.5 -258.5t-117.5 -183.5t-133 -105t-137 -36q-48 0 -90.5 33t-42.5 86q0 30 19 60.5t55 51.5q39 -71 83 -108t78 -37q42 0 76.5 72.5t71.5 252.5l178 869h-344l-152 -754q-29 -143 -83 -259t-120 -187t-136 -108.5t-138 -37.5q-56 0 -94.5 36t-38.5 83
q0 36 21.5 66t52.5 47q38 -70 82 -108t80 -38q42 0 75 72.5t68 247.5l188 940h-338l-163 -819q-53 -261 -189 -428.5t-303 -167.5q-48 0 -94.5 33.5t-46.5 84.5q0 45 25.5 77.5t58.5 49.5q89 -157 172 -157q46 0 78 74t67 247l191 942q2 11 16 64h-184zM801 969
q45 151 131 272q-37 51 -86.5 81t-100.5 30q-38 0 -71.5 -16t-70 -56t-72 -118.5t-66.5 -192.5h336z" />
    <glyph glyph-name="f_f_k" unicode="ffk" horiz-adv-x="2054" 
d="M1872 -86q-69 0 -110.5 24t-106.5 101l-275 319q-50 -109 -69 -200l-33 -144l-162 -43l-26 27l354 1358q-69 80 -150 80q-33 0 -61.5 -10.5t-61.5 -41t-62 -81t-59.5 -135.5t-56.5 -199h217l-20 -82h-215l-150 -752q-29 -143 -83 -258.5t-119.5 -187.5t-136 -110
t-138.5 -38q-56 0 -94.5 36t-38.5 83q0 36 21.5 66t52.5 47q38 -71 82 -108.5t80 -37.5q42 0 75.5 72t69.5 252l188 936h-340l-163 -819q-53 -261 -189 -428.5t-303 -167.5q-48 0 -94.5 33.5t-46.5 84.5q0 45 25.5 77.5t58.5 49.5q89 -157 172 -157q46 0 78 74t67 247
l191 942q2 11 16 64h-184l14 82h199q81 194 239 334.5t307 140.5q109 0 199 -94q84 84 175 132t175 48q72 0 127 -45l164 45l-256 -971h10q54 92 105 164.5t111.5 137.5t125.5 100.5t129 35.5q66 0 105 -43t39 -112q0 -253 -479 -445l413 -440v-12q-36 -31 -102 -31z
M803 969q41 140 133 268q-39 53 -89 84t-102 31q-38 0 -71.5 -16t-70 -56t-72 -118.5t-66.5 -192.5h338zM1806 858q-76 0 -203.5 -147t-216.5 -338q219 86 354.5 198t135.5 205q0 82 -70 82z" />
    <glyph glyph-name="f_f_t" unicode="fft" horiz-adv-x="1716" 
d="M1112 104l199 783h-336l-150 -756q-51 -257 -186 -423.5t-291 -166.5q-47 0 -90 33.5t-43 85.5q0 37 22 66.5t52 46.5q42 -74 84.5 -110t77.5 -36q41 0 75 72t68 248l188 940h-338l-163 -819q-53 -261 -189 -428.5t-303 -167.5q-48 0 -94.5 33.5t-46.5 84.5
q0 45 25.5 77.5t58.5 49.5q89 -157 172 -157q46 0 79 75t66 246l189 942q2 11 16 64h-182l14 82h197q84 194 241.5 334.5t306.5 140.5q113 0 201 -96q88 85 183.5 133.5t173.5 48.5q52 0 88 -31.5t36 -73.5q0 -37 -29 -71t-65 -49q-43 65 -77 97t-72 32q-24 0 -49 -11.5
t-55.5 -43t-59 -81.5t-58.5 -134.5t-55 -194.5h350l148 282h84l-62 -282h269l-15 -82h-270l-192 -737h6q59 17 148 104.5t149 169.5l41 -23q-46 -76 -97 -145t-112.5 -135t-126.5 -106t-121 -40q-47 0 -71 36t-9 93zM801 969q42 142 135 268q-39 53 -89.5 84t-101.5 31
q-38 0 -71.5 -16t-70 -56t-72 -118.5t-66.5 -192.5h336z" />
    <glyph glyph-name="f_h" unicode="fh" horiz-adv-x="1585" 
d="M1139 1530l-254 -975h12q48 84 101.5 158t115 140.5t128.5 105t128 38.5q169 0 107 -221l-177 -626h7q88 55 196 208l37 -14q-62 -133 -172.5 -250t-183.5 -117q-55 0 -74.5 40t2.5 126l182 623q24 84 -34 84q-45 0 -111 -57t-131.5 -146t-125 -209.5t-91.5 -236.5
l-51 -185l-164 -45l-29 27l356 1360q-69 78 -149 78q-33 0 -62 -10.5t-62.5 -41.5t-62.5 -81.5t-58.5 -135t-55.5 -198.5h217l-21 -82h-215l-163 -819q-53 -261 -189 -428.5t-303 -167.5q-48 0 -94.5 33.5t-46.5 84.5q0 45 25.5 77.5t58.5 49.5q89 -157 172 -157
q46 0 78 74.5t67 248.5l203 1004h-178l12 82h184q42 142 135.5 271.5t214 209.5t230.5 80q70 0 125 -45z" />
    <glyph glyph-name="f_j" unicode="fj" horiz-adv-x="1013" 
d="M600 -45l188 932h-344l-163 -819q-56 -274 -194 -435t-298 -161q-45 0 -93 32.5t-48 85.5q0 79 84 127q85 -157 172 -157q48 0 79.5 77t65.5 244l203 1006h-180l14 82h184q66 237 242 399t385 162q76 0 132 -37t56 -82q0 -70 -79 -135q-51 63 -117.5 106t-124.5 43
q-18 0 -29.5 -1t-36 -9.5t-43.5 -24.5t-46.5 -50t-50 -80.5t-48 -121.5t-47.5 -169h459l61 30h21l-183 -872q-56 -265 -189 -425.5t-284 -160.5q-49 0 -91 33t-42 86q0 69 74 113q39 -71 82 -108.5t75 -37.5q49 0 85 82.5t69 245.5z" />
    <glyph glyph-name="f_k" unicode="fk" horiz-adv-x="1521" 
d="M1339 -86q-67 0 -108.5 24t-106.5 101l-274 317q-51 -109 -70 -198l-35 -144l-159 -43l-29 27l356 1360q-69 78 -149 78q-42 0 -78.5 -19t-76.5 -67.5t-77 -144.5t-69 -236h217l-21 -82h-215l-163 -819q-53 -261 -189 -428.5t-303 -167.5q-48 0 -94.5 33.5t-46.5 84.5
q0 45 25.5 77.5t58.5 49.5q89 -157 172 -157q46 0 78 74.5t67 248.5l203 1004h-178l12 82h184q42 142 135.5 271.5t214 209.5t230.5 80q70 0 125 -45l164 45l-256 -971h12q54 92 105 164.5t111.5 137.5t125 100.5t127.5 35.5q66 0 104.5 -43t38.5 -112q0 -72 -38 -138.5
t-106.5 -122t-150.5 -100t-184 -84.5l414 -440v-12q-36 -31 -103 -31zM1276 858q-76 0 -203.5 -147t-216.5 -338q219 86 354.5 198t135.5 205q0 82 -70 82z" />
    <glyph glyph-name="f_t" unicode="ft" horiz-adv-x="1183" 
d="M580 104l198 783h-334l-163 -819q-35 -171 -108 -306.5t-173.5 -212.5t-210.5 -77q-48 0 -94.5 33.5t-46.5 84.5q0 45 25.5 77.5t58.5 49.5q89 -157 170 -157q48 0 80 73.5t67 247.5l203 1006h-178l12 82h184q25 93 68.5 175.5t95 142.5t109.5 107.5t115 76.5t108 44
t92 15q52 0 87.5 -31.5t35.5 -73.5q0 -37 -29 -71t-65 -49q-41 65 -75.5 97t-74.5 32q-24 0 -48.5 -11.5t-55 -43t-58.5 -81.5t-58 -135t-54 -194h348l147 282h86l-61 -282h266l-14 -82h-268l-193 -737h6q58 17 148.5 106t146.5 168l41 -23q-46 -76 -97 -144.5t-112 -135.5
t-126 -106.5t-122 -39.5q-47 0 -69.5 35.5t-9.5 93.5z" />
    <glyph glyph-name=".notdef" horiz-adv-x="309" 
 />
    <glyph glyph-name=".null" horiz-adv-x="0" 
 />
    <glyph glyph-name="nonmarkingreturn" horiz-adv-x="682" 
 />
    <glyph glyph-name="space" unicode=" " horiz-adv-x="309" 
 />
    <glyph glyph-name="exclam" unicode="!" horiz-adv-x="595" 
d="M354 1427h215l-284 -1030h-52zM213 -18q-57 0 -96 39t-39 96q0 59 39 99t96 40t97 -40.5t40 -98.5q0 -57 -40 -96t-97 -39z" />
    <glyph glyph-name="quotedbl" unicode="&#x22;" horiz-adv-x="757" 
d="M250 979l20 504h213l-196 -504h-37zM604 979l21 504h213l-197 -504h-37z" />
    <glyph glyph-name="numbersign" unicode="#" horiz-adv-x="1214" 
d="M233 823l17 80h250l116 314h76l-117 -314h320l117 314h75l-116 -314h243l-18 -80h-256l-147 -395h235l-16 -80h-250l-129 -348h-76l129 348h-319l-129 -348h-76l129 348h-242l17 80h256l147 395h-236zM545 823l-148 -395h320l147 395h-319z" />
    <glyph glyph-name="dollar" unicode="$" horiz-adv-x="1077" 
d="M119 422h49l16 -305q113 -74 236 -86l112 544l-53 29q-120 63 -181 137t-58 185q5 144 129.5 254.5t314.5 128.5l47 227h66l-47 -223q30 0 63.5 -3.5t57.5 -7t58.5 -12t48.5 -12t46.5 -13t34.5 -10.5l-70 -344h-53l-27 271q-93 58 -174 63l-100 -487l31 -17
q167 -91 235.5 -169.5t65.5 -202.5q-2 -81 -45.5 -154t-113 -124.5t-158 -85t-181.5 -42.5l-43 -215h-64l44 211q-25 0 -53 3t-51.5 6.5t-53.5 10.5t-48 11.5t-47.5 13.5t-40.5 12.5t-38 12.5t-29 10zM770 301q3 72 -39 128.5t-141 113.5l-107 -514q122 8 202.5 77.5
t84.5 194.5zM416 1010q-2 -67 34 -117t125 -102l95 454q-114 -10 -182.5 -74t-71.5 -161z" />
    <glyph glyph-name="percent" unicode="%" horiz-adv-x="1609" 
d="M487 1188q-87 0 -154 -115t-67 -272q0 -84 27 -134.5t82 -50.5q83 0 153 112t70 271q0 87 -28 138t-83 51zM1438 1290l-1211 -1392h-86l1209 1392h88zM373 563q-117 0 -188.5 80.5t-71.5 200.5q0 159 114 277t267 118q115 0 186.5 -79.5t71.5 -198.5q0 -156 -113 -277
t-266 -121zM1214 590q-87 0 -154 -115t-67 -272q0 -84 27 -135.5t82 -51.5q83 0 153 112.5t70 272.5q0 86 -28 137.5t-83 51.5zM1100 -35q-117 0 -188.5 79.5t-71.5 199.5q0 105 52 196.5t140 146t189 54.5q115 0 186.5 -80t71.5 -199q0 -156 -113 -276.5t-266 -120.5z" />
    <glyph glyph-name="ampersand" unicode="&#x26;" horiz-adv-x="1822" 
d="M1315 911q-10 6 -37.5 23t-40 23.5t-34.5 17t-42 14.5t-41 4q-62 0 -98.5 -39t-36.5 -88q0 -18 3.5 -34.5t12.5 -31.5t16.5 -25t22.5 -23.5t22 -19t24.5 -18.5t21.5 -16q-61 -92 -125 -92q-13 0 -25 3.5t-29 15.5t-27.5 41t-10.5 73q0 48 16 102.5t47 107t72.5 95
t97.5 69t117 26.5q20 0 39.5 -2.5t33.5 -5t33 -10t28 -11t28.5 -15t25 -14.5t27 -17.5t25.5 -16.5q38 -24 82.5 -53t61.5 -40t38 -23t32.5 -15t24.5 -3q36 0 56 26t20 67q0 102 -55 206q43 21 84 21q92 -3 92 -90q0 -70 -31 -138.5t-77.5 -118t-103.5 -80t-108 -30.5
q-54 0 -94.5 17.5t-93.5 54.5q-20 -196 -76 -360t-148 -289.5t-227.5 -196t-302.5 -70.5q-113 0 -211.5 36t-172.5 102.5t-117 169t-43 227.5t45 247.5t115.5 210.5t158 142.5t170.5 54.5q96 0 133 -96l324 449l71 -60l-858 -1036q53 -119 169 -186.5t276 -67.5
q134 0 247 59t192 163.5t131.5 239.5t76.5 294zM231 575q0 -73 17 -131l327 398q24 49 -1 99t-87 50q-43 0 -87 -27t-82.5 -76.5t-62.5 -131.5t-24 -181z" />
    <glyph glyph-name="quotesingle" unicode="'" horiz-adv-x="403" 
d="M250 979l20 504h213l-196 -504h-37z" />
    <glyph glyph-name="parenleft" unicode="(" horiz-adv-x="677" 
d="M461 -369h-53q-321 436 -224 953q41 240 196 477.5t384 437.5h65q-212 -223 -331.5 -444t-169.5 -498q-38 -184 -31 -348t46 -297.5t118 -280.5z" />
    <glyph glyph-name="parenright" unicode=")" horiz-adv-x="677" 
d="M205 1499h55q319 -430 223 -952q-43 -241 -199 -480.5t-380 -435.5h-68q212 223 332 444t170 498q38 185 31.5 348.5t-45.5 297.5t-119 280z" />
    <glyph glyph-name="asterisk" unicode="*" horiz-adv-x="765" 
d="M848 1069l-277 -22l27 -277l-27 -6l-102 258l-256 -111l-12 23l213 178l-181 207l15 18l233 -143l146 236l18 -9l-65 -268l270 -57z" />
    <glyph glyph-name="plus" unicode="+" horiz-adv-x="1144" 
d="M1036 449h-440v-447h-88v447h-442v79h442v445h88v-445h440v-79z" />
    <glyph glyph-name="comma" unicode="," horiz-adv-x="518" 
d="M-76 -328l-14 43q129 62 193.5 124t64.5 143q0 53 -35 88.5t-90 48.5q-11 64 23 112t104 48q64 0 113 -53.5t49 -139.5q0 -130 -101.5 -238t-306.5 -176z" />
    <glyph glyph-name="hyphen" unicode="-" horiz-adv-x="710" 
d="M96 494l27 122h516l-25 -122h-518z" />
    <glyph glyph-name="period" unicode="." horiz-adv-x="464" 
d="M139 -18q-57 0 -97 39t-40 96q0 58 40 98.5t97 40.5t97 -40.5t40 -98.5q0 -57 -40 -96t-97 -39z" />
    <glyph glyph-name="slash" unicode="/" horiz-adv-x="845" 
d="M-143 -412l-66 33l1079 1901l66 -33z" />
    <glyph glyph-name="zero" unicode="0" horiz-adv-x="1228" 
d="M700 995q-73 0 -145.5 -49.5t-129 -132.5t-91.5 -200t-35 -244q0 -57 7 -106.5t24 -95t43 -77.5t67.5 -51t94.5 -19q55 0 111.5 29t106.5 84.5t89.5 130t62.5 172.5t23 205q0 161 -60 257.5t-168 96.5zM524 -31q-193 0 -318.5 124.5t-125.5 344.5q0 163 85.5 304.5
t230 225t309.5 83.5q135 0 237 -64t153.5 -169t51.5 -232q0 -160 -80 -301.5t-224.5 -228.5t-318.5 -87z" />
    <glyph glyph-name="one" unicode="1" horiz-adv-x="759" 
d="M614 1047l-190 -965l194 -39l-6 -43h-614l6 43l225 39l160 815l-270 -14l8 49l479 115h8z" />
    <glyph glyph-name="two" unicode="2" horiz-adv-x="915" 
d="M414 295l-168 -121h555l-49 -174h-742l15 59l141 123q262 226 355 341t93 208q0 75 -49 123.5t-121 48.5q-69 0 -128.5 -31t-131.5 -102l-28 23q57 115 149 190.5t209 75.5q134 0 212.5 -79.5t78.5 -197.5q0 -86 -43 -162t-122 -147.5t-226 -177.5z" />
    <glyph glyph-name="three" unicode="3" horiz-adv-x="806" 
d="M-70 -467l-16 41q81 30 154.5 67t142.5 85.5t119 102t80 118.5t30 133q0 105 -75.5 163t-194.5 58h-31l8 84l72 35q66 33 114 63.5t95 71.5t71.5 89.5t24.5 103.5q0 70 -46.5 116.5t-117.5 46.5q-55 0 -108.5 -28t-120.5 -90l-29 24q87 131 167 186.5t184 55.5
q110 0 184 -69t74 -179q0 -198 -254 -330l-121 -63q135 -23 218 -101.5t83 -199.5q0 -194 -175.5 -336t-531.5 -248z" />
    <glyph glyph-name="four" unicode="4" horiz-adv-x="1169" 
d="M510 -399l86 448h-590l8 70l922 923h35l-164 -843h262l-25 -150h-268l-86 -448h-180zM178 199h447l104 546z" />
    <glyph glyph-name="five" unicode="5" horiz-adv-x="798" 
d="M412 125q0 116 -60.5 231t-224.5 269l180 376l471 27l-35 -184l-467 -25l-20 -37q198 -172 278 -304t80 -290q0 -433 -684 -655l-16 41q47 20 88 39.5t93.5 50t95 63t85 76.5t71.5 91t47 107t18 124z" />
    <glyph glyph-name="six" unicode="6" horiz-adv-x="1120" 
d="M1221 1384q-91 -38 -176.5 -81.5t-186 -107.5t-184 -134.5t-161 -163t-126.5 -192.5h4q122 149 301 149q63 0 121.5 -23.5t107 -69t78 -120t29.5 -168.5q0 -70 -22 -141.5t-67 -138.5t-107 -119t-150 -83.5t-188 -31.5q-186 0 -295 117t-109 305q0 122 39 236
t104.5 206.5t157 176.5t191 148.5t211 119.5t213 93t202.5 66zM612 772q-81 0 -146 -47t-126 -137q-39 -113 -39 -250q0 -328 199 -328q129 0 222 139t93 334q0 124 -52.5 206.5t-150.5 82.5z" />
    <glyph glyph-name="seven" unicode="7" horiz-adv-x="946" 
d="M88 -424l-102 64l786 1200h-663l36 190h807l-2 -18l-690 -1143z" />
    <glyph glyph-name="eight" unicode="8" horiz-adv-x="1042" 
d="M53 250q0 47 14.5 91.5t34.5 78.5t56.5 69t65 57.5t76 50.5t73.5 42t73 37l-43 45q-78 80 -109.5 144t-31.5 153q0 69 31.5 135.5t86 119.5t137.5 85.5t179 32.5q158 0 252 -75t94 -196q0 -52 -24.5 -103t-58 -88.5t-89 -78.5t-94 -64.5t-96.5 -56.5l43 -41
q98 -92 147.5 -169t49.5 -175q0 -81 -43 -154.5t-110.5 -123t-151.5 -78.5t-166 -29q-174 0 -285 77.5t-111 213.5zM539 584l-62 61q-114 -86 -169.5 -178t-55.5 -207q0 -101 56.5 -171.5t172.5 -70.5q99 0 171.5 65.5t72.5 174.5q0 86 -40 153t-146 173zM453 1087
q0 -72 28.5 -128.5t102.5 -131.5l63 -65q100 87 153.5 169.5t53.5 180.5q0 97 -48.5 159t-137.5 62q-90 0 -152.5 -63.5t-62.5 -182.5z" />
    <glyph glyph-name="nine" unicode="9" horiz-adv-x="1122" 
d="M-111 -371q282 108 505.5 280.5t334.5 395.5q-67 -76 -131 -113.5t-162 -37.5q-63 0 -122 23t-109.5 69t-80.5 125.5t-30 181.5q0 85 37.5 172t105 161.5t176 121.5t236.5 47q164 0 273.5 -114t109.5 -294q0 -124 -37 -239t-99 -207t-151 -176t-187 -148t-213 -121
t-221.5 -97.5t-221.5 -74.5zM510 231q73 0 134.5 42.5t121.5 115.5q55 148 55 305q0 145 -46.5 227.5t-143.5 82.5q-88 0 -163.5 -63.5t-119 -169.5t-43.5 -226q0 -139 55.5 -226.5t149.5 -87.5z" />
    <glyph glyph-name="colon" unicode=":" horiz-adv-x="464" 
d="M139 -18q-57 0 -97 39t-40 96q0 58 40 98.5t97 40.5t97 -40.5t40 -98.5q0 -57 -40 -96t-97 -39zM274 696q-57 0 -96 39t-39 96t39 97.5t96 40.5t97.5 -40.5t40.5 -97.5t-40.5 -96t-97.5 -39z" />
    <glyph glyph-name="semicolon" unicode=";" horiz-adv-x="516" 
d="M311 696q-57 0 -97 39t-40 96t40 97.5t97 40.5t97.5 -40.5t40.5 -97.5t-40.5 -96t-97.5 -39zM-76 -328l-14 43q128 63 193 124.5t65 142.5q0 53 -35 88.5t-90 48.5q-13 63 22 111.5t105 48.5q64 0 113 -53.5t49 -139.5q0 -130 -101.5 -238t-306.5 -176z" />
    <glyph glyph-name="less" unicode="&#x3c;" horiz-adv-x="1146" 
d="M1055 883l-867 -400l867 -397v-88l-967 451v71l967 451v-88z" />
    <glyph glyph-name="equal" unicode="=" horiz-adv-x="1144" 
d="M1059 612h-971v80h971v-80zM1059 324h-971v79h971v-79z" />
    <glyph glyph-name="greater" unicode="&#x3e;" horiz-adv-x="1146" 
d="M90 84l868 399l-868 398v90l967 -453v-72l-967 -448v86z" />
    <glyph glyph-name="question" unicode="?" horiz-adv-x="794" 
d="M270 1190l35 225l72 -24q96 -32 180.5 -98.5t142.5 -169t58 -214.5q0 -134 -65 -208t-206 -99l-200 -35l-56 -170h-51l51 342l289 41q82 13 123 43t41 88q0 42 -22.5 80t-58 66t-84.5 52.5t-96.5 40t-100.5 28.5zM154 -18q-57 0 -96.5 39t-39.5 96q0 58 39.5 98.5
t96.5 40.5t97 -40.5t40 -98.5q0 -57 -40 -96t-97 -39z" />
    <glyph glyph-name="at" unicode="@" horiz-adv-x="1902" 
d="M1036 324l27 82h-4l-64 -91q-34 -49 -71 -93.5t-82.5 -88.5t-95.5 -70t-95 -26q-75 0 -117 51t-42 123q0 136 65 276t160.5 242t207.5 167t203 65q62 0 132 -50l22 74h131l-203 -674q-64 -217 76 -217q42 0 93 20.5t106 67t100 110.5t74 161.5t29 210.5
q0 125 -45.5 237.5t-125 195.5t-195 132t-249.5 49q-122 0 -243 -40.5t-226.5 -120t-186.5 -187t-128 -251t-47 -302.5q0 -202 91 -353t246 -228t353 -77q145 0 297 56v-35q-10 -6 -57 -25.5t-138 -43t-168 -23.5q-366 0 -573 181.5t-207 492.5q0 142 43.5 278t118.5 247
t177.5 205.5t219 159t245 100.5t253.5 36q159 0 288 -50t212.5 -136.5t128.5 -201.5t45 -247q0 -118 -38 -227t-101 -189.5t-140.5 -140.5t-159 -90.5t-155.5 -30.5q-123 0 -177 74t-10 215zM760 176q53 0 136.5 90.5t154.5 211.5t102 216l39 121q-61 80 -123 80
q-82 0 -172 -97.5t-149.5 -246.5t-59.5 -287q0 -88 72 -88z" />
    <glyph glyph-name="A" unicode="A" horiz-adv-x="1409" 
d="M-80 0l8 45l135 39l725 1280l66 14l78 15l190 -1301l131 -49l-6 -43h-512l6 45l177 45l-54 379h-481l-201 -375l193 -51l-6 -43h-449zM764 1174l-326 -605h412l-84 605h-2z" />
    <glyph glyph-name="B" unicode="B" horiz-adv-x="1228" 
d="M434 -6l-481 6l8 45l156 45l233 1176l-137 51l6 43h395q271 0 395 -80.5t124 -214.5q0 -92 -64 -167.5t-161.5 -118.5t-213.5 -58v-6q80 -6 152 -30t130 -64t92 -100t34 -132q0 -193 -176.5 -296.5t-491.5 -98.5zM885 358q0 88 -35.5 153t-98 102.5t-140 55t-169.5 15.5
l-110 -565q67 -70 211 -70q140 0 241 84t101 225zM565 1313l-110 -568l135 11q147 11 235 87.5t88 200.5q0 130 -93.5 201t-254.5 68z" />
    <glyph glyph-name="C" unicode="C" horiz-adv-x="1449" 
d="M733 -35q-131 0 -241.5 38.5t-192.5 111t-128 185.5t-46 255q0 120 38 239.5t115 226.5t182.5 190t252.5 131.5t313 48.5q184 0 404 -115l-48 -369h-49l-61 307q-120 111 -271 111q-87 0 -176 -32t-172 -98.5t-147 -159t-102.5 -223.5t-38.5 -282q0 -240 113.5 -368.5
t289.5 -128.5q157 0 274 88l207 334h49l-110 -394q-72 -27 -120.5 -43t-145.5 -34.5t-189 -18.5z" />
    <glyph glyph-name="D" unicode="D" horiz-adv-x="1472" 
d="M565 1307l-235 -1192q80 -55 207 -52q127 2 232.5 42t179.5 106.5t125.5 156.5t75.5 192.5t24 213.5q0 134 -44 236.5t-125 166.5t-191.5 96.5t-248.5 33.5zM-47 0l8 45l156 45l233 1176l-137 51l6 43l354 2q397 3 611.5 -149t214.5 -429q0 -248 -120.5 -428
t-341.5 -272.5t-519 -89.5z" />
    <glyph glyph-name="E" unicode="E" horiz-adv-x="1183" 
d="M711 680h-271l-112 -574q43 -34 127 -34h344l221 334h53l-125 -406h-995l8 45l156 45l233 1176l-137 51l6 43h817l131 8l-49 -387h-51l-66 309h-440l-106 -538h272l100 180h47l-86 -436h-53z" />
    <glyph glyph-name="F" unicode="F" horiz-adv-x="1116" 
d="M713 662h-275l-112 -572l159 -47l-6 -43h-526l8 45l156 45l233 1176l-137 51l6 43h803l143 8l-61 -397h-51l-64 319h-428l-108 -555h274l102 185h50l-88 -457h-48z" />
    <glyph glyph-name="G" unicode="G" horiz-adv-x="1468" 
d="M365 520q-1 -119 31 -214.5t87 -154.5t125 -90.5t148 -31.5q104 0 179 48.5t93 137.5l49 250l-196 41l8 49h508l-8 -49l-107 -41l-72 -371q-17 -7 -66.5 -30t-84 -36t-89 -30t-118 -25t-135.5 -8q-167 0 -301 72t-212.5 209t-78.5 315q0 122 38 242t114.5 226t181.5 187
t248.5 128t306.5 47q116 0 210.5 -31.5t196.5 -85.5l-57 -367h-51l-62 326q-102 92 -247 92q-89 0 -179 -33.5t-172.5 -102t-147 -162.5t-102.5 -225.5t-38 -281.5z" />
    <glyph glyph-name="H" unicode="H" horiz-adv-x="1478" 
d="M776 0l6 45l174 45l117 592h-631l-116 -592l153 -47l-8 -43h-518l8 45l156 45l233 1176l-139 51l8 43h518l-8 -45l-172 -49l-102 -518h630l105 522l-154 47l6 43h519l-9 -45l-153 -45l-236 -1180l142 -47l-9 -43h-520z" />
    <glyph glyph-name="I" unicode="I" horiz-adv-x="638" 
d="M-47 0l8 45l156 45l233 1176l-137 51l6 43h502l-8 -45l-156 -45l-233 -1180l139 -47l-6 -43h-504z" />
    <glyph glyph-name="J" unicode="J" horiz-adv-x="667" 
d="M586 1270l-236 -1182q-23 -121 -59 -206.5t-98.5 -155t-158 -112.5t-231.5 -65l-10 39q70 28 123.5 66t89 80.5t62.5 101t43.5 114t31.5 132.5l234 1188l-168 47l6 43h535l-11 -45z" />
    <glyph glyph-name="K" unicode="K" horiz-adv-x="1343" 
d="M-47 0l8 45l156 45l233 1176l-137 51l6 43h520l-8 -45l-174 -49l-231 -1176l153 -47l-8 -43h-518zM1247 43l-8 -43q-167 -16 -239 1q-94 21 -175 116q-79 92 -235 369q-35 62 -133 239v2l684 537l-162 49l6 47h414l-8 -47l-142 -49l-604 -473q80 -139 132 -228
t103.5 -172t81 -128t65 -87t55 -59.5t51 -35t53 -23.5t61.5 -15z" />
    <glyph glyph-name="L" unicode="L" horiz-adv-x="1142" 
d="M328 106q39 -34 127 -34h301l252 385h61l-151 -457h-965l8 45l156 45l233 1176l-137 51l6 43h520l-8 -45l-174 -49z" />
    <glyph glyph-name="M" unicode="M" horiz-adv-x="1753" 
d="M-68 0l11 45l153 45l310 1174l-140 53l6 43h375l189 -1016l573 956l25 60h364l-8 -45l-154 -45l-180 -1180l141 -47l-8 -43h-520l8 45l172 45l176 1092l-604 -998l-65 -129h-74l-14 127l-203 1030l-275 -1122l162 -47l-8 -43h-412z" />
    <glyph glyph-name="N" unicode="N" horiz-adv-x="1419" 
d="M1090 -20h-54l-637 1159l-190 -1047l160 -49l-7 -43h-409l8 45l156 45l225 1131q-46 54 -115 79l-37 17l9 43h319l559 -1014l168 922l-160 49l7 43h409l-10 -45l-154 -45l-196 -994z" />
    <glyph glyph-name="O" unicode="O" horiz-adv-x="1568" 
d="M922 1393q109 0 209.5 -42.5t179.5 -119.5t126.5 -196.5t47.5 -262.5q0 -114 -34 -229.5t-103 -220.5t-164 -186.5t-226.5 -130t-279.5 -48.5q-104 0 -202 42t-177 118t-126.5 195t-47.5 261q0 117 34.5 234.5t103.5 222.5t163.5 186t223 129t272.5 48zM1262 889
q0 89 -21.5 167.5t-62.5 140.5t-106 98t-146 36q-104 0 -198 -53t-161.5 -140t-118 -197.5t-75.5 -228.5t-25 -229q0 -96 20 -178.5t60 -147.5t105 -102t149 -37q110 0 206 54.5t163 144t116 204t72 234t23 234.5z" />
    <glyph glyph-name="P" unicode="P" horiz-adv-x="1208" 
d="M498 602l10 55q69 1 131 11.5t121 36t101.5 64t68.5 98t26 134.5q0 135 -101 217t-290 91l-241 -1219l182 -47l-6 -43h-547l8 45l156 45l233 1176l-137 51l6 43h459q225 -5 365.5 -96t140.5 -244q0 -102 -54 -185.5t-147 -137t-218.5 -79t-266.5 -16.5z" />
    <glyph glyph-name="Q" unicode="Q" horiz-adv-x="1568" 
d="M922 1393q109 0 209.5 -42.5t179.5 -119.5t126.5 -196.5t47.5 -262.5q0 -104 -28.5 -209t-86 -203.5t-137.5 -178.5t-190 -136.5t-236 -75.5q190 -148 262 -194q183 -113 338 -115q94 0 178.5 28.5t186.5 90.5l20 -31q-252 -219 -469 -219q-62 0 -123 12t-110.5 28
t-110 51t-102 62t-107 80t-105 87.5t-114.5 100.5q-28 25 -43 38q-167 58 -275 210.5t-108 374.5q0 117 34.5 234.5t103.5 222.5t163.5 186t223 129t272.5 48zM1262 889q0 193 -87.5 317.5t-248.5 124.5q-104 0 -198 -53t-161.5 -140t-118 -197.5t-75.5 -228.5t-25 -229
q0 -96 20 -178.5t60 -147.5t105 -102t149 -37q111 0 207 54.5t163 144t115.5 204t71.5 234t23 234.5z" />
    <glyph glyph-name="R" unicode="R" horiz-adv-x="1343" 
d="M-47 0l8 45l156 45l233 1176l-137 51l6 43h451q221 0 359 -82t138 -221q0 -78 -34.5 -142.5t-94.5 -107.5t-125.5 -71t-142.5 -46q59 -123 95 -196.5t75.5 -147.5t60.5 -111t49.5 -75t44.5 -52.5t44 -30t48.5 -21t57.5 -13.5l-8 -43q-162 -17 -228 -2q-82 18 -147 102
q-60 78 -179 324q-19 39 -62 128l-41 85h-148l-108 -547l180 -47l-6 -43h-545zM565 1309l-121 -609q239 -6 368.5 89t129.5 245q0 131 -94.5 206.5t-282.5 68.5z" />
    <glyph glyph-name="S" unicode="S" horiz-adv-x="1085" 
d="M113 465h49l45 -346q104 -86 235 -86q126 0 219 80t93 196q0 85 -44.5 146.5t-160.5 136.5l-88 57q-131 84 -177 157t-46 183q0 165 148.5 284.5t365.5 119.5q127 0 315 -72l-78 -367h-47l-37 303q-97 68 -207 68q-121 0 -197.5 -72t-76.5 -180q0 -77 36.5 -132
t133.5 -118l82 -53q78 -50 122.5 -84.5t84 -77.5t55.5 -90.5t16 -107.5q0 -97 -46 -181.5t-121.5 -141.5t-172.5 -89.5t-198 -32.5q-182 0 -377 103z" />
    <glyph glyph-name="T" unicode="T" horiz-adv-x="1337" 
d="M393 1360h867l137 14l-94 -377h-54l-22 295h-320l-239 -1202l143 -47l-8 -43h-506l8 45l156 45l239 1202h-303l-147 -295h-53l63 377z" />
    <glyph glyph-name="U" unicode="U" horiz-adv-x="1466" 
d="M655 -49q-98 0 -177 22t-142.5 70t-98 123t-43.5 181.5t21 246.5l137 672l-139 51l6 43h522l-10 -45l-172 -49l-145 -725q-42 -219 40 -342t263 -123q82 0 149.5 24.5t128 79.5t104.5 153.5t68 237.5l123 689l-160 53l7 47h417l-6 -47l-155 -49l-146 -740
q-55 -273 -200.5 -423t-391.5 -150z" />
    <glyph glyph-name="V" unicode="V" horiz-adv-x="1343" 
d="M512 -14l-221 1282l-113 49l6 43h504l-10 -45l-178 -51l166 -1024l559 1026l-176 51l6 43h403l-10 -45l-107 -39l-757 -1290h-72z" />
    <glyph glyph-name="W" unicode="W" horiz-adv-x="1882" 
d="M1147 -14l-125 946l-508 -946h-92l-131 1282l-111 49l8 43h494l-8 -45l-178 -51l90 -1004l418 815l-25 191l-100 51l6 43h487l-8 -45l-180 -51l123 -1004l469 1006l-174 51l6 43h387l-8 -45l-107 -39l-639 -1290h-94z" />
    <glyph glyph-name="X" unicode="X" horiz-adv-x="1437" 
d="M-55 45l137 33l561 596l-278 592l-127 51l6 43h532l-10 -45l-172 -49l203 -463h4l413 461l-188 53l6 43h443l-9 -45l-133 -45l-506 -539l297 -641l140 -47l-9 -43h-540l6 45l176 45l-225 512h-4l-461 -520l207 -39l-8 -43h-469z" />
    <glyph glyph-name="Y" unicode="Y" horiz-adv-x="1312" 
d="M1292 1274l-522 -731l-90 -455l129 -47l-8 -41h-479l10 43l141 45l86 432l-250 746l-116 51l8 43h506l-11 -45l-168 -49l209 -658l449 652l-180 57l8 43h399l-8 -45z" />
    <glyph glyph-name="Z" unicode="Z" horiz-adv-x="1259" 
d="M-18 0l12 45l995 1245h-577l-172 -346h-54l66 426l156 -10h870l-2 -17l-1016 -1269h623l231 344h53l-133 -428l-155 10h-897z" />
    <glyph glyph-name="bracketleft" unicode="[" horiz-adv-x="636" 
d="M399 -371h-364l371 1872h362l-12 -61h-197l-342 -1749h197z" />
    <glyph glyph-name="backslash" unicode="\" horiz-adv-x="874" 
d="M731 -397l-69 -13l-420 1917l69 15z" />
    <glyph glyph-name="bracketright" unicode="]" horiz-adv-x="616" 
d="M233 1501h363l-371 -1872h-360l12 62h195l346 1749h-199z" />
    <glyph glyph-name="asciicircum" unicode="^" horiz-adv-x="870" 
d="M233 958h-77l428 590h30l222 -590h-74l-184 461z" />
    <glyph glyph-name="underscore" unicode="_" horiz-adv-x="835" 
d="M-145 -424l14 66h776l-12 -66h-778z" />
    <glyph glyph-name="grave" unicode="`" horiz-adv-x="516" 
d="M262 1550h162l57 -415h-49l-170 397v18z" />
    <glyph glyph-name="a" unicode="a" horiz-adv-x="1040" 
d="M879 1047h112l-250 -900h7q48 29 100 87.5t94 123.5l41 -14q-63 -139 -173.5 -254t-182.5 -115q-34 0 -54.5 15.5t-26 41t-2.5 53.5t13 58l94 285h-14q-37 -59 -62 -96.5t-68 -98.5t-79.5 -101t-80.5 -80.5t-88 -60.5t-85 -20q-78 0 -122 51t-38 152q5 123 53 247.5
t122 222.5t160.5 175.5t173.5 119.5t155 42q91 0 147 -35zM279 123q57 0 152 107.5t175.5 242.5t110.5 227l45 136q-55 75 -131 75q-84 0 -178 -106.5t-159 -268t-73 -311.5q-3 -102 58 -102z" />
    <glyph glyph-name="b" unicode="b" horiz-adv-x="978" 
d="M315 -33q-157 0 -276 135l-16 21l313 1223l-133 90l6 16l356 78l-248 -946h9q97 170 226 292.5t241 122.5q79 0 124 -74t41 -200q-4 -70 -28.5 -153.5t-65.5 -168t-100.5 -163t-127.5 -139.5t-152 -97.5t-169 -36.5zM242 268l-37 -135q17 -45 56 -76.5t93 -31.5
q88 0 179.5 110.5t150.5 265t66 287.5q3 76 -18.5 115t-59.5 39q-74 0 -168.5 -106t-164.5 -237t-97 -231z" />
    <glyph glyph-name="c" unicode="c" horiz-adv-x="811" 
d="M524 893q-67 0 -132.5 -93.5t-105.5 -232t-42 -270.5q-1 -90 30.5 -134t87.5 -44q82 0 158.5 67t157.5 181l35 -23q-25 -47 -52 -90t-71 -96.5t-90 -91.5t-108 -64.5t-126 -26.5q-110 0 -172.5 76.5t-60.5 188.5q3 181 87 349t247 288q65 51 147.5 86.5t155.5 35.5
q67 0 117.5 -35.5t50.5 -86.5q0 -38 -27.5 -78t-42.5 -49q-143 143 -244 143z" />
    <glyph glyph-name="d" unicode="d" horiz-adv-x="1050" 
d="M645 997q89 0 158 -32l98 381l-137 90l8 16l358 76l-358 -1378h6q88 53 197 208l37 -14q-65 -142 -173.5 -254.5t-181.5 -112.5q-56 0 -75 41.5t6 124.5l80 271h-11q-27 -48 -59.5 -98.5t-83 -115t-100 -113t-110 -82.5t-114.5 -34q-76 0 -127.5 60.5t-44.5 187.5
q5 109 40.5 222t96 211.5t136.5 176.5t168.5 123t185.5 45zM741 725l29 113q-27 45 -65.5 71.5t-79.5 26.5q-93 0 -184 -102.5t-149 -261t-65 -318.5q-4 -71 16.5 -105t53.5 -34q53 0 146 96.5t179 242t119 271.5z" />
    <glyph glyph-name="e" unicode="e" horiz-adv-x="802" 
d="M276 -25q-126 0 -187 85t-56 216q9 173 96 324.5t219 257.5q168 141 324 141q72 0 115 -39.5t40 -107.5q-3 -66 -54.5 -128.5t-134.5 -109.5t-184 -81t-206 -50q-12 -52 -15 -106q-6 -125 33.5 -191.5t120.5 -66.5q65 0 139 56.5t127 135.5l39 -18q-26 -50 -61.5 -98.5
t-88 -101.5t-122.5 -85.5t-144 -32.5zM573 918q-80 0 -175 -112.5t-138 -268.5q133 24 249 114t122 199q2 32 -13.5 50t-44.5 18z" />
    <glyph glyph-name="f" unicode="f" horiz-adv-x="622" 
d="M72 887l14 82h184q43 144 139 274t215 208.5t226 78.5q74 0 128 -36t54 -79q-2 -64 -82 -139q-55 71 -107.5 111t-113.5 40q-22 0 -45 -10.5t-52.5 -41t-57 -79t-58 -133t-55.5 -194.5h244l-23 -82h-238l-163 -819q-53 -261 -189 -428.5t-303 -167.5q-48 0 -94.5 33.5
t-46.5 84.5q0 45 25.5 77.5t58.5 49.5q89 -157 172 -157q46 0 78 74t67 247l203 1006h-180z" />
    <glyph glyph-name="g" unicode="g" horiz-adv-x="882" 
d="M549 995q61 0 153 -20l265 12l-29 -125l-197 43v-6q21 -25 37.5 -80.5t12.5 -113.5q-5 -105 -64.5 -204.5t-162 -165t-218.5 -65.5h-27q-63 -31 -63 -80q0 -32 29 -51l315 -157q99 -49 135.5 -96t34.5 -103q-6 -122 -160.5 -213.5t-371.5 -91.5q-192 0 -299 53t-103 147
q4 88 112 154t285 107v6l-32 14q-108 48 -103 145q1 25 12 47.5t22.5 37.5t37.5 34.5t39.5 28t46.5 27.5v8q-77 32 -121 108t-39 166q3 78 35 154t87 139t141.5 102t189.5 39zM471 -168l-180 86q-143 -43 -203 -84.5t-63 -109.5q-3 -77 80 -126t237 -49q117 0 197.5 46
t83.5 104q2 32 -30 61t-122 72zM539 938q-63 0 -125.5 -73.5t-102 -182t-43.5 -211.5q-10 -147 76 -147q65 0 128.5 76t103.5 189t45 222q4 50 -15.5 88.5t-66.5 38.5z" />
    <glyph glyph-name="h" unicode="h" horiz-adv-x="1015" 
d="M569 1530l-254 -975h11q49 84 102.5 158t115.5 140.5t128.5 105t126.5 38.5q83 0 110 -50.5t-4 -170.5l-174 -626h6q90 56 197 208l37 -14q-69 -140 -177.5 -253.5t-179.5 -113.5q-56 0 -75 40t4 126l180 623q24 84 -35 84q-45 0 -111 -57t-130.5 -146t-124 -209
t-91.5 -237l-51 -185l-166 -45l-26 27l354 1348l-115 90l6 16z" />
    <glyph glyph-name="i" unicode="i" horiz-adv-x="526" 
d="M258 842q-25 20 -75.5 22t-102.5 -12l4 27q122 118 240 118q66 0 96.5 -51t3.5 -153l-180 -643h8q46 30 99.5 90t88.5 118l43 -14q-61 -131 -172 -249t-184 -118q-54 0 -73 40.5t1 125.5zM303 1374q2 47 36 81t81 34t80 -34t32 -81q0 -47 -34.5 -80.5t-81.5 -33.5
t-80 33.5t-33 80.5z" />
    <glyph glyph-name="j" unicode="j" horiz-adv-x="495" 
d="M23 -94l235 934q-28 21 -79 23.5t-99 -11.5v27q122 118 239 118q68 0 101 -54t4 -169l-197 -772q-32 -130 -98 -248.5t-165.5 -200t-205.5 -81.5q-49 0 -99 32.5t-50 85.5q0 46 24.5 78t57.5 49q39 -76 83.5 -116.5t84.5 -40.5q50 0 82.5 76.5t81.5 269.5zM301 1374
q0 47 35 81t82 34q46 0 79.5 -34t32.5 -81q0 -47 -35 -80.5t-81 -33.5q-47 0 -80 33.5t-33 80.5z" />
    <glyph glyph-name="k" unicode="k" horiz-adv-x="952" 
d="M770 -86q-67 0 -109 24t-108 101l-274 319q-52 -113 -70 -200l-33 -144l-162 -43l-26 27l354 1348l-115 90l6 16l336 78l-256 -971h11q255 438 471 438q66 0 104.5 -43t38.5 -112q0 -254 -479 -445l413 -440v-12q-36 -31 -102 -31zM705 858q-76 0 -203.5 -147
t-216.5 -338q219 85 354 197.5t135 205.5q0 82 -69 82z" />
    <glyph glyph-name="l" unicode="l" horiz-adv-x="499" 
d="M451 344q-62 -139 -172 -253t-183 -114q-116 0 -71 166l313 1203l-135 90l6 16l354 78l-352 -1380h6q91 57 197 208z" />
    <glyph glyph-name="m" unicode="m" horiz-adv-x="1564" 
d="M16 -2l244 850q-22 13 -70.5 15t-103.5 -11l4 27q122 118 234 118q78 0 103.5 -59.5t-5.5 -163.5l-62 -201h13q256 424 461 424q78 0 101.5 -64.5t-11.5 -184.5l-64 -195h10q58 94 112 166.5t116 139t126 102.5t124 36q165 0 106 -221l-174 -626h6q89 58 195 208l37 -14
q-69 -140 -177 -253.5t-180 -113.5q-55 0 -74 40t3 128l184 623q9 35 -0.5 58.5t-36.5 23.5q-63 0 -153.5 -96t-175 -248t-130.5 -305l-53 -185l-162 -45l-28 27l221 768q10 34 1.5 59t-36.5 25q-64 0 -156 -95t-179 -253t-130 -322l-43 -164l-170 -45z" />
    <glyph glyph-name="n" unicode="n" horiz-adv-x="1048" 
d="M16 -2l244 848q-23 17 -71.5 18.5t-100.5 -12.5l2 27q122 118 234 118q78 0 103.5 -59.5t-5.5 -163.5l-62 -201h13q256 424 458 424q83 0 110.5 -50.5t-3.5 -170.5l-174 -626h6q90 56 197 208l37 -14q-69 -140 -177 -253.5t-180 -113.5q-55 0 -74.5 40t2.5 126l181 623
q13 41 3 62.5t-38 21.5q-63 0 -153 -95t-174 -246.5t-130 -307.5l-55 -185l-166 -45z" />
    <glyph glyph-name="o" unicode="o" horiz-adv-x="960" 
d="M598 948q-64 0 -128.5 -67.5t-111.5 -169t-78.5 -216.5t-37.5 -212q-15 -258 102 -258q82 0 166.5 107t139 260.5t63.5 295.5q13 260 -115 260zM621 997q79 0 138.5 -32.5t93 -86.5t48.5 -118t12 -133q-5 -89 -32.5 -180t-78 -176t-116.5 -151t-156.5 -105.5
t-191.5 -39.5q-151 0 -225 111t-66 276q4 86 31 174.5t77 171t116.5 147t157.5 103.5t192 39z" />
    <glyph glyph-name="p" unicode="p" horiz-adv-x="985" 
d="M-63 -397l292 1165q-84 -48 -192 -113l-21 35q105 91 238 170l51 203h141l-32 -121q129 55 233 55q150 0 226.5 -80.5t74.5 -197.5q-2 -135 -54 -272t-133.5 -241t-188 -169.5t-212.5 -65.5q-67 0 -139 37l-102 -411l262 -13l-16 -71h-578l8 41zM381 31q84 0 170.5 108
t140.5 258t56 277q1 101 -45.5 160t-124.5 59q-62 0 -142 -27l-188 -749q49 -86 133 -86z" />
    <glyph glyph-name="q" unicode="q" horiz-adv-x="993" 
d="M457 -401l170 675q7 30 17.5 65t17.5 55l6 20h-13q-27 -48 -59.5 -98.5t-83 -115t-100 -113t-109.5 -82.5t-113 -34q-34 0 -65 13.5t-57 41t-40.5 77.5t-11.5 116q7 136 65 277t144.5 251t199 180t220.5 70q113 0 191 -59l22 61h135l-356 -1402l180 -13l-12 -71h-541
l8 41zM295 115q53 0 148 98t182 244.5t116 267.5l27 111q-27 45 -65 71.5t-80 26.5q-84 0 -175 -101.5t-153.5 -260.5t-69.5 -316q-4 -72 16 -106.5t54 -34.5z" />
    <glyph glyph-name="r" unicode="r" horiz-adv-x="770" 
d="M16 -2l68 242q36 140 78 292t66 234l24 82q-11 7 -29 12t-58 5t-87 -11l4 27q120 116 240 116q69 0 95 -50t-3 -144l-119 -357h20q155 310 246.5 432.5t177.5 122.5q47 0 74 -25.5t27 -68.5q0 -62 -42 -118t-102 -95h-45q30 52 28.5 89.5t-32.5 37.5q-40 0 -113 -99
t-145.5 -242.5t-118.5 -276.5l-65 -187l-162 -45z" />
    <glyph glyph-name="s" unicode="s" horiz-adv-x="657" 
d="M557 287q0 -68 -52 -141.5t-140 -124t-179 -50.5q-99 0 -159 50.5t-58 111.5q0 66 51 125h5q90 -105 151 -150t129 -45q37 0 68.5 30t32.5 69q0 66 -70 160l-107 147q-67 92 -85 127.5t-17 83.5q3 81 67 157.5t149 120t157 43.5q81 0 127 -38t43 -97q-2 -57 -47 -112h-2
q-71 71 -128 108t-116 37q-41 0 -72 -27.5t-31 -66.5q0 -61 68 -152l107 -145q68 -94 88 -132t20 -89z" />
    <glyph glyph-name="t" unicode="t" horiz-adv-x="663" 
d="M72 887l8 57l201 27l127 280h108l-61 -282h274l-16 -82h-275l-192 -737h6q60 17 149 105.5t146 168.5l41 -23q-46 -76 -97 -144.5t-112 -135.5t-125.5 -106.5t-120.5 -39.5q-48 0 -72.5 36t-7.5 93l201 783h-182z" />
    <glyph glyph-name="u" unicode="u" horiz-adv-x="1034" 
d="M66 211l174 635q-23 17 -71 18.5t-99 -12.5l2 27q122 118 237 118q148 0 92 -217l-153 -587q-8 -31 1 -45.5t27 -14.5q65 0 165 112.5t183.5 264.5t112.5 268l47 185l166 22l17 -18l-211 -817h6q84 55 192 208l37 -14q-69 -140 -177.5 -253.5t-178.5 -113.5q-55 0 -74 39
t4 127l94 332h-6q-12 -20 -45.5 -74.5t-52 -84.5t-53.5 -81.5t-60.5 -82t-63 -69t-70.5 -59.5t-73 -36t-79 -15q-44 0 -71 22.5t-36 75.5t17 140z" />
    <glyph glyph-name="v" unicode="v" horiz-adv-x="880" 
d="M375 815l14 -653q197 253 272.5 378.5t75.5 209.5q0 57 -34.5 86.5t-92.5 29.5q-39 0 -86 -14l4 29q118 118 213 118q67 0 104.5 -46t37.5 -122q0 -56 -26 -121t-85 -149t-103.5 -140t-132.5 -160q-28 -33 -42 -50l-203 -240h-19l-55 31l-31 842q-33 20 -77 20
q-41 0 -82 -12l2 27q120 120 219 120q63 0 94.5 -43t32.5 -141z" />
    <glyph glyph-name="w" unicode="w" horiz-adv-x="1331" 
d="M829 813l2 -647h7q350 414 350 584q0 57 -34.5 86.5t-92.5 29.5q-43 0 -84 -14l2 29q118 118 213 118q66 0 103.5 -46t37.5 -122q0 -46 -22 -104t-50 -107t-84.5 -124t-93.5 -119.5t-108 -128.5l-33 -39l-199 -238h-18l-66 31l3 453h-7q-95 -122 -266 -359l-90 -125h-18
l-74 31l-8 836q-37 26 -90 26q-45 0 -82 -12l2 27q117 120 225 120q64 0 92.5 -44.5t30.5 -139.5l4 -637h6q147 190 268 373l-2 287q-33 26 -88 26q-41 0 -84 -12l4 27q117 120 224 120q59 0 89.5 -43.5t30.5 -142.5z" />
    <glyph glyph-name="x" unicode="x" horiz-adv-x="960" 
d="M555 -23q-39 0 -60 23t-32 72l-62 299l-92 -138q-100 -152 -155 -207t-121 -55q-46 0 -80.5 29.5t-34.5 79.5q0 30 13 62.5t25 49.5l13 17l58 -51q62 -54 126.5 -8t192.5 241l39 58l-57 280q-13 59 -29 84t-45 25q-19 0 -38.5 -17t-45.5 -73.5t-47 -147.5h-39
q13 178 87 287.5t171 109.5q68 0 100.5 -44.5t57.5 -153.5l35 -185l118 187q72 116 125 157t109 39q41 -2 66.5 -27.5t25.5 -72.5q0 -59 -41 -118.5t-84 -88.5h-55q29 39 40 78.5t2 63.5t-32 24q-27 0 -55.5 -32.5t-100.5 -133.5l-104 -153l78 -404h8q94 24 239 227l39 -14
q-70 -141 -178 -255t-180 -114z" />
    <glyph glyph-name="y" unicode="y" horiz-adv-x="944" 
d="M74 596h-37q9 176 76.5 287.5t175.5 111.5q97 0 155 -117t62 -346q3 -142 -20 -296.5t-66 -270.5h14q60 76 97.5 126t91.5 135t85 154t53.5 157t20.5 170q-2 67 -28 137t-68 119q56 36 117 36q104 0 106 -149q3 -138 -55.5 -301t-155 -311.5t-218 -289.5t-242 -244
t-229.5 -165.5t-179 -62.5q-57 0 -95 33t-38 92q-2 52 31 86t86 34q49 0 78.5 -34.5t54.5 -108.5h8q81 34 147 109t107 167t69 201t39 207.5t11 190.5q0 195 -33 290t-84 95q-83 0 -137 -242z" />
    <glyph glyph-name="z" unicode="z" horiz-adv-x="892" 
d="M858 1001l70 -59l-672 -688l252 -94q31 -12 57.5 -15.5t47.5 -3t44 13t38.5 23t39.5 37t39 45.5l45 57l39 -18q-90 -169 -169.5 -251.5t-160.5 -82.5q-48 0 -139 37l-270 111l-115 -152l-70 57l695 717l-240 86q-80 29 -120.5 33t-57.5 -20q-14 -27 11 -67.5t89 -84.5
q-33 -49 -63.5 -72.5t-69.5 -23.5q-36 0 -62 26.5t-26 73.5q1 60 51 134t126 127.5t143 53.5q43 0 75 -8t84 -32l195 -82z" />
    <glyph glyph-name="braceleft" unicode="{" horiz-adv-x="692" 
d="M242 598v-4q42 -15 70 -35.5t48.5 -57t22.5 -88t-8 -128.5l-60 -348q-12 -69 -13.5 -114.5t5.5 -76.5t27.5 -47t49 -22.5t73.5 -6.5l-6 -41h-29q-138 -1 -208 43t-80 134.5t26 228.5l88 344q22 87 -10 135.5t-99 50.5l-73 2l12 68l74 2q77 1 122 40t54 109l57 394
q23 158 115.5 240t290.5 81h30l-8 -41q-58 0 -93.5 -9.5t-66 -38.5t-51 -80.5t-39.5 -137.5l-71 -320q-30 -137 -89 -199.5t-161 -76.5z" />
    <glyph glyph-name="bar" unicode="|" horiz-adv-x="505" 
d="M88 -416h-76l385 1925h74z" />
    <glyph glyph-name="braceright" unicode="}" horiz-adv-x="692" 
d="M403 532v5q-34 12 -58 27t-44 39.5t-28.5 57t-10.5 79t10 106.5l58 348q12 69 13.5 114.5t-5.5 76t-27.5 46.5t-49 22.5t-73.5 6.5l7 41h28q138 1 208 -43t80 -134t-26 -228l-86 -344q-22 -87 9.5 -136t97.5 -51l74 -2l-13 -67l-71 -2q-77 -1 -123.5 -40.5t-55.5 -109.5
l-57 -393q-11 -77 -36.5 -133.5t-71.5 -100.5t-120 -66.5t-175 -21.5h-33l10 41q76 0 118.5 19.5t73.5 76.5t56 171l72 319q30 136 89 199t160 77z" />
    <glyph glyph-name="asciitilde" unicode="~" horiz-adv-x="915" 
d="M59 424l-39 16l13 31q29 71 63 117.5t68 68.5t77.5 27t82 -2t90.5 -23l164 -51q72 -22 118.5 -28t82.5 7.5t60.5 41t53.5 78.5l39 -19l-10 -26q-61 -159 -154 -206.5t-231 -4.5l-138 43q-70 22 -113 32t-79 11.5t-60 -12.5t-44.5 -36.5t-43.5 -64.5z" />
    <glyph glyph-name="uni00A0" unicode="&#xa0;" horiz-adv-x="309" 
 />
    <glyph glyph-name="exclamdown" unicode="&#xa1;" horiz-adv-x="595" 
d="M254 -242h-215l283 1030h51zM395 1202q57 0 96 -39t39 -96t-39 -97t-96 -40t-97 40t-40 97t40 96t97 39z" />
    <glyph glyph-name="cent" unicode="&#xa2;" horiz-adv-x="868" 
d="M295 -244l51 224q-35 -5 -47 -5q-111 0 -174.5 76.5t-61.5 190.5q2 183 90 353.5t253 289.5q73 56 163 90l58 250h65l-53 -232q27 6 57 6q69 0 119.5 -36t50.5 -89q0 -27 -16 -56.5t-31 -45.5t-20 -18q-103 107 -183 137l-176 -772q67 17 130.5 80t138.5 168l34 -23
q-149 -282 -329 -348l-56 -240h-63zM268 301q-1 -88 28 -135t79 -53l178 786q-68 -7 -134.5 -99t-107.5 -228.5t-43 -270.5z" />
    <glyph glyph-name="sterling" unicode="&#xa3;" horiz-adv-x="1224" 
d="M170 541l12 67h246l47 187q26 108 73.5 200.5t102 154t115 105t115 63t100.5 19.5q80 0 142.5 -44t62.5 -111q0 -51 -36 -80t-108 -45q-18 105 -54 158t-79 53q-108 0 -176 -262l-106 -398h393l-14 -67h-398q-80 -324 -325 -486q126 -61 252 -145l73 -49
q204 -140 237 -158q51 -29 89 -29q62 0 81 81t-11 200q78 2 117.5 -15t39.5 -73q0 -37 -25.5 -84t-68.5 -90.5t-110 -73t-140 -29.5q-58 0 -121.5 24.5t-137.5 78t-122 93.5t-133 116l-113 100q-98 -43 -157 -43q-48 0 -76.5 22.5t-28.5 61.5q0 37 30 61.5t77 24.5
q73 0 186 -47q98 95 156 321l35 138h-242z" />
    <glyph glyph-name="yen" unicode="&#xa5;" horiz-adv-x="1193" 
d="M127 535l12 63h350l-239 614l-98 48l8 43h477l-8 -46l-158 -45l201 -575h2l413 565l-186 58l6 43h391l-10 -46l-96 -40l-469 -619h367l-13 -63h-379l-30 -156h374l-12 -64h-375l-45 -235l150 -39l-6 -41h-518l10 43l160 37l45 235h-369l10 64h371l31 156h-367z" />
    <glyph glyph-name="brokenbar" unicode="&#xa6;" horiz-adv-x="507" 
d="M297 641h-74l174 868h74zM88 -416h-76l174 867h74z" />
    <glyph glyph-name="section" unicode="&#xa7;" horiz-adv-x="976" 
d="M436 -172q0 15 -3.5 32.5t-8 33.5t-16 47t-21 54.5t-30 74.5t-35.5 90l-89 221q-67 168 -67 276q0 95 41 189.5t106.5 170.5t148 142t167 110.5t161.5 69.5t132 25q67 0 104 -32.5t37 -78.5q0 -39 -28.5 -69t-73.5 -31q-2 3 -6.5 8t-19.5 18.5t-32.5 24t-46 20
t-59.5 11.5q-109 0 -211 -51q-27 -38 -27 -92q0 -17 3.5 -35.5t15 -50.5t21 -56.5t34 -85t41.5 -104.5l88 -223q65 -168 65 -275q0 -95 -40.5 -189.5t-106 -170t-148 -141.5t-166 -110.5t-160.5 -69.5t-132 -25q-67 0 -104.5 32t-37.5 78q0 39 29 69.5t72 31.5q2 -3 6.5 -8
t20 -18.5t33 -24t46.5 -20t60 -11.5q106 0 211 51q26 36 26 92zM332 758q0 -118 69 -295l74 -191q74 -190 74 -295q0 -109 -51 -178h10q156 131 156 363q0 44 -11.5 98t-24.5 93t-36 102l-72 192q-76 209 -76 295q0 97 52 178h-9q-155 -130 -155 -362z" />
    <glyph glyph-name="dieresis" unicode="&#xa8;" 
d="M262 1266q-46 0 -77 31t-31 77q0 45 31.5 78t76.5 33q44 0 76.5 -33.5t32.5 -77.5q0 -45 -32 -76.5t-77 -31.5zM616 1266q-44 0 -75 31t-31 77q0 45 31 78t75 33q45 0 78 -33t33 -78t-32.5 -76.5t-78.5 -31.5z" />
    <glyph glyph-name="copyright" unicode="&#xa9;" horiz-adv-x="1595" 
d="M113 672q6 194 106 357t266 257t359 94q194 0 354 -94t249.5 -257t82.5 -357q-5 -146 -66 -277.5t-159 -226t-231 -150t-277 -55.5q-145 0 -274 55.5t-221 150t-143 226t-46 277.5zM174 672q-6 -178 76 -329t228 -239t321 -88t327 88t244 239t98 329q4 133 -44 254.5
t-131.5 209t-201.5 139.5t-249 52q-175 0 -327 -87.5t-244 -238.5t-97 -329zM799 270q-84 0 -151 22.5t-109 59.5t-68.5 86.5t-35.5 101.5t-5 107q15 186 151.5 305t325.5 119q112 0 244 -65l-18 -209h-35l-56 166q-60 63 -147 63q-114 0 -195 -95t-96 -265
q-13 -161 50 -254t184 -93q84 0 153 58l94 176h37l-32 -205q-65 -29 -91.5 -40.5t-83.5 -24.5t-116 -13z" />
    <glyph glyph-name="ordfeminine" unicode="&#xaa;" horiz-adv-x="940" 
d="M799 1307h102l-192 -695l6 -2q89 39 182 170l31 -14q-50 -111 -139.5 -198t-167.5 -87q-48 0 -64 38t6 120l55 186h-8q-98 -151 -158 -217q-118 -131 -221 -131q-53 0 -85.5 39.5t-32.5 106.5q0 108 52 229t130 215.5t174 156.5t180 62q53 0 121 -37zM342 618
q46 0 117 72t130 170t83 176l37 121q-47 68 -113 68q-44 0 -98.5 -51t-99.5 -128.5t-76 -176.5t-31 -187q0 -28 15 -46t36 -18z" />
    <glyph glyph-name="guillemotleft" unicode="&#xab;" horiz-adv-x="942" 
d="M494 803l36 -43l-319 -336l205 -328l-45 -35l-326 347v34zM831 803l37 -43l-319 -336l205 -328l-45 -35l-326 347v34z" />
    <glyph glyph-name="logicalnot" unicode="&#xac;" horiz-adv-x="1144" 
d="M86 528h971v-403h-88v324h-883v79z" />
    <glyph glyph-name="registered" unicode="&#xae;" horiz-adv-x="862" 
d="M158 1143q0 168 120.5 284.5t290.5 116.5q169 0 288.5 -116.5t119.5 -284.5q0 -167 -122 -283.5t-292 -116.5t-287.5 115.5t-117.5 284.5zM215 1143q0 -149 101 -250.5t249 -101.5q150 0 251.5 101t101.5 251q0 149 -102 250.5t-251 101.5t-249.5 -101.5t-100.5 -250.5z
M328 944l6 23l59 14l70 350l-57 10l6 23h166q99 0 147.5 -27t48.5 -73q0 -82 -135 -119q65 -125 88 -151.5t72 -32.5l-4 -21q-37 -4 -58 -4.5t-43 6t-34.5 16t-32 35.5t-34.5 53.5t-42 79.5h-39l-27 -147l45 -14l-4 -21h-198zM553 1335l-35 -176h53q56 4 80.5 30t24.5 62
t-31 61.5t-92 22.5z" />
    <glyph glyph-name="macron" unicode="&#xaf;" 
d="M129 1282l25 121h555l-25 -121h-555z" />
    <glyph glyph-name="degree" unicode="&#xb0;" horiz-adv-x="581" 
d="M102 1235q0 112 81.5 191t195.5 79t190 -78t76 -192q0 -113 -80.5 -192.5t-193.5 -79.5q-116 0 -192.5 78.5t-76.5 193.5zM180 1235q0 -88 55.5 -147.5t139.5 -59.5t139 59.5t55 147.5t-55 147.5t-139 59.5t-139.5 -59.5t-55.5 -147.5z" />
    <glyph glyph-name="plusminus" unicode="&#xb1;" horiz-adv-x="1142" 
d="M1057 672h-441v-447h-88v447h-442v78h442v446h88v-446h441v-78zM86 0v80h971v-80h-971z" />
    <glyph glyph-name="acute" unicode="&#xb4;" horiz-adv-x="516" 
d="M444 1550h158v-16l-283 -399h-53z" />
    <glyph glyph-name="paragraph" unicode="&#xb6;" horiz-adv-x="1073" 
d="M283 -422q-144 0 -239 91t-95 227q0 139 93 229t216 90q98 0 156.5 -51.5t58.5 -126.5q0 -69 -41 -110.5t-98 -41.5q-53 0 -88 29.5t-35 81.5q68 50 106 113v6q-22 32 -84 32q-75 0 -139.5 -65.5t-64.5 -175.5q0 -107 72 -183.5t198 -76.5q129 0 221 87t125 253l258 1308
h-108l-160 -817h-94q-166 0 -270.5 109t-106.5 272q-1 108 46 204t124 160t173 101t193 37h465l-10 -45l-141 -45l-244 -1245q-23 -117 -72.5 -205.5t-116 -140t-141.5 -76.5t-157 -25z" />
    <glyph glyph-name="periodcentered" unicode="&#xb7;" horiz-adv-x="540" 
d="M258 418q-54 0 -94.5 41.5t-40.5 97.5q0 54 40.5 95.5t94.5 41.5q56 0 97.5 -41t41.5 -96q0 -56 -41 -97.5t-98 -41.5z" />
    <glyph glyph-name="cedilla" unicode="&#xb8;" horiz-adv-x="516" 
d="M-66 -518l-2 33q211 65 211 170q0 75 -84 104l164 234h56l-95 -144q117 -45 117 -137q0 -195 -367 -260z" />
    <glyph glyph-name="ordmasculine" unicode="&#xba;" horiz-adv-x="851" 
d="M285 711q0 -185 90 -185q68 0 135 90.5t106.5 216t40.5 232.5q0 32 -2 54t-9.5 57.5t-28 55t-52.5 19.5q-52 0 -104.5 -57t-89.5 -140t-60.5 -176t-25.5 -167zM582 1300q79 0 137 -43t85 -108.5t27 -142.5q0 -100 -37 -197t-99 -170t-148 -117.5t-178 -44.5
q-117 0 -183.5 87.5t-66.5 217.5q0 133 62 252.5t169.5 192.5t231.5 73z" />
    <glyph glyph-name="guillemotright" unicode="&#xbb;" horiz-adv-x="942" 
d="M55 61l-39 41l322 334l-207 330l45 37l326 -350l-2 -33zM393 61l-39 41l322 334l-207 330l45 37l326 -350l-2 -33z" />
    <glyph glyph-name="onequarter" unicode="&#xbc;" horiz-adv-x="1447" 
d="M905 35l107 22l28 133h-346l13 56l559 526l57 -12l-104 -471h147l-18 -99h-152l-29 -133l95 -24l-7 -33h-356zM510 1378l-152 -704l131 -25l-6 -39h-446l6 39l156 25l125 575l-160 -4v37l330 96h16zM127 -168l-49 45l1235 1602l51 -45zM817 289h246l67 297z" />
    <glyph glyph-name="onehalf" unicode="&#xbd;" horiz-adv-x="1511" 
d="M1165 256l-176 -125h408l-33 -131h-561l10 41l240 203q103 85 159 155t56 136q0 59 -39 94t-103 35q-99 0 -182 -117l-37 22q46 93 122 148t181 55q100 0 160 -56t62 -136q0 -45 -18.5 -86.5t-59 -83t-81.5 -74t-108 -80.5zM510 1378l-152 -704l131 -25l-6 -39h-446l6 39
l156 25l125 575l-160 -4v37l330 96h16zM127 -168l-49 45l1235 1602l51 -45z" />
    <glyph glyph-name="threequarters" unicode="&#xbe;" horiz-adv-x="1519" 
d="M977 35l106 22l29 133h-346l12 56l559 526l58 -12l-105 -471h148l-19 -99h-151l-29 -133l94 -24l-6 -33h-356zM414 1034l-2 -10q100 -4 158.5 -52t58.5 -120q1 -77 -54 -137.5t-138.5 -91.5t-176.5 -31q-89 0 -147 33.5t-58 81.5q-2 31 21 56t65 34q76 -158 187 -158
q56 0 99.5 43.5t43.5 103.5q-2 74 -66.5 121.5t-189.5 53.5l10 53q126 24 199.5 69.5t73.5 104.5q2 43 -29 70.5t-80 27.5q-93 0 -196 -121l-35 25q33 57 67 96t92.5 68.5t131.5 29.5q89 0 145.5 -42t56.5 -105q-3 -136 -237 -203zM199 -168l-49 45l1234 1602l52 -45z
M889 289h246l67 297z" />
    <glyph glyph-name="questiondown" unicode="&#xbf;" horiz-adv-x="794" 
d="M543 -4l-35 -225l-72 22q-71 24 -137.5 69.5t-121.5 106.5t-88.5 141t-33.5 164q0 135 65 210t206 100l200 34l54 170h53l-51 -342l-291 -43q-81 -11 -121.5 -41t-40.5 -88q0 -52 33 -97.5t89 -77.5t115 -54t126 -37zM659 1202q57 0 96.5 -39t39.5 -96t-39.5 -97
t-96.5 -40t-97 40t-40 97t40 96t97 39z" />
    <glyph glyph-name="Agrave" unicode="&#xc0;" horiz-adv-x="1409" 
d="M-80 0l8 45l135 39l725 1280l66 14l78 15l190 -1301l131 -49l-6 -43h-512l6 45l177 45l-54 379h-481l-201 -375l193 -51l-6 -43h-449zM764 1174l-326 -605h412l-84 605h-2zM614 1790h179l118 -287h-71l-226 264v23z" />
    <glyph glyph-name="Aacute" unicode="&#xc1;" horiz-adv-x="1409" 
d="M-80 0l8 45l135 39l725 1280l66 14l78 15l190 -1301l131 -49l-6 -43h-512l6 45l177 45l-54 379h-481l-201 -375l193 -51l-6 -43h-449zM764 1174l-326 -605h412l-84 605h-2zM1006 1790h182v-23l-295 -264h-74z" />
    <glyph glyph-name="Acircumflex" unicode="&#xc2;" horiz-adv-x="1409" 
d="M-80 0l8 45l135 39l725 1280l66 14l78 15l190 -1301l131 -49l-6 -43h-512l6 45l177 45l-54 379h-481l-201 -375l193 -51l-6 -43h-449zM764 1174l-326 -605h412l-84 605h-2zM635 1503h-84l315 287h131l191 -287h-80l-199 176z" />
    <glyph glyph-name="Atilde" unicode="&#xc3;" horiz-adv-x="1409" 
d="M-80 0l8 45l135 39l725 1280l66 14l78 15l190 -1301l131 -49l-6 -43h-512l6 45l177 45l-54 379h-481l-201 -375l193 -51l-6 -43h-449zM764 1174l-326 -605h412l-84 605h-2zM606 1536l-33 14l13 31q29 71 63.5 113t77 55t87 7.5t101.5 -27.5l60 -23q50 -19 75.5 -25
t55.5 -1.5t53 29t49 73.5l31 -17l-14 -34q-42 -101 -87.5 -145.5t-105 -44.5t-139.5 32l-57 22q-95 41 -140.5 32t-89.5 -91z" />
    <glyph glyph-name="Adieresis" unicode="&#xc4;" horiz-adv-x="1409" 
d="M-80 0l8 45l135 39l725 1280l66 14l78 15l190 -1301l131 -49l-6 -43h-512l6 45l177 45l-54 379h-481l-201 -375l193 -51l-6 -43h-449zM764 1174l-326 -605h412l-84 605h-2zM676 1544q-44 0 -76.5 32.5t-32.5 76.5t32.5 77t76.5 33t77 -33t33 -77t-33 -76.5t-77 -32.5z
M1112 1544q-45 0 -76.5 32t-31.5 77t31.5 77.5t76.5 32.5q44 0 76.5 -33t32.5 -77t-32.5 -76.5t-76.5 -32.5z" />
    <glyph glyph-name="Aring" unicode="&#xc5;" horiz-adv-x="1409" 
d="M-80 0l8 45l135 39l725 1280l66 14l78 15l190 -1301l131 -49l-6 -43h-512l6 45l177 45l-54 379h-481l-201 -375l193 -51l-6 -43h-449zM688 1704q0 85 59.5 143t145.5 58q88 0 146.5 -57.5t58.5 -143.5q0 -85 -59.5 -143t-145.5 -58q-88 0 -146.5 57.5t-58.5 143.5z
M764 1174l-326 -605h412l-84 605h-2zM762 1704q0 -59 38 -97t93 -38t93 38t38 97t-38 97t-93 38t-93 -38t-38 -97z" />
    <glyph glyph-name="AE" unicode="&#xc6;" horiz-adv-x="1890" 
d="M1417 678h-270l-111 -572q41 -32 125 -32h342l223 332h54l-127 -406h-981l10 45l141 45l115 586h-348l-420 -582l201 -51l-9 -43h-444l8 43l115 39l895 1186l-156 49l6 43h957l131 8l-51 -387h-51l-66 309h-438l-107 -540h275l96 178h49l-86 -432h-55zM1061 1288h-19
l-397 -536h309z" />
    <glyph glyph-name="Ccedilla" unicode="&#xc7;" horiz-adv-x="1449" 
d="M408 -518l-2 33q210 64 210 170q0 75 -84 104l125 180q-239 21 -385.5 173.5t-146.5 412.5q0 120 38 239.5t115 226.5t182.5 190t252.5 131.5t313 48.5q184 0 404 -115l-48 -369h-49l-61 307q-120 111 -271 111q-87 0 -176 -32t-172 -98.5t-147 -159t-102.5 -223.5
t-38.5 -282q0 -240 113.5 -368.5t289.5 -128.5q157 0 274 88l207 334h49l-110 -394q-72 -27 -120.5 -43t-145.5 -34.5t-189 -18.5h-20l-56 -86q117 -45 117 -137q0 -195 -366 -260z" />
    <glyph glyph-name="Egrave" unicode="&#xc8;" horiz-adv-x="1183" 
d="M711 680h-269l-114 -574q43 -34 127 -34h344l221 334h53l-125 -406h-995l8 45l156 45l233 1176l-137 51l6 43h817l131 8l-49 -387h-51l-66 309h-440l-104 -538h270l100 180h47l-86 -436h-53zM526 1790h179l118 -287h-71l-226 264v23z" />
    <glyph glyph-name="Eacute" unicode="&#xc9;" horiz-adv-x="1183" 
d="M711 680h-269l-114 -574q43 -34 127 -34h344l221 334h53l-125 -406h-995l8 45l156 45l233 1176l-137 51l6 43h817l131 8l-49 -387h-51l-66 309h-440l-104 -538h270l100 180h47l-86 -436h-53zM915 1790h183v-23l-295 -264h-74z" />
    <glyph glyph-name="Ecircumflex" unicode="&#xca;" horiz-adv-x="1183" 
d="M711 680h-269l-114 -574q43 -34 127 -34h344l221 334h53l-125 -406h-995l8 45l156 45l233 1176l-137 51l6 43h817l131 8l-49 -387h-51l-66 309h-440l-104 -538h270l100 180h47l-86 -436h-53zM524 1503h-84l316 287h131l190 -287h-80l-198 176z" />
    <glyph glyph-name="Edieresis" unicode="&#xcb;" horiz-adv-x="1183" 
d="M711 680h-269l-114 -574q43 -34 127 -34h344l221 334h53l-125 -406h-995l8 45l156 45l233 1176l-137 51l6 43h817l131 8l-49 -387h-51l-66 309h-440l-104 -538h270l100 180h47l-86 -436h-53zM547 1544q-44 0 -76.5 32.5t-32.5 76.5t32.5 77t76.5 33t77 -33t33 -77
t-33 -76.5t-77 -32.5zM983 1544q-45 0 -77 32t-32 77t32 77.5t77 32.5q44 0 76.5 -33t32.5 -77t-32.5 -76.5t-76.5 -32.5z" />
    <glyph glyph-name="Igrave" unicode="&#xcc;" horiz-adv-x="638" 
d="M-47 0l8 45l156 45l233 1176l-137 51l6 43h502l-8 -45l-156 -45l-233 -1180l139 -47l-6 -43h-504zM252 1790h178l119 -287h-72l-225 264v23z" />
    <glyph glyph-name="Iacute" unicode="&#xcd;" horiz-adv-x="638" 
d="M-47 0l8 45l156 45l233 1176l-137 51l6 43h502l-8 -45l-156 -45l-233 -1180l139 -47l-6 -43h-504zM641 1790h182v-23l-295 -264h-73z" />
    <glyph glyph-name="Icircumflex" unicode="&#xce;" horiz-adv-x="638" 
d="M-47 0l8 45l156 45l233 1176l-137 51l6 43h502l-8 -45l-156 -45l-233 -1180l139 -47l-6 -43h-504zM254 1503h-84l315 287h131l191 -287h-80l-199 176z" />
    <glyph glyph-name="Idieresis" unicode="&#xcf;" horiz-adv-x="638" 
d="M334 1544q-44 0 -76.5 31.5t-32.5 75.5t32.5 76t76.5 32q46 0 78 -32t32 -76t-32 -75.5t-78 -31.5zM688 1544q-44 0 -75 31.5t-31 75.5t31 76t75 32q46 0 78.5 -32t32.5 -76t-32.5 -75.5t-78.5 -31.5zM-47 0l8 45l156 45l233 1176l-137 51l6 43h502l-8 -45l-156 -45
l-233 -1180l139 -47l-6 -43h-504z" />
    <glyph glyph-name="Eth" unicode="&#xd0;" horiz-adv-x="1472" 
d="M-47 0l8 45l156 45l108 551h-196l14 70h197l110 555l-139 51l8 43l354 2q397 3 611.5 -149t214.5 -429q0 -248 -120.5 -428t-341.5 -272.5t-519 -89.5zM778 641h-344l-104 -526q80 -55 207 -52q127 2 232.5 42t179.5 106.5t125.5 156.5t75.5 192.5t24 213.5
q0 134 -44 236.5t-125 166.5t-191.5 96.5t-248.5 33.5l-119 -596h347z" />
    <glyph glyph-name="Ntilde" unicode="&#xd1;" horiz-adv-x="1419" 
d="M1090 -20h-54l-637 1159l-190 -1047l160 -49l-7 -43h-409l8 45l156 45l225 1131q-46 54 -115 79l-37 17l9 43h319l559 -1014l168 922l-160 49l7 43h409l-10 -45l-154 -45l-196 -994zM612 1536l-32 14l12 31q29 71 64 113t77.5 55t87 7.5t101.5 -27.5l59 -23
q50 -19 75.5 -25t55.5 -1.5t53 29t49 73.5l31 -17l-14 -34q-42 -101 -87.5 -145.5t-105 -44.5t-139.5 32l-57 22q-95 41 -140.5 32t-89.5 -91z" />
    <glyph glyph-name="Ograve" unicode="&#xd2;" horiz-adv-x="1568" 
d="M678 1790h178l119 -287h-72l-225 264v23zM922 1393q109 0 209.5 -42.5t179.5 -119.5t126.5 -196.5t47.5 -262.5q0 -114 -34 -229.5t-103 -220.5t-164 -186.5t-226.5 -130t-279.5 -48.5q-104 0 -202 42t-177 118t-126.5 195t-47.5 261q0 117 34.5 234.5t103.5 222.5
t163.5 186t223 129t272.5 48zM1262 889q0 89 -21.5 167.5t-62.5 140.5t-106 98t-146 36q-104 0 -198 -53t-161.5 -140t-118 -197.5t-75.5 -228.5t-25 -229q0 -96 20 -178.5t60 -147.5t105 -102t149 -37q110 0 206 54.5t163 144t116 204t72 234t23 234.5z" />
    <glyph glyph-name="Oacute" unicode="&#xd3;" horiz-adv-x="1568" 
d="M1065 1790h182v-23l-295 -264h-73zM922 1393q109 0 209.5 -42.5t179.5 -119.5t126.5 -196.5t47.5 -262.5q0 -114 -34 -229.5t-103 -220.5t-164 -186.5t-226.5 -130t-279.5 -48.5q-104 0 -202 42t-177 118t-126.5 195t-47.5 261q0 117 34.5 234.5t103.5 222.5t163.5 186
t223 129t272.5 48zM1262 889q0 89 -21.5 167.5t-62.5 140.5t-106 98t-146 36q-104 0 -198 -53t-161.5 -140t-118 -197.5t-75.5 -228.5t-25 -229q0 -96 20 -178.5t60 -147.5t105 -102t149 -37q110 0 206 54.5t163 144t116 204t72 234t23 234.5z" />
    <glyph glyph-name="Ocircumflex" unicode="&#xd4;" horiz-adv-x="1568" 
d="M922 1393q109 0 209.5 -42.5t179.5 -119.5t126.5 -196.5t47.5 -262.5q0 -114 -34 -229.5t-103 -220.5t-164 -186.5t-226.5 -130t-279.5 -48.5q-104 0 -202 42t-177 118t-126.5 195t-47.5 261q0 117 34.5 234.5t103.5 222.5t163.5 186t223 129t272.5 48zM1262 889
q0 89 -21.5 167.5t-62.5 140.5t-106 98t-146 36q-104 0 -198 -53t-161.5 -140t-118 -197.5t-75.5 -228.5t-25 -229q0 -96 20 -178.5t60 -147.5t105 -102t149 -37q110 0 206 54.5t163 144t116 204t72 234t23 234.5zM696 1503h-84l316 287h131l190 -287h-80l-198 176z" />
    <glyph glyph-name="Otilde" unicode="&#xd5;" horiz-adv-x="1568" 
d="M666 1536l-33 14l12 31q29 71 64 113t77.5 55t87 7.5t101.5 -27.5l59 -23q40 -15 62 -21.5t48.5 -8t44.5 9.5t38 34t41 62l30 -17l-14 -34q-42 -101 -87.5 -145.5t-105 -44.5t-139.5 32l-57 22q-95 41 -140 32t-89 -91zM922 1393q109 0 209.5 -42.5t179.5 -119.5
t126.5 -196.5t47.5 -262.5q0 -114 -34 -229.5t-103 -220.5t-164 -186.5t-226.5 -130t-279.5 -48.5q-104 0 -202 42t-177 118t-126.5 195t-47.5 261q0 117 34.5 234.5t103.5 222.5t163.5 186t223 129t272.5 48zM1262 889q0 89 -21.5 167.5t-62.5 140.5t-106 98t-146 36
q-104 0 -198 -53t-161.5 -140t-118 -197.5t-75.5 -228.5t-25 -229q0 -96 20 -178.5t60 -147.5t105 -102t149 -37q110 0 206 54.5t163 144t116 204t72 234t23 234.5z" />
    <glyph glyph-name="Odieresis" unicode="&#xd6;" horiz-adv-x="1568" 
d="M735 1544q-44 0 -76 32.5t-32 76.5t32 77t76 33t77.5 -33t33.5 -77t-33.5 -76.5t-77.5 -32.5zM1171 1544q-45 0 -76.5 32t-31.5 77t31.5 77.5t76.5 32.5q44 0 76.5 -33t32.5 -77t-32.5 -76.5t-76.5 -32.5zM922 1393q109 0 209.5 -42.5t179.5 -119.5t126.5 -196.5
t47.5 -262.5q0 -114 -34 -229.5t-103 -220.5t-164 -186.5t-226.5 -130t-279.5 -48.5q-104 0 -202 42t-177 118t-126.5 195t-47.5 261q0 117 34.5 234.5t103.5 222.5t163.5 186t223 129t272.5 48zM1262 889q0 89 -21.5 167.5t-62.5 140.5t-106 98t-146 36q-104 0 -198 -53
t-161.5 -140t-118 -197.5t-75.5 -228.5t-25 -229q0 -96 20 -178.5t60 -147.5t105 -102t149 -37q110 0 206 54.5t163 144t116 204t72 234t23 234.5z" />
    <glyph glyph-name="multiply" unicode="&#xd7;" horiz-adv-x="1144" 
d="M911 41l-389 391l-385 -393l-59 59l387 391l-383 388l61 59l383 -385l387 397l58 -59l-387 -395l389 -394z" />
    <glyph glyph-name="Oslash" unicode="&#xd8;" horiz-adv-x="1568" 
d="M233 -74h-86l150 193q-172 179 -172 454q0 117 34.5 234.5t103.5 222.5t163.5 186t223 129t272.5 48q158 0 297 -88l106 137h86l-137 -178q98 -81 154.5 -207t56.5 -285q0 -114 -34 -229.5t-103 -220.5t-164 -186.5t-226.5 -130t-279.5 -48.5q-182 0 -330 117zM1264 891
q0 156 -66 276l-778 -999q90 -150 262 -150q92 0 175 38.5t145.5 104.5t113 152t82.5 184t49 198.5t17 195.5zM348 483q0 -142 41 -247l768 989q-88 106 -231 106q-104 0 -198 -53t-161.5 -140t-118 -197.5t-75.5 -228.5t-25 -229z" />
    <glyph glyph-name="Ugrave" unicode="&#xd9;" horiz-adv-x="1466" 
d="M692 1790h178l119 -287h-71l-226 264v23zM655 -49q-98 0 -177 22t-142.5 70t-98 123t-43.5 181.5t21 246.5l137 672l-139 51l6 43h522l-10 -45l-172 -49l-145 -725q-42 -219 40 -342t263 -123q82 0 149.5 24.5t128 79.5t104.5 153.5t68 237.5l123 689l-160 53l7 47h417
l-6 -47l-155 -49l-146 -740q-55 -273 -200.5 -423t-391.5 -150z" />
    <glyph glyph-name="Uacute" unicode="&#xda;" horiz-adv-x="1466" 
d="M1083 1790h183v-23l-295 -264h-74zM655 -49q-98 0 -177 22t-142.5 70t-98 123t-43.5 181.5t21 246.5l137 672l-139 51l6 43h522l-10 -45l-172 -49l-145 -725q-42 -219 40 -342t263 -123q82 0 149.5 24.5t128 79.5t104.5 153.5t68 237.5l123 689l-160 53l7 47h417l-6 -47
l-155 -49l-146 -740q-55 -273 -200.5 -423t-391.5 -150z" />
    <glyph glyph-name="Ucircumflex" unicode="&#xdb;" horiz-adv-x="1466" 
d="M655 -49q-98 0 -177 22t-142.5 70t-98 123t-43.5 181.5t21 246.5l137 672l-139 51l6 43h522l-10 -45l-172 -49l-145 -725q-42 -219 40 -342t263 -123q82 0 149.5 24.5t128 79.5t104.5 153.5t68 237.5l123 689l-160 53l7 47h417l-6 -47l-155 -49l-146 -740
q-55 -273 -200.5 -423t-391.5 -150zM715 1503h-84l315 287h131l191 -287h-80l-199 176z" />
    <glyph glyph-name="Udieresis" unicode="&#xdc;" horiz-adv-x="1466" 
d="M655 -49q-98 0 -177 22t-142.5 70t-98 123t-43.5 181.5t21 246.5l137 672l-139 51l6 43h522l-10 -45l-172 -49l-145 -725q-42 -219 40 -342t263 -123q82 0 149.5 24.5t128 79.5t104.5 153.5t68 237.5l123 689l-160 53l7 47h417l-6 -47l-155 -49l-146 -740
q-55 -273 -200.5 -423t-391.5 -150zM756 1544q-44 0 -76.5 32.5t-32.5 76.5t32.5 77t76.5 33t77 -33t33 -77t-33 -76.5t-77 -32.5zM1192 1544q-45 0 -77 32t-32 77t32 77.5t77 32.5q44 0 76 -33t32 -77t-32 -76.5t-76 -32.5z" />
    <glyph glyph-name="Yacute" unicode="&#xdd;" horiz-adv-x="1312" 
d="M1292 1274l-522 -731l-90 -455l129 -47l-8 -41h-479l10 43l141 45l86 432l-250 746l-116 51l8 43h506l-11 -45l-168 -49l209 -658l449 652l-180 57l8 43h399l-8 -45zM1024 1790h182v-23l-295 -264h-73z" />
    <glyph glyph-name="Thorn" unicode="&#xde;" horiz-adv-x="1196" 
d="M-47 0l8 45l156 45l233 1176l-137 51l6 43h518l-8 -45l-172 -49l-45 -230l68 2q260 3 403 -84.5t143 -226.5q0 -103 -62.5 -182t-164 -122.5t-219.5 -62.5t-240 -12l9 49q230 10 347 93.5t117 207.5q0 121 -105.5 201.5t-305.5 83.5l-176 -893l153 -47l-8 -43h-518z" />
    <glyph glyph-name="germandbls" unicode="&#xdf;" horiz-adv-x="991" 
d="M1024 1294q0 -58 -27.5 -108t-68.5 -83.5t-89.5 -67.5t-89.5 -61t-68.5 -63t-27.5 -75q0 -25 8 -50t19 -44.5t37 -63.5l102 -170q5 -8 17.5 -29t16.5 -28t13.5 -24t13 -25t9.5 -23t8 -25.5t4 -24.5t2 -28q0 -78 -51.5 -154t-134.5 -124t-170 -48q-81 0 -130.5 33.5
t-49.5 93.5q0 31 10 59t16 32q68 -46 102 -67t79 -38.5t85 -17.5q48 0 73.5 28.5t25.5 71.5q0 26 -10.5 56t-22 50.5t-39.5 67.5l-94 154q-57 94 -77.5 141t-20.5 92q0 53 20.5 97t54 76t73 61t79.5 59t72.5 62.5t52 78t18.5 99.5q-2 71 -42 119.5t-117 48.5
q-38 0 -76 -15.5t-82.5 -58.5t-82 -110.5t-71.5 -181.5t-55 -261l-105 -735q-15 -107 -43.5 -196.5t-62.5 -150t-75 -107t-79.5 -73t-78 -43.5t-67 -22.5t-50.5 -5.5q-58 0 -100.5 31t-43.5 87q-2 31 19.5 65.5t60.5 61.5q31 -66 75 -112.5t93 -46.5q50 0 78.5 68t48.5 206
l125 891q20 143 75 274t127 225.5t154 165.5t159.5 106.5t139.5 35.5q120 0 178 -69.5t58 -166.5z" />
    <glyph glyph-name="agrave" unicode="&#xe0;" horiz-adv-x="1040" 
d="M879 1047h112l-250 -900h7q48 29 100 87.5t94 123.5l41 -14q-63 -139 -173.5 -254t-182.5 -115q-34 0 -54.5 15.5t-26 41t-2.5 53.5t13 58l94 285h-14q-37 -59 -62 -96.5t-68 -98.5t-79.5 -101t-80.5 -80.5t-88 -60.5t-85 -20q-78 0 -122 51t-38 152q5 123 53 247.5
t122 222.5t160.5 175.5t173.5 119.5t155 42q91 0 147 -35zM279 123q57 0 152 107.5t175.5 242.5t110.5 227l45 136q-55 75 -131 75q-84 0 -178 -106.5t-159 -268t-73 -311.5q-3 -102 58 -102zM514 1550h162l57 -415h-49l-170 397v18z" />
    <glyph glyph-name="aacute" unicode="&#xe1;" horiz-adv-x="1040" 
d="M879 1047h112l-250 -900h7q48 29 100 87.5t94 123.5l41 -14q-63 -139 -173.5 -254t-182.5 -115q-34 0 -54.5 15.5t-26 41t-2.5 53.5t13 58l94 285h-14q-37 -59 -62 -96.5t-68 -98.5t-79.5 -101t-80.5 -80.5t-88 -60.5t-85 -20q-78 0 -122 51t-38 152q5 123 53 247.5
t122 222.5t160.5 175.5t173.5 119.5t155 42q91 0 147 -35zM279 123q57 0 152 107.5t175.5 242.5t110.5 227l45 136q-55 75 -131 75q-84 0 -178 -106.5t-159 -268t-73 -311.5q-3 -102 58 -102zM850 1550h158v-16l-283 -399h-53z" />
    <glyph glyph-name="acircumflex" unicode="&#xe2;" horiz-adv-x="1040" 
d="M879 1047h112l-250 -900h7q48 29 100 87.5t94 123.5l41 -14q-63 -139 -173.5 -254t-182.5 -115q-34 0 -54.5 15.5t-26 41t-2.5 53.5t13 58l94 285h-14q-37 -59 -62 -96.5t-68 -98.5t-79.5 -101t-80.5 -80.5t-88 -60.5t-85 -20q-78 0 -122 51t-38 152q5 123 53 247.5
t122 222.5t160.5 175.5t173.5 119.5t155 42q91 0 147 -35zM279 123q57 0 152 107.5t175.5 242.5t110.5 227l45 136q-55 75 -131 75q-84 0 -178 -106.5t-159 -268t-73 -311.5q-3 -102 58 -102zM526 1135h-63l282 415h86l105 -415h-59l-119 268z" />
    <glyph glyph-name="atilde" unicode="&#xe3;" horiz-adv-x="1040" 
d="M879 1047h112l-250 -900h7q48 29 100 87.5t94 123.5l41 -14q-63 -139 -173.5 -254t-182.5 -115q-34 0 -54.5 15.5t-26 41t-2.5 53.5t13 58l94 285h-14q-37 -59 -62 -96.5t-68 -98.5t-79.5 -101t-80.5 -80.5t-88 -60.5t-85 -20q-78 0 -122 51t-38 152q5 123 53 247.5
t122 222.5t160.5 175.5t173.5 119.5t155 42q91 0 147 -35zM279 123q57 0 152 107.5t175.5 242.5t110.5 227l45 136q-55 75 -131 75q-84 0 -178 -106.5t-159 -268t-73 -311.5q-3 -102 58 -102zM438 1194l-30 16l10 27q103 269 334 149l55 -28q40 -21 66 -28.5t55.5 -2.5
t56 33t55.5 80l33 -15l-16 -39q-34 -80 -71 -125t-79.5 -58t-85 -5t-98.5 35l-55 27q-94 44 -138.5 31.5t-91.5 -97.5z" />
    <glyph glyph-name="adieresis" unicode="&#xe4;" horiz-adv-x="1040" 
d="M879 1047h112l-250 -900h7q48 29 100 87.5t94 123.5l41 -14q-63 -139 -173.5 -254t-182.5 -115q-34 0 -54.5 15.5t-26 41t-2.5 53.5t13 58l94 285h-14q-37 -59 -62 -96.5t-68 -98.5t-79.5 -101t-80.5 -80.5t-88 -60.5t-85 -20q-78 0 -122 51t-38 152q5 123 53 247.5
t122 222.5t160.5 175.5t173.5 119.5t155 42q91 0 147 -35zM279 123q57 0 152 107.5t175.5 242.5t110.5 227l43 136q-55 75 -129 75q-84 0 -178 -106.5t-159 -268t-73 -311.5q-3 -102 58 -102zM934 1266q-44 0 -75.5 31t-31.5 77q0 45 31.5 78t75.5 33q45 0 77.5 -33
t32.5 -78q0 -46 -32 -77t-78 -31zM580 1266q-46 0 -77.5 31t-31.5 77q0 45 32 78t77 33q44 0 76 -33t32 -78t-31.5 -76.5t-76.5 -31.5z" />
    <glyph glyph-name="aring" unicode="&#xe5;" horiz-adv-x="1040" 
d="M879 1047h112l-250 -900h7q48 29 100 87.5t94 123.5l41 -14q-63 -139 -173.5 -254t-182.5 -115q-34 0 -54.5 15.5t-26 41t-2.5 53.5t13 58l94 285h-14q-37 -59 -62 -96.5t-68 -98.5t-79.5 -101t-80.5 -80.5t-88 -60.5t-85 -20q-78 0 -122 51t-38 152q5 123 53 247.5
t122 222.5t160.5 175.5t173.5 119.5t155 42q91 0 147 -35zM279 123q57 0 152 107.5t175.5 242.5t110.5 227l45 136q-55 75 -131 75q-84 0 -178 -106.5t-159 -268t-73 -311.5q-3 -102 58 -102zM561 1380q0 85 59.5 142t145.5 57q88 0 146.5 -56.5t58.5 -142.5
q0 -85 -59.5 -142.5t-145.5 -57.5q-88 0 -146.5 56.5t-58.5 143.5zM635 1380q0 -59 38 -98t93 -39q56 0 94.5 39t38.5 98t-39 97.5t-94 38.5t-93 -38.5t-38 -97.5z" />
    <glyph glyph-name="ae" unicode="&#xe6;" horiz-adv-x="1263" 
d="M733 -25q-87 0 -144 48.5t-79 134.5h-4q-46 -50 -74 -77t-66.5 -55t-78.5 -39.5t-88 -11.5q-35 0 -68 10.5t-64 32.5t-49.5 64t-17.5 98q3 92 71.5 147t192.5 91l277 80l39 149q0 262 -156 262q-67 0 -115 -45l-26 -200q-1 0 -13 -4t-28.5 -7.5t-28.5 -3.5
q-40 0 -64.5 16.5t-23.5 59.5q1 53 60.5 115t152.5 107t182 52q215 0 211 -223h4q78 99 187 161t211 62q72 0 114 -39.5t41 -105.5q-5 -227 -583 -387q-8 -39 -11 -92q-6 -122 34 -189t110 -67q77 0 149.5 57t128.5 135l37 -18q-23 -49 -63 -102t-94 -102.5t-124 -81.5
t-139 -32zM518 412l8 32l-149 -49q-94 -31 -136.5 -75.5t-45.5 -104.5q-3 -55 23.5 -92t76.5 -37q90 0 205 137q-7 96 18 189zM1038 915q-81 0 -179 -115.5t-142 -277.5q181 61 281.5 139t103.5 183q3 71 -64 71z" />
    <glyph glyph-name="ccedilla" unicode="&#xe7;" horiz-adv-x="811" 
d="M2 -518l-2 33q211 65 211 170q0 75 -84 104l131 186q-106 3 -166.5 79t-58.5 186q3 180 87.5 348.5t246.5 288.5q66 50 148.5 86t154.5 36q67 0 117.5 -35.5t50.5 -86.5q0 -38 -27.5 -78t-42.5 -49q-143 143 -244 143q-67 0 -132.5 -93.5t-105.5 -232t-42 -270.5
q-1 -90 30.5 -134t87.5 -44q82 0 158.5 67t157.5 181l35 -23q-177 -330 -396 -364l-65 -101q117 -45 117 -137q0 -195 -367 -260z" />
    <glyph glyph-name="egrave" unicode="&#xe8;" horiz-adv-x="802" 
d="M276 -25q-126 0 -187 85t-56 216q9 173 96 324.5t219 257.5q168 141 324 141q72 0 115 -39.5t40 -107.5q-3 -66 -54.5 -128.5t-134.5 -109.5t-184 -81t-206 -50q-12 -52 -15 -106q-6 -125 33.5 -191.5t120.5 -66.5q65 0 139 56.5t127 135.5l39 -18q-26 -50 -61.5 -98.5
t-88 -101.5t-122.5 -85.5t-144 -32.5zM573 918q-80 0 -175 -112.5t-138 -268.5q133 24 249 114t122 199q2 32 -13.5 50t-44.5 18zM449 1550h161l58 -415h-50l-169 397v18z" />
    <glyph glyph-name="eacute" unicode="&#xe9;" horiz-adv-x="802" 
d="M276 -25q-126 0 -187 85t-56 216q9 173 96 324.5t219 257.5q168 141 324 141q72 0 115 -39.5t40 -107.5q-3 -66 -54.5 -128.5t-134.5 -109.5t-184 -81t-206 -50q-12 -52 -15 -106q-6 -125 33.5 -191.5t120.5 -66.5q65 0 139 56.5t127 135.5l39 -18q-26 -50 -61.5 -98.5
t-88 -101.5t-122.5 -85.5t-144 -32.5zM573 918q-80 0 -175 -112.5t-138 -268.5q133 24 249 114t122 199q2 32 -13.5 50t-44.5 18zM782 1550h158v-16l-283 -399h-53z" />
    <glyph glyph-name="ecircumflex" unicode="&#xea;" horiz-adv-x="802" 
d="M276 -25q-126 0 -187 85t-56 216q9 173 96 324.5t219 257.5q168 141 324 141q72 0 115 -39.5t40 -107.5q-3 -66 -54.5 -128.5t-134.5 -109.5t-184 -81t-206 -50q-12 -52 -15 -106q-6 -125 33.5 -191.5t120.5 -66.5q65 0 139 56.5t127 135.5l39 -18q-26 -50 -61.5 -98.5
t-88 -101.5t-122.5 -85.5t-144 -32.5zM573 918q-80 0 -175 -112.5t-138 -268.5q133 24 249 114t122 199q2 32 -13.5 50t-44.5 18zM459 1135h-64l283 415h86l104 -415h-59l-119 268z" />
    <glyph glyph-name="edieresis" unicode="&#xeb;" horiz-adv-x="802" 
d="M276 -25q-126 0 -187 85t-56 216q9 173 96 324.5t219 257.5q168 141 324 141q72 0 115 -39.5t40 -107.5q-3 -66 -54.5 -128.5t-134.5 -109.5t-184 -81t-206 -50q-12 -52 -15 -106q-6 -125 33.5 -191.5t120.5 -66.5q65 0 139 56.5t127 135.5l39 -18q-26 -50 -61.5 -98.5
t-88 -101.5t-122.5 -85.5t-144 -32.5zM573 918q-80 0 -175 -112.5t-138 -268.5q133 24 249 114t122 199q2 32 -13.5 50t-44.5 18zM834 1266q-44 0 -75.5 31t-31.5 77q0 45 31.5 78t75.5 33q45 0 77.5 -33t32.5 -78q0 -46 -32 -77t-78 -31zM479 1266q-46 0 -77 31t-31 77
q0 45 31.5 78t76.5 33q44 0 76.5 -33.5t32.5 -77.5q0 -45 -32 -76.5t-77 -31.5z" />
    <glyph glyph-name="igrave" unicode="&#xec;" horiz-adv-x="526" 
d="M258 842q-25 20 -75.5 22t-100.5 -12l2 27q122 118 242 118q64 0 95 -51t5 -153l-180 -643h6q46 30 100 89.5t90 118.5l41 -14q-61 -131 -172 -249t-184 -118q-54 0 -73 40.5t3 125.5zM195 1550h161l58 -415h-49l-170 397v18z" />
    <glyph glyph-name="iacute" unicode="&#xed;" horiz-adv-x="526" 
d="M530 1550h158v-16l-282 -399h-54zM258 842q-25 20 -75.5 22t-100.5 -12l2 27q122 118 242 118q64 0 95 -51t5 -153l-180 -643h6q46 30 100 89.5t90 118.5l41 -14q-61 -131 -172 -249t-184 -118q-54 0 -73 40.5t3 125.5z" />
    <glyph glyph-name="icircumflex" unicode="&#xee;" horiz-adv-x="526" 
d="M258 842q-25 20 -75.5 22t-100.5 -12l2 27q122 118 242 118q64 0 95 -51t5 -153l-180 -643h6q46 30 100 89.5t90 118.5l41 -14q-61 -131 -172 -249t-184 -118q-54 0 -73 40.5t3 125.5zM207 1135h-64l283 415h86l104 -415h-59l-119 268z" />
    <glyph glyph-name="idieresis" unicode="&#xef;" horiz-adv-x="526" 
d="M281 1268q-46 0 -77.5 31t-31.5 75q0 46 31.5 78.5t77.5 32.5q44 0 76 -32.5t32 -78.5q0 -44 -32 -75t-76 -31zM596 1268q-45 0 -77 31t-32 75q0 46 32.5 78.5t76.5 32.5q46 0 78.5 -32.5t32.5 -78.5q0 -44 -32.5 -75t-78.5 -31zM258 842q-25 20 -75.5 22t-100.5 -12
l2 27q122 118 242 118q64 0 95 -51t5 -153l-180 -643h6q46 30 100 89.5t90 118.5l41 -14q-61 -131 -172 -249t-184 -118q-54 0 -73 40.5t3 125.5z" />
    <glyph glyph-name="eth" unicode="&#xf0;" horiz-adv-x="995" 
d="M293 1124l-27 56l285 147q-81 89 -191 186l27 39q140 -70 262 -174l252 131l27 -55l-232 -119q257 -254 248 -612q-4 -148 -48 -283.5t-118 -238.5t-181.5 -164.5t-231.5 -61.5q-103 0 -173.5 55.5t-99 142t-22.5 192.5q5 87 32.5 176.5t77.5 171t115.5 145t153 101.5
t182.5 38q51 0 102 -28q-27 155 -143 309zM365 25q85 0 168.5 107.5t136.5 259t65 294.5q16 262 -114 262q-86 0 -168 -114t-131 -266.5t-56 -284.5q-15 -258 99 -258z" />
    <glyph glyph-name="ntilde" unicode="&#xf1;" horiz-adv-x="1048" 
d="M16 -2l244 848q-23 17 -71.5 18.5t-100.5 -12.5l2 27q122 118 234 118q78 0 103.5 -59.5t-5.5 -163.5l-62 -201h13q256 424 458 424q83 0 110.5 -50.5t-3.5 -170.5l-174 -626h6q90 56 197 208l37 -14q-69 -140 -177 -253.5t-180 -113.5q-55 0 -74.5 40t2.5 126l181 623
q13 41 3 62.5t-38 21.5q-63 0 -153 -95t-174 -246.5t-130 -307.5l-55 -185l-166 -45zM399 1194l-30 16l10 27q103 269 334 149l55 -28q40 -21 66 -28.5t55.5 -2.5t56 33t55.5 80l33 -15l-16 -39q-34 -80 -71 -125t-79.5 -58t-85 -5t-98.5 35l-55 27q-94 44 -138.5 31.5
t-91.5 -97.5z" />
    <glyph glyph-name="ograve" unicode="&#xf2;" horiz-adv-x="960" 
d="M598 948q-64 0 -128.5 -67.5t-111.5 -169t-78.5 -216.5t-37.5 -212q-15 -258 102 -258q82 0 166.5 107t139 260.5t63.5 295.5q13 260 -115 260zM621 997q79 0 138.5 -32.5t93 -86.5t48.5 -118t12 -133q-5 -89 -32.5 -180t-78 -176t-116.5 -151t-156.5 -105.5
t-191.5 -39.5q-151 0 -225 111t-66 276q4 86 31 174.5t77 171t116.5 147t157.5 103.5t192 39zM449 1550h161l58 -415h-50l-169 397v18z" />
    <glyph glyph-name="oacute" unicode="&#xf3;" horiz-adv-x="960" 
d="M782 1550h158v-16l-283 -399h-53zM598 948q-64 0 -128.5 -67.5t-111.5 -169t-78.5 -216.5t-37.5 -212q-15 -258 102 -258q82 0 166.5 107t139 260.5t63.5 295.5q13 260 -115 260zM621 997q79 0 138.5 -32.5t93 -86.5t48.5 -118t12 -133q-5 -89 -32.5 -180t-78 -176
t-116.5 -151t-156.5 -105.5t-191.5 -39.5q-151 0 -225 111t-66 276q4 86 31 174.5t77 171t116.5 147t157.5 103.5t192 39z" />
    <glyph glyph-name="ocircumflex" unicode="&#xf4;" horiz-adv-x="960" 
d="M621 997q79 0 138.5 -32.5t93 -86.5t48.5 -118t12 -133q-5 -89 -32.5 -180t-78 -176t-116.5 -151t-156.5 -105.5t-191.5 -39.5q-151 0 -225 111t-66 276q4 86 31 174.5t77 171t116.5 147t157.5 103.5t192 39zM598 948q-64 0 -128.5 -67.5t-111.5 -169t-78.5 -216.5
t-37.5 -212q-15 -258 102 -258q82 0 166.5 107t139 260.5t63.5 295.5q13 260 -115 260zM461 1135h-64l283 415h86l104 -415h-59l-119 268z" />
    <glyph glyph-name="otilde" unicode="&#xf5;" horiz-adv-x="960" 
d="M598 948q-64 0 -128.5 -67.5t-111.5 -169t-78.5 -216.5t-37.5 -212q-15 -258 102 -258q82 0 166.5 107t139 260.5t63.5 295.5q13 260 -115 260zM621 997q79 0 138.5 -32.5t93 -86.5t48.5 -118t12 -133q-5 -89 -32.5 -180t-78 -176t-116.5 -151t-156.5 -105.5
t-191.5 -39.5q-151 0 -225 111t-66 276q4 86 31 174.5t77 171t116.5 147t157.5 103.5t192 39zM373 1194l-31 16l10 27q103 269 334 149l55 -28q40 -21 66.5 -28.5t56 -2.5t56 33t55.5 80l33 -15l-17 -39q-34 -80 -71 -125t-79.5 -58t-85 -5t-98.5 35l-55 27
q-94 44 -138 31.5t-91 -97.5z" />
    <glyph glyph-name="odieresis" unicode="&#xf6;" horiz-adv-x="960" 
d="M512 1266q-46 0 -77.5 31t-31.5 77q0 45 32 78t77 33q44 0 76.5 -33.5t32.5 -77.5q0 -45 -32 -76.5t-77 -31.5zM866 1266q-44 0 -75 31t-31 77q0 45 31 78t75 33q45 0 78 -33t33 -78t-32.5 -76.5t-78.5 -31.5zM598 948q-64 0 -128.5 -67.5t-111.5 -169t-78.5 -216.5
t-37.5 -212q-15 -258 102 -258q82 0 166.5 107t139 260.5t63.5 295.5q13 260 -115 260zM621 997q79 0 138.5 -32.5t93 -86.5t48.5 -118t12 -133q-5 -89 -32.5 -180t-78 -176t-116.5 -151t-156.5 -105.5t-191.5 -39.5q-151 0 -225 111t-66 276q4 86 31 174.5t77 171
t116.5 147t157.5 103.5t192 39z" />
    <glyph glyph-name="divide" unicode="&#xf7;" horiz-adv-x="1144" 
d="M1036 449h-970v79h970v-79zM551 690q-48 0 -85.5 38t-37.5 87t37.5 86t85.5 37q51 0 89 -37t38 -86q0 -50 -38 -87.5t-89 -37.5zM549 35q-48 0 -85.5 37.5t-37.5 87.5q0 49 37.5 86t85.5 37q51 0 89 -37t38 -86q0 -51 -38 -88t-89 -37z" />
    <glyph glyph-name="oslash" unicode="&#xf8;" horiz-adv-x="960" 
d="M59 -102h-69l137 182q-88 111 -78 285q8 110 51 220t114 203t179 151t232 58q85 0 155 -47l99 131h71l-127 -170q49 -52 73.5 -128.5t21.5 -157.5q-6 -89 -34 -180t-78.5 -175.5t-116.5 -150t-156.5 -105t-190.5 -39.5q-102 0 -176 64zM721 692q3 43 0 86l-477 -635
q20 -118 102 -118q84 0 170 107.5t141.5 262t63.5 297.5zM242 279q-2 -16 -2 -50l469 627q-27 92 -107 92q-65 0 -130.5 -68.5t-113 -170.5t-79.5 -218t-37 -212z" />
    <glyph glyph-name="ugrave" unicode="&#xf9;" horiz-adv-x="1034" 
d="M66 211l174 635q-23 17 -71 18.5t-99 -12.5l2 27q122 118 237 118q148 0 92 -217l-153 -587q-8 -31 1 -45.5t27 -14.5q65 0 165 112.5t183.5 264.5t112.5 268l47 185l166 22l17 -18l-211 -817h6q84 55 192 208l37 -14q-69 -140 -177.5 -253.5t-178.5 -113.5q-55 0 -74 39
t4 127l94 332h-6q-12 -20 -45.5 -74.5t-52 -84.5t-53.5 -81.5t-60.5 -82t-63 -69t-70.5 -59.5t-73 -36t-79 -15q-44 0 -71 22.5t-36 75.5t17 140zM444 1550h162l58 -415h-50l-170 397v18z" />
    <glyph glyph-name="uacute" unicode="&#xfa;" horiz-adv-x="1034" 
d="M762 1550h158v-16l-283 -399h-53zM66 211l174 635q-23 17 -71 18.5t-99 -12.5l2 27q122 118 237 118q148 0 92 -217l-153 -587q-8 -31 1 -45.5t27 -14.5q65 0 165 112.5t183.5 264.5t112.5 268l47 185l166 22l17 -18l-211 -817h6q84 55 192 208l37 -14
q-69 -140 -177.5 -253.5t-178.5 -113.5q-55 0 -74 39t4 127l94 332h-6q-12 -20 -45.5 -74.5t-52 -84.5t-53.5 -81.5t-60.5 -82t-63 -69t-70.5 -59.5t-73 -36t-79 -15q-44 0 -71 22.5t-36 75.5t17 140z" />
    <glyph glyph-name="ucircumflex" unicode="&#xfb;" horiz-adv-x="1034" 
d="M66 211l174 635q-23 17 -71 18.5t-99 -12.5l2 27q122 118 237 118q148 0 92 -217l-153 -587q-8 -31 1 -45.5t27 -14.5q65 0 165 112.5t183.5 264.5t112.5 268l47 185l166 22l17 -18l-211 -817h6q84 55 192 208l37 -14q-69 -140 -177.5 -253.5t-178.5 -113.5q-55 0 -74 39
t4 127l94 332h-6q-12 -20 -45.5 -74.5t-52 -84.5t-53.5 -81.5t-60.5 -82t-63 -69t-70.5 -59.5t-73 -36t-79 -15q-44 0 -71 22.5t-36 75.5t17 140zM457 1135h-64l283 415h86l104 -415h-59l-119 268z" />
    <glyph glyph-name="udieresis" unicode="&#xfc;" horiz-adv-x="1034" 
d="M492 1266q-46 0 -77.5 31t-31.5 77q0 45 32 78t77 33q44 0 76 -33t32 -78t-31.5 -76.5t-76.5 -31.5zM846 1266q-44 0 -75.5 31t-31.5 77q0 45 31.5 78t75.5 33q45 0 77.5 -33t32.5 -78q0 -46 -32 -77t-78 -31zM66 211l174 635q-23 17 -71 18.5t-99 -12.5l2 27
q122 118 237 118q148 0 92 -217l-153 -587q-8 -31 1 -45.5t27 -14.5q65 0 165 112.5t183.5 264.5t112.5 268l47 185l166 22l17 -18l-211 -817h6q84 55 192 208l37 -14q-69 -140 -177.5 -253.5t-178.5 -113.5q-55 0 -74 39t4 127l94 332h-6q-12 -20 -45.5 -74.5t-52 -84.5
t-53.5 -81.5t-60.5 -82t-63 -69t-70.5 -59.5t-73 -36t-79 -15q-44 0 -71 22.5t-36 75.5t17 140z" />
    <glyph glyph-name="yacute" unicode="&#xfd;" horiz-adv-x="944" 
d="M74 596h-37q9 176 76.5 287.5t175.5 111.5q97 0 155 -117t62 -346q3 -142 -20 -296.5t-66 -270.5h14q60 76 97.5 126t91.5 135t85 154t53.5 157t20.5 170q-2 67 -28 137t-68 119q56 36 117 36q104 0 106 -149q3 -138 -55.5 -301t-155 -311.5t-218 -289.5t-242 -244
t-229.5 -165.5t-179 -62.5q-57 0 -95 33t-38 92q-2 52 31 86t86 34q49 0 78.5 -34.5t54.5 -108.5h8q81 34 147 109t107 167t69 201t39 207.5t11 190.5q0 195 -33 290t-84 95q-83 0 -137 -242zM717 1550h157v-16l-282 -399h-53z" />
    <glyph glyph-name="thorn" unicode="&#xfe;" horiz-adv-x="991" 
d="M-92 -397l440 1743l-131 90l6 16l355 78l-248 -946h8q99 170 227.5 292.5t239.5 122.5q79 0 125.5 -74t40.5 -200q-4 -85 -37 -186.5t-93 -201.5t-136 -182.5t-175 -134t-200 -51.5q-76 0 -146 37l-108 -420l274 -2l-14 -71h-580l8 41zM254 262l-35 -131
q20 -45 58.5 -75.5t93.5 -30.5q86 0 177 110.5t149.5 265t64.5 287.5q4 75 -17.5 114.5t-58.5 39.5q-56 0 -126 -63t-130 -154t-108 -189.5t-68 -173.5z" />
    <glyph glyph-name="ydieresis" unicode="&#xff;" horiz-adv-x="944" 
d="M74 596h-37q9 176 76.5 287.5t175.5 111.5q97 0 155 -117t62 -346q3 -142 -20 -296.5t-66 -270.5h14q60 76 97.5 126t91.5 135t85 154t53.5 157t20.5 170q-2 67 -28 137t-68 119q56 36 117 36q104 0 106 -149q3 -138 -55.5 -301t-155 -311.5t-218 -289.5t-242 -244
t-229.5 -165.5t-179 -62.5q-57 0 -95 33t-38 92q-2 52 31 86t86 34q49 0 78.5 -34.5t54.5 -108.5h8q81 34 147 109t107 167t69 201t39 207.5t11 190.5q0 195 -33 290t-84 95q-83 0 -137 -242zM442 1266q-46 0 -77 31t-31 77q0 45 31.5 78t76.5 33q44 0 76.5 -33.5
t32.5 -77.5q0 -45 -32 -76.5t-77 -31.5zM797 1266q-45 0 -76 31t-31 77q0 45 31.5 78t75.5 33q45 0 77.5 -33t32.5 -78q0 -46 -32 -77t-78 -31z" />
    <glyph glyph-name="Amacron" unicode="&#x100;" horiz-adv-x="1409" 
d="M-80 0l8 45l135 39l725 1280l66 14l78 15l190 -1301l131 -49l-6 -43h-512l6 45l177 45l-54 379h-481l-201 -375l193 -51l-6 -43h-449zM764 1174l-326 -605h412l-84 605h-2zM596 1579l25 121h581l-24 -121h-582z" />
    <glyph glyph-name="amacron" unicode="&#x101;" horiz-adv-x="1040" 
d="M879 1047h112l-250 -900h7q48 29 100 87.5t94 123.5l41 -14q-63 -139 -173.5 -254t-182.5 -115q-34 0 -54.5 15.5t-26 41t-2.5 53.5t13 58l94 285h-14q-37 -59 -62 -96.5t-68 -98.5t-79.5 -101t-80.5 -80.5t-88 -60.5t-85 -20q-78 0 -122 51t-38 152q5 123 53 247.5
t122 222.5t160.5 175.5t173.5 119.5t155 42q91 0 147 -35zM279 123q57 0 152 107.5t175.5 242.5t110.5 227l43 136q-55 75 -129 75q-84 0 -178 -106.5t-159 -268t-73 -311.5q-3 -102 58 -102zM457 1282l24 121h555l-24 -121h-555z" />
    <glyph glyph-name="Abreve" unicode="&#x102;" horiz-adv-x="1409" 
d="M-80 0l8 45l135 39l725 1280l66 14l78 15l190 -1301l131 -49l-6 -43h-512l6 45l177 45l-54 379h-481l-201 -375l193 -51l-6 -43h-449zM764 1174l-326 -605h412l-84 605h-2zM872 1495q-114 0 -172.5 73t-60.5 204h43q33 -79 80 -116.5t129 -37.5q142 0 235 154h41
q-24 -124 -101 -200.5t-194 -76.5z" />
    <glyph glyph-name="abreve" unicode="&#x103;" horiz-adv-x="1040" 
d="M879 1047h112l-250 -900h7q48 29 100 87.5t94 123.5l41 -14q-63 -139 -173.5 -254t-182.5 -115q-34 0 -54.5 15.5t-26 41t-2.5 53.5t13 58l94 285h-14q-37 -59 -62 -96.5t-68 -98.5t-79.5 -101t-80.5 -80.5t-88 -60.5t-85 -20q-78 0 -122 51t-38 152q5 123 53 247.5
t122 222.5t160.5 175.5t173.5 119.5t155 42q91 0 147 -35zM279 123q57 0 152 107.5t175.5 242.5t110.5 227l43 136q-55 75 -129 75q-84 0 -178 -106.5t-159 -268t-73 -311.5q-3 -102 58 -102zM715 1161q-107 0 -159.5 87t-37.5 253h39q20 -207 174 -207q144 0 223 207h39
q-23 -157 -92 -248.5t-186 -91.5z" />
    <glyph glyph-name="Aogonek" unicode="&#x104;" horiz-adv-x="1409" 
d="M-80 0l8 45l135 39l725 1280l66 14l78 15l190 -1301l131 -49l-6 -43h-284q-154 -95 -214.5 -162t-60.5 -123q0 -42 23.5 -67t66.5 -25q40 0 75 19.5t95 76.5l27 -24q-135 -205 -275 -205q-79 0 -121 43t-42 102q0 38 15 73t38.5 65t78.5 74.5t106 81.5t151 106l-62 434
h-481l-201 -375l193 -51l-6 -43h-449zM764 1174l-326 -605h412l-84 605h-2z" />
    <glyph glyph-name="aogonek" unicode="&#x105;" horiz-adv-x="1040" 
d="M641 -23h-14q-34 0 -54.5 15t-26 40.5t-2.5 53t13 57.5l94 285h-14q-37 -59 -62 -96.5t-68 -98.5t-79.5 -101t-80.5 -80.5t-88 -60.5t-85 -20q-78 0 -122 51t-38 152q5 123 53 247.5t122 222.5t160.5 175.5t173.5 119.5t155 42q91 0 147 -35l54 101h112l-250 -900h7
q48 29 100 87.5t94 123.5l41 -14q-66 -142 -178 -260q-25 -27 -70 -73q-159 -166 -198 -216t-39 -98q0 -30 22 -52t64 -22q40 0 76 20t94 76l26 -24q-135 -205 -274 -205q-80 0 -122 43t-42 102q0 30 7.5 57t27 55t40.5 50.5t60.5 54t73 56t92.5 65.5zM279 123
q57 0 152.5 107t176 242.5t109.5 227.5l43 136q-55 75 -129 75q-84 0 -178 -106.5t-159 -268t-73 -311.5q-3 -102 58 -102z" />
    <glyph glyph-name="Cacute" unicode="&#x106;" horiz-adv-x="1449" 
d="M733 -35q-131 0 -241.5 38.5t-192.5 111t-128 185.5t-46 255q0 120 38 239.5t115 226.5t182.5 190t252.5 131.5t313 48.5q184 0 404 -115l-48 -369h-49l-61 307q-120 111 -271 111q-87 0 -176 -32t-172 -98.5t-147 -159t-102.5 -223.5t-38.5 -282q0 -240 113.5 -368.5
t289.5 -128.5q157 0 274 88l207 334h49l-110 -394q-72 -27 -120.5 -43t-145.5 -34.5t-189 -18.5zM1141 1790h182v-23l-295 -264h-74z" />
    <glyph glyph-name="cacute" unicode="&#x107;" horiz-adv-x="811" 
d="M778 1550h158v-16l-283 -399h-53zM524 893q-67 0 -132.5 -93.5t-105.5 -232t-42 -270.5q-1 -90 30.5 -134t87.5 -44q82 0 158.5 67t157.5 181l35 -23q-25 -47 -52 -90t-71 -96.5t-90 -91.5t-108 -64.5t-126 -26.5q-110 0 -172.5 76.5t-60.5 188.5q3 181 87 349t247 288
q65 51 147.5 86.5t155.5 35.5q67 0 117.5 -35.5t50.5 -86.5q0 -38 -27.5 -78t-42.5 -49q-143 143 -244 143z" />
    <glyph glyph-name="Ccircumflex" unicode="&#x108;" horiz-adv-x="1449" 
d="M733 -35q-131 0 -241.5 38.5t-192.5 111t-128 185.5t-46 255q0 120 38 239.5t115 226.5t182.5 190t252.5 131.5t313 48.5q184 0 404 -115l-48 -369h-49l-61 307q-120 111 -271 111q-87 0 -176 -32t-172 -98.5t-147 -159t-102.5 -223.5t-38.5 -282q0 -240 113.5 -368.5
t289.5 -128.5q157 0 274 88l207 334h49l-110 -394q-72 -27 -120.5 -43t-145.5 -34.5t-189 -18.5zM754 1503h-84l315 287h131l191 -287h-80l-199 176z" />
    <glyph glyph-name="ccircumflex" unicode="&#x109;" horiz-adv-x="811" 
d="M524 893q-67 0 -132.5 -93.5t-105.5 -232t-42 -270.5q-1 -90 30.5 -134t87.5 -44q82 0 158.5 67t157.5 181l35 -23q-25 -47 -52 -90t-71 -96.5t-90 -91.5t-108 -64.5t-126 -26.5q-110 0 -172.5 76.5t-60.5 188.5q3 181 87 349t247 288q65 51 147.5 86.5t155.5 35.5
q67 0 117.5 -35.5t50.5 -86.5q0 -38 -27.5 -78t-42.5 -49q-143 143 -244 143zM455 1135h-64l283 415h86l104 -415h-59l-119 268z" />
    <glyph glyph-name="Cdotaccent" unicode="&#x10a;" horiz-adv-x="1449" 
d="M733 -35q-131 0 -241.5 38.5t-192.5 111t-128 185.5t-46 255q0 120 38 239.5t115 226.5t182.5 190t252.5 131.5t313 48.5q184 0 404 -115l-48 -369h-49l-61 307q-120 111 -271 111q-87 0 -176 -32t-172 -98.5t-147 -159t-102.5 -223.5t-38.5 -282q0 -240 113.5 -368.5
t289.5 -128.5q157 0 274 88l207 334h49l-110 -394q-72 -27 -120.5 -43t-145.5 -34.5t-189 -18.5zM926 1655q0 46 34.5 80t81.5 34q46 0 80.5 -34t34.5 -80q0 -47 -34.5 -81t-80.5 -34q-47 0 -81.5 34t-34.5 81z" />
    <glyph glyph-name="cdotaccent" unicode="&#x10b;" horiz-adv-x="811" 
d="M524 893q-67 0 -132.5 -93.5t-105.5 -232t-42 -270.5q-1 -90 30.5 -134t87.5 -44q82 0 158.5 67t157.5 181l35 -23q-25 -47 -52 -90t-71 -96.5t-90 -91.5t-108 -64.5t-126 -26.5q-110 0 -172.5 76.5t-60.5 188.5q3 181 87 349t247 288q65 51 147.5 86.5t155.5 35.5
q67 0 117.5 -35.5t50.5 -86.5q0 -38 -27.5 -78t-42.5 -49q-143 143 -244 143zM569 1374q0 47 34 81t81 34q46 0 80.5 -34t34.5 -81t-34.5 -80.5t-80.5 -33.5q-47 0 -81 33.5t-34 80.5z" />
    <glyph glyph-name="Ccaron" unicode="&#x10c;" horiz-adv-x="1449" 
d="M733 -35q-131 0 -241.5 38.5t-192.5 111t-128 185.5t-46 255q0 120 38 239.5t115 226.5t182.5 190t252.5 131.5t313 48.5q184 0 404 -115l-48 -369h-49l-61 307q-120 111 -271 111q-87 0 -176 -32t-172 -98.5t-147 -159t-102.5 -223.5t-38.5 -282q0 -240 113.5 -368.5
t289.5 -128.5q157 0 274 88l207 334h49l-110 -394q-72 -27 -120.5 -43t-145.5 -34.5t-189 -18.5zM1300 1790h84l-317 -287h-129l-190 287h79l197 -180z" />
    <glyph glyph-name="ccaron" unicode="&#x10d;" horiz-adv-x="811" 
d="M524 893q-67 0 -132.5 -93.5t-105.5 -232t-42 -270.5q-1 -90 30.5 -134t87.5 -44q82 0 158.5 67t157.5 181l35 -23q-25 -47 -52 -90t-71 -96.5t-90 -91.5t-108 -64.5t-126 -26.5q-110 0 -172.5 76.5t-60.5 188.5q3 181 87 349t247 288q65 51 147.5 86.5t155.5 35.5
q67 0 117.5 -35.5t50.5 -86.5q0 -38 -27.5 -78t-42.5 -49q-143 143 -244 143zM891 1550h61l-282 -415h-86l-105 415h58l118 -274z" />
    <glyph glyph-name="Dcaron" unicode="&#x10e;" horiz-adv-x="1472" 
d="M-47 0l8 45l156 45l233 1176l-137 51l6 43l354 2q397 3 611.5 -149t214.5 -429q0 -248 -120.5 -428t-341.5 -272.5t-519 -89.5zM565 1307l-235 -1192q80 -55 207 -52q127 2 232.5 42t179.5 106.5t125.5 156.5t75.5 192.5t24 213.5q0 134 -44 236.5t-125 166.5
t-191.5 96.5t-248.5 33.5zM1098 1790h84l-318 -287h-129l-190 287h80l196 -180z" />
    <glyph glyph-name="dcaron" unicode="&#x10f;" horiz-adv-x="1050" 
d="M645 997q89 0 158 -32l98 381l-137 90l8 16l358 76l-358 -1378h6q88 53 197 208l37 -14q-65 -142 -173.5 -254.5t-181.5 -112.5q-56 0 -75 41.5t6 124.5l80 271h-11q-27 -48 -59.5 -98.5t-83 -115t-100 -113t-110 -82.5t-114.5 -34q-76 0 -127.5 60.5t-44.5 187.5
q5 109 40.5 222t96 211.5t136.5 176.5t168.5 123t185.5 45zM741 725l29 113q-27 45 -65.5 71.5t-79.5 26.5q-93 0 -184 -102.5t-149 -261t-65 -318.5q-4 -71 16.5 -105t53.5 -34q53 0 146 96.5t179 242t119 271.5zM1171 1081h-41l113 406h176l-2 -12z" />
    <glyph glyph-name="Dcroat" unicode="&#x110;" horiz-adv-x="1472" 
d="M-47 0l8 45l156 45l108 551h-196l14 70h197l110 555l-139 51l8 43l354 2q397 3 611.5 -149t214.5 -429q0 -248 -120.5 -428t-341.5 -272.5t-519 -89.5zM778 641h-344l-104 -526q80 -55 207 -52q127 2 232.5 42t179.5 106.5t125.5 156.5t75.5 192.5t24 213.5
q0 134 -44 236.5t-125 166.5t-191.5 96.5t-248.5 33.5l-119 -596h347z" />
    <glyph glyph-name="dcroat" unicode="&#x111;" horiz-adv-x="1050" 
d="M487 1143l19 69h362l37 144l-141 80l8 16l358 76l-81 -316h143l-18 -69h-144l-258 -993h6q88 53 197 208l37 -14q-65 -142 -173.5 -254.5t-181.5 -112.5q-56 0 -75 41.5t6 124.5l80 271h-11q-27 -48 -59.5 -98.5t-83 -115t-100 -113t-110 -82.5t-114.5 -34
q-76 0 -127.5 60.5t-44.5 187.5q5 109 40.5 222t96 211.5t136.5 176.5t168.5 123t185.5 45q89 0 158 -32l47 178h-363zM741 725l29 113q-27 45 -65.5 71.5t-79.5 26.5q-93 0 -184 -102.5t-149 -261t-65 -318.5q-4 -71 16.5 -105t53.5 -34q53 0 146 96.5t179 242t119 271.5z
" />
    <glyph glyph-name="Emacron" unicode="&#x112;" horiz-adv-x="1183" 
d="M711 680h-269l-114 -574q43 -34 127 -34h344l221 334h53l-125 -406h-995l8 45l156 45l233 1176l-137 51l6 43h817l131 8l-49 -387h-51l-66 309h-440l-104 -538h270l100 180h47l-86 -436h-53zM483 1579l25 121h582l-25 -121h-582z" />
    <glyph glyph-name="emacron" unicode="&#x113;" horiz-adv-x="802" 
d="M276 -25q-126 0 -187 85t-56 216q9 173 96 324.5t219 257.5q168 141 324 141q72 0 115 -39.5t40 -107.5q-3 -66 -54.5 -128.5t-134.5 -109.5t-184 -81t-206 -50q-12 -52 -15 -106q-6 -125 33.5 -191.5t120.5 -66.5q65 0 139 56.5t127 135.5l39 -18q-26 -50 -61.5 -98.5
t-88 -101.5t-122.5 -85.5t-144 -32.5zM573 918q-80 0 -175 -112.5t-138 -268.5q133 24 249 114t122 199q2 32 -13.5 50t-44.5 18zM387 1282l25 121h555l-25 -121h-555z" />
    <glyph glyph-name="Ebreve" unicode="&#x114;" horiz-adv-x="1183" 
d="M711 680h-269l-114 -574q43 -34 127 -34h344l221 334h53l-125 -406h-995l8 45l156 45l233 1176l-137 51l6 43h817l131 8l-49 -387h-51l-66 309h-440l-104 -538h270l100 180h47l-86 -436h-53zM764 1495q-114 0 -173 73t-61 204h43q33 -79 80 -116.5t129 -37.5
q143 0 236 154h41q-24 -124 -101 -200.5t-194 -76.5z" />
    <glyph glyph-name="ebreve" unicode="&#x115;" horiz-adv-x="802" 
d="M276 -25q-126 0 -187 85t-56 216q9 173 96 324.5t219 257.5q168 141 324 141q72 0 115 -39.5t40 -107.5q-3 -66 -54.5 -128.5t-134.5 -109.5t-184 -81t-206 -50q-12 -52 -15 -106q-6 -125 33.5 -191.5t120.5 -66.5q65 0 139 56.5t127 135.5l39 -18q-26 -50 -61.5 -98.5
t-88 -101.5t-122.5 -85.5t-144 -32.5zM621 1161q-107 0 -159.5 87t-37.5 253h39q20 -207 174 -207q144 0 223 207h39q-23 -157 -92 -248.5t-186 -91.5zM573 918q-80 0 -175 -112.5t-138 -268.5q133 24 249 114t122 199q2 32 -13.5 50t-44.5 18z" />
    <glyph glyph-name="Edotaccent" unicode="&#x116;" horiz-adv-x="1183" 
d="M711 680h-269l-114 -574q43 -34 127 -34h344l221 334h53l-125 -406h-995l8 45l156 45l233 1176l-137 51l6 43h817l131 8l-49 -387h-51l-66 309h-440l-104 -538h270l100 180h47l-86 -436h-53zM690 1655q0 46 35 80t82 34q46 0 80.5 -34t34.5 -80q0 -47 -34.5 -81
t-80.5 -34q-47 0 -82 34t-35 81z" />
    <glyph glyph-name="edotaccent" unicode="&#x117;" horiz-adv-x="802" 
d="M276 -25q-126 0 -187 85t-56 216q9 173 96 324.5t219 257.5q168 141 324 141q72 0 115 -39.5t40 -107.5q-3 -66 -54.5 -128.5t-134.5 -109.5t-184 -81t-206 -50q-12 -52 -15 -106q-6 -125 33.5 -191.5t120.5 -66.5q65 0 139 56.5t127 135.5l39 -18q-26 -50 -61.5 -98.5
t-88 -101.5t-122.5 -85.5t-144 -32.5zM573 918q-80 0 -175 -112.5t-138 -268.5q133 24 249 114t122 199q2 32 -13.5 50t-44.5 18zM573 1374q0 47 34 81t81 34q46 0 80.5 -34t34.5 -81t-34.5 -80.5t-80.5 -33.5q-47 0 -81 33.5t-34 80.5z" />
    <glyph glyph-name="Eogonek" unicode="&#x118;" horiz-adv-x="1183" 
d="M711 680h-269l-114 -574q43 -34 127 -34h344l221 334h53l-125 -406h-147q-152 -137 -199 -192t-47 -107q0 -33 22.5 -55.5t65.5 -22.5q39 0 75 20t95 76l27 -24q-139 -205 -277 -205q-80 0 -122 43t-42 102q0 38 14.5 72.5t37.5 64t71.5 68.5t96 72t131.5 88h-797l8 45
l156 45l233 1176l-137 51l6 43h817l131 8l-49 -387h-51l-66 309h-440l-104 -538h270l100 180h47l-86 -436h-53z" />
    <glyph glyph-name="eogonek" unicode="&#x119;" horiz-adv-x="802" 
d="M395 -8l-2 6q-64 -23 -117 -23q-126 0 -187 85t-56 216q9 173 96 324.5t219 257.5q168 141 324 141q72 0 115 -39.5t40 -107.5q-3 -66 -54.5 -128.5t-134.5 -109.5t-184 -81t-206 -50q-12 -52 -15 -106q-6 -125 33.5 -191.5t120.5 -66.5q65 0 139 56.5t127 135.5l39 -18
q-26 -43 -38 -62.5t-53.5 -73t-92.5 -104.5q-35 -34 -93 -91q-135 -132 -168.5 -173.5t-33.5 -87.5q0 -33 22 -55.5t64 -22.5q40 0 76 20t94 76l27 -24q-135 -205 -275 -205q-80 0 -122 43t-42 102q0 39 13.5 73t36 63.5t68.5 67t93 69.5t127 84zM573 918q-80 0 -175 -112.5
t-138 -268.5q133 24 249 114t122 199q2 32 -13.5 50t-44.5 18z" />
    <glyph glyph-name="Ecaron" unicode="&#x11a;" horiz-adv-x="1183" 
d="M711 680h-269l-114 -574q43 -34 127 -34h344l221 334h53l-125 -406h-995l8 45l156 45l233 1176l-137 51l6 43h817l131 8l-49 -387h-51l-66 309h-440l-104 -538h270l100 180h47l-86 -436h-53zM1073 1790h84l-317 -287h-129l-191 287h80l197 -180z" />
    <glyph glyph-name="ecaron" unicode="&#x11b;" horiz-adv-x="802" 
d="M276 -25q-126 0 -187 85t-56 216q9 173 96 324.5t219 257.5q168 141 324 141q72 0 115 -39.5t40 -107.5q-3 -66 -54.5 -128.5t-134.5 -109.5t-184 -81t-206 -50q-12 -52 -15 -106q-6 -125 33.5 -191.5t120.5 -66.5q65 0 139 56.5t127 135.5l39 -18q-26 -50 -61.5 -98.5
t-88 -101.5t-122.5 -85.5t-144 -32.5zM573 918q-80 0 -175 -112.5t-138 -268.5q133 24 249 114t122 199q2 32 -13.5 50t-44.5 18zM866 1550h62l-283 -415h-86l-104 415h57l119 -274z" />
    <glyph glyph-name="Gcircumflex" unicode="&#x11c;" horiz-adv-x="1468" 
d="M365 520q-1 -119 31 -214.5t87 -154.5t125 -90.5t148 -31.5q104 0 179 48.5t93 137.5l49 250l-196 41l8 49h508l-8 -49l-107 -41l-72 -371q-17 -7 -66.5 -30t-84 -36t-89 -30t-118 -25t-135.5 -8q-167 0 -301 72t-212.5 209t-78.5 315q0 122 38 242t114.5 226t181.5 187
t248.5 128t306.5 47q116 0 210.5 -31.5t196.5 -85.5l-57 -367h-51l-62 326q-102 92 -247 92q-89 0 -179 -33.5t-172.5 -102t-147 -162.5t-102.5 -225.5t-38 -281.5zM756 1503h-84l315 287h131l191 -287h-80l-199 176z" />
    <glyph glyph-name="gcircumflex" unicode="&#x11d;" horiz-adv-x="882" 
d="M549 995q61 0 153 -20l265 12l-29 -125l-197 43v-6q21 -25 37.5 -80.5t12.5 -113.5q-5 -105 -64.5 -204.5t-162 -165t-218.5 -65.5h-27q-63 -31 -63 -80q0 -32 29 -51l315 -157q99 -49 135.5 -96t34.5 -103q-6 -122 -160.5 -213.5t-371.5 -91.5q-192 0 -299 53t-103 147
q4 88 112 154t285 107v6l-32 14q-108 48 -103 145q1 25 12 47.5t22.5 37.5t37.5 34.5t39.5 28t46.5 27.5v8q-77 32 -121 108t-39 166q3 78 35 154t87 139t141.5 102t189.5 39zM471 -168l-180 86q-143 -43 -203 -84.5t-63 -109.5q-3 -77 80 -126t237 -49q117 0 197.5 46
t83.5 104q2 32 -30 60t-122 73zM539 938q-63 0 -125.5 -73.5t-102 -182t-43.5 -211.5q-10 -147 76 -147q65 0 128.5 76t103.5 189t45 222q4 50 -15.5 88.5t-66.5 38.5zM412 1135h-64l283 415h86l104 -415h-59l-119 268z" />
    <glyph glyph-name="Gbreve" unicode="&#x11e;" horiz-adv-x="1468" 
d="M1006 1495q-114 0 -173 73t-61 204h43q33 -79 80 -116.5t129 -37.5q143 0 236 154h40q-24 -124 -100.5 -200.5t-193.5 -76.5zM365 520q-1 -119 31 -214.5t87 -154.5t125 -90.5t148 -31.5q104 0 179 48.5t93 137.5l49 250l-196 41l8 49h508l-8 -49l-107 -41l-72 -371
q-17 -7 -66.5 -30t-84 -36t-89 -30t-118 -25t-135.5 -8q-167 0 -301 72t-212.5 209t-78.5 315q0 122 38 242t114.5 226t181.5 187t248.5 128t306.5 47q116 0 210.5 -31.5t196.5 -85.5l-57 -367h-51l-62 326q-102 92 -247 92q-89 0 -179 -33.5t-172.5 -102t-147 -162.5
t-102.5 -225.5t-38 -281.5z" />
    <glyph glyph-name="gbreve" unicode="&#x11f;" horiz-adv-x="882" 
d="M549 995q61 0 153 -20l265 12l-29 -125l-197 43v-6q21 -25 37.5 -80.5t12.5 -113.5q-5 -105 -64.5 -204.5t-162 -165t-218.5 -65.5h-27q-63 -31 -63 -80q0 -32 29 -51l315 -157q99 -49 135.5 -96t34.5 -103q-6 -122 -160.5 -213.5t-371.5 -91.5q-192 0 -299 53t-103 147
q4 88 112 154t285 107v6l-32 14q-108 48 -103 145q1 25 12 47.5t22.5 37.5t37.5 34.5t39.5 28t46.5 27.5v8q-77 32 -121 108t-39 166q3 78 35 154t87 139t141.5 102t189.5 39zM471 -168l-180 86q-143 -43 -203 -84.5t-63 -109.5q-3 -77 80 -126t237 -49q117 0 197.5 46
t83.5 104q2 32 -30 60t-122 73zM539 938q-63 0 -125.5 -73.5t-102 -182t-43.5 -211.5q-10 -147 76 -147q65 0 128.5 76t103.5 189t45 222q4 50 -15.5 88.5t-66.5 38.5zM600 1161q-108 0 -160 87t-37 253h39q20 -207 174 -207q145 0 224 207h39q-23 -157 -92.5 -248.5
t-186.5 -91.5z" />
    <glyph glyph-name="Gdotaccent" unicode="&#x120;" horiz-adv-x="1468" 
d="M924 1655q0 46 34.5 80t81.5 34q46 0 80.5 -34t34.5 -80q0 -47 -34.5 -81t-80.5 -34q-47 0 -81.5 34t-34.5 81zM365 520q-1 -119 31 -214.5t87 -154.5t125 -90.5t148 -31.5q104 0 179 48.5t93 137.5l49 250l-196 41l8 49h508l-8 -49l-107 -41l-72 -371q-17 -7 -66.5 -30
t-84 -36t-89 -30t-118 -25t-135.5 -8q-167 0 -301 72t-212.5 209t-78.5 315q0 122 38 242t114.5 226t181.5 187t248.5 128t306.5 47q116 0 210.5 -31.5t196.5 -85.5l-57 -367h-51l-62 326q-102 92 -247 92q-89 0 -179 -33.5t-172.5 -102t-147 -162.5t-102.5 -225.5
t-38 -281.5z" />
    <glyph glyph-name="gdotaccent" unicode="&#x121;" horiz-adv-x="882" 
d="M549 995q61 0 153 -20l265 12l-29 -125l-197 43v-6q21 -25 37.5 -80.5t12.5 -113.5q-5 -105 -64.5 -204.5t-162 -165t-218.5 -65.5h-27q-63 -31 -63 -80q0 -32 29 -51l315 -157q99 -49 135.5 -96t34.5 -103q-6 -122 -160.5 -213.5t-371.5 -91.5q-192 0 -299 53t-103 147
q4 88 112 154t285 107v6l-32 14q-108 48 -103 145q1 25 12 47.5t22.5 37.5t37.5 34.5t39.5 28t46.5 27.5v8q-77 32 -121 108t-39 166q3 78 35 154t87 139t141.5 102t189.5 39zM471 -168l-180 86q-143 -43 -203 -84.5t-63 -109.5q-3 -77 80 -126t237 -49q117 0 197.5 46
t83.5 104q2 32 -30 60t-122 73zM539 938q-63 0 -125.5 -73.5t-102 -182t-43.5 -211.5q-10 -147 76 -147q65 0 128.5 76t103.5 189t45 222q4 50 -15.5 88.5t-66.5 38.5zM526 1374q0 47 34 81t81 34q46 0 80.5 -34t34.5 -81t-34.5 -80.5t-80.5 -33.5q-47 0 -81 33.5t-34 80.5z
" />
    <glyph glyph-name="Gcommaaccent" unicode="&#x122;" horiz-adv-x="1468" 
d="M489 -530l-16 41q110 40 154.5 76t44.5 85q0 31 -27 55t-74 31v6q3 47 40 79t94 32q62 0 100.5 -39.5t38.5 -95.5q0 -94 -92.5 -159t-262.5 -111zM365 520q-1 -119 31 -214.5t87 -154.5t125 -90.5t148 -31.5q104 0 179 48.5t93 137.5l49 250l-196 41l8 49h508l-8 -49
l-107 -41l-72 -371q-17 -7 -66.5 -30t-84 -36t-89 -30t-118 -25t-135.5 -8q-167 0 -301 72t-212.5 209t-78.5 315q0 122 38 242t114.5 226t181.5 187t248.5 128t306.5 47q116 0 210.5 -31.5t196.5 -85.5l-57 -367h-51l-62 326q-102 92 -247 92q-89 0 -179 -33.5t-172.5 -102
t-147 -162.5t-102.5 -225.5t-38 -281.5z" />
    <glyph glyph-name="gcommaaccent" unicode="&#x123;" horiz-adv-x="882" 
d="M549 995q61 0 153 -20l265 12l-29 -125l-197 43v-6q21 -25 37.5 -80.5t12.5 -113.5q-5 -105 -64.5 -204.5t-162 -165t-218.5 -65.5h-27q-63 -31 -63 -80q0 -32 29 -51l315 -157q99 -49 135.5 -96t34.5 -103q-6 -122 -160.5 -213.5t-371.5 -91.5q-192 0 -299 53t-103 147
q4 88 112 154t285 107v6l-32 14q-108 48 -103 145q1 25 12 47.5t22.5 37.5t37.5 34.5t39.5 28t46.5 27.5v8q-77 32 -121 108t-39 166q3 78 35 154t87 139t141.5 102t189.5 39zM471 -168l-180 86q-143 -43 -203 -84.5t-63 -109.5q-3 -77 80 -126t237 -49q117 0 197.5 46
t83.5 104q2 32 -30 60t-122 73zM539 938q-63 0 -125.5 -73.5t-102 -182t-43.5 -211.5q-10 -147 76 -147q65 0 128.5 76t103.5 189t45 222q4 50 -15.5 88.5t-66.5 38.5zM870 1649l15 -41q-108 -39 -153.5 -75t-45.5 -85q0 -33 26.5 -57t73.5 -31v-4q-3 -47 -39.5 -80
t-91.5 -33q-62 0 -100.5 40.5t-38.5 96.5q0 177 354 269z" />
    <glyph glyph-name="Hcircumflex" unicode="&#x124;" horiz-adv-x="1478" 
d="M776 0l6 45l174 45l117 592h-631l-116 -592l153 -47l-8 -43h-518l8 45l156 45l233 1176l-139 51l8 43h518l-8 -45l-172 -49l-102 -518h630l105 522l-154 47l6 43h519l-9 -45l-153 -45l-236 -1180l142 -47l-9 -43h-520zM682 1503h-84l315 287h131l191 -287h-80l-199 176z
" />
    <glyph glyph-name="hcircumflex" unicode="&#x125;" horiz-adv-x="1015" 
d="M569 1530l-254 -975h11q49 84 102.5 158t115.5 140.5t128.5 105t126.5 38.5q83 0 110 -50.5t-4 -170.5l-174 -626h6q90 56 197 208l37 -14q-69 -140 -177.5 -253.5t-179.5 -113.5q-56 0 -75 40t4 126l180 623q13 41 3 62.5t-38 21.5q-45 0 -111 -57t-130.5 -146
t-124 -209t-91.5 -237l-51 -185l-166 -45l-26 27l354 1348l-115 90l6 16zM496 1567h-84l315 286h131l191 -286h-80l-199 176z" />
    <glyph glyph-name="Hbar" unicode="&#x126;" horiz-adv-x="1478" 
d="M776 0l6 45l174 45l117 592h-631l-116 -592l153 -47l-8 -43h-518l8 45l156 45l180 911h-195l13 68h196l39 197l-137 51l6 43h518l-8 -45l-172 -49l-39 -197h631l41 201l-154 47l6 43h519l-9 -45l-153 -45l-41 -201h198l-14 -68h-196l-183 -911l142 -47l-9 -43h-520z
M504 1001l-47 -245h630l50 245h-633z" />
    <glyph glyph-name="hbar" unicode="&#x127;" horiz-adv-x="1015" 
d="M147 1143l19 69h141l37 144l-117 80l6 16l336 78l-82 -318h363l-19 -69h-362l-154 -588h11q49 84 102.5 158t115.5 140.5t128.5 105t126.5 38.5q83 0 110 -50.5t-4 -170.5l-174 -626h6q90 56 197 208l39 -14q-71 -140 -180 -253.5t-179 -113.5q-56 0 -75 40t4 126
l180 623q24 84 -35 84q-61 0 -152 -93.5t-177.5 -247t-127.5 -308.5l-51 -185l-166 -45l-26 27l301 1145h-142z" />
    <glyph glyph-name="Itilde" unicode="&#x128;" horiz-adv-x="638" 
d="M-47 0l8 45l156 45l233 1176l-137 51l6 43h502l-8 -45l-156 -45l-233 -1180l139 -47l-6 -43h-504zM215 1536l-33 14l13 31q29 71 63.5 113t77 55t87 7.5t101.5 -27.5l60 -23q50 -19 75.5 -25t55.5 -1.5t53 29t49 73.5l31 -17l-14 -34q-42 -101 -87.5 -145.5t-105 -44.5
t-139.5 32l-58 22q-95 41 -140 32t-89 -91z" />
    <glyph glyph-name="itilde" unicode="&#x129;" horiz-adv-x="526" 
d="M168 1192l-35 18l12 29q40 92 91.5 134t106.5 40t124 -37l33 -16q30 -15 53.5 -20t49 1t51 31t51.5 70l32 -17l-16 -34q-45 -95 -94 -141.5t-100.5 -47t-110.5 30.5l-43 22q-66 40 -111.5 28t-93.5 -91zM258 842q-25 20 -75.5 22t-100.5 -12l2 27q122 118 242 118
q64 0 95 -51t5 -153l-180 -643h6q46 30 100 89.5t90 118.5l41 -14q-61 -131 -172 -249t-184 -118q-54 0 -73 40.5t3 125.5z" />
    <glyph glyph-name="Imacron" unicode="&#x12a;" horiz-adv-x="638" 
d="M254 1579l25 121h507l-26 -121h-506zM-47 0l8 45l156 45l233 1176l-137 51l6 43h502l-8 -45l-156 -45l-233 -1180l139 -47l-6 -43h-504z" />
    <glyph glyph-name="imacron" unicode="&#x12b;" horiz-adv-x="526" 
d="M178 1284l25 119h463l-25 -119h-463zM258 842q-25 20 -75.5 22t-100.5 -12l2 27q122 118 242 118q64 0 95 -51t5 -153l-180 -643h6q46 30 100 89.5t90 118.5l41 -14q-61 -131 -172 -249t-184 -118q-54 0 -73 40.5t3 125.5z" />
    <glyph glyph-name="Ibreve" unicode="&#x12c;" horiz-adv-x="638" 
d="M-47 0l8 45l156 45l233 1176l-137 51l6 43h502l-8 -45l-156 -45l-233 -1180l139 -47l-6 -43h-504zM500 1495q-114 0 -173 73t-61 204h43q33 -79 80 -116.5t129 -37.5q143 0 236 154h41q-24 -124 -101 -200.5t-194 -76.5z" />
    <glyph glyph-name="ibreve" unicode="&#x12d;" horiz-adv-x="526" 
d="M258 842q-25 20 -75.5 22t-100.5 -12l2 27q122 118 242 118q64 0 95 -51t5 -153l-180 -643h6q46 30 100 89.5t90 118.5l41 -14q-61 -131 -172 -249t-184 -118q-54 0 -73 40.5t3 125.5zM395 1161q-107 0 -159 87t-37 253h39q20 -207 174 -207q144 0 223 207h39
q-23 -157 -92.5 -248.5t-186.5 -91.5z" />
    <glyph glyph-name="Iogonek" unicode="&#x12e;" horiz-adv-x="638" 
d="M-47 0l8 45l156 45l233 1176l-137 51l6 43h502l-8 -45l-156 -45l-233 -1180l139 -47l-6 -43h-224q-96 -128 -128.5 -186t-32.5 -107q0 -38 22.5 -61t59.5 -23q40 0 79 20.5t95 75.5l26 -24q-135 -205 -274 -205q-80 0 -122 44t-42 106q0 20 3 39t12 38.5t16 34.5t25 37.5
t28.5 35.5t37 39.5t40.5 40t48.5 46.5t51.5 49h-225z" />
    <glyph glyph-name="iogonek" unicode="&#x12f;" horiz-adv-x="526" 
d="M258 842q-25 20 -75.5 22t-102.5 -12l4 27q122 118 240 118q66 0 96.5 -51t3.5 -153l-180 -643h8q46 30 99.5 90t88.5 118l43 -14q-67 -144 -180 -260q-212 -223 -242 -259q-57 -67 -62 -110q-1 -9 -1 -18q0 -30 22 -52t64 -22q40 0 75 19.5t95 76.5l27 -24
q-135 -205 -277 -205q-78 0 -120 43t-42 102q0 30 7.5 57t27 55t40.5 50.5t60.5 54t73 56t92.5 65.5l-2 4h-12q-56 0 -76.5 40.5t2.5 125.5zM418 1260q-47 0 -80 33.5t-33 80.5t35 81t82 34q49 0 81 -33.5t32 -81.5q0 -47 -35.5 -80.5t-81.5 -33.5z" />
    <glyph glyph-name="Idotaccent" unicode="&#x130;" horiz-adv-x="638" 
d="M-47 0l8 45l156 45l233 1176l-137 51l6 43h502l-8 -45l-156 -45l-233 -1180l139 -47l-6 -43h-504zM385 1655q0 46 35 80t82 34q46 0 80 -34t34 -80q0 -47 -34 -81t-80 -34q-47 0 -82 34t-35 81z" />
    <glyph glyph-name="dotlessi" unicode="&#x131;" horiz-adv-x="526" 
d="M258 842q-25 20 -75.5 22t-100.5 -12l2 27q122 118 242 118q64 0 95 -51t5 -153l-180 -643h6q46 30 100 89.5t90 118.5l41 -14q-61 -131 -172 -249t-184 -118q-54 0 -73 40.5t3 125.5z" />
    <glyph glyph-name="IJ" unicode="&#x132;" horiz-adv-x="1267" 
d="M-47 0l8 45l156 45l233 1176l-137 51l6 43h502l-8 -45l-156 -45l-233 -1180l139 -47l-6 -43h-504zM1186 1270l-236 -1182q-23 -121 -59 -206.5t-98.5 -155t-158 -112.5t-231.5 -65l-10 39q70 28 123.5 66t89 80.5t62.5 101t43.5 114t31.5 132.5l234 1188l-168 47l6 43
h535l-11 -45z" />
    <glyph glyph-name="ij" unicode="&#x133;" horiz-adv-x="980" 
d="M258 842q-25 20 -75.5 22t-102.5 -12l4 27q122 118 240 118q66 0 96.5 -51t3.5 -153l-180 -643h8q46 30 99.5 90t88.5 118l43 -14q-61 -131 -172 -249t-184 -118q-54 0 -73 40.5t1 125.5zM303 1374q2 47 36 81t81 34t80 -34t32 -81q0 -47 -34.5 -80.5t-81.5 -33.5
t-80 33.5t-33 80.5zM508 -94l235 934q-28 21 -79 23.5t-99 -11.5v27q122 118 240 118q68 0 100.5 -53.5t3.5 -169.5l-196 -772q-32 -130 -98 -248.5t-165.5 -200t-205.5 -81.5q-49 0 -99.5 32.5t-50.5 85.5q0 46 24.5 78t57.5 49q39 -76 83.5 -116.5t84.5 -40.5
q50 0 82.5 76.5t81.5 269.5zM786 1374q0 47 35 81t82 34q46 0 80 -34t33 -81q0 -47 -35.5 -80.5t-81.5 -33.5q-47 0 -80 33.5t-33 80.5z" />
    <glyph glyph-name="Jcircumflex" unicode="&#x134;" horiz-adv-x="667" 
d="M586 1270l-236 -1182q-23 -121 -59 -206.5t-98.5 -155t-158 -112.5t-231.5 -65l-10 39q70 28 123.5 66t89 80.5t62.5 101t43.5 114t31.5 132.5l234 1188l-168 47l6 43h535l-11 -45zM287 1503h-84l315 287h131l191 -287h-80l-199 176z" />
    <glyph glyph-name="jcircumflex" unicode="&#x135;" horiz-adv-x="495" 
d="M23 -94l235 934q-28 21 -79 23.5t-99 -11.5v27q122 118 239 118q68 0 101 -54t4 -169l-197 -772q-32 -130 -98 -248.5t-165.5 -200t-205.5 -81.5q-49 0 -99 32.5t-50 85.5q0 46 24.5 78t57.5 49q39 -76 83.5 -116.5t84.5 -40.5q50 0 82.5 76.5t81.5 269.5zM186 1135h-63
l283 415h86l104 -415h-59l-119 268z" />
    <glyph glyph-name="Kcommaaccent" unicode="&#x136;" horiz-adv-x="1343" 
d="M-47 0l8 45l156 45l233 1176l-137 51l6 43h520l-8 -45l-174 -49l-231 -1176l153 -47l-8 -43h-518zM1247 43l-8 -43q-167 -16 -239 1q-94 21 -175 116q-79 92 -235 369q-35 62 -133 239v2l684 537l-162 49l6 47h414l-8 -47l-142 -49l-604 -473q80 -139 132 -228
t103.5 -172t81 -128t65 -87t55 -59.5t51 -35t53 -23.5t61.5 -15zM416 -530l-17 41q110 40 154.5 76t44.5 85q0 31 -27 55t-73 31v6q3 47 39.5 79t93.5 32q62 0 100.5 -39.5t38.5 -95.5q0 -94 -92.5 -159t-261.5 -111z" />
    <glyph glyph-name="kcommaaccent" unicode="&#x137;" horiz-adv-x="952" 
d="M770 -86q-67 0 -109 24t-108 101l-274 319q-52 -113 -70 -200l-33 -144l-162 -43l-26 27l354 1348l-115 90l6 16l336 78l-256 -971h11q255 438 471 438q66 0 104.5 -43t38.5 -112q0 -254 -479 -445l413 -440v-12q-36 -31 -102 -31zM705 858q-76 0 -203.5 -147
t-216.5 -338q219 85 354 197.5t135 205.5q0 82 -69 82zM121 -530l-17 41q110 40 154.5 76t44.5 85q0 31 -27 55t-73 31v6q3 47 39.5 79t93.5 32q62 0 100.5 -39.5t38.5 -95.5q0 -94 -92.5 -159t-261.5 -111z" />
    <glyph glyph-name="kgreenlandic" unicode="&#x138;" horiz-adv-x="983" 
d="M260 846q-23 17 -71.5 18.5t-100.5 -12.5l2 27q122 118 234 118q78 0 105 -60t-7 -163l-68 -199h13q239 422 456 422q66 0 105 -43t39 -112q0 -72 -38 -138.5t-107 -122t-151 -100t-184 -84.5l414 -440v-12q-11 -11 -38.5 -21t-63.5 -10q-67 0 -108.5 24t-106.5 101
l-275 317q-49 -105 -69 -198l-35 -144l-162 -43l-27 27zM735 858q-76 0 -203.5 -147t-216.5 -338q219 86 354.5 198t135.5 205q0 82 -70 82z" />
    <glyph glyph-name="Lacute" unicode="&#x139;" horiz-adv-x="1142" 
d="M645 1790h182v-23l-295 -264h-73zM328 106q39 -34 127 -34h301l252 385h61l-151 -457h-965l8 45l156 45l233 1176l-137 51l6 43h520l-8 -45l-174 -49z" />
    <glyph glyph-name="lacute" unicode="&#x13a;" horiz-adv-x="499" 
d="M633 1853h182v-22l-295 -264h-74zM451 344q-62 -139 -172 -253t-183 -114q-116 0 -71 166l313 1203l-135 90l6 16l354 78l-352 -1380h6q91 57 197 208z" />
    <glyph glyph-name="Lcommaaccent" unicode="&#x13b;" horiz-adv-x="1142" 
d="M268 -530l-16 41q110 40 154.5 76t44.5 85q0 31 -27 55t-74 31v6q3 47 39.5 79t93.5 32q63 0 101.5 -39.5t38.5 -95.5q0 -94 -92.5 -159t-262.5 -111zM328 106q39 -34 127 -34h301l252 385h61l-151 -457h-965l8 45l156 45l233 1176l-137 51l6 43h520l-8 -45l-174 -49z
" />
    <glyph glyph-name="lcommaaccent" unicode="&#x13c;" horiz-adv-x="499" 
d="M-135 -530l-17 41q110 40 154.5 76t44.5 85q0 31 -27 55t-73 31v6q3 47 39.5 79t93.5 32q62 0 100.5 -39.5t38.5 -95.5q0 -94 -92.5 -159t-261.5 -111zM451 344q-62 -139 -172 -253t-183 -114q-116 0 -71 166l313 1203l-135 90l6 16l354 78l-352 -1380h6q91 57 197 208z
" />
    <glyph glyph-name="Lcaron" unicode="&#x13d;" horiz-adv-x="1142" 
d="M942 1081h-41l113 406h176l-2 -12zM328 106q39 -34 127 -34h301l252 385h61l-151 -457h-965l8 45l156 45l233 1176l-137 51l6 43h520l-8 -45l-174 -49z" />
    <glyph glyph-name="lcaron" unicode="&#x13e;" horiz-adv-x="499" 
d="M606 1081h-41l113 406h176l-2 -12zM451 344q-62 -139 -172 -253t-183 -114q-116 0 -71 166l313 1203l-135 90l6 16l354 78l-352 -1380h6q91 57 197 208z" />
    <glyph glyph-name="Ldot" unicode="&#x13f;" horiz-adv-x="1142" 
d="M328 106q39 -34 127 -34h301l239 356h62l-139 -428h-965l8 45l156 45l233 1176l-137 51l6 43h520l-8 -45l-174 -49zM977 614q-51 0 -89 38.5t-38 90.5q0 51 38 89t89 38q54 0 92.5 -38t38.5 -89q0 -53 -38.5 -91t-92.5 -38z" />
    <glyph glyph-name="ldot" unicode="&#x140;" horiz-adv-x="630" 
d="M588 637q-46 0 -80.5 35t-34.5 82t34.5 81.5t80.5 34.5q49 0 84 -34.5t35 -81.5q0 -48 -35 -82.5t-84 -34.5zM449 344q-62 -139 -172 -253t-183 -114q-116 0 -71 166l313 1203l-135 90l6 16l354 78l-352 -1380h6q91 57 197 208z" />
    <glyph glyph-name="Lslash" unicode="&#x141;" horiz-adv-x="1142" 
d="M29 522l14 72l182 49l125 623l-137 51l6 43h520l-8 -45l-174 -49l-111 -564l474 127l-15 -69l-473 -129l-104 -525q39 -34 127 -34h301l252 385h61l-151 -457h-965l8 45l156 45l94 481z" />
    <glyph glyph-name="lslash" unicode="&#x142;" horiz-adv-x="499" 
d="M-4 594l16 76l168 80l156 596l-135 90l6 16l354 78l-174 -680l182 88l-16 -74l-184 -90l-160 -624h6q91 57 197 208l37 -14q-62 -139 -172 -253t-183 -114q-116 0 -71 166l137 531z" />
    <glyph glyph-name="Nacute" unicode="&#x143;" horiz-adv-x="1419" 
d="M1090 -20h-54l-637 1159l-190 -1047l160 -49l-7 -43h-409l8 45l156 45l225 1131q-46 54 -115 79l-37 17l9 43h319l559 -1014l168 922l-160 49l7 43h409l-10 -45l-154 -45l-196 -994zM1014 1790h182v-23l-295 -264h-74z" />
    <glyph glyph-name="nacute" unicode="&#x144;" horiz-adv-x="1048" 
d="M809 1550h158v-16l-283 -399h-53zM16 -2l244 848q-23 17 -71.5 18.5t-100.5 -12.5l2 27q122 118 234 118q78 0 103.5 -59.5t-5.5 -163.5l-62 -201h13q256 424 458 424q83 0 110.5 -50.5t-3.5 -170.5l-174 -626h6q90 56 197 208l37 -14q-69 -140 -177 -253.5t-180 -113.5
q-55 0 -74.5 40t2.5 126l181 623q13 41 3 62.5t-38 21.5q-63 0 -153 -95t-174 -246.5t-130 -307.5l-55 -185l-166 -45z" />
    <glyph glyph-name="Ncommaaccent" unicode="&#x145;" horiz-adv-x="1419" 
d="M1090 -20h-54l-637 1159l-190 -1047l160 -49l-7 -43h-409l8 45l156 45l225 1131q-46 54 -115 79l-37 17l9 43h319l559 -1014l168 922l-160 49l7 43h409l-10 -45l-154 -45l-196 -994zM401 -530l-16 41q110 40 154.5 76t44.5 85q0 31 -27 55t-74 31v6q3 47 39.5 79t93.5 32
q63 0 101.5 -39.5t38.5 -95.5q0 -94 -92.5 -159t-262.5 -111z" />
    <glyph glyph-name="ncommaaccent" unicode="&#x146;" horiz-adv-x="1048" 
d="M168 -530l-16 41q109 40 153.5 76t44.5 85q0 31 -27 55t-73 31v6q3 47 39.5 79t93.5 32q62 0 100.5 -39.5t38.5 -95.5q0 -94 -92.5 -159t-261.5 -111zM16 -2l244 848q-23 17 -71.5 18.5t-100.5 -12.5l2 27q122 118 234 118q78 0 103.5 -59.5t-5.5 -163.5l-62 -201h13
q256 424 458 424q83 0 110.5 -50.5t-3.5 -170.5l-174 -626h6q90 56 197 208l37 -14q-69 -140 -177 -253.5t-180 -113.5q-55 0 -74.5 40t2.5 126l181 623q13 41 3 62.5t-38 21.5q-63 0 -153 -95t-174 -246.5t-130 -307.5l-55 -185l-166 -45z" />
    <glyph glyph-name="Ncaron" unicode="&#x147;" horiz-adv-x="1419" 
d="M1090 -20h-54l-637 1159l-190 -1047l160 -49l-7 -43h-409l8 45l156 45l225 1131q-46 54 -115 79l-37 17l9 43h319l559 -1014l168 922l-160 49l7 43h409l-10 -45l-154 -45l-196 -994zM1174 1790h83l-317 -287h-129l-190 287h79l197 -180z" />
    <glyph glyph-name="ncaron" unicode="&#x148;" horiz-adv-x="1048" 
d="M16 -2l244 848q-23 17 -71.5 18.5t-100.5 -12.5l2 27q122 118 234 118q78 0 103.5 -59.5t-5.5 -163.5l-62 -201h13q256 424 458 424q83 0 110.5 -50.5t-3.5 -170.5l-174 -626h6q90 56 197 208l37 -14q-69 -140 -177 -253.5t-180 -113.5q-55 0 -74.5 40t2.5 126l181 623
q13 41 3 62.5t-38 21.5q-63 0 -153 -95t-174 -246.5t-130 -307.5l-55 -185l-166 -45zM924 1550h61l-283 -415h-86l-104 415h57l119 -274z" />
    <glyph glyph-name="napostrophe" unicode="&#x149;" horiz-adv-x="1048" 
d="M109 1110l-17 41q109 40 154 76.5t45 85.5q0 31 -27 55t-74 31v6q3 47 40 79t94 32q62 0 100.5 -40t38.5 -96q0 -94 -92.5 -159t-261.5 -111zM16 -2l244 848q-23 17 -71.5 18.5t-100.5 -12.5l2 27q122 118 234 118q78 0 103.5 -59.5t-5.5 -163.5l-62 -201h13
q256 424 458 424q83 0 110.5 -50.5t-3.5 -170.5l-174 -626h6q90 56 197 208l37 -14q-69 -140 -177 -253.5t-180 -113.5q-55 0 -74.5 40t2.5 126l181 623q13 41 3 62.5t-38 21.5q-63 0 -153 -95t-174 -246.5t-130 -307.5l-55 -185l-166 -45z" />
    <glyph glyph-name="Eng" unicode="&#x14a;" horiz-adv-x="1419" 
d="M1337 1270l-233 -1172q-25 -126 -60 -212.5t-96.5 -156.5t-155 -112.5t-229.5 -65.5l-10 39q110 38 185 86t121 110.5t70 125.5t44 154l4 22l-578 1051l-190 -1047l160 -49l-7 -43h-409l8 45l156 45l225 1131q-46 54 -115 79l-37 17l9 43h319l559 -1014l168 922l-160 49
l7 43h409l-10 -45z" />
    <glyph glyph-name="eng" unicode="&#x14b;" horiz-adv-x="1011" 
d="M535 -94l221 860q13 41 3 62.5t-38 21.5q-63 0 -153 -95t-174 -246.5t-130 -307.5l-55 -185l-166 -45l-27 27l244 848q-23 17 -71.5 18.5t-100.5 -12.5l2 27q122 118 234 118q78 0 103.5 -59.5t-5.5 -163.5l-62 -201h13q256 424 458 424q83 0 110.5 -50.5t-3.5 -170.5
l-197 -774q-24 -96 -69.5 -188.5t-105.5 -169.5t-138 -124.5t-158 -47.5q-50 0 -99.5 32.5t-49.5 85.5q0 46 25.5 79t56.5 48q38 -75 84 -116t84 -41q50 0 82.5 76.5t81.5 269.5z" />
    <glyph glyph-name="Omacron" unicode="&#x14c;" horiz-adv-x="1568" 
d="M657 1579l25 121h582l-25 -121h-582zM922 1393q109 0 209.5 -42.5t179.5 -119.5t126.5 -196.5t47.5 -262.5q0 -114 -34 -229.5t-103 -220.5t-164 -186.5t-226.5 -130t-279.5 -48.5q-104 0 -202 42t-177 118t-126.5 195t-47.5 261q0 117 34.5 234.5t103.5 222.5t163.5 186
t223 129t272.5 48zM1262 889q0 89 -21.5 167.5t-62.5 140.5t-106 98t-146 36q-104 0 -198 -53t-161.5 -140t-118 -197.5t-75.5 -228.5t-25 -229q0 -96 20 -178.5t60 -147.5t105 -102t149 -37q110 0 206 54.5t163 144t116 204t72 234t23 234.5z" />
    <glyph glyph-name="omacron" unicode="&#x14d;" horiz-adv-x="960" 
d="M391 1282l25 121h555l-25 -121h-555zM598 948q-64 0 -128.5 -67.5t-111.5 -169t-78.5 -216.5t-37.5 -212q-15 -258 102 -258q82 0 166.5 107t139 260.5t63.5 295.5q13 260 -115 260zM621 997q79 0 138.5 -32.5t93 -86.5t48.5 -118t12 -133q-5 -89 -32.5 -180t-78 -176
t-116.5 -151t-156.5 -105.5t-191.5 -39.5q-151 0 -225 111t-66 276q4 86 31 174.5t77 171t116.5 147t157.5 103.5t192 39z" />
    <glyph glyph-name="Obreve" unicode="&#x14e;" horiz-adv-x="1568" 
d="M963 1495q-114 0 -173 73t-61 204h43q33 -79 80 -116.5t129 -37.5q143 0 236 154h40q-24 -124 -100.5 -200.5t-193.5 -76.5zM922 1393q109 0 209.5 -42.5t179.5 -119.5t126.5 -196.5t47.5 -262.5q0 -114 -34 -229.5t-103 -220.5t-164 -186.5t-226.5 -130t-279.5 -48.5
q-104 0 -202 42t-177 118t-126.5 195t-47.5 261q0 117 34.5 234.5t103.5 222.5t163.5 186t223 129t272.5 48zM1262 889q0 89 -21.5 167.5t-62.5 140.5t-106 98t-146 36q-104 0 -198 -53t-161.5 -140t-118 -197.5t-75.5 -228.5t-25 -229q0 -96 20 -178.5t60 -147.5t105 -102
t149 -37q110 0 206 54.5t163 144t116 204t72 234t23 234.5z" />
    <glyph glyph-name="obreve" unicode="&#x14f;" horiz-adv-x="960" 
d="M598 948q-64 0 -128.5 -67.5t-111.5 -169t-78.5 -216.5t-37.5 -212q-15 -258 102 -258q82 0 166.5 107t139 260.5t63.5 295.5q13 260 -115 260zM621 997q79 0 138.5 -32.5t93 -86.5t48.5 -118t12 -133q-5 -89 -32.5 -180t-78 -176t-116.5 -151t-156.5 -105.5
t-191.5 -39.5q-151 0 -225 111t-66 276q4 86 31 174.5t77 171t116.5 147t157.5 103.5t192 39zM649 1161q-107 0 -159 87t-37 253h39q20 -207 174 -207q144 0 223 207h39q-23 -157 -92.5 -248.5t-186.5 -91.5z" />
    <glyph glyph-name="Ohungarumlaut" unicode="&#x150;" horiz-adv-x="1568" 
d="M1335 1790v-18l-237 -269h-76l152 287h161zM1012 1790v-18l-238 -269h-76l150 287h164zM922 1393q109 0 209.5 -42.5t179.5 -119.5t126.5 -196.5t47.5 -262.5q0 -114 -34 -229.5t-103 -220.5t-164 -186.5t-226.5 -130t-279.5 -48.5q-104 0 -202 42t-177 118t-126.5 195
t-47.5 261q0 117 34.5 234.5t103.5 222.5t163.5 186t223 129t272.5 48zM1262 889q0 89 -21.5 167.5t-62.5 140.5t-106 98t-146 36q-104 0 -198 -53t-161.5 -140t-118 -197.5t-75.5 -228.5t-25 -229q0 -96 20 -178.5t60 -147.5t105 -102t149 -37q110 0 206 54.5t163 144
t116 204t72 234t23 234.5z" />
    <glyph glyph-name="ohungarumlaut" unicode="&#x151;" horiz-adv-x="960" 
d="M608 1550h150v-18l-260 -397h-49zM905 1550h150v-18l-260 -397h-50zM598 948q-64 0 -128.5 -67.5t-111.5 -169t-78.5 -216.5t-37.5 -212q-15 -258 102 -258q82 0 166.5 107t139 260.5t63.5 295.5q13 260 -115 260zM621 997q79 0 138.5 -32.5t93 -86.5t48.5 -118t12 -133
q-5 -89 -32.5 -180t-78 -176t-116.5 -151t-156.5 -105.5t-191.5 -39.5q-151 0 -225 111t-66 276q4 86 31 174.5t77 171t116.5 147t157.5 103.5t192 39z" />
    <glyph glyph-name="OE" unicode="&#x152;" horiz-adv-x="2011" 
d="M1774 0h-617q-121 0 -475 -6q-244 -5 -400.5 152t-156.5 427q0 134 42 258t118 221t176 169.5t221.5 111.5t249.5 39q92 0 269.5 -6t375.5 -6h287l131 8l-51 -387h-52l-65 309h-438l-105 -538h262l107 180h47l-84 -436h-55l-23 184h-270l-113 -574q41 -32 127 -32h342
l223 332h54zM993 297l191 960q-38 25 -109 43.5t-143 18.5q-127 0 -238.5 -73.5t-185.5 -192.5t-117 -268t-43 -302q0 -67 9.5 -126.5t34 -119t63 -101.5t102 -68.5t145.5 -26.5q241 0 291 256z" />
    <glyph glyph-name="oe" unicode="&#x153;" horiz-adv-x="1417" 
d="M915 -25q-171 0 -225 168q-141 -168 -348 -168q-102 0 -171.5 55.5t-98 142t-23.5 192.5q6 86 33.5 174t77.5 170.5t116 146.5t157 102.5t192 38.5q106 0 165 -63t78 -166q87 106 193 168.5t215 62.5q80 0 124.5 -39t41.5 -108q-4 -88 -92.5 -167t-216.5 -129.5
t-271 -72.5q-11 -46 -14 -106q-5 -126 33 -195t116 -69q66 0 141.5 58.5t129.5 139.5l39 -18q-19 -38 -44.5 -77t-64 -83.5t-80.5 -78.5t-95.5 -56.5t-107.5 -22.5zM602 948q-64 0 -129 -68t-112 -169t-78.5 -216t-36.5 -212q-19 -258 100 -258q83 0 167.5 107t139.5 260.5
t64 295.5q13 260 -115 260zM1188 918q-80 0 -174.5 -112.5t-139.5 -268.5q84 15 167 58.5t142 112.5t62 142q3 68 -57 68z" />
    <glyph glyph-name="Racute" unicode="&#x154;" horiz-adv-x="1343" 
d="M-47 0l8 45l156 45l233 1176l-137 51l6 43h451q221 0 359 -82t138 -221q0 -78 -34.5 -142.5t-94.5 -107.5t-125.5 -71t-142.5 -46q59 -123 95 -196.5t75.5 -147.5t60.5 -111t49.5 -75t44.5 -52.5t44 -30t48.5 -21t57.5 -13.5l-8 -43q-162 -17 -228 -2q-82 18 -147 102
q-60 78 -179 324q-19 39 -62 128l-41 85h-148l-108 -547l180 -47l-6 -43h-545zM565 1309l-121 -609q239 -6 368.5 89t129.5 245q0 131 -94.5 206.5t-282.5 68.5zM895 1790h182v-23l-295 -264h-73z" />
    <glyph glyph-name="racute" unicode="&#x155;" horiz-adv-x="770" 
d="M713 1550h157v-16l-282 -399h-53zM16 -2l68 242q36 140 78 292t66 234l24 82q-11 7 -29 12t-58 5t-87 -11l4 27q120 116 240 116q69 0 95 -50t-3 -144l-119 -357h20q155 310 246.5 432.5t177.5 122.5q47 0 74 -25.5t27 -68.5q0 -62 -42 -118t-102 -95h-45
q30 52 28.5 89.5t-32.5 37.5q-40 0 -113 -99t-145.5 -242.5t-118.5 -276.5l-65 -187l-162 -45z" />
    <glyph glyph-name="Rcommaaccent" unicode="&#x156;" horiz-adv-x="1343" 
d="M-47 0l8 45l156 45l233 1176l-137 51l6 43h451q221 0 359 -82t138 -221q0 -78 -34.5 -142.5t-94.5 -107.5t-125.5 -71t-142.5 -46q59 -123 95 -196.5t75.5 -147.5t60.5 -111t49.5 -75t44.5 -52.5t44 -30t48.5 -21t57.5 -13.5l-8 -43q-162 -17 -228 -2q-82 18 -147 102
q-60 78 -179 324q-19 39 -62 128l-41 85h-148l-108 -547l180 -47l-6 -43h-545zM565 1309l-121 -609q239 -6 368.5 89t129.5 245q0 131 -94.5 206.5t-282.5 68.5zM418 -530l-17 41q110 40 154.5 76t44.5 85q0 31 -27 55t-73 31v6q3 47 39.5 79t93.5 32q62 0 100.5 -39.5
t38.5 -95.5q0 -94 -92.5 -159t-261.5 -111z" />
    <glyph glyph-name="rcommaaccent" unicode="&#x157;" horiz-adv-x="770" 
d="M-145 -530l-17 41q110 40 154.5 76t44.5 85q0 31 -27 55t-73 31v6q3 47 39.5 79t93.5 32q62 0 100.5 -39.5t38.5 -95.5q0 -94 -92.5 -159t-261.5 -111zM16 -2l68 242q36 140 78 292t66 234l24 82q-11 7 -29 12t-58 5t-87 -11l4 27q120 116 240 116q69 0 95 -50t-3 -144
l-119 -357h20q155 310 246.5 432.5t177.5 122.5q47 0 74 -25.5t27 -68.5q0 -62 -42 -118t-102 -95h-45q30 52 28.5 89.5t-32.5 37.5q-40 0 -113 -99t-145.5 -242.5t-118.5 -276.5l-65 -187l-162 -45z" />
    <glyph glyph-name="Rcaron" unicode="&#x158;" horiz-adv-x="1343" 
d="M-47 0l8 45l156 45l233 1176l-137 51l6 43h451q221 0 359 -82t138 -221q0 -78 -34.5 -142.5t-94.5 -107.5t-125.5 -71t-142.5 -46q59 -123 95 -196.5t75.5 -147.5t60.5 -111t49.5 -75t44.5 -52.5t44 -30t48.5 -21t57.5 -13.5l-8 -43q-162 -17 -228 -2q-82 18 -147 102
q-60 78 -179 324q-19 39 -62 128l-41 85h-148l-108 -547l180 -47l-6 -43h-545zM565 1309l-121 -609q239 -6 368.5 89t129.5 245q0 131 -94.5 206.5t-282.5 68.5zM1053 1790h84l-318 -287h-129l-190 287h80l196 -180z" />
    <glyph glyph-name="rcaron" unicode="&#x159;" horiz-adv-x="770" 
d="M16 -2l68 242q36 140 78 292t66 234l24 82q-11 7 -29 12t-58 5t-87 -11l4 27q120 116 240 116q69 0 95 -50t-3 -144l-119 -357h20q155 310 246.5 432.5t177.5 122.5q47 0 74 -25.5t27 -68.5q0 -62 -42 -118t-102 -95h-45q30 52 28.5 89.5t-32.5 37.5q-40 0 -113 -99
t-145.5 -242.5t-118.5 -276.5l-65 -187l-162 -45zM827 1550h62l-283 -415h-86l-104 415h57l119 -274z" />
    <glyph glyph-name="Sacute" unicode="&#x15a;" horiz-adv-x="1085" 
d="M113 465h49l45 -346q104 -86 235 -86q126 0 219 80t93 196q0 83 -44.5 143.5t-160.5 139.5l-88 57q-130 93 -176.5 163.5t-46.5 176.5q0 165 148.5 284.5t365.5 119.5q127 0 315 -72l-78 -367h-47l-37 303q-97 68 -207 68q-121 0 -197.5 -72t-76.5 -180q0 -77 36 -131
t134 -119l82 -53q63 -42 100 -69t75.5 -62t58 -67t32 -72.5t12.5 -89.5q0 -97 -46 -181.5t-121.5 -141.5t-172.5 -89.5t-198 -32.5q-182 0 -377 103zM870 1790h183v-23l-295 -264h-74z" />
    <glyph glyph-name="sacute" unicode="&#x15b;" horiz-adv-x="657" 
d="M643 1550h158v-16l-283 -399h-53zM557 287q0 -68 -52 -141.5t-140 -124t-179 -50.5q-99 0 -159 50.5t-58 111.5q0 66 51 125h5q90 -105 151 -150t129 -45q37 0 68.5 30t32.5 69q0 66 -70 160l-107 147q-67 92 -85 127.5t-17 83.5q3 81 67 157.5t149 120t157 43.5
q81 0 127 -38t43 -97q-2 -57 -47 -112h-2q-71 71 -128 108t-116 37q-41 0 -72 -27.5t-31 -66.5q0 -61 68 -152l107 -145q68 -94 88 -132t20 -89z" />
    <glyph glyph-name="Scircumflex" unicode="&#x15c;" horiz-adv-x="1085" 
d="M113 465h49l45 -346q104 -86 235 -86q126 0 219 80t93 196q0 83 -44.5 143.5t-160.5 139.5l-88 57q-130 93 -176.5 163.5t-46.5 176.5q0 165 148.5 284.5t365.5 119.5q127 0 315 -72l-78 -367h-47l-37 303q-97 68 -207 68q-121 0 -197.5 -72t-76.5 -180q0 -77 36 -131
t134 -119l82 -53q63 -42 100 -69t75.5 -62t58 -67t32 -72.5t12.5 -89.5q0 -97 -46 -181.5t-121.5 -141.5t-172.5 -89.5t-198 -32.5q-182 0 -377 103zM502 1503h-84l315 287h131l191 -287h-80l-199 176z" />
    <glyph glyph-name="scircumflex" unicode="&#x15d;" horiz-adv-x="657" 
d="M557 287q0 -68 -52 -141.5t-140 -124t-179 -50.5q-99 0 -159 50.5t-58 111.5q0 66 51 125h5q90 -105 151 -150t129 -45q37 0 68.5 30t32.5 69q0 66 -70 160l-107 147q-67 92 -85 127.5t-17 83.5q3 81 67 157.5t149 120t157 43.5q81 0 127 -38t43 -97q-2 -57 -47 -112h-2
q-71 71 -128 108t-116 37q-41 0 -72 -27.5t-31 -66.5q0 -61 68 -152l107 -145q68 -94 88 -132t20 -89zM319 1135h-63l283 415h86l104 -415h-59l-119 268z" />
    <glyph glyph-name="Scedilla" unicode="&#x15e;" horiz-adv-x="1085" 
d="M141 -518l-2 33q211 65 211 170q0 75 -84 104l123 176q-168 7 -350 103l74 397h49l45 -346q104 -86 235 -86q126 0 219 80t93 196q0 83 -44.5 143.5t-160.5 139.5l-88 57q-130 93 -176.5 163.5t-46.5 176.5q0 165 148.5 284.5t365.5 119.5q127 0 315 -72l-78 -367h-47
l-37 303q-97 68 -207 68q-121 0 -197.5 -72t-76.5 -180q0 -77 36 -131t134 -119l82 -53q63 -42 100 -69t75.5 -62t58 -67t32 -72.5t12.5 -89.5q0 -123 -73 -224t-187.5 -157t-244.5 -62l-58 -88q117 -45 117 -137q0 -195 -367 -260z" />
    <glyph glyph-name="scedilla" unicode="&#x15f;" horiz-adv-x="657" 
d="M-100 -518l-2 33q211 65 211 170q0 75 -84 104l129 184q-86 9 -136.5 57t-48.5 103q0 66 51 125h5q90 -105 151 -150t129 -45q37 0 68.5 30t32.5 69q0 66 -70 160l-107 147q-67 92 -85 127.5t-17 83.5q3 81 67 157.5t149 120t157 43.5q81 0 127 -38t43 -97
q-2 -57 -47 -112h-2q-71 71 -128 108t-116 37q-41 0 -72 -27.5t-31 -66.5q0 -61 68 -152l107 -145q68 -94 88 -132t20 -89q0 -101 -107.5 -202.5t-238.5 -111.5l-61 -94q116 -45 116 -137q0 -195 -366 -260z" />
    <glyph glyph-name="Scaron" unicode="&#x160;" horiz-adv-x="1085" 
d="M113 465h49l45 -346q104 -86 235 -86q126 0 219 80t93 196q0 85 -44.5 146.5t-160.5 136.5l-64 41q-148 95 -197.5 170t-49.5 186q0 165 148.5 284.5t365.5 119.5q127 0 315 -72l-78 -367h-47l-37 303q-97 68 -207 68q-121 0 -197.5 -72t-76.5 -180q0 -77 36 -131
t134 -119l82 -53q63 -42 100 -69t75.5 -62t58 -67t32 -72.5t12.5 -89.5q0 -97 -46 -181.5t-121.5 -141.5t-172.5 -89.5t-198 -32.5q-182 0 -377 103zM1028 1790h84l-317 -287h-129l-191 287h80l197 -180z" />
    <glyph glyph-name="scaron" unicode="&#x161;" horiz-adv-x="657" 
d="M557 287q0 -68 -52 -141.5t-140 -124t-179 -50.5q-99 0 -159 50.5t-58 111.5q0 66 51 125h5q90 -105 151 -150t129 -45q37 0 68.5 30t32.5 69q0 66 -70 160l-107 147q-67 92 -85 127.5t-17 83.5q3 81 67 157.5t149 120t157 43.5q81 0 127 -38t43 -97q-2 -57 -47 -112h-2
q-71 71 -128 108t-116 37q-41 0 -72 -27.5t-31 -66.5q0 -61 68 -152l107 -145q68 -94 88 -132t20 -89zM737 1550h62l-283 -415h-86l-104 415h57l119 -274z" />
    <glyph glyph-name="Tcommaaccent" unicode="&#x162;" horiz-adv-x="1337" 
d="M393 1360h867l137 14l-94 -377h-54l-22 295h-320l-239 -1202l143 -47l-8 -43h-506l8 45l156 45l239 1202h-303l-147 -295h-53l63 377zM283 -530l-17 41q110 40 154.5 76t44.5 85q0 31 -27 55t-73 31v6q3 47 39.5 79t93.5 32q62 0 100.5 -39.5t38.5 -95.5
q0 -94 -92.5 -159t-261.5 -111z" />
    <glyph glyph-name="tcommaaccent" unicode="&#x163;" horiz-adv-x="663" 
d="M-106 -530l-17 41q110 40 154.5 76t44.5 85q0 31 -27 55t-74 31v6q3 47 40 79t94 32q62 0 100.5 -39.5t38.5 -95.5q0 -94 -92.5 -159t-261.5 -111zM72 887l8 57l201 27l127 280h108l-61 -282h274l-16 -82h-275l-192 -737h6q60 17 149 105.5t146 168.5l41 -23
q-46 -76 -97 -144.5t-112 -135.5t-125.5 -106.5t-120.5 -39.5q-48 0 -72.5 36t-7.5 93l201 783h-182z" />
    <glyph glyph-name="Tcaron" unicode="&#x164;" horiz-adv-x="1337" 
d="M393 1360h867l137 14l-94 -377h-54l-22 295h-320l-239 -1202l143 -47l-8 -43h-506l8 45l156 45l239 1202h-303l-147 -295h-53l63 377zM1161 1790h84l-317 -287h-129l-191 287h80l197 -180z" />
    <glyph glyph-name="tcaron" unicode="&#x165;" horiz-adv-x="663" 
d="M664 1083h-41l112 406h176l-2 -12zM72 887l8 57l201 27l127 280h108l-61 -282h274l-16 -82h-275l-192 -737h6q60 17 149 105.5t146 168.5l41 -23q-46 -76 -97 -144.5t-112 -135.5t-125.5 -106.5t-120.5 -39.5q-48 0 -72.5 36t-7.5 93l201 783h-182z" />
    <glyph glyph-name="Tbar" unicode="&#x166;" horiz-adv-x="1337" 
d="M244 705l12 65h340l104 520h-303l-147 -293h-53l63 377l133 -14h867l137 14l-94 -377h-54l-22 293h-320l-104 -520h366l-14 -65h-364l-123 -615l143 -47l-8 -43h-506l8 45l156 45l123 615h-340z" />
    <glyph glyph-name="tbar" unicode="&#x167;" horiz-adv-x="663" 
d="M74 887l8 57l201 27l127 280h108l-61 -282h274l-16 -82h-275l-53 -201h289l-12 -78h-297l-119 -458h6q60 17 149 105.5t146 168.5l41 -23q-46 -76 -97 -144.5t-112 -135.5t-125.5 -106.5t-120.5 -39.5q-48 0 -72.5 36t-7.5 93l129 504h-135l12 78h144l51 201h-182z" />
    <glyph glyph-name="Utilde" unicode="&#x168;" horiz-adv-x="1466" 
d="M655 -49q-98 0 -177 22t-142.5 70t-98 123t-43.5 181.5t21 246.5l137 672l-139 51l6 43h522l-10 -45l-172 -49l-145 -725q-42 -219 40 -342t263 -123q82 0 149.5 24.5t128 79.5t104.5 153.5t68 237.5l123 689l-160 53l7 47h417l-6 -47l-155 -49l-146 -740
q-55 -273 -200.5 -423t-391.5 -150zM684 1536l-33 14l13 31q29 71 63.5 113t77 55t87 7.5t101.5 -27.5l60 -23q50 -19 75.5 -25t55.5 -1.5t53 29t49 73.5l31 -17l-14 -34q-42 -101 -87.5 -145.5t-105 -44.5t-139.5 32l-58 22q-95 41 -140 32t-89 -91z" />
    <glyph glyph-name="utilde" unicode="&#x169;" horiz-adv-x="1034" 
d="M66 211l174 635q-23 17 -71 18.5t-99 -12.5l2 27q122 118 237 118q148 0 92 -217l-153 -587q-8 -31 1 -45.5t27 -14.5q65 0 165 112.5t183.5 264.5t112.5 268l47 185l166 22l17 -18l-211 -817h6q84 55 192 208l37 -14q-69 -140 -177.5 -253.5t-178.5 -113.5q-55 0 -74 39
t4 127l94 332h-6q-12 -20 -45.5 -74.5t-52 -84.5t-53.5 -81.5t-60.5 -82t-63 -69t-70.5 -59.5t-73 -36t-79 -15q-44 0 -71 22.5t-36 75.5t17 140zM356 1194l-30 16l10 27q103 269 334 149l55 -28q40 -21 66 -28.5t55.5 -2.5t56 33t55.5 80l33 -15l-16 -39q-34 -80 -71 -125
t-79.5 -58t-85 -5t-98.5 35l-55 27q-94 44 -138.5 31.5t-91.5 -97.5z" />
    <glyph glyph-name="Umacron" unicode="&#x16a;" horiz-adv-x="1466" 
d="M655 -49q-98 0 -177 22t-142.5 70t-98 123t-43.5 181.5t21 246.5l137 672l-139 51l6 43h522l-10 -45l-172 -49l-145 -725q-42 -219 40 -342t263 -123q82 0 149.5 24.5t128 79.5t104.5 153.5t68 237.5l123 689l-160 53l7 47h417l-6 -47l-155 -49l-146 -740
q-55 -273 -200.5 -423t-391.5 -150zM674 1579l24 121h582l-25 -121h-581z" />
    <glyph glyph-name="umacron" unicode="&#x16b;" horiz-adv-x="1034" 
d="M387 1284l25 121h526l-25 -121h-526zM66 211l174 635q-23 17 -71 18.5t-99 -12.5l2 27q122 118 237 118q148 0 92 -217l-153 -587q-8 -31 1 -45.5t27 -14.5q65 0 165 112.5t183.5 264.5t112.5 268l47 185l166 22l17 -18l-211 -817h6q84 55 192 208l37 -14
q-69 -140 -177.5 -253.5t-178.5 -113.5q-55 0 -74 39t4 127l94 332h-6q-12 -20 -45.5 -74.5t-52 -84.5t-53.5 -81.5t-60.5 -82t-63 -69t-70.5 -59.5t-73 -36t-79 -15q-44 0 -71 22.5t-36 75.5t17 140z" />
    <glyph glyph-name="Ubreve" unicode="&#x16c;" horiz-adv-x="1466" 
d="M655 -49q-98 0 -177 22t-142.5 70t-98 123t-43.5 181.5t21 246.5l137 672l-139 51l6 43h522l-10 -45l-172 -49l-145 -725q-42 -219 40 -342t263 -123q82 0 149.5 24.5t128 79.5t104.5 153.5t68 237.5l123 689l-160 53l7 47h417l-6 -47l-155 -49l-146 -740
q-55 -273 -200.5 -423t-391.5 -150zM950 1495q-114 0 -172.5 73t-60.5 204h43q33 -79 80 -116.5t129 -37.5q142 0 235 154h41q-24 -124 -101 -200.5t-194 -76.5z" />
    <glyph glyph-name="ubreve" unicode="&#x16d;" horiz-adv-x="1034" 
d="M66 211l174 635q-23 17 -71 18.5t-99 -12.5l2 27q122 118 237 118q148 0 92 -217l-153 -587q-8 -31 1 -45.5t27 -14.5q65 0 165 112.5t183.5 264.5t112.5 268l47 185l166 22l17 -18l-211 -817h6q84 55 192 208l37 -14q-69 -140 -177.5 -253.5t-178.5 -113.5q-55 0 -74 39
t4 127l94 332h-6q-12 -20 -45.5 -74.5t-52 -84.5t-53.5 -81.5t-60.5 -82t-63 -69t-70.5 -59.5t-73 -36t-79 -15q-44 0 -71 22.5t-36 75.5t17 140zM645 1161q-107 0 -159 87t-37 253h38q20 -207 175 -207q144 0 223 207h39q-23 -157 -92.5 -248.5t-186.5 -91.5z" />
    <glyph glyph-name="Uring" unicode="&#x16e;" horiz-adv-x="1466" 
d="M655 -49q-98 0 -177 22t-142.5 70t-98 123t-43.5 181.5t21 246.5l137 672l-139 51l6 43h522l-10 -45l-172 -49l-145 -725q-42 -219 40 -342t263 -123q82 0 149.5 24.5t128 79.5t104.5 153.5t68 237.5l123 689l-160 53l7 47h417l-6 -47l-155 -49l-146 -740
q-55 -273 -200.5 -423t-391.5 -150zM762 1663q0 85 59.5 143t145.5 58q88 0 146 -57.5t58 -143.5q0 -85 -59 -143t-145 -58q-88 0 -146.5 57.5t-58.5 143.5zM836 1663q0 -59 38 -97t93 -38t93 38t38 97t-38 97t-93 38t-93 -38t-38 -97z" />
    <glyph glyph-name="uring" unicode="&#x16f;" horiz-adv-x="1034" 
d="M449 1380q0 85 59 142t145 57q88 0 146.5 -56.5t58.5 -142.5q0 -85 -59.5 -142.5t-145.5 -57.5q-88 0 -146 56.5t-58 143.5zM522 1380q0 -59 38 -98t93 -39q56 0 94.5 39t38.5 98t-39 97.5t-94 38.5t-93 -38.5t-38 -97.5zM66 211l174 635q-23 17 -71 18.5t-99 -12.5l2 27
q122 118 237 118q148 0 92 -217l-153 -587q-8 -31 1 -45.5t27 -14.5q65 0 165 112.5t183.5 264.5t112.5 268l47 185l166 22l17 -18l-211 -817h6q84 55 192 208l37 -14q-69 -140 -177.5 -253.5t-178.5 -113.5q-55 0 -74 39t4 127l94 332h-6q-12 -20 -45.5 -74.5t-52 -84.5
t-53.5 -81.5t-60.5 -82t-63 -69t-70.5 -59.5t-73 -36t-79 -15q-44 0 -71 22.5t-36 75.5t17 140z" />
    <glyph glyph-name="Uhungarumlaut" unicode="&#x170;" horiz-adv-x="1466" 
d="M1354 1790v-18l-238 -269h-76l152 287h162zM1030 1790v-18l-237 -269h-76l149 287h164zM655 -49q-98 0 -177 22t-142.5 70t-98 123t-43.5 181.5t21 246.5l137 672l-139 51l6 43h522l-10 -45l-172 -49l-145 -725q-42 -219 40 -342t263 -123q82 0 149.5 24.5t128 79.5
t104.5 153.5t68 237.5l123 689l-160 53l7 47h417l-6 -47l-155 -49l-146 -740q-55 -273 -200.5 -423t-391.5 -150z" />
    <glyph glyph-name="uhungarumlaut" unicode="&#x171;" horiz-adv-x="1034" 
d="M66 211l174 635q-23 17 -71 18.5t-99 -12.5l2 27q122 118 237 118q148 0 92 -217l-153 -587q-8 -31 1 -45.5t27 -14.5q65 0 165 112.5t183.5 264.5t112.5 268l47 185l166 22l17 -18l-211 -817h6q84 55 192 208l37 -14q-69 -140 -177.5 -253.5t-178.5 -113.5q-55 0 -74 39
t4 127l94 332h-6q-12 -20 -45.5 -74.5t-52 -84.5t-53.5 -81.5t-60.5 -82t-63 -69t-70.5 -59.5t-73 -36t-79 -15q-44 0 -71 22.5t-36 75.5t17 140zM606 1550h150v-18l-260 -397h-50zM903 1550h150v-18l-260 -397h-50z" />
    <glyph glyph-name="Uogonek" unicode="&#x172;" horiz-adv-x="1466" 
d="M342 -365q0 82 60.5 148.5t215.5 169.5q-92 4 -165.5 28.5t-131.5 73t-89 123t-38 178.5t21 238l137 672l-139 51l6 43h522l-10 -45l-172 -49l-145 -725q-42 -219 40 -342t263 -123q82 0 149.5 24.5t128 79.5t104.5 153.5t68 237.5l123 689l-160 53l7 47h417l-6 -47
l-155 -49l-146 -740q-112 -551 -557 -571q-114 -106 -153 -155.5t-39 -96.5q0 -33 22.5 -55.5t65.5 -22.5q39 0 75 20t95 76l26 -24q-139 -205 -276 -205q-80 0 -122 43t-42 102z" />
    <glyph glyph-name="uogonek" unicode="&#x173;" horiz-adv-x="1034" 
d="M647 -23h-12q-55 0 -74 39t4 127l94 332h-6q-12 -20 -45.5 -74.5t-52 -84.5t-53.5 -81.5t-60.5 -82t-63 -69t-70.5 -59.5t-73 -36t-79 -15q-44 0 -71 22.5t-36 75.5t17 140l174 635q-23 17 -71 18.5t-99 -12.5l2 27q122 118 237 118q148 0 92 -217l-153 -587
q-8 -31 1 -45.5t27 -14.5q65 0 165 112.5t183.5 264.5t112.5 268l47 185l166 22l17 -18l-211 -817h6q84 55 192 208l37 -14q-71 -144 -180 -260q-212 -223 -242 -259q-57 -67 -62 -110q-1 -9 -1 -18q0 -31 21.5 -52.5t64.5 -21.5q39 0 75 20t95 76l26 -24
q-139 -205 -276 -205q-80 0 -122 43t-42 102q0 30 7.5 57t27 55t40.5 50.5t60.5 54t73 56t92.5 65.5z" />
    <glyph glyph-name="Wcircumflex" unicode="&#x174;" horiz-adv-x="1882" 
d="M1147 -14l-125 946l-508 -946h-92l-131 1282l-111 49l8 43h494l-8 -45l-178 -51l90 -1004l418 815l-25 191l-100 51l6 43h487l-8 -45l-180 -51l123 -1004l469 1006l-174 51l6 43h387l-8 -45l-107 -39l-639 -1290h-94zM891 1503h-84l315 287h131l191 -287h-80l-199 176z
" />
    <glyph glyph-name="wcircumflex" unicode="&#x175;" horiz-adv-x="1331" 
d="M829 813l2 -647h7q350 414 350 584q0 57 -34.5 86.5t-92.5 29.5q-43 0 -84 -14l2 29q118 118 213 118q66 0 103.5 -46t37.5 -122q0 -46 -22 -104t-50 -107t-84.5 -124t-93.5 -119.5t-108 -128.5l-33 -39l-199 -238h-18l-66 31l3 453h-7q-95 -122 -266 -359l-90 -125h-18
l-74 31l-8 836q-37 26 -90 26q-45 0 -82 -12l2 27q117 120 225 120q64 0 92.5 -44.5t30.5 -139.5l4 -637h6q147 190 268 373l-2 287q-33 26 -88 26q-41 0 -84 -12l4 27q117 120 224 120q59 0 89.5 -43.5t30.5 -142.5zM580 1135h-64l283 415h86l104 -415h-59l-119 268z" />
    <glyph glyph-name="Ycircumflex" unicode="&#x176;" horiz-adv-x="1312" 
d="M1292 1274l-522 -731l-90 -455l129 -47l-8 -41h-479l10 43l141 45l86 432l-250 746l-116 51l8 43h506l-11 -45l-168 -49l209 -658l449 652l-180 57l8 43h399l-8 -45zM641 1503h-84l315 287h132l190 -287h-80l-199 176z" />
    <glyph glyph-name="ycircumflex" unicode="&#x177;" horiz-adv-x="944" 
d="M74 596h-37q9 176 76.5 287.5t175.5 111.5q97 0 155 -117t62 -346q3 -142 -20 -296.5t-66 -270.5h14q60 76 97.5 126t91.5 135t85 154t53.5 157t20.5 170q-2 67 -28 137t-68 119q56 36 117 36q104 0 106 -149q3 -138 -55.5 -301t-155 -311.5t-218 -289.5t-242 -244
t-229.5 -165.5t-179 -62.5q-57 0 -95 33t-38 92q-2 52 31 86t86 34q49 0 78.5 -34.5t54.5 -108.5h8q81 34 147 109t107 167t69 201t39 207.5t11 190.5q0 195 -33 290t-84 95q-83 0 -137 -242zM391 1135h-63l282 415h86l105 -415h-60l-118 268z" />
    <glyph glyph-name="Ydieresis" unicode="&#x178;" horiz-adv-x="1312" 
d="M1292 1274l-522 -731l-90 -455l129 -47l-8 -41h-479l10 43l141 45l86 432l-250 746l-116 51l8 43h506l-11 -45l-168 -49l209 -658l449 652l-180 57l8 43h399l-8 -45zM666 1544q-44 0 -76.5 32.5t-32.5 76.5t32.5 77t76.5 33t77 -33t33 -77t-33 -76.5t-77 -32.5z
M1102 1544q-45 0 -77 32t-32 77t32 77.5t77 32.5q44 0 76 -33t32 -77t-32 -76.5t-76 -32.5z" />
    <glyph glyph-name="Zacute" unicode="&#x179;" horiz-adv-x="1259" 
d="M-18 0l12 45l995 1245h-577l-172 -346h-54l66 426l156 -10h870l-2 -17l-1016 -1269h623l231 344h53l-133 -428l-155 10h-897zM905 1790h182v-23l-294 -264h-74z" />
    <glyph glyph-name="zacute" unicode="&#x17a;" horiz-adv-x="892" 
d="M858 1001l70 -59l-672 -688l252 -94q31 -12 57.5 -15.5t47.5 -3t44 13t38.5 23t39.5 37t39 45.5l45 57l39 -18q-90 -169 -169.5 -251.5t-160.5 -82.5q-48 0 -139 37l-270 111l-115 -152l-70 57l695 717l-240 86q-80 29 -120.5 33t-57.5 -20q-14 -27 11 -67.5t89 -84.5
q-33 -49 -63.5 -72.5t-69.5 -23.5q-36 0 -62 26.5t-26 73.5q1 60 51 134t126 127.5t143 53.5q43 0 75 -8t84 -32l195 -82zM750 1550h157v-16l-282 -399h-54z" />
    <glyph glyph-name="Zdotaccent" unicode="&#x17b;" horiz-adv-x="1259" 
d="M-18 0l12 45l995 1245h-577l-172 -346h-54l66 426l156 -10h870l-2 -17l-1016 -1269h623l231 344h53l-133 -428l-155 10h-897zM680 1655q0 46 35 80t82 34q46 0 80 -34t34 -80q0 -47 -34 -81t-80 -34q-47 0 -82 34t-35 81z" />
    <glyph glyph-name="zdotaccent" unicode="&#x17c;" horiz-adv-x="892" 
d="M858 1001l70 -59l-672 -688l252 -94q31 -12 57.5 -15.5t47.5 -3t44 13t38.5 23t39.5 37t39 45.5l45 57l39 -18q-90 -169 -169.5 -251.5t-160.5 -82.5q-48 0 -139 37l-270 111l-115 -152l-70 57l695 717l-240 86q-80 29 -120.5 33t-57.5 -20q-14 -27 11 -67.5t89 -84.5
q-33 -49 -63.5 -72.5t-69.5 -23.5q-36 0 -62 26.5t-26 73.5q1 60 51 134t126 127.5t143 53.5q43 0 75 -8t84 -32l195 -82zM541 1374q0 47 33.5 81t80.5 34q46 0 80.5 -34t34.5 -81t-34.5 -80.5t-80.5 -33.5q-47 0 -80.5 33.5t-33.5 80.5z" />
    <glyph glyph-name="Zcaron" unicode="&#x17d;" horiz-adv-x="1259" 
d="M-18 0l12 45l995 1245h-577l-172 -346h-54l66 426l156 -10h870l-2 -17l-1016 -1269h623l231 344h53l-133 -428l-155 10h-897zM1069 1790h84l-317 -287h-129l-191 287h80l197 -180z" />
    <glyph glyph-name="zcaron" unicode="&#x17e;" horiz-adv-x="892" 
d="M858 1001l70 -59l-672 -688l252 -94q31 -12 57.5 -15.5t47.5 -3t44 13t38.5 23t39.5 37t39 45.5l45 57l39 -18q-90 -169 -169.5 -251.5t-160.5 -82.5q-48 0 -139 37l-270 111l-115 -152l-70 57l695 717l-240 86q-80 29 -120.5 33t-57.5 -20q-14 -27 11 -67.5t89 -84.5
q-33 -49 -63.5 -72.5t-69.5 -23.5q-36 0 -62 26.5t-26 73.5q1 60 51 134t126 127.5t143 53.5q42 0 73 -8.5t86 -31.5l195 -82zM856 1550h62l-283 -415h-86l-105 415h58l119 -274z" />
    <glyph glyph-name="florin" unicode="&#x192;" horiz-adv-x="950" 
d="M139 573l13 70h186q67 250 228.5 420t330.5 170q70 0 101.5 -30.5t31.5 -78.5q0 -40 -24 -76.5t-54 -60.5q-6 7 -24.5 30.5t-26 32t-24 27t-27 26t-25 18t-28.5 14.5t-29 4q-23 0 -42.5 -10t-44.5 -41.5t-48 -84.5t-50 -144.5t-53 -215.5h273l-15 -70h-272l-119 -577
q-29 -136 -98.5 -255.5t-168.5 -194t-202 -74.5q-50 0 -98.5 33t-48.5 85q0 46 24 78t56 49q39 -75 84.5 -116t87.5 -41q91 0 153 321l136 692h-183z" />
    <glyph glyph-name="Aringacute" unicode="&#x1fa;" horiz-adv-x="1409" 
d="M-80 0l8 45l135 39l725 1280l66 14l78 15l190 -1301l131 -49l-6 -43h-512l6 45l177 45l-54 379h-481l-201 -375l193 -51l-6 -43h-449zM698 1659q0 85 59.5 143t145.5 58q88 0 146.5 -57.5t58.5 -143.5q0 -85 -59.5 -143t-145.5 -58q-88 0 -146.5 57.5t-58.5 143.5z
M764 1174l-326 -605h412l-84 605h-2zM772 1659q0 -59 38 -97t93 -38t93 38t38 97t-38 97t-93 38t-93 -38t-38 -97zM1102 2214h182v-23l-295 -264h-74z" />
    <glyph glyph-name="aringacute" unicode="&#x1fb;" horiz-adv-x="1040" 
d="M879 1047h112l-250 -900h7q48 29 100 87.5t94 123.5l41 -14q-63 -139 -173.5 -254t-182.5 -115q-34 0 -54.5 15.5t-26 41t-2.5 53.5t13 58l94 285h-14q-37 -59 -62 -96.5t-68 -98.5t-79.5 -101t-80.5 -80.5t-88 -60.5t-85 -20q-78 0 -122 51t-38 152q5 123 53 247.5
t122 222.5t160.5 175.5t173.5 119.5t155 42q91 0 147 -35zM279 123q57 0 152 107.5t175.5 242.5t110.5 227l43 136q-55 75 -129 75q-84 0 -178 -106.5t-159 -268t-73 -311.5q-3 -102 58 -102zM559 1284q0 85 59.5 142t145.5 57q88 0 146.5 -56.5t58.5 -142.5
q0 -85 -59.5 -143t-145.5 -58q-88 0 -146.5 57t-58.5 144zM633 1284q0 -59 38 -98t93 -39q56 0 94.5 39t38.5 98t-39 97t-94 38t-93 -38t-38 -97zM975 1839h182v-22l-295 -265h-74z" />
    <glyph glyph-name="AEacute" unicode="&#x1fc;" horiz-adv-x="1890" 
d="M1417 678h-270l-111 -572q41 -32 125 -32h342l223 332h54l-127 -406h-981l10 45l141 45l115 586h-348l-420 -582l201 -51l-9 -43h-444l8 43l115 39l895 1186l-156 49l6 43h957l131 8l-51 -387h-51l-66 309h-438l-107 -540h275l96 178h49l-86 -432h-55zM1061 1288h-19
l-397 -536h309zM1442 1790h182v-23l-295 -264h-74z" />
    <glyph glyph-name="aeacute" unicode="&#x1fd;" horiz-adv-x="1263" 
d="M733 -25q-87 0 -144 48.5t-79 134.5h-4q-46 -50 -74 -77t-66.5 -55t-78.5 -39.5t-88 -11.5q-35 0 -68 10.5t-64 32.5t-49.5 64t-17.5 98q3 92 71.5 147t192.5 91l277 80l39 149q0 262 -156 262q-67 0 -115 -45l-26 -200q-1 0 -13 -4t-28.5 -7.5t-28.5 -3.5
q-40 0 -64.5 16.5t-23.5 59.5q1 53 60.5 115t152.5 107t182 52q215 0 211 -223h4q78 99 187 161t211 62q72 0 114 -39.5t41 -105.5q-5 -227 -583 -387q-8 -39 -11 -92q-6 -122 34 -189t110 -67q77 0 149.5 57t128.5 135l37 -18q-23 -49 -63 -102t-94 -102.5t-124 -81.5
t-139 -32zM518 412l8 32l-149 -49q-94 -31 -136.5 -75.5t-45.5 -104.5q-3 -55 23.5 -92t76.5 -37q90 0 205 137q-7 96 18 189zM1038 915q-81 0 -179 -115.5t-142 -277.5q181 61 281.5 139t103.5 183q3 71 -64 71zM971 1550h157v-16l-282 -399h-53z" />
    <glyph glyph-name="Oslashacute" unicode="&#x1fe;" horiz-adv-x="1568" 
d="M233 -74h-86l150 193q-172 179 -172 454q0 117 34.5 234.5t103.5 222.5t163.5 186t223 129t272.5 48q158 0 297 -88l106 137h86l-137 -178q98 -81 154.5 -207t56.5 -285q0 -114 -34 -229.5t-103 -220.5t-164 -186.5t-226.5 -130t-279.5 -48.5q-182 0 -330 117zM1264 891
q0 156 -66 276l-778 -999q90 -150 262 -150q92 0 175 38.5t145.5 104.5t113 152t82.5 184t49 198.5t17 195.5zM348 483q0 -142 41 -247l768 989q-88 106 -231 106q-104 0 -198 -53t-161.5 -140t-118 -197.5t-75.5 -228.5t-25 -229zM1065 1790h182v-23l-295 -264h-73z" />
    <glyph glyph-name="oslashacute" unicode="&#x1ff;" horiz-adv-x="960" 
d="M59 -102h-69l137 182q-88 111 -78 285q8 110 51 220t114 203t179 151t232 58q85 0 155 -47l99 131h71l-127 -170q49 -52 73.5 -128.5t21.5 -157.5q-6 -89 -34 -180t-78.5 -175.5t-116.5 -150t-156.5 -105t-190.5 -39.5q-102 0 -176 64zM721 692q3 43 0 86l-477 -635
q20 -118 102 -118q84 0 170 107.5t141.5 262t63.5 297.5zM242 279q-2 -16 -2 -50l469 627q-27 92 -107 92q-65 0 -130.5 -68.5t-113 -170.5t-79.5 -218t-37 -212zM782 1550h158v-16l-283 -399h-53z" />
    <glyph glyph-name="Scommaaccent" unicode="&#x218;" horiz-adv-x="1085" 
d="M113 465h49l45 -346q104 -86 235 -86q126 0 219 80t93 196q0 83 -44.5 143.5t-160.5 139.5l-88 57q-130 93 -176.5 163.5t-46.5 176.5q0 165 148.5 284.5t365.5 119.5q127 0 315 -72l-78 -367h-47l-37 303q-97 68 -207 68q-121 0 -197.5 -72t-76.5 -180q0 -77 36 -131
t134 -119l82 -53q63 -42 100 -69t75.5 -62t58 -67t32 -72.5t12.5 -89.5q0 -97 -46 -181.5t-121.5 -141.5t-172.5 -89.5t-198 -32.5q-182 0 -377 103zM193 -530l-17 41q110 40 154.5 76t44.5 85q0 31 -27 55t-74 31v6q3 47 40 79t94 32q62 0 100.5 -39.5t38.5 -95.5
q0 -94 -92.5 -159t-261.5 -111z" />
    <glyph glyph-name="scommaaccent" unicode="&#x219;" horiz-adv-x="657" 
d="M-72 -530l-16 41q110 40 154.5 76t44.5 85q0 31 -27 55t-74 31v6q3 47 39.5 79t93.5 32q63 0 101.5 -39.5t38.5 -95.5q0 -94 -92.5 -159t-262.5 -111zM557 287q0 -68 -52 -141.5t-140 -124t-179 -50.5q-99 0 -159 50.5t-58 111.5q0 66 51 125h5q90 -105 151 -150t129 -45
q37 0 68.5 30t32.5 69q0 66 -70 160l-107 147q-67 92 -85 127.5t-17 83.5q3 81 67 157.5t149 120t157 43.5q81 0 127 -38t43 -97q-2 -57 -47 -112h-2q-71 71 -128 108t-116 37q-41 0 -72 -27.5t-31 -66.5q0 -61 68 -152l107 -145q68 -94 88 -132t20 -89z" />
    <glyph glyph-name="uni021A" unicode="&#x21a;" horiz-adv-x="1337" 
d="M393 1360h867l137 14l-94 -377h-54l-22 295h-320l-239 -1202l143 -47l-8 -43h-506l8 45l156 45l239 1202h-303l-147 -295h-53l63 377zM283 -530l-17 41q110 40 154.5 76t44.5 85q0 31 -27 55t-73 31v6q3 47 39.5 79t93.5 32q62 0 100.5 -39.5t38.5 -95.5
q0 -94 -92.5 -159t-261.5 -111z" />
    <glyph glyph-name="uni021B" unicode="&#x21b;" horiz-adv-x="663" 
d="M-106 -530l-17 41q110 40 154.5 76t44.5 85q0 31 -27 55t-74 31v6q3 47 40 79t94 32q62 0 100.5 -39.5t38.5 -95.5q0 -94 -92.5 -159t-261.5 -111zM72 887l8 57l201 27l127 280h108l-61 -282h274l-16 -82h-275l-192 -737h6q60 17 149 105.5t146 168.5l41 -23
q-46 -76 -97 -144.5t-112 -135.5t-125.5 -106.5t-120.5 -39.5q-48 0 -72.5 36t-7.5 93l201 783h-182z" />
    <glyph glyph-name="uni0237" unicode="&#x237;" horiz-adv-x="495" 
d="M23 -94l235 934q-28 21 -79 23.5t-99 -11.5v27q122 118 239 118q68 0 101 -54t4 -169l-197 -772q-32 -130 -98 -248.5t-165.5 -200t-205.5 -81.5q-49 0 -99 32.5t-50 85.5q0 46 24.5 78t57.5 49q39 -76 83.5 -116.5t84.5 -40.5q50 0 82.5 76.5t81.5 269.5z" />
    <glyph glyph-name="circumflex" unicode="&#x2c6;" 
d="M246 1135h-64l283 415h86l104 -415h-59l-119 268z" />
    <glyph glyph-name="caron" unicode="&#x2c7;" 
d="M604 1550h62l-283 -415h-86l-104 415h57l119 -274z" />
    <glyph glyph-name="breve" unicode="&#x2d8;" 
d="M385 1161q-107 0 -159.5 87t-37.5 253h39q20 -207 174 -207q145 0 224 207h39q-23 -157 -92.5 -248.5t-186.5 -91.5z" />
    <glyph glyph-name="dotaccent" unicode="&#x2d9;" 
d="M319 1374q0 47 34 81t81 34q46 0 80.5 -34t34.5 -81t-34.5 -80.5t-80.5 -33.5q-47 0 -81 33.5t-34 80.5z" />
    <glyph glyph-name="ring" unicode="&#x2da;" horiz-adv-x="536" 
d="M217 1380q0 85 59.5 142t145.5 57q88 0 146.5 -56.5t58.5 -142.5q0 -85 -59.5 -142.5t-145.5 -57.5q-88 0 -146.5 56.5t-58.5 143.5zM291 1380q0 -59 38 -98t93 -39q56 0 94.5 39t38.5 98t-39 97.5t-94 38.5t-93 -38.5t-38 -97.5z" />
    <glyph glyph-name="ogonek" unicode="&#x2db;" horiz-adv-x="841" 
d="M575 6h50q-158 -142 -206 -197.5t-48 -107.5q0 -33 22.5 -55.5t65.5 -22.5q39 0 75 20t95 76l26 -24q-139 -205 -276 -205q-80 0 -122 43t-42 102q0 39 14.5 73.5t38 64.5t73.5 69.5t98.5 73t135.5 90.5z" />
    <glyph glyph-name="tilde" unicode="&#x2dc;" 
d="M123 1194l-31 16l10 27q103 269 334 149l56 -28q40 -21 66 -28.5t55.5 -2.5t56 33t55.5 80l33 -15l-17 -39q-34 -80 -70.5 -125t-79 -58t-85 -5t-98.5 35l-56 27q-94 44 -138 31.5t-91 -97.5z" />
    <glyph glyph-name="hungarumlaut" unicode="&#x2dd;" 
d="M291 1550h149v-18l-260 -397h-49zM588 1550h149v-18l-260 -397h-49z" />
    <glyph glyph-name="Wgrave" unicode="&#x1e80;" horiz-adv-x="1882" 
d="M1147 -14l-125 946l-508 -946h-92l-131 1282l-111 49l8 43h494l-8 -45l-178 -51l90 -1004l418 815l-25 191l-100 51l6 43h487l-8 -45l-180 -51l123 -1004l469 1006l-174 51l6 43h387l-8 -45l-107 -39l-639 -1290h-94zM868 1790h179l118 -287h-71l-226 264v23z" />
    <glyph glyph-name="wgrave" unicode="&#x1e81;" horiz-adv-x="1331" 
d="M829 813l2 -647h7q350 414 350 584q0 57 -34.5 86.5t-92.5 29.5q-43 0 -84 -14l2 29q118 118 213 118q66 0 103.5 -46t37.5 -122q0 -46 -22 -104t-50 -107t-84.5 -124t-93.5 -119.5t-108 -128.5l-33 -39l-199 -238h-18l-66 31l3 453h-7q-95 -122 -266 -359l-90 -125h-18
l-74 31l-8 836q-37 26 -90 26q-45 0 -82 -12l2 27q117 120 225 120q64 0 92.5 -44.5t30.5 -139.5l4 -637h6q147 190 268 373l-2 287q-33 26 -88 26q-41 0 -84 -12l4 27q117 120 224 120q59 0 89.5 -43.5t30.5 -142.5zM567 1550h162l57 -415h-49l-170 397v18z" />
    <glyph glyph-name="Wacute" unicode="&#x1e82;" horiz-adv-x="1882" 
d="M1147 -14l-125 946l-508 -946h-92l-131 1282l-111 49l8 43h494l-8 -45l-178 -51l90 -1004l418 815l-25 191l-100 51l6 43h487l-8 -45l-180 -51l123 -1004l469 1006l-174 51l6 43h387l-8 -45l-107 -39l-639 -1290h-94zM1260 1790h182v-23l-295 -264h-74z" />
    <glyph glyph-name="wacute" unicode="&#x1e83;" horiz-adv-x="1331" 
d="M903 1550h158v-16l-283 -399h-53zM829 813l2 -647h7q350 414 350 584q0 57 -34.5 86.5t-92.5 29.5q-43 0 -84 -14l2 29q118 118 213 118q66 0 103.5 -46t37.5 -122q0 -46 -22 -104t-50 -107t-84.5 -124t-93.5 -119.5t-108 -128.5l-33 -39l-199 -238h-18l-66 31l3 453h-7
q-95 -122 -266 -359l-90 -125h-18l-74 31l-8 836q-37 26 -90 26q-45 0 -82 -12l2 27q117 120 225 120q64 0 92.5 -44.5t30.5 -139.5l4 -637h6q147 190 268 373l-2 287q-33 26 -88 26q-41 0 -84 -12l4 27q117 120 224 120q59 0 89.5 -43.5t30.5 -142.5z" />
    <glyph glyph-name="Wdieresis" unicode="&#x1e84;" horiz-adv-x="1882" 
d="M1147 -14l-125 946l-508 -946h-92l-131 1282l-111 49l8 43h494l-8 -45l-178 -51l90 -1004l418 815l-25 191l-100 51l6 43h487l-8 -45l-180 -51l123 -1004l469 1006l-174 51l6 43h387l-8 -45l-107 -39l-639 -1290h-94zM934 1544q-44 0 -76.5 32.5t-32.5 76.5t32.5 77
t76.5 33t77 -33t33 -77t-33 -76.5t-77 -32.5zM1370 1544q-45 0 -76.5 32t-31.5 77t31.5 77.5t76.5 32.5q44 0 76.5 -33t32.5 -77t-32.5 -76.5t-76.5 -32.5z" />
    <glyph glyph-name="wdieresis" unicode="&#x1e85;" horiz-adv-x="1331" 
d="M633 1266q-46 0 -77.5 31t-31.5 77q0 45 32 78t77 33q44 0 76 -33t32 -78t-31.5 -76.5t-76.5 -31.5zM987 1266q-44 0 -75 31t-31 77q0 45 31 78t75 33q45 0 78 -33t33 -78t-32.5 -76.5t-78.5 -31.5zM829 813l2 -647h7q350 414 350 584q0 57 -34.5 86.5t-92.5 29.5
q-43 0 -84 -14l2 29q118 118 213 118q66 0 103.5 -46t37.5 -122q0 -46 -22 -104t-50 -107t-84.5 -124t-93.5 -119.5t-108 -128.5l-33 -39l-199 -238h-18l-66 31l3 453h-7q-95 -122 -266 -359l-90 -125h-18l-74 31l-8 836q-37 26 -90 26q-45 0 -82 -12l2 27q117 120 225 120
q64 0 92.5 -44.5t30.5 -139.5l4 -637h6q147 190 268 373l-2 287q-33 26 -88 26q-41 0 -84 -12l4 27q117 120 224 120q59 0 89.5 -43.5t30.5 -142.5z" />
    <glyph glyph-name="Ygrave" unicode="&#x1ef2;" horiz-adv-x="1312" 
d="M1292 1274l-522 -731l-90 -455l129 -47l-8 -41h-479l10 43l141 45l86 432l-250 746l-116 51l8 43h506l-11 -45l-168 -49l209 -658l449 652l-180 57l8 43h399l-8 -45zM633 1790h178l119 -287h-72l-225 264v23z" />
    <glyph glyph-name="ygrave" unicode="&#x1ef3;" horiz-adv-x="944" 
d="M74 596h-37q9 176 76.5 287.5t175.5 111.5q97 0 155 -117t62 -346q3 -142 -20 -296.5t-66 -270.5h14q60 76 97.5 126t91.5 135t85 154t53.5 157t20.5 170q-2 67 -28 137t-68 119q56 36 117 36q104 0 106 -149q3 -138 -55.5 -301t-155 -311.5t-218 -289.5t-242 -244
t-229.5 -165.5t-179 -62.5q-57 0 -95 33t-38 92q-2 52 31 86t86 34q49 0 78.5 -34.5t54.5 -108.5h8q81 34 147 109t107 167t69 201t39 207.5t11 190.5q0 195 -33 290t-84 95q-83 0 -137 -242zM379 1550h162l57 -415h-49l-170 397v18z" />
    <glyph glyph-name="uni2009" unicode="&#x2009;" horiz-adv-x="86" 
 />
    <glyph glyph-name="endash" unicode="&#x2013;" horiz-adv-x="917" 
d="M61 514l17 78h778l-16 -78h-779z" />
    <glyph glyph-name="emdash" unicode="&#x2014;" horiz-adv-x="1695" 
d="M61 514l17 78h1558l-16 -78h-1559z" />
    <glyph glyph-name="quoteleft" unicode="&#x2018;" horiz-adv-x="497" 
d="M551 1524q-162 -121 -162 -238q0 -99 109 -127q-6 -139 -125 -139q-47 0 -85 42.5t-38 123.5q0 115 82.5 213.5t199.5 156.5q17 -28 19 -32z" />
    <glyph glyph-name="quoteright" unicode="&#x2019;" horiz-adv-x="497" 
d="M379 1276q0 94 -111 127q9 141 127 141q47 0 85 -43.5t38 -124.5q0 -115 -82.5 -213.5t-199.5 -156.5q-15 26 -21 30q164 123 164 240z" />
    <glyph glyph-name="quotesinglbase" unicode="&#x201a;" horiz-adv-x="497" 
d="M8 -186q162 124 162 237q0 50 -26 81t-85 48q9 139 127 139q48 0 85.5 -42.5t37.5 -124.5q0 -114 -83 -213.5t-199 -155.5q-17 29 -19 31z" />
    <glyph glyph-name="quotedblleft" unicode="&#x201c;" horiz-adv-x="872" 
d="M551 1524q-162 -121 -162 -238q0 -99 109 -127q-6 -139 -125 -139q-47 0 -85 42.5t-38 123.5q0 115 82.5 213.5t199.5 156.5q17 -28 19 -32zM926 1524q-162 -121 -162 -238q0 -99 108 -127q-6 -139 -124 -139q-47 0 -85 42.5t-38 123.5q0 115 82.5 213.5t199.5 156.5
q17 -28 19 -32z" />
    <glyph glyph-name="quotedblright" unicode="&#x201d;" horiz-adv-x="872" 
d="M379 1276q0 94 -111 127q9 141 127 141q47 0 85 -43.5t38 -124.5q0 -115 -82.5 -213.5t-199.5 -156.5q-15 26 -21 30q164 123 164 240zM754 1276q0 94 -111 127q9 141 127 141q47 0 85 -43.5t38 -124.5q0 -115 -82.5 -213.5t-200.5 -156.5q-14 26 -20 30q164 123 164 240
z" />
    <glyph glyph-name="quotedblbase" unicode="&#x201e;" horiz-adv-x="872" 
d="M8 -186q162 124 162 237q0 50 -26 81t-85 48q9 139 127 139q48 0 85.5 -42.5t37.5 -124.5q0 -114 -83 -213.5t-199 -155.5q-17 29 -19 31zM383 -186q162 124 162 237q0 50 -26 81t-85 48q9 139 127 139q48 0 85.5 -42.5t37.5 -124.5q0 -114 -83 -213.5t-200 -155.5
q-16 29 -18 31z" />
    <glyph glyph-name="dagger" unicode="&#x2020;" horiz-adv-x="587" 
d="M174 1194l19 106l202 -18l27 219h110l-63 -219l211 18l-18 -106l-207 16l-82 -514h-115l123 512z" />
    <glyph glyph-name="daggerdbl" unicode="&#x2021;" horiz-adv-x="587" 
d="M174 1194l21 106q108 -16 202 -20q9 53 15 108t8 84l2 29h110q-36 -102 -63 -221q42 2 94.5 7t84.5 9l32 4l-18 -106q-121 14 -207 18l-45 -223q43 1 96 5.5t85 9.5l32 4l-19 -105q-119 15 -207 19q-10 -52 -16.5 -109t-8.5 -88l-1 -31l-111 -2q37 111 64 228
q-42 -2 -93.5 -6t-82.5 -8l-31 -3l20 105q109 -17 201 -19l45 223q-42 -2 -94 -6.5t-83 -7.5z" />
    <glyph glyph-name="bullet" unicode="&#x2022;" horiz-adv-x="618" 
d="M293 395q-65 0 -112.5 48.5t-47.5 115.5q0 65 47.5 112.5t112.5 47.5q67 0 115.5 -47.5t48.5 -112.5q0 -67 -48.5 -115.5t-115.5 -48.5z" />
    <glyph glyph-name="ellipsis" unicode="&#x2026;" horiz-adv-x="1507" 
d="M141 -18q-57 0 -96 39t-39 96q0 59 39 99t96 40q58 0 98 -40t40 -99q0 -57 -40 -96t-98 -39zM664 -18q-57 0 -97.5 39t-40.5 96q0 58 40.5 98.5t97.5 40.5t97 -40.5t40 -98.5q0 -57 -40 -96t-97 -39zM1184 -18q-57 0 -96 39t-39 96q0 59 39 99t96 40t97 -40.5t40 -98.5
q0 -57 -40 -96t-97 -39z" />
    <glyph glyph-name="perthousand" unicode="&#x2030;" horiz-adv-x="2344" 
d="M487 1188q-87 0 -154 -115t-67 -272q0 -84 27 -134.5t82 -50.5q83 0 153 112t70 271q0 87 -28 138t-83 51zM1438 1290l-1211 -1392h-86l1209 1392h88zM373 563q-117 0 -188.5 80.5t-71.5 200.5q0 159 114 277t267 118q115 0 186.5 -79.5t71.5 -198.5q0 -156 -113 -277
t-266 -121zM1214 590q-87 0 -154 -115t-67 -272q0 -84 27 -135.5t82 -51.5q83 0 153 112.5t70 272.5q0 86 -28 137.5t-83 51.5zM1100 -35q-117 0 -188.5 79.5t-71.5 199.5q0 105 52 196.5t140 146t189 54.5q115 0 186.5 -80t71.5 -199q0 -156 -113 -276.5t-266 -120.5z
M1950 590q-87 0 -154 -115t-67 -272q0 -84 27 -135.5t81 -51.5q83 0 153 112.5t70 272.5q0 86 -27.5 137.5t-82.5 51.5zM1835 -35q-117 0 -188.5 79.5t-71.5 199.5q0 160 113.5 278.5t265.5 118.5q116 0 188 -80t72 -199q0 -156 -113 -276.5t-266 -120.5z" />
    <glyph glyph-name="uni2032" unicode="&#x2032;" horiz-adv-x="419" 
d="M186 1049h-47l150 479h184v-17z" />
    <glyph glyph-name="uni2033" unicode="&#x2033;" horiz-adv-x="765" 
d="M186 1049h-47l150 479h184v-17zM532 1049h-47l148 479h186v-17z" />
    <glyph glyph-name="guilsinglleft" unicode="&#x2039;" horiz-adv-x="604" 
d="M494 803l36 -43l-319 -336l205 -328l-45 -35l-326 347v34z" />
    <glyph glyph-name="guilsinglright" unicode="&#x203a;" horiz-adv-x="604" 
d="M55 61l-39 41l322 334l-207 330l45 37l326 -350l-2 -33z" />
    <glyph glyph-name="fraction" unicode="&#x2044;" horiz-adv-x="475" 
d="M-305 -168l-49 45l1235 1602l51 -45z" />
    <glyph glyph-name="Euro" unicode="&#x20ac;" horiz-adv-x="1216" 
d="M121 698l18 66h170q52 110 131.5 202.5t166.5 151t174.5 91t162.5 32.5q115 0 179.5 -49.5t64.5 -120.5q0 -35 -20.5 -65t-67.5 -64q-68 108 -94 138q-67 77 -156 77q-99 0 -197 -112.5t-159 -280.5h469l-17 -66h-473q-30 -112 -37 -178h461l-18 -65h-447v-25
q0 -174 70.5 -254t195.5 -80q90 0 165 42.5t165 127.5l31 -28q-52 -67 -97 -113.5t-102 -87.5t-124 -61.5t-146 -20.5q-173 0 -269 118.5t-96 303.5q0 51 2 78h-174l19 65h164q14 87 47 178h-162z" />
    <glyph glyph-name="trademark" unicode="&#x2122;" horiz-adv-x="1478" 
d="M690 788l6 33l68 15l96 477l-59 16l8 31h219l64 -375l215 375h225l-6 -31l-70 -16l-98 -477l67 -15l-8 -33h-268l6 35l76 15l92 456h-6l-240 -415l-37 -70h-45l-8 68l-74 417h-8l-90 -452l82 -23l-8 -31h-199zM250 1360h502l-29 -184h-33l-24 139h-111l-96 -477l71 -17
l-6 -33h-278l6 33l80 17l96 477h-109l-79 -139h-33z" />
    <glyph glyph-name="onethird" unicode="&#x2153;" horiz-adv-x="1486" 
d="M1176 422v-8q98 -4 157.5 -52.5t59.5 -119.5q1 -77 -54 -137.5t-139 -91.5t-178 -31q-88 0 -145.5 33t-57.5 81q-2 30 21 55.5t65 34.5q39 -83 83.5 -121t103.5 -38q57 0 100 43.5t43 105.5q-2 73 -67.5 120.5t-190.5 53.5l10 51q126 25 199.5 71.5t73.5 105.5
q2 42 -28.5 70t-80.5 28q-95 0 -195 -121l-36 23q25 43 50 74.5t59.5 61t81 45t101.5 15.5q88 0 144.5 -42.5t56.5 -106.5q-3 -132 -237 -203zM508 1378l-152 -704l131 -25l-6 -39h-446l6 39l156 25l125 575l-160 -4v37l330 96h16zM125 -168l-49 45l1235 1602l51 -45z" />
    <glyph glyph-name="twothirds" unicode="&#x2154;" horiz-adv-x="1607" 
d="M403 866l-176 -125h408l-33 -131h-561l10 43l240 201q102 84 158.5 155t56.5 136q0 58 -39.5 93.5t-104.5 35.5q-96 0 -180 -115l-37 21q45 93 122 147.5t182 54.5q100 0 159.5 -55.5t61.5 -134.5q0 -46 -18.5 -88t-59 -83.5t-81 -74t-108.5 -80.5zM1296 422v-8
q98 -4 157.5 -52.5t59.5 -119.5q1 -77 -53.5 -137.5t-138.5 -91.5t-178 -31q-88 0 -145.5 33t-57.5 81q-2 30 21 55.5t65 34.5q39 -83 83 -121t103 -38q57 0 100.5 43.5t43.5 105.5q-2 73 -67.5 120.5t-190.5 53.5l10 51q126 25 199 71.5t73 105.5q2 42 -28 70t-80 28
q-95 0 -195 -121l-37 23q34 58 68.5 97.5t93 69t131.5 29.5q88 0 144.5 -42.5t56.5 -106.5q-3 -132 -238 -203zM246 -168l-49 45l1235 1602l51 -45z" />
    <glyph glyph-name="oneeighth" unicode="&#x215b;" horiz-adv-x="1513" 
d="M825 164q0 82 61 129.5t173 79.5q-63 43 -88 81t-25 91q0 93 82.5 161t210.5 68q102 0 166.5 -45t64.5 -108q0 -69 -51.5 -115t-154.5 -86l51 -35q96 -70 96 -152q1 -109 -96.5 -180t-229.5 -71q-112 0 -186 49.5t-74 132.5zM510 1378l-152 -704l131 -25l-6 -39h-446
l6 39l156 25l125 575l-160 -4v37l330 96h16zM127 -168l-49 45l1235 1602l51 -45zM1149 311l-57 37q-119 -72 -119 -172q0 -64 37.5 -108.5t101.5 -44.5q59 0 101 35t42 96q0 83 -106 157zM1083 608q1 -36 20.5 -63t65.5 -60l62 -43q106 76 106 172q0 52 -36.5 86.5
t-86.5 34.5q-57 0 -94 -35t-37 -92z" />
    <glyph glyph-name="threeeighths" unicode="&#x215c;" horiz-adv-x="1585" 
d="M897 164q0 83 60.5 130t172.5 79q-63 42 -87.5 80.5t-24.5 91.5q0 93 82.5 161t210.5 68q102 0 166.5 -45t64.5 -108q0 -69 -51.5 -115t-155.5 -86l51 -35q97 -70 97 -152q1 -109 -96.5 -180t-229.5 -71q-112 0 -186 49.5t-74 132.5zM414 1034l-2 -10q100 -4 158.5 -52
t58.5 -120q1 -77 -54 -137.5t-138.5 -91.5t-176.5 -31q-89 0 -147 33.5t-58 81.5q-2 31 21 56t65 34q76 -158 187 -158q56 0 99.5 43.5t43.5 103.5q-2 74 -66.5 121.5t-189.5 53.5l10 53q126 24 199.5 69.5t73.5 104.5q2 43 -29 70.5t-80 27.5q-93 0 -196 -121l-35 25
q33 57 67 96t92.5 68.5t131.5 29.5q89 0 145.5 -42t56.5 -105q-3 -136 -237 -203zM199 -168l-49 45l1234 1602l52 -45zM1221 311l-58 37q-119 -72 -119 -172q0 -64 38 -108.5t102 -44.5q59 0 101 35t42 96q0 83 -106 157zM1155 608q1 -36 20.5 -63t65.5 -60l62 -43
q106 76 106 172q0 52 -36.5 86.5t-86.5 34.5q-57 0 -94 -35t-37 -92z" />
    <glyph glyph-name="fiveeighths" unicode="&#x215d;" horiz-adv-x="1587" 
d="M899 164q0 82 61 129.5t173 79.5q-63 43 -88 81t-25 91q0 93 82.5 161t210.5 68q102 0 166.5 -45t64.5 -108q0 -69 -51.5 -115t-155.5 -86l52 -35q96 -70 96 -152q1 -109 -96.5 -180t-229.5 -71q-112 0 -186 49.5t-74 132.5zM694 1360l-28 -139h-385l-48 -177
q70 31 168 31q100 0 173 -52t73 -142q0 -84 -55.5 -151.5t-141.5 -102.5t-182 -35q-81 0 -140.5 32.5t-59.5 84.5q0 27 22 52t64 36q39 -76 82 -114t106 -38q57 0 104.5 41t47.5 117q0 71 -53 110t-122 39q-79 0 -157 -34l-15 4l121 438h426zM201 -168l-49 45l1234 1602
l52 -45zM1223 311l-58 37q-118 -71 -118 -172q0 -64 37.5 -108.5t101.5 -44.5q59 0 101 35t42 96q0 83 -106 157zM1157 608q1 -36 20.5 -63t65.5 -60l62 -43q106 76 106 172q0 52 -36.5 86.5t-86.5 34.5q-57 0 -94 -35t-37 -92z" />
    <glyph glyph-name="seveneighths" unicode="&#x215e;" horiz-adv-x="1429" 
d="M739 164q0 82 61 129.5t173 79.5q-63 43 -88 81t-25 91q0 93 82.5 161t210.5 68q102 0 166.5 -45t64.5 -108q0 -69 -51.5 -115t-154.5 -86l51 -35q96 -70 96 -152q1 -109 -96.5 -180t-229.5 -71q-112 0 -186 49.5t-74 132.5zM41 -168l-49 45l1235 1602l51 -45zM246 610
h-127l456 607h-421l30 143h533l-2 -8zM1063 311l-57 37q-119 -72 -119 -172q0 -64 37.5 -108.5t101.5 -44.5q59 0 101 35t42 96q0 83 -106 157zM997 608q1 -36 20.5 -63t65.5 -60l62 -43q106 76 106 172q0 52 -36.5 86.5t-86.5 34.5q-57 0 -94 -35t-37 -92z" />
    <glyph glyph-name="minus" unicode="&#x2212;" horiz-adv-x="1144" 
d="M1036 449h-970v79h970v-79z" />
    <glyph glyph-name="approxequal" unicode="&#x2248;" horiz-adv-x="1144" 
d="M147 281l-63 30q46 91 106.5 136t149.5 45q88 0 201 -39l98 -33q102 -35 182 -35q105 0 174 127l64 -31q-50 -89 -107 -132.5t-147 -43.5q-71 0 -201 37l-100 31q-133 39 -180 39q-60 0 -101 -34t-76 -97zM147 586l-63 30q46 91 106.5 136t149.5 45q47 0 87.5 -9
t113.5 -32l98 -31q109 -35 182 -35q105 0 174 127l64 -31q-50 -89 -107 -132.5t-147 -43.5q-71 0 -201 37l-100 31q-133 39 -180 39q-59 0 -100.5 -34.5t-76.5 -96.5z" />
    <glyph glyph-name="notequal" unicode="&#x2260;" horiz-adv-x="1144" 
d="M217 74h-82l225 245h-272v80h344l193 209h-537v80h608l228 248h88l-230 -248h277v-80h-350l-191 -209h541v-80h-615z" />
    <glyph glyph-name="lessequal" unicode="&#x2264;" horiz-adv-x="1146" 
d="M1055 0h-967v80h967v-80zM1055 965l-836 -318l836 -317v-86l-969 370v66l969 369v-84z" />
    <glyph glyph-name="greaterequal" unicode="&#x2265;" horiz-adv-x="1146" 
d="M1057 0h-967v80h967v-80zM90 328l838 317l-838 318v86l969 -369v-66l-969 -370v84z" />
    <glyph glyph-name="uni24C5" unicode="&#x24c5;" horiz-adv-x="1595" 
d="M113 672q6 194 106 357t266 257t359 94q194 0 354 -94t249.5 -257t82.5 -357q-5 -146 -66 -277.5t-159 -226t-231 -150t-277 -55.5q-145 0 -274 55.5t-221 150t-143 226t-46 277.5zM174 672q-6 -178 76 -329t228 -239t321 -88t327 88t244 239t98 329q4 133 -44 254.5
t-131.5 209t-201.5 139.5t-249 52q-175 0 -327 -87.5t-244 -238.5t-97 -329zM788 592l9 33q123 6 197.5 62t74.5 157q0 47 -20 82.5t-55 55.5t-76 29.5t-89 10.5l-129 -670l146 -26l-6 -35h-416l6 37l121 24l125 647l-113 29l6 35h334q143 -5 236.5 -65t93.5 -156
q0 -90 -68.5 -152t-167.5 -84.5t-209 -13.5z" />
    <glyph glyph-name="space_uni0326" 
d="M217 -530l-16 41q109 40 153.5 76t44.5 85q0 31 -27 55t-73 31v6q3 47 39.5 79t93.5 32q62 0 100.5 -39.5t38.5 -95.5q0 -94 -92.5 -159t-261.5 -111z" />
    <glyph glyph-name="caron.alt" 
d="M350 1081h-41l113 406h176l-2 -12z" />
    <glyph glyph-name="space_uni0326.alt" 
d="M639 1649l14 -41q-108 -38 -153 -74.5t-45 -85.5q0 -33 26.5 -57t73.5 -31v-4q-3 -47 -39.5 -80t-91.5 -33q-62 0 -100.5 40.5t-38.5 96.5q0 177 354 269z" />
    <glyph glyph-name="grave.uc" 
d="M240 1790h178l119 -287h-72l-225 264v23z" />
    <glyph glyph-name="dieresis.uc" 
d="M336 1544q-44 0 -76.5 32.5t-32.5 76.5t32.5 77t76.5 33t77 -33t33 -77t-33 -76.5t-77 -32.5zM772 1544q-45 0 -76.5 32t-31.5 77t31.5 77.5t76.5 32.5q44 0 76.5 -33t32.5 -77t-32.5 -76.5t-76.5 -32.5z" />
    <glyph glyph-name="macron.uc" 
d="M184 1579l25 121h582l-25 -121h-582z" />
    <glyph glyph-name="acute.uc" 
d="M645 1790h182v-23l-295 -264h-73z" />
    <glyph glyph-name="circumflex.uc" 
d="M342 1503h-84l315 287h132l190 -287h-80l-199 176z" />
    <glyph glyph-name="caron.uc" 
d="M811 1790h84l-317 -287h-129l-191 287h80l197 -180z" />
    <glyph glyph-name="breve.uc" 
d="M537 1495q-114 0 -173 73t-61 204h43q33 -79 80 -116.5t129 -37.5q143 0 236 154h40q-24 -124 -100.5 -200.5t-193.5 -76.5z" />
    <glyph glyph-name="dotaccent.uc" 
d="M446 1655q0 46 35 80t82 34q46 0 80.5 -34t34.5 -80q0 -47 -34.5 -81t-80.5 -34q-47 0 -82 34t-35 81z" />
    <glyph glyph-name="ring.uc" 
d="M377 1720q0 85 59.5 143t145.5 58q88 0 146 -57.5t58 -143.5q0 -85 -59 -142.5t-145 -57.5q-88 0 -146.5 57t-58.5 143zM451 1720q0 -59 38 -97t93 -38t93 38t38 97t-38 97t-93 38t-93 -38t-38 -97z" />
    <glyph glyph-name="tilde.uc" 
d="M272 1536l-32 14l12 31q29 71 64 113t77.5 55t87 7.5t101.5 -27.5l59 -23q50 -19 75.5 -25t55.5 -1.5t53 29t49 73.5l31 -17l-14 -34q-42 -101 -87.5 -145.5t-105 -44.5t-139.5 32l-57 22q-95 41 -140.5 32t-89.5 -91z" />
    <glyph glyph-name="hungarumlaut.uc" 
d="M934 1790v-18l-238 -269h-75l151 287h162zM610 1790v-18l-237 -269h-76l149 287h164z" />
    <glyph glyph-name="cedilla.uc" horiz-adv-x="516" 
d="M-66 -518l-2 33q211 65 211 170q0 24 -8.5 42.5t-23.5 31t-25.5 18.5t-26.5 12l164 207l72 12l-102 -133q108 -41 108 -133q0 -195 -367 -260z" />
    <glyph glyph-name="idotaccent" horiz-adv-x="526" 
d="M258 842q-25 20 -75.5 22t-102.5 -12l4 27q122 118 240 118q66 0 97.5 -51t2.5 -153l-180 -643h8q46 30 101 91t89 119l43 -14q-63 -132 -174.5 -250.5t-183.5 -118.5q-55 0 -74.5 40.5t2.5 125.5zM305 1374q0 47 35 81t82 34q46 0 80 -34t33 -81q0 -47 -35.5 -80.5
t-81.5 -33.5q-47 0 -80 33.5t-33 80.5z" />
    <glyph glyph-name="dollar.lin" horiz-adv-x="1079" 
d="M96 463h49l31 -330q103 -89 232 -100l118 571l-84 43q-121 62 -173 138.5t-52 185.5q0 166 135.5 280t333.5 129l47 226h66l-47 -224q152 -3 317 -75l-80 -334h-47l-20 266q-87 63 -185 74l-106 -518l80 -39q123 -61 190.5 -139.5t67.5 -188.5q0 -100 -43.5 -185.5
t-116 -143t-163.5 -92t-189 -40.5l-45 -223h-64l45 221q-101 4 -199.5 35t-170.5 68zM768 326q0 77 -43 135t-141 112l-113 -540q122 11 209.5 92.5t87.5 200.5zM406 1055q0 -81 38.5 -134t126.5 -98l103 492q-121 -6 -194.5 -77.5t-73.5 -182.5z" />
    <glyph glyph-name="Euro.lin" horiz-adv-x="1234" 
d="M131 801l19 65h149q77 159 205 281.5t259.5 183t244.5 60.5q103 0 172 -51t69 -119q0 -38 -20 -66.5t-70 -64.5q-120 217 -260 217q-115 0 -229 -125t-185 -316h529l-19 -65h-532q-35 -117 -45 -209h512l-19 -66h-499v-51q0 -172 83.5 -266t198.5 -94q57 0 106 13
t96.5 43.5t79.5 57t85 74.5l35 -37q-106 -149 -225 -225t-263 -76q-197 0 -302 125.5t-105 341.5q0 32 4 94h-158l21 66h145q19 115 57 209h-139z" />
    <glyph glyph-name="sterling.lin" horiz-adv-x="1263" 
d="M184 561l13 68h235l76 325q25 110 72 203t101.5 153.5t115.5 103.5t115.5 62t99.5 19q79 0 142 -44.5t63 -113.5q0 -51 -37 -80t-109 -43q-42 211 -137 211q-115 0 -180 -290l-113 -506h403l-14 -68h-403q-37 -167 -132.5 -288.5t-218.5 -198.5q175 -67 267 -121l82 -47
q174 -100 238.5 -130t105.5 -30q62 0 80 82t-13 199q38 1 63 -1t49.5 -10.5t36 -27.5t11.5 -49q0 -37 -25.5 -84t-69 -90.5t-111 -73t-140.5 -29.5q-127 0 -254 62t-283 176l-151 112q-95 -39 -152 -39q-110 0 -110 78q0 34 32.5 59t81.5 25q78 0 199 -41q118 100 172 326
l33 141h-234z" />
    <glyph glyph-name="yen.lin" horiz-adv-x="1269" 
d="M188 557l15 66h334l-228 643l-114 51l6 43h499l-8 -45l-166 -49l195 -607h6l416 601l-180 57l8 43h397l-8 -45l-111 -41l-471 -651h338l-12 -66h-354l-31 -156h352l-12 -65h-352l-50 -248l156 -49l-6 -39h-533l9 43l168 45l49 248h-355l13 65h354l31 156h-355z" />
    <glyph glyph-name="florin.lin" horiz-adv-x="954" 
d="M106 573l11 70h186l19 88q36 180 126.5 332.5t209.5 240t237 87.5q70 0 102.5 -31.5t32.5 -77.5q0 -66 -78 -139q-5 6 -19.5 24.5t-20 25t-18.5 22.5t-20.5 22.5t-19.5 18.5t-21 17t-21 11.5t-23 9t-23 2.5q-29 0 -54.5 -19t-56.5 -69.5t-64 -155.5t-65 -261l-30 -148
h274l-12 -70h-277l-106 -526q-55 -269 -191 -422t-290 -153q-50 0 -99 33t-49 85q0 46 24.5 78.5t57.5 48.5q82 -157 172 -157q89 0 150 311l139 702h-183z" />
    <glyph glyph-name="zero.lin" horiz-adv-x="1314" 
d="M811 1391q199 0 310.5 -155.5t111.5 -408.5q0 -90 -20.5 -187.5t-59 -194t-99 -183t-134.5 -153t-171 -105.5t-204 -39q-131 0 -228 72t-146.5 195t-49.5 280q0 94 20.5 194t59 198.5t99 186t135 154.5t172 106.5t204.5 39.5zM539 20q100 0 191.5 93.5t152 235.5
t96 305.5t35.5 308.5q0 370 -199 370q-102 0 -194 -89.5t-152 -227t-95.5 -296.5t-35.5 -302q0 -398 201 -398z" />
    <glyph glyph-name="one.lin" horiz-adv-x="790" 
d="M674 1395l-258 -1305l196 -45l-8 -45h-618l6 45l223 45l223 1116l-258 -10l6 51l476 148h12z" />
    <glyph glyph-name="two.lin" horiz-adv-x="1015" 
d="M569 492l-364 -316h667l-41 -176h-874l4 47l371 348q86 79 150.5 147t129 150.5t99 163.5t34.5 154q0 108 -63 167.5t-158 59.5q-85 0 -155.5 -52t-155.5 -155l-45 27q81 163 183.5 249.5t254.5 86.5q156 0 250 -98.5t94 -235.5q0 -132 -91 -262t-290 -305z" />
    <glyph glyph-name="three.lin" horiz-adv-x="960" 
d="M520 784v-4q157 -34 252.5 -121t95.5 -215q0 -130 -85.5 -241t-220 -173.5t-279.5 -62.5q-119 0 -198 50t-79 128q0 93 113 148q82 -244 272 -244q112 0 197.5 77t85.5 204q0 75 -31.5 135.5t-86 100.5t-120.5 64.5t-143 35.5l14 59q226 119 314 201t88 174q0 65 -48 104
t-120 39q-89 0 -162 -55t-156 -162l-45 27q83 168 185 253t247 85q129 0 207 -67.5t78 -174.5q0 -56 -22 -105t-54 -83.5t-86 -69t-100 -57t-113 -50.5z" />
    <glyph glyph-name="four.lin" horiz-adv-x="1136" 
d="M350 45l176 45l54 272h-566l11 62l878 948l72 -12l-170 -856h260l-25 -142h-264l-53 -272l151 -47l-6 -43h-526zM182 504h426l115 583z" />
    <glyph glyph-name="five.lin" horiz-adv-x="1009" 
d="M989 1360l-39 -182h-571l-98 -406q104 59 243 59q69 0 135 -23t120.5 -65t88 -110.5t33.5 -151.5q0 -111 -55 -209t-141.5 -163.5t-193 -103.5t-210.5 -38q-72 0 -131.5 16t-101 55t-41.5 95q0 90 106 150q61 -124 126 -175t159 -51q51 0 102.5 20t97 58t74.5 103t29 145
q0 71 -26 127t-68.5 88.5t-89.5 49t-95 16.5q-59 0 -109 -14t-78.5 -30.5t-72.5 -46.5l-28 7l194 780h641z" />
    <glyph glyph-name="six.lin" horiz-adv-x="1136" 
d="M1141 1360q-167 -69 -310.5 -161.5t-265.5 -224t-186 -280.5h4q127 148 295 148q144 0 245 -98.5t101 -260.5q0 -101 -37.5 -194.5t-104.5 -165.5t-168 -115t-220 -43q-79 0 -149.5 28.5t-125 82.5t-86 139t-31.5 191q0 149 58.5 288.5t157.5 250t231.5 203t279.5 156
t301 99.5zM588 743q-136 0 -248 -161q-29 -113 -29 -220q0 -170 53 -257t146 -87q88 0 157.5 62t105.5 161.5t36 213.5q0 126 -60.5 207t-160.5 81z" />
    <glyph glyph-name="seven.lin" horiz-adv-x="954" 
d="M205 0h-137l770 1167h-695l39 193h828l-4 -19z" />
    <glyph glyph-name="eight.lin" horiz-adv-x="1044" 
d="M25 260q0 37 8.5 72t20.5 63t35 56t42 48t53 43.5t56 37.5t62 34.5t60 30.5t62 29l-39 41q-83 84 -118.5 148.5t-35.5 148.5q0 67 36 135.5t95.5 122.5t144 88.5t173.5 34.5q148 0 247 -78.5t99 -196.5q0 -55 -23.5 -107t-57.5 -90.5t-86.5 -76.5t-96 -62.5t-100.5 -52.5
l55 -55q48 -48 70.5 -73t53.5 -67.5t43.5 -84.5t12.5 -91q0 -106 -75.5 -200t-186.5 -146.5t-221 -52.5q-174 0 -281.5 82.5t-107.5 218.5zM510 584l-53 55q-123 -77 -182.5 -164t-59.5 -201q0 -97 64 -175.5t178 -78.5q102 0 173.5 65.5t71.5 178.5q0 35 -11 70t-23 59.5
t-44 64t-49.5 58.5t-64.5 68zM410 1096q0 -75 36 -131.5t119 -141.5l62 -61q222 151 219 360q0 95 -59 152t-142 57q-92 0 -163.5 -60.5t-71.5 -174.5z" />
    <glyph glyph-name="nine.lin" horiz-adv-x="1120" 
d="M6 6q277 103 480.5 268.5t301.5 389.5h-6q-35 -41 -60.5 -65.5t-62 -48.5t-80.5 -35t-100 -11q-64 0 -122.5 22.5t-109 68.5t-80.5 125.5t-30 182.5q0 84 38.5 171.5t106.5 161t173.5 120.5t226.5 47q169 0 281 -119.5t112 -318.5q0 -119 -34.5 -229.5t-93 -200
t-141.5 -170t-175.5 -142.5t-198.5 -115t-207 -89.5t-205 -63.5zM555 582q131 0 266 172q45 140 45 290q0 143 -47 225.5t-143 82.5q-135 0 -230.5 -136.5t-95.5 -322.5q0 -138 55.5 -224.5t149.5 -86.5z" />
    <glyph glyph-name="percent.lin" horiz-adv-x="1658" 
d="M446 711q-118 0 -189 79t-71 199q0 160 113.5 278.5t265.5 118.5q115 0 187.5 -79.5t72.5 -198.5q0 -156 -113 -276.5t-266 -120.5zM561 1333q-87 0 -154 -114.5t-67 -270.5q0 -83 27.5 -133.5t81.5 -50.5q83 0 153 112t70 271q0 84 -28 135t-83 51zM123 -102l1302 1495
h88l-1302 -1495h-88zM1126 -35q-118 0 -190 79.5t-72 199.5q0 105 52 196.5t140 146t189 54.5q115 0 186.5 -80t71.5 -199q0 -101 -51 -193t-138.5 -148t-187.5 -56zM1239 588q-87 0 -154 -114.5t-67 -270.5q0 -83 27 -134t81 -51q85 0 154.5 111.5t69.5 271.5q0 85 -28 136
t-83 51z" />
    <glyph glyph-name="perthousand.lin" horiz-adv-x="2412" 
d="M446 711q-118 0 -189 79t-71 199q0 160 113.5 278.5t265.5 118.5q115 0 187.5 -79.5t72.5 -198.5q0 -156 -113 -276.5t-266 -120.5zM561 1333q-87 0 -154 -114.5t-67 -270.5q0 -83 27.5 -133.5t81.5 -50.5q83 0 153 112t70 271q0 84 -28 135t-83 51zM123 -102l1302 1495
h88l-1302 -1495h-88zM1126 -35q-118 0 -190 79.5t-72 199.5q0 105 52 196.5t140 146t189 54.5q115 0 186.5 -80t71.5 -199q0 -101 -51 -193t-138.5 -148t-187.5 -56zM1239 588q-87 0 -154 -114.5t-67 -270.5q0 -83 27 -134t81 -51q85 0 154.5 111.5t69.5 271.5q0 85 -28 136
t-83 51zM1903 -51q-118 0 -190.5 79.5t-72.5 198.5q0 105 52 197t140 146.5t189 54.5q115 0 186.5 -80t71.5 -199q0 -101 -50.5 -193t-138 -148t-187.5 -56zM2015 571q-87 0 -154 -115t-67 -270q0 -83 27.5 -133.5t83.5 -50.5q83 0 153 112t70 271q0 83 -29 134.5t-84 51.5z
" />
    <glyph glyph-name="plus.lin" horiz-adv-x="1144" 
d="M1085 590h-442v-445h-86v445h-442v80h442v444h86v-444h442v-80z" />
    <glyph glyph-name="minus.lin" horiz-adv-x="1144" 
d="M1085 590h-970v80h970v-80z" />
    <glyph glyph-name="multiply.lin" horiz-adv-x="1144" 
d="M981 184l-389 389l-383 -391l-59 58l387 391l-383 389l59 59l385 -387l387 398l57 -60l-389 -395l389 -391z" />
    <glyph glyph-name="divide.lin" horiz-adv-x="1144" 
d="M1085 590h-970v80h970v-80zM600 831q-49 0 -86 38t-37 89q0 48 37 85.5t86 37.5q50 0 87.5 -37.5t37.5 -85.5q0 -51 -37 -89t-88 -38zM598 176q-49 0 -86 37.5t-37 87.5t37 87.5t86 37.5q51 0 88 -37.5t37 -87.5t-37 -87.5t-88 -37.5z" />
    <glyph glyph-name="equal.lin" horiz-adv-x="1144" 
d="M1085 754h-970v80h970v-80zM1085 465h-970v80h970v-80z" />
    <glyph glyph-name="less.lin" horiz-adv-x="1146" 
d="M1081 1026l-866 -399l866 -400v-88l-966 453v70l966 450v-86z" />
    <glyph glyph-name="greater.lin" horiz-adv-x="1146" 
d="M117 227l866 400l-866 397v88l966 -453v-69l-966 -451v88z" />
    <glyph glyph-name="plusminus.lin" horiz-adv-x="1142" 
d="M1083 813h-440v-446h-88v446h-442v80h442v444h88v-444h440v-80zM86 0v78h971v-78h-971z" />
    <glyph glyph-name="notequal.lin" horiz-adv-x="1144" 
d="M244 215h-82l225 248h-272v80h346l188 207h-534v79h608l227 248h88l-229 -248h276v-79h-350l-190 -207h540v-80h-614z" />
    <glyph glyph-name="approxequal.lin" horiz-adv-x="1144" 
d="M174 727l-61 31q46 91 106 135.5t148 44.5q33 0 65.5 -5.5t55.5 -12t79 -23.5l101 -31q117 -35 182 -35q102 0 174 127l61 -30q-50 -90 -106 -133t-145 -43q-91 0 -201 36l-103 33q-126 37 -178 37q-60 0 -101.5 -34.5t-76.5 -96.5zM174 422l-61 31q46 92 106 136t148 44
q48 0 87.5 -8.5t112.5 -30.5l101 -31q115 -37 182 -37q103 0 174 129l61 -32q-51 -89 -106.5 -133t-144.5 -44q-64 0 -201 39l-103 31q-126 37 -178 37q-60 0 -101.5 -34.5t-76.5 -96.5z" />
    <glyph glyph-name="lessequal.lin" horiz-adv-x="1146" 
d="M1057 0h-969v78h969v-78zM1081 1106l-835 -318l835 -317v-84l-968 369v65l968 369v-84z" />
    <glyph glyph-name="greaterequal.lin" horiz-adv-x="1146" 
d="M1055 0h-967v78h967v-78zM115 471l837 317l-837 318v84l968 -369v-65l-968 -369v84z" />
    <glyph glyph-name="numbersign.lin" horiz-adv-x="1210" 
d="M260 965l16 79h248l119 314h76l-117 -314h316l118 314h76l-117 -314h246l-18 -79h-258l-148 -396h238l-17 -80h-252l-129 -348h-75l129 348h-318l-129 -348h-76l129 348h-241l16 80h256l148 396h-236zM571 965l-147 -396h317l148 396h-318z" />
    <glyph glyph-name="ordfeminine.lin" horiz-adv-x="937" 
d="M819 1415h101l-191 -696l6 -2q48 22 97 70t86 102l30 -15q-53 -113 -141.5 -199.5t-167.5 -86.5q-47 0 -62 37.5t7 119.5l55 187h-8q-90 -135 -132 -186q-134 -161 -249 -162q-53 0 -85 40t-32 107q0 143 86 300t212 259.5t237 102.5q54 0 118 -37zM360 727
q47 0 117.5 72t131 170t83.5 176l37 121q-50 67 -113 67q-60 0 -132 -84t-122.5 -213t-50.5 -245q0 -30 14 -47t35 -17z" />
    <glyph glyph-name="ordmasculine.lin" horiz-adv-x="851" 
d="M303 817q0 -182 90 -182q68 0 135 90.5t107 215.5t41 230q1 28 -1 53.5t-9.5 59.5t-27.5 54t-52 20q-53 0 -106.5 -57t-90.5 -140.5t-60.5 -176.5t-25.5 -167zM600 1407q117 0 183.5 -86.5t66.5 -206.5q0 -135 -62.5 -257t-170 -196.5t-230.5 -74.5q-117 0 -183.5 87
t-66.5 216q0 133 62 252.5t169.5 192.5t231.5 73z" />
    <glyph glyph-name="zero.num" horiz-adv-x="808" 
d="M565 1384q126 0 199.5 -87t73.5 -224q0 -84 -30.5 -169t-84 -155t-136 -113.5t-177.5 -43.5q-129 0 -202 87.5t-73 227.5q0 65 18.5 132t55.5 129t87.5 110t120.5 77t148 29zM410 631q55 0 105 58t82.5 143.5t51.5 178t19 165.5q0 172 -101 172q-54 0 -103.5 -53.5
t-82.5 -134.5t-52.5 -173.5t-19.5 -173.5q0 -182 101 -182z" />
    <glyph glyph-name="one.num" horiz-adv-x="481" 
d="M510 1378l-152 -704l131 -25l-6 -39h-446l6 39l156 25l125 575l-160 -4v37l330 96h16z" />
    <glyph glyph-name="two.num" horiz-adv-x="624" 
d="M403 866l-176 -125h408l-33 -131h-561l10 43l240 201q102 84 158.5 155t56.5 136q0 58 -39.5 93.5t-104.5 35.5q-96 0 -180 -115l-37 21q45 93 122 147.5t182 54.5q100 0 159.5 -55.5t61.5 -134.5q0 -46 -18.5 -88t-59 -83.5t-81 -74t-108.5 -80.5z" />
    <glyph glyph-name="three.num" horiz-adv-x="600" 
d="M414 1034l-2 -10q100 -4 158.5 -52t58.5 -120q1 -77 -54 -137.5t-138.5 -91.5t-176.5 -31q-89 0 -147 33.5t-58 81.5q-2 31 21 56t65 34q76 -158 187 -158q56 0 99.5 43.5t43.5 103.5q-2 74 -66.5 121.5t-189.5 53.5l10 53q126 24 199.5 69.5t73.5 104.5q2 43 -29 70.5
t-80 27.5q-93 0 -196 -121l-35 25q33 57 67 96t92.5 68.5t131.5 29.5q89 0 145.5 -42t56.5 -105q-3 -136 -237 -203z" />
    <glyph glyph-name="four.num" horiz-adv-x="688" 
d="M270 645l107 23l29 135h-347l11 53l559 526l59 -10l-106 -471h149l-20 -98h-150l-31 -135l97 -25l-6 -33h-357zM180 901h248l66 293z" />
    <glyph glyph-name="five.num" horiz-adv-x="620" 
d="M694 1360l-28 -139h-385l-48 -177q70 31 168 31q100 0 173 -52t73 -142q0 -84 -55.5 -151.5t-141.5 -102.5t-182 -35q-81 0 -140.5 32.5t-59.5 84.5q0 27 22 52t64 36q39 -76 82 -114t106 -38q57 0 104.5 41t47.5 117q0 71 -53 110t-122 39q-79 0 -157 -34l-15 4l121 438
h426z" />
    <glyph glyph-name="six.num" horiz-adv-x="696" 
d="M754 1354q-297 -78 -412 -316h10q62 62 156 62q97 0 157 -59t60 -152q0 -126 -91.5 -212.5t-240.5 -86.5q-120 0 -192 75t-72 201q0 136 81 252.5t223 189.5t317 85zM440 1036q-71 0 -127 -75q-24 -79 -24 -162q0 -77 29 -123.5t79 -46.5q74 0 118 76.5t44 168.5
q0 76 -32 119t-87 43z" />
    <glyph glyph-name="seven.num" horiz-adv-x="591" 
d="M246 610h-127l456 607h-421l30 143h533l-2 -8z" />
    <glyph glyph-name="eight.num" horiz-adv-x="647" 
d="M84 774q-1 82 58 128.5t171 80.5q-60 43 -85 82.5t-25 91.5q0 91 82.5 159t210.5 68q103 0 167 -44.5t64 -108.5q0 -69 -51.5 -115t-153.5 -86l51 -35q97 -67 97 -151q0 -109 -97.5 -180.5t-230.5 -71.5q-110 0 -184 49.5t-74 132.5zM408 922l-60 39q-117 -72 -117 -173
q0 -64 38 -109.5t102 -45.5q58 0 100 35.5t41 97.5q0 83 -104 156zM342 1219q1 -36 21 -62.5t65 -58.5l61 -45q107 79 107 172q0 53 -36 87t-87 34q-58 0 -94.5 -34.5t-36.5 -92.5z" />
    <glyph glyph-name="nine.num" horiz-adv-x="700" 
d="M113 625q311 63 419 319h-12q-61 -61 -153 -61q-97 0 -157 60t-60 153q0 125 90.5 209t234.5 84q120 0 192 -76t72 -201q0 -102 -44.5 -195t-124.5 -164t-197.5 -115.5t-255.5 -51.5zM432 946q34 0 68 20.5t59 55.5q21 80 21 158q0 80 -27 125t-82 45q-69 0 -113.5 -76
t-44.5 -166q0 -76 32 -119t87 -43z" />
    <glyph glyph-name="zero.den" horiz-adv-x="808" 
d="M440 774q128 0 201.5 -87t73.5 -224q0 -85 -30.5 -170t-84 -154.5t-136.5 -113t-179 -43.5q-129 0 -201 87.5t-72 227.5q0 82 30 165.5t83 153.5t136 114t179 44zM285 20q55 0 105 58t82.5 143.5t51.5 177t19 164.5q0 174 -101 174q-69 0 -130.5 -90.5t-94.5 -212.5
t-33 -231q0 -183 101 -183z" />
    <glyph glyph-name="one.den" horiz-adv-x="481" 
d="M385 766l-149 -703l129 -24l-7 -39h-446l8 39l156 24l125 576l-160 -6v39l330 94h14z" />
    <glyph glyph-name="two.den" horiz-adv-x="624" 
d="M279 256l-177 -125h408l-33 -131h-561l10 41l240 203q103 85 159 155t56 136q0 59 -38.5 94t-102.5 35q-100 0 -183 -117l-37 22q45 93 122 148t182 55q100 0 159.5 -56t61.5 -136q0 -45 -18.5 -86.5t-58.5 -83t-81 -74.5t-108 -80z" />
    <glyph glyph-name="three.den" horiz-adv-x="600" 
d="M289 422v-8q98 -4 157.5 -52.5t59.5 -119.5q1 -77 -54 -137.5t-139 -91.5t-178 -31q-88 0 -145.5 33t-57.5 81q-2 30 21 55.5t65 34.5q39 -83 83.5 -121t103.5 -38q57 0 100 43.5t43 105.5q-2 73 -67.5 120.5t-190.5 53.5l10 51q126 25 199.5 71.5t73.5 105.5
q2 42 -28.5 70t-80.5 28q-94 0 -194 -121l-37 23q34 58 68.5 97.5t93 69t131.5 29.5q88 0 144 -42.5t56 -106.5q-3 -132 -237 -203z" />
    <glyph glyph-name="four.den" horiz-adv-x="688" 
d="M145 35l107 22l29 133h-347l13 56l559 526l57 -12l-104 -471h147l-18 -99h-152l-28 -133l94 -24l-6 -33h-357zM57 289h246l68 297z" />
    <glyph glyph-name="five.den" horiz-adv-x="620" 
d="M571 750l-30 -140h-385l-47 -178q74 33 170 33q99 0 171 -52t72 -143q0 -85 -55.5 -152t-141.5 -101.5t-182 -34.5q-82 0 -140 31t-58 83q0 28 21.5 52.5t62.5 35.5q38 -75 82 -113t106 -38q57 0 104.5 41t47.5 116q0 73 -52.5 112.5t-121.5 39.5q-80 0 -158 -37l-12 4
l118 441h428z" />
    <glyph glyph-name="six.den" horiz-adv-x="696" 
d="M631 743q-157 -42 -259.5 -124t-152.5 -191h8q61 61 156 61q98 0 157.5 -59.5t59.5 -153.5q0 -125 -91 -210.5t-241 -85.5q-120 0 -191 75t-71 201q0 135 80.5 251.5t223 189.5t317.5 85zM317 426q-35 0 -69.5 -20t-59.5 -54q-22 -76 -22 -164q0 -78 28 -124t78 -46
q74 0 118 76.5t44 169.5q0 76 -31.5 119t-85.5 43z" />
    <glyph glyph-name="seven.den" horiz-adv-x="591" 
d="M121 0h-127l457 606h-422l30 144h533l-2 -11z" />
    <glyph glyph-name="eight.den" horiz-adv-x="647" 
d="M-41 164q0 82 61 129.5t173 79.5q-63 43 -88 81t-25 91q0 93 82.5 161t210.5 68q102 0 166.5 -45t64.5 -108q0 -69 -51.5 -115t-155.5 -86l52 -35q96 -70 96 -152q1 -109 -96.5 -180t-229.5 -71q-112 0 -186 49.5t-74 132.5zM283 311l-58 37q-119 -72 -119 -172
q0 -64 38 -108.5t102 -44.5q59 0 101 35t42 96q0 83 -106 157zM217 608q1 -36 20.5 -63t65.5 -60l62 -43q106 76 106 172q0 52 -36.5 86.5t-86.5 34.5q-57 0 -94 -35t-37 -92z" />
    <glyph glyph-name="nine.den" horiz-adv-x="700" 
d="M-10 14q163 33 267 117.5t151 200.5h-11q-60 -60 -155 -60q-97 0 -157 60t-60 153q0 125 91 209t236 84q118 0 190 -75.5t72 -200.5q0 -103 -44.5 -196.5t-124 -164.5t-197 -115.5t-254.5 -50.5zM307 334q68 0 127 76q21 80 21 159t-26.5 124.5t-80.5 45.5
q-70 0 -114 -75.5t-44 -165.5q0 -76 31.5 -120t85.5 -44z" />
    <glyph glyph-name="zero.sub" horiz-adv-x="808" 
d="M420 672q127 0 200.5 -87.5t73.5 -224.5q0 -85 -30.5 -170t-84 -154.5t-136.5 -113t-179 -43.5q-129 0 -200.5 87.5t-71.5 228.5q0 82 30 165.5t83 153.5t136 114t179 44zM264 -82q55 0 105 58t82.5 143.5t51.5 177t19 164.5q0 174 -100 174q-69 0 -130.5 -90.5
t-94.5 -213t-33 -231.5q0 -182 100 -182z" />
    <glyph glyph-name="one.sub" horiz-adv-x="481" 
d="M367 664l-152 -703l129 -24l-6 -39h-444l6 39l155 24l125 576l-160 -7v39l330 95h17z" />
    <glyph glyph-name="two.sub" horiz-adv-x="624" 
d="M258 154l-176 -125h407l-30 -131h-561l8 41l239 202q103 85 159 155t56 136q0 59 -38.5 94t-102.5 35q-100 0 -180 -117l-39 23q47 94 123 148.5t180 54.5q100 0 159.5 -56.5t61.5 -136.5q0 -45 -18.5 -86.5t-58.5 -82.5t-80.5 -73.5t-108.5 -80.5z" />
    <glyph glyph-name="three.sub" horiz-adv-x="600" 
d="M270 319l-2 -10q99 -4 158 -51.5t59 -118.5q1 -77 -53.5 -137.5t-138.5 -91.5t-178 -31q-88 0 -145.5 33.5t-57.5 81.5q-2 30 21 55.5t65 34.5q39 -83 83 -121.5t103 -38.5q57 0 100.5 44t43.5 106q-2 73 -67.5 120.5t-190.5 53.5l10 51q126 25 199 71t73 105
q2 42 -28 70t-80 28q-96 0 -195 -120l-37 22q25 43 50 74.5t60 61.5t81.5 45.5t101.5 15.5q88 0 144.5 -43t56.5 -107q-3 -131 -236 -203z" />
    <glyph glyph-name="four.sub" horiz-adv-x="688" 
d="M125 -68l108 23l29 133h-348l12 55l559 527l58 -13l-105 -471h148l-19 -98h-151l-29 -133l96 -25l-8 -32h-356zM37 186h248l65 297z" />
    <glyph glyph-name="five.sub" horiz-adv-x="620" 
d="M551 647l-31 -139h-385l-47 -178q72 32 170 32q100 0 172 -51.5t72 -142.5q0 -85 -55.5 -152t-141.5 -102t-182 -35q-82 0 -140.5 31.5t-58.5 83.5q0 28 21.5 52.5t62.5 35.5q38 -75 82.5 -113.5t106.5 -38.5q58 0 104.5 41t46.5 117q0 73 -52.5 112.5t-121.5 39.5
q-80 0 -158 -37l-12 4l119 440h428z" />
    <glyph glyph-name="six.sub" horiz-adv-x="696" 
d="M610 641q-304 -82 -411 -315h8q61 61 158 61q96 0 155.5 -59.5t59.5 -153.5q0 -125 -91 -211t-241 -86q-120 0 -191 75.5t-71 201.5q0 206 177 356.5t443 169.5zM297 324q-72 0 -129 -76q-23 -76 -23 -162q0 -78 28.5 -124t78.5 -46q52 0 90 39t55 93.5t17 113.5
q0 76 -31.5 119t-85.5 43z" />
    <glyph glyph-name="seven.sub" horiz-adv-x="591" 
d="M100 -102h-127l457 606h-422l33 143h530l-2 -10z" />
    <glyph glyph-name="eight.sub" horiz-adv-x="647" 
d="M-61 61q0 82 60.5 130t172.5 79q-63 43 -88 81t-25 91q0 93 82.5 161.5t210.5 68.5q103 0 167.5 -45t64.5 -109q0 -69 -51.5 -115t-155.5 -86l51 -34q95 -69 98 -152q0 -110 -97 -181t-230 -71q-111 0 -185.5 49.5t-74.5 132.5zM262 209l-57 37q-119 -72 -119 -172
q0 -64 37.5 -109t101.5 -45q59 0 101.5 35t42.5 96q0 85 -107 158zM199 506q1 -36 20 -63t64 -60l61 -43q109 78 109 172q-1 51 -38 86t-85 35q-58 0 -95 -35.5t-36 -91.5z" />
    <glyph glyph-name="nine.sub" horiz-adv-x="700" 
d="M-31 -88q163 33 267 116.5t153 200.5h-12q-59 -59 -156 -59t-157 60t-60 153q0 125 91.5 209t236.5 84q118 0 190 -76t72 -201q0 -103 -45 -196.5t-124.5 -164t-196.5 -115t-255 -50.5zM287 231q72 0 129 80q20 73 20 156q0 170 -108 170q-70 0 -114 -76t-44 -166
q0 -76 31.5 -120t85.5 -44z" />
    <glyph glyph-name="plus.sub" horiz-adv-x="681" 
d="M573 215h-256v-235h-69v235h-256v64h256v235h69v-235h256v-64z" />
    <glyph glyph-name="minus.sub" horiz-adv-x="681" 
d="M573 215h-581v64h581v-64z" />
    <glyph glyph-name="zero.sup" horiz-adv-x="808" 
d="M598 1552q126 0 199 -87t73 -224q0 -84 -30.5 -169t-84 -154t-136 -112.5t-177.5 -43.5q-129 0 -201.5 87.5t-72.5 227.5q0 82 30 165t83 152.5t136.5 113.5t180.5 44zM442 799q55 0 105 58t82.5 143t51.5 177.5t19 165.5q0 175 -100 175q-54 0 -103.5 -54t-82.5 -135
t-52.5 -173.5t-19.5 -172.5q0 -184 100 -184z" />
    <glyph glyph-name="one.sup" horiz-adv-x="481" 
d="M543 1546l-152 -704l131 -25l-6 -37h-446l6 37l155 25l125 575l-159 -4v39l329 94h17z" />
    <glyph glyph-name="two.sup" horiz-adv-x="624" 
d="M436 1036l-176 -127h408l-33 -129h-561l10 41l240 201q102 84 158.5 155t56.5 136q0 58 -39.5 93.5t-104.5 35.5q-96 0 -180 -115l-37 23q46 92 122 147t181 55q100 0 159.5 -56.5t61.5 -135.5q0 -46 -18.5 -88t-58 -83t-81.5 -74.5t-108 -78.5z" />
    <glyph glyph-name="three.sup" horiz-adv-x="600" 
d="M446 1202l-2 -10q100 -4 160 -51.5t60 -120.5q0 -76 -54.5 -136.5t-139 -92t-177.5 -31.5q-89 0 -147 34.5t-58 82.5q-2 29 21.5 54t66.5 34q73 -158 184 -158q57 0 100.5 43.5t43.5 105.5q-2 73 -66.5 119.5t-189.5 52.5l10 54q126 25 199 71t73 103q2 43 -28.5 71.5
t-79.5 28.5q-94 0 -197 -121l-35 23q50 90 117.5 142t173.5 52q89 0 146 -42t57 -105q-3 -135 -238 -203z" />
    <glyph glyph-name="four.sup" horiz-adv-x="688" 
d="M303 813l107 23l28 135h-346l10 53l560 526l59 -10l-107 -471h150l-21 -98h-149l-31 -135l96 -23l-6 -33h-356zM215 1069h246l65 295z" />
    <glyph glyph-name="five.sup" horiz-adv-x="620" 
d="M727 1528l-29 -139h-385l-47 -177q70 31 168 31q101 0 173.5 -51t72.5 -141q0 -85 -55.5 -152.5t-141.5 -103t-182 -35.5q-81 0 -140 32.5t-59 84.5q0 28 21 52.5t63 35.5q39 -75 82.5 -113.5t106.5 -38.5q57 0 104 40.5t47 117.5q0 71 -52.5 110t-121.5 39
q-76 0 -157 -35l-15 5l121 438h426z" />
    <glyph glyph-name="six.sup" horiz-adv-x="696" 
d="M786 1522q-297 -78 -411 -314h10q60 60 156 60q97 0 157 -59t60 -152q0 -126 -91.5 -211.5t-240.5 -85.5q-120 0 -192 74t-72 200q0 136 80.5 252.5t222.5 189.5t317 85zM475 1206q-36 0 -71 -22t-60 -58q-22 -73 -22 -157q0 -79 28.5 -125.5t79.5 -46.5q74 0 118 77
t44 168q0 76 -32 120t-85 44z" />
    <glyph glyph-name="seven.sup" horiz-adv-x="591" 
d="M279 780h-127l456 604h-422l31 144h533l-2 -8z" />
    <glyph glyph-name="eight.sup" horiz-adv-x="647" 
d="M117 942q-1 82 59 129.5t170 79.5q-61 45 -85.5 83.5t-24.5 90.5q0 91 82 159t210 68q103 0 167.5 -44.5t64.5 -106.5q0 -70 -51 -116.5t-152 -86.5l49 -33q96 -70 96 -151q0 -111 -97 -182.5t-230 -71.5q-110 0 -184 50.5t-74 131.5zM440 1090l-59 38
q-117 -72 -117 -172q0 -64 37.5 -109.5t101.5 -45.5q58 0 100.5 36t41.5 97q0 83 -105 156zM375 1389q1 -37 20.5 -64t65.5 -59l61 -43q107 75 107 170q0 53 -36 88t-87 35q-57 0 -94 -35t-37 -92z" />
    <glyph glyph-name="nine.sup" horiz-adv-x="700" 
d="M145 793q313 64 420 319h-12q-61 -61 -154 -61q-97 0 -157 60t-60 153q0 125 91 208.5t235 83.5q120 0 192 -75t72 -201q0 -210 -172.5 -361t-449.5 -163zM465 1114q69 0 127 74q20 76 20 160q0 170 -108 170q-69 0 -113.5 -76t-44.5 -166q0 -76 32 -119t87 -43z" />
    <glyph glyph-name="plus.sup" horiz-adv-x="681" 
d="M750 1098h-254v-236h-72v236h-254v63h254v236h72v-236h254v-63z" />
    <glyph glyph-name="minus.sup" horiz-adv-x="681" 
d="M750 1098h-580v63h580v-63z" />
    <glyph glyph-name="A.alt" horiz-adv-x="1351" 
d="M-123 0l8 45l121 39l916 1280l67 12l82 17v-1301l119 -49l-6 -43h-498l6 45l176 45v428h-446l-289 -424l193 -51l-9 -43h-440zM868 1171l-389 -569h389l2 569h-2z" />
    <glyph glyph-name="M.alt" horiz-adv-x="1865" 
d="M-63 0l10 45l141 45l377 1174l-127 53l8 43h365l155 -998l598 998h328l-10 -45l-142 -45l-61 -1180l127 -47l-6 -43h-508l6 45l176 45l64 1077l-584 -983l-66 -129h-73l-15 129l-176 1041l-344 -1135l162 -47l-6 -43h-399z" />
    <glyph glyph-name="V.alt" horiz-adv-x="1302" 
d="M303 -14l-22 1282l-101 49l8 43h490l-8 -45l-178 -51l6 -1002h4l715 1004l-177 51l7 43h391l-8 -45l-97 -39l-958 -1290h-72z" />
    <glyph glyph-name="W.alt" horiz-adv-x="1839" 
d="M965 -14l4 964l-637 -964h-92l43 1282l-103 49l8 43h494l-8 -45l-178 -51l-47 -992l522 822v172l-101 51l7 43h491l-10 -45l-178 -51l-15 -996l602 998l-186 51l6 43h389l-8 -45l-98 -39l-811 -1290h-94z" />
    <glyph glyph-name="h.alt" horiz-adv-x="974" 
d="M-12 -2l354 1348l-115 90l6 16l336 78l-256 -983h9q58 97 112.5 172.5t116 141t126 101t126.5 35.5q147 0 141 -192q-2 -132 -54 -282t-128 -268t-168 -196.5t-170 -78.5q-32 0 -54 20t-22 51q0 35 35 80q33 -27 83.5 -42.5t74.5 -10.5q23 37 51 95t62.5 147t58.5 201
t26 218q0 103 -61 103q-58 0 -145.5 -89t-173 -241t-128.5 -311l-51 -185l-168 -45z" />
    <glyph glyph-name="v.alt" horiz-adv-x="1044" 
d="M500 799h-269q-71 0 -71 -37q0 -7 2 -14t7 -14t10 -12.5t15.5 -14.5t18 -14.5t23.5 -17.5t26 -20q-18 -52 -51 -78t-70 -26q-38 0 -63 27.5t-25 66.5q0 60 45.5 136t119.5 132t144 56h283v-19l-100 -170q-85 -142 -121.5 -239t-36.5 -185q-4 -89 43 -137.5t121 -48.5
q82 0 153 62t113.5 168t42.5 229q0 68 -13 126.5t-27 90t-46 94.5q55 43 119 43q113 0 113 -184q0 -94 -33 -207.5t-91.5 -220.5t-130.5 -196t-159 -143.5t-168 -54.5q-92 0 -150 59.5t-57 170.5q1 97 59 217t152 264l72 109v2z" />
    <glyph glyph-name="w.alt" horiz-adv-x="1435" 
d="M647 969v-19l-98 -166q-51 -86 -72 -123t-57.5 -108t-53 -123.5t-20.5 -99.5q-6 -79 24 -125.5t95 -46.5q126 0 264 188q17 204 38 331t58 257q34 49 90 49q36 0 56.5 -20t21.5 -48.5t-8 -60.5q-182 -480 -190 -500q12 -93 62.5 -141.5t131.5 -48.5q117 0 195 118.5
t78 307.5q0 178 -109 348q18 18 53.5 31.5t67.5 13.5q52 0 82 -47t30 -174q0 -53 -13.5 -129t-38.5 -164.5t-66 -174.5t-90.5 -156.5t-117.5 -114t-142 -43.5q-99 0 -146.5 71t-40.5 209h-6q-77 -124 -188 -203.5t-201 -79.5q-86 0 -138 63.5t-46 154.5q3 43 21 94t40.5 95
t61.5 104t67.5 99t75.5 103l80 107v2h-262q-74 0 -74 -37q0 -17 13 -34t28.5 -29.5t56.5 -43.5q-18 -52 -50 -78t-69 -26q-39 0 -63.5 27.5t-24.5 66.5q0 45 28.5 101.5t71.5 106t100 83t109 33.5h285z" />
    <glyph glyph-name="Aacute.alt" horiz-adv-x="1351" 
d="M-123 0l8 45l121 39l916 1280l67 12l82 17v-1301l119 -49l-6 -43h-498l6 45l176 45v428h-446l-289 -424l193 -51l-9 -43h-440zM868 1171l-389 -569h389l2 569h-2zM1141 1790h182v-23l-295 -264h-74z" />
    <glyph glyph-name="Abreve.alt" horiz-adv-x="1351" 
d="M-123 0l8 45l121 39l916 1280l67 12l82 17v-1301l119 -49l-6 -43h-498l6 45l176 45v428h-446l-289 -424l193 -51l-9 -43h-440zM868 1171l-389 -569h389l2 569h-2zM1008 1495q-114 0 -173 73t-61 204h43q33 -79 80 -116.5t129 -37.5q143 0 236 154h41
q-24 -124 -101 -200.5t-194 -76.5z" />
    <glyph glyph-name="Acircumflex.alt" horiz-adv-x="1351" 
d="M-123 0l8 45l121 39l916 1280l67 12l82 17v-1301l119 -49l-6 -43h-498l6 45l176 45v428h-446l-289 -424l193 -51l-9 -43h-440zM868 1171l-389 -569h389l2 569h-2zM770 1503h-84l315 287h132l190 -287h-80l-199 176z" />
    <glyph glyph-name="Adieresis.alt" horiz-adv-x="1351" 
d="M-123 0l8 45l121 39l916 1280l67 12l82 17v-1301l119 -49l-6 -43h-498l6 45l176 45v428h-446l-289 -424l193 -51l-9 -43h-440zM868 1171l-389 -569h389l2 569h-2zM813 1544q-44 0 -76 32.5t-32 76.5t32 77t76 33t77.5 -33t33.5 -77t-33.5 -76.5t-77.5 -32.5zM1249 1544
q-45 0 -76.5 32t-31.5 77t31.5 77.5t76.5 32.5q44 0 76.5 -33t32.5 -77t-32.5 -76.5t-76.5 -32.5z" />
    <glyph glyph-name="Agrave.alt" horiz-adv-x="1351" 
d="M-123 0l8 45l121 39l916 1280l67 12l82 17v-1301l119 -49l-6 -43h-498l6 45l176 45v428h-446l-289 -424l193 -51l-9 -43h-440zM868 1171l-389 -569h389l2 569h-2zM750 1790h178l119 -287h-72l-225 264v23z" />
    <glyph glyph-name="Amacron.alt" horiz-adv-x="1351" 
d="M-123 0l8 45l121 39l916 1280l67 12l82 17v-1301l119 -49l-6 -43h-498l6 45l176 45v428h-446l-289 -424l193 -51l-9 -43h-440zM868 1171l-389 -569h389l2 569h-2zM731 1579l25 121h581l-24 -121h-582z" />
    <glyph glyph-name="Aogonek.alt" horiz-adv-x="1351" 
d="M-123 0l8 45l121 39l916 1280l67 12l82 17v-1301l119 -49l-6 -43h-281q-154 -95 -214 -162t-60 -123q0 -43 23 -67.5t67 -24.5q40 0 75 19.5t95 76.5l26 -24q-139 -205 -276 -205q-78 0 -120 43t-42 102q0 28 8 53.5t19 47.5t38.5 50t51 50t73.5 58.5t88.5 64t112.5 78.5
v481h-446l-289 -424l193 -51l-9 -43h-440zM868 1171l-389 -569h389l2 569h-2z" />
    <glyph glyph-name="Aring.alt" horiz-adv-x="1351" 
d="M-123 0l8 45l121 39l916 1280l67 12l82 17v-1301l119 -49l-6 -43h-498l6 45l176 45v428h-446l-289 -424l193 -51l-9 -43h-440zM848 1720q0 85 59.5 143t145.5 58q88 0 146 -57.5t58 -143.5q0 -85 -59 -142.5t-145 -57.5q-88 0 -146.5 57t-58.5 143zM868 1171l-389 -569
h389l2 569h-2zM922 1720q0 -59 38 -97t93 -38t93 38t38 97t-38 97t-93 38t-93 -38t-38 -97z" />
    <glyph glyph-name="Aringacute.alt" horiz-adv-x="1351" 
d="M-123 0l8 45l121 39l916 1280l67 12l82 17v-1301l119 -49l-6 -43h-498l6 45l176 45v428h-446l-289 -424l193 -51l-9 -43h-440zM854 1677q0 85 59.5 143t145.5 58q88 0 146.5 -57.5t58.5 -143.5q0 -85 -59.5 -142.5t-145.5 -57.5q-88 0 -146.5 57t-58.5 143zM868 1171
l-389 -569h389l2 569h-2zM928 1677q0 -59 38 -97t93 -38t93 38t38 97t-38 97t-93 38t-93 -38t-38 -97zM1262 2222h182v-22l-295 -265h-74z" />
    <glyph glyph-name="Atilde.alt" horiz-adv-x="1351" 
d="M-123 0l8 45l121 39l916 1280l67 12l82 17v-1301l119 -49l-6 -43h-498l6 45l176 45v428h-446l-289 -424l193 -51l-9 -43h-440zM868 1171l-389 -569h389l2 569h-2zM739 1536l-32 14l12 31q29 71 64 113t77.5 55t87 7.5t101.5 -27.5l59 -23q50 -19 75.5 -25t55.5 -1.5
t53 29t49 73.5l31 -17l-14 -34q-42 -101 -87.5 -145.5t-105 -44.5t-139.5 32l-57 22q-95 41 -140.5 32t-89.5 -91z" />
    <glyph glyph-name="Wacute.alt" horiz-adv-x="1839" 
d="M965 -14l4 964l-637 -964h-92l43 1282l-103 49l8 43h494l-8 -45l-178 -51l-47 -992l522 822v172l-101 51l7 43h491l-10 -45l-178 -51l-15 -996l602 998l-186 51l6 43h389l-8 -45l-98 -39l-811 -1290h-94zM1268 1790h182v-23l-295 -264h-74z" />
    <glyph glyph-name="Wcircumflex.alt" horiz-adv-x="1839" 
d="M965 -14l4 964l-637 -964h-92l43 1282l-103 49l8 43h494l-8 -45l-178 -51l-47 -992l522 822v172l-101 51l7 43h491l-10 -45l-178 -51l-15 -996l602 998l-186 51l6 43h389l-8 -45l-98 -39l-811 -1290h-94zM877 1503h-84l315 287h131l191 -287h-80l-199 176z" />
    <glyph glyph-name="Wdieresis.alt" horiz-adv-x="1839" 
d="M965 -14l4 964l-637 -964h-92l43 1282l-103 49l8 43h494l-8 -45l-178 -51l-47 -992l522 822v172l-101 51l7 43h491l-10 -45l-178 -51l-15 -996l602 998l-186 51l6 43h389l-8 -45l-98 -39l-811 -1290h-94zM930 1544q-44 0 -76.5 32.5t-32.5 76.5t32.5 77t76.5 33t77 -33
t33 -77t-33 -76.5t-77 -32.5zM1366 1544q-45 0 -77 32t-32 77t32 77.5t77 32.5q44 0 76.5 -33t32.5 -77t-32.5 -76.5t-76.5 -32.5z" />
    <glyph glyph-name="Wgrave.alt" horiz-adv-x="1839" 
d="M965 -14l4 964l-637 -964h-92l43 1282l-103 49l8 43h494l-8 -45l-178 -51l-47 -992l522 822v172l-101 51l7 43h491l-10 -45l-178 -51l-15 -996l602 998l-186 51l6 43h389l-8 -45l-98 -39l-811 -1290h-94zM877 1790h178l119 -287h-72l-225 264v23z" />
    <glyph glyph-name="hbar.alt" horiz-adv-x="974" 
d="M150 1143l18 69h139l37 144l-117 80l6 16l336 78l-82 -318h363l-19 -69h-362l-156 -596h9q268 450 481 450q147 0 141 -192q-2 -106 -35.5 -225t-88.5 -223.5t-121 -190.5t-139 -136t-136 -50q-31 0 -53.5 20.5t-22.5 50.5t35 80q34 -27 84 -42.5t74 -10.5q23 37 51 95
t62.5 147t58.5 201t26 218q0 103 -59 103q-43 0 -107 -54t-127.5 -140.5t-123 -206.5t-91.5 -240l-51 -185l-168 -45l-24 27l301 1145h-139z" />
    <glyph glyph-name="hcircumflex.alt" horiz-adv-x="974" 
d="M-12 -2l354 1348l-115 90l6 16l336 78l-256 -983h9q58 97 112.5 172.5t116 141t126 101t126.5 35.5q147 0 141 -192q-2 -132 -54 -282t-128 -268t-168 -196.5t-170 -78.5q-32 0 -54 20t-22 51q0 35 35 80q33 -27 83.5 -42.5t74.5 -10.5q23 37 51 95t62.5 147t58.5 201
t26 218q0 103 -61 103q-58 0 -145.5 -89t-173 -241t-128.5 -311l-51 -185l-168 -45zM506 1567h-84l315 286h131l191 -286h-80l-199 176z" />
    <glyph glyph-name="wacute.alt" horiz-adv-x="1435" 
d="M1090 1550h157v-16l-282 -399h-54zM647 969v-19l-98 -166q-91 -149 -143.5 -257.5t-59.5 -196.5q-6 -79 24 -125.5t95 -46.5q126 0 264 188q17 204 38 331t58 257q34 49 90 49q36 0 56.5 -20t21.5 -48.5t-8 -60.5q-182 -480 -190 -500q12 -93 62.5 -141.5t131.5 -48.5
q117 0 195 118.5t78 307.5q0 178 -109 348q18 18 53.5 31.5t67.5 13.5q52 0 82 -47t30 -174q0 -53 -13.5 -129t-38.5 -164.5t-66 -174.5t-90.5 -156.5t-117.5 -114t-142 -43.5q-99 0 -146.5 71t-40.5 209h-6q-77 -124 -188 -203.5t-201 -79.5q-86 0 -138 63.5t-46 154.5
q8 101 77.5 220t188.5 275l80 107v2h-262q-74 0 -74 -37q0 -17 13 -34t28.5 -29.5t56.5 -43.5q-18 -52 -50 -78t-69 -26q-39 0 -63.5 27.5t-24.5 66.5q0 45 28.5 101.5t71.5 106t100 83t109 33.5h285z" />
    <glyph glyph-name="wcircumflex.alt" horiz-adv-x="1435" 
d="M647 969v-19l-98 -166q-51 -86 -72 -123t-57.5 -108t-53 -123.5t-20.5 -99.5q-6 -79 24 -125.5t95 -46.5q126 0 264 188q17 204 38 331t58 257q34 49 90 49q36 0 56.5 -20t21.5 -48.5t-8 -60.5q-182 -480 -190 -500q12 -93 62.5 -141.5t131.5 -48.5q117 0 195 118.5
t78 307.5q0 178 -109 348q18 18 53.5 31.5t67.5 13.5q52 0 82 -47t30 -174q0 -53 -13.5 -129t-38.5 -164.5t-66 -174.5t-90.5 -156.5t-117.5 -114t-142 -43.5q-99 0 -146.5 71t-40.5 209h-6q-77 -124 -188 -203.5t-201 -79.5q-86 0 -138 63.5t-46 154.5q8 101 77.5 220
t188.5 275l80 107v2h-262q-74 0 -74 -37q0 -17 13 -34t28.5 -29.5t56.5 -43.5q-18 -52 -50 -78t-69 -26q-39 0 -63.5 27.5t-24.5 66.5q0 45 28.5 101.5t71.5 106t100 83t109 33.5h285zM768 1135h-63l282 415h86l105 -415h-60l-119 268z" />
    <glyph glyph-name="wdieresis.alt" horiz-adv-x="1435" 
d="M819 1266q-46 0 -77 31t-31 77q0 45 31.5 78t76.5 33q44 0 76.5 -33.5t32.5 -77.5q0 -45 -32 -76.5t-77 -31.5zM1174 1266q-44 0 -75.5 31t-31.5 77q0 45 31.5 78t75.5 33q45 0 77.5 -33t32.5 -78q0 -46 -32 -77t-78 -31zM647 969v-19l-98 -166q-91 -149 -143.5 -257.5
t-59.5 -196.5q-6 -79 24 -125.5t95 -46.5q126 0 264 188q17 204 38 331t58 257q34 49 90 49q36 0 56.5 -20t21.5 -48.5t-8 -60.5q-182 -480 -190 -500q12 -93 62.5 -141.5t131.5 -48.5q117 0 195 118.5t78 307.5q0 178 -109 348q18 18 53.5 31.5t67.5 13.5q52 0 82 -47
t30 -174q0 -53 -13.5 -129t-38.5 -164.5t-66 -174.5t-90.5 -156.5t-117.5 -114t-142 -43.5q-99 0 -146.5 71t-40.5 209h-6q-77 -124 -188 -203.5t-201 -79.5q-86 0 -138 63.5t-46 154.5q8 101 77.5 220t188.5 275l80 107v2h-262q-74 0 -74 -37q0 -17 13 -34t28.5 -29.5
t56.5 -43.5q-18 -52 -50 -78t-69 -26q-39 0 -63.5 27.5t-24.5 66.5q0 45 28.5 101.5t71.5 106t100 83t109 33.5h285z" />
    <glyph glyph-name="wgrave.alt" horiz-adv-x="1435" 
d="M647 969v-19l-98 -166q-91 -149 -143.5 -257.5t-59.5 -196.5q-6 -79 24 -125.5t95 -46.5q126 0 264 188q17 204 38 331t58 257q34 49 90 49q36 0 56.5 -20t21.5 -48.5t-8 -60.5q-182 -480 -190 -500q12 -93 62.5 -141.5t131.5 -48.5q117 0 195 118.5t78 307.5
q0 178 -109 348q18 18 53.5 31.5t67.5 13.5q52 0 82 -47t30 -174q0 -53 -13.5 -129t-38.5 -164.5t-66 -174.5t-90.5 -156.5t-117.5 -114t-142 -43.5q-99 0 -146.5 71t-40.5 209h-6q-77 -124 -188 -203.5t-201 -79.5q-86 0 -138 63.5t-46 154.5q8 101 77.5 220t188.5 275
l80 107v2h-262q-74 0 -74 -37q0 -17 13 -34t28.5 -29.5t56.5 -43.5q-18 -52 -50 -78t-69 -26q-39 0 -63.5 27.5t-24.5 66.5q0 45 28.5 101.5t71.5 106t100 83t109 33.5h285zM754 1550h161l58 -415h-49l-170 397v18z" />
    <glyph glyph-name="bullet.alt" horiz-adv-x="690" 
d="M639 1384q0 -19 -8.5 -40.5t-18.5 -37.5t-28.5 -36.5t-28.5 -30.5t-29 -27t-20 -18h-14q-1 2 -15 28.5t-24 47t-19.5 51t-9.5 53.5q0 44 33 75.5t84 31.5q43 0 70.5 -30t27.5 -67zM291 1305q18 0 34 -4t32 -15.5t26.5 -19.5t26.5 -29t22 -29.5t24 -35t23 -33.5h15
q75 58 111 78t77 20q52 0 82.5 -32.5t30.5 -78.5q0 -58 -37 -95.5t-90 -37.5q-15 0 -29 3t-29 11.5t-25 14t-26.5 20.5t-22.5 21t-25 25.5t-24 23.5h-6q-49 -46 -49 -98q0 -25 19 -53t37.5 -45t58.5 -50q38 -30 60 -51.5t41.5 -54.5t19.5 -66q0 -62 -49 -94.5t-109 -17.5
q-22 -50 -82 -50q-39 0 -65 23t-54 80q-4 8 -13 28.5t-16.5 33.5t-19 28t-27.5 23t-36 8q-35 0 -56 -23.5t-28 -58.5h-21q-12 67 25.5 113.5t99.5 46.5q43 0 76.5 -24.5t51.5 -54.5t42 -54.5t49 -24.5q29 0 43.5 16.5t14.5 42.5q0 30 -21.5 60t-47.5 52t-47.5 56.5
t-21.5 71.5q0 73 90 143l-2 4q-101 -32 -157 -32q-49 0 -78 31t-29 79q0 46 32 75.5t79 29.5z" />
    <glyph glyph-name="f.short" horiz-adv-x="622" 
d="M74 887l12 82h186q46 150 130 280t178.5 205.5t173.5 75.5q64 0 101.5 -27t37.5 -67q-1 -37 -23 -66t-59 -61q-61 79 -83 98q-29 23 -58 23q-33 0 -62.5 -35t-67 -140t-77.5 -286h242l-21 -82h-240l-163 -819q-53 -261 -189 -428.5t-303 -167.5q-48 0 -94.5 33.5
t-46.5 84.5q0 45 25.5 77.5t58.5 49.5q89 -157 172 -157q46 0 78 74t67 247l201 1006h-176z" />
    </font>
</defs>
</svg>
