<?xml version="1.0" standalone="no"?>
<!DOCTYPE svg PUBLIC "-//W3C//DTD SVG 1.1//EN" "http://www.w3.org/Graphics/SVG/1.1/DTD/svg11.dtd" >
<svg xmlns="http://www.w3.org/2000/svg" xmlns:xlink="http://www.w3.org/1999/xlink" version="1.1">
<metadata>
Created by FontForge 20170731 at Thu Dec 24 14:22:14 2020
 By Aleksey,,,
(c)2010 Kai Bernau and Commercial Type.
</metadata>
<defs>
<font id="LyonDisplay-Medium" horiz-adv-x="819" >
  <font-face 
    font-family="Lyon Display Medium"
    font-weight="500"
    font-stretch="normal"
    units-per-em="2048"
    panose-1="2 0 6 3 8 0 0 2 0 4"
    ascent="1638"
    descent="-410"
    x-height="989"
    cap-height="1360"
    bbox="-348 -520 2441 2220"
    underline-thickness="102"
    underline-position="-409"
    unicode-range="U+0020-FB04"
  />
<missing-glyph horiz-adv-x="339" 
 />
    <glyph glyph-name="f_f" unicode="ff" horiz-adv-x="1323" 
d="M797 92v801h-365v-801l133 -35v-57h-518v57l125 35v793h-147v63l151 45q41 217 192 354.5t347 137.5q140 0 243 -96q67 70 153 108.5t173 38.5q112 0 200.5 -54.5t88.5 -133.5q0 -52 -31 -82.5t-74 -38.5t-94 0l-47 190q-48 45 -110 45q-70 0 -118.5 -70.5t-45.5 -222.5
l2 -180h272v-96h-270v-801l157 -35v-57h-534v57zM637 1405q-40 0 -74.5 -16.5t-66 -54.5t-49.5 -111.5t-17 -175.5v-58h367q3 118 45 221q-27 91 -80 143t-125 52z" />
    <glyph glyph-name="f_i" unicode="fi" horiz-adv-x="1218" 
d="M682 0v57l115 35v801h-365v-801l133 -35v-57h-518v57l125 35v793h-147v63l149 45q13 155 92 279.5t202.5 194t266.5 69.5q123 0 212 -60t89 -139q0 -54 -41 -88.5t-110 -34.5q-42 0 -60 9l-57 180q-16 22 -50.5 37.5t-76.5 15.5q-95 0 -153.5 -84.5t-57.5 -279.5v-103
h520l109 29v-926l135 -37v-55h-512z" />
    <glyph glyph-name="f_l" unicode="fl" horiz-adv-x="1220" 
d="M682 0v57l115 35v801h-365v-801l133 -35v-57h-518v57l125 35v793h-147v63l149 45q13 154 88 278.5t195.5 194.5t263.5 70q105 0 197 -57l139 51v-1438l135 -35v-57h-510zM633 1456q-93 0 -148 -83.5t-55 -262.5v-121h367v330q-62 137 -164 137z" />
    <glyph glyph-name="f_f_i" unicode="ffi" horiz-adv-x="1843" 
d="M682 0v57l115 35v801h-365v-801l133 -35v-57h-518v57l125 35v793h-147v63l151 45q41 216 192 354t347 138q145 0 252 -107q77 75 178 116.5t211 41.5q126 0 215.5 -60t89.5 -139q0 -54 -41.5 -88.5t-110.5 -34.5q-32 0 -59 9l-55 182q-47 51 -129 51q-95 0 -153.5 -84.5
t-57.5 -279.5v-103h520l108 29v-926l136 -35v-57h-510v57l114 35v801h-366v-801l133 -35v-57h-508zM637 1405q-40 0 -74.5 -16.5t-66 -54.5t-49.5 -111.5t-17 -175.5v-58h369q6 103 43 199q-26 102 -77.5 159.5t-127.5 57.5z" />
    <glyph glyph-name="f_f_l" unicode="ffl" horiz-adv-x="1847" 
d="M682 0v57l115 35v801h-365v-801l133 -35v-57h-518v57l125 35v793h-147v63l151 45q41 217 192 354.5t347 137.5q145 0 252 -107q77 76 174 117t200 41q113 0 203 -57l139 51v-1438l136 -35v-57h-510v57l114 35v801h-366v-801l133 -35v-57h-508zM1057 1110v-121h366v330
q-62 137 -168 137q-90 0 -144.5 -83.5t-53.5 -262.5zM637 1405q-40 0 -74.5 -16.5t-66 -54.5t-49.5 -111.5t-17 -175.5v-58h367q6 106 45 201q-26 101 -78 158t-127 57z" />
    <glyph glyph-name="f_b" unicode="fb" horiz-adv-x="1824" 
d="M1145 -33q-150 0 -273 53l-75 33v1272q-62 131 -164 131q-93 0 -148 -83.5t-55 -262.5v-121h242v-96h-240v-801l156 -35v-57h-541v57l125 35v793h-147v63l147 45q19 231 176 387t373 156q105 0 197 -57l139 51v-672q54 62 134.5 110t182.5 48q74 0 141.5 -27.5t124 -81.5
t90 -145t33.5 -207q0 -121 -55 -232t-143 -188t-199 -122.5t-221 -45.5zM1214 872q-87 0 -157 -61v-661q17 -34 63.5 -64.5t120.5 -30.5q111 0 184.5 103.5t73.5 292.5q0 182 -85.5 301.5t-199.5 119.5z" />
    <glyph glyph-name="f_f_b" unicode="ffb" horiz-adv-x="2447" 
d="M682 0v57l115 35v801h-365v-801l133 -35v-57h-518v57l125 35v793h-147v63l151 45q41 217 192 354.5t347 137.5q145 0 254 -109q76 76 173.5 118t200.5 42q113 0 199 -57l139 51v-670q54 60 135.5 108t182.5 48q74 0 141 -27.5t123 -81.5t89.5 -145t33.5 -207
q0 -121 -55.5 -232t-143.5 -188t-199 -122.5t-221 -45.5q-149 0 -272 53l-74 33v1266q-62 137 -164 137q-91 0 -147 -87t-55 -265v-115h241v-96h-239v-801l157 -35v-57h-532zM1839 872q-88 0 -158 -61v-661q18 -35 65 -65t120 -30q112 0 185 103.5t73 292.5
q0 182 -85.5 301.5t-199.5 119.5zM637 1405q-40 0 -74.5 -16.5t-66 -54.5t-49.5 -111.5t-17 -175.5v-58h367q6 107 45 199q-26 102 -77.5 159.5t-127.5 57.5z" />
    <glyph glyph-name="f_f_h" unicode="ffh" horiz-adv-x="2461" 
d="M682 0v57l115 35v801h-365v-801l133 -35v-57h-518v57l125 35v793h-147v63l151 45q41 217 192 354.5t347 137.5q145 0 252 -107q77 75 174.5 116.5t201.5 41.5q106 0 201 -57l139 51v-692q27 28 59 54.5t78.5 57.5t102 49.5t109.5 18.5q139 0 209.5 -78t70.5 -252v-596
l129 -37v-55h-504v57l115 35v561q-3 94 -47.5 148t-132.5 53q-91 0 -189 -78v-684l117 -35v-57h-491v57l114 35v1227q-62 137 -166 137q-92 0 -146.5 -83.5t-53.5 -262.5v-121h239v-96h-239v-801l133 -35v-57h-508zM637 1405q-40 0 -74.5 -16.5t-66 -54.5t-49.5 -111
t-17 -174v-60h367q6 106 45 201q-26 101 -78 158t-127 57z" />
    <glyph glyph-name="f_f_j" unicode="ffj" horiz-adv-x="1832" 
d="M682 0v57l115 35v801h-365v-801l133 -35v-57h-518v57l125 35v793h-147v63l151 45q41 216 192 354t347 138q149 0 256 -111q78 77 180.5 119.5t210.5 42.5q122 0 210.5 -60t88.5 -139q0 -54 -41.5 -88.5t-110.5 -34.5q-32 0 -59 9l-55 182q-47 51 -129 51
q-95 0 -153.5 -84.5t-57.5 -279.5v-103h520l106 29v-905q0 -88 -2 -135t-10.5 -106.5t-28.5 -100.5t-53 -76q-39 -41 -85.5 -72.5t-99.5 -53.5t-88.5 -33.5t-86.5 -24.5l-13 38q82 50 124.5 105t62 141.5t22.5 233.5v864h-366v-801l157 -35v-57h-532zM637 1405
q-40 0 -74.5 -16.5t-66 -54.5t-49.5 -111.5t-17 -175.5v-58h369q6 103 45 195q-26 103 -78.5 162t-128.5 59z" />
    <glyph glyph-name="f_f_k" unicode="ffk" horiz-adv-x="2385" 
d="M682 0v57l115 35v801h-365v-801l133 -35v-57h-518v57l125 35v793h-147v63l151 45q41 217 192 354.5t347 137.5q145 0 252 -107q77 75 174.5 116.5t201.5 41.5q106 0 201 -57l139 51v-1438l119 -35v-57h-495v57l116 35v1227q-62 137 -168 137q-90 0 -144.5 -83.5
t-53.5 -262.5v-121h239v-96h-239v-801l133 -35v-57h-508zM2228 -29q-141 0 -225 117l-305 430l375 356l-154 62v53h442v-49l-147 -51l-301 -262l473 -607q-7 -5 -20.5 -13.5t-55 -22t-82.5 -13.5zM637 1405q-40 0 -74.5 -16.5t-66 -54.5t-49.5 -111.5t-17 -175.5v-58h367
q6 106 45 201q-26 101 -78 158t-127 57z" />
    <glyph glyph-name="f_h" unicode="fh" horiz-adv-x="1835" 
d="M682 0v57l115 35v1233q-62 131 -164 131q-93 0 -148 -83.5t-55 -262.5v-121h242v-96h-240v-801l133 -35v-57h-518v57l125 35v793h-147v63l147 45q19 231 176 387t373 156q105 0 197 -57l139 51v-692q27 28 59 54.5t78 57.5t102 49.5t111 18.5q139 0 210 -78t71 -252v-596
l127 -37v-55h-496v57l108 35v561q-5 95 -48.5 148.5t-131.5 52.5q-92 0 -190 -78v-684l119 -35v-57h-494z" />
    <glyph glyph-name="f_j" unicode="fj" horiz-adv-x="1206" 
d="M600 -489l-10 38q81 50 123 105t62 141.5t22 233.5v864h-365v-801l156 -35v-57h-541v57l125 35v793h-147v63l149 45q13 155 92 279.5t202.5 194t266.5 69.5q123 0 212 -60t89 -139q0 -54 -41 -88.5t-110 -34.5q-42 0 -60 9l-57 180q-17 21 -51 37t-76 16
q-95 0 -153.5 -84.5t-57.5 -279.5v-103h518l109 29v-905q0 -170 -16.5 -261t-79.5 -157q-38 -41 -84.5 -72.5t-99.5 -53.5t-89 -33.5t-88 -24.5z" />
    <glyph glyph-name="f_k" unicode="fk" horiz-adv-x="1759" 
d="M682 0v57l115 35v1227q-62 137 -164 137q-93 0 -148 -83.5t-55 -262.5v-121h242v-96h-240v-801l133 -35v-57h-518v57l125 35v793h-147v63l147 45q19 231 176 387t373 156q105 0 197 -57l139 51v-1438l119 -35v-57h-494zM1602 -29q-76 0 -130 28.5t-96 88.5l-305 430
l373 356l-154 62v53h445v-49l-148 -51l-301 -262l473 -607q-8 -5 -21.5 -13.5t-54.5 -22t-81 -13.5z" />
    <glyph glyph-name=".notdef" horiz-adv-x="339" 
 />
    <glyph glyph-name=".null" horiz-adv-x="0" 
 />
    <glyph glyph-name="nonmarkingreturn" horiz-adv-x="682" 
 />
    <glyph glyph-name="space" unicode=" " horiz-adv-x="339" 
 />
    <glyph glyph-name="exclam" unicode="!" horiz-adv-x="579" 
d="M139 1440h303l-123 -1034h-57zM289 -23q-62 0 -108 45.5t-46 106.5q0 63 46 108.5t108 45.5q63 0 108 -45.5t45 -108.5q0 -62 -45 -107t-108 -45z" />
    <glyph glyph-name="quotedbl" unicode="&#x22;" horiz-adv-x="907" 
d="M227 950l-94 529h248l-111 -529h-43zM621 950l-95 529h248l-110 -529h-43z" />
    <glyph glyph-name="numbersign" unicode="#" horiz-adv-x="1198" 
d="M162 815v84h254l57 318h80l-57 -318h321l57 318h78l-57 -318h248v-84h-262l-70 -391h242v-84h-256l-60 -340h-78l60 340h-322l-59 -340h-80l59 340h-245v84h260l69 391h-239zM481 815l-69 -391h321l70 391h-322z" />
    <glyph glyph-name="dollar" unicode="$" horiz-adv-x="1163" 
d="M137 57l-20 381h55l129 -317q78 -59 193 -72l43 477l-91 29q-158 48 -229.5 140t-71.5 225q0 159 123.5 275.5t341.5 125.5l21 217h71l-20 -219q152 -10 313 -82v-344h-55l-109 285q-62 52 -157 65l-41 -461l129 -39q159 -50 231 -130t72 -197q0 -101 -45 -187.5
t-118 -142t-162.5 -88t-182.5 -35.5l-20 -219h-72l20 221q-169 10 -348 92zM625 502l-19 4l-43 -461q104 3 181 68.5t77 169.5q0 82 -47.5 135t-148.5 84zM373 1028q0 -85 42.5 -136t147.5 -87l41 442q-101 -6 -166 -67t-65 -152z" />
    <glyph glyph-name="percent" unicode="%" horiz-adv-x="1701" 
d="M332 -102l921 1392h86l-925 -1392h-82zM412 1180q-61 0 -93 -65.5t-32 -158.5q0 -83 21 -160.5t61.5 -129.5t91.5 -52q58 0 90.5 66t32.5 160q0 133 -51.5 236.5t-120.5 103.5zM430 551q-145 0 -238.5 96t-93.5 238q0 153 101.5 255.5t238.5 102.5q146 0 240 -99.5
t94 -236.5q0 -153 -99.5 -254.5t-242.5 -101.5zM1223 594q-60 0 -92.5 -65t-32.5 -158q0 -83 21 -160t61.5 -128.5t91.5 -51.5q59 0 91 65t32 160q0 133 -50.5 235.5t-121.5 102.5zM1243 -35q-145 0 -238.5 96t-93.5 240q0 152 100.5 255t237.5 103q147 0 240.5 -100
t93.5 -237q0 -153 -99.5 -255t-240.5 -102z" />
    <glyph glyph-name="ampersand" unicode="&#x26;" horiz-adv-x="1640" 
d="M1612 932l-180 -49l-277 -439q-4 -7 -47 -69q105 -132 166.5 -185t130.5 -53q74 0 172 56l29 -37q-83 -90 -165.5 -139t-180.5 -48q-95 3 -155.5 44.5t-158.5 162.5q-217 -217 -442 -217q-107 0 -192 31.5t-139 86t-82 124t-28 149.5q0 226 353 408q-99 97 -139.5 163
t-40.5 152q0 100 63 176t161 114t212 38q168 0 266 -68t98 -178q0 -106 -79 -178t-248 -150q100 -100 204 -217l152 -180q29 46 76 127l178 326l-180 49v57h473v-57zM713 453q-78 88 -250 260q-81 -64 -116.5 -123t-35.5 -139q0 -128 90.5 -216t233.5 -88q145 0 258 91
q-155 186 -180 215zM467 1155q0 -46 22.5 -88.5t47.5 -70t103 -102.5q14 -15 22 -22q87 70 122 133t35 146q0 76 -50.5 130t-127.5 54q-74 0 -124 -49t-50 -131z" />
    <glyph glyph-name="quotesingle" unicode="'" horiz-adv-x="514" 
d="M227 950l-94 529h248l-111 -529h-43z" />
    <glyph glyph-name="parenleft" unicode="(" horiz-adv-x="706" 
d="M696 -369h-86q-199 188 -310.5 427t-111.5 501q0 266 114.5 507.5t313.5 432.5h89q-170 -221 -252 -440t-82 -500q0 -272 80 -491.5t245 -436.5z" />
    <glyph glyph-name="parenright" unicode=")" horiz-adv-x="706" 
d="M10 1499h84q199 -188 310.5 -427t111.5 -501q0 -267 -114.5 -508.5t-313.5 -431.5h-86q169 221 250.5 440t81.5 500q0 271 -80 491t-244 437z" />
    <glyph glyph-name="asterisk" unicode="*" horiz-adv-x="804" 
d="M764 1059l-260 -27l18 -268l-41 -8l-104 245l-248 -100l-20 33l204 176l-172 201l25 28l229 -133l140 224l36 -13l-59 -258l254 -63z" />
    <glyph glyph-name="plus" unicode="+" horiz-adv-x="1187" 
d="M1079 453h-438v-441h-94v441h-438v88h438v440h94v-440h438v-88z" />
    <glyph glyph-name="comma" unicode="," horiz-adv-x="550" 
d="M104 -352l-36 51q194 133 194 266q0 59 -35 103t-96 61q-11 64 27 115t110 51q70 0 122 -61.5t52 -155.5q0 -128 -82.5 -228.5t-255.5 -201.5z" />
    <glyph glyph-name="hyphen" unicode="-" horiz-adv-x="761" 
d="M115 487v158h532v-158h-532z" />
    <glyph glyph-name="period" unicode="." horiz-adv-x="516" 
d="M262 -23q-62 0 -107.5 45.5t-45.5 106.5q0 63 45.5 108.5t107.5 45.5q63 0 108.5 -45.5t45.5 -108.5q0 -62 -45.5 -107t-108.5 -45z" />
    <glyph glyph-name="slash" unicode="/" horiz-adv-x="860" 
d="M6 -434l-74 33l803 1939l76 -33z" />
    <glyph glyph-name="zero" unicode="0" horiz-adv-x="1275" 
d="M588 997q-103 0 -163 -95.5t-60 -266.5q0 -103 20 -204.5t58 -191t103.5 -145t147.5 -55.5q103 0 160 98t57 279q0 149 -41 281.5t-116 216t-166 83.5zM643 -35q-249 0 -405 154t-156 395q0 150 76.5 279.5t204.5 204.5t274 75q162 0 290 -71.5t198.5 -197t70.5 -280.5
q0 -114 -44.5 -217.5t-119 -178t-176.5 -119t-213 -44.5z" />
    <glyph glyph-name="one" unicode="1" horiz-adv-x="827" 
d="M580 1061v-961l215 -34v-66h-709v66l229 32v789h-249v65l505 109h9z" />
    <glyph glyph-name="two" unicode="2" horiz-adv-x="954" 
d="M446 315l-131 -116h590v-199h-835v68l118 108q104 104 162 166.5t110 129t72.5 118t20.5 102.5q0 88 -52.5 143.5t-135.5 55.5q-66 0 -118 -35t-104 -106l-51 24q51 142 148.5 222.5t232.5 80.5q144 0 232 -81t88 -208q0 -63 -24 -122.5t-76 -120t-106 -110t-141 -120.5z
" />
    <glyph glyph-name="three" unicode="3" horiz-adv-x="917" 
d="M260 -424q-98 0 -174 47.5t-76 118.5q0 49 35.5 86.5t93.5 40.5q26 -37 87.5 -118t84.5 -101q132 6 210.5 88t78.5 215q0 135 -107.5 222.5t-295.5 86.5v105l71 14q287 123 287 317q0 91 -55.5 145t-139.5 54q-133 0 -225 -145l-55 24q45 134 143.5 217.5t235.5 83.5
q152 0 242 -82t90 -209q0 -61 -21.5 -113t-63 -94.5t-82 -72t-98.5 -62.5l-57 -32v-4q101 -6 185 -47.5t138 -122t54 -185.5q0 -103 -54 -194t-139.5 -152t-189 -96t-203.5 -35z" />
    <glyph glyph-name="four" unicode="4" horiz-adv-x="1218" 
d="M672 -395v430h-627v102l797 928l76 -6v-848h272v-176h-272v-430h-246zM205 211h467v553z" />
    <glyph glyph-name="five" unicode="5" horiz-adv-x="821" 
d="M420 100q0 123 -70.5 226.5t-236.5 234.5l159 481h443v-225h-447l-16 -49q226 -153 324 -283t98 -295q0 -425 -643 -663l-23 49q412 211 412 524z" />
    <glyph glyph-name="six" unicode="6" horiz-adv-x="1224" 
d="M1153 1409q-83 -37 -161 -79.5t-162 -100.5t-154.5 -121t-132.5 -142t-101 -163q129 94 260 94q185 0 306.5 -120.5t121.5 -313.5q0 -141 -74 -258t-193 -181.5t-253 -64.5q-106 0 -200 36.5t-164 104t-111 170t-41 226.5q0 142 60 276.5t161 242t235 198.5t282 154
t303 101zM563 788q-79 0 -143 -38q-41 -112 -41 -232q0 -229 82.5 -357t197.5 -128q96 0 149.5 83.5t53.5 227.5q0 120 -36.5 221t-105.5 162t-157 61z" />
    <glyph glyph-name="seven" unicode="7" horiz-adv-x="1042" 
d="M211 -424l-119 57l711 1166h-725v243h932v-14l-645 -1155z" />
    <glyph glyph-name="eight" unicode="8" horiz-adv-x="1116" 
d="M78 299q0 41 11 78t27 65.5t44.5 56.5t52 47t61 41.5t61 34.5t62.5 31q-142 85 -201 164t-59 199q0 73 34.5 142t94.5 122.5t149 86t191 32.5q175 0 286.5 -91t111.5 -214q0 -51 -20 -97.5t-48.5 -79.5t-72 -65t-76 -50.5t-76.5 -39.5q174 -96 250.5 -192t76.5 -216
q0 -117 -70 -208.5t-183 -139t-246 -47.5q-199 0 -330 94.5t-131 245.5zM539 567l-90 56q-127 -121 -127 -281q0 -130 73.5 -222.5t190.5 -92.5q100 0 155.5 62t55.5 155q0 99 -64.5 172.5t-193.5 150.5zM362 1130q0 -87 45 -150.5t144 -121.5l104 -63q121 124 121 262
q0 132 -67.5 204t-155.5 72q-80 0 -135.5 -54.5t-55.5 -148.5z" />
    <glyph glyph-name="nine" unicode="9" horiz-adv-x="1210" 
d="M82 -375q550 246 700 608q-122 -92 -260 -92q-186 0 -309 122t-123 317q0 135 71 249.5t189.5 180t253.5 65.5q105 0 199 -38t165 -107t112.5 -172t41.5 -226q0 -155 -60.5 -294.5t-160 -244t-234.5 -191.5t-275.5 -144t-291.5 -94zM666 248q80 0 135 39q37 107 37 231
q0 223 -79 353t-192 130q-95 0 -151 -81.5t-56 -231.5q0 -183 86.5 -311.5t219.5 -128.5z" />
    <glyph glyph-name="colon" unicode=":" horiz-adv-x="546" 
d="M279 -23q-62 0 -108 45.5t-46 106.5q0 63 46 108.5t108 45.5q63 0 108 -45.5t45 -108.5q0 -62 -45 -107t-108 -45zM276 686q-62 0 -106.5 45.5t-44.5 108.5q0 62 44.5 106.5t106.5 44.5q63 0 108.5 -44.5t45.5 -106.5q0 -63 -45.5 -108.5t-108.5 -45.5z" />
    <glyph glyph-name="semicolon" unicode=";" horiz-adv-x="552" 
d="M109 -352l-37 51q194 135 194 266q0 59 -35 103t-96 61q-11 64 27 115t110 51q70 0 122 -61.5t52 -155.5q0 -128 -82.5 -228.5t-254.5 -201.5zM287 686q-62 0 -107 45.5t-45 108.5q0 61 45 106t107 45q63 0 108 -44.5t45 -106.5q0 -63 -45 -108.5t-108 -45.5z" />
    <glyph glyph-name="less" unicode="&#x3c;" horiz-adv-x="1204" 
d="M1085 887l-847 -393l847 -390v-98l-968 455v69l968 453v-96z" />
    <glyph glyph-name="equal" unicode="=" horiz-adv-x="1187" 
d="M1079 610h-970v86h970v-86zM1079 322h-970v86h970v-86z" />
    <glyph glyph-name="greater" unicode="&#x3e;" horiz-adv-x="1204" 
d="M119 102l846 392l-846 391v98l966 -455v-69l-966 -453v96z" />
    <glyph glyph-name="question" unicode="?" horiz-adv-x="806" 
d="M147 1178v272l84 -18q92 -20 181 -66t163.5 -110t120 -152t45.5 -182q0 -112 -58 -183t-187 -112l-183 -58l6 -163h-77l-54 358l301 82q95 26 136 56t41 73q0 71 -106.5 123.5t-317.5 70.5zM283 -23q-62 0 -108 45.5t-46 106.5q0 63 46 108.5t108 45.5q63 0 108 -45.5
t45 -108.5q0 -62 -45 -107t-108 -45z" />
    <glyph glyph-name="at" unicode="@" horiz-adv-x="1935" 
d="M1028 317l23 76h-7q-4 -5 -31.5 -45t-41.5 -59q-173 -244 -316 -244q-76 0 -119.5 53t-43.5 138q0 121 60.5 252t151.5 230.5t201 164.5t205 65q55 0 127 -37l25 70h170l-181 -635q-25 -83 -19.5 -132.5t30 -70t71.5 -20.5q42 0 89.5 19.5t97 62.5t90 103t66 151.5
t26.5 197.5q1 175 -80 319t-227 227t-326 83q-99 0 -197 -28t-186.5 -79t-164.5 -127.5t-131.5 -169.5t-87.5 -209.5t-32 -242.5q-1 -173 54 -311t152 -226.5t225 -135t278 -46.5q155 0 313 58v-35q-38 -24 -152.5 -56t-240.5 -32t-241 25.5t-219 82.5t-179.5 140
t-120 206.5t-43.5 274.5q0 135 41.5 263.5t112.5 235t169 196.5t210.5 151.5t237.5 96t249 34.5q165 0 303 -52t230 -142t143 -210t51 -256q0 -122 -40.5 -230t-106 -183.5t-147.5 -131t-165.5 -82t-158.5 -26.5q-126 0 -181 73.5t-16 204.5zM793 211q43 0 112.5 77t133 188
t94.5 208l43 135q-55 66 -105 66q-56 0 -117.5 -57.5t-109 -143.5t-78.5 -191t-31 -196q0 -86 58 -86z" />
    <glyph glyph-name="A" unicode="A" horiz-adv-x="1400" 
d="M-12 0v59l143 37l485 1274l74 16l90 19l494 -1313l139 -33v-59h-612v59l162 35l-132 365h-469l-129 -355l234 -45v-59h-479zM598 1112l-199 -549h396z" />
    <glyph glyph-name="B" unicode="B" horiz-adv-x="1300" 
d="M61 0v59l158 39v1164l-158 38v60l537 2q125 1 220.5 -13.5t157.5 -40t101.5 -64t55.5 -82.5t16 -99q0 -70 -31 -126.5t-86.5 -94.5t-123 -63t-150.5 -40v-4q140 -5 247 -43.5t173.5 -119t66.5 -195.5q0 -188 -159.5 -284.5t-458.5 -94.5zM649 692h-149v-524
q21 -43 74 -72.5t116 -29.5q124 0 191 71t67 205q0 143 -88 240.5t-211 109.5zM500 1298v-544q192 12 282 79t90 195q0 129 -99 199.5t-273 70.5z" />
    <glyph glyph-name="C" unicode="C" horiz-adv-x="1474" 
d="M838 -41q-149 0 -274.5 39t-212 105t-147 155t-88.5 187t-28 202q0 157 64.5 296.5t173.5 238.5t258 157t313 58q220 0 436 -107l6 -372h-59l-131 294q-135 111 -301 111q-188 0 -311 -165t-123 -429q0 -166 38.5 -299.5t105 -218t154 -129.5t187.5 -45q144 0 248 88
l192 330h62l-70 -377q-135 -61 -248.5 -90t-244.5 -29z" />
    <glyph glyph-name="D" unicode="D" horiz-adv-x="1574" 
d="M500 1305v-1168q34 -34 96.5 -52.5t132.5 -16.5q204 3 332.5 169.5t128.5 421.5q0 159 -54.5 285.5t-149 206t-219 119.5t-267.5 35zM61 0v61l158 37v1162l-158 40v60l648 4q231 -6 407.5 -85t276.5 -226.5t100 -343.5q0 -156 -62.5 -288t-177.5 -227t-287.5 -147
t-383.5 -51z" />
    <glyph glyph-name="E" unicode="E" horiz-adv-x="1267" 
d="M748 662h-246v-531q41 -49 123 -55h307l217 364h63l-94 -440h-1057v59l158 39v1159l-158 43v60h918l164 4v-387h-62l-123 309h-456v-543h246l65 209h59v-489h-63z" />
    <glyph glyph-name="F" unicode="F" horiz-adv-x="1189" 
d="M760 649h-258v-551l211 -30v-68h-652v61l158 37v1159l-158 43v60h895l172 4v-385h-63l-121 305h-442v-555h258l69 211h58v-491h-60z" />
    <glyph glyph-name="G" unicode="G" horiz-adv-x="1552" 
d="M858 -41q-157 0 -286 39t-217 105t-148 155t-87.5 186.5t-27.5 202.5q0 206 116 379.5t309 272t415 98.5q226 0 438 -101l10 -372h-55l-158 303q-126 90 -262 90q-220 0 -352.5 -171t-132.5 -448q0 -132 27 -240.5t74 -184t111.5 -127t137.5 -75.5t154 -24q110 0 202 39
v418l-231 33v71h608v-65l-102 -27v-426l-72 -29q-246 -102 -471 -102z" />
    <glyph glyph-name="H" unicode="H" horiz-adv-x="1622" 
d="M954 0v59l166 39v561h-618v-561l166 -39v-59h-607v59l158 39v1162l-158 40v60h607v-60l-166 -40v-517h618v517l-166 40v60h607v-60l-158 -40v-1162l158 -39v-59h-607z" />
    <glyph glyph-name="I" unicode="I" horiz-adv-x="722" 
d="M61 0v59l158 39v1162l-158 40v60h598v-60l-157 -40v-1162l157 -39v-59h-598z" />
    <glyph glyph-name="J" unicode="J" horiz-adv-x="731" 
d="M516 1260v-1119q0 -130 -27.5 -227t-89 -172t-165 -121t-250.5 -63l-13 47q82 37 134 81t80 103t38 123t10 158v1190l-178 40v60h619v-60z" />
    <glyph glyph-name="K" unicode="K" horiz-adv-x="1443" 
d="M61 0v59l158 39v1162l-158 40v60h607v-60l-166 -40v-1162l166 -39v-59h-607zM1040 0l-508 666v10l545 584l-188 40v60h467v-60l-164 -43l-430 -444l555 -725l129 -29v-59h-406z" />
    <glyph glyph-name="L" unicode="L" horiz-adv-x="1234" 
d="M502 131q41 -50 125 -53h291l223 424h63l-98 -502h-1045v61l158 37v1159l-158 43v60h619v-60l-178 -40v-1129z" />
    <glyph glyph-name="M" unicode="M" horiz-adv-x="1855" 
d="M49 0v59l160 39l57 1157l-162 45v60h467l381 -899l340 854l13 45h450v-60l-158 -38l52 -1164l159 -39v-59h-622v59l180 39l-37 1098l-379 -954l-73 -189h-43l-72 187l-414 942l-41 -1078l225 -43v-61h-483z" />
    <glyph glyph-name="N" unicode="N" horiz-adv-x="1490" 
d="M1298 -12l-98 -13l-883 1108l7 -977l196 -45v-61h-448v61l151 39v1092q-60 73 -145 98l-35 13v57h414l745 -940l-6 831l-195 49v60h445v-60l-152 -43v-1056z" />
    <glyph glyph-name="O" unicode="O" horiz-adv-x="1617" 
d="M840 33q125 0 213.5 81t130 215t41.5 308q0 177 -55.5 333t-159.5 254.5t-232 98.5q-125 0 -213.5 -78t-131 -211t-42.5 -309q0 -130 31 -253.5t87.5 -221.5t142.5 -157.5t188 -59.5zM809 1397q158 0 295 -55t231 -148.5t147.5 -220.5t53.5 -268q0 -169 -61 -312
t-162.5 -236.5t-233 -145.5t-274.5 -52q-144 0 -275 50.5t-230.5 141t-158.5 226.5t-59 297q0 158 60.5 294.5t161 229.5t232 146t273.5 53z" />
    <glyph glyph-name="P" unicode="P" horiz-adv-x="1196" 
d="M590 584v63q136 15 220.5 98t84.5 213q0 65 -22 122t-67 104.5t-123 77.5t-181 36v-1200l196 -37v-61h-637v61l158 37v1162l-158 40v60h504q279 1 439.5 -97.5t160.5 -269.5q0 -122 -84 -216.5t-213 -142.5t-278 -50z" />
    <glyph glyph-name="Q" unicode="Q" horiz-adv-x="1617" 
d="M809 1397q158 0 295 -55t231 -148.5t147.5 -219t53.5 -263.5q0 -179 -73 -328t-192.5 -244t-269.5 -137q199 -148 272 -194q215 -129 386 -132q199 0 346 113l29 -35l-35 -35t-43 -38t-56.5 -41.5t-68 -36.5t-85.5 -33t-101.5 -20.5t-122.5 -8.5q-69 0 -136.5 11.5
t-122.5 27.5t-122.5 49.5t-112.5 59.5t-118 77.5t-114.5 83t-123.5 94.5q-17 13 -26.5 20.5t-24.5 19t-27 20.5q-145 42 -259 132.5t-183.5 232t-69.5 311.5q0 155 60.5 291t161 228t232 145t273.5 53zM840 41q126 0 214 79t129.5 212.5t41.5 310.5t-55.5 332.5
t-159.5 252.5t-232 97q-125 0 -213.5 -77t-131 -210t-42.5 -309q0 -135 30.5 -258t86 -219.5t142 -153.5t190.5 -57z" />
    <glyph glyph-name="R" unicode="R" horiz-adv-x="1392" 
d="M61 0v59l158 39v1164l-158 38v60l521 4q159 1 278.5 -23.5t192 -70.5t108 -107t35.5 -137q0 -236 -305 -338v-8l371 -586l135 -35v-59h-393l-308 489l-78 125h-118v-516l155 -39v-59h-594zM500 1303v-613h162q116 19 188 98.5t72 188.5q0 146 -116 236t-306 90z" />
    <glyph glyph-name="S" unicode="S" horiz-adv-x="1107" 
d="M115 63l-27 388h55l150 -334q95 -76 233 -76q114 0 185 68t71 178q0 88 -48 150.5t-175 113.5l-110 45q-169 69 -246.5 163t-77.5 230q0 81 35.5 155t99.5 131.5t161 91.5t212 34q152 0 332 -90l8 -340h-58l-127 293q-72 65 -174 65q-108 0 -173.5 -63t-65.5 -156
q0 -94 51.5 -148.5t185.5 -113.5l123 -53q174 -77 241.5 -163t67.5 -208q0 -103 -46.5 -191t-123 -146t-172.5 -90t-196 -32q-182 0 -391 98z" />
    <glyph glyph-name="T" unicode="T" horiz-adv-x="1302" 
d="M207 1360h889l153 10l4 -409h-57l-121 317h-282v-1180l192 -39v-59h-670v59l195 39v1180h-283l-121 -317h-57l4 409z" />
    <glyph glyph-name="U" unicode="U" horiz-adv-x="1509" 
d="M752 -43q-276 0 -415.5 144t-139.5 415v741l-158 43v60h631v-60l-185 -43v-712q0 -213 85 -334t259 -121q178 0 273.5 107t101.5 311l-2 737l-225 55v60h493v-60l-157 -47v-710q0 -281 -150.5 -433.5t-410.5 -152.5z" />
    <glyph glyph-name="V" unicode="V" horiz-adv-x="1327" 
d="M596 -25l-498 1287l-104 38v60h579v-60l-167 -40l358 -988l356 975l-209 51v62h424v-60l-114 -47l-492 -1278h-133z" />
    <glyph glyph-name="W" unicode="W" horiz-adv-x="1916" 
d="M1251 -18l-286 866l-314 -866h-145l-406 1280l-106 36v62h549v-60l-148 -38l289 -969l238 684l-95 285l-120 38v60h575v-62l-162 -36l299 -947l287 930l-205 53v62h422v-60l-113 -47l-413 -1271h-146z" />
    <glyph glyph-name="X" unicode="X" horiz-adv-x="1390" 
d="M4 61l148 35l417 563l-385 601l-143 40v60h629v-60l-160 -40l266 -429h4l297 416l-188 51v62h459v-60l-146 -43l-373 -509l420 -650l142 -37v-61h-627v61l158 37l-299 482h-5l-331 -478l166 -41v-61h-449v61z" />
    <glyph glyph-name="Y" unicode="Y" horiz-adv-x="1306" 
d="M1184 1257l-385 -659v-500l162 -39v-59h-609v59l164 39v451l-401 719l-113 32v60h604v-60l-176 -38l313 -603l332 594l-201 47v60h431v-60z" />
    <glyph glyph-name="Z" unicode="Z" horiz-adv-x="1314" 
d="M57 0v55l774 1221h-548l-142 -326h-57l10 418l178 -8h922v-12l-809 -1262h633l209 377h63l-88 -463h-1145z" />
    <glyph glyph-name="bracketleft" unicode="[" horiz-adv-x="630" 
d="M608 -371h-405v1872h405v-74h-205v-1724h205v-74z" />
    <glyph glyph-name="backslash" unicode="\" horiz-adv-x="860" 
d="M928 -401l-74 -33l-803 1939l76 33z" />
    <glyph glyph-name="bracketright" unicode="]" horiz-adv-x="630" 
d="M23 1501h405v-1872h-405v74h204v1724h-204v74z" />
    <glyph glyph-name="asciicircum" unicode="^" horiz-adv-x="927" 
d="M176 993h-84l330 555h84l330 -555h-99l-280 402z" />
    <glyph glyph-name="underscore" unicode="_" horiz-adv-x="835" 
d="M8 -440v86h819v-86h-819z" />
    <glyph glyph-name="grave" unicode="`" horiz-adv-x="628" 
d="M135 1563h232l98 -410h-68l-262 393v17z" />
    <glyph glyph-name="a" unicode="a" horiz-adv-x="1019" 
d="M324 -31q-108 0 -184.5 68t-76.5 182q0 120 83.5 187t263.5 112l198 49v138q-3 103 -49.5 165t-126.5 62q-59 0 -104 -31l-9 -225q-55 -19 -112 -19q-53 0 -85 27t-32 76q0 42 37 88t97 83.5t145 62t174 24.5q163 0 243 -75t80 -236v-545q0 -41 14.5 -54.5t55.5 -13.5h88
v-41q-15 -9 -41 -22t-89.5 -34.5t-107.5 -21.5q-83 0 -124 40t-46 124h-10q-31 -39 -53.5 -63.5t-58 -52t-78 -41t-92.5 -13.5zM463 123q82 0 145 78v305l-135 -45q-158 -51 -158 -178q0 -69 39.5 -114.5t108.5 -45.5z" />
    <glyph glyph-name="b" unicode="b" horiz-adv-x="1150" 
d="M471 -33q-149 0 -272 53l-74 33v1264l-127 65v31l385 115v-670q142 158 317 158q75 0 143 -27.5t124 -81.5t89.5 -145t33.5 -207q0 -121 -55.5 -232t-143.5 -188t-199 -122.5t-221 -45.5zM541 872q-89 0 -158 -61v-661q57 -95 184 -95q112 0 185 103.5t73 292.5
q0 182 -85 301.5t-199 119.5z" />
    <glyph glyph-name="c" unicode="c" horiz-adv-x="995" 
d="M528 -29q-203 0 -335 139t-132 375q0 117 45 219t118.5 170.5t168 108t193.5 39.5q142 0 247 -69t105 -165q0 -59 -40.5 -91.5t-106.5 -32.5q-51 0 -66 10l-59 223q-55 51 -129 51q-103 0 -168.5 -92.5t-65.5 -239.5q0 -208 102.5 -330t251.5 -122q87 0 161.5 38
t111.5 79l31 -31q-182 -279 -433 -279z" />
    <glyph glyph-name="d" unicode="d" horiz-adv-x="1189" 
d="M608 1397v33l416 100v-1411l129 -35v-47l-356 -64l-23 136q-137 -142 -295 -142q-125 0 -221.5 65.5t-146.5 173.5t-50 240q0 123 49.5 230t131 179.5t186 113.5t215.5 41q45 0 123 -19v332zM621 115q71 0 145 51v649q-73 117 -201 117q-105 0 -175.5 -93t-70.5 -284
q0 -114 34 -212.5t104 -163t164 -64.5z" />
    <glyph glyph-name="e" unicode="e" horiz-adv-x="1024" 
d="M520 -29q-141 0 -247 72t-159 186.5t-53 251.5q0 110 42 211.5t110.5 173t158 114t181.5 42.5q348 0 399 -420h-659v-18q0 -195 102.5 -307.5t257.5 -112.5q132 0 281 115l33 -31q-37 -55 -75.5 -98t-93.5 -87t-126 -68t-152 -24zM492 942q-77 0 -129.5 -70.5
t-65.5 -201.5h381q-14 129 -60.5 200.5t-125.5 71.5z" />
    <glyph glyph-name="f" unicode="f" horiz-adv-x="696" 
d="M47 0v57l125 35v793h-147v63l149 47q8 122 52 225t110.5 171.5t149.5 106.5t171 38q113 0 201 -54.5t88 -133.5q0 -52 -31 -82.5t-74 -38.5t-93 0l-48 190q-45 45 -108 45q-71 0 -119 -70.5t-45 -222.5l2 -180h270v-96h-268v-801l156 -35v-57h-541z" />
    <glyph glyph-name="g" unicode="g" horiz-adv-x="1073" 
d="M1061 872l-246 15l-2 -6q100 -93 100 -209q0 -147 -119.5 -243.5t-297.5 -96.5q-108 0 -187 33q-39 -42 -39 -80q0 -68 99 -74l409 -21q130 -6 199.5 -68.5t69.5 -160.5q0 -118 -88 -222t-235 -166t-312 -62q-180 0 -279.5 64.5t-99.5 180.5q0 73 54 131t146 97v10
q-64 11 -107.5 55t-43.5 111q0 57 42.5 111.5t125.5 117.5v4q-75 44 -117.5 114.5t-42.5 160.5q0 156 119 253t291 97q45 0 90 -7.5t72.5 -15t95.5 -28.5l303 30v-125zM754 -51l-447 24q-63 -67 -63 -149q0 -98 79 -153.5t216 -55.5q83 0 148.5 21t102 54.5t55.5 70t19 71.5
q0 44 -30 76t-80 41zM330 739q2 -151 55 -245.5t139 -94.5q66 0 108 62t42 166q-1 153 -58.5 242t-138.5 87q-69 0 -108 -59t-39 -158z" />
    <glyph glyph-name="h" unicode="h" horiz-adv-x="1212" 
d="M688 0v57l117 35v561q-5 95 -48.5 148.5t-131.5 52.5q-93 0 -191 -78v-684l119 -35v-57h-504v57l125 35v1211l-121 71v35l381 121v-692q27 28 59 54.5t78 57.5t101.5 49.5t109.5 18.5q140 0 210.5 -77.5t70.5 -252.5v-596l129 -37v-55h-504z" />
    <glyph glyph-name="i" unicode="i" horiz-adv-x="589" 
d="M41 0v57l129 35v707l-125 82v32l385 105v-926l135 -35v-57h-524zM293 1217q-60 0 -105 44t-45 105q0 60 45 105t105 45t105.5 -45t45.5 -105q0 -61 -45 -105t-106 -44z" />
    <glyph glyph-name="j" unicode="j" horiz-adv-x="579" 
d="M-27 -489l-12 38q82 50 124.5 105t62 141.5t22.5 233.5v770l-123 82v32l381 105v-905q0 -165 -18.5 -258.5t-81.5 -159.5q-50 -53 -120.5 -93t-118.5 -56.5t-116 -34.5zM295 1217q-62 0 -106 44t-44 105q0 60 44.5 105t105.5 45q60 0 104.5 -45t44.5 -105
q0 -61 -44.5 -105t-104.5 -44z" />
    <glyph glyph-name="k" unicode="k" horiz-adv-x="1138" 
d="M174 92v1211l-121 71v35l381 121v-1438l119 -35v-57h-504v57zM979 -29q-76 0 -129.5 29.5t-95.5 87.5l-305 430l374 356l-153 62v53h442v-49l-145 -51l-303 -262l475 -607q-8 -5 -22 -13.5t-56 -22t-82 -13.5z" />
    <glyph glyph-name="l" unicode="l" horiz-adv-x="598" 
d="M45 0v57l129 35v1211l-121 71v35l381 121v-1438l135 -35v-57h-524z" />
    <glyph glyph-name="m" unicode="m" horiz-adv-x="1835" 
d="M1311 0v57l114 35v561q-3 94 -47 147.5t-133 53.5q-90 0 -188 -78v-684l117 -37v-55h-494v57l117 35v561q-10 201 -181 201q-91 0 -190 -80v-682l119 -35v-57h-504v57l125 35v707l-125 78v30l346 113h10l15 -191h4q27 28 58.5 54.5t80 60t106.5 54t115 20.5
q112 0 175.5 -45.5t86.5 -145.5h6q184 191 361 191q140 0 210.5 -77.5t70.5 -252.5v-596l129 -37v-55h-504z" />
    <glyph glyph-name="n" unicode="n" horiz-adv-x="1206" 
d="M41 0v57l125 35v707l-125 78v30l346 113h10l15 -191h4q27 28 58.5 54.5t80 60t106.5 54t115 20.5q139 0 210 -78t71 -252v-596l127 -37v-55h-504v57l117 35v561q-5 95 -49 148.5t-132 52.5q-92 0 -190 -78v-684l119 -35v-57h-504z" />
    <glyph glyph-name="o" unicode="o" horiz-adv-x="1177" 
d="M555 950q-57 0 -100 -32t-67 -86t-35 -116.5t-11 -133.5q0 -138 31 -259t96.5 -201.5t153.5 -80.5q99 0 156 103t57 272q0 234 -79.5 384t-201.5 150zM590 -33q-123 0 -224.5 42t-166.5 113t-100.5 162t-35.5 191q0 113 41.5 214.5t112 173.5t168 114.5t205.5 42.5
q233 0 378.5 -139t145.5 -363q0 -233 -151.5 -392t-372.5 -159z" />
    <glyph glyph-name="p" unicode="p" horiz-adv-x="1189" 
d="M25 -469v57l137 37v1174l-127 78v30l354 113h10l9 -191h2q135 185 325 185q75 0 143 -27.5t124.5 -81.5t90 -144.5t33.5 -205.5q0 -100 -34 -191.5t-92 -161t-133 -121t-160 -78t-170 -26.5q-55 0 -115 11v-359l215 -41v-57h-612zM584 862q-91 0 -162 -71v-656
q68 -80 178 -80q115 0 188.5 104t73.5 294q0 185 -79.5 297t-198.5 112z" />
    <glyph glyph-name="q" unicode="q" horiz-adv-x="1169" 
d="M555 -469v53l211 45v471q-133 -133 -287 -133q-124 0 -220 64.5t-147 173t-51 241.5q0 100 32.5 190.5t88 157.5t126.5 116.5t150.5 74.5t157.5 25q133 0 232 -76l170 86h10v-1393l133 -39v-57h-606zM625 117q74 0 141 49v651q-71 115 -201 115q-49 0 -90.5 -20.5
t-76.5 -64t-55.5 -121.5t-20.5 -183q0 -110 33.5 -205t104.5 -158t165 -63z" />
    <glyph glyph-name="r" unicode="r" 
d="M41 0v57l125 35v707l-125 78v30l350 113h10l11 -268h8l26 53q65 124 117.5 169.5t124.5 45.5q57 0 97 -35t40 -94q0 -121 -139 -152l-127 76q-31 -10 -71 -56t-62 -106v-561l170 -35v-57h-555z" />
    <glyph glyph-name="s" unicode="s" horiz-adv-x="888" 
d="M377 -33q-136 0 -291 68l-12 313h49l117 -250q55 -59 147 -59q85 0 135.5 47.5t50.5 118.5q0 59 -33.5 99t-109.5 69l-135 51q-209 78 -209 281q0 140 117 228.5t299 88.5q131 0 266 -64l-2 -278h-45l-105 219q-62 51 -137 51q-72 0 -116 -43t-44 -106q0 -61 36 -97.5
t114 -68.5l109 -43q128 -51 182.5 -112t54.5 -163q0 -153 -128 -251.5t-310 -98.5z" />
    <glyph glyph-name="t" unicode="t" horiz-adv-x="720" 
d="M399 -27q-248 0 -245 265l6 643h-152v67l152 47l211 254h43v-260h288v-112h-288v-654q30 -119 170 -119q56 0 125 23l12 -47q-155 -107 -322 -107z" />
    <glyph glyph-name="u" unicode="u" horiz-adv-x="1202" 
d="M801 -27l-23 168q-62 -69 -148 -121.5t-188 -52.5q-134 0 -212 81t-78 239v559l-127 55v39l385 66v-666q0 -209 182 -209q96 0 182 68v651l-139 51v41l399 68v-889l137 -43v-47z" />
    <glyph glyph-name="v" unicode="v" horiz-adv-x="995" 
d="M551 -33h-109l-362 932l-107 33v57h521v-57l-134 -33l207 -594l17 -55h4l20 57l207 586l-137 41v55h344v-57l-113 -33z" />
    <glyph glyph-name="w" unicode="w" horiz-adv-x="1546" 
d="M903 999l250 -675l18 -62h5q8 41 14 64l166 563l-152 45v55h367v-57l-121 -35l-299 -928h-129l-231 615l-21 67h-4q-13 -47 -21 -67l-221 -615h-121l-311 930l-117 33v57h537v-57l-137 -33l168 -567l16 -70h4q15 50 23 70l231 667h86z" />
    <glyph glyph-name="x" unicode="x" horiz-adv-x="1062" 
d="M637 569l301 -477l113 -37v-55h-498v57l94 35l-182 295h-4l-197 -291l105 -41v-55h-353v55l131 39l275 363l-285 448l-104 31v53h497v-53l-96 -33l162 -266h4l174 260l-102 39v53h323v-53l-108 -33z" />
    <glyph glyph-name="y" unicode="y" horiz-adv-x="1007" 
d="M825 893l-131 41v55h320v-57l-94 -33l-465 -1210q-74 -189 -222 -189q-59 0 -101 41.5t-42 102.5q0 60 41.5 100.5t99.5 40.5q33 0 60 -14t42 -29.5t38 -46.5l6 -8l90 231l-387 987l-86 27v57h479v-57l-108 -31l231 -647z" />
    <glyph glyph-name="z" unicode="z" horiz-adv-x="989" 
d="M707 0h-646v51l543 860h-340l-114 -268h-54v365l164 -19h674v-8l-572 -907h355l151 299h52l-35 -377z" />
    <glyph glyph-name="braceleft" unicode="{" horiz-adv-x="681" 
d="M209 567v-6q140 -18 195 -68t55 -178l-2 -383q0 -141 44 -195t158 -54v-54h-32q-111 -3 -187 19.5t-118 70.5t-57 113.5t-7 155.5l33 366q8 81 -23.5 123t-109.5 45l-68 2v82l68 2q78 3 109.5 45t23.5 123l-33 367q-16 182 68 273t301 85h32v-53q-114 0 -158 -54.5
t-44 -195.5l2 -385q0 -127 -55 -177.5t-195 -68.5z" />
    <glyph glyph-name="bar" unicode="|" horiz-adv-x="458" 
d="M268 -420h-78v1933h78v-1933z" />
    <glyph glyph-name="braceright" unicode="}" horiz-adv-x="681" 
d="M473 563v6q-140 18 -195 68t-55 178l2 383q0 141 -44 195.5t-158 54.5v53h32q217 6 301 -85t68 -273l-33 -367q-8 -81 23.5 -123t109.5 -45l68 -2v-82l-68 -2q-78 -3 -109.5 -45t-23.5 -123l33 -366q8 -90 -7 -155.5t-57 -113.5t-118 -70.5t-187 -19.5h-32v54
q114 0 158 54t44 195l-2 385q0 127 55 177.5t195 68.5z" />
    <glyph glyph-name="asciitilde" unicode="~" horiz-adv-x="1032" 
d="M78 406l-45 20l14 39q28 77 64 128t74 77t85 33.5t91.5 1.5t99.5 -23l157 -49q76 -23 121 -30t83.5 3.5t65 38t60.5 82.5l45 -20l-14 -37q-68 -176 -167.5 -230t-254.5 -8l-127 39q-74 24 -116.5 34.5t-80 14t-62 -10t-46 -37t-47.5 -66.5z" />
    <glyph glyph-name="uni00A0" unicode="&#xa0;" horiz-adv-x="339" 
 />
    <glyph glyph-name="exclamdown" unicode="&#xa1;" horiz-adv-x="579" 
d="M440 -242h-303l125 1035h55zM291 1221q61 0 107 -46t46 -108q0 -61 -45.5 -106.5t-107.5 -45.5q-63 0 -108.5 45t-45.5 107t45.5 108t108.5 46z" />
    <glyph glyph-name="cent" unicode="&#xa2;" horiz-adv-x="1021" 
d="M442 -252l23 227q-172 26 -284.5 161.5t-112.5 342.5q0 115 42.5 216t112.5 169.5t159 109.5t183 46l23 223h69l-22 -225q130 -12 221.5 -79t91.5 -153q0 -52 -35.5 -82t-93.5 -30q-44 0 -59 10l-60 201q-35 35 -73 51l-74 -766q41 -16 102 -16q157 0 275 110l26 -35
q-180 -260 -424 -260l-20 -221h-70zM309 578q0 -126 47.5 -224.5t128.5 -152.5l74 747q-109 -2 -179.5 -97t-70.5 -273z" />
    <glyph glyph-name="sterling" unicode="&#xa3;" horiz-adv-x="1388" 
d="M274 537v84h261l36 147q26 111 78.5 206.5t115 160.5t132.5 112t133 68.5t115 21.5q89 0 155 -50t66 -116q0 -58 -48 -93t-128 -48q-21 112 -57 168.5t-80 56.5q-52 0 -92 -60.5t-72 -193.5l-92 -380h370v-84h-393q-88 -305 -358 -471q99 -50 215 -125l82 -54
q222 -145 264 -167q52 -27 90 -27q42 0 65 36t25 101.5t-18 157.5q91 6 139.5 -15.5t48.5 -81.5q0 -44 -34 -97.5t-89 -100t-133 -78t-156 -31.5q-63 0 -128.5 25t-135 75.5t-126.5 100t-134 125.5l-96 94q-101 -39 -170 -39q-62 0 -94.5 26t-32.5 64q0 43 42.5 72t100.5 29
q72 0 201 -54q90 93 145 318l27 117h-240z" />
    <glyph glyph-name="yen" unicode="&#xa5;" horiz-adv-x="1234" 
d="M117 530v72h334l-345 610l-112 33v58h577v-58l-153 -41l278 -559h4l310 551l-189 49v58h420v-60l-123 -41l-352 -600h342v-72h-360v-155h362v-70h-362v-205l163 -41v-59h-592v59l162 39v207h-364v70h364v155h-364z" />
    <glyph glyph-name="brokenbar" unicode="&#xa6;" horiz-adv-x="456" 
d="M268 641h-78v872h78v-872zM268 -420h-78v875h78v-875z" />
    <glyph glyph-name="section" unicode="&#xa7;" horiz-adv-x="1019" 
d="M565 -227q0 14 -2.5 28.5t-6.5 27.5t-14 33.5t-18.5 36.5t-27 46.5t-33 54t-43.5 70t-51 82.5l-111 180q-89 145 -122.5 236.5t-33.5 174.5q0 105 49.5 205t126.5 173t169 129.5t180.5 85t156.5 28.5q84 0 131.5 -36.5t47.5 -92.5q0 -42 -28 -76t-73 -43q-94 72 -213 111
q-98 0 -180 -39q-6 -21 -6 -47q0 -45 28 -99.5t117 -197.5q31 -50 49 -78l111 -180q89 -145 122.5 -237.5t33.5 -174.5q0 -106 -49.5 -205.5t-126.5 -172.5t-169 -129t-180 -84.5t-155 -28.5q-84 0 -131 37t-47 94q0 42 26 74.5t72 41.5q96 -73 215 -110q97 0 178 41
q8 24 8 41zM276 868q0 -91 33 -180t103 -207l112 -190q92 -155 119 -232t27 -145q0 -57 -25 -117h10q97 97 97 252q0 90 -33.5 177.5t-104.5 209.5l-110 191q-93 158 -120.5 234t-27.5 143q0 60 25 116h-8q-97 -97 -97 -252z" />
    <glyph glyph-name="dieresis" unicode="&#xa8;" 
d="M223 1231q-57 0 -97 39t-40 96q0 56 40 96.5t97 40.5q55 0 96 -40.5t41 -96.5t-40.5 -95.5t-96.5 -39.5zM629 1231q-57 0 -97 39t-40 96q0 56 40 96.5t97 40.5q55 0 96 -40.5t41 -96.5t-40.5 -95.5t-96.5 -39.5z" />
    <glyph glyph-name="copyright" unicode="&#xa9;" horiz-adv-x="1622" 
d="M96 678q0 196 96 360t260 258.5t359 94.5q146 0 278 -55.5t227 -150.5t151.5 -227.5t56.5 -279.5q0 -196 -96 -360t-260 -258.5t-359 -94.5q-146 0 -278 55.5t-227 150.5t-151.5 227.5t-56.5 279.5zM158 678q0 -134 52 -256.5t140 -211t208.5 -140.5t252.5 -52t252.5 52
t208.5 140.5t140 211t52 256.5q0 180 -88 332t-238.5 239.5t-326.5 87.5t-326.5 -87.5t-238.5 -239.5t-88 -332zM834 272q-109 0 -193.5 34.5t-134 91.5t-74 125t-24.5 141q0 181 131.5 299t328.5 118q108 0 242 -63l4 -221h-49l-74 174q-60 57 -141 57q-96 0 -158.5 -89.5
t-62.5 -242.5q0 -171 67.5 -267.5t175.5 -96.5q71 0 127 49l86 180h52l-31 -219q-76 -35 -135.5 -52.5t-136.5 -17.5z" />
    <glyph glyph-name="ordfeminine" unicode="&#xaa;" horiz-adv-x="899" 
d="M285 494q-83 0 -147 53.5t-64 144.5q0 93 65.5 143.5t208.5 84.5l170 38v142q-5 62 -42.5 104.5t-100.5 42.5q-42 0 -78 -18l-23 -185q-32 -18 -75 -18q-99 0 -99 84q0 45 50 94t136 83t177 34q142 0 204 -62.5t62 -195.5v-410q0 -33 13 -45t49 -12h67v-45
q-110 -55 -196 -55q-68 0 -101 34.5t-35 94.5h-10q-32 -35 -49.5 -52t-47.5 -39t-62 -31t-72 -9zM395 623q73 0 123 55v227l-94 -28q-73 -22 -107 -53t-34 -81q0 -54 31 -87t81 -33z" />
    <glyph glyph-name="guillemotleft" unicode="&#xab;" horiz-adv-x="980" 
d="M449 805l36 -33l-221 -338l221 -344l-36 -31l-351 351v39zM805 805l37 -33l-221 -338l221 -344l-37 -31l-350 351v39z" />
    <glyph glyph-name="logicalnot" unicode="&#xac;" horiz-adv-x="1187" 
d="M109 541h970v-410h-94v322h-876v88z" />
    <glyph glyph-name="registered" unicode="&#xae;" horiz-adv-x="925" 
d="M35 1128q0 176 126.5 298t305.5 122q177 0 300.5 -121.5t123.5 -298.5t-126 -298t-306 -121q-178 0 -301 120t-123 299zM98 1128q0 -155 105 -260.5t258 -105.5q157 0 262.5 104.5t105.5 261.5q0 154 -106 259.5t-262 105.5q-154 0 -258.5 -105.5t-104.5 -259.5zM231 922
v30l58 13v352l-58 12v31h207q226 0 226 -119q0 -73 -109 -119v-4l111 -153l57 -13v-30h-166l-57 84l-62 90h-32v-131l49 -13v-30h-224zM406 1327v-194h71q64 24 64 90q0 46 -35.5 75.5t-99.5 28.5z" />
    <glyph glyph-name="macron" unicode="&#xaf;" 
d="M106 1278v135h607v-135h-607z" />
    <glyph glyph-name="degree" unicode="&#xb0;" horiz-adv-x="614" 
d="M37 1235q0 112 81 191t195 79q115 0 191 -78t76 -192q0 -113 -81 -192.5t-194 -79.5q-116 0 -192 78.5t-76 193.5zM117 1235q0 -87 54 -146t138 -59q83 0 137 59t54 146t-54 146t-137 59q-84 0 -138 -59t-54 -146z" />
    <glyph glyph-name="plusminus" unicode="&#xb1;" horiz-adv-x="1187" 
d="M1079 668h-438v-441h-94v441h-438v86h438v440h94v-440h438v-86zM109 0v88h970v-88h-970z" />
    <glyph glyph-name="acute" unicode="&#xb4;" horiz-adv-x="628" 
d="M260 1563h232v-17l-263 -393h-67z" />
    <glyph glyph-name="paragraph" unicode="&#xb6;" horiz-adv-x="1122" 
d="M1053 1360v-60l-150 -40v-1168q0 -138 -35 -240.5t-97 -161t-138 -86.5t-166 -28q-152 0 -250 92.5t-98 235.5q0 136 84.5 220.5t206.5 84.5q98 0 156.5 -56t58.5 -130q0 -86 -46.5 -133.5t-109.5 -47.5q-52 0 -86.5 37t-30.5 96q46 10 89.5 34t70.5 52v9q-28 71 -123 71
q-72 0 -129 -60t-57 -165q0 -110 74 -188t202 -78q134 0 213.5 90t79.5 285v1259h-108v-807h-109q-120 0 -222 59.5t-161 161t-59 220.5q0 183 129.5 312.5t312.5 129.5h498z" />
    <glyph glyph-name="periodcentered" unicode="&#xb7;" horiz-adv-x="643" 
d="M322 412q-62 0 -108 45t-46 106q0 63 46 108.5t108 45.5q63 0 108 -45.5t45 -108.5q0 -62 -45 -106.5t-108 -44.5z" />
    <glyph glyph-name="cedilla" unicode="&#xb8;" horiz-adv-x="538" 
d="M117 -514l-13 43q98 35 145.5 75t47.5 93q0 83 -107 115l125 196h66l-68 -104q83 -14 129.5 -55t46.5 -105q0 -68 -52.5 -122t-132.5 -85.5t-187 -50.5z" />
    <glyph glyph-name="ordmasculine" unicode="&#xba;" horiz-adv-x="958" 
d="M457 1262q-81 0 -122.5 -87.5t-41.5 -213.5q0 -107 23.5 -200t72.5 -153.5t115 -60.5q76 0 120 83.5t44 223.5q0 172 -59.5 290t-151.5 118zM479 483q-131 0 -227.5 57.5t-142.5 148.5t-46 202q0 183 120.5 307.5t295.5 124.5q188 0 302 -110.5t114 -294.5
q0 -186 -119.5 -310.5t-296.5 -124.5z" />
    <glyph glyph-name="guillemotright" unicode="&#xbb;" horiz-adv-x="980" 
d="M535 59l-39 35l221 338l-219 342l37 31l348 -350v-37zM178 59l-39 35l221 338l-219 342l37 31l348 -350v-37z" />
    <glyph glyph-name="onequarter" unicode="&#xbc;" horiz-adv-x="1480" 
d="M1317 768v-463h137v-119h-137v-118l104 -23v-45h-393v45l109 21v120h-357v70l461 526zM387 1374v-702l139 -25v-49h-489v49l149 25v565h-155v47l336 90h20zM238 -162l-58 41l1104 1598l57 -39zM891 305h246v281z" />
    <glyph glyph-name="onehalf" unicode="&#xbd;" horiz-adv-x="1566" 
d="M1282 270l-158 -112h404v-158h-588v53l141 131q88 81 132.5 128.5t72 98.5t27.5 103q0 64 -41.5 102.5t-106.5 38.5q-53 0 -91 -28t-87 -88l-41 26q112 226 309 226q108 0 177 -59.5t69 -156.5q0 -50 -14.5 -91t-48 -79t-66.5 -65.5t-90 -69.5zM387 1374v-702l139 -25
v-49h-489v49l149 25v565h-155v47l336 90h20zM238 -162l-58 41l1104 1598l57 -39z" />
    <glyph glyph-name="threequarters" unicode="&#xbe;" horiz-adv-x="1488" 
d="M1325 768v-463h137v-119h-137v-118l105 -23v-45h-394v45l109 21v120h-357v70l461 526zM281 627q59 0 99 39t40 102q0 77 -69.5 128.5t-203.5 51.5v53q121 17 183.5 62t62.5 104q0 48 -31.5 78.5t-89.5 30.5q-105 0 -192 -117l-41 25q43 93 120.5 149t188.5 56
q101 0 162 -48t61 -120q0 -127 -194 -193v-8q112 -6 171.5 -56t59.5 -130q0 -112 -100 -183t-240 -71q-110 0 -180 40.5t-70 100.5q0 35 26 58t71 24l86 -154q25 -22 80 -22zM246 -162l-58 41l1104 1598l58 -39zM899 305h246v281z" />
    <glyph glyph-name="questiondown" unicode="&#xbf;" horiz-adv-x="806" 
d="M676 20v-272l-84 19q-93 20 -182.5 65.5t-164 109t-120 151t-45.5 181.5q0 114 59 186t189 111l182 56l-6 166h78l53 -359l-301 -82q-94 -26 -135 -56.5t-41 -72.5q0 -72 105.5 -123t318.5 -71zM541 1221q61 0 107 -46t46 -108q0 -61 -45.5 -106.5t-107.5 -45.5
q-63 0 -108.5 45t-45.5 107t45.5 108t108.5 46z" />
    <glyph glyph-name="Agrave" unicode="&#xc0;" horiz-adv-x="1400" 
d="M-12 0v59l143 37l485 1274l74 16l90 19l494 -1313l139 -33v-59h-612v59l162 35l-132 365h-469l-129 -355l234 -45v-59h-479zM598 1112l-199 -549h396zM340 1772h258l150 -293h-91l-317 270v23z" />
    <glyph glyph-name="Aacute" unicode="&#xc1;" horiz-adv-x="1400" 
d="M-12 0v59l143 37l485 1274l74 16l90 19l494 -1313l139 -33v-59h-612v59l162 35l-132 365h-469l-129 -355l234 -45v-59h-479zM598 1112l-199 -549h396zM797 1772h258v-23l-318 -270h-92z" />
    <glyph glyph-name="Acircumflex" unicode="&#xc2;" horiz-adv-x="1400" 
d="M-12 0v59l143 37l485 1274l74 16l90 19l494 -1313l139 -33v-59h-612v59l162 35l-132 365h-469l-129 -355l234 -45v-59h-479zM598 1112l-199 -549h396zM471 1479h-90l221 280h193l213 -280h-101l-215 147z" />
    <glyph glyph-name="Atilde" unicode="&#xc3;" horiz-adv-x="1400" 
d="M-12 0v59l143 37l485 1274l74 16l90 19l494 -1313l139 -33v-59h-612v59l162 35l-132 365h-469l-129 -355l234 -45v-59h-479zM735 1538l-82 29q-122 42 -169 31t-85 -91l-43 21l11 28q53 148 131 190.5t200 -1.5l90 -31q96 -34 148 -17.5t94 97.5l45 -20l-12 -33
q-61 -160 -134 -204t-194 1zM598 1112l-199 -549h396z" />
    <glyph glyph-name="Adieresis" unicode="&#xc4;" horiz-adv-x="1400" 
d="M-12 0v59l143 37l485 1274l74 16l90 19l494 -1313l139 -33v-59h-612v59l162 35l-132 365h-469l-129 -355l234 -45v-59h-479zM598 1112l-199 -549h396zM467 1509q-56 0 -95.5 39.5t-39.5 96.5q0 56 40 96.5t95 40.5q57 0 98 -40.5t41 -96.5q0 -57 -41 -96.5t-98 -39.5z
M932 1509q-56 0 -95.5 39.5t-39.5 96.5q0 56 40 96.5t95 40.5q56 0 97.5 -41t41.5 -96q0 -56 -41.5 -96t-97.5 -40z" />
    <glyph glyph-name="Aring" unicode="&#xc5;" horiz-adv-x="1400" 
d="M-12 0v59l143 37l485 1274l74 16l90 19l494 -1313l139 -33v-59h-612v59l162 35l-132 365h-469l-129 -355l234 -45v-59h-479zM483 1702q0 87 61.5 147t151.5 60q93 0 153 -59t60 -146q0 -88 -61 -147.5t-152 -59.5q-93 0 -153 58.5t-60 146.5zM598 1112l-199 -549h396z
M565 1704q0 -61 38 -100t93 -39q56 0 93.5 38t37.5 99q0 59 -38 98t-93 39q-56 0 -93.5 -38t-37.5 -97z" />
    <glyph glyph-name="AE" unicode="&#xc6;" horiz-adv-x="1943" 
d="M1423 639h-239v-508q44 -50 123 -53h301l217 362h63l-94 -440h-1036v59l149 39v543h-375l-288 -537l215 -45v-59h-461v59l129 37l661 1153l-178 51v60h1045l166 4v-387h-64l-123 307h-450v-565h239l66 211h59v-490h-63zM907 1264h-26l-306 -545h332v545z" />
    <glyph glyph-name="Ccedilla" unicode="&#xc7;" horiz-adv-x="1474" 
d="M594 -514l-12 43q97 35 144.5 75t47.5 93q0 42 -29 71.5t-77 43.5l94 151q-134 9 -246.5 52t-190.5 109t-132 151.5t-79.5 179t-25.5 192.5q0 157 64.5 296.5t173.5 238.5t258 157t313 58q220 0 436 -107l6 -372h-59l-131 294q-135 111 -301 111q-188 0 -311 -165
t-123 -429q0 -166 38.5 -299.5t105 -218t154 -129.5t187.5 -45q144 0 248 88l192 330h62l-70 -377q-135 -61 -248.5 -90t-244.5 -29h-13l-34 -55q83 -14 129.5 -55t46.5 -105q0 -52 -29.5 -95.5t-82 -74.5t-117.5 -52.5t-144 -35.5z" />
    <glyph glyph-name="Egrave" unicode="&#xc8;" horiz-adv-x="1267" 
d="M748 662h-246v-531q41 -49 123 -55h307l217 364h63l-94 -440h-1057v59l158 39v1159l-158 43v60h918l164 4v-387h-62l-123 309h-456v-543h246l65 209h59v-489h-63zM334 1772h258l149 -293h-90l-317 270v23z" />
    <glyph glyph-name="Eacute" unicode="&#xc9;" horiz-adv-x="1267" 
d="M748 662h-246v-531q41 -49 123 -55h307l217 364h63l-94 -440h-1057v59l158 39v1159l-158 43v60h918l164 4v-387h-62l-123 309h-456v-543h246l65 209h59v-489h-63zM774 1772h258v-23l-317 -270h-92z" />
    <glyph glyph-name="Ecircumflex" unicode="&#xca;" horiz-adv-x="1267" 
d="M748 662h-246v-531q41 -49 123 -55h307l217 364h63l-94 -440h-1057v59l158 39v1159l-158 43v60h918l164 4v-387h-62l-123 309h-456v-543h246l65 209h59v-489h-63zM442 1479h-90l221 280h193l213 -280h-100l-215 147z" />
    <glyph glyph-name="Edieresis" unicode="&#xcb;" horiz-adv-x="1267" 
d="M748 662h-246v-531q41 -49 123 -55h307l217 364h63l-94 -440h-1057v59l158 39v1159l-158 43v60h918l164 4v-387h-62l-123 309h-456v-543h246l65 209h59v-489h-63zM428 1509q-56 0 -95.5 39.5t-39.5 96.5q0 56 40 96.5t95 40.5q57 0 98 -40.5t41 -96.5q0 -57 -41 -96.5
t-98 -39.5zM893 1509q-56 0 -95.5 39.5t-39.5 96.5q0 56 40 96.5t95 40.5q56 0 97.5 -41t41.5 -96q0 -56 -41.5 -96t-97.5 -40z" />
    <glyph glyph-name="Igrave" unicode="&#xcc;" horiz-adv-x="722" 
d="M61 0v59l158 39v1162l-158 40v60h598v-60l-157 -40v-1162l157 -39v-59h-598zM6 1772h258l150 -293h-90l-318 270v23z" />
    <glyph glyph-name="Iacute" unicode="&#xcd;" horiz-adv-x="722" 
d="M61 0v59l158 39v1162l-158 40v60h598v-60l-157 -40v-1162l157 -39v-59h-598zM449 1772h258v-23l-318 -270h-92z" />
    <glyph glyph-name="Icircumflex" unicode="&#xce;" horiz-adv-x="722" 
d="M61 0v59l158 39v1162l-158 40v60h598v-60l-157 -40v-1162l157 -39v-59h-598zM164 1479h-92l200 280h183l192 -280h-98l-191 151z" />
    <glyph glyph-name="Idieresis" unicode="&#xcf;" horiz-adv-x="722" 
d="M168 1505q-57 0 -97 39t-40 96q0 56 40 97t97 41q55 0 96 -41t41 -97t-40.5 -95.5t-96.5 -39.5zM553 1505q-56 0 -95.5 39t-39.5 96q0 56 40 97t95 41q57 0 98 -41t41 -97q0 -57 -41 -96t-98 -39zM61 0v59l158 39v1162l-158 40v60h598v-60l-157 -40v-1162l157 -39v-59
h-598z" />
    <glyph glyph-name="Eth" unicode="&#xd0;" horiz-adv-x="1574" 
d="M61 0v61l158 37v545h-164v82h164v535l-158 40v60l646 4q173 -4 318 -51.5t248.5 -130.5t161.5 -204.5t58 -268.5q0 -156 -62.5 -288t-177.5 -227t-287.5 -147t-383.5 -51zM817 643h-317v-506q69 -69 227 -69q134 0 240 77t164.5 212t58.5 302q0 159 -54.5 285.5t-149 206
t-219 119.5t-267.5 35v-580h317v-82z" />
    <glyph glyph-name="Ntilde" unicode="&#xd1;" horiz-adv-x="1490" 
d="M1298 -12l-98 -13l-883 1108l7 -977l196 -45v-61h-448v61l151 39v1092q-60 73 -145 98l-35 13v57h414l745 -940l-6 831l-195 49v60h445v-60l-152 -43v-1056zM831 1538l-81 29q-122 42 -169 31t-85 -91l-43 21l10 28q53 148 131.5 190.5t200.5 -1.5l90 -31
q96 -34 147.5 -17.5t93.5 97.5l45 -20l-12 -33q-61 -160 -134 -204t-194 1z" />
    <glyph glyph-name="Ograve" unicode="&#xd2;" horiz-adv-x="1617" 
d="M455 1772h258l149 -293h-90l-317 270v23zM840 33q125 0 213.5 81t130 215t41.5 308q0 177 -55.5 333t-159.5 254.5t-232 98.5q-125 0 -213.5 -78t-131 -211t-42.5 -309q0 -130 31 -253.5t87.5 -221.5t142.5 -157.5t188 -59.5zM809 1397q158 0 295 -55t231 -148.5
t147.5 -220.5t53.5 -268q0 -169 -61 -312t-162.5 -236.5t-233 -145.5t-274.5 -52q-144 0 -275 50.5t-230.5 141t-158.5 226.5t-59 297q0 158 60.5 294.5t161 229.5t232 146t273.5 53z" />
    <glyph glyph-name="Oacute" unicode="&#xd3;" horiz-adv-x="1617" 
d="M895 1772h258v-23l-317 -270h-93zM840 33q125 0 213.5 81t130 215t41.5 308q0 177 -55.5 333t-159.5 254.5t-232 98.5q-125 0 -213.5 -78t-131 -211t-42.5 -309q0 -130 31 -253.5t87.5 -221.5t142.5 -157.5t188 -59.5zM809 1397q158 0 295 -55t231 -148.5t147.5 -220.5
t53.5 -268q0 -169 -61 -312t-162.5 -236.5t-233 -145.5t-274.5 -52q-144 0 -275 50.5t-230.5 141t-158.5 226.5t-59 297q0 158 60.5 294.5t161 229.5t232 146t273.5 53z" />
    <glyph glyph-name="Ocircumflex" unicode="&#xd4;" horiz-adv-x="1617" 
d="M809 1397q158 0 295 -55t231 -148.5t147.5 -220.5t53.5 -268q0 -169 -61 -312t-162.5 -236.5t-233 -145.5t-274.5 -52q-144 0 -275 50.5t-230.5 141t-158.5 226.5t-59 297q0 158 60.5 294.5t161 229.5t232 146t273.5 53zM840 33q125 0 213.5 81t130 215t41.5 308
q0 177 -55.5 333t-159.5 254.5t-232 98.5q-125 0 -213.5 -78t-131 -211t-42.5 -309q0 -130 31 -253.5t87.5 -221.5t142.5 -157.5t188 -59.5zM586 1479h-90l221 280h192l213 -280h-100l-215 147z" />
    <glyph glyph-name="Otilde" unicode="&#xd5;" horiz-adv-x="1617" 
d="M850 1538l-82 29q-122 42 -169 31t-85 -91l-43 21l10 28q53 148 131.5 190.5t200.5 -1.5l90 -31q96 -34 148 -17.5t94 97.5l45 -20l-12 -33q-61 -160 -134 -204t-194 1zM840 33q125 0 213.5 81t130 215t41.5 308q0 177 -55.5 333t-159.5 254.5t-232 98.5
q-125 0 -213.5 -78t-131 -211t-42.5 -309q0 -130 31 -253.5t87.5 -221.5t142.5 -157.5t188 -59.5zM809 1397q158 0 295 -55t231 -148.5t147.5 -220.5t53.5 -268q0 -169 -61 -312t-162.5 -236.5t-233 -145.5t-274.5 -52q-144 0 -275 50.5t-230.5 141t-158.5 226.5t-59 297
q0 158 60.5 294.5t161 229.5t232 146t273.5 53z" />
    <glyph glyph-name="Odieresis" unicode="&#xd6;" horiz-adv-x="1617" 
d="M575 1509q-56 0 -95.5 39.5t-39.5 96.5q0 56 40 96.5t95 40.5q57 0 98.5 -40.5t41.5 -96.5q0 -57 -41.5 -96.5t-98.5 -39.5zM1040 1509q-56 0 -95.5 39.5t-39.5 96.5q0 56 40 96.5t95 40.5q56 0 98 -41t42 -96q0 -56 -42 -96t-98 -40zM840 33q125 0 213.5 81t130 215
t41.5 308q0 177 -55.5 333t-159.5 254.5t-232 98.5q-125 0 -213.5 -78t-131 -211t-42.5 -309q0 -130 31 -253.5t87.5 -221.5t142.5 -157.5t188 -59.5zM809 1397q158 0 295 -55t231 -148.5t147.5 -220.5t53.5 -268q0 -169 -61 -312t-162.5 -236.5t-233 -145.5t-274.5 -52
q-144 0 -275 50.5t-230.5 141t-158.5 226.5t-59 297q0 158 60.5 294.5t161 229.5t232 146t273.5 53z" />
    <glyph glyph-name="multiply" unicode="&#xd7;" horiz-adv-x="1187" 
d="M975 45l-385 387l-383 -389l-66 63l387 390l-381 385l68 65l381 -383l381 393l63 -65l-383 -389l387 -389z" />
    <glyph glyph-name="Oslash" unicode="&#xd8;" horiz-adv-x="1617" 
d="M117 -68l182 220q-103 97 -160 229.5t-57 292.5q0 158 60.5 294.5t161 229.5t232 146t273.5 53q242 0 428 -127l129 155h96l-168 -200q115 -96 178.5 -231.5t63.5 -288.5q0 -169 -61 -312t-162.5 -236.5t-233 -145.5t-274.5 -52q-253 0 -447 143l-143 -170h-98zM840 33
q124 0 212 81t129.5 215t41.5 308q0 215 -82 403l-645 -772q59 -110 146.5 -172.5t197.5 -62.5zM393 725q0 -210 68 -381l643 768q-61 99 -144.5 155t-181.5 56q-125 0 -213 -78t-130 -211t-42 -309z" />
    <glyph glyph-name="Ugrave" unicode="&#xd9;" horiz-adv-x="1509" 
d="M457 1772h258l149 -293h-90l-317 270v23zM752 -43q-276 0 -415.5 144t-139.5 415v741l-158 43v60h631v-60l-185 -43v-712q0 -213 85 -334t259 -121q178 0 273.5 107t101.5 311l-2 737l-225 55v60h493v-60l-157 -47v-710q0 -281 -150.5 -433.5t-410.5 -152.5z" />
    <glyph glyph-name="Uacute" unicode="&#xda;" horiz-adv-x="1509" 
d="M891 1772h258v-23l-318 -270h-92zM752 -43q-276 0 -415.5 144t-139.5 415v741l-158 43v60h631v-60l-185 -43v-712q0 -213 85 -334t259 -121q178 0 273.5 107t101.5 311l-2 737l-225 55v60h493v-60l-157 -47v-710q0 -281 -150.5 -433.5t-410.5 -152.5z" />
    <glyph glyph-name="Ucircumflex" unicode="&#xdb;" horiz-adv-x="1509" 
d="M752 -43q-276 0 -415.5 144t-139.5 415v741l-158 43v60h631v-60l-185 -43v-712q0 -213 85 -334t259 -121q178 0 273.5 107t101.5 311l-2 737l-225 55v60h493v-60l-157 -47v-710q0 -281 -150.5 -433.5t-410.5 -152.5zM598 1479h-90l221 280h193l213 -280h-101l-215 147z
" />
    <glyph glyph-name="Udieresis" unicode="&#xdc;" horiz-adv-x="1509" 
d="M752 -43q-276 0 -415.5 144t-139.5 415v741l-158 43v60h631v-60l-185 -43v-712q0 -213 85 -334t259 -121q178 0 273.5 107t101.5 311l-2 737l-225 55v60h493v-60l-157 -47v-710q0 -281 -150.5 -433.5t-410.5 -152.5zM584 1509q-56 0 -95.5 39.5t-39.5 96.5q0 56 40 96.5
t95 40.5q57 0 98 -40.5t41 -96.5q0 -57 -41 -96.5t-98 -39.5zM1049 1509q-56 0 -96 39.5t-40 96.5q0 56 40.5 96.5t95.5 40.5q56 0 97.5 -41t41.5 -96q0 -56 -41.5 -96t-97.5 -40z" />
    <glyph glyph-name="Yacute" unicode="&#xdd;" horiz-adv-x="1306" 
d="M1184 1257l-385 -659v-500l162 -39v-59h-609v59l164 39v451l-401 719l-113 32v60h604v-60l-176 -38l313 -603l332 594l-201 47v60h431v-60zM823 1772h258v-23l-317 -270h-92z" />
    <glyph glyph-name="Thorn" unicode="&#xde;" horiz-adv-x="1257" 
d="M61 0v61l158 37v1162l-158 40v60h598v-60l-157 -40v-205h104q288 0 442 -95t154 -245q0 -77 -38 -142t-100 -108t-143.5 -73t-166.5 -43.5t-170 -12.5v51q159 26 248.5 102.5t89.5 200.5q0 127 -105.5 212t-314.5 91v-895l157 -39v-59h-598z" />
    <glyph glyph-name="germandbls" unicode="&#xdf;" horiz-adv-x="1312" 
d="M41 0v57l125 35v799h-135v57l137 47q8 109 52 206.5t116 171.5t177 117.5t226 43.5q180 0 285.5 -73t105.5 -199q0 -48 -15.5 -89t-50 -78.5t-59.5 -58.5t-75 -59q-96 -75 -116 -96q-36 -38 -36 -74q0 -35 23.5 -58t87.5 -57l158 -86q121 -66 168 -125t47 -153
q0 -153 -128 -257t-305 -104q-149 0 -272 72v287h41l98 -222q6 -8 21.5 -20.5t54 -27.5t80.5 -15q75 0 124.5 48t49.5 120q0 65 -41 113t-131 96l-111 59q-147 78 -147 203q0 30 8.5 57.5t29.5 57t36 47t49 53t47 49.5q69 74 101 141.5t32 153.5q0 94 -57.5 158.5
t-155.5 64.5q-54 0 -98.5 -19.5t-82.5 -61t-59.5 -118t-21.5 -180.5v-1083h-383z" />
    <glyph glyph-name="agrave" unicode="&#xe0;" horiz-adv-x="1019" 
d="M324 -31q-108 0 -184.5 68t-76.5 182q0 120 83.5 187t263.5 112l198 49v138q-3 103 -49.5 165t-126.5 62q-59 0 -104 -31l-9 -225q-55 -19 -112 -19q-53 0 -85 27t-32 76q0 42 37 88t97 83.5t145 62t174 24.5q163 0 243 -75t80 -236v-545q0 -41 14.5 -54.5t55.5 -13.5h88
v-41q-15 -9 -41 -22t-89.5 -34.5t-107.5 -21.5q-83 0 -124 40t-46 124h-10q-31 -39 -53.5 -63.5t-58 -52t-78 -41t-92.5 -13.5zM463 123q82 0 145 78v305l-135 -45q-158 -51 -158 -178q0 -69 39.5 -114.5t108.5 -45.5zM215 1563h231l99 -410h-68l-262 393v17z" />
    <glyph glyph-name="aacute" unicode="&#xe1;" horiz-adv-x="1019" 
d="M324 -31q-108 0 -184.5 68t-76.5 182q0 120 83.5 187t263.5 112l198 49v138q-3 103 -49.5 165t-126.5 62q-59 0 -104 -31l-9 -225q-55 -19 -112 -19q-53 0 -85 27t-32 76q0 42 37 88t97 83.5t145 62t174 24.5q163 0 243 -75t80 -236v-545q0 -41 14.5 -54.5t55.5 -13.5h88
v-41q-15 -9 -41 -22t-89.5 -34.5t-107.5 -21.5q-83 0 -124 40t-46 124h-10q-31 -39 -53.5 -63.5t-58 -52t-78 -41t-92.5 -13.5zM463 123q82 0 145 78v305l-135 -45q-158 -51 -158 -178q0 -69 39.5 -114.5t108.5 -45.5zM565 1563h232v-17l-262 -393h-68z" />
    <glyph glyph-name="acircumflex" unicode="&#xe2;" horiz-adv-x="1019" 
d="M324 -31q-108 0 -184.5 68t-76.5 182q0 120 83.5 187t263.5 112l198 49v138q-3 103 -49.5 165t-126.5 62q-59 0 -104 -31l-9 -225q-55 -19 -112 -19q-53 0 -85 27t-32 76q0 42 37 88t97 83.5t145 62t174 24.5q163 0 243 -75t80 -236v-545q0 -41 14.5 -54.5t55.5 -13.5h88
v-41q-15 -9 -41 -22t-89.5 -34.5t-107.5 -21.5q-83 0 -124 40t-46 124h-10q-31 -39 -53.5 -63.5t-58 -52t-78 -41t-92.5 -13.5zM322 1153h-80l207 410h126l205 -410h-80l-194 231zM463 123q82 0 145 78v305l-135 -45q-158 -51 -158 -178q0 -69 39.5 -114.5t108.5 -45.5z" />
    <glyph glyph-name="atilde" unicode="&#xe3;" horiz-adv-x="1019" 
d="M324 -31q-108 0 -184.5 68t-76.5 182q0 120 83.5 187t263.5 112l198 49v138q-3 103 -49.5 165t-126.5 62q-59 0 -104 -31l-9 -225q-55 -19 -112 -19q-53 0 -85 27t-32 76q0 42 37 88t97 83.5t145 62t174 24.5q163 0 243 -75t80 -236v-545q0 -41 14.5 -54.5t55.5 -13.5h88
v-41q-15 -9 -41 -22t-89.5 -34.5t-107.5 -21.5q-83 0 -124 40t-46 124h-10q-31 -39 -53.5 -63.5t-58 -52t-78 -41t-92.5 -13.5zM539 1231l-78 33q-80 34 -126 36t-71 -20.5t-53 -79.5l-45 21l12 30q58 148 136.5 191t199.5 -4l90 -35q94 -35 143.5 -17t94.5 101l45 -21
l-13 -30q-65 -163 -139 -209t-196 4zM463 123q82 0 145 78v305l-135 -45q-158 -51 -158 -178q0 -69 39.5 -114.5t108.5 -45.5z" />
    <glyph glyph-name="adieresis" unicode="&#xe4;" horiz-adv-x="1019" 
d="M324 -31q-108 0 -184.5 68t-76.5 182q0 120 83.5 187t263.5 112l198 49v138q-3 103 -49.5 165t-126.5 62q-59 0 -104 -31l-9 -225q-55 -19 -112 -19q-53 0 -85 27t-32 76q0 42 37 88t97 83.5t145 62t174 24.5q163 0 243 -75t80 -236v-545q0 -41 14.5 -54.5t55.5 -13.5h88
v-41q-15 -9 -41 -22t-89.5 -34.5t-107.5 -21.5q-83 0 -124 40t-46 124h-10q-31 -39 -53.5 -63.5t-58 -52t-78 -41t-92.5 -13.5zM463 123q82 0 145 78v305l-135 -45q-158 -51 -158 -178q0 -69 39.5 -114.5t108.5 -45.5zM303 1231q-57 0 -97 39t-40 96q0 56 40 96.5t97 40.5
q55 0 96 -40.5t41 -96.5t-40.5 -95.5t-96.5 -39.5zM709 1231q-57 0 -97.5 39t-40.5 96q0 56 40.5 96.5t97.5 40.5q55 0 96 -40.5t41 -96.5t-40.5 -95.5t-96.5 -39.5z" />
    <glyph glyph-name="aring" unicode="&#xe5;" horiz-adv-x="1019" 
d="M324 -31q-108 0 -184.5 68t-76.5 182q0 120 83.5 187t263.5 112l198 49v138q-3 103 -49.5 165t-126.5 62q-59 0 -104 -31l-9 -225q-55 -19 -112 -19q-53 0 -85 27t-32 76q0 42 37 88t97 83.5t145 62t174 24.5q163 0 243 -75t80 -236v-545q0 -41 14.5 -54.5t55.5 -13.5h88
v-41q-15 -9 -41 -22t-89.5 -34.5t-107.5 -21.5q-83 0 -124 40t-46 124h-10q-31 -39 -53.5 -63.5t-58 -52t-78 -41t-92.5 -13.5zM295 1376q0 87 61.5 147t151.5 60q92 0 151.5 -58.5t59.5 -146.5q0 -87 -61 -147t-152 -60q-92 0 -151.5 58.5t-59.5 146.5zM463 123
q82 0 145 78v305l-135 -45q-158 -51 -158 -178q0 -69 39.5 -114.5t108.5 -45.5zM375 1378q0 -60 39 -99.5t94 -39.5t93 39t38 98q0 60 -38.5 100t-94.5 40q-55 0 -93 -39.5t-38 -98.5z" />
    <glyph glyph-name="ae" unicode="&#xe6;" horiz-adv-x="1548" 
d="M319 -33q-110 0 -183 69t-73 183q0 120 100 186t320 115l127 29v174q-9 95 -53 151t-123 56q-64 0 -106 -33v-215q-67 -25 -117 -25q-54 0 -85.5 29t-31.5 78q0 60 62 119t164.5 97t209.5 38q195 0 265 -137q45 59 120 98t166 39q169 0 266 -102.5t123 -284.5l-616 -107
v-84q17 -129 107 -202.5t223 -73.5q128 0 260 115l31 -29q-4 -5 -20 -28t-28.5 -40.5t-37 -45t-48 -48.5t-57.5 -44.5t-69 -39t-81 -25.5t-94 -10q-113 0 -209.5 54.5t-154.5 152.5q-6 -6 -34 -33.5t-34.5 -33t-31.5 -28.5t-33.5 -29t-31 -23t-35 -22t-34.5 -16t-39 -14
t-39 -6.5t-45 -3.5zM854 670v-78l340 67q-6 125 -53 201t-125 76q-76 0 -116 -62.5t-46 -203.5zM610 430v53l-82 -22q-117 -32 -163 -79.5t-46 -111.5q0 -69 40.5 -108t107.5 -39q128 0 160 176q-17 70 -17 131z" />
    <glyph glyph-name="ccedilla" unicode="&#xe7;" horiz-adv-x="995" 
d="M299 -508l-12 43q97 35 144.5 75t47.5 93q0 42 -29 71.5t-77 43.5l98 157q-182 19 -296 155t-114 355q0 117 45 219t118.5 170.5t168 108t193.5 39.5q142 0 247 -69t105 -165q0 -59 -40.5 -91.5t-106.5 -32.5q-51 0 -66 10l-59 223q-55 51 -129 51q-103 0 -168.5 -92.5
t-65.5 -239.5q0 -208 102.5 -330t251.5 -122q87 0 161.5 38t111.5 79l31 -31q-180 -275 -426 -279l-39 -61q83 -14 129.5 -55t46.5 -105q0 -52 -29.5 -95.5t-82 -74.5t-117.5 -52.5t-144 -35.5z" />
    <glyph glyph-name="egrave" unicode="&#xe8;" horiz-adv-x="1024" 
d="M520 -29q-141 0 -247 72t-159 186.5t-53 251.5q0 110 42 211.5t110.5 173t158 114t181.5 42.5q348 0 399 -420h-659v-18q0 -195 102.5 -307.5t257.5 -112.5q132 0 281 115l33 -31q-37 -55 -75.5 -98t-93.5 -87t-126 -68t-152 -24zM492 942q-77 0 -129.5 -70.5
t-65.5 -201.5h381q-14 129 -60.5 200.5t-125.5 71.5zM252 1563h231l99 -410h-68l-262 393v17z" />
    <glyph glyph-name="eacute" unicode="&#xe9;" horiz-adv-x="1024" 
d="M520 -29q-141 0 -247 72t-159 186.5t-53 251.5q0 110 42 211.5t110.5 173t158 114t181.5 42.5q348 0 399 -420h-659v-18q0 -195 102.5 -307.5t257.5 -112.5q132 0 281 115l33 -31q-37 -55 -75.5 -98t-93.5 -87t-126 -68t-152 -24zM492 942q-77 0 -129.5 -70.5
t-65.5 -201.5h381q-14 129 -60.5 200.5t-125.5 71.5zM592 1563h231v-17l-262 -393h-67z" />
    <glyph glyph-name="ecircumflex" unicode="&#xea;" horiz-adv-x="1024" 
d="M520 -29q-141 0 -247 72t-159 186.5t-53 251.5q0 110 42 211.5t110.5 173t158 114t181.5 42.5q348 0 399 -420h-659v-18q0 -195 102.5 -307.5t257.5 -112.5q132 0 281 115l33 -31q-37 -55 -75.5 -98t-93.5 -87t-126 -68t-152 -24zM352 1153h-80l207 410h127l205 -410h-80
l-194 231zM492 942q-77 0 -129.5 -70.5t-65.5 -201.5h381q-14 129 -60.5 200.5t-125.5 71.5z" />
    <glyph glyph-name="edieresis" unicode="&#xeb;" horiz-adv-x="1024" 
d="M520 -29q-141 0 -247 72t-159 186.5t-53 251.5q0 110 42 211.5t110.5 173t158 114t181.5 42.5q348 0 399 -420h-659v-18q0 -195 102.5 -307.5t257.5 -112.5q132 0 281 115l33 -31q-37 -55 -75.5 -98t-93.5 -87t-126 -68t-152 -24zM492 942q-77 0 -129.5 -70.5
t-65.5 -201.5h381q-14 129 -60.5 200.5t-125.5 71.5zM745 1231q-57 0 -97 39t-40 96q0 56 40 96.5t97 40.5q56 0 97 -41t41 -96q0 -56 -41 -95.5t-97 -39.5zM340 1231q-57 0 -97 39t-40 96q0 56 40 96.5t97 40.5q56 0 96.5 -40.5t40.5 -96.5t-40.5 -95.5t-96.5 -39.5z" />
    <glyph glyph-name="igrave" unicode="&#xec;" horiz-adv-x="589" 
d="M41 0v57l129 35v707l-125 82v32l385 105v-926l135 -35v-57h-524zM8 1563h232l98 -410h-68l-262 393v17z" />
    <glyph glyph-name="iacute" unicode="&#xed;" horiz-adv-x="589" 
d="M358 1563h232v-17l-262 -393h-68zM41 0v57l129 35v707l-125 82v32l385 105v-926l135 -35v-57h-524z" />
    <glyph glyph-name="icircumflex" unicode="&#xee;" horiz-adv-x="589" 
d="M41 0v57l129 35v707l-125 82v32l385 105v-926l135 -35v-57h-524zM119 1153h-78l195 410h124l193 -410h-80l-180 223z" />
    <glyph glyph-name="idieresis" unicode="&#xef;" horiz-adv-x="589" 
d="M113 1231q-57 0 -97.5 39t-40.5 96q0 56 40.5 96.5t97.5 40.5q55 0 96 -40.5t41 -96.5t-40.5 -95.5t-96.5 -39.5zM477 1231q-56 0 -95.5 39t-39.5 96q0 56 40 96.5t95 40.5q57 0 98 -40.5t41 -96.5q0 -57 -41 -96t-98 -39zM41 0v57l129 35v707l-125 82v32l385 105v-926
l135 -35v-57h-524z" />
    <glyph glyph-name="eth" unicode="&#xf0;" horiz-adv-x="1183" 
d="M213 1081l-37 58l270 159q-123 111 -274 203l27 49q207 -66 385 -172l254 152l34 -57l-225 -134q231 -157 346 -362t115 -420q0 -134 -40 -246t-110.5 -187.5t-166.5 -117t-207 -41.5q-122 0 -221.5 41.5t-163.5 112.5t-98.5 162.5t-34.5 193.5q0 109 43.5 208.5
t113.5 169t160.5 110.5t183.5 41q67 0 131 -23q-77 145 -200 268zM829 426q0 175 -38 324q-56 94 -110.5 138t-115.5 44q-104 0 -162.5 -97.5t-58.5 -254.5q0 -99 18.5 -194.5t52.5 -173.5t88 -125.5t120 -47.5q98 0 152 102.5t54 284.5z" />
    <glyph glyph-name="ntilde" unicode="&#xf1;" horiz-adv-x="1206" 
d="M41 0v57l125 35v707l-125 78v30l346 113h10l15 -191h4q27 28 58.5 54.5t80 60t106.5 54t115 20.5q139 0 210 -78t71 -252v-596l127 -37v-55h-504v57l117 35v561q-5 95 -49 148.5t-132 52.5q-92 0 -190 -78v-684l119 -35v-57h-504zM631 1231l-78 33q-80 34 -126 36
t-71 -20.5t-53 -79.5l-45 21l12 30q58 148 136.5 191t199.5 -4l90 -35q94 -35 143.5 -17t94.5 101l45 -21l-12 -30q-65 -162 -139.5 -208.5t-196.5 3.5z" />
    <glyph glyph-name="ograve" unicode="&#xf2;" horiz-adv-x="1177" 
d="M555 950q-57 0 -100 -32t-67 -86t-35 -116.5t-11 -133.5q0 -138 31 -259t96.5 -201.5t153.5 -80.5q99 0 156 103t57 272q0 234 -79.5 384t-201.5 150zM590 -33q-123 0 -224.5 42t-166.5 113t-100.5 162t-35.5 191q0 113 41.5 214.5t112 173.5t168 114.5t205.5 42.5
q233 0 378.5 -139t145.5 -363q0 -233 -151.5 -392t-372.5 -159zM297 1563h231l99 -410h-68l-262 393v17z" />
    <glyph glyph-name="oacute" unicode="&#xf3;" horiz-adv-x="1177" 
d="M647 1563h232v-17l-263 -393h-67zM555 950q-57 0 -100 -32t-67 -86t-35 -116.5t-11 -133.5q0 -138 31 -259t96.5 -201.5t153.5 -80.5q99 0 156 103t57 272q0 234 -79.5 384t-201.5 150zM590 -33q-123 0 -224.5 42t-166.5 113t-100.5 162t-35.5 191q0 113 41.5 214.5
t112 173.5t168 114.5t205.5 42.5q233 0 378.5 -139t145.5 -363q0 -233 -151.5 -392t-372.5 -159z" />
    <glyph glyph-name="ocircumflex" unicode="&#xf4;" horiz-adv-x="1177" 
d="M590 -33q-123 0 -224.5 42t-166.5 113t-100.5 162t-35.5 191q0 113 41.5 214.5t112 173.5t168 114.5t205.5 42.5q233 0 378.5 -139t145.5 -363q0 -233 -151.5 -392t-372.5 -159zM555 950q-57 0 -100 -32t-67 -86t-35 -116.5t-11 -133.5q0 -138 31 -259t96.5 -201.5
t153.5 -80.5q99 0 156 103t57 272q0 234 -79.5 384t-201.5 150zM406 1153h-80l206 410h127l205 -410h-80l-194 231z" />
    <glyph glyph-name="otilde" unicode="&#xf5;" horiz-adv-x="1177" 
d="M555 950q-57 0 -100 -32t-67 -86t-35 -116.5t-11 -133.5q0 -138 31 -259t96.5 -201.5t153.5 -80.5q99 0 156 103t57 272q0 234 -79.5 384t-201.5 150zM590 -33q-123 0 -224.5 42t-166.5 113t-100.5 162t-35.5 191q0 113 41.5 214.5t112 173.5t168 114.5t205.5 42.5
q233 0 378.5 -139t145.5 -363q0 -233 -151.5 -392t-372.5 -159zM621 1231l-78 33q-80 34 -126 36t-71 -20.5t-53 -79.5l-45 21l12 30q58 148 136.5 191t199.5 -4l90 -35q94 -35 143.5 -17t94.5 101l45 -21l-13 -30q-65 -163 -139 -209t-196 4z" />
    <glyph glyph-name="odieresis" unicode="&#xf6;" horiz-adv-x="1177" 
d="M387 1231q-57 0 -97 39t-40 96q0 56 40 96.5t97 40.5q55 0 96 -40.5t41 -96.5t-40.5 -95.5t-96.5 -39.5zM793 1231q-57 0 -97.5 39t-40.5 96q0 56 40.5 96.5t97.5 40.5q55 0 96 -40.5t41 -96.5t-40.5 -95.5t-96.5 -39.5zM555 950q-57 0 -100 -32t-67 -86t-35 -116.5
t-11 -133.5q0 -138 31 -259t96.5 -201.5t153.5 -80.5q99 0 156 103t57 272q0 234 -79.5 384t-201.5 150zM590 -33q-123 0 -224.5 42t-166.5 113t-100.5 162t-35.5 191q0 113 41.5 214.5t112 173.5t168 114.5t205.5 42.5q233 0 378.5 -139t145.5 -363q0 -233 -151.5 -392
t-372.5 -159z" />
    <glyph glyph-name="divide" unicode="&#xf7;" horiz-adv-x="1187" 
d="M1079 453h-970v88h970v-88zM594 684q-53 0 -92 40t-39 95q0 51 39.5 91t91.5 40q54 0 94.5 -40t40.5 -91q0 -55 -40.5 -95t-94.5 -40zM594 43q-54 0 -93.5 39.5t-39.5 93.5q0 53 39.5 93t93.5 40t93.5 -40t39.5 -93q0 -54 -39.5 -93.5t-93.5 -39.5z" />
    <glyph glyph-name="oslash" unicode="&#xf8;" horiz-adv-x="1177" 
d="M156 -100h-84l155 194q-79 71 -121.5 171t-42.5 210q0 113 41.5 214.5t112 173.5t168 114.5t205.5 42.5q180 0 311 -86l125 156h84l-158 -195q162 -140 162 -377q0 -233 -151.5 -392t-372.5 -159q-178 0 -311 86zM555 950q-57 0 -100.5 -32.5t-68 -87t-36 -118
t-10.5 -132.5q0 -161 39 -295l393 487q-79 178 -217 178zM836 418q-3 167 -37 282l-393 -487q76 -172 217 -172q100 0 157.5 104.5t55.5 272.5z" />
    <glyph glyph-name="ugrave" unicode="&#xf9;" horiz-adv-x="1202" 
d="M801 -27l-23 168q-62 -69 -148 -121.5t-188 -52.5q-134 0 -212 81t-78 239v559l-127 55v39l385 66v-666q0 -209 182 -209q96 0 182 68v651l-139 51v41l399 68v-889l137 -43v-47zM305 1563h232l98 -410h-68l-262 393v17z" />
    <glyph glyph-name="uacute" unicode="&#xfa;" horiz-adv-x="1202" 
d="M801 -27l-23 168q-62 -69 -148 -121.5t-188 -52.5q-134 0 -212 81t-78 239v559l-127 55v39l385 66v-666q0 -209 182 -209q96 0 182 68v651l-139 51v41l399 68v-889l137 -43v-47zM655 1563h232v-17l-262 -393h-68z" />
    <glyph glyph-name="ucircumflex" unicode="&#xfb;" horiz-adv-x="1202" 
d="M801 -27l-23 168q-62 -69 -148 -121.5t-188 -52.5q-134 0 -212 81t-78 239v559l-127 55v39l385 66v-666q0 -209 182 -209q96 0 182 68v651l-139 51v41l399 68v-889l137 -43v-47zM414 1153h-80l207 410h127l204 -410h-79l-195 231z" />
    <glyph glyph-name="udieresis" unicode="&#xfc;" horiz-adv-x="1202" 
d="M801 -27l-23 168q-62 -69 -148 -121.5t-188 -52.5q-134 0 -212 81t-78 239v559l-127 55v39l385 66v-666q0 -209 182 -209q96 0 182 68v651l-139 51v41l399 68v-889l137 -43v-47zM801 1231q-57 0 -97 39t-40 96q0 56 40 96.5t97 40.5q55 0 96 -40.5t41 -96.5t-40.5 -95.5
t-96.5 -39.5zM395 1231q-57 0 -97 39t-40 96q0 56 40 96.5t97 40.5q55 0 96 -40.5t41 -96.5t-40.5 -95.5t-96.5 -39.5z" />
    <glyph glyph-name="yacute" unicode="&#xfd;" horiz-adv-x="1007" 
d="M825 893l-131 41v55h320v-57l-94 -33l-465 -1210q-74 -189 -222 -189q-59 0 -101 41.5t-42 102.5q0 60 41.5 100.5t99.5 40.5q85 0 140 -94l6 -4l90 231l-387 987l-86 27v57h479v-57l-108 -31l231 -647zM635 1563h231v-17l-262 -393h-67z" />
    <glyph glyph-name="thorn" unicode="&#xfe;" horiz-adv-x="1167" 
d="M510 -23q-52 0 -119 19v-367l215 -41v-57h-608v57l133 37v1692l-125 65v31l385 115v-686q135 172 314 172q75 0 143 -27t124.5 -81t90 -144.5t33.5 -206.5q0 -122 -51 -231.5t-133.5 -184.5t-188 -118.5t-213.5 -43.5zM549 866q-91 0 -158 -67v-668q71 -76 178 -76
q117 0 191 104.5t74 293.5q0 185 -85 299t-200 114z" />
    <glyph glyph-name="ydieresis" unicode="&#xff;" horiz-adv-x="1007" 
d="M825 893l-131 41v55h320v-57l-94 -33l-465 -1210q-74 -189 -222 -189q-59 0 -101 41.5t-42 102.5q0 60 41.5 100.5t99.5 40.5q82 0 142 -92l4 -6l90 231l-387 987l-86 27v57h479v-57l-108 -31l231 -647zM756 1231q-57 0 -97.5 39t-40.5 96q0 56 40.5 96.5t97.5 40.5
q56 0 96.5 -40.5t40.5 -96.5t-40.5 -95.5t-96.5 -39.5zM350 1231q-57 0 -97 39t-40 96q0 56 40 96.5t97 40.5q56 0 96.5 -40.5t40.5 -96.5t-40.5 -95.5t-96.5 -39.5z" />
    <glyph glyph-name="Amacron" unicode="&#x100;" horiz-adv-x="1400" 
d="M-12 0v59l143 37l485 1274l74 16l90 19l494 -1313l139 -33v-59h-612v59l162 35l-132 365h-469l-129 -355l234 -45v-59h-479zM598 1112l-199 -549h396zM391 1565v135h606v-135h-606z" />
    <glyph glyph-name="amacron" unicode="&#x101;" horiz-adv-x="1019" 
d="M324 -31q-108 0 -184.5 68t-76.5 182q0 120 83.5 187t263.5 112l198 49v138q-3 103 -49.5 165t-126.5 62q-59 0 -104 -31l-9 -225q-55 -19 -112 -19q-53 0 -85 27t-32 76q0 42 37 88t97 83.5t145 62t174 24.5q163 0 243 -75t80 -236v-545q0 -41 14.5 -54.5t55.5 -13.5h88
v-41q-15 -9 -41 -22t-89.5 -34.5t-107.5 -21.5q-83 0 -124 40t-46 124h-10q-31 -39 -53.5 -63.5t-58 -52t-78 -41t-92.5 -13.5zM463 123q82 0 145 78v305l-135 -45q-158 -51 -158 -178q0 -69 39.5 -114.5t108.5 -45.5zM203 1278v135h606v-135h-606z" />
    <glyph glyph-name="Abreve" unicode="&#x102;" horiz-adv-x="1400" 
d="M-12 0v59l143 37l485 1274l74 16l90 19l494 -1313l139 -33v-59h-612v59l162 35l-132 365h-469l-129 -355l234 -45v-59h-479zM598 1112l-199 -549h396zM686 1468q-91 0 -154.5 43.5t-90.5 107.5t-25 140h55q57 -147 227 -147q163 0 220 147h53q3 -74 -28 -139.5
t-98.5 -108.5t-158.5 -43z" />
    <glyph glyph-name="abreve" unicode="&#x103;" horiz-adv-x="1019" 
d="M324 -31q-108 0 -184.5 68t-76.5 182q0 120 83.5 187t263.5 112l198 49v138q-3 103 -49.5 165t-126.5 62q-59 0 -104 -31l-9 -225q-55 -19 -112 -19q-53 0 -85 27t-32 76q0 42 37 88t97 83.5t145 62t174 24.5q163 0 243 -75t80 -236v-545q0 -41 14.5 -54.5t55.5 -13.5h88
v-41q-15 -9 -41 -22t-89.5 -34.5t-107.5 -21.5q-83 0 -124 40t-46 124h-10q-31 -39 -53.5 -63.5t-58 -52t-78 -41t-92.5 -13.5zM504 1174q-121 0 -190.5 88.5t-69.5 265.5h53q47 -205 215 -205q78 0 133 51.5t78 153.5h49q-3 -171 -74.5 -262.5t-193.5 -91.5zM463 123
q82 0 145 78v305l-135 -45q-158 -51 -158 -178q0 -69 39.5 -114.5t108.5 -45.5z" />
    <glyph glyph-name="Aogonek" unicode="&#x104;" horiz-adv-x="1400" 
d="M-12 0v59l143 37l485 1274l74 16l90 19l494 -1313l139 -33v-59h-350q-67 -37 -110 -81t-57.5 -79.5t-14.5 -68.5q0 -51 27 -83t75 -32q40 0 73.5 19t76.5 65l34 -27q-25 -46 -47 -78t-55.5 -66.5t-77.5 -52.5t-98 -18q-86 0 -139.5 49.5t-53.5 126.5q0 80 63.5 154.5
t227.5 194.5l-156 436h-469l-129 -355l234 -45v-59h-479zM598 1112l-199 -549h396z" />
    <glyph glyph-name="aogonek" unicode="&#x105;" horiz-adv-x="1019" 
d="M811 -31v6q-99 -3 -143.5 38t-49.5 126h-12q-31 -39 -53.5 -63.5t-58 -52t-78 -41t-92.5 -13.5q-108 0 -184.5 68t-76.5 182q0 119 83 185.5t264 113.5l198 49v138q-3 103 -49.5 165t-126.5 62q-59 0 -104 -31l-9 -225q-55 -19 -112 -19q-53 0 -85 27t-32 74q0 42 37 88
t97 84t145 63t174 25q163 0 243 -75t80 -236v-545q0 -41 14.5 -54.5t55.5 -13.5h88v-39q-176 -102 -238.5 -165.5t-62.5 -129.5q0 -43 28.5 -73.5t73.5 -30.5q41 0 73 19t77 65l37 -27q-28 -48 -49.5 -78.5t-56 -66t-78 -53t-95.5 -17.5q-87 0 -140.5 49.5t-53.5 126.5
q0 81 65 149t207 146zM463 123q82 0 145 78v305l-135 -45q-158 -51 -158 -178q0 -69 39.5 -114.5t108.5 -45.5z" />
    <glyph glyph-name="Cacute" unicode="&#x106;" horiz-adv-x="1474" 
d="M838 -41q-149 0 -274.5 39t-212 105t-147 155t-88.5 187t-28 202q0 157 64.5 296.5t173.5 238.5t258 157t313 58q220 0 436 -107l6 -372h-59l-131 294q-135 111 -301 111q-188 0 -311 -165t-123 -429q0 -166 38.5 -299.5t105 -218t154 -129.5t187.5 -45q144 0 248 88
l192 330h62l-70 -377q-135 -61 -248.5 -90t-244.5 -29zM952 1772h258v-23l-317 -270h-92z" />
    <glyph glyph-name="cacute" unicode="&#x107;" horiz-adv-x="995" 
d="M612 1563h232v-17l-262 -393h-68zM528 -29q-203 0 -335 139t-132 375q0 117 45 219t118.5 170.5t168 108t193.5 39.5q142 0 247 -69t105 -165q0 -59 -40.5 -91.5t-106.5 -32.5q-51 0 -66 10l-59 223q-55 51 -129 51q-103 0 -168.5 -92.5t-65.5 -239.5q0 -208 102.5 -330
t251.5 -122q87 0 161.5 38t111.5 79l31 -31q-182 -279 -433 -279z" />
    <glyph glyph-name="Ccircumflex" unicode="&#x108;" horiz-adv-x="1474" 
d="M838 -41q-149 0 -274.5 39t-212 105t-147 155t-88.5 187t-28 202q0 157 64.5 296.5t173.5 238.5t258 157t313 58q220 0 436 -107l6 -372h-59l-131 294q-135 111 -301 111q-188 0 -311 -165t-123 -429q0 -166 38.5 -299.5t105 -218t154 -129.5t187.5 -45q144 0 248 88
l192 330h62l-70 -377q-135 -61 -248.5 -90t-244.5 -29zM637 1479h-90l221 280h193l213 -280h-101l-215 147z" />
    <glyph glyph-name="ccircumflex" unicode="&#x109;" horiz-adv-x="995" 
d="M528 -29q-203 0 -335 139t-132 375q0 117 45 219t118.5 170.5t168 108t193.5 39.5q142 0 247 -69t105 -165q0 -59 -40.5 -91.5t-106.5 -32.5q-51 0 -66 10l-59 223q-55 51 -129 51q-103 0 -168.5 -92.5t-65.5 -239.5q0 -208 102.5 -330t251.5 -122q87 0 161.5 38
t111.5 79l31 -31q-182 -279 -433 -279zM371 1153h-80l207 410h127l204 -410h-79l-195 231z" />
    <glyph glyph-name="Cdotaccent" unicode="&#x10a;" horiz-adv-x="1474" 
d="M838 -41q-149 0 -274.5 39t-212 105t-147 155t-88.5 187t-28 202q0 157 64.5 296.5t173.5 238.5t258 157t313 58q220 0 436 -107l6 -372h-59l-131 294q-135 111 -301 111q-188 0 -311 -165t-123 -429q0 -166 38.5 -299.5t105 -218t154 -129.5t187.5 -45q144 0 248 88
l192 330h62l-70 -377q-135 -61 -248.5 -90t-244.5 -29zM856 1501q-63 0 -106 43.5t-43 106.5t43 107t106 44q62 0 107 -44t45 -107q0 -62 -45 -106t-107 -44z" />
    <glyph glyph-name="cdotaccent" unicode="&#x10b;" horiz-adv-x="995" 
d="M528 -29q-203 0 -335 139t-132 375q0 117 45 219t118.5 170.5t168 108t193.5 39.5q142 0 247 -69t105 -165q0 -59 -40.5 -91.5t-106.5 -32.5q-51 0 -66 10l-59 223q-55 51 -129 51q-103 0 -168.5 -92.5t-65.5 -239.5q0 -208 102.5 -330t251.5 -122q87 0 161.5 38
t111.5 79l31 -31q-182 -279 -433 -279zM555 1217q-62 0 -107 44t-45 105t45 105.5t107 44.5q61 0 105.5 -44t44.5 -106q0 -61 -44 -105t-106 -44z" />
    <glyph glyph-name="Ccaron" unicode="&#x10c;" horiz-adv-x="1474" 
d="M838 -41q-149 0 -274.5 39t-212 105t-147 155t-88.5 187t-28 202q0 157 64.5 296.5t173.5 238.5t258 157t313 58q220 0 436 -107l6 -372h-59l-131 294q-135 111 -301 111q-188 0 -311 -165t-123 -429q0 -166 38.5 -299.5t105 -218t154 -129.5t187.5 -45q144 0 248 88
l192 330h62l-70 -377q-135 -61 -248.5 -90t-244.5 -29zM1081 1759h93l-222 -280h-192l-213 280h98l215 -149z" />
    <glyph glyph-name="ccaron" unicode="&#x10d;" horiz-adv-x="995" 
d="M528 -29q-203 0 -335 139t-132 375q0 117 45 219t118.5 170.5t168 108t193.5 39.5q142 0 247 -69t105 -165q0 -59 -40.5 -91.5t-106.5 -32.5q-51 0 -66 10l-59 223q-55 51 -129 51q-103 0 -168.5 -92.5t-65.5 -239.5q0 -208 102.5 -330t251.5 -122q87 0 161.5 38
t111.5 79l31 -31q-182 -279 -433 -279zM745 1563h78l-207 -410h-124l-207 410h82l192 -232z" />
    <glyph glyph-name="Dcaron" unicode="&#x10e;" horiz-adv-x="1574" 
d="M61 0v61l158 37v1162l-158 40v60l648 4q231 -6 407.5 -85t276.5 -226.5t100 -343.5q0 -156 -62.5 -288t-177.5 -227t-287.5 -147t-383.5 -51zM500 1305v-1168q34 -34 96.5 -52.5t132.5 -16.5q204 3 332.5 169.5t128.5 421.5q0 159 -54.5 285.5t-149 206t-219 119.5
t-267.5 35zM956 1759h93l-222 -280h-192l-213 280h98l215 -149z" />
    <glyph glyph-name="dcaron" unicode="&#x10f;" horiz-adv-x="1189" 
d="M608 1397v33l416 100v-1411l129 -35v-47l-356 -64l-23 136q-137 -142 -295 -142q-125 0 -221.5 65.5t-146.5 173.5t-50 240q0 123 49.5 230t131 179.5t186 113.5t215.5 41q45 0 123 -19v332zM621 115q71 0 145 51v649q-73 117 -201 117q-105 0 -175.5 -93t-70.5 -284
q0 -114 34 -212.5t104 -163t164 -64.5zM1186 1075h-51l30 416h213v-14z" />
    <glyph glyph-name="Dcroat" unicode="&#x110;" horiz-adv-x="1574" 
d="M61 0v61l158 37v545h-164v82h164v535l-158 40v60l646 4q173 -4 318 -51.5t248.5 -130.5t161.5 -204.5t58 -268.5q0 -156 -62.5 -288t-177.5 -227t-287.5 -147t-383.5 -51zM817 643h-317v-506q69 -69 227 -69q134 0 240 77t164.5 212t58.5 302q0 159 -54.5 285.5t-149 206
t-219 119.5t-267.5 35v-580h317v-82z" />
    <glyph glyph-name="dcroat" unicode="&#x111;" horiz-adv-x="1189" 
d="M608 1397v33l416 100v-305h133v-74h-133v-1032l129 -35v-47l-356 -64l-23 133q-135 -139 -295 -139q-125 0 -221.5 65.5t-146.5 173.5t-50 240q0 123 48.5 230t129 179.5t186 113.5t218.5 41q45 0 123 -19v160h-367v74h367v110zM621 117q71 0 145 51v653
q-69 111 -197 111q-105 0 -176 -92t-71 -279q0 -116 33.5 -215.5t103 -164t162.5 -64.5z" />
    <glyph glyph-name="Emacron" unicode="&#x112;" horiz-adv-x="1267" 
d="M748 662h-246v-531q41 -49 123 -55h307l217 364h63l-94 -440h-1057v59l158 39v1159l-158 43v60h918l164 4v-387h-62l-123 309h-456v-543h246l65 209h59v-489h-63zM360 1565v135h607v-135h-607z" />
    <glyph glyph-name="emacron" unicode="&#x113;" horiz-adv-x="1024" 
d="M520 -29q-141 0 -247 72t-159 186.5t-53 251.5q0 110 42 211.5t110.5 173t158 114t181.5 42.5q348 0 399 -420h-659v-18q0 -195 102.5 -307.5t257.5 -112.5q132 0 281 115l33 -31q-37 -55 -75.5 -98t-93.5 -87t-126 -68t-152 -24zM229 1278v135h607v-135h-607zM492 942
q-77 0 -129.5 -70.5t-65.5 -201.5h381q-14 129 -60.5 200.5t-125.5 71.5z" />
    <glyph glyph-name="Ebreve" unicode="&#x114;" horiz-adv-x="1267" 
d="M748 662h-246v-531q41 -49 123 -55h307l217 364h63l-94 -440h-1057v59l158 39v1159l-158 43v60h918l164 4v-387h-62l-123 309h-456v-543h246l65 209h59v-489h-63zM666 1468q-69 0 -123 25t-86 66.5t-48 92.5t-14 107h56q57 -147 227 -147q162 0 219 147h53
q5 -116 -72 -203.5t-212 -87.5z" />
    <glyph glyph-name="ebreve" unicode="&#x115;" horiz-adv-x="1024" 
d="M520 -29q-141 0 -247 72t-159 186.5t-53 251.5q0 110 42 211.5t110.5 173t158 114t181.5 42.5q348 0 399 -420h-659v-18q0 -195 102.5 -307.5t257.5 -112.5q132 0 281 115l33 -31q-37 -55 -75.5 -98t-93.5 -87t-126 -68t-152 -24zM543 1174q-121 0 -190.5 88.5
t-69.5 265.5h53q47 -205 215 -205q78 0 133 51.5t78 153.5h49q-3 -171 -74.5 -262.5t-193.5 -91.5zM492 942q-77 0 -129.5 -70.5t-65.5 -201.5h381q-14 129 -60.5 200.5t-125.5 71.5z" />
    <glyph glyph-name="Edotaccent" unicode="&#x116;" horiz-adv-x="1267" 
d="M748 662h-246v-531q41 -49 123 -55h307l217 364h63l-94 -440h-1057v59l158 39v1159l-158 43v60h918l164 4v-387h-62l-123 309h-456v-543h246l65 209h59v-489h-63zM680 1501q-63 0 -106.5 43.5t-43.5 106.5t43.5 107t106.5 44q62 0 106.5 -44t44.5 -107t-44.5 -106.5
t-106.5 -43.5z" />
    <glyph glyph-name="edotaccent" unicode="&#x117;" horiz-adv-x="1024" 
d="M520 -29q-141 0 -247 72t-159 186.5t-53 251.5q0 110 42 211.5t110.5 173t158 114t181.5 42.5q348 0 399 -420h-659v-18q0 -195 102.5 -307.5t257.5 -112.5q132 0 281 115l33 -31q-37 -55 -75.5 -98t-93.5 -87t-126 -68t-152 -24zM492 942q-77 0 -129.5 -70.5
t-65.5 -201.5h381q-14 129 -60.5 200.5t-125.5 71.5zM545 1217q-62 0 -107 44t-45 105t45 105.5t107 44.5q61 0 105 -44t44 -106t-44 -105.5t-105 -43.5z" />
    <glyph glyph-name="Eogonek" unicode="&#x118;" horiz-adv-x="1267" 
d="M748 662h-246v-531q41 -49 123 -55h307l217 364h63l-94 -440h-166q-141 -139 -141 -233q0 -50 27.5 -80.5t72.5 -30.5q41 0 73 19t77 65l37 -27q-26 -46 -48 -78t-56.5 -66.5t-78.5 -52.5t-96 -18q-87 0 -140.5 49.5t-53.5 128.5q0 77 64 152.5t202 171.5h-830v59l158 39
v1159l-158 43v60h918l164 4v-387h-62l-123 309h-456v-543h246l65 209h59v-489h-63z" />
    <glyph glyph-name="eogonek" unicode="&#x119;" horiz-adv-x="1024" 
d="M520 -29q-141 0 -247 72t-159 186.5t-53 251.5q0 110 42 211.5t110.5 173t158 114t181.5 42.5q348 0 399 -420h-659v-18q0 -195 102.5 -307.5t257.5 -112.5q132 0 281 115l33 -31q-63 -97 -129 -156q-252 -220 -252 -336q0 -42 26.5 -71t73.5 -29q39 0 71 18.5t77 65.5
l36 -27q-28 -48 -49 -78t-55.5 -66t-78 -53.5t-95.5 -17.5q-87 0 -141 49.5t-54 126.5q0 78 62.5 145.5t220.5 174.5v6q-79 -29 -160 -29zM492 942q-77 0 -129.5 -70.5t-65.5 -201.5h381q-14 129 -60.5 200.5t-125.5 71.5z" />
    <glyph glyph-name="Ecaron" unicode="&#x11a;" horiz-adv-x="1267" 
d="M748 662h-246v-531q41 -49 123 -55h307l217 364h63l-94 -440h-1057v59l158 39v1159l-158 43v60h918l164 4v-387h-62l-123 309h-456v-543h246l65 209h59v-489h-63zM891 1759h92l-221 -280h-193l-213 280h99l215 -149z" />
    <glyph glyph-name="ecaron" unicode="&#x11b;" horiz-adv-x="1024" 
d="M520 -29q-141 0 -247 72t-159 186.5t-53 251.5q0 110 42 211.5t110.5 173t158 114t181.5 42.5q348 0 399 -420h-659v-18q0 -195 102.5 -307.5t257.5 -112.5q132 0 281 115l33 -31q-37 -55 -75.5 -98t-93.5 -87t-126 -68t-152 -24zM733 1563h78l-207 -410h-125l-207 410
h82l193 -232zM492 942q-77 0 -129.5 -70.5t-65.5 -201.5h381q-14 129 -60.5 200.5t-125.5 71.5z" />
    <glyph glyph-name="Gcircumflex" unicode="&#x11c;" horiz-adv-x="1552" 
d="M858 -41q-157 0 -286 39t-217 105t-148 155t-87.5 186.5t-27.5 202.5q0 206 116 379.5t309 272t415 98.5q226 0 438 -101l10 -372h-55l-158 303q-126 90 -262 90q-220 0 -352.5 -171t-132.5 -448q0 -132 27 -240.5t74 -184t111.5 -127t137.5 -75.5t154 -24q110 0 202 39
v418l-231 33v71h608v-65l-102 -27v-426l-72 -29q-246 -102 -471 -102zM664 1479h-91l222 280h192l213 -280h-100l-215 147z" />
    <glyph glyph-name="gcircumflex" unicode="&#x11d;" horiz-adv-x="1073" 
d="M1061 872l-246 15l-2 -6q100 -93 100 -209q0 -147 -119.5 -243.5t-297.5 -96.5q-108 0 -187 33q-39 -42 -39 -80q0 -68 99 -74l409 -21q130 -6 199.5 -68.5t69.5 -160.5q0 -118 -88 -222t-235 -166t-312 -62q-180 0 -279.5 64.5t-99.5 180.5q0 73 54 131t146 97v10
q-64 11 -107.5 55t-43.5 111q0 57 42.5 111.5t125.5 117.5v4q-75 44 -117.5 114.5t-42.5 160.5q0 156 119 253t291 97q45 0 90 -7.5t72.5 -15t95.5 -28.5l303 30v-125zM754 -51l-447 24q-63 -67 -63 -149q0 -98 79 -153.5t216 -55.5q83 0 148.5 21t102 54.5t55.5 70t19 71.5
q0 44 -30 76t-80 41zM330 739q2 -151 55 -245.5t139 -94.5q66 0 108 62t42 166q-1 153 -58.5 242t-138.5 87q-69 0 -108 -59t-39 -158zM322 1153h-80l207 410h126l205 -410h-80l-194 231z" />
    <glyph glyph-name="Gbreve" unicode="&#x11e;" horiz-adv-x="1552" 
d="M885 1468q-69 0 -123 25t-86 66.5t-48 92.5t-14 107h56q57 -147 227 -147q162 0 219 147h53q5 -116 -72 -203.5t-212 -87.5zM858 -41q-157 0 -286 39t-217 105t-148 155t-87.5 186.5t-27.5 202.5q0 206 116 379.5t309 272t415 98.5q226 0 438 -101l10 -372h-55l-158 303
q-126 90 -262 90q-220 0 -352.5 -171t-132.5 -448q0 -132 27 -240.5t74 -184t111.5 -127t137.5 -75.5t154 -24q110 0 202 39v418l-231 33v71h608v-65l-102 -27v-426l-72 -29q-246 -102 -471 -102z" />
    <glyph glyph-name="gbreve" unicode="&#x11f;" horiz-adv-x="1073" 
d="M1061 872l-246 15l-2 -6q100 -93 100 -209q0 -147 -119.5 -243.5t-297.5 -96.5q-108 0 -187 33q-39 -42 -39 -80q0 -68 99 -74l409 -21q130 -6 199.5 -68.5t69.5 -160.5q0 -118 -88 -222t-235 -166t-312 -62q-180 0 -279.5 64.5t-99.5 180.5q0 73 54 131t146 97v10
q-64 11 -107.5 55t-43.5 111q0 57 42.5 111.5t125.5 117.5v4q-75 44 -117.5 114.5t-42.5 160.5q0 156 119 253t291 97q45 0 90 -7.5t72.5 -15t95.5 -28.5l303 30v-125zM754 -51l-447 24q-63 -67 -63 -149q0 -98 79 -153.5t216 -55.5q83 0 148.5 21t102 54.5t55.5 70t19 71.5
q0 44 -30 76t-80 41zM330 739q2 -151 55 -245.5t139 -94.5q66 0 108 62t42 166q-1 153 -58.5 242t-138.5 87q-69 0 -108 -59t-39 -158zM504 1174q-121 0 -190.5 88.5t-69.5 265.5h53q47 -205 215 -205q78 0 133 51.5t78 153.5h49q-3 -171 -74.5 -262.5t-193.5 -91.5z" />
    <glyph glyph-name="Gdotaccent" unicode="&#x120;" horiz-adv-x="1552" 
d="M889 1501q-63 0 -106.5 43.5t-43.5 106.5t43.5 107t106.5 44q62 0 106.5 -44t44.5 -107t-44.5 -106.5t-106.5 -43.5zM858 -41q-157 0 -286 39t-217 105t-148 155t-87.5 186.5t-27.5 202.5q0 206 116 379.5t309 272t415 98.5q226 0 438 -101l10 -372h-55l-158 303
q-126 90 -262 90q-220 0 -352.5 -171t-132.5 -448q0 -132 27 -240.5t74 -184t111.5 -127t137.5 -75.5t154 -24q110 0 202 39v418l-231 33v71h608v-65l-102 -27v-426l-72 -29q-246 -102 -471 -102z" />
    <glyph glyph-name="gdotaccent" unicode="&#x121;" horiz-adv-x="1073" 
d="M1061 872l-246 15l-2 -6q100 -93 100 -209q0 -147 -119.5 -243.5t-297.5 -96.5q-108 0 -187 33q-39 -42 -39 -80q0 -68 99 -74l409 -21q130 -6 199.5 -68.5t69.5 -160.5q0 -118 -88 -222t-235 -166t-312 -62q-180 0 -279.5 64.5t-99.5 180.5q0 73 54 131t146 97v10
q-64 11 -107.5 55t-43.5 111q0 57 42.5 111.5t125.5 117.5v4q-75 44 -117.5 114.5t-42.5 160.5q0 156 119 253t291 97q45 0 90 -7.5t72.5 -15t95.5 -28.5l303 30v-125zM754 -51l-447 24q-63 -67 -63 -149q0 -98 79 -153.5t216 -55.5q83 0 148.5 21t102 54.5t55.5 70t19 71.5
q0 44 -30 76t-80 41zM330 739q2 -151 55 -245.5t139 -94.5q66 0 108 62t42 166q-1 153 -58.5 242t-138.5 87q-69 0 -108 -59t-39 -158zM508 1217q-62 0 -107 44t-45 105t45 105.5t107 44.5q61 0 105 -44t44 -106t-43.5 -105.5t-105.5 -43.5z" />
    <glyph glyph-name="Gcommaaccent" unicode="&#x122;" horiz-adv-x="1552" 
d="M655 -520l-14 45q195 62 195 156q0 42 -32.5 67.5t-82.5 30.5v8q15 53 53.5 81t93.5 28q72 0 116 -43t44 -111q0 -195 -373 -262zM858 -41q-157 0 -286 39t-217 105t-148 155t-87.5 186.5t-27.5 202.5q0 206 116 379.5t309 272t415 98.5q226 0 438 -101l10 -372h-55
l-158 303q-126 90 -262 90q-220 0 -352.5 -171t-132.5 -448q0 -132 27 -240.5t74 -184t111.5 -127t137.5 -75.5t154 -24q110 0 202 39v418l-231 33v71h608v-65l-102 -27v-426l-72 -29q-246 -102 -471 -102z" />
    <glyph glyph-name="gcommaaccent" unicode="&#x123;" horiz-adv-x="1073" 
d="M1061 872l-246 15l-2 -6q100 -93 100 -209q0 -147 -119.5 -243.5t-297.5 -96.5q-108 0 -187 33q-39 -42 -39 -80q0 -68 99 -74l409 -21q130 -6 199.5 -68.5t69.5 -160.5q0 -118 -88 -222t-235 -166t-312 -62q-180 0 -279.5 64.5t-99.5 180.5q0 73 54 131t146 97v10
q-64 11 -107.5 55t-43.5 111q0 57 42.5 111.5t125.5 117.5v4q-75 44 -117.5 114.5t-42.5 160.5q0 156 119 253t291 97q45 0 90 -7.5t72.5 -15t95.5 -28.5l303 30v-125zM754 -51l-447 24q-63 -67 -63 -149q0 -98 79 -153.5t216 -55.5q83 0 148.5 21t102 54.5t55.5 70t19 71.5
q0 44 -30 76t-80 41zM330 739q2 -151 55 -245.5t139 -94.5q66 0 108 62t42 166q-1 153 -58.5 242t-138.5 87q-69 0 -108 -59t-39 -158zM719 1636l14 -47q-194 -62 -194 -155q0 -43 32 -68.5t84 -30.5v-8q-35 -108 -149 -108q-72 0 -116 42.5t-44 110.5q0 194 373 264z" />
    <glyph glyph-name="Hcircumflex" unicode="&#x124;" horiz-adv-x="1622" 
d="M954 0v59l166 39v561h-618v-561l166 -39v-59h-607v59l158 39v1162l-158 40v60h607v-60l-166 -40v-517h618v517l-166 40v60h607v-60l-158 -40v-1162l158 -39v-59h-607zM588 1479h-90l221 280h192l213 -280h-100l-215 147z" />
    <glyph glyph-name="hcircumflex" unicode="&#x125;" horiz-adv-x="1212" 
d="M688 0v57l117 35v561q-5 95 -48.5 148.5t-131.5 52.5q-93 0 -191 -78v-684l119 -35v-57h-504v57l125 35v1211l-121 71v35l381 121v-692q27 28 59 54.5t78 57.5t101.5 49.5t109.5 18.5q140 0 210.5 -77.5t70.5 -252.5v-596l129 -37v-55h-504zM397 1559h-90l221 280h193
l213 -280h-100l-216 147z" />
    <glyph glyph-name="Hbar" unicode="&#x126;" horiz-adv-x="1622" 
d="M954 0v59l166 39v561h-618v-561l166 -39v-59h-607v59l158 39v891h-192v82h192v189l-158 40v60h607v-60l-166 -40v-189h618v189l-164 40v60h605v-60l-158 -40v-189h194v-82h-194v-891l158 -39v-59h-607zM502 989v-246h618v246h-618z" />
    <glyph glyph-name="hbar" unicode="&#x127;" horiz-adv-x="1212" 
d="M696 0v57l109 35v561q-5 95 -48.5 148.5t-131.5 52.5q-93 0 -191 -78v-684l119 -35v-57h-504v57l125 37v1057h-139v74h139v102l-121 47v35l381 121v-305h367v-74h-367v-313q27 28 59 54.5t78 57.5t101.5 49.5t109.5 18.5q140 0 210.5 -77.5t70.5 -252.5v-596l129 -37v-55
h-496z" />
    <glyph glyph-name="Itilde" unicode="&#x128;" horiz-adv-x="722" 
d="M61 0v59l158 39v1162l-158 40v60h598v-60l-157 -40v-1162l157 -39v-59h-598zM393 1538l-82 29q-122 42 -169 31t-85 -91l-43 21l11 28q53 148 131 190.5t200 -1.5l90 -31q96 -34 148 -17.5t94 97.5l45 -20l-12 -33q-61 -160 -134 -204t-194 1z" />
    <glyph glyph-name="itilde" unicode="&#x129;" horiz-adv-x="589" 
d="M272 1253l-28 13q-94 44 -145 32t-93 -96l-45 21l10 26q58 150 138 194t200 -7l39 -17q79 -35 129.5 -17t95.5 101l45 -20l-14 -33q-35 -81 -68 -129.5t-72.5 -73t-85 -22.5t-106.5 28zM41 0v57l129 35v707l-125 82v32l385 105v-926l135 -35v-57h-524z" />
    <glyph glyph-name="Imacron" unicode="&#x12a;" horiz-adv-x="722" 
d="M61 0v59l158 39v1162l-158 40v60h598v-60l-157 -40v-1162l157 -39v-59h-598zM78 1565v135h567v-135h-567z" />
    <glyph glyph-name="imacron" unicode="&#x12b;" horiz-adv-x="589" 
d="M41 0v57l129 35v707l-125 82v32l385 105v-926l135 -35v-57h-524zM31 1278v135h530v-135h-530z" />
    <glyph glyph-name="Ibreve" unicode="&#x12c;" horiz-adv-x="722" 
d="M61 0v59l158 39v1162l-158 40v60h598v-60l-157 -40v-1162l157 -39v-59h-598zM362 1468q-91 0 -154.5 43.5t-90.5 107.5t-25 140h55q57 -147 228 -147q162 0 219 147h53q3 -74 -28 -139.5t-98.5 -108.5t-158.5 -43z" />
    <glyph glyph-name="ibreve" unicode="&#x12d;" horiz-adv-x="589" 
d="M41 0v57l129 35v707l-125 82v32l385 105v-926l135 -35v-57h-524zM297 1174q-121 0 -190.5 88.5t-69.5 265.5h53q47 -205 215 -205q78 0 133 51.5t78 153.5h49q-3 -171 -74.5 -262.5t-193.5 -91.5z" />
    <glyph glyph-name="Iogonek" unicode="&#x12e;" horiz-adv-x="722" 
d="M61 0v59l158 39v1162l-158 40v60h598v-60l-157 -40v-1162l157 -39v-59h-270q-45 -88 -64.5 -138t-19.5 -93q0 -51 28.5 -82t74.5 -31q41 0 72.5 18.5t76.5 65.5l37 -27q-28 -48 -49.5 -78.5t-56 -66t-78 -53t-95.5 -17.5q-87 0 -140.5 49.5t-53.5 128.5q0 66 46.5 136
t164.5 188h-271z" />
    <glyph glyph-name="iogonek" unicode="&#x12f;" horiz-adv-x="589" 
d="M41 0v57l129 35v707l-125 82v32l385 105v-926l135 -35v-57h-233q-45 -88 -64.5 -138t-19.5 -93q0 -51 27 -82t73 -31q41 0 73 19t77 65l37 -27q-26 -46 -48 -78t-56.5 -66.5t-78.5 -52.5t-96 -18q-87 0 -141 50t-54 128q0 66 46.5 136t166.5 188h-233zM293 1217
q-60 0 -105 44t-45 105q0 60 45 105t105 45t105.5 -45t45.5 -105q0 -61 -45 -105t-106 -44z" />
    <glyph glyph-name="Idotaccent" unicode="&#x130;" horiz-adv-x="722" 
d="M61 0v59l158 39v1162l-158 40v60h598v-60l-157 -40v-1162l157 -39v-59h-598zM360 1501q-63 0 -106 43.5t-43 106.5t43 107t106 44q62 0 107 -44t45 -107q0 -62 -45 -106t-107 -44z" />
    <glyph glyph-name="dotlessi" unicode="&#x131;" horiz-adv-x="589" 
d="M41 0v57l129 35v707l-125 82v32l385 105v-926l135 -35v-57h-524z" />
    <glyph glyph-name="IJ" unicode="&#x132;" horiz-adv-x="1423" 
d="M61 0v59l158 39v1162l-158 40v60h598v-60l-157 -40v-1162l157 -39v-59h-598zM1210 1260v-1119q0 -130 -27.5 -227t-89 -172t-165 -121t-250.5 -63l-12 47q82 37 134 81t80 103t38 123t10 158v1190l-178 40v60h618v-60z" />
    <glyph glyph-name="ij" unicode="&#x133;" horiz-adv-x="1138" 
d="M41 0v57l129 35v707l-125 82v32l385 105v-926l135 -35v-57h-524zM293 1217q-60 0 -105 44t-45 105q0 60 45 105t105 45t105.5 -45t45.5 -105q0 -61 -45 -105t-106 -44zM535 -489l-13 38q82 50 124.5 105t62 141.5t22.5 233.5v770l-123 82v32l381 105v-905
q0 -165 -18.5 -258.5t-81.5 -159.5q-50 -53 -120 -93t-118 -56.5t-116 -34.5zM856 1217q-62 0 -105.5 43.5t-43.5 105.5q0 60 44 105t105 45q60 0 105 -45t45 -105q0 -61 -45 -105t-105 -44z" />
    <glyph glyph-name="Jcircumflex" unicode="&#x134;" horiz-adv-x="731" 
d="M516 1260v-1119q0 -130 -27.5 -227t-89 -172t-165 -121t-250.5 -63l-13 47q82 37 134 81t80 103t38 123t10 158v1190l-178 40v60h619v-60zM150 1479h-91l222 280h192l213 -280h-100l-215 147z" />
    <glyph glyph-name="jcircumflex" unicode="&#x135;" horiz-adv-x="579" 
d="M-27 -489l-12 38q82 50 124.5 105t62 141.5t22.5 233.5v770l-123 82v32l381 105v-905q0 -165 -18.5 -258.5t-81.5 -159.5q-50 -53 -120.5 -93t-118.5 -56.5t-116 -34.5zM119 1153h-78l195 410h124l193 -410h-80l-180 223z" />
    <glyph glyph-name="Kcommaaccent" unicode="&#x136;" horiz-adv-x="1443" 
d="M61 0v59l158 39v1162l-158 40v60h607v-60l-166 -40v-1162l166 -39v-59h-607zM1040 0l-508 666v10l545 584l-188 40v60h467v-60l-164 -43l-430 -444l555 -725l129 -29v-59h-406zM575 -520l-14 45q195 62 195 156q0 42 -32.5 67.5t-82.5 30.5v8q15 53 53.5 81t93.5 28
q72 0 116 -43t44 -111q0 -195 -373 -262z" />
    <glyph glyph-name="kcommaaccent" unicode="&#x137;" horiz-adv-x="1138" 
d="M174 92v1211l-121 71v35l381 121v-1438l119 -35v-57h-504v57zM979 -29q-76 0 -129.5 29.5t-95.5 87.5l-305 430l374 356l-153 62v53h442v-49l-145 -51l-303 -262l475 -607q-8 -5 -22 -13.5t-56 -22t-82 -13.5zM401 -520l-14 45q195 62 195 156q0 42 -32.5 67.5
t-82.5 30.5v8q15 53 53.5 81t93.5 28q72 0 116 -43t44 -111q0 -195 -373 -262z" />
    <glyph glyph-name="kgreenlandic" unicode="&#x138;" horiz-adv-x="1130" 
d="M41 0v57l125 35v707l-125 78v30l385 113v-928l119 -35v-57h-504zM971 -29q-143 0 -226 117l-303 430l373 356l-153 62v53h442v-49l-146 -51l-301 -262l473 -607q-8 -5 -21.5 -13.5t-55 -22t-82.5 -13.5z" />
    <glyph glyph-name="Lacute" unicode="&#x139;" horiz-adv-x="1234" 
d="M471 1772h258v-23l-317 -270h-93zM502 131q41 -50 125 -53h291l223 424h63l-98 -502h-1045v61l158 37v1159l-158 43v60h619v-60l-178 -40v-1129z" />
    <glyph glyph-name="lacute" unicode="&#x13a;" horiz-adv-x="598" 
d="M383 1853h258v-22l-317 -270h-93zM45 0v57l129 35v1211l-121 71v35l381 121v-1438l135 -35v-57h-524z" />
    <glyph glyph-name="Lcommaaccent" unicode="&#x13b;" horiz-adv-x="1234" 
d="M414 -520l-15 45q195 62 195 156q0 42 -32.5 67.5t-82.5 30.5v8q15 53 54 81t94 28q71 0 115 -43t44 -111q0 -195 -372 -262zM502 131q41 -50 125 -53h291l223 424h63l-98 -502h-1045v61l158 37v1159l-158 43v60h619v-60l-178 -40v-1129z" />
    <glyph glyph-name="lcommaaccent" unicode="&#x13c;" horiz-adv-x="598" 
d="M74 -520l-15 45q195 62 195 156q0 42 -32.5 67.5t-82.5 30.5v8q15 53 54 81t94 28q71 0 115 -43t44 -111q0 -195 -372 -262zM45 0v57l129 35v1211l-121 71v35l381 121v-1438l135 -35v-57h-524z" />
    <glyph glyph-name="Lcaron" unicode="&#x13d;" horiz-adv-x="1234" 
d="M930 1075h-51l30 416h213v-14zM502 131q41 -50 125 -53h291l223 424h63l-98 -502h-1045v61l158 37v1159l-158 43v60h619v-60l-178 -40v-1129z" />
    <glyph glyph-name="lcaron" unicode="&#x13e;" horiz-adv-x="598" 
d="M582 1075h-52l31 416h213v-14zM45 0v57l129 35v1211l-121 71v35l381 121v-1438l135 -35v-57h-524z" />
    <glyph glyph-name="Ldot" unicode="&#x13f;" horiz-adv-x="1245" 
d="M1040 602q-58 0 -101.5 43.5t-43.5 102.5q0 60 43 103.5t102 43.5q61 0 104.5 -43.5t43.5 -103.5q0 -59 -43.5 -102.5t-104.5 -43.5zM502 131q41 -50 125 -53h291l210 368h66l-88 -446h-1045v61l158 37v1159l-158 43v60h619v-60l-178 -40v-1129z" />
    <glyph glyph-name="ldot" unicode="&#x140;" horiz-adv-x="739" 
d="M672 610q-59 0 -102.5 43t-43.5 103q0 58 43.5 101.5t102.5 43.5q60 0 102.5 -43t42.5 -102q0 -60 -42.5 -103t-102.5 -43zM45 0v57l129 35v1211l-121 71v35l381 121v-1438l135 -35v-57h-524z" />
    <glyph glyph-name="Lslash" unicode="&#x141;" horiz-adv-x="1234" 
d="M57 516v76l162 47v618l-158 43v60h619v-60l-178 -40v-537l420 125v-76l-420 -125v-514q41 -50 125 -53h291l223 422h63l-98 -502h-1045v61l158 37v465z" />
    <glyph glyph-name="lslash" unicode="&#x142;" horiz-adv-x="598" 
d="M23 584v84l151 75v560l-121 71v35l381 121v-658l172 86v-81l-172 -86v-699l135 -35v-57h-524v57l129 35v567z" />
    <glyph glyph-name="Nacute" unicode="&#x143;" horiz-adv-x="1490" 
d="M1298 -12l-98 -13l-883 1108l7 -977l196 -45v-61h-448v61l151 39v1092q-60 73 -145 98l-35 13v57h414l745 -940l-6 831l-195 49v60h445v-60l-152 -43v-1056zM877 1772h258v-23l-318 -270h-92z" />
    <glyph glyph-name="nacute" unicode="&#x144;" horiz-adv-x="1206" 
d="M41 0v57l125 35v707l-125 78v30l346 113h10l15 -191h4q27 28 58.5 54.5t80 60t106.5 54t115 20.5q139 0 210 -78t71 -252v-596l127 -37v-55h-504v57l117 35v561q-5 95 -49 148.5t-132 52.5q-92 0 -190 -78v-684l119 -35v-57h-504zM659 1563h232v-17l-262 -393h-68z" />
    <glyph glyph-name="Ncommaaccent" unicode="&#x145;" horiz-adv-x="1490" 
d="M1298 -12l-98 -13l-883 1108l7 -977l196 -45v-61h-448v61l151 39v1092q-60 73 -145 98l-35 13v57h414l745 -940l-6 831l-195 49v60h445v-60l-152 -43v-1056zM569 -520l-14 45q195 62 195 156q0 42 -32.5 67.5t-82.5 30.5v8q15 53 53.5 81t93.5 28q72 0 116 -43t44 -111
q0 -195 -373 -262z" />
    <glyph glyph-name="ncommaaccent" unicode="&#x146;" horiz-adv-x="1206" 
d="M41 0v57l125 35v707l-125 78v30l346 113h10l15 -191h4q27 28 58.5 54.5t80 60t106.5 54t115 20.5q139 0 210 -78t71 -252v-596l127 -37v-55h-504v57l117 35v561q-5 95 -49 148.5t-132 52.5q-92 0 -190 -78v-684l119 -35v-57h-504zM389 -520l-14 45q194 62 194 156
q0 42 -32 67.5t-82 30.5v8q15 53 53.5 81t93.5 28q72 0 116 -43t44 -111q0 -195 -373 -262z" />
    <glyph glyph-name="Ncaron" unicode="&#x147;" horiz-adv-x="1490" 
d="M1298 -12l-98 -13l-883 1108l7 -977l196 -45v-61h-448v61l151 39v1092q-60 73 -145 98l-35 13v57h414l745 -940l-6 831l-195 49v60h445v-60l-152 -43v-1056zM1008 1759h92l-221 -280h-193l-213 280h98l215 -149z" />
    <glyph glyph-name="ncaron" unicode="&#x148;" horiz-adv-x="1206" 
d="M41 0v57l125 35v707l-125 78v30l346 113h10l15 -191h4q27 28 58.5 54.5t80 60t106.5 54t115 20.5q139 0 210 -78t71 -252v-596l127 -37v-55h-504v57l117 35v561q-5 95 -49 148.5t-132 52.5q-92 0 -190 -78v-684l119 -35v-57h-504zM801 1563h78l-207 -410h-125l-207 410
h82l192 -232z" />
    <glyph glyph-name="napostrophe" unicode="&#x149;" horiz-adv-x="1206" 
d="M41 0v57l125 35v707l-125 78v30l346 113h10l15 -191h4q27 28 58.5 54.5t80 60t106.5 54t115 20.5q139 0 210 -78t71 -252v-596l127 -37v-55h-504v57l117 35v561q-5 95 -49 148.5t-132 52.5q-92 0 -190 -78v-684l119 -35v-57h-504zM-57 1118l-15 45q195 62 195 156
q0 42 -32.5 67.5t-82.5 30.5v8q15 53 54 81t94 28q71 0 115 -43t44 -111q0 -195 -372 -262z" />
    <glyph glyph-name="Eng" unicode="&#x14a;" horiz-adv-x="1497" 
d="M1446 1300l-152 -43v-1112q0 -128 -26 -224.5t-84.5 -173t-160 -123.5t-247.5 -64l-10 49q188 53 279.5 162t97.5 274l-824 1036l9 -975l196 -45v-61h-452v61l151 39v1092q-60 73 -145 98l-35 13v57h414l745 -940l-6 831l-195 49v60h445v-60z" />
    <glyph glyph-name="eng" unicode="&#x14b;" horiz-adv-x="1206" 
d="M797 29v624q-5 95 -49 148.5t-132 52.5q-92 0 -190 -78v-684l119 -35v-57h-504v57l125 35v707l-125 78v30l346 113h10l15 -191h4q27 28 58.5 54.5t80 60t106.5 54t115 20.5q139 0 210 -78t71 -252v-575q0 -157 -22 -254t-87 -164q-38 -41 -83.5 -72.5t-97 -53
t-87.5 -33.5t-86 -25l-12 38q83 50 126.5 104.5t65 142.5t23.5 233z" />
    <glyph glyph-name="Omacron" unicode="&#x14c;" horiz-adv-x="1617" 
d="M506 1565v135h606v-135h-606zM840 33q125 0 213.5 81t130 215t41.5 308q0 177 -55.5 333t-159.5 254.5t-232 98.5q-125 0 -213.5 -78t-131 -211t-42.5 -309q0 -130 31 -253.5t87.5 -221.5t142.5 -157.5t188 -59.5zM809 1397q158 0 295 -55t231 -148.5t147.5 -220.5
t53.5 -268q0 -169 -61 -312t-162.5 -236.5t-233 -145.5t-274.5 -52q-144 0 -275 50.5t-230.5 141t-158.5 226.5t-59 297q0 158 60.5 294.5t161 229.5t232 146t273.5 53z" />
    <glyph glyph-name="omacron" unicode="&#x14d;" horiz-adv-x="1177" 
d="M287 1278v135h606v-135h-606zM555 950q-57 0 -100 -32t-67 -86t-35 -116.5t-11 -133.5q0 -138 31 -259t96.5 -201.5t153.5 -80.5q99 0 156 103t57 272q0 234 -79.5 384t-201.5 150zM590 -33q-123 0 -224.5 42t-166.5 113t-100.5 162t-35.5 191q0 113 41.5 214.5
t112 173.5t168 114.5t205.5 42.5q233 0 378.5 -139t145.5 -363q0 -233 -151.5 -392t-372.5 -159z" />
    <glyph glyph-name="Obreve" unicode="&#x14e;" horiz-adv-x="1617" 
d="M799 1468q-69 0 -123 25t-86 66.5t-48 92.5t-14 107h56q57 -147 227 -147q162 0 219 147h53q5 -116 -72 -203.5t-212 -87.5zM840 33q125 0 213.5 81t130 215t41.5 308q0 177 -55.5 333t-159.5 254.5t-232 98.5q-125 0 -213.5 -78t-131 -211t-42.5 -309q0 -130 31 -253.5
t87.5 -221.5t142.5 -157.5t188 -59.5zM809 1397q158 0 295 -55t231 -148.5t147.5 -220.5t53.5 -268q0 -169 -61 -312t-162.5 -236.5t-233 -145.5t-274.5 -52q-144 0 -275 50.5t-230.5 141t-158.5 226.5t-59 297q0 158 60.5 294.5t161 229.5t232 146t273.5 53z" />
    <glyph glyph-name="obreve" unicode="&#x14f;" horiz-adv-x="1177" 
d="M555 950q-57 0 -100 -32t-67 -86t-35 -116.5t-11 -133.5q0 -138 31 -259t96.5 -201.5t153.5 -80.5q99 0 156 103t57 272q0 234 -79.5 384t-201.5 150zM590 -33q-123 0 -224.5 42t-166.5 113t-100.5 162t-35.5 191q0 113 41.5 214.5t112 173.5t168 114.5t205.5 42.5
q233 0 378.5 -139t145.5 -363q0 -233 -151.5 -392t-372.5 -159zM586 1174q-121 0 -190.5 88.5t-69.5 265.5h53q47 -205 215 -205q78 0 133 51.5t78 153.5h49q-3 -171 -74.5 -262.5t-193.5 -91.5z" />
    <glyph glyph-name="Ohungarumlaut" unicode="&#x150;" horiz-adv-x="1617" 
d="M680 1772h205v-21l-238 -272h-84zM1047 1772h202v-21l-235 -272h-86zM840 33q125 0 213.5 81t130 215t41.5 308q0 177 -55.5 333t-159.5 254.5t-232 98.5q-125 0 -213.5 -78t-131 -211t-42.5 -309q0 -130 31 -253.5t87.5 -221.5t142.5 -157.5t188 -59.5zM809 1397
q158 0 295 -55t231 -148.5t147.5 -220.5t53.5 -268q0 -169 -61 -312t-162.5 -236.5t-233 -145.5t-274.5 -52q-144 0 -275 50.5t-230.5 141t-158.5 226.5t-59 297q0 158 60.5 294.5t161 229.5t232 146t273.5 53z" />
    <glyph glyph-name="ohungarumlaut" unicode="&#x151;" horiz-adv-x="1177" 
d="M483 1563h195v-19l-221 -391h-64zM780 1563h197v-19l-223 -391h-66zM555 950q-57 0 -100 -32t-67 -86t-35 -116.5t-11 -133.5q0 -138 31 -259t96.5 -201.5t153.5 -80.5q99 0 156 103t57 272q0 234 -79.5 384t-201.5 150zM590 -33q-123 0 -224.5 42t-166.5 113t-100.5 162
t-35.5 191q0 113 41.5 214.5t112 173.5t168 114.5t205.5 42.5q233 0 378.5 -139t145.5 -363q0 -233 -151.5 -392t-372.5 -159z" />
    <glyph glyph-name="OE" unicode="&#x152;" horiz-adv-x="2117" 
d="M1530 1360h278l168 4v-387h-63l-123 307h-442v-541h231l66 209h59v-489h-64l-61 199h-231v-531q44 -50 122 -53h293l219 362h62l-94 -440h-518q-100 0 -296.5 -6t-312.5 -6q-335 0 -538 184.5t-203 497.5q0 208 101 369.5t273.5 247t387.5 85.5q63 0 246 -6t440 -6z
M825 55q137 0 191.5 64.5t54.5 204.5v903q-94 80 -235 80q-202 0 -322.5 -151.5t-120.5 -434.5q0 -129 29 -248.5t82.5 -212.5t137 -149t183.5 -56z" />
    <glyph glyph-name="oe" unicode="&#x153;" horiz-adv-x="1861" 
d="M1346 -31q-127 0 -220 62t-151 166q-62 -107 -162.5 -169.5t-226.5 -62.5q-122 0 -223 42t-166 113t-100.5 162t-35.5 191q0 113 41.5 214.5t112.5 174.5t169 115.5t206 42.5q141 0 242.5 -58t158.5 -163q68 103 173 161t229 58q177 0 275 -115t116 -330h-684
q1 -95 32.5 -174t84.5 -129.5t120 -78t140 -27.5q131 0 276 115l31 -29q-3 -3 -29 -39.5t-45 -60t-60 -61.5t-81 -61t-99.5 -41t-123.5 -18zM557 948q-57 0 -100 -32.5t-66 -87.5t-33.5 -118t-9.5 -135q1 -99 19 -192.5t51 -171t87 -125t120 -47.5q98 0 153 103.5t53 275.5
q-2 227 -79 378.5t-195 151.5zM1323 936q-87 0 -148 -77t-73 -218h401q-3 129 -48 212t-132 83z" />
    <glyph glyph-name="Racute" unicode="&#x154;" horiz-adv-x="1392" 
d="M61 0v59l158 39v1164l-158 38v60l521 4q159 1 278.5 -23.5t192 -70.5t108 -107t35.5 -137q0 -236 -305 -338v-8l371 -586l135 -35v-59h-393l-308 489l-78 125h-118v-516l155 -39v-59h-594zM500 1303v-613h162q116 19 188 98.5t72 188.5q0 146 -116 236t-306 90zM758 1772
h258v-23l-318 -270h-92z" />
    <glyph glyph-name="racute" unicode="&#x155;" 
d="M41 0v57l125 35v707l-125 78v30l350 113h10l11 -268h8l26 53q65 124 117.5 169.5t124.5 45.5q57 0 97 -35t40 -94q0 -121 -139 -152l-127 76q-31 -10 -71 -56t-62 -106v-561l170 -35v-57h-555zM506 1563h231v-17l-262 -393h-67z" />
    <glyph glyph-name="Rcommaaccent" unicode="&#x156;" horiz-adv-x="1392" 
d="M61 0v59l158 39v1164l-158 38v60l521 4q159 1 278.5 -23.5t192 -70.5t108 -107t35.5 -137q0 -236 -305 -338v-8l371 -586l135 -35v-59h-393l-308 489l-78 125h-118v-516l155 -39v-59h-594zM500 1303v-613h162q116 19 188 98.5t72 188.5q0 146 -116 236t-306 90zM541 -520
l-15 45q195 62 195 156q0 42 -32.5 67.5t-82.5 30.5v8q15 53 54 81t94 28q71 0 115 -43t44 -111q0 -195 -372 -262z" />
    <glyph glyph-name="rcommaaccent" unicode="&#x157;" 
d="M41 0v57l125 35v707l-125 78v30l350 113h10l11 -268h8l26 53q65 124 117.5 169.5t124.5 45.5q57 0 97 -35t40 -94q0 -121 -139 -152l-127 76q-31 -10 -71 -56t-62 -106v-561l170 -35v-57h-555zM78 -520l-15 45q195 62 195 156q0 42 -32.5 67.5t-82.5 30.5v8q15 53 54 81
t94 28q72 0 116 -43t44 -111q0 -195 -373 -262z" />
    <glyph glyph-name="Rcaron" unicode="&#x158;" horiz-adv-x="1392" 
d="M61 0v59l158 39v1164l-158 38v60l521 4q159 1 278.5 -23.5t192 -70.5t108 -107t35.5 -137q0 -236 -305 -338v-8l371 -586l135 -35v-59h-393l-308 489l-78 125h-118v-516l155 -39v-59h-594zM500 1303v-613h162q116 19 188 98.5t72 188.5q0 146 -116 236t-306 90zM887 1759
h92l-221 -280h-193l-213 280h99l215 -149z" />
    <glyph glyph-name="rcaron" unicode="&#x159;" 
d="M41 0v57l125 35v707l-125 78v30l350 113h10l11 -268h8l26 53q65 124 117.5 169.5t124.5 45.5q57 0 97 -35t40 -94q0 -121 -139 -152l-127 76q-31 -10 -71 -56t-62 -106v-561l170 -35v-57h-555zM639 1563h78l-207 -410h-125l-207 410h82l193 -232z" />
    <glyph glyph-name="Sacute" unicode="&#x15a;" horiz-adv-x="1107" 
d="M115 63l-27 388h55l150 -334q95 -76 233 -76q114 0 185 68t71 178q0 88 -48 150.5t-175 113.5l-110 45q-169 69 -246.5 163t-77.5 230q0 81 35.5 155t99.5 131.5t161 91.5t212 34q152 0 332 -90l8 -340h-58l-127 293q-72 65 -174 65q-108 0 -173.5 -63t-65.5 -156
q0 -94 51.5 -148.5t185.5 -113.5l123 -53q174 -77 241.5 -163t67.5 -208q0 -103 -46.5 -191t-123 -146t-172.5 -90t-196 -32q-182 0 -391 98zM676 1772h258v-23l-318 -270h-92z" />
    <glyph glyph-name="sacute" unicode="&#x15b;" horiz-adv-x="888" 
d="M530 1563h232v-17l-262 -393h-68zM377 -33q-136 0 -291 68l-12 313h49l117 -250q55 -59 147 -59q85 0 135.5 47.5t50.5 118.5q0 59 -33.5 99t-109.5 69l-135 51q-209 78 -209 281q0 140 117 228.5t299 88.5q131 0 266 -64l-2 -278h-45l-105 219q-62 51 -137 51
q-72 0 -116 -43t-44 -106q0 -61 36 -97.5t114 -68.5l109 -43q128 -51 182.5 -112t54.5 -163q0 -153 -128 -251.5t-310 -98.5z" />
    <glyph glyph-name="Scircumflex" unicode="&#x15c;" horiz-adv-x="1107" 
d="M115 63l-27 388h55l150 -334q95 -76 233 -76q114 0 185 68t71 178q0 88 -48 150.5t-175 113.5l-110 45q-169 69 -246.5 163t-77.5 230q0 81 35.5 155t99.5 131.5t161 91.5t212 34q152 0 332 -90l8 -340h-58l-127 293q-72 65 -174 65q-108 0 -173.5 -63t-65.5 -156
q0 -94 51.5 -148.5t185.5 -113.5l123 -53q174 -77 241.5 -163t67.5 -208q0 -103 -46.5 -191t-123 -146t-172.5 -90t-196 -32q-182 0 -391 98zM377 1479h-90l221 280h192l213 -280h-100l-215 147z" />
    <glyph glyph-name="scircumflex" unicode="&#x15d;" horiz-adv-x="888" 
d="M377 -33q-136 0 -291 68l-12 313h49l117 -250q55 -59 147 -59q85 0 135.5 47.5t50.5 118.5q0 59 -33.5 99t-109.5 69l-135 51q-209 78 -209 281q0 140 117 228.5t299 88.5q131 0 266 -64l-2 -278h-45l-105 219q-62 51 -137 51q-72 0 -116 -43t-44 -106q0 -61 36 -97.5
t114 -68.5l109 -43q128 -51 182.5 -112t54.5 -163q0 -153 -128 -251.5t-310 -98.5zM279 1153h-80l207 410h126l205 -410h-80l-194 231z" />
    <glyph glyph-name="Scedilla" unicode="&#x15e;" horiz-adv-x="1107" 
d="M330 -514l-13 43q98 35 145.5 75t47.5 93q0 83 -107 115l97 153q-185 2 -385 98l-27 388h55l150 -334q95 -76 233 -76q114 0 185 68t71 178q0 88 -48 150.5t-175 113.5l-110 45q-169 69 -246.5 163t-77.5 230q0 81 35.5 155t99.5 131.5t161 91.5t212 34q152 0 332 -90
l8 -340h-58l-127 293q-72 65 -174 65q-108 0 -173.5 -63t-65.5 -156q0 -94 51.5 -148.5t185.5 -113.5l123 -53q174 -77 241.5 -163t67.5 -208q0 -95 -40 -177.5t-106.5 -139.5t-152 -93t-178.5 -45l-41 -65q83 -14 129.5 -55t46.5 -105q0 -68 -52.5 -122t-132.5 -85.5
t-187 -50.5z" />
    <glyph glyph-name="scedilla" unicode="&#x15f;" horiz-adv-x="888" 
d="M205 -508l-12 43q97 35 144.5 75t47.5 93q0 42 -29 71.5t-77 43.5l94 149q-141 2 -287 68l-12 313h49l117 -250q55 -59 147 -59q85 0 135.5 47.5t50.5 118.5q0 59 -33.5 99t-109.5 69l-135 51q-209 78 -209 281q0 140 117 228.5t299 88.5q131 0 266 -64l-2 -278h-45
l-105 219q-62 51 -137 51q-72 0 -116 -43t-44 -106q0 -61 36 -97.5t114 -68.5l109 -43q128 -51 182.5 -112t54.5 -163q0 -139 -107.5 -233.5t-267.5 -112.5l-39 -61q83 -14 130 -55t47 -105q0 -52 -29.5 -95.5t-82 -74.5t-117.5 -52.5t-144 -35.5z" />
    <glyph glyph-name="Scaron" unicode="&#x160;" horiz-adv-x="1107" 
d="M115 63l-27 388h55l150 -334q95 -76 233 -76q114 0 185 68t71 178q0 88 -48 150.5t-175 113.5l-110 45q-169 69 -246.5 163t-77.5 230q0 81 35.5 155t99.5 131.5t161 91.5t212 34q152 0 332 -90l8 -340h-58l-127 293q-72 65 -174 65q-108 0 -173.5 -63t-65.5 -156
q0 -94 51.5 -148.5t185.5 -113.5l123 -53q174 -77 241.5 -163t67.5 -208q0 -103 -46.5 -191t-123 -146t-172.5 -90t-196 -32q-182 0 -391 98zM817 1759h92l-221 -280h-192l-213 280h98l215 -149z" />
    <glyph glyph-name="scaron" unicode="&#x161;" horiz-adv-x="888" 
d="M377 -33q-136 0 -291 68l-12 313h49l117 -250q55 -59 147 -59q85 0 135.5 47.5t50.5 118.5q0 59 -33.5 99t-109.5 69l-135 51q-209 78 -209 281q0 140 117 228.5t299 88.5q131 0 266 -64l-2 -278h-45l-105 219q-62 51 -137 51q-72 0 -116 -43t-44 -106q0 -61 36 -97.5
t114 -68.5l109 -43q128 -51 182.5 -112t54.5 -163q0 -153 -128 -251.5t-310 -98.5zM657 1563h78l-207 -410h-125l-206 410h82l192 -232z" />
    <glyph glyph-name="Tcommaaccent" unicode="&#x162;" horiz-adv-x="1302" 
d="M207 1360h889l153 10l4 -409h-57l-121 317h-282v-1180l192 -39v-59h-670v59l195 39v1180h-283l-121 -317h-57l4 409zM428 -520l-14 45q194 62 194 156q0 42 -32 67.5t-82 30.5v8q15 53 53.5 81t93.5 28q72 0 116 -43t44 -111q0 -195 -373 -262z" />
    <glyph glyph-name="tcommaaccent" unicode="&#x163;" horiz-adv-x="720" 
d="M399 -27q-248 0 -245 265l6 643h-152v67l152 47l211 254h43v-260h288v-112h-288v-654q30 -119 170 -119q56 0 125 23l12 -47q-155 -107 -322 -107zM170 -520l-14 45q194 62 194 156q0 42 -32 67.5t-82 30.5v8q15 53 53.5 81t93.5 28q72 0 116 -43t44 -111
q0 -195 -373 -262z" />
    <glyph glyph-name="Tcaron" unicode="&#x164;" horiz-adv-x="1302" 
d="M207 1360h889l153 10l4 -409h-57l-121 317h-282v-1180l192 -39v-59h-670v59l195 39v1180h-283l-121 -317h-57l4 409zM864 1759h92l-221 -280h-192l-213 280h98l215 -149z" />
    <glyph glyph-name="tcaron" unicode="&#x165;" horiz-adv-x="720" 
d="M399 -27q-248 0 -245 265l6 643h-152v67l152 47l211 254h43v-260h288v-112h-288v-654q30 -119 170 -119q56 0 125 23l12 -47q-155 -107 -322 -107zM604 1128h-51l31 416h213v-14z" />
    <glyph glyph-name="Tbar" unicode="&#x166;" horiz-adv-x="1302" 
d="M172 696v82h338v496h-283l-121 -313h-57l4 409l154 -10h889l153 10l4 -409h-57l-121 313h-282v-496h335v-82h-335v-598l192 -39v-59h-670v59l195 39v598h-338z" />
    <glyph glyph-name="tbar" unicode="&#x167;" horiz-adv-x="720" 
d="M8 590v88h150l2 203h-152v67l152 47l211 254h43v-260h288v-112h-288v-199h286v-88h-286v-367q30 -119 170 -119q56 0 125 23l12 -47q-155 -107 -322 -107q-248 0 -245 265l2 352h-148z" />
    <glyph glyph-name="Utilde" unicode="&#x168;" horiz-adv-x="1509" 
d="M752 -43q-276 0 -415.5 144t-139.5 415v741l-158 43v60h631v-60l-185 -43v-712q0 -213 85 -334t259 -121q178 0 273.5 107t101.5 311l-2 737l-225 55v60h493v-60l-157 -47v-710q0 -281 -150.5 -433.5t-410.5 -152.5zM846 1538l-82 29q-122 42 -169 31t-85 -91l-43 21
l10 28q53 148 131.5 190.5t200.5 -1.5l90 -31q96 -34 148 -17.5t94 97.5l45 -20l-12 -33q-61 -160 -134 -204t-194 1z" />
    <glyph glyph-name="utilde" unicode="&#x169;" horiz-adv-x="1202" 
d="M801 -27l-23 168q-62 -69 -148 -121.5t-188 -52.5q-134 0 -212 81t-78 239v559l-127 55v39l385 66v-666q0 -209 182 -209q96 0 182 68v651l-139 51v41l399 68v-889l137 -43v-47zM629 1231l-78 33q-80 34 -126 36t-71 -20.5t-53 -79.5l-45 21l12 30q58 148 136.5 191
t199.5 -4l90 -35q94 -35 143.5 -17t94.5 101l45 -21l-12 -30q-65 -162 -139.5 -208.5t-196.5 3.5z" />
    <glyph glyph-name="Umacron" unicode="&#x16a;" horiz-adv-x="1509" 
d="M752 -43q-276 0 -415.5 144t-139.5 415v741l-158 43v60h631v-60l-185 -43v-712q0 -213 85 -334t259 -121q178 0 273.5 107t101.5 311l-2 737l-225 55v60h493v-60l-157 -47v-710q0 -281 -150.5 -433.5t-410.5 -152.5zM500 1565v135h606v-135h-606z" />
    <glyph glyph-name="umacron" unicode="&#x16b;" horiz-adv-x="1202" 
d="M801 -27l-23 168q-62 -69 -148 -121.5t-188 -52.5q-134 0 -212 81t-78 239v559l-127 55v39l385 66v-666q0 -209 182 -209q96 0 182 68v651l-139 51v41l399 68v-889l137 -43v-47zM295 1278v135h606v-135h-606z" />
    <glyph glyph-name="Ubreve" unicode="&#x16c;" horiz-adv-x="1509" 
d="M752 -43q-276 0 -415.5 144t-139.5 415v741l-158 43v60h631v-60l-185 -43v-712q0 -213 85 -334t259 -121q178 0 273.5 107t101.5 311l-2 737l-225 55v60h493v-60l-157 -47v-710q0 -281 -150.5 -433.5t-410.5 -152.5zM795 1468q-69 0 -123 25t-86 66.5t-48 92.5t-14 107
h56q57 -147 227 -147q162 0 219 147h53q5 -116 -72 -203.5t-212 -87.5z" />
    <glyph glyph-name="ubreve" unicode="&#x16d;" horiz-adv-x="1202" 
d="M801 -27l-23 168q-62 -69 -148 -121.5t-188 -52.5q-134 0 -212 81t-78 239v559l-127 55v39l385 66v-666q0 -209 182 -209q96 0 182 68v651l-139 51v41l399 68v-889l137 -43v-47zM596 1174q-121 0 -190.5 88.5t-69.5 265.5h53q47 -205 215 -205q78 0 133 51.5t78 153.5h49
q-3 -171 -74.5 -262.5t-193.5 -91.5z" />
    <glyph glyph-name="Uring" unicode="&#x16e;" horiz-adv-x="1509" 
d="M752 -43q-276 0 -415.5 144t-139.5 415v741l-158 43v60h631v-60l-185 -43v-712q0 -213 85 -334t259 -121q178 0 273.5 107t101.5 311l-2 737l-225 55v60h493v-60l-157 -47v-710q0 -281 -150.5 -433.5t-410.5 -152.5zM596 1675q0 87 61.5 147t151.5 60q93 0 153 -59
t60 -146q0 -88 -61 -147.5t-152 -59.5q-93 0 -153 58.5t-60 146.5zM678 1677q0 -61 38 -100t93 -39q56 0 93.5 38t37.5 99q0 59 -38 98t-93 39q-56 0 -93.5 -38t-37.5 -97z" />
    <glyph glyph-name="uring" unicode="&#x16f;" horiz-adv-x="1202" 
d="M801 -27l-23 168q-62 -69 -148 -121.5t-188 -52.5q-134 0 -212 81t-78 239v559l-127 55v39l385 66v-666q0 -209 182 -209q96 0 182 68v651l-139 51v41l399 68v-889l137 -43v-47zM385 1376q0 87 61.5 147t151.5 60q92 0 151.5 -58.5t59.5 -146.5q0 -87 -61 -147t-152 -60
q-92 0 -151.5 58.5t-59.5 146.5zM465 1378q0 -60 39 -99.5t94 -39.5t93 39t38 98q0 60 -38.5 100t-94.5 40q-55 0 -93 -39.5t-38 -98.5z" />
    <glyph glyph-name="Uhungarumlaut" unicode="&#x170;" horiz-adv-x="1509" 
d="M674 1772h205v-21l-238 -272h-84zM1040 1772h203v-21l-235 -272h-86zM752 -43q-276 0 -415.5 144t-139.5 415v741l-158 43v60h631v-60l-185 -43v-712q0 -213 85 -334t259 -121q178 0 273.5 107t101.5 311l-2 737l-225 55v60h493v-60l-157 -47v-710q0 -281 -150.5 -433.5
t-410.5 -152.5z" />
    <glyph glyph-name="uhungarumlaut" unicode="&#x171;" horiz-adv-x="1202" 
d="M801 -27l-23 168q-62 -69 -148 -121.5t-188 -52.5q-134 0 -212 81t-78 239v559l-127 55v39l385 66v-666q0 -209 182 -209q96 0 182 68v651l-139 51v41l399 68v-889l137 -43v-47zM793 1563h196v-19l-223 -391h-66zM496 1563h194v-19l-221 -391h-63z" />
    <glyph glyph-name="Uogonek" unicode="&#x172;" horiz-adv-x="1509" 
d="M752 -43q-276 0 -415.5 144t-139.5 415v741l-158 43v60h631v-60l-185 -43v-712q0 -213 85 -334t259 -121q178 0 273.5 107t101.5 311l-2 737l-225 55v60h493v-60l-157 -47v-710q0 -245 -114.5 -392.5t-317.5 -183.5q-111 -116 -111 -200q0 -50 27.5 -80.5t72.5 -30.5
q41 0 73 19t77 65l37 -27q-26 -46 -48 -78t-56.5 -66.5t-78.5 -52.5t-96 -18q-87 0 -140.5 49.5t-53.5 128.5q0 69 50.5 135.5t156.5 147.5q-12 -2 -39 -2z" />
    <glyph glyph-name="uogonek" unicode="&#x173;" horiz-adv-x="1202" 
d="M442 -33q-134 0 -212 81t-78 239v559l-127 55v39l385 66v-666q0 -209 182 -209q96 0 182 68v651l-139 51v41l399 68v-889l137 -43v-47l-284 -43q-129 -129 -129 -221q0 -50 27.5 -80.5t72.5 -30.5q41 0 73 19t77 65l36 -27q-26 -47 -48 -78t-56 -66t-78 -53t-96 -18
q-87 0 -141 50t-54 128q0 72 55.5 141.5t174.5 155.5l-23 168q-62 -69 -148 -121.5t-188 -52.5z" />
    <glyph glyph-name="Wcircumflex" unicode="&#x174;" horiz-adv-x="1916" 
d="M1251 -18l-286 866l-314 -866h-145l-406 1280l-106 36v62h549v-60l-148 -38l289 -969l238 684l-95 285l-120 38v60h575v-62l-162 -36l299 -947l287 930l-205 53v62h422v-60l-113 -47l-413 -1271h-146zM772 1479h-90l221 280h193l213 -280h-101l-215 147z" />
    <glyph glyph-name="wcircumflex" unicode="&#x175;" horiz-adv-x="1546" 
d="M903 999l250 -675l18 -62h5q8 41 14 64l166 563l-152 45v55h367v-57l-121 -35l-299 -928h-129l-231 615l-21 67h-4q-13 -47 -21 -67l-221 -615h-121l-311 930l-117 33v57h537v-57l-137 -33l168 -567l16 -70h4q15 50 23 70l231 667h86zM676 1153h-80l207 410h127l205 -410
h-80l-195 231z" />
    <glyph glyph-name="Ycircumflex" unicode="&#x176;" horiz-adv-x="1306" 
d="M1184 1257l-385 -659v-500l162 -39v-59h-609v59l164 39v451l-401 719l-113 32v60h604v-60l-176 -38l313 -603l332 594l-201 47v60h431v-60zM514 1479h-90l221 280h193l213 -280h-101l-215 147z" />
    <glyph glyph-name="ycircumflex" unicode="&#x177;" horiz-adv-x="1007" 
d="M825 893l-131 41v55h320v-57l-94 -33l-465 -1210q-74 -189 -222 -189q-59 0 -101 41.5t-42 102.5q0 60 41.5 100.5t99.5 40.5q82 0 142 -92l4 -6l90 231l-387 987l-86 27v57h479v-57l-108 -31l231 -647zM391 1153h-80l207 410h127l205 -410h-80l-195 231z" />
    <glyph glyph-name="Ydieresis" unicode="&#x178;" horiz-adv-x="1306" 
d="M1184 1257l-385 -659v-500l162 -39v-59h-609v59l164 39v451l-401 719l-113 32v60h604v-60l-176 -38l313 -603l332 594l-201 47v60h431v-60zM487 1509q-56 0 -95.5 39.5t-39.5 96.5q0 56 40 96.5t95 40.5q57 0 98.5 -40.5t41.5 -96.5q0 -57 -41.5 -96.5t-98.5 -39.5z
M952 1509q-56 0 -95.5 39.5t-39.5 96.5q0 56 40 96.5t95 40.5q56 0 98 -41t42 -96q0 -56 -42 -96t-98 -40z" />
    <glyph glyph-name="Zacute" unicode="&#x179;" horiz-adv-x="1314" 
d="M57 0v55l774 1221h-548l-142 -326h-57l10 418l178 -8h922v-12l-809 -1262h633l209 377h63l-88 -463h-1145zM739 1772h258v-23l-317 -270h-92z" />
    <glyph glyph-name="zacute" unicode="&#x17a;" horiz-adv-x="989" 
d="M707 0h-646v51l543 860h-340l-114 -268h-54v365l164 -19h674v-8l-572 -907h355l151 299h52l-35 -377zM565 1563h232v-17l-262 -393h-68z" />
    <glyph glyph-name="Zdotaccent" unicode="&#x17b;" horiz-adv-x="1314" 
d="M57 0v55l774 1221h-548l-142 -326h-57l10 418l178 -8h922v-12l-809 -1262h633l209 377h63l-88 -463h-1145zM653 1501q-63 0 -106 43.5t-43 106.5t43 107t106 44q62 0 107 -44t45 -107q0 -62 -45 -106t-107 -44z" />
    <glyph glyph-name="zdotaccent" unicode="&#x17c;" horiz-adv-x="989" 
d="M707 0h-646v51l543 860h-340l-114 -268h-54v365l164 -19h674v-8l-572 -907h355l151 299h52l-35 -377zM528 1217q-62 0 -106.5 44t-44.5 105t44.5 105.5t106.5 44.5t106 -44t44 -106q0 -61 -44 -105t-106 -44z" />
    <glyph glyph-name="Zcaron" unicode="&#x17d;" horiz-adv-x="1314" 
d="M57 0v55l774 1221h-548l-142 -326h-57l10 418l178 -8h922v-12l-809 -1262h633l209 377h63l-88 -463h-1145zM868 1759h93l-222 -280h-192l-213 280h98l215 -149z" />
    <glyph glyph-name="zcaron" unicode="&#x17e;" horiz-adv-x="989" 
d="M707 0h-646v51l543 860h-340l-114 -268h-54v365l164 -19h674v-8l-572 -907h355l151 299h52l-35 -377zM698 1563h78l-207 -410h-125l-206 410h81l193 -232z" />
    <glyph glyph-name="florin" unicode="&#x192;" horiz-adv-x="1032" 
d="M98 584l15 84h211q32 120 97.5 227.5t145.5 181.5t169 117t169 43q70 0 112 -35.5t42 -91.5q0 -55 -37 -96.5t-86 -61.5q-45 86 -83 132t-83 46q-25 0 -47.5 -17t-48 -60.5t-50 -130t-46.5 -213.5l-9 -41h291l-16 -84h-289l-82 -473q-25 -141 -84 -261.5t-134.5 -198.5
t-158.5 -121.5t-159 -43.5q-59 0 -110.5 38.5t-51.5 94.5q0 104 121 148q37 -88 81 -134.5t84 -46.5q83 0 127 271l117 727h-207z" />
    <glyph glyph-name="Aringacute" unicode="&#x1fa;" horiz-adv-x="1400" 
d="M-12 0v59l143 37l485 1274l74 16l90 19l494 -1313l139 -33v-59h-612v59l162 35l-132 365h-469l-129 -355l234 -45v-59h-479zM502 1661q0 87 61.5 147t151.5 60q93 0 153 -59t60 -146q0 -88 -61 -147.5t-152 -59.5q-93 0 -153 58.5t-60 146.5zM598 1112l-199 -549h396z
M584 1663q0 -61 38 -100t93 -39q56 0 93.5 38t37.5 99q0 59 -38 98t-93 39q-56 0 -93.5 -38t-37.5 -97zM823 2220h258v-22l-317 -271h-92z" />
    <glyph glyph-name="aringacute" unicode="&#x1fb;" horiz-adv-x="1019" 
d="M324 -31q-108 0 -184.5 68t-76.5 182q0 120 83.5 187t263.5 112l198 49v138q-3 103 -49.5 165t-126.5 62q-59 0 -104 -31l-9 -225q-55 -19 -112 -19q-53 0 -85 27t-32 76q0 42 37 88t97 83.5t145 62t174 24.5q163 0 243 -75t80 -236v-545q0 -41 14.5 -54.5t55.5 -13.5h88
v-41q-15 -9 -41 -22t-89.5 -34.5t-107.5 -21.5q-83 0 -124 40t-46 124h-10q-31 -39 -53.5 -63.5t-58 -52t-78 -41t-92.5 -13.5zM295 1305q0 87 61.5 146.5t151.5 59.5q92 0 151.5 -58t59.5 -146q0 -87 -61 -147t-152 -60q-92 0 -151.5 58.5t-59.5 146.5zM463 123
q82 0 145 78v305l-135 -45q-158 -51 -158 -178q0 -69 39.5 -114.5t108.5 -45.5zM375 1307q0 -60 39 -100t94 -40t93 39.5t38 98.5q0 60 -38.5 99.5t-94.5 39.5q-55 0 -93 -39t-38 -98zM612 1872h258v-23l-317 -270h-92z" />
    <glyph glyph-name="AEacute" unicode="&#x1fc;" horiz-adv-x="1943" 
d="M1423 639h-239v-508q44 -50 123 -53h301l217 362h63l-94 -440h-1036v59l149 39v543h-375l-288 -537l215 -45v-59h-461v59l129 37l661 1153l-178 51v60h1045l166 4v-387h-64l-123 307h-450v-565h239l66 211h59v-490h-63zM907 1264h-26l-306 -545h332v545zM1214 1772h259
v-23l-318 -270h-92z" />
    <glyph glyph-name="aeacute" unicode="&#x1fd;" horiz-adv-x="1548" 
d="M319 -33q-110 0 -183 69t-73 183q0 120 100 186t320 115l127 29v174q-9 95 -53 151t-123 56q-64 0 -106 -33v-215q-67 -25 -117 -25q-54 0 -85.5 29t-31.5 78q0 60 62 119t164.5 97t209.5 38q195 0 265 -137q45 59 120 98t166 39q169 0 266 -102.5t123 -284.5l-616 -107
v-84q17 -129 107 -202.5t223 -73.5q128 0 260 115l31 -29q-4 -5 -20 -28t-28.5 -40.5t-37 -45t-48 -48.5t-57.5 -44.5t-69 -39t-81 -25.5t-94 -10q-113 0 -209.5 54.5t-154.5 152.5q-6 -6 -34 -33.5t-34.5 -33t-31.5 -28.5t-33.5 -29t-31 -23t-35 -22t-34.5 -16t-39 -14
t-39 -6.5t-45 -3.5zM854 670v-78l340 67q-6 125 -53 201t-125 76q-76 0 -116 -62.5t-46 -203.5zM610 430v53l-82 -22q-117 -32 -163 -79.5t-46 -111.5q0 -69 40.5 -108t107.5 -39q128 0 160 176q-17 70 -17 131zM877 1563h231v-17l-262 -393h-68z" />
    <glyph glyph-name="Oslashacute" unicode="&#x1fe;" horiz-adv-x="1617" 
d="M117 -68l182 220q-103 97 -160 229.5t-57 292.5q0 158 60.5 294.5t161 229.5t232 146t273.5 53q242 0 428 -127l129 155h96l-168 -200q115 -96 178.5 -231.5t63.5 -288.5q0 -169 -61 -312t-162.5 -236.5t-233 -145.5t-274.5 -52q-253 0 -447 143l-143 -170h-98zM840 33
q124 0 212 81t129.5 215t41.5 308q0 215 -82 403l-645 -772q59 -110 146.5 -172.5t197.5 -62.5zM393 725q0 -210 68 -381l643 768q-61 99 -144.5 155t-181.5 56q-125 0 -213 -78t-130 -211t-42 -309zM895 1772h258v-23l-317 -270h-93z" />
    <glyph glyph-name="oslashacute" unicode="&#x1ff;" horiz-adv-x="1177" 
d="M156 -100h-84l155 194q-79 71 -121.5 171t-42.5 210q0 113 41.5 214.5t112 173.5t168 114.5t205.5 42.5q180 0 311 -86l125 156h84l-158 -195q162 -140 162 -377q0 -233 -151.5 -392t-372.5 -159q-178 0 -311 86zM555 950q-57 0 -100.5 -32.5t-68 -87t-36 -118
t-10.5 -132.5q0 -161 39 -295l393 487q-79 178 -217 178zM836 418q-3 167 -37 282l-393 -487q76 -172 217 -172q100 0 157.5 104.5t55.5 272.5zM647 1563h232v-17l-263 -393h-67z" />
    <glyph glyph-name="Scommaaccent" unicode="&#x218;" horiz-adv-x="1107" 
d="M115 63l-27 388h55l150 -334q95 -76 233 -76q114 0 185 68t71 178q0 88 -48 150.5t-175 113.5l-110 45q-169 69 -246.5 163t-77.5 230q0 81 35.5 155t99.5 131.5t161 91.5t212 34q152 0 332 -90l8 -340h-58l-127 293q-72 65 -174 65q-108 0 -173.5 -63t-65.5 -156
q0 -94 51.5 -148.5t185.5 -113.5l123 -53q174 -77 241.5 -163t67.5 -208q0 -103 -46.5 -191t-123 -146t-172.5 -90t-196 -32q-182 0 -391 98zM315 -520l-14 45q195 62 195 156q0 42 -32.5 67.5t-82.5 30.5v8q15 53 53.5 81t93.5 28q72 0 116 -43t44 -111q0 -195 -373 -262z
" />
    <glyph glyph-name="scommaaccent" unicode="&#x219;" horiz-adv-x="888" 
d="M209 -520l-14 45q194 62 194 156q0 42 -32.5 67.5t-82.5 30.5v8q15 53 54 81t94 28q72 0 116 -43t44 -111q0 -195 -373 -262zM377 -33q-136 0 -291 68l-12 313h49l117 -250q55 -59 147 -59q85 0 135.5 47.5t50.5 118.5q0 59 -33.5 99t-109.5 69l-135 51q-209 78 -209 281
q0 140 117 228.5t299 88.5q131 0 266 -64l-2 -278h-45l-105 219q-62 51 -137 51q-72 0 -116 -43t-44 -106q0 -61 36 -97.5t114 -68.5l109 -43q128 -51 182.5 -112t54.5 -163q0 -153 -128 -251.5t-310 -98.5z" />
    <glyph glyph-name="uni021A" unicode="&#x21a;" horiz-adv-x="1302" 
d="M207 1360h889l153 10l4 -409h-57l-121 317h-282v-1180l192 -39v-59h-670v59l195 39v1180h-283l-121 -317h-57l4 409zM428 -520l-14 45q194 62 194 156q0 42 -32 67.5t-82 30.5v8q15 53 53.5 81t93.5 28q72 0 116 -43t44 -111q0 -195 -373 -262z" />
    <glyph glyph-name="uni021B" unicode="&#x21b;" horiz-adv-x="720" 
d="M399 -27q-248 0 -245 265l6 643h-152v67l152 47l211 254h43v-260h288v-112h-288v-654q30 -119 170 -119q56 0 125 23l12 -47q-155 -107 -322 -107zM170 -520l-14 45q194 62 194 156q0 42 -32 67.5t-82 30.5v8q15 53 53.5 81t93.5 28q72 0 116 -43t44 -111
q0 -195 -373 -262z" />
    <glyph glyph-name="uni0237" unicode="&#x237;" horiz-adv-x="579" 
d="M-27 -489l-12 38q82 50 124.5 105t62 141.5t22.5 233.5v770l-123 82v32l381 105v-905q0 -165 -18.5 -258.5t-81.5 -159.5q-50 -53 -120.5 -93t-118.5 -56.5t-116 -34.5z" />
    <glyph glyph-name="circumflex" unicode="&#x2c6;" horiz-adv-x="628" 
d="M125 1153h-80l207 410h127l205 -410h-80l-195 231z" />
    <glyph glyph-name="caron" unicode="&#x2c7;" horiz-adv-x="628" 
d="M506 1563h78l-207 -410h-125l-207 410h82l192 -232z" />
    <glyph glyph-name="breve" unicode="&#x2d8;" 
d="M406 1174q-122 0 -191.5 88.5t-69.5 265.5h54q47 -205 215 -205q78 0 133 51.5t78 153.5h49q-3 -171 -74.5 -262.5t-193.5 -91.5z" />
    <glyph glyph-name="dotaccent" unicode="&#x2d9;" horiz-adv-x="628" 
d="M315 1217q-62 0 -106.5 44t-44.5 105t44.5 105.5t106.5 44.5q61 0 105.5 -44t44.5 -106q0 -61 -44 -105t-106 -44z" />
    <glyph glyph-name="ring" unicode="&#x2da;" horiz-adv-x="628" 
d="M102 1376q0 87 61.5 147t151.5 60q92 0 151.5 -58.5t59.5 -146.5q0 -87 -61 -147t-152 -60q-92 0 -151.5 58.5t-59.5 146.5zM182 1378q0 -60 39 -99.5t94 -39.5t93 39t38 98q0 60 -38.5 100t-94.5 40q-55 0 -93 -39.5t-38 -98.5z" />
    <glyph glyph-name="ogonek" unicode="&#x2db;" 
d="M444 10h60q-154 -147 -154 -243q0 -50 27.5 -80.5t73.5 -30.5q41 0 72.5 18.5t76.5 65.5l37 -27q-26 -46 -48 -78t-56.5 -66.5t-78.5 -52.5t-96 -18q-87 0 -140.5 49.5t-53.5 128.5t67 156t213 178z" />
    <glyph glyph-name="tilde" unicode="&#x2dc;" horiz-adv-x="628" 
d="M328 1231l-78 33q-80 34 -126 36t-71 -20.5t-53 -79.5l-45 21l12 30q58 148 136.5 191t199.5 -4l90 -35q94 -35 143.5 -17t94.5 101l45 -21l-12 -30q-65 -162 -139.5 -208.5t-196.5 3.5z" />
    <glyph glyph-name="hungarumlaut" unicode="&#x2dd;" 
d="M215 1563h195v-19l-222 -391h-63zM512 1563h197v-19l-224 -391h-65z" />
    <glyph glyph-name="Wgrave" unicode="&#x1e80;" horiz-adv-x="1916" 
d="M1251 -18l-286 866l-314 -866h-145l-406 1280l-106 36v62h549v-60l-148 -38l289 -969l238 684l-95 285l-120 38v60h575v-62l-162 -36l299 -947l287 930l-205 53v62h422v-60l-113 -47l-413 -1271h-146zM641 1772h258l150 -293h-91l-317 270v23z" />
    <glyph glyph-name="wgrave" unicode="&#x1e81;" horiz-adv-x="1546" 
d="M903 999l250 -675l18 -62h5q8 41 14 64l166 563l-152 45v55h367v-57l-121 -35l-299 -928h-129l-231 615l-21 67h-4q-13 -47 -21 -67l-221 -615h-121l-311 930l-117 33v57h537v-57l-137 -33l168 -567l16 -70h4q15 50 23 70l231 667h86zM569 1563h232l98 -410h-68l-262 393
v17z" />
    <glyph glyph-name="Wacute" unicode="&#x1e82;" horiz-adv-x="1916" 
d="M1251 -18l-286 866l-314 -866h-145l-406 1280l-106 36v62h549v-60l-148 -38l289 -969l238 684l-95 285l-120 38v60h575v-62l-162 -36l299 -947l287 930l-205 53v62h422v-60l-113 -47l-413 -1271h-146zM1081 1772h258v-23l-317 -270h-92z" />
    <glyph glyph-name="wacute" unicode="&#x1e83;" horiz-adv-x="1546" 
d="M920 1563h231v-17l-262 -393h-68zM903 999l250 -675l18 -62h5q8 41 14 64l166 563l-152 45v55h367v-57l-121 -35l-299 -928h-129l-231 615l-21 67h-4q-13 -47 -21 -67l-221 -615h-121l-311 930l-117 33v57h537v-57l-137 -33l168 -567l16 -70h4q15 50 23 70l231 667h86z
" />
    <glyph glyph-name="Wdieresis" unicode="&#x1e84;" horiz-adv-x="1916" 
d="M1251 -18l-286 866l-314 -866h-145l-406 1280l-106 36v62h549v-60l-148 -38l289 -969l238 684l-95 285l-120 38v60h575v-62l-162 -36l299 -947l287 930l-205 53v62h422v-60l-113 -47l-413 -1271h-146zM762 1509q-56 0 -95.5 39.5t-39.5 96.5q0 56 40 96.5t95 40.5
q57 0 98 -40.5t41 -96.5q0 -57 -41 -96.5t-98 -39.5zM1227 1509q-56 0 -95.5 39.5t-39.5 96.5q0 56 40 96.5t95 40.5q56 0 97.5 -41t41.5 -96q0 -56 -41.5 -96t-97.5 -40z" />
    <glyph glyph-name="wdieresis" unicode="&#x1e85;" horiz-adv-x="1546" 
d="M657 1231q-57 0 -97 39t-40 96q0 56 40 96.5t97 40.5q56 0 97 -41t41 -96q0 -56 -41 -95.5t-97 -39.5zM1063 1231q-57 0 -97 39t-40 96q0 56 40 96.5t97 40.5q55 0 96 -40.5t41 -96.5t-40.5 -95.5t-96.5 -39.5zM903 999l250 -675l18 -62h5q8 41 14 64l166 563l-152 45v55
h367v-57l-121 -35l-299 -928h-129l-231 615l-21 67h-4q-13 -47 -21 -67l-221 -615h-121l-311 930l-117 33v57h537v-57l-137 -33l168 -567l16 -70h4q15 50 23 70l231 667h86z" />
    <glyph glyph-name="Ygrave" unicode="&#x1ef2;" horiz-adv-x="1306" 
d="M1184 1257l-385 -659v-500l162 -39v-59h-609v59l164 39v451l-401 719l-113 32v60h604v-60l-176 -38l313 -603l332 594l-201 47v60h431v-60zM383 1772h258l150 -293h-91l-317 270v23z" />
    <glyph glyph-name="ygrave" unicode="&#x1ef3;" horiz-adv-x="1007" 
d="M825 893l-131 41v55h320v-57l-94 -33l-465 -1210q-74 -189 -222 -189q-59 0 -101 41.5t-42 102.5q0 60 41.5 100.5t99.5 40.5q45 0 75.5 -23t64.5 -67l6 -8l90 231l-387 987l-86 27v57h479v-57l-108 -31l231 -647zM285 1563h231l98 -410h-67l-262 393v17z" />
    <glyph glyph-name="uni2009" unicode="&#x2009;" horiz-adv-x="126" 
 />
    <glyph glyph-name="endash" unicode="&#x2013;" horiz-adv-x="987" 
d="M84 518v86h819v-86h-819z" />
    <glyph glyph-name="emdash" unicode="&#x2014;" horiz-adv-x="1806" 
d="M84 518v86h1638v-86h-1638z" />
    <glyph glyph-name="quoteleft" unicode="&#x2018;" horiz-adv-x="563" 
d="M399 1505l27 -43q-71 -44 -111.5 -99t-40.5 -114q0 -56 42 -89.5t108 -43.5q9 -75 -27.5 -120.5t-105.5 -45.5q-66 0 -114 52t-48 147q0 107 76.5 200.5t193.5 155.5z" />
    <glyph glyph-name="quoteright" unicode="&#x2019;" horiz-adv-x="563" 
d="M164 950l-29 43q154 99 154 213q0 57 -42.5 91t-107.5 44q-10 73 27 118.5t106 45.5q66 0 113 -51t47 -147q0 -108 -76 -201.5t-192 -155.5z" />
    <glyph glyph-name="quotesinglbase" unicode="&#x201a;" horiz-adv-x="563" 
d="M164 -207l-29 45q154 95 154 211q0 58 -42 91.5t-108 43.5q-10 73 27 119.5t106 46.5q66 0 113 -51.5t47 -148.5q0 -108 -76 -201.5t-192 -155.5z" />
    <glyph glyph-name="quotedblleft" unicode="&#x201c;" horiz-adv-x="966" 
d="M399 1505l27 -43q-71 -44 -111.5 -99t-40.5 -114q0 -56 42 -89.5t108 -43.5q9 -75 -27.5 -120.5t-105.5 -45.5q-66 0 -114 52t-48 147q0 107 76.5 200.5t193.5 155.5zM805 1505l26 -43q-71 -44 -111 -99t-40 -114q0 -56 42 -89.5t107 -43.5q9 -75 -27.5 -120.5
t-105.5 -45.5q-66 0 -113.5 52t-47.5 147q0 107 76.5 200.5t193.5 155.5z" />
    <glyph glyph-name="quotedblright" unicode="&#x201d;" horiz-adv-x="966" 
d="M164 950l-29 43q154 99 154 213q0 57 -42.5 91t-107.5 44q-10 73 27 118.5t106 45.5q66 0 113 -51t47 -147q0 -108 -76 -201.5t-192 -155.5zM569 950l-28 43q153 98 153 213q0 57 -42 91t-107 44q-10 73 27 118.5t106 45.5q66 0 113 -51t47 -147q0 -107 -76 -201
t-193 -156z" />
    <glyph glyph-name="quotedblbase" unicode="&#x201e;" horiz-adv-x="968" 
d="M164 -207l-29 45q154 95 154 211q0 58 -42 91.5t-108 43.5q-10 73 27 119.5t106 46.5q66 0 113 -51.5t47 -148.5q0 -108 -76 -201.5t-192 -155.5zM569 -207l-28 45q153 95 153 211q0 58 -41.5 91.5t-107.5 43.5q-10 73 27 119.5t106 46.5q66 0 113 -51.5t47 -148.5
q0 -107 -76 -201t-193 -156z" />
    <glyph glyph-name="dagger" unicode="&#x2020;" horiz-adv-x="681" 
d="M78 1171v127l219 -20l-25 227h134l-23 -227l219 20v-127l-221 23l25 -504h-134l27 504z" />
    <glyph glyph-name="daggerdbl" unicode="&#x2021;" horiz-adv-x="651" 
d="M63 1171v127l216 -20l-21 227h131l-20 -227l219 20v-127l-221 23v-213l221 23v-127l-219 22l20 -229l-131 -2l21 229l-216 -20v127l220 -23v213z" />
    <glyph glyph-name="bullet" unicode="&#x2022;" horiz-adv-x="688" 
d="M342 381q-74 0 -127 53.5t-53 128.5q0 74 53.5 128t126.5 54q75 0 129.5 -54t54.5 -128q0 -75 -54.5 -128.5t-129.5 -53.5z" />
    <glyph glyph-name="ellipsis" unicode="&#x2026;" horiz-adv-x="1560" 
d="M262 -23q-62 0 -107.5 45.5t-45.5 106.5q0 63 45.5 108.5t107.5 45.5q63 0 108.5 -45.5t45.5 -108.5q0 -62 -45.5 -107t-108.5 -45zM782 -23q-60 0 -105.5 45.5t-45.5 106.5q0 63 45.5 108.5t105.5 45.5q63 0 109.5 -45.5t46.5 -108.5q0 -61 -46.5 -106.5t-109.5 -45.5z
M1305 -23q-62 0 -108 45.5t-46 106.5q0 63 46 108.5t108 45.5q63 0 108 -45.5t45 -108.5q0 -62 -45 -107t-108 -45z" />
    <glyph glyph-name="perthousand" unicode="&#x2030;" horiz-adv-x="2490" 
d="M332 -102l921 1392h86l-925 -1392h-82zM412 1180q-61 0 -93 -65.5t-32 -158.5q0 -83 21 -160.5t61.5 -129.5t91.5 -52q58 0 90.5 66t32.5 160q0 133 -51.5 236.5t-120.5 103.5zM430 551q-145 0 -238.5 96t-93.5 238q0 153 101.5 255.5t238.5 102.5q146 0 240 -99.5
t94 -236.5q0 -153 -99.5 -254.5t-242.5 -101.5zM1223 594q-60 0 -92.5 -65t-32.5 -158q0 -83 21 -160t61.5 -128.5t91.5 -51.5q59 0 91 65t32 160q0 133 -50.5 235.5t-121.5 102.5zM1243 -35q-145 0 -238.5 96t-93.5 240q0 152 100.5 255t237.5 103q147 0 240.5 -100
t93.5 -237q0 -153 -99.5 -255t-240.5 -102zM2011 594q-60 0 -92.5 -65t-32.5 -158q0 -83 21 -160t61.5 -128.5t91.5 -51.5q59 0 91 65t32 160q0 133 -50.5 235.5t-121.5 102.5zM2030 -35q-144 0 -238 96.5t-94 239.5q0 152 101.5 255t238.5 103q146 0 240 -100t94 -237
q0 -153 -99.5 -255t-242.5 -102z" />
    <glyph glyph-name="uni2032" unicode="&#x2032;" horiz-adv-x="503" 
d="M141 1034l62 496h219v-19l-227 -477h-54z" />
    <glyph glyph-name="uni2033" unicode="&#x2033;" horiz-adv-x="878" 
d="M141 1034l62 496h219v-19l-227 -477h-54zM516 1034l59 496h222v-19l-230 -477h-51z" />
    <glyph glyph-name="guilsinglleft" unicode="&#x2039;" horiz-adv-x="626" 
d="M449 805l36 -33l-221 -338l221 -344l-36 -31l-351 351v39z" />
    <glyph glyph-name="guilsinglright" unicode="&#x203a;" horiz-adv-x="626" 
d="M178 59l-39 35l221 338l-219 342l37 31l348 -350v-37z" />
    <glyph glyph-name="fraction" unicode="&#x2044;" horiz-adv-x="462" 
d="M-291 -162l-57 41l1104 1598l57 -39z" />
    <glyph glyph-name="Euro" unicode="&#x20ac;" horiz-adv-x="1325" 
d="M86 711l10 69h156q36 110 105.5 200t156.5 148t186 89.5t197 31.5q82 0 157 -25t124 -74.5t49 -111.5q0 -96 -148 -127q-69 132 -134.5 193t-158.5 61q-115 0 -198.5 -102t-104.5 -283h475l-10 -69h-471v-41q0 -79 8 -131h441l-11 -72h-415q42 -166 150 -250t249 -84
q172 0 307 119l31 -31q-93 -131 -200.5 -197.5t-252.5 -66.5q-245 0 -390 141.5t-171 368.5h-170l10 72h156v18q0 85 14 154h-147z" />
    <glyph glyph-name="trademark" unicode="&#x2122;" horiz-adv-x="1536" 
d="M664 780v37l73 17v475l-71 16v35h280l125 -344l127 344h266v-35l-67 -16v-475l67 -17v-37h-305v39l72 15v444h-8l-156 -404l-27 -75h-59l-27 73l-153 406h-8v-440l86 -21v-37h-215zM72 1360h536l6 -203h-34l-54 152h-106v-475l78 -17v-37h-312v37l76 17v475h-106
l-54 -152h-34z" />
    <glyph glyph-name="onethird" unicode="&#x2153;" horiz-adv-x="1583" 
d="M1217 29q59 0 99 39t40 102q0 77 -69.5 128.5t-203.5 51.5v53q121 17 183.5 62t62.5 104q0 46 -31.5 76.5t-89.5 30.5q-107 0 -192 -115l-41 25q43 93 120.5 149t188.5 56q101 0 162 -48t61 -120q0 -127 -194 -193v-8q112 -6 171.5 -56t59.5 -130q0 -112 -100 -183
t-240 -71q-110 0 -180 40.5t-70 100.5q0 35 26 58t71 24l86 -154q25 -22 80 -22zM387 1374v-702l139 -25v-49h-489v49l149 25v565h-155v47l336 90h20zM252 -162l-57 41l1103 1598l58 -39z" />
    <glyph glyph-name="twothirds" unicode="&#x2154;" horiz-adv-x="1677" 
d="M391 868l-158 -112h404v-158h-588v53l141 131q88 81 132.5 128.5t72 98.5t27.5 103q0 64 -41.5 102.5t-106.5 38.5q-53 0 -91 -28t-87 -88l-41 26q112 226 310 226q108 0 176.5 -59t68.5 -156q0 -50 -14.5 -91t-48 -79t-66.5 -66.5t-90 -69.5zM1311 29q59 0 99 39t40 102
q0 77 -69 128.5t-203 51.5v53q121 17 183 62t62 104q0 47 -31 77t-89 30q-51 0 -101.5 -30t-91.5 -85l-41 25q43 93 120.5 149t188.5 56q101 0 162.5 -48t61.5 -120q0 -127 -195 -193v-8q112 -6 171.5 -56t59.5 -130q0 -112 -100 -183t-240 -71q-110 0 -179.5 40.5
t-69.5 100.5q0 35 25.5 58t70.5 24l86 -154q25 -22 80 -22zM346 -162l-57 41l1104 1598l57 -39z" />
    <glyph glyph-name="oneeighth" unicode="&#x215b;" horiz-adv-x="1626" 
d="M940 180q0 33 13 60.5t32 45.5t48 33.5t51.5 24t52.5 16.5q-86 42 -122 88.5t-36 120.5q0 86 81 154t218 68q128 0 204.5 -50t76.5 -123q0 -121 -179 -174l4 -2q106 -46 152.5 -95t46.5 -124q0 -79 -50.5 -137t-121.5 -83.5t-149 -25.5q-138 0 -230 53t-92 150zM387 1374
v-702l139 -25v-49h-489v49l149 25v565h-155v47l336 90h20zM252 -162l-57 41l1103 1598l58 -39zM1278 297l-100 45q-62 -62 -62 -139t47 -127.5t115 -50.5q54 0 90.5 33t36.5 87q0 93 -127 152zM1147 633q0 -44 28 -78t95 -63l65 -29q58 62 58 141q0 60 -37 100.5t-94 40.5
q-49 0 -82 -30.5t-33 -81.5z" />
    <glyph glyph-name="threeeighths" unicode="&#x215c;" horiz-adv-x="1607" 
d="M924 180q0 41 18 73t50.5 52.5t61 32t66.5 22.5q-86 42 -121.5 88.5t-35.5 120.5q0 86 81 154t218 68q128 0 204 -50t76 -123q0 -122 -178 -174l4 -2q106 -46 152.5 -95t46.5 -124q0 -60 -29.5 -108.5t-77 -77.5t-103 -44.5t-112.5 -15.5q-138 0 -229.5 53t-91.5 150z
M281 627q59 0 99 39t40 102q0 77 -69.5 128.5t-203.5 51.5v53q121 17 183.5 62t62.5 104q0 48 -31.5 78.5t-89.5 30.5q-105 0 -192 -117l-41 25q43 93 120.5 149t188.5 56q101 0 162 -48t61 -120q0 -127 -194 -193v-8q112 -6 171.5 -56t59.5 -130q0 -112 -100 -183t-240 -71
q-110 0 -180 40.5t-70 100.5q0 35 26 58t71 24l86 -154q25 -22 80 -22zM236 -162l-58 41l1104 1598l57 -39zM1262 297l-101 45q-61 -61 -61 -139q0 -77 47 -127.5t115 -50.5q54 0 90.5 33t36.5 87q0 93 -127 152zM1130 633q0 -44 28 -78t95 -63l66 -29q57 61 57 141
q0 60 -37 100.5t-94 40.5q-49 0 -82 -30.5t-33 -81.5z" />
    <glyph glyph-name="fiveeighths" unicode="&#x215d;" horiz-adv-x="1617" 
d="M934 180q0 41 18 73t50.5 52.5t61 32t66.5 22.5q-86 42 -121.5 88.5t-35.5 120.5q0 86 81 154t218 68q128 0 204 -50t76 -123q0 -122 -178 -174l4 -2q106 -46 152.5 -95t46.5 -124q0 -60 -29.5 -108.5t-77 -77.5t-103 -44.5t-112.5 -15.5q-138 0 -229.5 53t-91.5 150z
M565 1198h-428l-6 -154q96 35 182 35q140 0 218.5 -59.5t78.5 -163.5q0 -88 -52.5 -152.5t-130 -94t-165.5 -29.5q-101 0 -174.5 36.5t-73.5 98.5q0 36 28.5 58t72.5 22l84 -156q36 -16 75 -16q65 0 107.5 41t42.5 110q0 73 -49.5 116.5t-126.5 43.5q-78 0 -172 -37l-6 2
l18 461h477v-162zM246 -162l-58 41l1104 1598l58 -39zM1272 297l-101 45q-61 -61 -61 -139q0 -77 47 -127.5t115 -50.5q54 0 90.5 33t36.5 87q0 93 -127 152zM1141 633q0 -44 28 -78t95 -63l65 -29q57 61 57 141q0 60 -37 100.5t-94 40.5q-49 0 -81.5 -30.5t-32.5 -81.5z
" />
    <glyph glyph-name="seveneighths" unicode="&#x215e;" horiz-adv-x="1443" 
d="M758 180q0 41 18 73t50.5 52.5t61 32t66.5 22.5q-86 42 -121.5 88.5t-35.5 120.5q0 86 81 154t218 68q128 0 204 -50t76 -123q0 -122 -178 -174l4 -2q106 -46 152.5 -95t46.5 -124q0 -60 -29.5 -108.5t-77 -77.5t-103 -44.5t-112.5 -15.5q-138 0 -229.5 53t-91.5 150z
M227 598h-141l393 586h-436v176h586v-12q-132 -235 -232.5 -422.5t-134.5 -257.5zM70 -162l-58 41l1104 1598l58 -39zM1096 297l-101 45q-61 -61 -61 -139q0 -77 47 -127.5t115 -50.5q54 0 90.5 33t36.5 87q0 93 -127 152zM965 633q0 -44 27.5 -78t94.5 -63l66 -29
q57 61 57 141q0 60 -37 100.5t-94 40.5q-49 0 -81.5 -30.5t-32.5 -81.5z" />
    <glyph glyph-name="minus" unicode="&#x2212;" horiz-adv-x="1187" 
d="M1079 453h-970v88h970v-88z" />
    <glyph glyph-name="approxequal" unicode="&#x2248;" horiz-adv-x="1187" 
d="M172 561l-68 37q93 188 261 188q48 0 86 -9t114 -34l92 -30q119 -41 183 -41q58 0 99.5 34.5t76.5 98.5l67 -39q-48 -90 -107.5 -136t-146.5 -46q-86 0 -204 41l-97 32q-121 41 -172 41q-63 0 -105.5 -35.5t-78.5 -101.5zM172 258l-68 35q93 188 261 188q51 0 91 -8
t109 -33l92 -32q119 -41 183 -41q58 0 99.5 34.5t76.5 98.5l67 -37q-48 -90 -107.5 -136t-146.5 -46q-86 0 -204 41l-97 32q-121 41 -172 41q-62 0 -104.5 -35.5t-79.5 -101.5z" />
    <glyph glyph-name="notequal" unicode="&#x2260;" horiz-adv-x="1187" 
d="M330 78h-88l172 244h-305v86h366l146 202h-512v86h571l174 244h94l-176 -244h307v-86h-368l-146 -202h514v-86h-575z" />
    <glyph glyph-name="lessequal" unicode="&#x2264;" horiz-adv-x="1204" 
d="M1079 0h-968v88h968v-88zM1079 973l-819 -320l819 -317v-96l-970 381v63l970 381v-92z" />
    <glyph glyph-name="greaterequal" unicode="&#x2265;" horiz-adv-x="1204" 
d="M1079 0h-968v88h968v-88zM111 332l817 317l-817 318v98l968 -381v-63l-968 -381v92z" />
    <glyph glyph-name="uni24C5" unicode="&#x24c5;" horiz-adv-x="1636" 
d="M819 631q100 7 153.5 57t53.5 133q0 86 -63 138.5t-183 56.5v-651l133 -23v-51h-442v51l115 23v626l-115 25v49h344q197 1 301.5 -58t104.5 -167q0 -82 -56 -142t-146.5 -87.5t-199.5 -24.5v45zM96 678q0 147 57 279.5t153 227t228.5 150.5t278.5 56t277.5 -55.5
t226.5 -150.5t151 -227.5t56 -279.5q0 -196 -96 -360t-260 -258.5t-359 -94.5q-146 0 -278 55.5t-227 150.5t-151.5 227.5t-56.5 279.5zM158 678q0 -134 52 -256.5t140 -211t208.5 -140.5t252.5 -52t252.5 52t208.5 140.5t140 211t52 256.5q0 135 -52.5 257.5t-140.5 210
t-209 139.5t-253 52q-176 0 -326 -87.5t-237.5 -239.5t-87.5 -332z" />
    <glyph glyph-name="space_uni0326" 
d="M201 -520l-15 45q195 62 195 156q0 42 -32.5 67.5t-82.5 30.5v8q15 53 54 81t94 28q71 0 115 -43t44 -111q0 -195 -372 -262z" />
    <glyph glyph-name="caron.alt" 
d="M342 1075h-51l31 416h213v-14z" />
    <glyph glyph-name="space_uni0326.alt" 
d="M600 1636l14 -47q-194 -62 -194 -155q0 -43 32.5 -68.5t84.5 -30.5v-8q-17 -53 -56 -80.5t-94 -27.5q-72 0 -116 42.5t-44 110.5q0 194 373 264z" />
    <glyph glyph-name="grave.uc" 
d="M147 1772h259l149 -293h-90l-318 270v23z" />
    <glyph glyph-name="dieresis.uc" 
d="M176 1509q-56 0 -95.5 39.5t-39.5 96.5q0 56 40 96.5t95 40.5q57 0 98 -40.5t41 -96.5q0 -57 -41 -96.5t-98 -39.5zM641 1509q-56 0 -95.5 39.5t-39.5 96.5q0 56 40 96.5t95 40.5q56 0 97.5 -41t41.5 -96q0 -56 -41.5 -96t-97.5 -40z" />
    <glyph glyph-name="macron.uc" 
d="M106 1565v135h607v-135h-607z" />
    <glyph glyph-name="acute.uc" 
d="M406 1772h258v-23l-318 -270h-92z" />
    <glyph glyph-name="circumflex.uc" 
d="M184 1479h-90l221 280h193l213 -280h-100l-215 147z" />
    <glyph glyph-name="caron.uc" 
d="M633 1759h92l-221 -280h-193l-213 280h99l215 -149z" />
    <glyph glyph-name="breve.uc" 
d="M408 1468q-69 0 -123 25t-86 66.5t-48 92.5t-14 107h56q57 -147 227 -147q162 0 219 147h53q5 -116 -72 -203.5t-212 -87.5z" />
    <glyph glyph-name="dotaccent.uc" 
d="M410 1501q-63 0 -106.5 43.5t-43.5 106.5t43.5 107t106.5 44q62 0 106.5 -44t44.5 -107t-44.5 -106.5t-106.5 -43.5z" />
    <glyph glyph-name="ring.uc" 
d="M197 1702q0 87 61.5 147t151.5 60q93 0 153 -59t60 -146q0 -88 -61 -147.5t-152 -59.5q-93 0 -153 58.5t-60 146.5zM279 1704q0 -61 38 -100t93 -39q56 0 93.5 38t37.5 99q0 59 -38 98t-93 39q-56 0 -93.5 -38t-37.5 -97z" />
    <glyph glyph-name="tilde.uc" 
d="M436 1538l-82 29q-122 42 -169 31t-85 -91l-43 21l11 28q53 148 131 190.5t200 -1.5l90 -31q96 -34 148 -17.5t94 97.5l45 -20l-12 -33q-61 -160 -134 -204t-194 1z" />
    <glyph glyph-name="hungarumlaut.uc" 
d="M219 1772h205v-21l-238 -272h-84zM586 1772h202v-21l-235 -272h-86z" />
    <glyph glyph-name="cedilla.uc" horiz-adv-x="538" 
d="M117 -514l-13 43q98 35 145.5 75t47.5 93q0 83 -107 115l125 196h66l-68 -104q83 -14 129.5 -55t46.5 -105q0 -68 -52.5 -122t-132.5 -85.5t-187 -50.5z" />
    <glyph glyph-name="idotaccent" horiz-adv-x="589" 
d="M41 0v57l129 35v707l-125 82v32l385 105v-926l135 -35v-57h-524zM293 1217q-60 0 -105 44t-45 105q0 60 45 105t105 45t105.5 -45t45.5 -105q0 -61 -45 -105t-106 -44z" />
    <glyph glyph-name="dollar.lin" horiz-adv-x="1150" 
d="M104 63l-26 383h57l137 -309q80 -73 193 -86l49 512l-86 23q-332 84 -332 383q0 171 139 296t355 134l20 211h72l-20 -213q146 -7 309 -84l2 -338h-55l-115 276q-66 59 -148 70l-47 -498l144 -39q159 -44 236 -133t77 -209q0 -82 -31 -156t-84 -128.5t-122 -96t-145 -64
t-153 -26.5l-20 -219h-72l21 219q-164 7 -355 92zM584 545l-47 -496q116 6 189 78t73 174q0 106 -60.5 165.5t-154.5 78.5zM340 1079q0 -89 47 -147t152 -88l45 479q-104 -8 -174 -77t-70 -167z" />
    <glyph glyph-name="Euro.lin" horiz-adv-x="1320" 
d="M80 805l10 69h143q44 163 149 284t239 181t278 60q126 0 227 -60t101 -147q0 -103 -156 -131q-62 131 -127 194.5t-153 63.5q-120 0 -205.5 -121t-108.5 -324h477l-10 -69h-473v-62q0 -87 10 -143h434l-10 -70h-409q44 -179 156 -276.5t249 -97.5q94 0 164.5 29.5
t136.5 90.5l33 -32q-62 -91 -126 -150t-148 -93t-185 -34q-221 0 -376 156t-189 407h-170l10 70h156q-2 14 -2 45q0 83 12 160h-137z" />
    <glyph glyph-name="sterling.lin" horiz-adv-x="1417" 
d="M270 565v84h260l68 297q25 111 77 206.5t114.5 159t133.5 109t134 66t114 20.5q92 0 162 -50.5t70 -117.5q0 -118 -182 -137q-31 108 -66 164.5t-86 56.5q-103 0 -162 -274l-106 -500h368v-84h-387q-37 -161 -136.5 -281.5t-231.5 -199.5q134 -55 276 -135l123 -70
q154 -86 208 -111.5t91 -25.5q63 0 80.5 78.5t-14.5 210.5q188 14 188 -97q0 -45 -34.5 -99t-90 -100t-134 -77t-157.5 -31q-135 0 -258.5 62t-255.5 188l-149 141q-122 -49 -193 -49q-62 0 -93.5 25.5t-31.5 68.5q0 44 37.5 73.5t97.5 29.5q80 0 228 -51q50 45 84.5 116
t62.5 187l33 147h-242z" />
    <glyph glyph-name="yen.lin" horiz-adv-x="1251" 
d="M131 561v70h328l-344 637l-113 32v60h578v-60l-156 -38l274 -586h7l309 577l-189 47v60h424v-60l-123 -43l-356 -626h342v-70h-356v-170h356v-69h-356v-222l174 -41v-59h-617v59l176 39v224h-358v69h358v170h-358z" />
    <glyph glyph-name="florin.lin" horiz-adv-x="1038" 
d="M92 575l14 84h203l13 74q23 139 88.5 265.5t150.5 212.5t182 137t183 51q75 0 113 -34.5t38 -92.5q0 -55 -36.5 -99.5t-84.5 -66.5q-47 91 -84.5 138.5t-80.5 47.5q-26 0 -49.5 -18t-49 -61.5t-50.5 -130.5t-46 -212l-37 -211h295l-14 -84h-295l-74 -430
q-29 -164 -91.5 -295t-139.5 -208t-157.5 -116.5t-154.5 -39.5q-59 0 -110 38.5t-51 94.5q0 104 120 148q38 -86 81.5 -133.5t82.5 -47.5q81 0 127 273l117 716h-203z" />
    <glyph glyph-name="zero.lin" horiz-adv-x="1357" 
d="M678 1399q135 0 246 -56.5t183 -153.5t111 -224.5t39 -272.5q0 -166 -47.5 -305.5t-127.5 -230.5t-183.5 -141t-216.5 -50q-171 0 -303.5 89t-205.5 250t-73 370q0 166 47.5 304.5t128 229.5t184.5 141t218 50zM647 1329q-66 0 -117.5 -46t-82 -124.5t-46.5 -174
t-16 -202.5q0 -104 13 -208t40 -201.5t65.5 -172.5t93.5 -120t120 -45q64 0 114 47t80.5 126.5t46 177.5t15.5 206q0 191 -41 359.5t-117 273t-168 104.5z" />
    <glyph glyph-name="one.lin" horiz-adv-x="823" 
d="M580 1391v-1291l211 -34v-66h-705v66l223 32v1061l-248 -22l-16 65l518 189h17z" />
    <glyph glyph-name="two.lin" horiz-adv-x="1083" 
d="M430 350l-137 -127h719v-223h-946v80l235 260q16 18 64 70.5t67 73.5t60 69.5t59.5 76t46 72t40 78.5t22.5 76t10 82q0 116 -70 187t-170 71q-95 0 -165.5 -48.5t-135.5 -150.5l-51 27q64 175 179.5 275t277.5 100q171 0 281 -102t110 -257q0 -58 -13 -111t-43 -106
t-63 -97.5t-89.5 -102.5t-104 -103t-124.5 -116q-39 -35 -59 -54z" />
    <glyph glyph-name="three.lin" horiz-adv-x="1013" 
d="M442 43q114 0 187 66.5t73 177.5q0 148 -126 242.5t-322 105.5v78q204 63 289.5 142t85.5 183q0 86 -54 137.5t-137 51.5q-165 0 -297 -164l-49 35q34 65 73 115.5t91.5 95t122.5 68.5t153 24q151 0 241.5 -80.5t90.5 -204.5q0 -120 -77.5 -200t-227.5 -154v-8
q163 -23 272 -115t109 -229q0 -132 -81 -234.5t-206 -154.5t-268 -52q-148 0 -240 61t-92 152q0 53 40 88t104 41q13 -36 55.5 -117.5t62.5 -111.5q14 -16 49.5 -27.5t77.5 -11.5z" />
    <glyph glyph-name="four.lin" horiz-adv-x="1171" 
d="M864 1358v-823h256v-183h-256v-256l170 -37v-59h-596v59l174 37v256h-585v82l755 942zM203 535h409v514z" />
    <glyph glyph-name="five.lin" horiz-adv-x="1054" 
d="M891 1122h-643l-19 -309q141 51 279 51q206 0 334.5 -111.5t128.5 -289.5q0 -116 -50.5 -213t-133 -158.5t-185.5 -95t-211 -33.5q-127 0 -226 58t-99 151q0 56 42 90t109 37q80 -187 115 -238q43 -26 104 -26q129 0 211 81.5t82 217.5q0 140 -88.5 226.5t-230.5 86.5
q-137 0 -258 -63l-13 4l43 772h709v-238z" />
    <glyph glyph-name="six.lin" horiz-adv-x="1198" 
d="M1020 1366q-252 -111 -408 -261.5t-213 -356.5q69 59 148 88.5t151 29.5q185 0 296.5 -117t111.5 -294q0 -139 -72.5 -254.5t-188 -178.5t-245.5 -63q-220 0 -363 143t-143 387q0 155 49.5 291.5t134 239t201.5 185t246.5 137t275.5 88.5zM565 754q-89 0 -182 -80
q-12 -76 -12 -160q0 -225 75.5 -353t186.5 -128q94 0 147.5 78t53.5 237q0 177 -77 291.5t-192 114.5z" />
    <glyph glyph-name="seven.lin" horiz-adv-x="1001" 
d="M322 0h-166l632 1106h-733v254h930v-19q-109 -206 -275 -541t-277 -568z" />
    <glyph glyph-name="eight.lin" horiz-adv-x="1167" 
d="M88 311q0 56 20.5 104.5t48.5 82t76 67t84.5 52.5t92.5 45l-31 18q-118 71 -173.5 148t-55.5 194q0 70 34 137.5t94 121.5t151.5 87t197.5 33q180 0 295.5 -88t115.5 -213q0 -51 -19 -96.5t-45.5 -78t-71 -65.5t-80 -53.5t-87.5 -46.5l76 -43q123 -72 192.5 -157.5
t69.5 -203.5q0 -93 -45.5 -170.5t-118 -125.5t-158 -74.5t-171.5 -26.5q-134 0 -244 39.5t-179 121t-69 191.5zM569 567l-108 64q-131 -116 -131 -285q0 -132 77.5 -224.5t196.5 -92.5q107 0 166 61t59 150q0 100 -62.5 173.5t-197.5 153.5zM379 1128q0 -85 47.5 -148.5
t155.5 -127.5l102 -61q123 123 123 264q0 132 -67 204t-160 72q-88 0 -144.5 -55.5t-56.5 -147.5z" />
    <glyph glyph-name="nine.lin" horiz-adv-x="1187" 
d="M152 8q503 179 620 586q-102 -102 -268 -102q-178 0 -299 115t-121 308q0 135 69 248t184 176.5t249 63.5q103 0 194.5 -38t160.5 -108t109 -178.5t40 -240.5q0 -178 -68 -328t-192 -260t-290 -186.5t-370 -116.5zM631 602q88 0 160 72q16 85 16 168q0 231 -73 360
t-179 129q-96 0 -151.5 -83.5t-55.5 -223.5q0 -180 80.5 -301t202.5 -121z" />
    <glyph glyph-name="percent.lin" horiz-adv-x="1607" 
d="M240 -102l1017 1544h91l-1022 -1544h-86zM414 1329q-60 0 -92.5 -65.5t-32.5 -157.5q0 -83 21 -160.5t61.5 -129.5t91.5 -52q58 0 90.5 65.5t32.5 159.5q0 86 -22.5 164.5t-62.5 127t-87 48.5zM432 700q-144 0 -238 96t-94 238q0 152 101.5 255.5t238.5 103.5
q146 0 240 -99.5t94 -236.5q0 -153 -99.5 -255t-242.5 -102zM1135 590q-61 0 -93 -65.5t-32 -159.5q0 -128 49 -234t123 -106q60 0 91.5 64.5t31.5 160.5q0 133 -50.5 236.5t-119.5 103.5zM1153 -39q-145 0 -238.5 95t-93.5 239q0 153 100 255.5t240 102.5q146 0 240 -99.5
t94 -236.5q0 -152 -101.5 -254t-240.5 -102z" />
    <glyph glyph-name="perthousand.lin" horiz-adv-x="2392" 
d="M240 -102l1017 1544h91l-1022 -1544h-86zM414 1329q-60 0 -92.5 -65.5t-32.5 -157.5q0 -83 21 -160.5t61.5 -129.5t91.5 -52q58 0 90.5 65.5t32.5 159.5q0 86 -22.5 164.5t-62.5 127t-87 48.5zM432 700q-144 0 -238 96t-94 238q0 152 101.5 255.5t238.5 103.5
q146 0 240 -99.5t94 -236.5q0 -153 -99.5 -255t-242.5 -102zM1135 590q-61 0 -93 -65.5t-32 -159.5q0 -128 49 -234t123 -106q60 0 91.5 64.5t31.5 160.5q0 133 -50.5 236.5t-119.5 103.5zM1153 -39q-145 0 -238.5 95t-93.5 239q0 153 100 255.5t240 102.5q146 0 240 -99.5
t94 -236.5q0 -152 -101.5 -254t-240.5 -102zM1917 586q-59 0 -92 -66t-33 -158q0 -83 21 -160.5t61.5 -129.5t91.5 -52q58 0 90.5 66t32.5 160q0 86 -22.5 164.5t-62.5 127t-87 48.5zM1937 -43q-145 0 -238 95.5t-93 238.5q0 154 99.5 256t238.5 102q148 0 241.5 -99.5
t93.5 -236.5q0 -152 -101.5 -254t-240.5 -102z" />
    <glyph glyph-name="plus.lin" horiz-adv-x="1187" 
d="M1079 590h-438v-440h-94v440h-438v86h438v440h94v-440h438v-86z" />
    <glyph glyph-name="minus.lin" horiz-adv-x="1187" 
d="M1079 590h-970v86h970v-86z" />
    <glyph glyph-name="multiply.lin" horiz-adv-x="1187" 
d="M975 180l-385 389l-383 -391l-66 66l387 387l-381 385l68 67l381 -383l381 392l63 -66l-383 -389l387 -389z" />
    <glyph glyph-name="divide.lin" horiz-adv-x="1187" 
d="M1079 590h-970v86h970v-86zM594 819q-53 0 -92 40t-39 95q0 51 39.5 91t91.5 40q54 0 94.5 -40t40.5 -91q0 -55 -40.5 -95t-94.5 -40zM594 178q-54 0 -93.5 39.5t-39.5 93.5q0 53 39.5 93t93.5 40t93.5 -40t39.5 -93q0 -54 -39.5 -93.5t-93.5 -39.5z" />
    <glyph glyph-name="equal.lin" horiz-adv-x="1187" 
d="M1079 745h-970v86h970v-86zM1079 457h-970v88h970v-88z" />
    <glyph glyph-name="less.lin" horiz-adv-x="1204" 
d="M1085 1022l-847 -391l847 -391v-97l-968 453v70l968 452v-96z" />
    <glyph glyph-name="greater.lin" horiz-adv-x="1204" 
d="M119 240l846 391l-846 389v98l966 -454v-70l-966 -451v97z" />
    <glyph glyph-name="plusminus.lin" horiz-adv-x="1187" 
d="M1079 803h-438v-441h-94v441h-438v86h438v440h94v-440h438v-86zM109 0v86h970v-86h-970z" />
    <glyph glyph-name="notequal.lin" horiz-adv-x="1187" 
d="M254 213h-88l215 244h-272v88h350l178 200h-528v86h604l217 244h94l-219 -244h274v-86h-350l-180 -200h530v-88h-608z" />
    <glyph glyph-name="approxequal.lin" horiz-adv-x="1187" 
d="M172 696l-68 37q94 189 261 189q48 0 86 -9t114 -34l92 -31q119 -41 183 -41q58 0 99.5 34.5t76.5 98.5l67 -39q-48 -90 -107.5 -136t-146.5 -46q-86 0 -204 41l-97 33q-121 41 -172 41q-62 0 -104.5 -36t-79.5 -102zM172 393l-68 37q93 188 261 188q48 0 86 -9t114 -34
l92 -30q119 -41 183 -41q58 0 99.5 34.5t76.5 98.5l67 -39q-48 -90 -107.5 -136t-146.5 -46q-86 0 -204 41l-97 32q-121 41 -172 41q-63 0 -105.5 -35.5t-78.5 -101.5z" />
    <glyph glyph-name="lessequal.lin" horiz-adv-x="1204" 
d="M1079 0h-968v86h968v-86zM1079 1108l-819 -320l819 -317v-96l-970 381v63l970 381v-92z" />
    <glyph glyph-name="greaterequal.lin" horiz-adv-x="1204" 
d="M1079 0h-968v86h968v-86zM111 467l817 317l-817 318v98l968 -381v-63l-968 -381v92z" />
    <glyph glyph-name="numbersign.lin" horiz-adv-x="1198" 
d="M162 950v84h254l57 318h80l-57 -318h321l57 318h78l-57 -318h248v-84h-262l-70 -389h242v-84h-256l-60 -342h-78l60 342h-322l-59 -342h-80l59 342h-245v84h260l69 389h-239zM481 950l-69 -389h321l70 389h-322z" />
    <glyph glyph-name="ordfeminine.lin" horiz-adv-x="899" 
d="M285 578q-83 0 -147 54.5t-64 145.5q0 94 66 143.5t208 82.5l170 40v142q-5 61 -42.5 103t-100.5 42q-46 0 -78 -16l-23 -185q-32 -18 -75 -18q-99 0 -99 84q0 45 50 93.5t136 82t177 33.5q143 0 204.5 -62t61.5 -196v-408q0 -34 13 -45.5t49 -11.5h67v-47
q-110 -53 -196 -53q-68 0 -101 34.5t-35 94.5h-8q-32 -35 -50 -52.5t-48 -39.5t-62.5 -31.5t-72.5 -9.5zM395 709q70 0 123 53v229l-94 -28q-73 -24 -107 -55t-34 -79q0 -54 31 -87t81 -33z" />
    <glyph glyph-name="ordmasculine.lin" horiz-adv-x="958" 
d="M457 1346q-81 0 -122.5 -87t-41.5 -215q0 -106 23.5 -198t72.5 -152.5t115 -60.5q76 0 120 82.5t44 222.5q0 172 -59.5 290t-151.5 118zM479 569q-131 0 -227.5 57.5t-142.5 148.5t-46 202q0 183 120.5 307.5t295.5 124.5q188 0 302 -112t114 -296t-119.5 -308
t-296.5 -124z" />
    <glyph glyph-name="zero.num" horiz-adv-x="837" 
d="M418 1386q163 0 264.5 -113t101.5 -282q0 -93 -31.5 -172t-83 -130t-116 -80t-131.5 -29q-166 0 -267.5 115t-101.5 292q0 88 31.5 164.5t83.5 127t117 79t133 28.5zM401 1339q-64 0 -97.5 -84t-33.5 -223q0 -69 10.5 -138t30.5 -130t53.5 -99t75.5 -38q60 0 93.5 87.5
t33.5 229.5q0 97 -20 186.5t-59 149t-87 59.5z" />
    <glyph glyph-name="one.num" horiz-adv-x="544" 
d="M387 1374v-702l139 -25v-49h-489v49l149 25v565h-155v47l336 90h20z" />
    <glyph glyph-name="two.num" horiz-adv-x="663" 
d="M379 868l-158 -112h404v-158h-588v53l141 131q88 81 132.5 128.5t72 98.5t27.5 103q0 64 -41.5 102.5t-106.5 38.5q-53 0 -91 -28t-87 -88l-41 26q112 226 309 226q108 0 177 -59t69 -156q0 -50 -14.5 -91t-48 -79t-66.5 -66.5t-90 -69.5z" />
    <glyph glyph-name="three.num" horiz-adv-x="647" 
d="M281 627q59 0 99 39t40 102q0 77 -69.5 128.5t-203.5 51.5v53q121 17 183.5 62t62.5 104q0 48 -31.5 78.5t-89.5 30.5q-105 0 -192 -117l-41 25q43 93 120.5 149t188.5 56q101 0 162 -48t61 -120q0 -127 -194 -193v-8q112 -6 171.5 -56t59.5 -130q0 -112 -100 -183
t-240 -71q-110 0 -180 40.5t-70 100.5q0 35 26 58t71 24l86 -154q25 -22 80 -22z" />
    <glyph glyph-name="four.num" horiz-adv-x="710" 
d="M547 1366v-463h137v-119h-137v-118l104 -23v-45h-393v45l109 21v120h-357v70l461 526zM121 903h246v281z" />
    <glyph glyph-name="five.num" horiz-adv-x="651" 
d="M565 1198h-428l-6 -154q96 35 182 35q140 0 218.5 -59.5t78.5 -163.5q0 -88 -52.5 -152.5t-130 -94t-165.5 -29.5q-101 0 -174.5 36.5t-73.5 98.5q0 36 28.5 58t72.5 22l84 -156q36 -16 75 -16q65 0 107.5 41t42.5 110q0 73 -49.5 116.5t-126.5 43.5q-78 0 -172 -37l-6 2
l18 461h477v-162z" />
    <glyph glyph-name="six.num" horiz-adv-x="731" 
d="M639 1360q-315 -109 -375 -320q82 66 182 66q114 0 183 -68t69 -170q0 -69 -30 -126t-77 -91.5t-100 -53.5t-102 -19q-152 0 -246 89t-94 234q0 112 50.5 204.5t135 152.5t185.5 96.5t211 46.5zM352 1030q-55 0 -98 -43q-4 -40 -4 -65q0 -136 43 -216.5t106 -80.5
q47 0 76 41.5t29 126.5q0 108 -43 172.5t-109 64.5z" />
    <glyph glyph-name="seven.num" horiz-adv-x="604" 
d="M215 598h-141l393 586h-436v176h585v-12q-132 -235 -232.5 -422.5t-134.5 -257.5z" />
    <glyph glyph-name="eight.num" horiz-adv-x="712" 
d="M29 778q0 41 18 73t50.5 52.5t61 32t66.5 22.5q-86 42 -121.5 88.5t-35.5 120.5q0 86 81 154t218 68q128 0 204 -49.5t76 -122.5q0 -123 -178 -175l4 -2q106 -46 152.5 -95t46.5 -124q0 -60 -29.5 -108.5t-77 -77.5t-103 -44.5t-112.5 -15.5q-138 0 -229.5 53t-91.5 150z
M367 895l-101 45q-61 -61 -61 -139q0 -77 47 -127.5t115 -50.5q54 0 90.5 33t36.5 87q0 93 -127 152zM236 1231q0 -44 27.5 -78t94.5 -63l66 -29q57 61 57 141q0 60 -37 100.5t-94 40.5q-49 0 -81.5 -30.5t-32.5 -81.5z" />
    <glyph glyph-name="nine.num" horiz-adv-x="733" 
d="M74 612q159 38 255.5 119t133.5 193q-78 -60 -170 -60q-113 0 -185.5 68.5t-72.5 175.5q0 122 92 202.5t227 80.5q139 0 234.5 -91.5t95.5 -236.5q0 -149 -81.5 -258.5t-215 -166.5t-305.5 -67zM383 938q56 0 92 41q8 36 8 82q0 134 -44 208t-107 74q-48 0 -76.5 -42.5
t-28.5 -120.5q0 -109 44 -175.5t112 -66.5z" />
    <glyph glyph-name="zero.den" horiz-adv-x="837" 
d="M418 788q163 0 264.5 -113t101.5 -282q0 -93 -31.5 -172t-83 -130t-116 -80t-131.5 -29q-166 0 -267.5 115t-101.5 292q0 88 31.5 164.5t83.5 127t117 79t133 28.5zM401 741q-64 0 -97.5 -84t-33.5 -223q0 -69 10.5 -138t30.5 -130t53.5 -99t75.5 -38q60 0 93.5 87.5
t33.5 229.5q0 97 -20 186.5t-59 149t-87 59.5z" />
    <glyph glyph-name="one.den" horiz-adv-x="544" 
d="M387 776v-702l139 -25v-49h-489v49l149 25v565h-155v47l336 90h20z" />
    <glyph glyph-name="two.den" horiz-adv-x="663" 
d="M379 270l-158 -112h404v-158h-588v53l141 131q88 81 132.5 128.5t72 98.5t27.5 103q0 64 -41.5 102.5t-106.5 38.5q-53 0 -91 -28t-87 -88l-41 26q112 226 309 226q108 0 177 -59.5t69 -156.5q0 -50 -14.5 -91t-48 -79t-66.5 -65.5t-90 -69.5z" />
    <glyph glyph-name="three.den" horiz-adv-x="647" 
d="M281 29q59 0 99 39t40 102q0 77 -69.5 128.5t-203.5 51.5v53q121 17 183.5 62t62.5 104q0 46 -31.5 76.5t-89.5 30.5q-107 0 -192 -115l-41 25q43 93 120.5 149t188.5 56q101 0 162 -48t61 -120q0 -127 -194 -193v-8q112 -6 171.5 -56t59.5 -130q0 -112 -100 -183
t-240 -71q-110 0 -180 40.5t-70 100.5q0 35 26 58t71 24l86 -154q25 -22 80 -22z" />
    <glyph glyph-name="four.den" horiz-adv-x="710" 
d="M547 768v-463h137v-119h-137v-118l104 -23v-45h-393v45l109 21v120h-357v70l461 526zM121 305h246v281z" />
    <glyph glyph-name="five.den" horiz-adv-x="651" 
d="M565 600h-428l-6 -154q96 35 182 35q140 0 218.5 -59.5t78.5 -163.5q0 -88 -52.5 -153t-130 -95t-165.5 -30q-100 0 -174 37.5t-74 99.5q0 36 28.5 58t72.5 22l84 -156q36 -16 75 -16q65 0 107.5 40.5t42.5 110.5q0 73 -49.5 116.5t-126.5 43.5q-78 0 -172 -37l-6 2
l18 461h477v-162z" />
    <glyph glyph-name="six.den" horiz-adv-x="731" 
d="M639 762q-315 -109 -375 -320q82 66 182 66q114 0 183 -68t69 -170q0 -69 -30 -126t-77 -91.5t-100 -53.5t-102 -19q-152 0 -246 89t-94 234q0 112 50.5 204.5t135 152.5t185.5 96.5t211 46.5zM352 432q-55 0 -98 -43q-4 -40 -4 -65q0 -136 43 -216.5t106 -80.5
q47 0 76 41.5t29 126.5q0 108 -43 172.5t-109 64.5z" />
    <glyph glyph-name="seven.den" horiz-adv-x="604" 
d="M215 0h-141l393 586h-436v176h585v-12q-132 -235 -232.5 -422.5t-134.5 -257.5z" />
    <glyph glyph-name="eight.den" horiz-adv-x="712" 
d="M29 180q0 41 18 73t50.5 52.5t61 32t66.5 22.5q-86 42 -121.5 88.5t-35.5 120.5q0 86 81 154t218 68q128 0 204 -50t76 -123q0 -122 -178 -174l4 -2q106 -46 152.5 -95t46.5 -124q0 -60 -29.5 -108.5t-77 -77.5t-103 -44.5t-112.5 -15.5q-138 0 -229.5 53t-91.5 150z
M367 297l-101 45q-61 -61 -61 -139q0 -77 47 -127.5t115 -50.5q54 0 90.5 33t36.5 87q0 93 -127 152zM236 633q0 -44 27.5 -78t94.5 -63l66 -29q57 61 57 141q0 60 -37 100.5t-94 40.5q-49 0 -81.5 -30.5t-32.5 -81.5z" />
    <glyph glyph-name="nine.den" horiz-adv-x="733" 
d="M74 14q159 38 255.5 119t133.5 193q-78 -60 -170 -60q-113 0 -185.5 68.5t-72.5 175.5q0 122 92 202.5t227 80.5q139 0 234.5 -91.5t95.5 -236.5q0 -149 -81.5 -258.5t-215 -166.5t-305.5 -67zM383 340q56 0 92 41q8 36 8 82q0 134 -44 208t-107 74q-48 0 -76.5 -42.5
t-28.5 -120.5q0 -109 44 -175.5t112 -66.5z" />
    <glyph glyph-name="zero.sub" horiz-adv-x="837" 
d="M418 686q163 0 264.5 -113t101.5 -282q0 -93 -31.5 -172t-83 -130.5t-116 -80.5t-131.5 -29q-166 0 -267.5 115t-101.5 293q0 88 31.5 164.5t83.5 127t117 79t133 28.5zM401 639q-64 0 -97.5 -84t-33.5 -223q0 -69 10.5 -138.5t30.5 -130.5t53.5 -99t75.5 -38
q60 0 93.5 88t33.5 230q0 97 -20 186.5t-59 149t-87 59.5z" />
    <glyph glyph-name="one.sub" horiz-adv-x="544" 
d="M387 674v-703l139 -24v-49h-489v49l149 24v566h-155v47l336 90h20z" />
    <glyph glyph-name="two.sub" horiz-adv-x="663" 
d="M379 168l-158 -113h404v-157h-588v53l141 131q88 81 132.5 128.5t72 98.5t27.5 103q0 64 -41.5 102.5t-106.5 38.5q-53 0 -91 -28t-87 -89l-41 27q112 225 309 225q108 0 177 -59t69 -156q0 -50 -14.5 -91t-48 -79t-66.5 -65.5t-90 -69.5z" />
    <glyph glyph-name="three.sub" horiz-adv-x="647" 
d="M281 -74q58 0 98.5 39.5t40.5 102.5q0 77 -69.5 128.5t-203.5 51.5v53q121 17 183.5 62t62.5 104q0 46 -31.5 76t-89.5 30q-107 0 -192 -114l-41 24q43 93 120.5 149t188.5 56q101 0 162 -48t61 -120q0 -126 -194 -192v-9q112 -6 171.5 -56t59.5 -130q0 -112 -100 -183
t-240 -71q-110 0 -180 40.5t-70 100.5q0 35 26 58t71 24l86 -153q26 -23 80 -23z" />
    <glyph glyph-name="four.sub" horiz-adv-x="710" 
d="M547 666v-463h137v-119h-137v-119l104 -22v-45h-393v45l109 20v121h-357v70l461 526zM121 203h246v280z" />
    <glyph glyph-name="five.sub" horiz-adv-x="651" 
d="M565 498h-428l-6 -154q96 35 182 35q140 0 218.5 -59.5t78.5 -163.5q0 -88 -52.5 -153t-130 -95.5t-165.5 -30.5q-100 0 -174 37.5t-74 99.5q0 36 28.5 58t72.5 22l84 -155q38 -17 75 -17q65 0 107.5 41t42.5 111q0 73 -49.5 116t-126.5 43q-80 0 -172 -36l-6 2l18 460
h477v-161z" />
    <glyph glyph-name="six.sub" horiz-adv-x="731" 
d="M639 659q-315 -109 -375 -319q82 66 182 66q114 0 183 -68t69 -170q0 -69 -30 -126.5t-77 -92t-100 -53.5t-102 -19q-152 0 -246 89.5t-94 234.5q0 90 33.5 168t90 134.5t131.5 98.5t157.5 66t169.5 32zM352 330q-55 0 -98 -43q-4 -40 -4 -66q0 -136 43 -216.5t106 -80.5
q47 0 76 41.5t29 126.5q0 108 -43 173t-109 65z" />
    <glyph glyph-name="seven.sub" horiz-adv-x="604" 
d="M215 -102h-141l393 585h-436v176h585v-12q-132 -235 -232.5 -422t-134.5 -257z" />
    <glyph glyph-name="eight.sub" horiz-adv-x="712" 
d="M29 78q0 41 18 73t50.5 52.5t61 32t66.5 22.5q-86 42 -121.5 88.5t-35.5 120.5q0 85 81 153t218 68q128 0 204 -49.5t76 -122.5q0 -122 -178 -174l4 -2q106 -46 152.5 -95t46.5 -124q0 -60 -29.5 -108.5t-77 -77.5t-103 -44.5t-112.5 -15.5q-138 0 -229.5 53t-91.5 150z
M367 195l-101 45q-61 -61 -61 -140q0 -77 47 -127.5t115 -50.5q54 0 90.5 33.5t36.5 87.5q0 93 -127 152zM236 530q0 -44 27.5 -78t94.5 -63l66 -29q57 61 57 142q0 60 -37 100.5t-94 40.5q-49 0 -81.5 -31t-32.5 -82z" />
    <glyph glyph-name="nine.sub" horiz-adv-x="733" 
d="M74 -88q159 38 255.5 118.5t133.5 192.5q-76 -59 -170 -59q-113 0 -185.5 68.5t-72.5 175.5q0 122 92 202t227 80q139 0 234.5 -91.5t95.5 -236.5q0 -112 -46.5 -203t-129 -151t-190.5 -94.5t-236 -42.5zM383 238q56 0 92 41q8 36 8 81q0 134 -44 208.5t-107 74.5
q-48 0 -76.5 -43t-28.5 -121q0 -109 44 -175t112 -66z" />
    <glyph glyph-name="plus.sub" horiz-adv-x="692" 
d="M637 219h-254v-235h-76v235h-252v70h252v237h76v-237h254v-70z" />
    <glyph glyph-name="minus.sub" horiz-adv-x="692" 
d="M637 219h-582v70h582v-70z" />
    <glyph glyph-name="zero.sup" horiz-adv-x="837" 
d="M418 1556q163 0 264.5 -113t101.5 -282q0 -92 -31.5 -170.5t-83 -130t-116 -80t-131.5 -28.5q-167 0 -268 114t-101 291q0 88 31.5 164.5t83.5 127t117 79t133 28.5zM401 1509q-64 0 -97.5 -84t-33.5 -223q0 -69 10.5 -138t30.5 -130t53.5 -99t75.5 -38q60 0 93.5 87.5
t33.5 229.5q0 97 -20 186.5t-59 149t-87 59.5z" />
    <glyph glyph-name="one.sup" horiz-adv-x="544" 
d="M387 1544v-702l139 -25v-49h-489v49l149 25v565h-155v47l336 90h20z" />
    <glyph glyph-name="two.sup" horiz-adv-x="663" 
d="M379 1038l-154 -110h400v-160h-588v55l141 129q88 81 132.5 128.5t72 98.5t27.5 103q0 64 -41.5 102.5t-106.5 38.5q-53 0 -91 -28t-87 -88l-41 26q112 226 309 226q108 0 177 -59.5t69 -156.5q0 -49 -14.5 -90t-47.5 -79t-67 -66.5t-90 -69.5z" />
    <glyph glyph-name="three.sup" horiz-adv-x="647" 
d="M281 797q59 0 99 39t40 102q0 78 -69.5 130t-203.5 52v51q120 16 183 62.5t63 103.5q0 48 -31.5 78.5t-89.5 30.5q-105 0 -192 -117l-41 25q43 93 120.5 149t188.5 56q101 0 162 -47.5t61 -120.5q0 -127 -194 -193v-8q112 -7 171.5 -56.5t59.5 -129.5
q0 -111 -100.5 -182.5t-239.5 -71.5q-110 0 -180 41t-70 100q0 35 26 58t71 24l86 -154q25 -22 80 -22z" />
    <glyph glyph-name="four.sup" horiz-adv-x="710" 
d="M547 1536v-463h137v-117h-137v-120l104 -23v-45h-393v45l109 21v122h-357v68l461 526zM121 1073h246v281z" />
    <glyph glyph-name="five.sup" horiz-adv-x="651" 
d="M565 1368h-428l-6 -154q102 37 182 37q140 0 218.5 -60.5t78.5 -164.5q0 -88 -52.5 -152.5t-130 -94t-165.5 -29.5q-101 0 -174.5 36.5t-73.5 98.5q0 36 28.5 58t72.5 22l84 -154q29 -16 75 -16q65 0 107.5 40t42.5 109q0 73 -49.5 116.5t-126.5 43.5q-78 0 -172 -37
l-6 4l18 459h477v-162z" />
    <glyph glyph-name="six.sup" horiz-adv-x="731" 
d="M639 1530q-159 -56 -250.5 -133.5t-122.5 -184.5q82 64 180 64q114 0 183 -68t69 -170q0 -69 -30 -126t-77 -91.5t-100 -53.5t-102 -19q-152 0 -246 89t-94 234q0 113 50.5 205.5t135 152.5t185.5 95.5t211 46.5zM352 1200q-55 0 -98 -43q-4 -40 -4 -65q0 -136 43 -216.5
t106 -80.5q47 0 76 41.5t29 126.5q0 108 -43 172.5t-109 64.5z" />
    <glyph glyph-name="seven.sup" horiz-adv-x="604" 
d="M215 768h-141l393 586h-436v176h585v-12q-132 -235 -232.5 -422.5t-134.5 -257.5z" />
    <glyph glyph-name="eight.sup" horiz-adv-x="712" 
d="M29 948q0 41 18 73t50.5 52.5t61 32t66.5 22.5q-86 42 -121.5 88.5t-35.5 120.5q0 86 81 154t218 68q128 0 204 -50t76 -123q0 -122 -178 -174l4 -2q106 -46 152.5 -95t46.5 -124q0 -60 -29.5 -108.5t-77 -77.5t-103 -44.5t-112.5 -15.5q-138 0 -229.5 53t-91.5 150z
M367 1065l-101 45q-61 -61 -61 -139q0 -77 47 -127.5t115 -50.5q54 0 90.5 33t36.5 87q0 93 -127 152zM236 1401q0 -44 27.5 -78t94.5 -63l66 -29q57 61 57 141q0 60 -37 100.5t-94 40.5q-49 0 -81.5 -30.5t-32.5 -81.5z" />
    <glyph glyph-name="nine.sup" horiz-adv-x="733" 
d="M74 782q159 39 256.5 120t132.5 194q-80 -62 -170 -62q-113 0 -185.5 68.5t-72.5 175.5q0 122 92 202.5t227 80.5q139 0 234.5 -91.5t95.5 -236.5q0 -149 -81.5 -258.5t-215 -166.5t-305.5 -67zM383 1108q58 0 92 43q8 50 8 80q0 134 -44 208t-107 74q-49 0 -77 -41.5
t-28 -121.5q0 -109 44 -175.5t112 -66.5z" />
    <glyph glyph-name="plus.sup" horiz-adv-x="692" 
d="M637 1090h-254v-236h-76v236h-252v71h252v236h76v-236h254v-71z" />
    <glyph glyph-name="minus.sup" horiz-adv-x="692" 
d="M637 1090h-582v71h582v-71z" />
    <glyph glyph-name="bullet.alt" horiz-adv-x="753" 
d="M59 1169q0 57 36.5 89t82.5 32q24 0 46 -7t37.5 -16t34.5 -28t28.5 -31t29.5 -38t29 -37h23q15 15 40.5 40t35 33.5t27 23t29 18.5t28 8t36.5 4q52 0 84.5 -37t32.5 -88q0 -59 -38 -98.5t-95 -39.5q-32 0 -58 13t-69.5 48t-55.5 44h-10q-37 -47 -37 -88q0 -48 30 -75.5
t107 -70.5q13 -6 19 -10q65 -36 100 -73.5t35 -90.5q0 -57 -40 -95.5t-111 -31.5q-6 -23 -27.5 -41t-60.5 -18q-37 0 -66 19.5t-61 66.5q-6 8 -24.5 36.5t-29.5 41.5t-32 26t-45 13q-41 0 -62.5 -27t-21.5 -66h-21q-26 78 12 131.5t111 53.5q34 0 63 -14t48 -34.5
t36.5 -40.5t37 -34t40.5 -14q27 0 41.5 15.5t14.5 39.5q0 26 -17 49.5t-41.5 42.5t-49 39.5t-41.5 50.5t-17 66q0 66 63 139l-8 4q-104 -53 -162 -53q-55 0 -86 30t-31 80zM410 1495q46 0 81 -30t35 -74q0 -18 -8 -39t-18.5 -39t-26.5 -39t-27 -33.5t-24.5 -27.5t-15.5 -17
h-21q-1 2 -27.5 41.5t-46.5 79.5t-20 67q0 45 34 78t85 33z" />
    <glyph glyph-name="f.short" horiz-adv-x="696" 
d="M47 0v57l125 35v793h-147v63l149 47l8 82q22 197 143 327t277 130q95 0 163.5 -48.5t68.5 -115.5q0 -69 -59.5 -101.5t-131.5 -17.5l-55 217h-19q-75 0 -110 -66t-33 -179l4 -234h270v-96h-268v-801l156 -35v-57h-541z" />
    <glyph glyph-name="f_f.short" horiz-adv-x="1320" 
d="M680 0v57l117 35v801h-365v-801l133 -35v-57h-518v57l125 35v793h-147v63l149 45q29 152 115 266.5t194 170t219 55.5q146 0 244 -84q59 65 133 99t150 34q94 0 161.5 -48.5t67.5 -115.5q0 -47 -29 -78t-72 -40.5t-89 -0.5l-56 217h-18q-75 0 -109.5 -66t-31.5 -179
l2 -234h272v-96h-270v-801l157 -35v-57h-534zM432 1040v-51h365q3 129 47 244q-72 174 -213 174q-39 0 -72.5 -17.5t-63 -57.5t-46.5 -114.5t-17 -177.5z" />
    <glyph glyph-name="i.ger" horiz-adv-x="589" 
d="M41 0v57l129 37v705l-125 82v32l385 105v-926l135 -35v-57h-524zM293 1165q-60 0 -105 45t-45 105t45 104.5t105 44.5t105.5 -44.5t45.5 -104.5t-45.5 -105t-105.5 -45z" />
    <glyph glyph-name="j.ger" horiz-adv-x="579" 
d="M-27 -489l-12 38q82 50 124.5 105t62 141.5t22.5 233.5v770l-123 82v32l381 105v-905q0 -165 -18.5 -258.5t-81.5 -159.5q-50 -53 -120.5 -93t-118.5 -56.5t-116 -34.5zM295 1165q-61 0 -105.5 45t-44.5 105t44.5 104.5t105.5 44.5q60 0 104.5 -44.5t44.5 -104.5
t-44.5 -105t-104.5 -45z" />
    <glyph glyph-name="adieresis.ger" horiz-adv-x="1019" 
d="M324 -31q-108 0 -184.5 68t-76.5 182q0 120 83.5 187t263.5 112l198 49v138q-3 103 -49.5 165t-126.5 62q-59 0 -104 -31l-9 -225q-55 -19 -112 -19q-53 0 -85 27t-32 76q0 42 37 88t97 83.5t145 62t174 24.5q163 0 243 -75t80 -236v-545q0 -41 14.5 -54.5t55.5 -13.5h88
v-41q-15 -9 -41 -22t-89.5 -34.5t-107.5 -21.5q-83 0 -124 40t-46 124h-10q-31 -39 -53.5 -63.5t-58 -52t-78 -41t-92.5 -13.5zM463 123q82 0 145 78v305l-135 -45q-158 -51 -158 -178q0 -69 39.5 -114.5t108.5 -45.5zM303 1178q-57 0 -97 39t-40 96q0 56 40 96.5t97 40.5
q55 0 96 -41t41 -96q0 -56 -40.5 -95.5t-96.5 -39.5zM709 1178q-57 0 -97.5 39t-40.5 96q0 56 40.5 96.5t97.5 40.5q55 0 96 -41t41 -96q0 -56 -40.5 -95.5t-96.5 -39.5z" />
    <glyph glyph-name="odieresis.ger" horiz-adv-x="1177" 
d="M387 1178q-57 0 -97 39t-40 96q0 56 40 96.5t97 40.5q55 0 96 -41t41 -96q0 -56 -40.5 -95.5t-96.5 -39.5zM793 1178q-57 0 -97.5 39t-40.5 96q0 56 40.5 96.5t97.5 40.5q55 0 96 -41t41 -96q0 -56 -40.5 -95.5t-96.5 -39.5zM555 950q-57 0 -100 -32t-67 -86t-35 -116.5
t-11 -133.5q0 -138 31 -259t96.5 -201.5t153.5 -80.5q99 0 156 103t57 272q0 234 -79.5 384t-201.5 150zM590 -33q-123 0 -224.5 42t-166.5 113t-100.5 162t-35.5 191q0 113 41.5 214.5t112 173.5t168 114.5t205.5 42.5q233 0 378.5 -139t145.5 -363q0 -233 -151.5 -392
t-372.5 -159z" />
    <glyph glyph-name="udieresis.ger" horiz-adv-x="1202" 
d="M801 -27l-23 168q-62 -69 -148 -121.5t-188 -52.5q-134 0 -212 81t-78 239v559l-127 55v39l385 66v-666q0 -209 182 -209q96 0 182 68v651l-139 51v41l399 68v-889l137 -43v-47zM799 1178q-57 0 -97 39t-40 96q0 56 40 96.5t97 40.5q55 0 96 -41t41 -96
q0 -56 -40.5 -95.5t-96.5 -39.5zM393 1178q-57 0 -97 39t-40 96q0 56 40 96.5t97 40.5q55 0 96 -41t41 -96q0 -56 -40.5 -95.5t-96.5 -39.5z" />
    <glyph glyph-name="questiondown.uc" horiz-adv-x="806" 
d="M676 205v-273l-82 19q-74 17 -146.5 48.5t-138.5 79t-116.5 104t-80.5 128.5t-30 148q0 113 58.5 184.5t187.5 112.5l182 57l-4 164h76l55 -359l-303 -81q-94 -26 -135 -56t-41 -73q0 -71 106.5 -124t317.5 -71zM541 1405q62 0 107.5 -45.5t45.5 -108.5q0 -61 -45.5 -106
t-107.5 -45q-63 0 -108.5 44.5t-45.5 106.5q0 63 45.5 108.5t108.5 45.5z" />
    <glyph glyph-name="exclamdown.uc" horiz-adv-x="579" 
d="M440 -57h-303l125 1034h55zM291 1405q62 0 107.5 -45.5t45.5 -108.5q0 -61 -45.5 -106t-107.5 -45q-63 0 -108.5 44.5t-45.5 106.5q0 63 45.5 108.5t108.5 45.5z" />
    <glyph glyph-name="hyphen.uc" horiz-adv-x="761" 
d="M115 596v158h532v-158h-532z" />
    <glyph glyph-name="endash.uc" horiz-adv-x="987" 
d="M84 635v86h819v-86h-819z" />
    <glyph glyph-name="emdash.uc" horiz-adv-x="1806" 
d="M84 635v86h1638v-86h-1638z" />
    <glyph glyph-name="guilsinglleft.uc" horiz-adv-x="622" 
d="M453 922l36 -33l-221 -338l221 -344l-36 -31l-351 350v39z" />
    <glyph glyph-name="guilsinglright.uc" horiz-adv-x="622" 
d="M170 176l-39 33l221 340l-219 342l37 31l350 -351v-36z" />
    <glyph glyph-name="guillemotleft.uc" horiz-adv-x="976" 
d="M453 922l36 -33l-221 -338l221 -344l-36 -31l-351 350v39zM809 922l37 -33l-221 -338l221 -344l-37 -31l-350 350v39z" />
    <glyph glyph-name="guillemotright.uc" horiz-adv-x="976" 
d="M526 176l-39 33l222 340l-220 342l37 31l351 -351v-36zM170 176l-39 33l221 340l-219 342l37 31l350 -351v-36z" />
    <glyph glyph-name="parenleft.uc" horiz-adv-x="718" 
d="M696 -287h-86q-199 188 -310.5 427t-111.5 501q0 266 114.5 507.5t313.5 432.5h89q-170 -221 -252 -440t-82 -500q0 -272 80 -491.5t245 -436.5z" />
    <glyph glyph-name="parenright.uc" horiz-adv-x="718" 
d="M23 1581h83q199 -188 310.5 -427t111.5 -501q0 -267 -114.5 -508.5t-313.5 -431.5h-86q169 221 250.5 440t81.5 500q0 271 -79.5 491t-243.5 437z" />
    <glyph glyph-name="bracketleft.uc" horiz-adv-x="634" 
d="M623 -289h-406v1872h406v-74h-205v-1724h205v-74z" />
    <glyph glyph-name="bracketright.uc" horiz-adv-x="634" 
d="M12 1583h406v-1872h-406v74h205v1724h-205v74z" />
    <glyph glyph-name="braceleft.uc" horiz-adv-x="704" 
d="M223 649v-6q142 -18 197 -68t55 -178l-2 -383q0 -141 43.5 -195.5t157.5 -54.5v-53h-31q-111 -3 -187 19.5t-118 70.5t-57 113.5t-7 155.5l33 366q8 81 -24.5 123t-110.5 45l-66 2v82l66 2q78 3 110.5 45t24.5 123l-33 367q-16 182 68 273t301 85h31v-53
q-114 0 -157.5 -54.5t-43.5 -195.5l2 -385q0 -127 -55.5 -177.5t-196.5 -68.5z" />
    <glyph glyph-name="braceright.uc" horiz-adv-x="704" 
d="M479 645v6q-140 18 -195 68t-55 178l2 383q0 141 -44 195.5t-158 54.5v53h32q217 6 301 -85t68 -273l-33 -367q-8 -81 23.5 -123t109.5 -45l68 -2v-82l-68 -2q-78 -3 -109.5 -45t-23.5 -123l33 -366q8 -90 -7 -155.5t-57 -113.5t-118 -70.5t-187 -19.5h-32v53
q114 0 158 54.5t44 195.5l-2 385q0 127 55 177.5t195 68.5z" />
    <glyph glyph-name="slash.uc" horiz-adv-x="860" 
d="M35 -352l-76 33l803 1939l76 -33z" />
    <glyph glyph-name="backslash.uc" horiz-adv-x="860" 
d="M901 -319l-74 -33l-802 1939l75 33z" />
    <glyph glyph-name="bar.uc" horiz-adv-x="458" 
d="M268 -350h-78v1933h78v-1933z" />
    <glyph glyph-name="at.uc" horiz-adv-x="1935" 
d="M1028 436l23 76h-7q-4 -5 -31.5 -45t-41.5 -59q-173 -244 -316 -244q-76 0 -119.5 52.5t-43.5 137.5q0 121 60.5 252t151.5 231t201 165t205 65q55 0 127 -37l25 70h170l-181 -635q-25 -83 -19.5 -132.5t30 -70t71.5 -20.5q42 0 89.5 19.5t97 62.5t90 103t66 151.5
t26.5 197.5q1 175 -80 319t-227 227t-326 83q-99 0 -197 -28t-186.5 -79t-164.5 -127.5t-131.5 -169.5t-87.5 -209.5t-32 -242.5q-1 -173 54 -311t152 -226.5t225 -135t278 -46.5q158 0 313 57v-34q-38 -25 -152.5 -57t-240.5 -32t-241.5 25.5t-219 82.5t-179 140.5
t-120 207t-43.5 274.5q0 135 41.5 263.5t112.5 234.5t169 196t210.5 151.5t237.5 96t249 34.5q165 0 303 -52t230 -141.5t143 -209.5t51 -256q0 -122 -40.5 -230t-106 -183.5t-147.5 -131t-165.5 -82t-158.5 -26.5q-126 0 -181 73.5t-16 204.5zM793 330q43 0 112.5 77
t133 188t94.5 208l43 135q-55 66 -105 66q-56 0 -117.5 -57.5t-109 -143t-78.5 -191t-31 -196.5q0 -86 58 -86z" />
    <glyph glyph-name="Q.cap" horiz-adv-x="1609" 
d="M809 1397q158 0 295 -55t231 -148.5t147.5 -219t53.5 -263.5q0 -133 -41 -252t-112.5 -207.5t-166 -152t-204.5 -95.5q255 -197 431 -273.5t388 -76.5q123 0 240 35.5t206 95.5l31 -39q-253 -240 -631 -240q-114 0 -204.5 14t-179.5 43.5t-194 91t-218.5 140.5
t-282.5 207q-225 63 -370.5 243.5t-145.5 434.5q0 155 60.5 291t161 228t232 145t273.5 53zM840 41q126 0 213.5 79t128.5 212.5t41 310.5q0 132 -33 255.5t-90 218t-141.5 151.5t-180.5 57q-186 0 -285.5 -163t-99.5 -433q0 -135 30 -258t85.5 -219.5t141.5 -153.5t190 -57
z" />
    <glyph glyph-name="Q.short" horiz-adv-x="1609" 
d="M809 1397q158 0 295 -55t231 -148.5t147.5 -219t53.5 -263.5q0 -142 -46.5 -267t-126.5 -215.5t-185.5 -151.5t-225.5 -85q79 -61 116.5 -89t94 -66.5t91.5 -54.5t78 -28t85 -12q96 0 174 41l23 -33q-148 -133 -330 -133q-87 0 -165 22.5t-169.5 83t-144 102.5
t-170.5 144q-27 23 -41 35q-145 42 -259 132.5t-183.5 232t-69.5 311.5q0 155 60.5 291t161 228t232 145t273.5 53zM840 41q126 0 213.5 79t128.5 212.5t41 310.5q0 132 -33 255.5t-90 218t-141.5 151.5t-180.5 57q-186 0 -285.5 -163t-99.5 -433q0 -135 30 -258
t85.5 -219.5t141.5 -153.5t190 -57z" />
    <glyph glyph-name="space.uc" horiz-adv-x="397" 
 />
    </font>
</defs>
</svg>
