<?xml version="1.0" standalone="no"?>
<!DOCTYPE svg PUBLIC "-//W3C//DTD SVG 1.1//EN" "http://www.w3.org/Graphics/SVG/1.1/DTD/svg11.dtd" >
<svg xmlns="http://www.w3.org/2000/svg" xmlns:xlink="http://www.w3.org/1999/xlink" version="1.1">
<metadata>
Created by FontForge 20170731 at Thu Dec 24 14:22:10 2020
 By Aleksey,,,
(c)2010 Kai Bernau and Commercial Type.
</metadata>
<defs>
<font id="LyonDisplay-LightItalic" horiz-adv-x="794" >
  <font-face 
    font-family="Lyon Display Light"
    font-weight="300"
    font-style="italic"
    font-stretch="normal"
    units-per-em="2048"
    panose-1="2 0 3 3 8 0 0 9 0 4"
    ascent="1638"
    descent="-410"
    x-height="977"
    cap-height="1360"
    bbox="-387 -553 2630 2163"
    underline-thickness="102"
    underline-position="-409"
    slope="-12"
    unicode-range="U+0020-FB04"
  />
<missing-glyph horiz-adv-x="348" 
 />
    <glyph glyph-name="f_f" unicode="ff" horiz-adv-x="1036" 
d="M74 870l14 78h170q42 110 128 223t198 193t207 80q109 0 182 -94q78 79 160 125.5t155 46.5q68 0 119 -30t51 -75q0 -25 -16.5 -55.5t-34.5 -48.5q-64 53 -116 79.5t-113 26.5q-26 0 -51 -9t-58.5 -39t-63.5 -79t-62.5 -137.5t-57.5 -206.5h266l-18 -78h-265l-131 -649
q-68 -342 -186.5 -520t-257.5 -178q-52 0 -96.5 30t-44.5 78q0 9 1.5 17t3.5 14.5t7 14.5t7 11.5t9.5 11.5t9 10t10 10.5l9.5 9.5q51 -76 85 -106t68 -30q37 0 65 41.5t60.5 154t75.5 325.5l152 755h-328l-137 -690q-73 -366 -193 -545.5t-270 -179.5q-54 0 -100.5 32
t-46.5 83q0 22 12 44t19.5 30t29.5 30q55 -81 91 -114t71 -33q33 0 55.5 23t50.5 98t57.5 202t73.5 349l133 671h-159zM731 948q46 161 166 314q-76 86 -176 86q-107 0 -186.5 -93t-131.5 -307h328z" />
    <glyph glyph-name="f_i" unicode="fi" horiz-adv-x="952" 
d="M74 870l14 78h166q39 138 131.5 271t208 218t213.5 85q73 0 122.5 -31.5t49.5 -73.5q0 -26 -15.5 -55.5t-35.5 -48.5q-64 54 -117.5 80t-112.5 26q-26 0 -51 -9t-59 -39t-63.5 -79t-61.5 -137.5t-57 -206.5h430l61 27h14l-239 -856h6q46 32 111 100t98 121l28 -16
q-79 -136 -176.5 -241.5t-160.5 -105.5q-44 0 -60.5 36t0.5 93l219 764h-348l-139 -692q-73 -365 -193 -544t-270 -179q-54 0 -100.5 32t-46.5 83q0 22 12 44t19.5 30t29.5 30q55 -81 91 -114t71 -33q33 0 55.5 22.5t50 97t57 201t74.5 349.5l136 673h-162z" />
    <glyph glyph-name="f_l" unicode="fl" horiz-adv-x="983" 
d="M930 324q-70 -126 -172 -236.5t-166 -110.5q-44 0 -59.5 35t-0.5 94l205 764h-348l-139 -690q-73 -365 -193 -545t-270 -180q-54 0 -100.5 32t-46.5 83q0 22 12 44t19.5 30t29.5 30q56 -80 92 -113.5t70 -33.5q22 0 38 9t34 37t33.5 72.5t36 122.5t43 180t52.5 251
l136 671h-162l14 78h166q39 138 131.5 271t208 218t213.5 85q67 0 125 -35l129 41l-375 -1409h6q110 80 209 221zM725 1423q-35 0 -65.5 -9.5t-67.5 -39.5t-68.5 -80.5t-63.5 -138.5t-57 -207h355l112 424q-67 51 -145 51z" />
    <glyph glyph-name="f_f_i" unicode="ffi" horiz-adv-x="1431" 
d="M74 870l14 78h170q42 110 128 223t198 193t207 80q109 0 182 -94q78 79 160 125.5t155 46.5q68 0 119 -30t51 -75q0 -25 -16.5 -55.5t-34.5 -48.5q-64 53 -116 79.5t-113 26.5q-26 0 -51 -9t-58.5 -39t-63.5 -79t-62.5 -137.5t-57.5 -206.5h430l61 27h15l-240 -856h6
q46 32 111 100t98 121l29 -16q-79 -136 -176.5 -241.5t-161.5 -105.5q-44 0 -60.5 36t0.5 93l220 764h-349l-131 -647q-72 -352 -188.5 -526t-255.5 -174q-52 0 -96.5 30t-44.5 78q0 9 1.5 17t3.5 14.5t7 14.5t7 11.5t9.5 11.5t9 10t10 10.5l9.5 9.5q51 -76 85 -106t68 -30
q37 0 65 42t60.5 155.5t75.5 327.5l152 751h-328l-137 -690q-73 -366 -193 -545.5t-270 -179.5q-54 0 -100.5 32t-46.5 83q0 22 12 44t19.5 30t29.5 30q55 -81 91 -114t71 -33q33 0 55.5 23t50.5 98t57.5 202t73.5 349l133 671h-159zM731 948q46 161 166 314q-76 86 -176 86
q-107 0 -186.5 -93t-131.5 -307h328z" />
    <glyph glyph-name="f_f_l" unicode="ffl" horiz-adv-x="1462" 
d="M74 870l14 78h170q42 110 128 223t198 193t207 80q106 0 182 -94q78 79 160 125.5t155 46.5q62 0 123 -35l129 41l-375 -1409h6q110 80 209 221l29 -16q-70 -126 -172 -236.5t-166 -110.5q-44 0 -59.5 35.5t0.5 93.5l205 764h-349l-131 -649q-68 -341 -187 -519.5
t-257 -178.5q-52 0 -96.5 30t-44.5 78q0 9 1.5 17t3.5 14.5t7 14.5t7 11.5t9.5 11.5t9 10t10 10.5l9.5 9.5q51 -76 85 -106t68 -30q36 0 66 45.5t62.5 159t72.5 316.5l152 755h-328l-137 -690q-73 -366 -193 -545.5t-270 -179.5q-54 0 -100.5 32t-46.5 83q0 22 12 44
t19.5 30t29.5 30q55 -81 91 -114t71 -33q33 0 55.5 23t50.5 98t57.5 202t73.5 349l133 671h-159zM1204 1423q-35 0 -65 -9.5t-66.5 -39.5t-67.5 -80.5t-63 -138.5t-57 -207h352l113 424q-67 51 -146 51zM731 948q47 165 164 314q-76 86 -174 86q-107 0 -186.5 -93
t-131.5 -307h328z" />
    <glyph glyph-name="f_b" unicode="fb" horiz-adv-x="1433" 
d="M799 -29q-65 0 -132 35.5t-118 106.5l-10 14l329 1247q-69 49 -143 49q-36 0 -66 -9.5t-66.5 -39.5t-67 -80.5t-62.5 -138.5t-57 -207h243l-20 -78h-240l-139 -690q-73 -365 -193 -545t-270 -180q-54 0 -100.5 32t-46.5 83q0 53 61 98q56 -77 92 -109t70 -32q22 0 38 9
t34 37t33.5 72.5t36 122.5t43 180t52.5 251l136 671h-162l14 78h166q39 138 131.5 271t208 218t213.5 85q65 0 123 -35l129 41l-254 -963h12q236 412 455 412q75 0 114.5 -65.5t36.5 -176.5q-2 -88 -36.5 -193t-94.5 -205t-136 -182.5t-170 -133t-187 -50.5zM745 317
l-53 -180q18 -46 57 -80t99 -34q90 0 182 104t151.5 258t67.5 301q5 83 -15.5 128.5t-62.5 45.5q-54 0 -123 -60t-128.5 -146.5t-107 -178t-67.5 -158.5z" />
    <glyph glyph-name="f_f_b" unicode="ffb" horiz-adv-x="1912" 
d="M1278 -29q-65 0 -132 35.5t-118 106.5l-10 14l330 1247q-65 49 -144 49q-35 0 -65 -9.5t-66.5 -39.5t-67.5 -80.5t-63 -138.5t-57 -207h243l-20 -78h-240l-131 -647q-71 -349 -188 -524.5t-256 -175.5q-52 0 -96.5 30t-44.5 78q0 9 1.5 17t3.5 14.5t7 14.5t7 11.5
t9.5 11.5t9 10t10 10.5l9.5 9.5q51 -76 85 -106t68 -30q37 0 65 41t60.5 154.5t75.5 327.5l152 753h-328l-137 -690q-73 -366 -193 -545.5t-270 -179.5q-54 0 -100.5 32t-46.5 83q0 22 12 44t19.5 30t29.5 30q55 -81 91 -114t71 -33q33 0 55.5 23t50.5 98t57.5 202t73.5 349
l133 671h-159l14 78h170q42 110 128 223t198 193t207 80q109 0 182 -94q78 79 160 125.5t155 46.5q60 0 121 -35l129 41l-254 -963h12q236 412 455 412q75 0 115 -65.5t37 -176.5q-2 -88 -36.5 -193t-95 -205t-136 -182.5t-170 -133t-187.5 -50.5zM1225 317l-54 -180
q18 -46 57 -80t99 -34q90 0 182 104t152 258.5t68 300.5q5 83 -15.5 128.5t-62.5 45.5q-54 0 -123 -60t-128.5 -146.5t-107 -178t-67.5 -158.5zM731 948q46 161 166 314q-76 86 -176 86q-107 0 -186.5 -93t-131.5 -307h328z" />
    <glyph glyph-name="f_f_h" unicode="ffh" horiz-adv-x="1947" 
d="M1536 1528l-260 -983h12q49 86 102 159t113 136.5t125 100t125 36.5q73 0 100.5 -49.5t6.5 -124.5l-191 -684h6q108 80 209 221l29 -16q-81 -140 -178.5 -243.5t-159.5 -103.5q-37 0 -57.5 32t-1.5 95l198 695q6 28 -4.5 45.5t-36.5 17.5q-50 0 -117.5 -53t-136 -142.5
t-133.5 -221t-106 -275.5l-45 -160l-123 -35l-29 25l365 1374q-65 49 -144 49q-35 0 -65 -9.5t-66.5 -39.5t-67.5 -80.5t-63 -138.5t-57 -207h243l-20 -78h-240l-131 -649q-69 -348 -186.5 -523t-257.5 -175q-52 0 -96.5 30t-44.5 78q0 9 1.5 17t3.5 14.5t7 14.5t7 11.5
t9.5 11.5t9 10t10 10.5l9.5 9.5q51 -76 85 -106t68 -30q36 0 65 44.5t61.5 157.5t74.5 323l152 751h-328l-137 -690q-73 -366 -193 -545.5t-270 -179.5q-54 0 -100.5 32t-46.5 83q0 22 12 44t19.5 30t29.5 30q55 -81 91 -114t71 -33q33 0 55.5 23t50.5 98t57.5 202t73.5 349
l133 671h-159l14 78h170q42 110 128 223t198 193t207 80q109 0 182 -94q78 79 160 125.5t155 46.5q60 0 121 -35zM731 948q46 161 166 314q-76 86 -176 86q-107 0 -186.5 -93t-131.5 -307h328z" />
    <glyph glyph-name="f_f_j" unicode="ffj" horiz-adv-x="1423" 
d="M74 870l14 78h170q42 110 128 223t198 193t207 80q106 0 182 -94q78 79 160 125.5t155 46.5q68 0 119 -30t51 -75q0 -25 -16.5 -55.5t-34.5 -48.5q-64 53 -116 79.5t-113 26.5q-26 0 -51 -9t-58.5 -39t-63.5 -79t-62.5 -137.5t-57.5 -206.5h440l59 27h17l-174 -744
q-45 -191 -109 -333t-150 -226t-182 -84q-53 0 -97 30.5t-44 78.5q0 22 10.5 42.5t19.5 29.5t27 26q50 -76 85 -104.5t69 -28.5q32 0 57 29t57 118.5t70 251.5l189 809h-361l-131 -649q-68 -344 -186.5 -521t-257.5 -177q-52 0 -96.5 30t-44.5 78q0 9 1.5 17t3.5 14.5
t7 14.5t7 11.5t9.5 11.5t9 10t10 10.5l9.5 9.5q51 -76 85 -106t68 -30q36 0 65 43t61.5 156t74.5 322l152 755h-328l-137 -690q-73 -366 -193 -545.5t-270 -179.5q-54 0 -100.5 32t-46.5 83q0 22 12 44t19.5 30t29.5 30q55 -81 91 -114t71 -33q33 0 55.5 23t50.5 98
t57.5 202t73.5 349l133 671h-159zM731 948q47 165 164 314q-76 86 -174 86q-107 0 -186.5 -93t-131.5 -307h328z" />
    <glyph glyph-name="f_f_k" unicode="ffk" horiz-adv-x="1857" 
d="M1671 -68q-84 0 -153 86l-279 338q-36 -96 -53 -157l-51 -189l-123 -35l-29 25l365 1374q-65 49 -144 49q-35 0 -65 -9.5t-66.5 -39.5t-67.5 -80.5t-63 -138.5t-57 -207h243l-20 -78h-240l-131 -649q-68 -344 -186.5 -521t-257.5 -177q-52 0 -96.5 30t-44.5 78
q0 9 1.5 17t3.5 14.5t7 14.5t7 11.5t9.5 11.5t9 10t10 10.5l9.5 9.5q51 -76 85 -106t68 -30q36 0 65 44.5t61.5 157t74.5 319.5l152 755h-328l-137 -690q-73 -366 -193 -545.5t-270 -179.5q-54 0 -100.5 32t-46.5 83q0 22 12 44t19.5 30t29.5 30q55 -81 91 -114t71 -33
q33 0 55.5 23t50.5 98t57.5 202t73.5 349l133 671h-159l14 78h170q42 110 128 223t198 193t207 80q106 0 182 -94q78 79 160 125.5t155 46.5q60 0 121 -35l127 41l-260 -983h10q219 432 451 432q58 0 97.5 -37t39.5 -98q0 -118 -118.5 -219t-377.5 -228l381 -432v-6
q-31 -25 -88 -25zM731 948q47 165 164 314q-76 86 -174 86q-107 0 -186.5 -93t-131.5 -307h328zM1659 860q-96 0 -213 -143t-199 -342q235 112 357 211t122 196q0 78 -67 78z" />
    <glyph glyph-name="f_f_t" unicode="fft" horiz-adv-x="1579" 
d="M997 78l213 792h-342l-131 -649q-71 -356 -190 -527t-254 -171q-52 0 -96.5 30t-44.5 78q0 9 1.5 17t3.5 14.5t7 14.5t7 11.5t9.5 11.5t9 10t10 10.5l9.5 9.5q51 -76 85 -106t68 -30q55 0 98.5 111t102.5 410l152 755h-328l-137 -690q-73 -366 -193 -545.5t-270 -179.5
q-54 0 -100.5 32t-46.5 83q0 22 12 44t19.5 30t29.5 30q55 -81 91 -114t71 -33q33 0 55.5 23t50.5 98t57.5 202t73.5 349l133 671h-159l14 78h170q42 110 128 223t198 193t207 80q106 0 182 -94q167 170 321 170q44 0 79.5 -25t35.5 -57q0 -26 -18 -56.5t-39 -50.5
q-52 52 -87 71t-73 19q-206 0 -307 -473h354l121 281h76l-62 -281h289l-16 -78h-291l-199 -751h4q54 20 138 94.5t161 171.5l31 -23q-92 -147 -213 -266t-213 -119q-38 0 -58.5 31t-9.5 70zM733 948q48 169 162 314q-76 86 -174 86q-107 0 -186.5 -93t-131.5 -307h330z" />
    <glyph glyph-name="f_h" unicode="fh" horiz-adv-x="1468" 
d="M1057 1528l-260 -983h12q49 86 102 159t113 136.5t125 100t125 36.5q72 0 99.5 -49.5t6.5 -124.5l-190 -684h6q108 80 209 221l29 -16q-81 -140 -178.5 -243.5t-159.5 -103.5q-38 0 -58.5 32t-1.5 95l199 695q6 28 -4.5 45.5t-36.5 17.5q-50 0 -117.5 -53t-136.5 -142.5
t-134 -221t-106 -275.5l-45 -160l-123 -35l-28 25l364 1374q-69 49 -143 49q-36 0 -66 -9.5t-66.5 -39.5t-67 -80.5t-62.5 -138.5t-57 -207h243l-20 -78h-240l-139 -690q-73 -365 -193 -545t-270 -180q-54 0 -100.5 32t-46.5 83q0 22 11 43t20.5 31t29.5 28q56 -79 92 -112
t70 -33q22 0 38 9t34 37t33.5 72.5t36 122.5t43 180t52.5 251l136 671h-162l14 78h166q39 138 131.5 271t208 218t213.5 85q65 0 123 -35z" />
    <glyph glyph-name="f_j" unicode="fj" horiz-adv-x="942" 
d="M514 -145l236 1015h-361l-139 -692q-73 -365 -193 -544t-270 -179q-54 0 -100.5 32t-46.5 83q0 22 12 44t19.5 30t29.5 30q55 -81 91 -114t71 -33q26 0 45 15.5t39.5 54t42.5 117.5t48 193t62 294l136 669h-162l14 78h166q39 138 131.5 271t208 218t213.5 85
q73 0 122.5 -31.5t49.5 -73.5q0 -26 -15.5 -55.5t-35.5 -48.5q-64 54 -117.5 80t-112.5 26q-26 0 -51 -9t-59 -39t-63.5 -79t-61.5 -137.5t-57 -206.5h440l59 27h17l-209 -873q-39 -161 -97.5 -288t-143 -209t-179.5 -82q-54 0 -97.5 30t-43.5 78q0 22 10.5 42.5t19.5 30.5
t27 26q51 -77 85 -106.5t68 -29.5q46 0 82.5 60.5t69.5 200.5z" />
    <glyph glyph-name="f_k" unicode="fk" horiz-adv-x="1378" 
d="M1192 -68q-85 0 -154 86l-278 338q-36 -96 -53 -157l-52 -189l-123 -35l-28 25l364 1374q-69 49 -143 49q-36 0 -66 -9.5t-66.5 -39.5t-67 -80.5t-62.5 -138.5t-57 -207h243l-20 -78h-240l-139 -690q-73 -365 -193 -545t-270 -180q-54 0 -100.5 32t-46.5 83q0 53 61 98
q56 -77 92 -109t70 -32q22 0 38 9t34 37t33.5 72.5t36 122.5t43 180t52.5 251l136 671h-162l14 78h166q39 138 131.5 271t208 218t213.5 85q65 0 123 -35l127 41l-260 -983h10q219 432 450 432q58 0 98 -37t40 -98q0 -118 -118.5 -219t-377.5 -228l381 -432v-6
q-31 -25 -88 -25zM1178 860q-95 0 -211.5 -143.5t-198.5 -341.5q235 112 357 211t122 196q0 78 -69 78z" />
    <glyph glyph-name="f_t" unicode="ft" horiz-adv-x="1099" 
d="M518 78l213 792h-342l-139 -692q-73 -365 -193 -544t-270 -179q-54 0 -100.5 32t-46.5 83q0 22 12 44t19.5 30t29.5 30q55 -81 91 -114t71 -33q44 0 74.5 48.5t68.5 190.5t96 435l134 669h-162l14 78h166q39 139 129.5 271t208 216.5t223.5 84.5q44 0 79.5 -25t35.5 -57
q0 -26 -18 -56.5t-40 -50.5q-52 52 -86.5 71t-72.5 19q-206 0 -307 -473h354l121 281h75l-61 -281h289l-17 -78h-290l-199 -751h4q54 20 138 94.5t161 171.5l31 -23q-92 -147 -213 -266t-213 -119q-38 0 -58.5 31t-9.5 70z" />
    <glyph glyph-name=".notdef" horiz-adv-x="348" 
 />
    <glyph glyph-name=".null" horiz-adv-x="0" 
 />
    <glyph glyph-name="nonmarkingreturn" horiz-adv-x="682" 
 />
    <glyph glyph-name="space" unicode=" " horiz-adv-x="348" 
 />
    <glyph glyph-name="exclam" unicode="!" horiz-adv-x="462" 
d="M324 1413h176l-275 -1034h-41zM156 -27q-51 0 -86 35t-35 86t35 86t86 35t85.5 -35t34.5 -86t-34.5 -86t-85.5 -35z" />
    <glyph glyph-name="quotedbl" unicode="&#x22;" horiz-adv-x="692" 
d="M244 1010l35 479h190l-193 -479h-32zM563 1010l35 479h190l-192 -479h-33z" />
    <glyph glyph-name="numbersign" unicode="#" horiz-adv-x="1189" 
d="M221 834l15 65h251l119 318h68l-119 -318h328l118 318h68l-119 -318h250l-16 -65h-258l-152 -404h242l-15 -65h-251l-136 -365h-67l135 365h-328l-135 -365h-67l135 365h-248l14 65h258l152 404h-242zM530 834l-151 -404h328l151 404h-328z" />
    <glyph glyph-name="dollar" unicode="$" horiz-adv-x="1036" 
d="M113 410h30l11 -301q118 -79 274 -82l115 583l-62 35q-112 61 -162.5 126t-50.5 173q0 143 117 252t295 119l47 244h64l-50 -242q46 -2 96 -11t78 -17.5t69.5 -22t47.5 -15.5l-65 -323h-33l-14 248q-36 34 -87.5 57t-101.5 29l-102 -519l6 -2q165 -95 226 -172t63 -190
q1 -162 -129 -274.5t-320 -131.5l-47 -239h-57l45 235h-6q-99 0 -200.5 23t-170.5 49zM764 328q0 68 -37.5 129.5t-130.5 122.5l-111 -551q120 13 199.5 90.5t79.5 208.5zM410 1016q-2 -75 31.5 -129t131.5 -111l97 486q-121 -6 -188 -71t-72 -175z" />
    <glyph glyph-name="percent" unicode="%" horiz-adv-x="1507" 
d="M459 1190q-92 0 -160 -100t-68 -254q0 -96 32.5 -153.5t98.5 -57.5q85 0 154.5 94t69.5 256q0 98 -32.5 156.5t-94.5 58.5zM1405 1290l-1243 -1392h-84l1243 1392h84zM350 580q-110 0 -182 79.5t-72 192.5q0 104 54 193.5t139.5 139.5t179.5 50q110 0 181 -80.5
t71 -193.5q0 -152 -113.5 -266.5t-257.5 -114.5zM1139 580q-92 0 -160 -100.5t-68 -254.5q0 -96 32.5 -153.5t98.5 -57.5q85 0 154.5 94.5t69.5 256.5q0 98 -32.5 156.5t-94.5 58.5zM1030 -31q-110 0 -182 80t-72 193q0 104 54 193.5t139.5 139.5t179.5 50q110 0 181 -81
t71 -194q0 -152 -113.5 -266.5t-257.5 -114.5z" />
    <glyph glyph-name="ampersand" unicode="&#x26;" horiz-adv-x="1783" 
d="M1307 924q-39 25 -61.5 37.5t-58 24t-71.5 11.5q-66 0 -106.5 -42t-40.5 -99q0 -21 3.5 -39.5t13 -34.5t16 -26.5t22.5 -23.5t21.5 -17.5t24 -17t20.5 -13.5q-55 -80 -119 -80q-88 0 -88 125q0 66 22.5 133t63 122.5t103 90.5t134.5 35q45 0 89 -14t68.5 -27.5
t78.5 -46.5q28 -17 63 -39t51.5 -32t38 -23t32 -18t24 -10.5t23 -7t20.5 -1.5q34 0 54.5 26.5t20.5 73.5q0 100 -45 193q38 18 74 18q88 -5 88 -86q0 -33 -14 -75.5t-41.5 -86t-63.5 -80.5t-85.5 -60t-102.5 -23q-38 0 -77.5 15t-64.5 30.5t-75 50.5q-10 -147 -39.5 -280
t-87.5 -257t-139 -213.5t-200.5 -143.5t-264.5 -54q-115 0 -212.5 33t-172.5 97.5t-117.5 168t-42.5 235.5t43.5 253.5t111.5 205t152.5 133t165.5 49.5q55 0 93.5 -28.5t49.5 -75.5l353 454l59 -51l-889 -1055q49 -124 163.5 -197t277.5 -73q259 0 434.5 214t214.5 616z
M190 547q0 -69 15 -131l348 422q30 62 2.5 120t-94.5 58q-45 0 -91.5 -30.5t-87 -87t-66.5 -149t-26 -202.5z" />
    <glyph glyph-name="quotesingle" unicode="'" horiz-adv-x="372" 
d="M244 1010l35 479h190l-193 -479h-32z" />
    <glyph glyph-name="parenleft" unicode="(" horiz-adv-x="636" 
d="M432 -369h-47q-238 356 -238 766q0 158 43.5 308.5t126.5 288t185.5 258.5t238.5 247h60q-290 -304 -414.5 -591.5t-124.5 -606.5q0 -190 42.5 -345t127.5 -325z" />
    <glyph glyph-name="parenright" unicode=")" horiz-adv-x="636" 
d="M195 1499h47q237 -355 237 -766q0 -158 -43.5 -308.5t-126.5 -288t-185.5 -258.5t-238.5 -247h-59q290 304 414.5 591.5t124.5 606.5q0 190 -42.5 345t-127.5 325z" />
    <glyph glyph-name="asterisk" unicode="*" horiz-adv-x="745" 
d="M836 1061l-279 -14l29 -281l-23 -4l-102 266l-256 -121l-12 21l213 174l-181 209l17 18l233 -153l139 243l23 -8l-72 -270l273 -56z" />
    <glyph glyph-name="plus" unicode="+" horiz-adv-x="1187" 
d="M1079 442h-444v-442h-82v442h-444v72h444v442h82v-442h444v-72z" />
    <glyph glyph-name="comma" unicode="," horiz-adv-x="456" 
d="M-125 -324l-16 35q133 68 197.5 124.5t64.5 131.5q0 100 -115 125q-10 48 19 88.5t88 40.5t104 -48t45 -124q0 -114 -99.5 -208.5t-287.5 -164.5z" />
    <glyph glyph-name="hyphen" unicode="-" horiz-adv-x="718" 
d="M102 487l27 113h516l-24 -113h-519z" />
    <glyph glyph-name="period" unicode="." horiz-adv-x="403" 
d="M115 -27q-51 0 -86 35t-35 86t35 86t86 35t86 -35t35 -86t-35 -86t-86 -35z" />
    <glyph glyph-name="slash" unicode="/" horiz-adv-x="819" 
d="M-158 -418l-51 29l1098 1917l51 -27z" />
    <glyph glyph-name="zero" unicode="0" horiz-adv-x="1187" 
d="M676 985q-78 0 -154 -44.5t-135.5 -121.5t-98 -188t-42.5 -236q-2 -76 11.5 -141.5t43.5 -120.5t84 -87t127 -32q76 0 150.5 41.5t135 115.5t99.5 187.5t43 245.5q2 66 -11.5 129.5t-42.5 121.5t-83.5 94t-126.5 36zM508 -31q-187 0 -310.5 124t-123.5 341q0 114 46 222
t125 190t194 132t245 50q99 0 181.5 -37.5t136 -101.5t83 -147.5t29.5 -176.5q0 -157 -77 -293t-217.5 -219.5t-311.5 -83.5z" />
    <glyph glyph-name="one" unicode="1" horiz-adv-x="716" 
d="M555 1024l-184 -952l202 -35l-4 -37h-589l6 37l231 35l160 823l-268 -18l4 38l434 109h8z" />
    <glyph glyph-name="two" unicode="2" horiz-adv-x="864" 
d="M444 338l-239 -197h528l-31 -141h-710l14 43l109 96q286 254 382.5 377t96.5 234q0 71 -50 120.5t-120 49.5q-74 0 -130.5 -31t-135.5 -105l-25 21q144 233 342 233q128 0 203.5 -77.5t75.5 -186.5q0 -50 -15 -97t-38 -85t-67 -84t-83.5 -80.5t-106.5 -89.5z" />
    <glyph glyph-name="three" unicode="3" horiz-adv-x="757" 
d="M-82 -463l-14 35q91 37 164 74t145 86.5t120.5 101.5t78.5 118t30 138q0 110 -77 168.5t-193 58.5h-35l4 58l62 37q51 31 78 48t66 43.5t59.5 45t45 45t36.5 50.5t20 54.5t8 63.5q0 70 -46.5 118t-117.5 48q-53 0 -105.5 -28t-123.5 -87l-23 18q89 115 162.5 161
t167.5 46q101 0 171.5 -63.5t70.5 -171.5q0 -173 -234 -307l-145 -84q128 -9 219.5 -92t91.5 -195q0 -195 -158.5 -333t-527.5 -255z" />
    <glyph glyph-name="four" unicode="4" horiz-adv-x="1112" 
d="M512 -332l74 381h-584l8 37l895 934h19l-164 -852h260l-21 -119h-262l-73 -381h-152zM152 168h456l117 596z" />
    <glyph glyph-name="five" unicode="5" horiz-adv-x="747" 
d="M399 133q0 77 -20 146t-86 172t-184 229l176 321l454 15l-30 -144l-449 -12l-37 -69q195 -206 268.5 -335.5t73.5 -287.5q0 -77 -19.5 -145t-51.5 -122t-82.5 -102.5t-103.5 -85t-123 -71.5t-132.5 -60.5t-140.5 -52.5l-14 39q45 20 76.5 34.5t76 38t77 44t71 50
t65.5 58.5t54 67.5t43.5 79t27 90t10.5 103.5z" />
    <glyph glyph-name="six" unicode="6" horiz-adv-x="1050" 
d="M1155 1374q-665 -318 -850 -702h6q144 170 314 170q144 0 241 -100.5t97 -266.5q0 -85 -33 -172t-94 -162.5t-162 -123.5t-223 -48q-73 0 -139.5 25.5t-120 73.5t-85.5 125t-32 172q0 128 40.5 246.5t116 217t173.5 185t221 159t250 130t270 106.5zM575 774
q-95 0 -179 -66.5t-142 -177.5q-23 -90 -23 -174q0 -169 57 -258.5t169 -89.5q140 0 241 132t101 341q0 126 -60 209.5t-164 83.5z" />
    <glyph glyph-name="seven" unicode="7" horiz-adv-x="888" 
d="M68 -416l-76 47l772 1243h-680l29 142h782v-12l-655 -1117z" />
    <glyph glyph-name="eight" unicode="8" horiz-adv-x="968" 
d="M51 258q0 45 13 86.5t31.5 73.5t53.5 66.5t62 56.5t76 52t76.5 45.5t80.5 43.5l-61 63q-71 71 -100 135t-29 148q0 68 31 134.5t84 118.5t129.5 84t160.5 32q89 0 164 -30t122.5 -91.5t47.5 -142.5q0 -52 -20.5 -100t-52 -85t-78 -74t-90.5 -65t-97 -60q-23 -13 -34 -20
l55 -53q47 -47 75 -78.5t58 -74.5t43.5 -88t13.5 -95q0 -101 -67 -188.5t-169.5 -136t-209.5 -48.5q-161 0 -265 82.5t-104 208.5zM545 584l-76 75q-138 -99 -200 -188.5t-62 -212.5q0 -44 14 -85.5t41.5 -78t76.5 -58.5t112 -22q109 0 184.5 72.5t75.5 200.5
q0 72 -40 141.5t-126 155.5zM395 1071q0 -74 37 -132.5t131 -152.5l35 -34q242 188 242 374q0 96 -53.5 159t-145.5 63q-102 0 -174 -72.5t-72 -204.5z" />
    <glyph glyph-name="nine" unicode="9" horiz-adv-x="1064" 
d="M-90 -377q671 281 854 719h-6q-135 -174 -320 -174q-142 0 -239 95t-97 259q0 67 20 136.5t63 136t103 118.5t147 83.5t188 31.5q165 0 266.5 -108t101.5 -293q0 -156 -59 -299t-159.5 -256t-238.5 -208.5t-291.5 -163t-322.5 -112.5zM485 236q104 0 191 71.5t137 194.5
q16 85 16 166q0 149 -55.5 235t-163.5 86q-141 0 -242.5 -132t-101.5 -341q0 -123 59.5 -201.5t159.5 -78.5z" />
    <glyph glyph-name="colon" unicode=":" horiz-adv-x="403" 
d="M115 -27q-51 0 -86 35t-35 86t35 86t86 35t86 -35t35 -86t-35 -86t-86 -35zM254 707q-51 0 -86 34.5t-35 85.5t35 86t86 35t86 -35t35 -86t-35 -85.5t-86 -34.5z" />
    <glyph glyph-name="semicolon" unicode=";" horiz-adv-x="456" 
d="M-115 -324l-16 35q133 68 197.5 124.5t64.5 131.5q0 100 -115 125q-10 48 19 88.5t88 40.5t104 -48t45 -124q0 -114 -99.5 -208.5t-287.5 -164.5zM256 707q-51 0 -86 34.5t-35 85.5t35 86t86 35t86 -35t35 -86t-35 -85.5t-86 -34.5z" />
    <glyph glyph-name="less" unicode="&#x3c;" horiz-adv-x="1187" 
d="M1073 881l-878 -408l878 -405v-78l-967 448v72l967 446v-75z" />
    <glyph glyph-name="equal" unicode="=" horiz-adv-x="1187" 
d="M1079 584h-970v71h970v-71zM1079 295h-970v72h970v-72z" />
    <glyph glyph-name="greater" unicode="&#x3e;" horiz-adv-x="1187" 
d="M115 63l878 408l-878 406v79l966 -448v-72l-966 -446v73z" />
    <glyph glyph-name="question" unicode="?" horiz-adv-x="731" 
d="M268 1221l31 180l59 -29q165 -80 265 -209.5t100 -275.5q0 -121 -60.5 -189.5t-207.5 -89.5l-181 -24l-63 -205h-41l47 340l272 37q97 14 139 47.5t42 99.5q0 57 -30.5 105.5t-85 84.5t-107.5 60.5t-119 46.5zM27 94q0 51 34.5 86t85.5 35t86 -35t35 -86t-35 -86t-86 -35
t-85.5 35t-34.5 86z" />
    <glyph glyph-name="at" unicode="@" horiz-adv-x="1857" 
d="M1024 301l35 119h-10l-64 -98q-43 -66 -95 -127t-125 -113.5t-134 -52.5q-74 0 -115 50t-41 116q0 119 44.5 239t116.5 214t157.5 168.5t172 114.5t156.5 40q80 0 158 -53l49 73h55l-215 -712q-32 -92 -14.5 -146.5t86.5 -54.5q42 0 94 18.5t111 63.5t107 110t80 169
t32 229q0 166 -78 305.5t-218.5 222t-313.5 82.5q-235 0 -426.5 -109.5t-301.5 -306t-110 -442.5q0 -164 50 -298t140.5 -223.5t216 -137.5t275.5 -48q25 0 48.5 1t45.5 4t40.5 5.5t38 7l32.5 7.5t30.5 8t25 7.5l22.5 7.5l18 6v-27q-35 -22 -143 -52t-217 -30
q-177 0 -321.5 51.5t-242 145.5t-150 227t-52.5 293q0 193 88 373.5t231.5 310.5t332.5 208.5t384 78.5q160 0 289 -52t211 -141t126 -205.5t44 -249.5q0 -111 -27.5 -208.5t-74.5 -168.5t-107 -127.5t-126.5 -90.5t-131 -52t-123.5 -18q-105 0 -153 74t-13 194zM713 139
q63 0 159.5 106.5t174.5 238.5t108 225l45 137q-62 69 -121 69q-83 0 -164.5 -66.5t-139.5 -167t-94 -219.5t-36 -222q0 -47 18 -74t50 -27z" />
    <glyph glyph-name="A" unicode="A" horiz-adv-x="1275" 
d="M-102 0l8 39l127 35l696 1282l64 12l69 10l191 -1306l121 -37l-7 -35h-475l8 37l187 35l-60 415h-487l-211 -409l190 -39l-8 -39h-413zM721 1223l-340 -658h436l-92 658h-4z" />
    <glyph glyph-name="B" unicode="B" horiz-adv-x="1134" 
d="M457 -4l-531 4l8 37l175 35l239 1216l-162 37l7 35h374q130 0 230.5 -24t160 -64.5t89.5 -90.5t30 -106q0 -64 -25 -118.5t-65.5 -93t-97 -68.5t-116 -48t-126.5 -28v-6q105 -6 195 -44.5t148.5 -110t58.5 -161.5q0 -182 -159 -293t-433 -108zM866 379q0 89 -37 153
t-103.5 98.5t-149 47.5t-181.5 8l-116 -602q118 -43 241 -43q149 0 247.5 85.5t98.5 252.5zM520 1319l-112 -576l127 5q167 5 269.5 86t102.5 215q0 130 -105.5 204.5t-281.5 65.5z" />
    <glyph glyph-name="C" unicode="C" horiz-adv-x="1368" 
d="M676 -33q-262 0 -423 159t-161 435q0 91 25 186t72.5 187.5t122.5 174.5t167.5 144.5t214.5 99t258 36.5q90 0 175 -20.5t130 -41t115 -57.5l-55 -361h-33l-49 305q-127 123 -291 123q-77 0 -156.5 -24.5t-154.5 -70t-140.5 -116t-114.5 -157t-77.5 -199.5t-28.5 -238
q0 -244 121 -376.5t305 -132.5q168 0 318 104l186 328h35l-104 -387q-80 -32 -120 -46.5t-139 -34.5t-198 -20z" />
    <glyph glyph-name="D" unicode="D" horiz-adv-x="1404" 
d="M520 1315l-237 -1217q37 -21 94 -35t115 -14q140 0 258 43.5t198 115t135.5 166.5t81 196.5t25.5 205.5q0 261 -162 403.5t-508 135.5zM-74 0l8 37l175 35l239 1216l-162 37l7 35h440q342 0 541.5 -147.5t199.5 -417.5q0 -100 -24 -195t-72 -185.5t-126.5 -165.5
t-180.5 -132t-242 -88t-303 -31z" />
    <glyph glyph-name="E" unicode="E" horiz-adv-x="1128" 
d="M696 678h-301l-114 -586q18 -20 46.5 -28.5t84.5 -8.5h366l226 340h38l-135 -395h-977l9 37l174 35l235 1216l-162 37l7 35h811l122 10l-51 -387h-33l-57 322h-467l-110 -564h301l106 220h35l-96 -490h-35z" />
    <glyph glyph-name="F" unicode="F" horiz-adv-x="1056" 
d="M692 657h-301l-115 -585l179 -35l-6 -37h-519l9 37l174 35l235 1216l-162 37l7 35h811l122 10l-61 -403h-35l-45 338h-467l-117 -584h304l106 219h35l-96 -489h-35z" />
    <glyph glyph-name="G" unicode="G" horiz-adv-x="1388" 
d="M262 532q0 -232 124 -374t302 -142q123 0 205 51t102 146l60 295l-211 37l6 35h512l-4 -35l-135 -37l-80 -406q-217 -139 -475 -139q-118 0 -223.5 44t-183.5 120t-123.5 185t-45.5 233q0 127 39 251t115 230.5t178.5 188t240 128t289.5 46.5q88 0 169 -19t129 -40
t118 -58l-72 -350h-38l-31 307q-116 108 -291 108q-120 0 -240.5 -60.5t-217 -163.5t-157.5 -256.5t-61 -324.5z" />
    <glyph glyph-name="H" unicode="H" horiz-adv-x="1388" 
d="M752 0l8 37l176 35l121 616h-660l-121 -616l160 -35l-6 -37h-504l8 37l175 35l239 1216l-162 37l7 35h505l-6 -35l-176 -37l-106 -538h659l107 538l-162 37l6 35h504l-6 -35l-175 -37l-239 -1216l158 -35l-7 -37h-503z" />
    <glyph glyph-name="I" unicode="I" horiz-adv-x="561" 
d="M-74 0l8 37l175 35l239 1216l-162 37l7 35h503l-6 -35l-174 -37l-240 -1216l158 -35l-6 -37h-502z" />
    <glyph glyph-name="J" unicode="J" horiz-adv-x="579" 
d="M535 1288l-240 -1218q-13 -68 -26.5 -117.5t-34 -101.5t-46 -89t-62.5 -72.5t-85 -61t-111.5 -46t-142.5 -33.5l-10 39q161 60 234 157.5t110 291.5l246 1251l-162 37l6 35h504l-6 -35z" />
    <glyph glyph-name="K" unicode="K" horiz-adv-x="1257" 
d="M-74 0l8 37l175 35l239 1216l-162 37l7 35h505l-6 -35l-176 -37l-240 -1216l160 -35l-6 -37h-504zM1192 35l-6 -35q-144 -15 -206 -1q-87 19 -170.5 112.5t-265.5 387.5l-134 218v4l688 561l-160 43l6 35h438l-6 -35l-176 -43l-643 -508q76 -119 120 -188t97.5 -149.5
t80 -120.5t63.5 -89t53.5 -68t45 -45.5t41.5 -33.5t40 -19t44 -15.5t50 -10.5z" />
    <glyph glyph-name="L" unicode="L" horiz-adv-x="1093" 
d="M276 92q17 -19 44 -28t83 -9h345l247 367h39l-147 -422h-961l8 37l175 35l239 1216l-162 37l7 35h505l-6 -35l-176 -37z" />
    <glyph glyph-name="M" unicode="M" horiz-adv-x="1683" 
d="M-88 0l8 37l174 35l299 1216l-162 37l7 35h356l209 -1069l608 1028l16 41h338l-6 -35l-174 -37l-182 -1216l158 -35l-7 -37h-501l8 37l176 35l170 1122l-621 -1047l-51 -96h-47l-12 96l-230 1104l-266 -1179l160 -35l-6 -37h-422z" />
    <glyph glyph-name="N" unicode="N" horiz-adv-x="1376" 
d="M1069 -29h-29l-649 1211l-209 -1108l160 -37l-6 -37h-408l9 37l174 37l231 1175q-34 45 -100 62l-60 14l6 35h293l572 -1067l186 991l-162 41l6 35h410l-6 -35l-174 -41l-203 -1036z" />
    <glyph glyph-name="O" unicode="O" horiz-adv-x="1490" 
d="M891 1389q167 0 298 -79.5t201 -211.5t70 -291q0 -164 -62 -318.5t-167 -271.5t-254.5 -187.5t-314.5 -70.5q-160 0 -290.5 76.5t-205 210.5t-74.5 299q0 164 62 318t167.5 270t255 186t314.5 70zM1284 856q0 208 -104.5 343.5t-292.5 135.5q-121 0 -235.5 -70.5
t-198 -186t-134.5 -270.5t-51 -316q0 -208 105 -344t293 -136q163 0 307 122.5t227.5 317.5t83.5 404z" />
    <glyph glyph-name="P" unicode="P" horiz-adv-x="1087" 
d="M463 645l8 43q99 0 183.5 19.5t151.5 59t105.5 105.5t38.5 152q0 131 -111 214t-311 83l-245 -1249l200 -35l-6 -37h-545l9 37l174 35l239 1216l-161 37l6 35h454q125 -2 229 -36.5t173 -108.5t69 -177q0 -131 -91 -227t-241 -138.5t-329 -27.5z" />
    <glyph glyph-name="Q" unicode="Q" horiz-adv-x="1490" 
d="M891 1389q167 0 298 -79.5t201 -211.5t70 -291q0 -156 -58.5 -304t-156.5 -261.5t-235 -187.5t-287 -87q19 -14 77 -59t76.5 -59t67.5 -50t70.5 -48.5t63.5 -38.5t68 -35t62.5 -22t69.5 -17.5t68 -4.5q178 0 380 136l17 -21q-107 -92 -170 -131q-143 -90 -283 -90
q-71 0 -138 14t-135 46t-125.5 67t-133.5 96t-134 111.5t-149 134.5q-169 59 -276 207.5t-107 341.5q0 164 62 318t167.5 270t255 186t314.5 70zM1284 860q0 134 -44 240t-135.5 170.5t-217.5 64.5q-161 0 -305 -119t-229 -312.5t-85 -405.5q0 -139 44.5 -248t136 -174.5
t217.5 -65.5q163 0 307 123.5t227.5 320t83.5 406.5z" />
    <glyph glyph-name="R" unicode="R" horiz-adv-x="1214" 
d="M-74 0l8 37l175 35l239 1216l-162 37l7 35h464q194 0 314.5 -80t120.5 -217q0 -68 -24 -125.5t-61 -97t-89 -71t-101.5 -50.5t-105.5 -33q41 -100 65 -159t54 -127t46 -103t40 -77t36 -60t35 -42t36.5 -32t40 -20.5t46.5 -18t55 -14.5l-6 -33q-73 -7 -109 -10t-83.5 3.5
t-68.5 16.5t-56.5 43.5t-54.5 69.5t-55.5 109t-67 148t-81.5 200q-6 15 -9.5 23.5t-8.5 21.5t-10 24h-166l-113 -577l189 -39l-6 -33h-533zM520 1319l-121 -617q247 -13 384 80.5t137 255.5q0 129 -99.5 208.5t-300.5 72.5z" />
    <glyph glyph-name="S" unicode="S" horiz-adv-x="983" 
d="M92 459h31l22 -324q58 -51 119 -79.5t144 -28.5q86 0 159.5 32t121.5 98.5t48 155.5q0 88 -51.5 158t-161.5 143l-71 48q-136 91 -187 159.5t-51 173.5q0 103 67 194t182.5 145.5t248.5 54.5q124 0 299 -66l-74 -360h-33l-12 288q-109 78 -231 78q-132 0 -213.5 -75
t-81.5 -185q0 -63 21.5 -109t57.5 -78.5t107 -80.5l51 -33q158 -104 226.5 -185.5t68.5 -185.5q0 -115 -72 -214.5t-191.5 -156.5t-254.5 -57q-92 0 -190 30t-168 67z" />
    <glyph glyph-name="T" unicode="T" horiz-adv-x="1232" 
d="M350 1360h869l120 12l-98 -389h-35l-2 322h-352l-244 -1233l180 -35l-6 -37h-544l8 37l194 35l244 1233h-336l-149 -322h-35l63 389z" />
    <glyph glyph-name="U" unicode="U" horiz-adv-x="1308" 
d="M584 -29q-93 0 -168.5 21.5t-136.5 68t-94.5 120.5t-42 178.5t21.5 242.5l141 686l-135 37l6 35h479l-6 -35l-176 -37l-151 -735q-24 -125 -11.5 -216t58 -150t111.5 -88t151 -29q183 0 300 115.5t167 383.5l137 715l-160 41l6 35h383l-6 -35l-149 -43l-152 -758
q-50 -258 -192.5 -405.5t-380.5 -147.5z" />
    <glyph glyph-name="V" unicode="V" horiz-adv-x="1150" 
d="M426 -23l-217 1315l-115 33l6 35h459l-6 -35l-176 -37l166 -1075h8l604 1075l-164 37l6 35h373l-8 -35l-127 -39l-756 -1309h-53z" />
    <glyph glyph-name="W" unicode="W" horiz-adv-x="1683" 
d="M1049 -12l-129 989l-517 -989h-69l-125 1304l-115 33l6 35h457l-6 -35l-176 -37l92 -1061l438 850l-26 215l-142 33l6 35h482l-6 -35l-179 -37l131 -1077l492 1077l-164 37l6 35h383l-8 -35l-127 -39l-631 -1298h-73z" />
    <glyph glyph-name="X" unicode="X" horiz-adv-x="1308" 
d="M-66 37l140 33l547 610l-259 608l-137 37l6 35h490l-6 -35l-176 -37l206 -500h5l421 500l-157 37l8 35h405l-6 -35l-155 -39l-492 -561l279 -653l131 -35l-8 -37h-486l8 37l181 35l-230 544h-4l-469 -544l158 -35l-6 -37h-402z" />
    <glyph glyph-name="Y" unicode="Y" horiz-adv-x="1212" 
d="M1231 1286l-506 -680l-107 -534l158 -35l-6 -37h-502l8 37l175 35l104 522l-272 698l-115 33l6 35h465l-6 -35l-176 -37l231 -626h6l451 626l-164 37l6 35h379l-8 -35z" />
    <glyph glyph-name="Z" unicode="Z" horiz-adv-x="1216" 
d="M-16 0l4 27l1044 1276h-635l-174 -363h-35l74 432l144 -12h849v-14l-1056 -1289h694l221 365h39l-133 -434l-131 12h-905z" />
    <glyph glyph-name="bracketleft" unicode="[" horiz-adv-x="595" 
d="M389 -371h-338l371 1872h336l-10 -51h-201l-346 -1769h200z" />
    <glyph glyph-name="backslash" unicode="\" horiz-adv-x="841" 
d="M721 -408l-57 -12l-414 1933l55 15z" />
    <glyph glyph-name="bracketright" unicode="]" horiz-adv-x="595" 
d="M221 1501h338l-371 -1872h-335l10 52h200l349 1769h-201z" />
    <glyph glyph-name="asciicircum" unicode="^" horiz-adv-x="821" 
d="M276 993h-63l387 555h37l186 -555h-53l-176 422z" />
    <glyph glyph-name="underscore" unicode="_" horiz-adv-x="811" 
d="M-158 -408l17 70h784l-14 -70h-787z" />
    <glyph glyph-name="grave" unicode="`" horiz-adv-x="481" 
d="M236 1540h139l57 -426h-45l-151 404v22z" />
    <glyph glyph-name="a" unicode="a" horiz-adv-x="966" 
d="M870 1032h62l-254 -913h6q51 38 108 99t101 122l29 -16q-82 -141 -178.5 -244t-159.5 -103q-24 0 -41 13.5t-24.5 46.5t11.5 90l95 305h-9q-129 -202 -195 -283q-145 -176 -267 -176q-72 0 -114 50.5t-36 148.5q8 130 58 254.5t123.5 218t158.5 165.5t165.5 109t141.5 37
q89 0 150 -38zM233 84q47 0 120 70.5t140.5 167t122.5 194.5t74 156l49 149q-57 78 -125 78q-95 0 -195 -103.5t-168 -267.5t-77 -329q-5 -115 59 -115z" />
    <glyph glyph-name="b" unicode="b" horiz-adv-x="907" 
d="M272 -29q-65 0 -131.5 35.5t-117.5 106.5l-11 14l330 1241l-125 84l4 14l311 62l-253 -963h12q236 412 454 412q75 0 115 -65.5t37 -176.5q-2 -88 -36.5 -193t-95 -205t-136 -182.5t-170 -133t-187.5 -50.5zM219 317l-53 -180q18 -46 57 -80t99 -34q90 0 182 104
t151.5 258t67.5 301q5 83 -15.5 128.5t-62.5 45.5q-54 0 -123 -60t-128.5 -146.5t-107 -178t-67.5 -158.5z" />
    <glyph glyph-name="c" unicode="c" horiz-adv-x="749" 
d="M510 891q-68 0 -145.5 -98t-129 -243.5t-51.5 -273.5q0 -87 37.5 -136.5t97.5 -49.5q45 0 87 19t84 59t74.5 78.5t78.5 101.5l35 -20q-34 -59 -63 -103t-72 -95t-85.5 -83.5t-98 -54t-115.5 -21.5q-102 0 -163 74.5t-61 187.5q0 167 94 343.5t255 302.5q128 100 272 100
q64 0 110 -32t46 -73q0 -22 -17 -54t-35 -48q-50 52 -113 85.5t-122 33.5z" />
    <glyph glyph-name="d" unicode="d" horiz-adv-x="993" 
d="M618 979q90 0 162 -39l111 428l-152 84l4 14l338 62l-370 -1409h6q51 38 108 99t101 122l28 -16q-81 -139 -178.5 -243t-157.5 -104q-25 0 -42 13.5t-24.5 46.5t11.5 90l90 301h-8q-35 -57 -62.5 -99t-83 -115t-103 -120t-108.5 -84t-114 -37q-73 0 -124 58t-44 178
q6 106 40.5 217t92.5 209t131 175.5t164 123t184 45.5zM717 692l28 115q-24 51 -66 83t-91 32q-96 0 -188.5 -98t-152 -256.5t-67.5 -327.5q-6 -83 17 -121.5t59 -38.5q56 0 153 98.5t186 244.5t122 269z" />
    <glyph glyph-name="e" unicode="e" horiz-adv-x="739" 
d="M248 -29q-112 0 -172 75.5t-60 199.5q0 151 94 319.5t226 280.5q155 131 295 131q69 0 105 -32.5t36 -90.5q0 -80 -89 -160t-217 -135t-261 -78q-27 -111 -27 -205q0 -82 39 -136t113 -54q64 0 136.5 55.5t133.5 157.5l37 -14q-64 -137 -163 -225.5t-226 -88.5zM549 907
q-80 0 -179 -109t-151 -270q86 18 175 63t154.5 113t65.5 136q0 34 -18 50.5t-47 16.5z" />
    <glyph glyph-name="f" unicode="f" horiz-adv-x="557" 
d="M74 870l14 78h166q40 136 132 269.5t207.5 219t213.5 85.5q69 0 120.5 -30t51.5 -75q0 -25 -16.5 -55.5t-34.5 -48.5q-64 53 -116.5 79.5t-113.5 26.5q-26 0 -50.5 -9t-58.5 -39t-64 -79t-62 -137.5t-57 -206.5h266l-19 -78h-264l-139 -692q-73 -365 -193 -544t-270 -179
q-54 0 -100.5 32t-46.5 83q0 22 12 44t19.5 30t29.5 30q55 -81 91 -114t71 -33q26 0 45.5 15.5t39.5 54t42 117.5t48 191.5t62 291.5l136 673h-162z" />
    <glyph glyph-name="g" unicode="g" horiz-adv-x="806" 
d="M524 977q32 0 65.5 -10t47.5 -21l287 27l-27 -113l-199 21l2 -9q39 -76 39 -172q0 -84 -33 -166.5t-89 -146.5t-137.5 -105t-170.5 -42q-35 -19 -55.5 -45.5t-20.5 -53.5q0 -29 21 -47l307 -168q94 -51 124 -92.5t30 -85.5q0 -68 -66.5 -132t-186 -106t-257.5 -42
q-184 0 -287.5 43.5t-103.5 132.5q0 48 33 91t92 78.5t132 63.5t162 51v2l-51 27q-80 44 -80 121q0 93 136 166v6q-52 17 -88 64t-50 98t-14 102q0 82 32 164.5t88 149t139.5 108t178.5 41.5zM512 928q-67 0 -133.5 -72.5t-108.5 -181t-47 -213.5q-11 -172 88 -172
q68 0 135 74.5t109.5 182.5t46.5 208q3 88 -16.5 131t-73.5 43zM418 -170l-142 76q-162 -56 -229 -102.5t-67 -112.5q0 -71 81 -116.5t246 -45.5q119 0 195.5 46.5t79.5 105.5q2 33 -31 64t-133 85z" />
    <glyph glyph-name="h" unicode="h" horiz-adv-x="954" 
d="M543 1528l-260 -983h12q49 86 102 159t113 136.5t125 100t125 36.5q72 0 99.5 -49.5t6.5 -124.5l-190 -684h6q108 80 209 221l29 -16q-81 -140 -178.5 -243.5t-159.5 -103.5q-38 0 -58.5 32t-1.5 95l199 695q6 28 -4.5 45.5t-36.5 17.5q-50 0 -117.5 -53t-136.5 -142.5
t-134 -221t-106 -275.5l-45 -160l-123 -35l-28 25l362 1368l-125 84l4 14z" />
    <glyph glyph-name="i" unicode="i" horiz-adv-x="473" 
d="M254 852q-25 10 -67.5 11t-98.5 -13v22q114 105 207 105q62 0 87.5 -44t4.5 -120l-194 -694h6q46 32 111 100t98 121l28 -16q-79 -136 -176.5 -241.5t-161.5 -105.5q-44 0 -60 36t1 93zM276 1321q0 40 29.5 69t69.5 29t69 -29t29 -69t-29 -69t-69 -29t-69.5 29t-29.5 69z
" />
    <glyph glyph-name="j" unicode="j" horiz-adv-x="450" 
d="M2 -203l254 1055q-25 10 -67.5 11t-98.5 -13v22q114 105 207 105q62 0 86.5 -43t5.5 -121l-211 -893q-13 -57 -39.5 -118t-66.5 -121.5t-87 -108.5t-106 -77.5t-119 -29.5q-54 0 -100.5 32t-46.5 83q0 23 12 45.5t19 29.5l30 30q55 -81 91.5 -114.5t72.5 -33.5
q50 0 90 60.5t74 199.5zM276 1321q0 40 29.5 69t69.5 29t69 -29t29 -69t-29 -69t-69 -29t-69.5 29t-29.5 69z" />
    <glyph glyph-name="k" unicode="k" horiz-adv-x="864" 
d="M678 -68q-85 0 -154 86l-278 342q-38 -105 -53 -161l-52 -189l-123 -35l-28 25l362 1368l-125 84l4 14l312 62l-260 -983h10q219 432 450 432q58 0 98 -37t40 -98q0 -118 -118.5 -219t-377.5 -228l381 -432v-6q-31 -25 -88 -25zM664 860q-63 0 -141 -69.5t-148 -179.5
t-123 -238q237 114 359 213t122 196q0 78 -69 78z" />
    <glyph glyph-name="l" unicode="l" horiz-adv-x="485" 
d="M434 324q-70 -126 -172 -236.5t-166 -110.5q-44 0 -59.5 35t0.5 92l336 1264l-125 84l4 14l311 62l-373 -1409h7q110 80 209 221z" />
    <glyph glyph-name="m" unicode="m" horiz-adv-x="1476" 
d="M8 0l248 852q-26 11 -77 10.5t-89 -12.5v20q46 46 105.5 76.5t113.5 30.5q56 0 82.5 -42.5t7.5 -103.5l-84 -280h9q106 189 224 307.5t234 118.5q47 0 76 -21.5t37.5 -69t-16.5 -122.5l-68 -213h8q109 188 229.5 307t233.5 119q74 0 101 -50t6 -124l-191 -684h6
q51 38 108 99t101 122l29 -16q-82 -141 -178.5 -244t-159.5 -103q-38 0 -58.5 32t-1.5 95l199 695q6 28 -4.5 45.5t-36.5 17.5q-102 0 -252 -192t-233 -473l-53 -187l-125 -37l-27 25l231 801q10 63 -41 63q-38 0 -87.5 -30.5t-104.5 -89.5t-108 -138.5t-102 -186
t-83 -222.5l-53 -185l-127 -35z" />
    <glyph glyph-name="n" unicode="n" horiz-adv-x="976" 
d="M8 0l248 852q-26 11 -77 10.5t-89 -12.5v20q46 46 105.5 76.5t113.5 30.5q56 0 82.5 -42.5t7.5 -103.5l-84 -280h9q67 120 139 212t157 153t162 61q72 0 100 -50t7 -124l-191 -684h7q103 76 208 221l29 -16q-82 -141 -178.5 -244t-159.5 -103q-37 0 -57.5 32t-1.5 95
l198 695q6 28 -4.5 45.5t-36.5 17.5q-47 0 -112.5 -49t-133 -133t-132.5 -212.5t-107 -272.5l-53 -185l-127 -35z" />
    <glyph glyph-name="o" unicode="o" horiz-adv-x="880" 
d="M561 936q-99 0 -188.5 -119t-139 -284.5t-49.5 -315.5q0 -205 117 -205q77 0 151 73t125.5 181t83 232t31.5 227q0 91 -34 151t-97 60zM571 977q72 0 125.5 -24.5t85 -69.5t47 -103t15.5 -131q0 -85 -23.5 -177.5t-71.5 -181.5t-112 -160.5t-152.5 -115t-185.5 -43.5
q-132 0 -199 95t-67 251q0 78 22.5 166.5t68.5 176.5t108.5 158.5t151 114.5t187.5 44z" />
    <glyph glyph-name="p" unicode="p" horiz-adv-x="909" 
d="M-80 -428l307 1208q-49 -30 -180 -114l-12 24q120 101 209 156l47 182h117l-27 -108q130 55 229 55q124 0 198.5 -69t74.5 -191q0 -130 -52 -265.5t-133.5 -239.5t-188.5 -170.5t-210 -66.5q-66 0 -123 31l-110 -440l260 -25l-11 -45h-548l8 27zM334 23q87 0 177.5 99.5
t148 250.5t57.5 293q0 112 -55 167.5t-144 55.5q-55 0 -125 -25l-190 -755q46 -86 131 -86z" />
    <glyph glyph-name="q" unicode="q" horiz-adv-x="923" 
d="M424 -432l154 639q15 60 31.5 115.5t26.5 80.5l9 25h-12q-28 -50 -57 -96t-80 -116t-98.5 -119.5t-106.5 -86.5t-111 -37q-70 0 -122 52.5t-52 156.5q0 127 53.5 270t137 258.5t194.5 192t217 76.5q104 0 189 -59l22 88h115l-367 -1444l183 -15l-11 -55h-501l6 31z
M262 78q53 0 146.5 99t179.5 245.5t119 269.5l28 115q-65 117 -157 117q-90 0 -185 -108.5t-157 -276.5t-62 -328q0 -67 24.5 -100t63.5 -33z" />
    <glyph glyph-name="r" unicode="r" horiz-adv-x="716" 
d="M10 0l70 240q54 184 97 337t59 214l16 61q-26 11 -77 10.5t-89 -12.5v20q46 46 105.5 76.5t113.5 30.5q63 0 85.5 -46.5t-1.5 -117.5l-110 -350h16q74 157 135.5 261.5t111 158t88 74t79.5 20.5t65.5 -23.5t24.5 -62.5q0 -43 -31 -93.5t-74 -88.5h-35q45 139 -30 139
q-46 0 -124.5 -103t-153.5 -251t-120 -283l-65 -201l-127 -35z" />
    <glyph glyph-name="s" unicode="s" horiz-adv-x="602" 
d="M500 258q0 -60 -48 -126.5t-129 -113.5t-165 -47q-95 0 -149 45.5t-52 98.5q0 30 14.5 60t30.5 42h2q47 -69 113.5 -115.5t132.5 -46.5q52 0 84.5 34.5t32.5 82.5q0 25 -12.5 56t-21 46t-34.5 56l-86 145q-71 120 -81 147q-11 29 -11 64q0 57 37.5 112.5t92 93.5
t115 61.5t107.5 23.5q80 0 114 -32t34 -81q0 -50 -39 -98h-4q-57 62 -105 93.5t-102 31.5q-47 0 -83 -34t-36 -85q0 -32 10 -57.5t47 -87.5l107 -174q38 -61 50.5 -83t23 -52t10.5 -60z" />
    <glyph glyph-name="t" unicode="t" horiz-adv-x="604" 
d="M72 870l8 45l178 33l123 281h80l-62 -281h289l-16 -78h-291l-199 -751h4q54 20 138 94.5t161 171.5l31 -23q-92 -147 -213 -266t-213 -119q-37 0 -56.5 31t-10.5 70l210 792h-161z" />
    <glyph glyph-name="u" unicode="u" horiz-adv-x="991" 
d="M55 129l195 723q-26 11 -77 10.5t-89 -12.5v20q46 46 105.5 76.5t113.5 30.5q59 0 79.5 -46t2.5 -114l-178 -672q-3 -24 9 -40.5t38 -16.5q64 0 168 115t193 273.5t120 281.5l49 190l136 13l14 -17l-219 -825h6q46 33 107.5 98t101.5 123l28 -16q-79 -137 -175.5 -242
t-161.5 -105q-37 0 -58 30t-4 91l105 373h-9q-37 -69 -65 -118.5t-68 -112.5t-77.5 -106t-81 -82.5t-90.5 -59t-95 -19.5q-62 0 -101.5 42.5t-21.5 113.5z" />
    <glyph glyph-name="v" unicode="v" horiz-adv-x="813" 
d="M344 834l-2 -691h6q152 195 233.5 318t105.5 184t24 115q0 52 -32.5 82t-84.5 30t-109 -20v22q109 103 201 103q60 0 97.5 -38t37.5 -97q0 -67 -24.5 -132.5t-99 -176.5t-218.5 -289l-221 -273h-18l-37 23l-13 856q-30 12 -73 12q-46 0 -84 -10v22q109 103 209 103
q53 0 76.5 -35.5t25.5 -107.5z" />
    <glyph glyph-name="w" unicode="w" horiz-adv-x="1261" 
d="M791 807l6 -655h6q202 256 279 392.5t77 215.5q0 52 -32.5 82t-84.5 30q-50 0 -108 -20v22q109 103 201 103q60 0 97.5 -37.5t37.5 -97.5q0 -94 -65.5 -208t-276.5 -390l-209 -273h-17l-53 23l6 498h-6q-36 -51 -134 -182t-157 -216l-84 -123h-18l-57 23l-2 854
q-37 14 -82 14q-48 0 -82 -10v22q115 103 209 103q59 0 84 -36.5t24 -129.5l-8 -661h6q230 316 303 432l-4 258q-26 26 -80 26q-33 0 -84 -14v22q112 103 209 103q52 0 75 -38.5t24 -131.5z" />
    <glyph glyph-name="x" unicode="x" horiz-adv-x="888" 
d="M516 -23q-62 0 -76 80l-61 316l-82 -125q-112 -169 -168.5 -222t-122.5 -53q-39 0 -69.5 25.5t-30.5 71.5q0 37 39 90l26 -25q39 -36 68 -44t67.5 18t80 78t114.5 157l66 94l-60 314q-10 52 -23.5 76t-41.5 24q-81 0 -133 -227h-37q20 155 87.5 253.5t153.5 98.5
q62 0 93.5 -41.5t46.5 -134.5l34 -205l138 227q52 85 93.5 119.5t96.5 34.5q48 0 74 -23t26 -61q0 -36 -19.5 -72t-38.5 -55.5t-48 -44.5h-39q23 32 29 66.5t-4.5 56.5t-32.5 22q-23 0 -53 -32.5t-95 -131.5l-114 -172l75 -430h5q47 17 120 93t125 147l29 -16
q-82 -141 -178.5 -244t-159.5 -103z" />
    <glyph glyph-name="y" unicode="y" horiz-adv-x="890" 
d="M61 625h-36q15 154 81.5 253.5t155.5 98.5q97 -2 154 -127.5t57 -341.5q0 -304 -92 -576h10q165 186 263 385.5t98 378.5q0 135 -88 252q51 31 106 31q41 0 68 -35.5t26 -114.5q-1 -119 -37.5 -247t-97 -243.5t-139.5 -228.5t-166.5 -208t-177.5 -176.5t-171.5 -137.5
t-150 -88t-112.5 -32q-45 0 -74 26t-29 70q0 43 26.5 71.5t67.5 28.5q90 0 113 -110h4q107 40 188 142.5t126 235.5t66.5 268t21.5 267q0 102 -10.5 179t-29 120t-39.5 63.5t-44 20.5q-46 0 -76 -51t-62 -174z" />
    <glyph glyph-name="z" unicode="z" horiz-adv-x="815" 
d="M813 983l53 -45l-684 -721l283 -106q33 -13 59 -14.5t50.5 9.5t44.5 28t48.5 49t54.5 65q5 7 9 12l8 10l33 -18q-45 -71 -66 -103t-55.5 -77.5t-59 -65t-57 -34.5t-67.5 -15q-39 0 -115 31l-278 110l-109 -139l-59 45l704 744l-278 106q-105 41 -137 2q-42 -51 75 -156
q-30 -35 -54.5 -50t-57.5 -15t-56.5 24t-23.5 66q1 57 47 118t113.5 100.5t128.5 39.5t141 -29l213 -88z" />
    <glyph glyph-name="braceleft" unicode="{" horiz-adv-x="667" 
d="M258 594l-2 -8q31 -12 52.5 -26t41 -37.5t28 -55t8.5 -78t-11 -106.5l-64 -340q-14 -74 -15.5 -124.5t7.5 -82t32.5 -48.5t52.5 -22.5t75 -5.5l-4 -31h-33q-200 0 -253.5 88t9.5 299l105 365q26 89 -16.5 134.5t-123.5 47.5l-73 2l12 60l72 2q93 1 141 38t57 111l52 414
q9 72 32.5 126.5t67.5 97.5t116 65t171 22h26l-6 -31q-58 0 -94 -9t-69.5 -38t-56 -85.5t-40.5 -149.5l-63 -320q-24 -122 -85 -191t-149 -83z" />
    <glyph glyph-name="bar" unicode="|" horiz-adv-x="487" 
d="M100 -410h-71l383 1911h67z" />
    <glyph glyph-name="braceright" unicode="}" horiz-adv-x="657" 
d="M422 537l2 8q-31 12 -52.5 26t-41 37.5t-28 55t-8.5 78t11 106.5l64 340q14 74 15.5 124.5t-7.5 82t-32.5 48t-52.5 22t-75 5.5l4 31h33q200 0 252.5 -88t-8.5 -297l-105 -366q-26 -89 16 -135t123 -48l74 -2l-12 -59l-72 -2q-93 -1 -141 -38.5t-57 -111.5l-52 -413
q-9 -72 -32.5 -126.5t-67.5 -97.5t-116 -65.5t-171 -22.5h-26l6 31q58 0 94 9t69.5 38.5t56 86t40.5 149.5l63 319q24 122 85 191.5t149 83.5z" />
    <glyph glyph-name="asciitilde" unicode="~" horiz-adv-x="944" 
d="M98 393l-35 13l9 20q121 302 381 203l157 -60q63 -23 108.5 -26.5t78.5 14t55.5 45.5t46.5 76l35 -12l-8 -21q-120 -303 -381 -203l-133 52q-83 37 -143 34t-99 -35t-72 -100z" />
    <glyph glyph-name="uni00A0" unicode="&#xa0;" horiz-adv-x="348" 
 />
    <glyph glyph-name="exclamdown" unicode="&#xa1;" horiz-adv-x="462" 
d="M170 -274h-176l274 1034h41zM338 1165q51 0 86 -35t35 -86t-35 -85.5t-86 -34.5t-86 34.5t-35 85.5t35 86t86 35z" />
    <glyph glyph-name="cent" unicode="&#xa2;" horiz-adv-x="780" 
d="M258 -244l45 221q-27 -6 -59 -6q-104 0 -162.5 76.5t-58.5 188.5q0 167 92.5 342.5t257.5 302.5q56 44 137 73l55 256h58l-52 -241q33 8 78 8q61 0 106.5 -28.5t45.5 -74.5q0 -20 -12.5 -46t-24.5 -42l-12 -16q-37 47 -94.5 85t-100.5 44l-172 -807q16 5 31 12t31.5 19.5
t28.5 21t30 28t26.5 28.5t29 34.5t27 34t29.5 39t29 37.5l33 -18q-37 -63 -65 -105t-68.5 -92.5t-86.5 -85t-98 -53.5l-49 -236h-55zM184 283q-1 -102 39.5 -151.5t98.5 -49.5h4l172 811q-76 -24 -148.5 -123t-118 -232.5t-47.5 -254.5z" />
    <glyph glyph-name="sterling" unicode="&#xa3;" horiz-adv-x="1112" 
d="M150 545l10 53h243l56 219q33 132 94 237t129.5 164t132.5 89t117 30q72 0 129 -42t57 -101q0 -72 -114 -107q-39 189 -142 189q-126 0 -192 -264l-103 -414h359l-13 -53h-360l-8 -37q-74 -303 -301 -459q123 -58 270 -164l70 -47q174 -121 224.5 -151.5t86.5 -30.5
q61 0 78.5 83t-12.5 183q141 25 141 -80q0 -23 -12 -54t-38 -64.5t-60.5 -61.5t-86 -46.5t-108.5 -18.5q-39 0 -84.5 15.5t-80 32.5t-91 57.5t-82.5 61t-90.5 74t-81.5 66.5l-115 100q-86 -41 -156 -41q-42 0 -67 19.5t-25 50.5q0 35 30 56.5t75 21.5q67 0 164 -41
q101 92 159 317l39 158h-241z" />
    <glyph glyph-name="yen" unicode="&#xa5;" horiz-adv-x="1017" 
d="M80 541l10 55h344l-235 639l-95 33l7 35h444l-6 -35l-176 -37l188 -590h8l412 590l-164 37l6 35h355l-9 -35l-106 -39l-459 -633h334l-10 -55h-336l-31 -156h336l-10 -55h-336l-51 -258l157 -37l-6 -35h-501l8 39l174 33l51 258h-344l10 55h344l31 156h-344z" />
    <glyph glyph-name="brokenbar" unicode="&#xa6;" horiz-adv-x="487" 
d="M305 641h-65l174 860h63zM98 -410h-67l170 854h65z" />
    <glyph glyph-name="section" unicode="&#xa7;" horiz-adv-x="927" 
d="M389 -150q0 33 -19 94t-77 224l-94 266q-20 53 -30.5 116.5t-10.5 98.5q0 93 40 187t105 170.5t146 144.5t163.5 114t157.5 72.5t127 26.5q61 0 91 -23.5t30 -60.5q0 -31 -27 -57t-61 -29q-24 27 -63 43t-81 16q-96 0 -215 -65q-41 -47 -41 -119q0 -33 18 -90t79 -227
l94 -267q20 -53 30.5 -116.5t10.5 -98.5q0 -93 -40.5 -187t-105.5 -170.5t-147 -144t-165.5 -113.5t-160 -72.5t-131.5 -26.5q-51 0 -77.5 29t-26.5 61q0 31 24 54t58 26q24 -27 62.5 -43.5t80.5 -16.5q38 0 96.5 16.5t116.5 49.5q24 25 33.5 51t9.5 67zM303 729
q0 -97 64 -283l67 -194q62 -183 62 -268q0 -55 -19 -105.5t-39 -77.5h11q167 149 167 389q0 100 -63 283l-68 195q-61 180 -61 268q0 113 51 182h-6q-166 -148 -166 -389z" />
    <glyph glyph-name="dieresis" unicode="&#xa8;" 
d="M401 1229q-38 0 -64 27t-26 65q0 39 26 66.5t64 27.5q40 0 68.5 -28t28.5 -66t-28.5 -65t-68.5 -27zM711 1229q-38 0 -65.5 27t-27.5 65t27.5 66t65.5 28t66 -28t28 -66t-28 -65t-66 -27z" />
    <glyph glyph-name="copyright" unicode="&#xa9;" horiz-adv-x="1642" 
d="M135 664q6 194 105 356.5t264 256t358 93.5q192 0 351 -93.5t249 -256t84 -356.5q-6 -192 -106 -354t-265.5 -255.5t-357.5 -93.5q-193 0 -352 93.5t-248 255.5t-82 354zM186 664q-5 -181 77.5 -332.5t229.5 -239.5t324 -88t330.5 88t246.5 240.5t99 331.5
q5 180 -78 332.5t-230.5 240.5t-324.5 88t-330.5 -88t-246 -240.5t-97.5 -332.5zM838 268q-83 0 -151 25t-111.5 66t-71.5 94t-37.5 108.5t-3.5 110.5q18 166 151 277.5t328 111.5q64 0 130.5 -20t111.5 -46l-35 -221h-25l-34 195q-78 55 -160 55q-118 0 -208.5 -90.5
t-105.5 -237.5q-19 -180 46 -284.5t196 -104.5q82 0 154 55l88 209h26l-24 -223q-63 -32 -90 -44.5t-74 -24t-100 -11.5z" />
    <glyph glyph-name="ordfeminine" unicode="&#xaa;" horiz-adv-x="892" 
d="M811 1288h61l-198 -719l6 -2q44 22 99.5 76.5t92.5 108.5l25 -15q-60 -108 -138 -184t-149 -76q-41 0 -54.5 34.5t1.5 88.5l59 221h-8q-30 -49 -50.5 -81t-64 -88.5t-80.5 -91t-87 -62t-97 -27.5q-48 0 -79 37t-31 96q0 104 51.5 224.5t128.5 217.5t173.5 161.5
t180.5 64.5q80 0 125 -45zM317 586q46 0 124.5 81.5t145 187t87.5 177.5l37 113q-41 69 -115 69q-49 0 -108.5 -52.5t-108.5 -132.5t-82 -183.5t-33 -196.5q0 -27 15.5 -45t37.5 -18z" />
    <glyph glyph-name="guillemotleft" unicode="&#xab;" horiz-adv-x="833" 
d="M438 776l27 -33l-322 -331l217 -316l-34 -28l-318 335v19zM750 776l26 -33l-321 -331l217 -316l-35 -28l-318 335v19z" />
    <glyph glyph-name="logicalnot" unicode="&#xac;" horiz-adv-x="1187" 
d="M109 514h970v-397h-75v325h-895v72z" />
    <glyph glyph-name="registered" unicode="&#xae;" horiz-adv-x="864" 
d="M180 1159q0 160 117.5 271.5t284.5 111.5q165 0 280 -111t115 -272t-118 -271t-284 -110q-167 0 -281 109t-114 272zM227 1159q0 -146 101.5 -245t249.5 -99t249 98.5t101 245.5q0 145 -101 244.5t-249 99.5q-149 0 -250 -99.5t-101 -244.5zM344 969l4 16l64 14l67 340
l-57 15l2 16h164q87 0 136.5 -26.5t49.5 -79.5q0 -85 -133 -115l27 -54t22.5 -40.5t18 -29.5t17.5 -19.5t15.5 -12.5t17.5 -7t18.5 -4t23.5 -3l-4 -16q-41 -6 -58.5 -7.5t-42.5 2.5t-35 12.5t-28.5 32.5t-32.5 53.5t-37 82.5h-43l-26 -142l49 -14l-4 -14h-195zM563 1352
l-37 -185h54q106 5 106 97q0 36 -30 62t-93 26z" />
    <glyph glyph-name="macron" unicode="&#xaf;" 
d="M115 1266l20 96h510l-22 -96h-508z" />
    <glyph glyph-name="degree" unicode="&#xb0;" horiz-adv-x="598" 
d="M184 1235q0 112 81.5 191t195.5 79t190 -78t76 -192q0 -113 -80.5 -192.5t-193.5 -79.5q-116 0 -192.5 78.5t-76.5 193.5zM248 1235q0 -95 59 -158t150 -63q90 0 148.5 63.5t58.5 157.5t-58.5 157.5t-148.5 63.5q-91 0 -150 -63t-59 -158z" />
    <glyph glyph-name="plusminus" unicode="&#xb1;" horiz-adv-x="1185" 
d="M1079 674h-444v-443h-82v443h-444v71h444v443h82v-443h444v-71zM109 0v72h970v-72h-970z" />
    <glyph glyph-name="acute" unicode="&#xb4;" horiz-adv-x="481" 
d="M416 1540h139v-20l-279 -406h-49z" />
    <glyph glyph-name="paragraph" unicode="&#xb6;" horiz-adv-x="1038" 
d="M264 -420q-139 0 -233 88t-94 219q0 138 93.5 228t215.5 90q93 0 150 -48.5t57 -117.5q0 -68 -38.5 -103.5t-90.5 -35.5q-53 0 -87 27.5t-34 70.5q63 55 94 111v6q-18 26 -80 26q-74 0 -139.5 -66.5t-65.5 -176.5q0 -104 72 -181t199 -77q132 0 229.5 86t130.5 243
l260 1334h-108l-154 -785h-90q-159 0 -257.5 105t-100.5 266q-3 136 73.5 246.5t193 167.5t242.5 57h472l-7 -35l-174 -37l-250 -1280q-22 -112 -67 -195.5t-108.5 -134t-139 -74.5t-164.5 -24z" />
    <glyph glyph-name="periodcentered" unicode="&#xb7;" horiz-adv-x="497" 
d="M248 432q-51 0 -86 35t-35 86t35 86t86 35t86 -35t35 -86t-35 -86t-86 -35z" />
    <glyph glyph-name="cedilla" unicode="&#xb8;" horiz-adv-x="481" 
d="M-106 -524l2 30q33 9 65.5 22.5t66.5 34.5t55 52.5t21 67.5q0 24 -8.5 42.5t-26.5 31t-25.5 16t-25.5 10.5q0 -1 38.5 56t77.5 114l38 57h53l-96 -145q51 -18 80 -54t29 -77q0 -44 -16.5 -80.5t-46.5 -62.5t-62.5 -45.5t-76 -33.5t-74 -21.5t-68.5 -14.5z" />
    <glyph glyph-name="ordmasculine" unicode="&#xba;" horiz-adv-x="798" 
d="M268 717q0 -32 3.5 -62.5t13 -64t30 -54t50.5 -20.5q71 0 141.5 85t112.5 204t43 223q1 27 -0.5 54t-9.5 66.5t-30.5 64t-58.5 24.5q-73 0 -142.5 -90.5t-109.5 -210t-43 -219.5zM571 1278q112 0 172 -81t60 -191q0 -137 -63 -260.5t-166 -197t-216 -73.5
q-108 0 -168.5 84t-60.5 201q0 135 62 255t164 191.5t216 71.5z" />
    <glyph glyph-name="guillemotright" unicode="&#xbb;" horiz-adv-x="833" 
d="M31 68l-27 32l322 332l-217 316l34 28l318 -336v-18zM342 68l-27 32l322 332l-217 316l35 28l317 -336v-18z" />
    <glyph glyph-name="onequarter" unicode="&#xbc;" horiz-adv-x="1400" 
d="M911 31l115 22l31 144h-350l6 41l520 518l57 -8l-102 -472h151l-14 -79h-154l-30 -144l106 -24l-6 -29h-336zM96 -164l-41 37l1231 1604l43 -35zM477 1378l-153 -712l122 -25l-4 -29h-383l4 29l140 25l131 604l-156 -8l6 32l287 84h6zM811 276h264l72 334z" />
    <glyph glyph-name="onehalf" unicode="&#xbd;" horiz-adv-x="1462" 
d="M1128 242l-186 -146h404l-23 -96h-520l4 31l170 151q13 11 52.5 44t52 44t44.5 39.5t44 41.5t35 38t32 42t21 39.5t16 43.5t4 43q0 61 -37.5 91t-85.5 30q-32 0 -59 -8t-55 -29t-41 -33t-46 -45l-26 15q48 89 108.5 138.5t153.5 49.5q94 0 150.5 -56t56.5 -132
q0 -42 -14.5 -78.5t-53 -79t-80 -78.5t-121.5 -100zM96 -164l-41 37l1231 1604l43 -35zM477 1378l-153 -712l122 -25l-4 -29h-383l4 29l140 25l131 604l-156 -8l6 32l287 84h6z" />
    <glyph glyph-name="threequarters" unicode="&#xbe;" horiz-adv-x="1478" 
d="M989 31l115 22l31 144h-351l7 41l520 518l57 -8l-102 -472h151l-14 -79h-154l-30 -144l106 -24l-6 -29h-336zM387 1024v-6q93 -3 156 -45.5t63 -116.5q0 -79 -54.5 -140t-137 -91.5t-174.5 -30.5q-75 0 -124.5 27.5t-49.5 70.5q0 30 15 51t54 41q60 -143 180 -143
q70 0 120 48.5t48 113.5q0 49 -25.5 83.5t-69 51.5t-82.5 24t-83 9l6 33q155 44 210 91t53 107q-1 43 -30 68.5t-75 25.5q-99 0 -190 -114l-29 20q97 176 268 176q82 0 129 -39.5t47 -103.5q3 -129 -225 -211zM174 -164l-41 37l1231 1604l43 -35zM889 276h264l72 334z" />
    <glyph glyph-name="questiondown" unicode="&#xbf;" horiz-adv-x="731" 
d="M506 -84l-31 -180l-59 28q-165 80 -265 210t-100 276q0 120 60.5 188.5t207.5 89.5l181 25l63 205h41l-47 -340l-272 -37q-97 -14 -139 -48t-42 -100q0 -46 21.5 -87.5t54 -71t81 -57t91 -45.5t94.5 -35zM748 1042q0 -51 -35 -85.5t-86 -34.5t-86 34.5t-35 85.5t35 86
t86 35t86 -35t35 -86z" />
    <glyph glyph-name="Agrave" unicode="&#xc0;" horiz-adv-x="1275" 
d="M-102 0l8 39l127 35l696 1282l64 12l69 10l191 -1306l121 -37l-7 -35h-475l8 37l187 35l-60 415h-487l-211 -409l190 -39l-8 -39h-413zM721 1223l-340 -658h436l-92 658h-4zM547 1772h158l129 -281h-50l-237 266v15z" />
    <glyph glyph-name="Aacute" unicode="&#xc1;" horiz-adv-x="1275" 
d="M-102 0l8 39l127 35l696 1282l64 12l69 10l191 -1306l121 -37l-7 -35h-475l8 37l187 35l-60 415h-487l-211 -409l190 -39l-8 -39h-413zM721 1223l-340 -658h436l-92 658h-4zM956 1772h158v-15l-280 -266h-50z" />
    <glyph glyph-name="Acircumflex" unicode="&#xc2;" horiz-adv-x="1275" 
d="M-102 0l8 39l127 35l696 1282l64 12l69 10l191 -1306l121 -37l-7 -35h-475l8 37l187 35l-60 415h-487l-211 -409l190 -39l-8 -39h-413zM721 1223l-340 -658h436l-92 658h-4zM592 1491h-70l287 260h104l185 -260h-60l-196 170z" />
    <glyph glyph-name="Atilde" unicode="&#xc3;" horiz-adv-x="1275" 
d="M-102 0l8 39l127 35l696 1282l64 12l69 10l191 -1306l121 -37l-7 -35h-475l8 37l187 35l-60 415h-487l-211 -409l190 -39l-8 -39h-413zM721 1223l-340 -658h436l-92 658h-4zM537 1511l-27 11l10 28q83 233 281 144l114 -52q33 -15 51 -21t41 -7t39 10.5t35 36t39 65.5
l29 -10l-12 -39q-81 -245 -279 -155l-110 53q-85 41 -126 31t-85 -95z" />
    <glyph glyph-name="Adieresis" unicode="&#xc4;" horiz-adv-x="1275" 
d="M-102 0l8 39l127 35l696 1282l64 12l69 10l191 -1306l121 -37l-7 -35h-475l8 37l187 35l-60 415h-487l-211 -409l190 -39l-8 -39h-413zM721 1223l-340 -658h436l-92 658h-4zM629 1556q-38 0 -64 27t-26 66t26 66.5t64 27.5q40 0 68 -28t28 -66t-28 -65.5t-68 -27.5z
M1038 1556q-38 0 -65 27.5t-27 65.5t27 66t65 28t66.5 -28t28.5 -66t-28.5 -65.5t-66.5 -27.5z" />
    <glyph glyph-name="Aring" unicode="&#xc5;" horiz-adv-x="1275" 
d="M-102 0l8 39l127 35l696 1282l64 12l69 10l191 -1306l121 -37l-7 -35h-475l8 37l187 35l-60 415h-487l-211 -409l190 -39l-8 -39h-413zM721 1223l-340 -658h436l-92 658h-4zM633 1710q0 87 58.5 143t144.5 56q89 0 146.5 -55.5t57.5 -143.5q0 -87 -58 -144t-144 -57
q-89 0 -147 56t-58 145zM696 1710q0 -62 41 -104.5t99 -42.5q59 0 101 42.5t42 104.5t-41.5 105t-99.5 43q-59 0 -100.5 -42.5t-41.5 -105.5z" />
    <glyph glyph-name="AE" unicode="&#xc6;" horiz-adv-x="1765" 
d="M1335 690h-301l-116 -598q19 -20 44.5 -28.5t81.5 -8.5h369l227 340h39l-135 -395h-977l8 39l175 33l118 618h-344l-428 -612l191 -39l-8 -39h-424l8 39l127 35l887 1204l-172 47l6 35h927l125 10l-51 -387h-33l-57 322h-467l-108 -551h301l106 219h35l-96 -490h-35z
M989 1307h-18l-400 -553h310z" />
    <glyph glyph-name="Ccedilla" unicode="&#xc7;" horiz-adv-x="1368" 
d="M371 -524l2 30q33 9 65.5 22.5t67 34.5t55.5 52.5t21 67.5q0 24 -8.5 42.5t-26.5 31t-25.5 16t-25.5 10.5q84 122 127 188q-231 22 -369.5 178.5t-138.5 411.5q0 91 25 186t72.5 187.5t122.5 174.5t167.5 144.5t214.5 99t258 36.5q90 0 175 -20.5t130 -41t115 -57.5
l-56 -361h-32l-50 305q-127 123 -290 123q-77 0 -156.5 -24.5t-154.5 -70t-140.5 -116t-114.5 -157t-77.5 -199.5t-28.5 -238q0 -244 121 -376.5t305 -132.5q167 0 317 104l187 328h35l-105 -387q-80 -32 -120 -46.5t-139 -34.5t-198 -20h-24l-68 -102q51 -18 80 -54t29 -77
q0 -44 -16.5 -80.5t-46.5 -62.5t-62.5 -45.5t-76 -33.5t-74 -21.5t-68.5 -14.5z" />
    <glyph glyph-name="Egrave" unicode="&#xc8;" horiz-adv-x="1128" 
d="M696 678h-301l-114 -586q18 -20 46.5 -28.5t84.5 -8.5h366l226 340h38l-135 -395h-977l9 37l174 35l235 1216l-162 37l7 35h811l122 10l-51 -387h-33l-57 322h-467l-110 -564h301l106 220h35l-96 -490h-35zM487 1772h158l129 -281h-49l-238 266v15z" />
    <glyph glyph-name="Eacute" unicode="&#xc9;" horiz-adv-x="1128" 
d="M696 678h-301l-114 -586q18 -20 46.5 -28.5t84.5 -8.5h366l226 340h38l-135 -395h-977l9 37l174 35l235 1216l-162 37l7 35h811l122 10l-51 -387h-33l-57 322h-467l-110 -564h301l106 220h35l-96 -490h-35zM874 1772h158v-15l-280 -266h-50z" />
    <glyph glyph-name="Ecircumflex" unicode="&#xca;" horiz-adv-x="1128" 
d="M696 678h-301l-114 -586q18 -20 46.5 -28.5t84.5 -8.5h366l226 340h38l-135 -395h-977l9 37l174 35l235 1216l-162 37l7 35h811l122 10l-51 -387h-33l-57 322h-467l-110 -564h301l106 220h35l-96 -490h-35zM518 1491h-69l286 260h105l184 -260h-59l-197 170z" />
    <glyph glyph-name="Edieresis" unicode="&#xcb;" horiz-adv-x="1128" 
d="M696 678h-301l-114 -586q18 -20 46.5 -28.5t84.5 -8.5h366l226 340h38l-135 -395h-977l9 37l174 35l235 1216l-162 37l7 35h811l122 10l-51 -387h-33l-57 322h-467l-110 -564h301l106 220h35l-96 -490h-35zM547 1556q-38 0 -64 27t-26 66t26 66.5t64 27.5q40 0 68 -28
t28 -66t-28 -65.5t-68 -27.5zM956 1556q-38 0 -65 27.5t-27 65.5t27 66t65 28t66.5 -28t28.5 -66t-28.5 -65.5t-66.5 -27.5z" />
    <glyph glyph-name="Igrave" unicode="&#xcc;" horiz-adv-x="561" 
d="M-74 0l8 37l175 35l239 1216l-162 37l7 35h503l-6 -35l-174 -37l-240 -1216l158 -35l-6 -37h-502zM215 1772h158l129 -281h-49l-238 266v15z" />
    <glyph glyph-name="Iacute" unicode="&#xcd;" horiz-adv-x="561" 
d="M-74 0l8 37l175 35l239 1216l-162 37l7 35h503l-6 -35l-174 -37l-240 -1216l158 -35l-6 -37h-502zM627 1772h157v-15l-280 -266h-49z" />
    <glyph glyph-name="Icircumflex" unicode="&#xce;" horiz-adv-x="561" 
d="M-74 0l8 37l175 35l239 1216l-162 37l7 35h503l-6 -35l-174 -37l-240 -1216l158 -35l-6 -37h-502zM250 1491h-70l287 260h104l185 -260h-60l-196 170z" />
    <glyph glyph-name="Idieresis" unicode="&#xcf;" horiz-adv-x="561" 
d="M328 1556q-38 0 -64 27t-26 66t26 66.5t64 27.5q40 0 68 -28t28 -66t-28 -65.5t-68 -27.5zM653 1556q-38 0 -65 27.5t-27 65.5t27 66t65 28t66.5 -28t28.5 -66t-28.5 -65.5t-66.5 -27.5zM-74 0l8 37l175 35l239 1216l-162 37l7 35h503l-6 -35l-174 -37l-240 -1216
l158 -35l-6 -37h-502z" />
    <glyph glyph-name="Eth" unicode="&#xd0;" horiz-adv-x="1404" 
d="M-74 0l8 37l175 35l110 563h-184l14 61h182l117 592l-162 37l7 35h440q342 0 541.5 -147.5t199.5 -417.5q0 -100 -24 -195t-72 -185.5t-126.5 -165.5t-180.5 -132t-242 -88t-303 -31zM754 635h-367l-104 -537q37 -21 94 -35t115 -14q140 0 258 43.5t198 115t135.5 166.5
t81 196.5t25.5 205.5q0 261 -162 403.5t-508 135.5l-121 -619h367z" />
    <glyph glyph-name="Ntilde" unicode="&#xd1;" horiz-adv-x="1376" 
d="M1069 -29h-29l-649 1211l-209 -1108l160 -37l-6 -37h-408l9 37l174 37l231 1175q-34 45 -100 62l-60 14l6 35h293l572 -1067l186 991l-162 41l6 35h410l-6 -35l-174 -41l-203 -1036zM594 1511l-27 11l11 28q83 232 280 144l115 -52q33 -15 51 -21t41 -7t39 10.5t35 36
t39 65.5l28 -10l-12 -39q-81 -245 -279 -155l-110 53q-85 41 -126 31t-85 -95z" />
    <glyph glyph-name="Ograve" unicode="&#xd2;" horiz-adv-x="1490" 
d="M891 1389q167 0 298 -79.5t201 -211.5t70 -291q0 -164 -62 -318.5t-167 -271.5t-254.5 -187.5t-314.5 -70.5q-160 0 -290.5 76.5t-205 210.5t-74.5 299q0 164 62 318t167.5 270t255 186t314.5 70zM1284 856q0 208 -104.5 343.5t-292.5 135.5q-121 0 -235.5 -70.5
t-198 -186t-134.5 -270.5t-51 -316q0 -208 105 -344t293 -136q163 0 307 122.5t227.5 317.5t83.5 404zM645 1772h158l129 -281h-49l-238 266v15z" />
    <glyph glyph-name="Oacute" unicode="&#xd3;" horiz-adv-x="1490" 
d="M891 1389q167 0 298 -79.5t201 -211.5t70 -291q0 -164 -62 -318.5t-167 -271.5t-254.5 -187.5t-314.5 -70.5q-160 0 -290.5 76.5t-205 210.5t-74.5 299q0 164 62 318t167.5 270t255 186t314.5 70zM1284 856q0 208 -104.5 343.5t-292.5 135.5q-121 0 -235.5 -70.5
t-198 -186t-134.5 -270.5t-51 -316q0 -208 105 -344t293 -136q163 0 307 122.5t227.5 317.5t83.5 404zM1053 1772h157v-15l-280 -266h-49z" />
    <glyph glyph-name="Ocircumflex" unicode="&#xd4;" horiz-adv-x="1490" 
d="M891 1389q167 0 298 -79.5t201 -211.5t70 -291q0 -164 -62 -318.5t-167 -271.5t-254.5 -187.5t-314.5 -70.5q-160 0 -290.5 76.5t-205 210.5t-74.5 299q0 164 62 318t167.5 270t255 186t314.5 70zM1284 856q0 208 -104.5 343.5t-292.5 135.5q-121 0 -235.5 -70.5
t-198 -186t-134.5 -270.5t-51 -316q0 -208 105 -344t293 -136q163 0 307 122.5t227.5 317.5t83.5 404zM688 1491h-70l287 260h105l184 -260h-59l-197 170z" />
    <glyph glyph-name="Otilde" unicode="&#xd5;" horiz-adv-x="1490" 
d="M891 1389q167 0 298 -79.5t201 -211.5t70 -291q0 -164 -62 -318.5t-167 -271.5t-254.5 -187.5t-314.5 -70.5q-160 0 -290.5 76.5t-205 210.5t-74.5 299q0 164 62 318t167.5 270t255 186t314.5 70zM1284 856q0 208 -104.5 343.5t-292.5 135.5q-121 0 -235.5 -70.5
t-198 -186t-134.5 -270.5t-51 -316q0 -208 105 -344t293 -136q163 0 307 122.5t227.5 317.5t83.5 404zM686 1511l-27 11l11 28q83 232 280 144l115 -52q33 -15 51 -21t41 -7t39 10.5t35 36t39 65.5l28 -10l-12 -39q-30 -89 -73.5 -133.5t-94 -45.5t-110.5 24l-111 53
q-85 41 -126 31t-85 -95z" />
    <glyph glyph-name="Odieresis" unicode="&#xd6;" horiz-adv-x="1490" 
d="M891 1389q167 0 298 -79.5t201 -211.5t70 -291q0 -164 -62 -318.5t-167 -271.5t-254.5 -187.5t-314.5 -70.5q-160 0 -290.5 76.5t-205 210.5t-74.5 299q0 164 62 318t167.5 270t255 186t314.5 70zM1284 856q0 208 -104.5 343.5t-292.5 135.5q-121 0 -235.5 -70.5
t-198 -186t-134.5 -270.5t-51 -316q0 -208 105 -344t293 -136q163 0 307 122.5t227.5 317.5t83.5 404zM725 1556q-38 0 -64 27t-26 66t26 66.5t64 27.5q40 0 68 -28t28 -66t-28 -65.5t-68 -27.5zM1135 1556q-38 0 -65.5 27.5t-27.5 65.5t27.5 66t65.5 28t66 -28t28 -66
t-28 -65.5t-66 -27.5z" />
    <glyph glyph-name="multiply" unicode="&#xd7;" horiz-adv-x="1187" 
d="M979 39l-389 393l-385 -395l-55 53l387 391l-385 393l55 52l387 -389l391 403l53 -53l-391 -402l389 -395z" />
    <glyph glyph-name="Oslash" unicode="&#xd8;" horiz-adv-x="1490" 
d="M223 -92h-82l146 188q-92 81 -143.5 197t-51.5 252q0 164 62 318t167.5 270t255 186t314.5 70q177 0 319 -95l111 146h82l-141 -185q94 -80 146 -197t52 -251q0 -164 -62 -318.5t-167 -271.5t-254.5 -187.5t-314.5 -70.5q-179 0 -324 98zM1284 856q0 187 -86 318
l-809 -1049q104 -113 277 -113q122 0 237.5 73t198 191t132.5 271.5t50 308.5zM268 492q0 -187 80 -314l809 1049q-105 108 -270 108q-121 0 -235.5 -71t-198 -186.5t-134.5 -270.5t-51 -315z" />
    <glyph glyph-name="Ugrave" unicode="&#xd9;" horiz-adv-x="1308" 
d="M584 -29q-93 0 -168.5 21.5t-136.5 68t-94.5 120.5t-42 178.5t21.5 242.5l141 686l-135 37l6 35h479l-6 -35l-176 -37l-151 -735q-24 -125 -11.5 -216t58 -150t111.5 -88t151 -29q183 0 300 115.5t167 383.5l137 715l-160 41l6 35h383l-6 -35l-149 -43l-152 -758
q-50 -258 -192.5 -405.5t-380.5 -147.5zM635 1772h158l129 -281h-50l-237 266v15z" />
    <glyph glyph-name="Uacute" unicode="&#xda;" horiz-adv-x="1308" 
d="M584 -29q-93 0 -168.5 21.5t-136.5 68t-94.5 120.5t-42 178.5t21.5 242.5l141 686l-135 37l6 35h479l-6 -35l-176 -37l-151 -735q-24 -125 -11.5 -216t58 -150t111.5 -88t151 -29q183 0 300 115.5t167 383.5l137 715l-160 41l6 35h383l-6 -35l-149 -43l-152 -758
q-50 -258 -192.5 -405.5t-380.5 -147.5zM1022 1772h158v-15l-281 -266h-49z" />
    <glyph glyph-name="Ucircumflex" unicode="&#xdb;" horiz-adv-x="1308" 
d="M584 -29q-93 0 -168.5 21.5t-136.5 68t-94.5 120.5t-42 178.5t21.5 242.5l141 686l-135 37l6 35h479l-6 -35l-176 -37l-151 -735q-24 -125 -11.5 -216t58 -150t111.5 -88t151 -29q183 0 300 115.5t167 383.5l137 715l-160 41l6 35h383l-6 -35l-149 -43l-152 -758
q-50 -258 -192.5 -405.5t-380.5 -147.5zM659 1491h-69l287 260h104l184 -260h-59l-197 170z" />
    <glyph glyph-name="Udieresis" unicode="&#xdc;" horiz-adv-x="1308" 
d="M584 -29q-93 0 -168.5 21.5t-136.5 68t-94.5 120.5t-42 178.5t21.5 242.5l141 686l-135 37l6 35h479l-6 -35l-176 -37l-151 -735q-24 -125 -11.5 -216t58 -150t111.5 -88t151 -29q183 0 300 115.5t167 383.5l137 715l-160 41l6 35h383l-6 -35l-149 -43l-152 -758
q-50 -258 -192.5 -405.5t-380.5 -147.5zM694 1556q-38 0 -64 27t-26 66t26 66.5t64 27.5q40 0 68.5 -28t28.5 -66t-28.5 -65.5t-68.5 -27.5zM1104 1556q-38 0 -65 27.5t-27 65.5t27 66t65 28t66 -28t28 -66t-28 -65.5t-66 -27.5z" />
    <glyph glyph-name="Yacute" unicode="&#xdd;" horiz-adv-x="1212" 
d="M1231 1286l-506 -680l-107 -534l158 -35l-6 -37h-502l8 37l175 35l104 522l-272 698l-115 33l6 35h465l-6 -35l-176 -37l231 -626h6l451 626l-164 37l6 35h379l-8 -35zM971 1772h157v-15l-280 -266h-49z" />
    <glyph glyph-name="Thorn" unicode="&#xde;" horiz-adv-x="1077" 
d="M-74 0l8 37l175 35l239 1216l-162 37l7 35h499l-6 -35l-170 -37l-51 -254l117 2q128 1 237.5 -33t181.5 -108.5t72 -177.5q0 -100 -61.5 -176.5t-160.5 -117.5t-217.5 -57t-238.5 -4l8 41q248 0 371 77.5t123 219.5q0 121 -115.5 208t-324.5 87l-183 -923l203 -35l-6 -37
h-545z" />
    <glyph glyph-name="germandbls" unicode="&#xdf;" horiz-adv-x="942" 
d="M1006 1313q0 -67 -38 -127t-92.5 -103.5t-108.5 -84t-92 -86t-38 -91.5q0 -38 10.5 -67.5t40.5 -89.5l96 -187q5 -9 16.5 -30.5t15.5 -30t12.5 -25.5t11.5 -26.5t7 -24t5.5 -27.5t1.5 -28q0 -107 -104.5 -205t-225.5 -98q-73 0 -120.5 28t-47.5 72q0 38 31 88
q82 -62 125 -84.5t94 -22.5q54 0 90.5 36t36.5 85q0 69 -55 170l-90 168q-54 99 -72 145t-18 91q0 43 21.5 81.5t55.5 69t75 60.5t81.5 61.5t74.5 65.5t54 80t19 98q-2 59 -44 107.5t-120 48.5q-41 0 -84 -18t-92 -66t-91 -122t-78.5 -197t-56.5 -279l-71 -564
q-18 -141 -46.5 -255.5t-59.5 -188.5t-69.5 -129.5t-70.5 -84.5t-68 -46t-57.5 -21t-42.5 -4q-57 0 -101.5 32.5t-45.5 82.5q0 54 61 104q4 -6 16.5 -24t20.5 -28t21 -27t23 -27t22.5 -20.5t25 -15.5t23.5 -5q45 0 75 51t59 194t64 423l66 520q18 140 70.5 270.5
t122.5 225.5t149 167t153 108t131 36q59 0 104 -20t69.5 -52.5t36.5 -67t12 -69.5z" />
    <glyph glyph-name="agrave" unicode="&#xe0;" horiz-adv-x="966" 
d="M870 1032h62l-254 -913h6q51 38 108 99t101 122l29 -16q-82 -141 -178.5 -244t-159.5 -103q-24 0 -41 13.5t-24.5 46.5t11.5 90l95 305h-9q-129 -202 -195 -283q-145 -176 -267 -176q-72 0 -114 50.5t-36 148.5q8 130 58 254.5t123.5 218t158.5 165.5t165.5 109t141.5 37
q89 0 150 -38zM233 84q47 0 120 70.5t140.5 167t122.5 194.5t74 156l49 149q-57 78 -125 78q-95 0 -195 -103.5t-168 -267.5t-77 -329q-5 -115 59 -115zM502 1540h139l57 -426h-45l-151 404v22z" />
    <glyph glyph-name="aacute" unicode="&#xe1;" horiz-adv-x="966" 
d="M870 1032h62l-254 -913h6q51 38 108 99t101 122l29 -16q-82 -141 -178.5 -244t-159.5 -103q-24 0 -41 13.5t-24.5 46.5t11.5 90l95 305h-9q-129 -202 -195 -283q-145 -176 -267 -176q-72 0 -114 50.5t-36 148.5q8 130 58 254.5t123.5 218t158.5 165.5t165.5 109t141.5 37
q89 0 150 -38zM233 84q47 0 120 70.5t140.5 167t122.5 194.5t74 156l49 149q-57 78 -125 78q-95 0 -195 -103.5t-168 -267.5t-77 -329q-5 -115 59 -115zM823 1540h140v-20l-279 -406h-49z" />
    <glyph glyph-name="acircumflex" unicode="&#xe2;" horiz-adv-x="966" 
d="M870 1032h62l-254 -913h6q51 38 108 99t101 122l29 -16q-82 -141 -178.5 -244t-159.5 -103q-24 0 -41 13.5t-24.5 46.5t11.5 90l95 305h-9q-129 -202 -195 -283q-145 -176 -267 -176q-72 0 -114 50.5t-36 148.5q8 130 58 254.5t123.5 218t158.5 165.5t165.5 109t141.5 37
q89 0 150 -38zM233 84q47 0 120 70.5t140.5 167t122.5 194.5t74 156l49 149q-57 78 -125 78q-95 0 -195 -103.5t-168 -267.5t-77 -329q-5 -115 59 -115zM487 1114h-55l283 426h78l98 -426h-47l-119 279z" />
    <glyph glyph-name="atilde" unicode="&#xe3;" horiz-adv-x="966" 
d="M870 1032h62l-254 -913h6q51 38 108 99t101 122l29 -16q-82 -141 -178.5 -244t-159.5 -103q-24 0 -41 13.5t-24.5 46.5t11.5 90l95 305h-9q-129 -202 -195 -283q-145 -176 -267 -176q-72 0 -114 50.5t-36 148.5q8 130 58 254.5t123.5 218t158.5 165.5t165.5 109t141.5 37
q89 0 150 -38zM233 84q47 0 120 70.5t140.5 167t122.5 194.5t74 156l49 149q-57 78 -125 78q-95 0 -195 -103.5t-168 -267.5t-77 -329q-5 -115 59 -115zM408 1204l-27 10l10 29q83 232 281 143l114 -51q33 -15 51 -21t41 -7t39 10.5t35 36t39 65.5l29 -10l-12 -39
q-81 -246 -279 -156l-111 54q-85 41 -125.5 31t-84.5 -95z" />
    <glyph glyph-name="adieresis" unicode="&#xe4;" horiz-adv-x="966" 
d="M870 1032h62l-254 -913h6q51 38 108 99t101 122l29 -16q-82 -141 -178.5 -244t-159.5 -103q-24 0 -41 13.5t-24.5 46.5t11.5 90l95 305h-9q-129 -202 -195 -283q-145 -176 -267 -176q-72 0 -114 50.5t-36 148.5q8 130 58 254.5t123.5 218t158.5 165.5t165.5 109t141.5 37
q89 0 150 -38zM233 84q47 0 120 70.5t140.5 167t122.5 194.5t74 156l49 149q-57 78 -125 78q-95 0 -195 -103.5t-168 -267.5t-77 -329q-5 -115 59 -115zM543 1229q-38 0 -64 27t-26 65q0 39 26 66.5t64 27.5q40 0 68 -28t28 -66t-28 -65t-68 -27zM852 1229q-38 0 -65 27
t-27 65t27 66t65 28t66 -28t28 -66t-28 -65t-66 -27z" />
    <glyph glyph-name="aring" unicode="&#xe5;" horiz-adv-x="966" 
d="M870 1032h62l-254 -913h6q51 38 108 99t101 122l29 -16q-82 -141 -178.5 -244t-159.5 -103q-24 0 -41 13.5t-24.5 46.5t11.5 90l95 305h-9q-129 -202 -195 -283q-145 -176 -267 -176q-72 0 -114 50.5t-36 148.5q8 130 58 254.5t123.5 218t158.5 165.5t165.5 109t141.5 37
q89 0 150 -38zM233 84q47 0 120 70.5t140.5 167t122.5 194.5t74 156l49 149q-57 78 -125 78q-95 0 -195 -103.5t-168 -267.5t-77 -329q-5 -115 59 -115zM514 1343q0 87 58.5 143t144.5 56q89 0 147 -55.5t58 -143.5q0 -87 -58.5 -143.5t-144.5 -56.5q-89 0 -147 56t-58 144z
M578 1343q0 -62 40.5 -104.5t98.5 -42.5q59 0 101 42.5t42 104.5t-41.5 105t-99.5 43q-59 0 -100 -42.5t-41 -105.5z" />
    <glyph glyph-name="ae" unicode="&#xe6;" horiz-adv-x="1177" 
d="M702 -29q-81 0 -138 49.5t-81 135.5h-10q-139 -185 -305 -185q-30 0 -60.5 10.5t-60.5 32t-49 62.5t-18 94q1 88 75.5 144.5t241.5 105.5l209 61l47 168q14 110 -27.5 182t-122.5 72q-69 0 -120 -51l-17 -180q-29 -19 -71 -19q-37 0 -57.5 18t-20.5 48q0 46 55.5 104.5
t144 103.5t172.5 50q95 0 148 -61t47 -162h8q72 94 177 158.5t206 64.5q69 0 107.5 -33t38.5 -92q0 -79 -85 -155t-211 -130t-280 -92q-17 -82 -20 -147q-5 -107 36.5 -174.5t112.5 -67.5q149 0 270 213l37 -14q-24 -57 -57.5 -108t-80 -99.5t-109.5 -77.5t-132 -29z
M492 424l2 8l-156 -55q-101 -37 -146 -79t-45 -99t27 -90t82 -33q63 0 121 48.5t94 106.5q-6 87 21 193zM987 905q-79 0 -179.5 -112t-150.5 -275q167 55 280.5 145t113.5 181q0 28 -16 44.5t-48 16.5z" />
    <glyph glyph-name="ccedilla" unicode="&#xe7;" horiz-adv-x="749" 
d="M-6 -524l2 30q33 9 65.5 22.5t67 34.5t55.5 52.5t21 67.5q0 24 -8.5 42.5t-26.5 31t-25.5 16t-25.5 10.5l127 188h-2q-102 0 -163 74.5t-61 187.5q0 167 94 343.5t255 302.5q128 100 272 100q64 0 110 -32t46 -73q0 -22 -17 -54t-35 -48q-50 52 -113 85.5t-122 33.5
q-68 0 -145.5 -98t-129 -243.5t-51.5 -273.5q0 -87 37.5 -136.5t97.5 -49.5q45 0 87 19t84 59t74.5 78.5t78.5 101.5l35 -20q-38 -67 -73 -117t-82 -103t-102.5 -86.5t-117.5 -44.5l-74 -112q51 -18 80 -54t29 -77q0 -44 -16.5 -80.5t-46.5 -62.5t-62.5 -45.5t-76 -33.5
t-74 -21.5t-68.5 -14.5z" />
    <glyph glyph-name="egrave" unicode="&#xe8;" horiz-adv-x="739" 
d="M248 -29q-112 0 -172 75.5t-60 199.5q0 151 94 319.5t226 280.5q155 131 295 131q69 0 105 -32.5t36 -90.5q0 -80 -89 -160t-217 -135t-261 -78q-27 -111 -27 -205q0 -82 39 -136t113 -54q64 0 136.5 55.5t133.5 157.5l37 -14q-64 -137 -163 -225.5t-226 -88.5zM549 907
q-80 0 -179 -109t-151 -270q86 18 175 63t154.5 113t65.5 136q0 34 -18 50.5t-47 16.5zM444 1540h140l57 -426h-45l-152 404v22z" />
    <glyph glyph-name="eacute" unicode="&#xe9;" horiz-adv-x="739" 
d="M248 -29q-112 0 -172 75.5t-60 199.5q0 151 94 319.5t226 280.5q155 131 295 131q69 0 105 -32.5t36 -90.5q0 -80 -89 -160t-217 -135t-261 -78q-27 -111 -27 -205q0 -82 39 -136t113 -54q64 0 136.5 55.5t133.5 157.5l37 -14q-64 -137 -163 -225.5t-226 -88.5zM549 907
q-80 0 -179 -109t-151 -270q86 18 175 63t154.5 113t65.5 136q0 34 -18 50.5t-47 16.5zM786 1540h140v-20l-279 -406h-49z" />
    <glyph glyph-name="ecircumflex" unicode="&#xea;" horiz-adv-x="739" 
d="M248 -29q-112 0 -172 75.5t-60 199.5q0 151 94 319.5t226 280.5q155 131 295 131q69 0 105 -32.5t36 -90.5q0 -80 -89 -160t-217 -135t-261 -78q-27 -111 -27 -205q0 -82 39 -136t113 -54q64 0 136.5 55.5t133.5 157.5l37 -14q-64 -137 -163 -225.5t-226 -88.5zM549 907
q-80 0 -179 -109t-151 -270q86 18 175 63t154.5 113t65.5 136q0 34 -18 50.5t-47 16.5zM430 1114h-55l282 426h78l99 -426h-48l-118 279z" />
    <glyph glyph-name="edieresis" unicode="&#xeb;" horiz-adv-x="739" 
d="M248 -29q-112 0 -172 75.5t-60 199.5q0 151 94 319.5t226 280.5q155 131 295 131q69 0 105 -32.5t36 -90.5q0 -80 -89 -160t-217 -135t-261 -78q-27 -111 -27 -205q0 -82 39 -136t113 -54q64 0 136.5 55.5t133.5 157.5l37 -14q-64 -137 -163 -225.5t-226 -88.5zM549 907
q-80 0 -179 -109t-151 -270q86 18 175 63t154.5 113t65.5 136q0 34 -18 50.5t-47 16.5zM496 1229q-38 0 -64 27t-26 65q0 39 26 66.5t64 27.5q40 0 68 -28t28 -66t-28 -65t-68 -27zM805 1229q-38 0 -65 27t-27 65t27 66t65 28t66 -28t28 -66t-28 -65t-66 -27z" />
    <glyph glyph-name="igrave" unicode="&#xec;" horiz-adv-x="473" 
d="M254 852q-25 10 -67.5 11t-98.5 -13v22q114 105 207 105q62 0 87.5 -44t4.5 -120l-194 -694h6q46 32 111 100t98 121l28 -16q-79 -136 -176.5 -241.5t-161.5 -105.5q-44 0 -60 36t1 93zM186 1540h140l57 -426h-45l-152 404v22z" />
    <glyph glyph-name="iacute" unicode="&#xed;" horiz-adv-x="473" 
d="M254 852q-25 10 -67.5 11t-98.5 -13v22q114 105 207 105q62 0 87.5 -44t4.5 -120l-194 -694h6q46 32 111 100t98 121l28 -16q-79 -136 -176.5 -241.5t-161.5 -105.5q-44 0 -60 36t1 93zM514 1540h139v-20l-278 -406h-49z" />
    <glyph glyph-name="icircumflex" unicode="&#xee;" horiz-adv-x="473" 
d="M254 852q-25 10 -67.5 11t-98.5 -13v22q114 105 207 105q62 0 87.5 -44t4.5 -120l-194 -694h6q46 32 111 100t98 121l28 -16q-79 -136 -176.5 -241.5t-161.5 -105.5q-44 0 -60 36t1 93zM158 1114h-56l283 426h78l98 -426h-47l-119 279z" />
    <glyph glyph-name="idieresis" unicode="&#xef;" horiz-adv-x="473" 
d="M248 1229q-38 0 -64 27t-26 65q0 39 26 66.5t64 27.5q40 0 68 -28t28 -66t-28 -65t-68 -27zM524 1229q-38 0 -65 27t-27 65t27 66t65 28t66 -28t28 -66t-28 -65t-66 -27zM254 852q-25 10 -67.5 11t-98.5 -13v22q114 105 207 105q62 0 87.5 -44t4.5 -120l-194 -694h6
q46 32 111 100t98 121l28 -16q-79 -136 -176.5 -241.5t-161.5 -105.5q-44 0 -60 36t1 93z" />
    <glyph glyph-name="eth" unicode="&#xf0;" horiz-adv-x="925" 
d="M262 1128l-26 43l288 158q-73 87 -194 187l20 28q147 -86 244 -176l244 135l24 -43l-229 -127q241 -244 241 -596q0 -114 -25 -225t-73.5 -208.5t-114.5 -172t-154.5 -117.5t-187.5 -43q-70 0 -122.5 28t-83 77t-45.5 109.5t-15 131.5q0 78 23.5 167.5t71 176.5t111 158
t150.5 114.5t183 43.5q50 0 106 -29q-33 196 -143 342zM715 725v39q-2 21 -6.5 41.5t-14.5 44.5t-24 42t-37.5 30t-52.5 12q-76 0 -148 -73.5t-120 -182.5t-77.5 -233t-29.5 -228q0 -205 117 -205q83 0 159 78t125.5 190.5t79 233t29.5 211.5z" />
    <glyph glyph-name="ntilde" unicode="&#xf1;" horiz-adv-x="976" 
d="M8 0l248 852q-26 11 -77 10.5t-89 -12.5v20q46 46 105.5 76.5t113.5 30.5q56 0 82.5 -42.5t7.5 -103.5l-84 -280h9q67 120 139 212t157 153t162 61q72 0 100 -50t7 -124l-191 -684h7q103 76 208 221l29 -16q-82 -141 -178.5 -244t-159.5 -103q-37 0 -57.5 32t-1.5 95
l198 695q6 28 -4.5 45.5t-36.5 17.5q-47 0 -112.5 -49t-133 -133t-132.5 -212.5t-107 -272.5l-53 -185l-127 -35zM375 1204l-27 10l10 29q83 232 281 143l115 -51q41 -18 62.5 -24t47.5 -1t47.5 31.5t46.5 77.5l29 -10l-12 -39q-81 -246 -279 -156l-110 54q-85 41 -126 31
t-85 -95z" />
    <glyph glyph-name="ograve" unicode="&#xf2;" horiz-adv-x="880" 
d="M561 936q-99 0 -188.5 -119t-139 -284.5t-49.5 -315.5q0 -205 117 -205q77 0 151 73t125.5 181t83 232t31.5 227q0 91 -34 151t-97 60zM571 977q72 0 125.5 -24.5t85 -69.5t47 -103t15.5 -131q0 -85 -23.5 -177.5t-71.5 -181.5t-112 -160.5t-152.5 -115t-185.5 -43.5
q-132 0 -199 95t-67 251q0 78 22.5 166.5t68.5 176.5t108.5 158.5t151 114.5t187.5 44zM430 1540h139l58 -426h-45l-152 404v22z" />
    <glyph glyph-name="oacute" unicode="&#xf3;" horiz-adv-x="880" 
d="M561 936q-99 0 -188.5 -119t-139 -284.5t-49.5 -315.5q0 -205 117 -205q77 0 151 73t125.5 181t83 232t31.5 227q0 91 -34 151t-97 60zM571 977q72 0 125.5 -24.5t85 -69.5t47 -103t15.5 -131q0 -85 -23.5 -177.5t-71.5 -181.5t-112 -160.5t-152.5 -115t-185.5 -43.5
q-132 0 -199 95t-67 251q0 78 22.5 166.5t68.5 176.5t108.5 158.5t151 114.5t187.5 44zM750 1540h139v-20l-279 -406h-49z" />
    <glyph glyph-name="ocircumflex" unicode="&#xf4;" horiz-adv-x="880" 
d="M571 977q72 0 125.5 -24.5t85 -69.5t47 -103t15.5 -131q0 -85 -23.5 -177.5t-71.5 -181.5t-112 -160.5t-152.5 -115t-185.5 -43.5q-132 0 -199 95t-67 251q0 78 22.5 166.5t68.5 176.5t108.5 158.5t151 114.5t187.5 44zM561 936q-99 0 -188.5 -119t-139 -284.5
t-49.5 -315.5q0 -205 117 -205q77 0 151 73t125.5 181t83 232t31.5 227q0 91 -34 151t-97 60zM414 1114h-56l283 426h78l98 -426h-47l-119 279z" />
    <glyph glyph-name="otilde" unicode="&#xf5;" horiz-adv-x="880" 
d="M561 936q-99 0 -188.5 -119t-139 -284.5t-49.5 -315.5q0 -205 117 -205q77 0 151 73t125.5 181t83 232t31.5 227q0 91 -34 151t-97 60zM571 977q72 0 125.5 -24.5t85 -69.5t47 -103t15.5 -131q0 -85 -23.5 -177.5t-71.5 -181.5t-112 -160.5t-152.5 -115t-185.5 -43.5
q-132 0 -199 95t-67 251q0 78 22.5 166.5t68.5 176.5t108.5 158.5t151 114.5t187.5 44zM340 1204l-27 10l11 29q83 231 280 143l115 -51q33 -15 51 -21t41 -7t39 10.5t35 36t39 65.5l28 -10l-12 -39q-81 -245 -278 -156l-111 54q-85 41 -126 31t-85 -95z" />
    <glyph glyph-name="odieresis" unicode="&#xf6;" horiz-adv-x="880" 
d="M561 936q-99 0 -188.5 -119t-139 -284.5t-49.5 -315.5q0 -205 117 -205q77 0 151 73t125.5 181t83 232t31.5 227q0 91 -34 151t-97 60zM571 977q72 0 125.5 -24.5t85 -69.5t47 -103t15.5 -131q0 -85 -23.5 -177.5t-71.5 -181.5t-112 -160.5t-152.5 -115t-185.5 -43.5
q-132 0 -199 95t-67 251q0 78 22.5 166.5t68.5 176.5t108.5 158.5t151 114.5t187.5 44zM481 1229q-38 0 -64 27t-26 65q0 39 26 66.5t64 27.5q40 0 68.5 -28t28.5 -66t-28.5 -65t-68.5 -27zM791 1229q-38 0 -65.5 27t-27.5 65t27.5 66t65.5 28t66 -28t28 -66t-28 -65
t-66 -27z" />
    <glyph glyph-name="divide" unicode="&#xf7;" horiz-adv-x="1187" 
d="M1079 442h-970v72h970v-72zM594 702q-40 0 -68 28.5t-28 68.5t28 68t68 28t68 -28t28 -68t-28 -68.5t-68 -28.5zM594 61q-40 0 -68 28.5t-28 68.5t28 68t68 28t68 -28t28 -68t-28 -68.5t-68 -28.5z" />
    <glyph glyph-name="oslash" unicode="&#xf8;" horiz-adv-x="880" 
d="M16 -102h-63l141 186q-61 94 -61 233q0 78 22.5 166.5t68.5 176.5t108.5 158.5t151 114.5t187.5 44q90 0 158 -49l102 135h66l-129 -172q76 -88 76 -242q0 -85 -23.5 -177.5t-71.5 -181.5t-112 -160.5t-152.5 -115t-185.5 -43.5q-105 0 -174 72zM698 737q0 22 -4 58
l-508 -672q18 -111 115 -111q77 0 152 74.5t127.5 185t85 236.5t32.5 229zM180 207v-8l496 657q-38 80 -115 80q-99 0 -189.5 -121.5t-141 -289.5t-50.5 -318z" />
    <glyph glyph-name="ugrave" unicode="&#xf9;" horiz-adv-x="991" 
d="M55 129l195 723q-26 11 -77 10.5t-89 -12.5v20q46 46 105.5 76.5t113.5 30.5q59 0 79.5 -46t2.5 -114l-178 -672q-3 -24 9 -40.5t38 -16.5q64 0 168 115t193 273.5t120 281.5l49 190l136 13l14 -17l-219 -825h6q46 33 107.5 98t101.5 123l28 -16q-79 -137 -175.5 -242
t-161.5 -105q-37 0 -58 30t-4 91l105 373h-9q-37 -69 -65 -118.5t-68 -112.5t-77.5 -106t-81 -82.5t-90.5 -59t-95 -19.5q-62 0 -101.5 42.5t-21.5 113.5zM457 1540h139l57 -426h-45l-151 404v22z" />
    <glyph glyph-name="uacute" unicode="&#xfa;" horiz-adv-x="991" 
d="M55 129l195 723q-26 11 -77 10.5t-89 -12.5v20q46 46 105.5 76.5t113.5 30.5q59 0 79.5 -46t2.5 -114l-178 -672q-3 -24 9 -40.5t38 -16.5q64 0 168 115t193 273.5t120 281.5l49 190l136 13l14 -17l-219 -825h6q46 33 107.5 98t101.5 123l28 -16q-79 -137 -175.5 -242
t-161.5 -105q-37 0 -58 30t-4 91l105 373h-9q-37 -69 -65 -118.5t-68 -112.5t-77.5 -106t-81 -82.5t-90.5 -59t-95 -19.5q-62 0 -101.5 42.5t-21.5 113.5zM782 1540h140v-20l-279 -406h-49z" />
    <glyph glyph-name="ucircumflex" unicode="&#xfb;" horiz-adv-x="991" 
d="M55 129l195 723q-26 11 -77 10.5t-89 -12.5v20q46 46 105.5 76.5t113.5 30.5q59 0 79.5 -46t2.5 -114l-178 -672q-3 -24 9 -40.5t38 -16.5q64 0 168 115t193 273.5t120 281.5l49 190l136 13l14 -17l-219 -825h6q46 33 107.5 98t101.5 123l28 -16q-79 -137 -175.5 -242
t-161.5 -105q-37 0 -58 30t-4 91l105 373h-9q-37 -69 -65 -118.5t-68 -112.5t-77.5 -106t-81 -82.5t-90.5 -59t-95 -19.5q-62 0 -101.5 42.5t-21.5 113.5zM428 1114h-55l282 426h78l98 -426h-47l-118 279z" />
    <glyph glyph-name="udieresis" unicode="&#xfc;" horiz-adv-x="991" 
d="M55 129l195 723q-26 11 -77 10.5t-89 -12.5v20q46 46 105.5 76.5t113.5 30.5q59 0 79.5 -46t2.5 -114l-178 -672q-3 -24 9 -40.5t38 -16.5q64 0 168 115t193 273.5t120 281.5l49 190l136 13l14 -17l-219 -825h6q46 33 107.5 98t101.5 123l28 -16q-79 -137 -175.5 -242
t-161.5 -105q-37 0 -58 30t-4 91l105 373h-9q-37 -69 -65 -118.5t-68 -112.5t-77.5 -106t-81 -82.5t-90.5 -59t-95 -19.5q-62 0 -101.5 42.5t-21.5 113.5zM492 1229q-38 0 -64.5 27t-26.5 65q0 39 26.5 66.5t64.5 27.5q40 0 68 -28t28 -66t-28 -65t-68 -27zM801 1229
q-38 0 -65 27t-27 65t27 66t65 28t66 -28t28 -66t-28 -65t-66 -27z" />
    <glyph glyph-name="yacute" unicode="&#xfd;" horiz-adv-x="890" 
d="M61 625h-36q15 154 81.5 253.5t155.5 98.5q97 -2 154 -127.5t57 -341.5q0 -304 -92 -576h10q165 186 263 385.5t98 378.5q0 135 -88 252q51 31 106 31q41 0 68 -35.5t26 -114.5q-1 -119 -37.5 -247t-97 -243.5t-139.5 -228.5t-166.5 -208t-177.5 -176.5t-171.5 -137.5
t-150 -88t-112.5 -32q-45 0 -74 26t-29 70q0 43 26.5 71.5t67.5 28.5q90 0 113 -110h4q107 40 188 142.5t126 235.5t66.5 268t21.5 267q0 102 -10.5 179t-29 120t-39.5 63.5t-44 20.5q-46 0 -76 -51t-62 -174zM709 1540h139v-20l-279 -406h-49z" />
    <glyph glyph-name="thorn" unicode="&#xfe;" horiz-adv-x="919" 
d="M-123 -428l477 1796l-127 84l4 14l314 62l-254 -963h12q236 412 455 412q75 0 114.5 -65.5t36.5 -176.5q-2 -88 -36.5 -193t-94.5 -205t-136 -182.5t-170 -133t-187 -50.5q-39 0 -77.5 16t-62.5 36l-122 -457l260 -27l-11 -45h-548l8 27zM231 317l-53 -180q18 -46 57 -80
t99 -34q88 0 179.5 104t152.5 258.5t69 300.5q5 83 -15.5 128.5t-62.5 45.5q-54 0 -123.5 -60t-129 -146.5t-107 -178t-66.5 -158.5z" />
    <glyph glyph-name="ydieresis" unicode="&#xff;" horiz-adv-x="890" 
d="M61 625h-36q15 154 81.5 253.5t155.5 98.5q97 -2 154 -127.5t57 -341.5q0 -304 -92 -576h10q165 186 263 385.5t98 378.5q0 135 -88 252q51 31 106 31q41 0 68 -35.5t26 -114.5q-1 -119 -37.5 -247t-97 -243.5t-139.5 -228.5t-166.5 -208t-177.5 -176.5t-171.5 -137.5
t-150 -88t-112.5 -32q-45 0 -74 26t-29 70q0 43 26.5 71.5t67.5 28.5q90 0 113 -110h4q107 40 188 142.5t126 235.5t66.5 268t21.5 267q0 102 -10.5 179t-29 120t-39.5 63.5t-44 20.5q-46 0 -76 -51t-62 -174zM420 1229q-38 0 -64 27t-26 65q0 39 26 66.5t64 27.5
q40 0 68 -28t28 -66t-28 -65t-68 -27zM729 1229q-38 0 -65 27t-27 65t27 66t65 28t66 -28t28 -66t-28 -65t-66 -27z" />
    <glyph glyph-name="Amacron" unicode="&#x100;" horiz-adv-x="1275" 
d="M-102 0l8 39l127 35l696 1282l64 12l69 10l191 -1306l121 -37l-7 -35h-475l8 37l187 35l-60 415h-487l-211 -409l190 -39l-8 -39h-413zM721 1223l-340 -658h436l-92 658h-4zM535 1556l20 99h573l-22 -99h-571z" />
    <glyph glyph-name="amacron" unicode="&#x101;" horiz-adv-x="966" 
d="M870 1032h62l-254 -913h6q51 38 108 99t101 122l29 -16q-82 -141 -178.5 -244t-159.5 -103q-24 0 -41 13.5t-24.5 46.5t11.5 90l95 305h-9q-129 -202 -195 -283q-145 -176 -267 -176q-72 0 -114 50.5t-36 148.5q8 130 58 254.5t123.5 218t158.5 165.5t165.5 109t141.5 37
q89 0 150 -38zM233 84q47 0 120 70.5t140.5 167t122.5 194.5t74 156l49 149q-57 78 -125 78q-95 0 -195 -103.5t-168 -267.5t-77 -329q-5 -115 59 -115zM446 1266l21 96h510l-23 -96h-508z" />
    <glyph glyph-name="Abreve" unicode="&#x102;" horiz-adv-x="1275" 
d="M-102 0l8 39l127 35l696 1282l64 12l69 10l191 -1306l121 -37l-7 -35h-475l8 37l187 35l-60 415h-487l-211 -409l190 -39l-8 -39h-413zM721 1223l-340 -658h436l-92 658h-4zM821 1495q-109 0 -165 63t-62 199h35q35 -86 82 -124t129 -38q147 0 237 162h33
q-25 -121 -101.5 -191.5t-187.5 -70.5z" />
    <glyph glyph-name="abreve" unicode="&#x103;" horiz-adv-x="966" 
d="M870 1032h62l-254 -913h6q51 38 108 99t101 122l29 -16q-82 -141 -178.5 -244t-159.5 -103q-24 0 -41 13.5t-24.5 46.5t11.5 90l95 305h-9q-129 -202 -195 -283q-145 -176 -267 -176q-72 0 -114 50.5t-36 148.5q8 130 58 254.5t123.5 218t158.5 165.5t165.5 109t141.5 37
q89 0 150 -38zM233 84q47 0 120 70.5t140.5 167t122.5 194.5t74 156l49 149q-57 78 -125 78q-95 0 -195 -103.5t-168 -267.5t-77 -329q-5 -115 59 -115zM682 1151q-96 0 -140.5 81t-31.5 238h33q12 -110 50 -162.5t114 -52.5q42 0 77.5 17.5t62.5 50t46 67t37 80.5h33
q-27 -146 -96.5 -232.5t-184.5 -86.5z" />
    <glyph glyph-name="Aogonek" unicode="&#x104;" horiz-adv-x="1275" 
d="M-82 0l8 39l127 35l697 1282l63 12l70 10l190 -1306l121 -37l-6 -35h-246q-134 -118 -189 -190t-55 -129q0 -36 23 -63.5t67 -27.5q41 0 78.5 23.5t89.5 87.5l31 -16q-131 -195 -276 -195q-69 0 -107.5 43t-38.5 102q0 43 18 81.5t66.5 87.5t103.5 95t159 128q2 1 3 2
l-65 458h-490l-210 -409l190 -39l-8 -39h-414zM741 1223l-340 -658h437l-93 658h-4z" />
    <glyph glyph-name="aogonek" unicode="&#x105;" horiz-adv-x="966" 
d="M596 -29v6h-10q-51 0 -64.5 46.5t8.5 103.5l95 305h-9q-129 -202 -195 -283q-145 -176 -267 -176q-72 0 -114 50.5t-36 148.5q8 130 58 254.5t123.5 218t158.5 165.5t165.5 109t141.5 37q89 0 150 -38l69 114h62l-254 -913h6q99 73 209 221l29 -16q-83 -144 -174 -238
q-146 -147 -214 -225t-85 -113t-17 -74q0 -38 26.5 -61t63.5 -23q42 0 78.5 23.5t89.5 87.5l31 -16q-127 -195 -277 -195q-65 0 -105 42t-40 103q0 42 17 79.5t59.5 80t89 79t131.5 97.5zM233 84q47 0 120 70.5t140.5 167t122.5 194.5t74 156l49 149q-57 78 -127 78
q-94 0 -193.5 -103.5t-167.5 -267.5t-77 -329q-5 -115 59 -115z" />
    <glyph glyph-name="Cacute" unicode="&#x106;" horiz-adv-x="1368" 
d="M676 -33q-262 0 -423 159t-161 435q0 91 25 186t72.5 187.5t122.5 174.5t167.5 144.5t214.5 99t258 36.5q90 0 175 -20.5t130 -41t115 -57.5l-55 -361h-33l-49 305q-127 123 -291 123q-77 0 -156.5 -24.5t-154.5 -70t-140.5 -116t-114.5 -157t-77.5 -199.5t-28.5 -238
q0 -244 121 -376.5t305 -132.5q168 0 318 104l186 328h35l-104 -387q-80 -32 -120 -46.5t-139 -34.5t-198 -20zM1110 1772h158v-15l-281 -266h-49z" />
    <glyph glyph-name="cacute" unicode="&#x107;" horiz-adv-x="749" 
d="M510 891q-68 0 -145.5 -98t-129 -243.5t-51.5 -273.5q0 -87 37.5 -136.5t97.5 -49.5q45 0 87 19t84 59t74.5 78.5t78.5 101.5l35 -20q-34 -59 -63 -103t-72 -95t-85.5 -83.5t-98 -54t-115.5 -21.5q-102 0 -163 74.5t-61 187.5q0 167 94 343.5t255 302.5q128 100 272 100
q64 0 110 -32t46 -73q0 -22 -17 -54t-35 -48q-50 52 -113 85.5t-122 33.5zM776 1540h139v-20l-278 -406h-49z" />
    <glyph glyph-name="Ccircumflex" unicode="&#x108;" horiz-adv-x="1368" 
d="M676 -33q-262 0 -423 159t-161 435q0 91 25 186t72.5 187.5t122.5 174.5t167.5 144.5t214.5 99t258 36.5q90 0 175 -20.5t130 -41t115 -57.5l-55 -361h-33l-49 305q-127 123 -291 123q-77 0 -156.5 -24.5t-154.5 -70t-140.5 -116t-114.5 -157t-77.5 -199.5t-28.5 -238
q0 -244 121 -376.5t305 -132.5q168 0 318 104l186 328h35l-104 -387q-80 -32 -120 -46.5t-139 -34.5t-198 -20zM745 1491h-69l287 260h104l184 -260h-59l-197 170z" />
    <glyph glyph-name="ccircumflex" unicode="&#x109;" horiz-adv-x="749" 
d="M510 891q-68 0 -145.5 -98t-129 -243.5t-51.5 -273.5q0 -87 37.5 -136.5t97.5 -49.5q45 0 87 19t84 59t74.5 78.5t78.5 101.5l35 -20q-34 -59 -63 -103t-72 -95t-85.5 -83.5t-98 -54t-115.5 -21.5q-102 0 -163 74.5t-61 187.5q0 167 94 343.5t255 302.5q128 100 272 100
q64 0 110 -32t46 -73q0 -22 -17 -54t-35 -48q-50 52 -113 85.5t-122 33.5zM420 1114h-55l282 426h78l98 -426h-47l-119 279z" />
    <glyph glyph-name="Cdotaccent" unicode="&#x10a;" horiz-adv-x="1368" 
d="M676 -33q-262 0 -423 159t-161 435q0 91 25 186t72.5 187.5t122.5 174.5t167.5 144.5t214.5 99t258 36.5q90 0 175 -20.5t130 -41t115 -57.5l-55 -361h-33l-49 305q-127 123 -291 123q-77 0 -156.5 -24.5t-154.5 -70t-140.5 -116t-114.5 -157t-77.5 -199.5t-28.5 -238
q0 -244 121 -376.5t305 -132.5q168 0 318 104l186 328h35l-104 -387q-80 -32 -120 -46.5t-139 -34.5t-198 -20zM897 1651q0 40 29 69t69 29t69.5 -29t29.5 -69t-29.5 -69.5t-69.5 -29.5t-69 29.5t-29 69.5z" />
    <glyph glyph-name="cdotaccent" unicode="&#x10b;" horiz-adv-x="749" 
d="M510 891q-68 0 -145.5 -98t-129 -243.5t-51.5 -273.5q0 -87 37.5 -136.5t97.5 -49.5q45 0 87 19t84 59t74.5 78.5t78.5 101.5l35 -20q-34 -59 -63 -103t-72 -95t-85.5 -83.5t-98 -54t-115.5 -21.5q-102 0 -163 74.5t-61 187.5q0 167 94 343.5t255 302.5q128 100 272 100
q64 0 110 -32t46 -73q0 -22 -17 -54t-35 -48q-50 52 -113 85.5t-122 33.5zM537 1321q0 40 29 69t69 29t69 -29t29 -69t-29 -69t-69 -29t-69 29t-29 69z" />
    <glyph glyph-name="Ccaron" unicode="&#x10c;" horiz-adv-x="1368" 
d="M676 -33q-262 0 -423 159t-161 435q0 91 25 186t72.5 187.5t122.5 174.5t167.5 144.5t214.5 99t258 36.5q90 0 175 -20.5t130 -41t115 -57.5l-55 -361h-33l-49 305q-127 123 -291 123q-77 0 -156.5 -24.5t-154.5 -70t-140.5 -116t-114.5 -157t-77.5 -199.5t-28.5 -238
q0 -244 121 -376.5t305 -132.5q168 0 318 104l186 328h35l-104 -387q-80 -32 -120 -46.5t-139 -34.5t-198 -20zM1233 1751h70l-287 -260h-105l-184 260h59l197 -170z" />
    <glyph glyph-name="ccaron" unicode="&#x10d;" horiz-adv-x="749" 
d="M510 891q-68 0 -145.5 -98t-129 -243.5t-51.5 -273.5q0 -87 37.5 -136.5t97.5 -49.5q45 0 87 19t84 59t74.5 78.5t78.5 101.5l35 -20q-34 -59 -63 -103t-72 -95t-85.5 -83.5t-98 -54t-115.5 -21.5q-102 0 -163 74.5t-61 187.5q0 167 94 343.5t255 302.5q128 100 272 100
q64 0 110 -32t46 -73q0 -22 -17 -54t-35 -48q-50 52 -113 85.5t-122 33.5zM868 1540h56l-283 -426h-78l-98 426h47l117 -278z" />
    <glyph glyph-name="Dcaron" unicode="&#x10e;" horiz-adv-x="1404" 
d="M-74 0l8 37l175 35l239 1216l-162 37l7 35h440q342 0 541.5 -147.5t199.5 -417.5q0 -100 -24 -195t-72 -185.5t-126.5 -165.5t-180.5 -132t-242 -88t-303 -31zM520 1315l-237 -1217q37 -21 94 -35t115 -14q140 0 258 43.5t198 115t135.5 166.5t81 196.5t25.5 205.5
q0 261 -162 403.5t-508 135.5zM1094 1751h69l-286 -260h-105l-184 260h59l197 -170z" />
    <glyph glyph-name="dcaron" unicode="&#x10f;" horiz-adv-x="993" 
d="M618 979q90 0 162 -39l111 428l-152 84l4 14l338 62l-370 -1409h6q51 38 108 99t101 122l28 -16q-81 -139 -178.5 -243t-157.5 -104q-25 0 -42 13.5t-24.5 46.5t11.5 90l90 301h-8q-35 -57 -62.5 -99t-83 -115t-103 -120t-108.5 -84t-114 -37q-73 0 -124 58t-44 178
q6 106 40.5 217t92.5 209t131 175.5t164 123t184 45.5zM717 692l28 115q-24 51 -66 83t-91 32q-96 0 -188.5 -98t-152 -256.5t-67.5 -327.5q-6 -83 17 -121.5t59 -38.5q56 0 153 98.5t186 244.5t122 269zM1116 1090h-31l111 411h158l-2 -12z" />
    <glyph glyph-name="Dcroat" unicode="&#x110;" horiz-adv-x="1404" 
d="M-74 0l8 37l175 35l110 563h-184l14 61h182l117 592l-162 37l7 35h440q342 0 541.5 -147.5t199.5 -417.5q0 -100 -24 -195t-72 -185.5t-126.5 -165.5t-180.5 -132t-242 -88t-303 -31zM754 635h-367l-104 -537q37 -21 94 -35t115 -14q140 0 258 43.5t198 115t135.5 166.5
t81 196.5t25.5 205.5q0 261 -162 403.5t-508 135.5l-121 -619h367z" />
    <glyph glyph-name="dcroat" unicode="&#x111;" horiz-adv-x="993" 
d="M461 1151l14 55h375l41 162l-152 84l4 14l338 62l-86 -322h140l-15 -55h-139l-270 -1032h6q51 38 108 99t101 122l28 -16q-81 -139 -178.5 -243t-157.5 -104q-25 0 -42 13.5t-24.5 46.5t11.5 90l90 301h-8q-35 -57 -62.5 -99t-83 -115t-103 -120t-108.5 -84t-114 -37
q-73 0 -124 58t-44 178q6 106 40.5 217t92.5 209t131 175.5t164 123t184 45.5q90 0 162 -39l56 211h-375zM717 692l28 115q-24 51 -66 83t-91 32q-96 0 -188.5 -98t-152 -256.5t-67.5 -327.5q-6 -83 17 -121.5t59 -38.5q56 0 153 98.5t186 244.5t122 269z" />
    <glyph glyph-name="Emacron" unicode="&#x112;" horiz-adv-x="1128" 
d="M696 678h-301l-114 -586q18 -20 46.5 -28.5t84.5 -8.5h366l226 340h38l-135 -395h-977l9 37l174 35l235 1216l-162 37l7 35h811l122 10l-51 -387h-33l-57 322h-467l-110 -564h301l106 220h35l-96 -490h-35zM461 1556l20 99h574l-23 -99h-571z" />
    <glyph glyph-name="emacron" unicode="&#x113;" horiz-adv-x="739" 
d="M248 -29q-112 0 -172 75.5t-60 199.5q0 151 94 319.5t226 280.5q155 131 295 131q69 0 105 -32.5t36 -90.5q0 -80 -89 -160t-217 -135t-261 -78q-27 -111 -27 -205q0 -82 39 -136t113 -54q64 0 136.5 55.5t133.5 157.5l37 -14q-64 -137 -163 -225.5t-226 -88.5zM549 907
q-80 0 -179 -109t-151 -270q86 18 175 63t154.5 113t65.5 136q0 34 -18 50.5t-47 16.5zM387 1266l21 96h510l-23 -96h-508z" />
    <glyph glyph-name="Ebreve" unicode="&#x114;" horiz-adv-x="1128" 
d="M696 678h-301l-114 -586q18 -20 46.5 -28.5t84.5 -8.5h366l226 340h38l-135 -395h-977l9 37l174 35l235 1216l-162 37l7 35h811l122 10l-51 -387h-33l-57 322h-467l-110 -564h301l106 220h35l-96 -490h-35zM748 1495q-109 0 -165.5 63t-62.5 199h35q35 -86 82 -124
t129 -38q148 0 238 162h32q-25 -121 -101 -191.5t-187 -70.5z" />
    <glyph glyph-name="ebreve" unicode="&#x115;" horiz-adv-x="739" 
d="M248 -29q-112 0 -172 75.5t-60 199.5q0 151 94 319.5t226 280.5q155 131 295 131q69 0 105 -32.5t36 -90.5q0 -80 -89 -160t-217 -135t-261 -78q-27 -111 -27 -205q0 -82 39 -136t113 -54q64 0 136.5 55.5t133.5 157.5l37 -14q-64 -137 -163 -225.5t-226 -88.5zM549 907
q-80 0 -179 -109t-151 -270q86 18 175 63t154.5 113t65.5 136q0 34 -18 50.5t-47 16.5zM625 1151q-96 0 -140.5 81t-31.5 238h32q12 -110 50 -162.5t114 -52.5q42 0 77.5 17.5t62.5 50t46 67t37 80.5h33q-27 -146 -96 -232.5t-184 -86.5z" />
    <glyph glyph-name="Edotaccent" unicode="&#x116;" horiz-adv-x="1128" 
d="M696 678h-301l-114 -586q18 -20 46.5 -28.5t84.5 -8.5h366l226 340h38l-135 -395h-977l9 37l174 35l235 1216l-162 37l7 35h811l122 10l-51 -387h-33l-57 322h-467l-110 -564h301l106 220h35l-96 -490h-35zM657 1651q0 40 29.5 69t69.5 29t69 -29t29 -69t-29 -69.5
t-69 -29.5t-69.5 29.5t-29.5 69.5z" />
    <glyph glyph-name="edotaccent" unicode="&#x117;" horiz-adv-x="739" 
d="M248 -29q-112 0 -172 75.5t-60 199.5q0 151 94 319.5t226 280.5q155 131 295 131q69 0 105 -32.5t36 -90.5q0 -80 -89 -160t-217 -135t-261 -78q-27 -111 -27 -205q0 -82 39 -136t113 -54q64 0 136.5 55.5t133.5 157.5l37 -14q-64 -137 -163 -225.5t-226 -88.5zM549 907
q-80 0 -179 -109t-151 -270q86 18 175 63t154.5 113t65.5 136q0 34 -18 50.5t-47 16.5zM547 1321q0 40 29 69t69 29t69 -29t29 -69t-29 -69t-69 -29t-69 29t-29 69z" />
    <glyph glyph-name="Eogonek" unicode="&#x118;" horiz-adv-x="1128" 
d="M696 678h-301l-114 -586q18 -20 46.5 -28.5t84.5 -8.5h366l226 340h38l-135 -395h-112q-102 -97 -155 -162t-66 -97t-13 -67q0 -38 26.5 -61t63.5 -23q42 0 78.5 23.5t89.5 87.5l31 -16q-127 -195 -277 -195q-65 0 -105 42t-40 103q0 28 8 54.5t30.5 56.5t42 52.5
t66 61.5t76.5 63.5t97 76.5h-818l9 37l174 35l235 1216l-162 37l7 35h811l122 10l-51 -387h-33l-57 322h-467l-110 -564h301l106 220h35l-96 -490h-35z" />
    <glyph glyph-name="eogonek" unicode="&#x119;" horiz-adv-x="739" 
d="M348 -14l-4 8q-60 -21 -98 -21q-62 0 -108 24t-72 64t-38 86.5t-12 98.5q0 152 94.5 320.5t227.5 281.5q153 129 293 129q69 0 105 -32.5t36 -90.5q0 -80 -89 -160t-217 -135t-261 -78q-27 -111 -27 -205q0 -82 39 -136t113 -54q64 0 136.5 55.5t133.5 157.5l37 -14
q-51 -105 -110 -174.5t-156 -147.5q-138 -113 -179.5 -170.5t-41.5 -118.5q0 -38 27 -61t65 -23q40 0 76.5 24t89.5 87l30 -16q-127 -195 -276 -195q-65 0 -105.5 42t-40.5 103q0 42 20 81.5t66.5 83.5t101 85t144.5 101zM549 907q-80 0 -179 -110t-151 -271q86 18 175 63.5
t154.5 114t65.5 136.5q0 34 -18 50.5t-47 16.5z" />
    <glyph glyph-name="Ecaron" unicode="&#x11a;" horiz-adv-x="1128" 
d="M696 678h-301l-114 -586q18 -20 46.5 -28.5t84.5 -8.5h366l226 340h38l-135 -395h-977l9 37l174 35l235 1216l-162 37l7 35h811l122 10l-51 -387h-33l-57 322h-467l-110 -564h301l106 220h35l-96 -490h-35zM1006 1751h69l-287 -260h-104l-184 260h59l197 -170z" />
    <glyph glyph-name="ecaron" unicode="&#x11b;" horiz-adv-x="739" 
d="M248 -29q-112 0 -172 75.5t-60 199.5q0 151 94 319.5t226 280.5q155 131 295 131q69 0 105 -32.5t36 -90.5q0 -80 -89 -160t-217 -135t-261 -78q-27 -111 -27 -205q0 -82 39 -136t113 -54q64 0 136.5 55.5t133.5 157.5l37 -14q-64 -137 -163 -225.5t-226 -88.5zM549 907
q-80 0 -179 -109t-151 -270q86 18 175 63t154.5 113t65.5 136q0 34 -18 50.5t-47 16.5zM877 1540h55l-283 -426h-78l-98 426h47l117 -278z" />
    <glyph glyph-name="Gcircumflex" unicode="&#x11c;" horiz-adv-x="1388" 
d="M262 532q0 -232 124 -374t302 -142q123 0 205 51t102 146l60 295l-211 37l6 35h512l-4 -35l-135 -37l-80 -406q-217 -139 -475 -139q-118 0 -223.5 44t-183.5 120t-123.5 185t-45.5 233q0 127 39 251t115 230.5t178.5 188t240 128t289.5 46.5q88 0 169 -19t129 -40
t118 -58l-72 -350h-38l-31 307q-116 108 -291 108q-120 0 -240.5 -60.5t-217 -163.5t-157.5 -256.5t-61 -324.5zM741 1491h-69l286 260h105l184 -260h-59l-197 170z" />
    <glyph glyph-name="gcircumflex" unicode="&#x11d;" horiz-adv-x="806" 
d="M524 977q32 0 65.5 -10t47.5 -21l287 27l-27 -113l-199 21l2 -9q39 -76 39 -172q0 -84 -33 -166.5t-89 -146.5t-137.5 -105t-170.5 -42q-35 -19 -55.5 -45.5t-20.5 -53.5q0 -29 21 -47l307 -168q94 -51 124 -92.5t30 -85.5q0 -68 -66.5 -132t-186 -106t-257.5 -42
q-184 0 -287.5 43.5t-103.5 132.5q0 48 33 91t92 78.5t132 63.5t162 51v2l-51 27q-80 44 -80 121q0 93 136 166v6q-52 17 -88 64t-50 98t-14 102q0 82 32 164.5t88 149t139.5 108t178.5 41.5zM512 928q-67 0 -133.5 -72.5t-108.5 -181t-47 -213.5q-11 -172 88 -172
q68 0 135 74.5t109.5 182.5t46.5 208q3 88 -16.5 131t-73.5 43zM418 -170l-142 76q-162 -56 -229 -102.5t-67 -112.5q0 -71 81 -116.5t246 -45.5q119 0 195.5 46.5t79.5 105.5q2 33 -31 64t-133 85zM369 1114h-56l283 426h78l98 -426h-47l-119 279z" />
    <glyph glyph-name="Gbreve" unicode="&#x11e;" horiz-adv-x="1388" 
d="M262 532q0 -232 124 -374t302 -142q123 0 205 51t102 146l60 295l-211 37l6 35h512l-4 -35l-135 -37l-80 -406q-217 -139 -475 -139q-118 0 -223.5 44t-183.5 120t-123.5 185t-45.5 233q0 127 39 251t115 230.5t178.5 188t240 128t289.5 46.5q88 0 169 -19t129 -40
t118 -58l-72 -350h-38l-31 307q-116 108 -291 108q-120 0 -240.5 -60.5t-217 -163.5t-157.5 -256.5t-61 -324.5zM971 1495q-109 0 -165.5 63t-62.5 199h35q35 -86 82 -124t129 -38q148 0 238 162h33q-25 -121 -101.5 -191.5t-187.5 -70.5z" />
    <glyph glyph-name="gbreve" unicode="&#x11f;" horiz-adv-x="806" 
d="M524 977q32 0 65.5 -10t47.5 -21l287 27l-27 -113l-199 21l2 -9q39 -76 39 -172q0 -84 -33 -166.5t-89 -146.5t-137.5 -105t-170.5 -42q-35 -19 -55.5 -45.5t-20.5 -53.5q0 -29 21 -47l307 -168q94 -51 124 -92.5t30 -85.5q0 -68 -66.5 -132t-186 -106t-257.5 -42
q-184 0 -287.5 43.5t-103.5 132.5q0 48 33 91t92 78.5t132 63.5t162 51v2l-51 27q-80 44 -80 121q0 93 136 166v6q-52 17 -88 64t-50 98t-14 102q0 82 32 164.5t88 149t139.5 108t178.5 41.5zM512 928q-67 0 -133.5 -72.5t-108.5 -181t-47 -213.5q-11 -172 88 -172
q68 0 135 74.5t109.5 182.5t46.5 208q3 88 -16.5 131t-73.5 43zM418 -170l-142 76q-162 -56 -229 -102.5t-67 -112.5q0 -71 81 -116.5t246 -45.5q119 0 195.5 46.5t79.5 105.5q2 33 -31 64t-133 85zM563 1151q-96 0 -140.5 81t-31.5 238h33q12 -110 50 -162.5t114 -52.5
q42 0 77.5 17.5t62.5 50t46 67t37 80.5h33q-27 -146 -96.5 -232.5t-184.5 -86.5z" />
    <glyph glyph-name="Gdotaccent" unicode="&#x120;" horiz-adv-x="1388" 
d="M262 532q0 -232 124 -374t302 -142q123 0 205 51t102 146l60 295l-211 37l6 35h512l-4 -35l-135 -37l-80 -406q-217 -139 -475 -139q-118 0 -223.5 44t-183.5 120t-123.5 185t-45.5 233q0 127 39 251t115 230.5t178.5 188t240 128t289.5 46.5q88 0 169 -19t129 -40
t118 -58l-72 -350h-38l-31 307q-116 108 -291 108q-120 0 -240.5 -60.5t-217 -163.5t-157.5 -256.5t-61 -324.5zM881 1651q0 40 29 69t69 29t69 -29t29 -69t-29 -69.5t-69 -29.5t-69 29.5t-29 69.5z" />
    <glyph glyph-name="gdotaccent" unicode="&#x121;" horiz-adv-x="806" 
d="M524 977q32 0 65.5 -10t47.5 -21l287 27l-27 -113l-199 21l2 -9q39 -76 39 -172q0 -84 -33 -166.5t-89 -146.5t-137.5 -105t-170.5 -42q-35 -19 -55.5 -45.5t-20.5 -53.5q0 -29 21 -47l307 -168q94 -51 124 -92.5t30 -85.5q0 -68 -66.5 -132t-186 -106t-257.5 -42
q-184 0 -287.5 43.5t-103.5 132.5q0 48 33 91t92 78.5t132 63.5t162 51v2l-51 27q-80 44 -80 121q0 93 136 166v6q-52 17 -88 64t-50 98t-14 102q0 82 32 164.5t88 149t139.5 108t178.5 41.5zM512 928q-67 0 -133.5 -72.5t-108.5 -181t-47 -213.5q-11 -172 88 -172
q68 0 135 74.5t109.5 182.5t46.5 208q3 88 -16.5 131t-73.5 43zM418 -170l-142 76q-162 -56 -229 -102.5t-67 -112.5q0 -71 81 -116.5t246 -45.5q119 0 195.5 46.5t79.5 105.5q2 33 -31 64t-133 85zM485 1321q0 40 29.5 69t69.5 29t69 -29t29 -69t-29 -69t-69 -29t-69.5 29
t-29.5 69z" />
    <glyph glyph-name="Gcommaaccent" unicode="&#x122;" horiz-adv-x="1388" 
d="M262 532q0 -232 124 -374t302 -142q123 0 205 51t102 146l60 295l-211 37l6 35h512l-4 -35l-135 -37l-80 -406q-217 -139 -475 -139q-118 0 -223.5 44t-183.5 120t-123.5 185t-45.5 233q0 127 39 251t115 230.5t178.5 188t240 128t289.5 46.5q88 0 169 -19t129 -40
t118 -58l-72 -350h-38l-31 307q-116 108 -291 108q-120 0 -240.5 -60.5t-217 -163.5t-157.5 -256.5t-61 -324.5zM395 -528l-6 30q108 37 156.5 76t48.5 88q0 32 -26 53.5t-79 20.5v8q8 51 39.5 81t85.5 30t84.5 -33t30.5 -84q0 -199 -334 -270z" />
    <glyph glyph-name="gcommaaccent" unicode="&#x123;" horiz-adv-x="806" 
d="M524 977q32 0 65.5 -10t47.5 -21l287 27l-27 -113l-199 21l2 -9q39 -76 39 -172q0 -84 -33 -166.5t-89 -146.5t-137.5 -105t-170.5 -42q-35 -19 -55.5 -45.5t-20.5 -53.5q0 -29 21 -47l307 -168q94 -51 124 -92.5t30 -85.5q0 -68 -66.5 -132t-186 -106t-257.5 -42
q-184 0 -287.5 43.5t-103.5 132.5q0 48 33 91t92 78.5t132 63.5t162 51v2l-51 27q-80 44 -80 121q0 93 136 166v6q-52 17 -88 64t-50 98t-14 102q0 82 32 164.5t88 149t139.5 108t178.5 41.5zM512 928q-67 0 -133.5 -72.5t-108.5 -181t-47 -213.5q-11 -172 88 -172
q68 0 135 74.5t109.5 182.5t46.5 208q3 88 -16.5 131t-73.5 43zM418 -170l-142 76q-162 -56 -229 -102.5t-67 -112.5q0 -71 81 -116.5t246 -45.5q119 0 195.5 46.5t79.5 105.5q2 33 -31 64t-133 85zM795 1595l6 -30q-108 -37 -156.5 -76t-48.5 -88q0 -33 25.5 -54t78.5 -20
v-8q-8 -51 -39.5 -81t-85.5 -30t-84 33t-30 84q0 199 334 270z" />
    <glyph glyph-name="Hcircumflex" unicode="&#x124;" horiz-adv-x="1388" 
d="M752 0l8 37l176 35l121 616h-660l-121 -616l160 -35l-6 -37h-504l8 37l175 35l239 1216l-162 37l7 35h505l-6 -35l-176 -37l-106 -538h659l107 538l-162 37l6 35h504l-6 -35l-175 -37l-239 -1216l158 -35l-7 -37h-503zM666 1491h-70l287 260h104l184 -260h-59l-197 170z
" />
    <glyph glyph-name="hcircumflex" unicode="&#x125;" horiz-adv-x="954" 
d="M543 1528l-260 -983h12q49 86 102 159t113 136.5t125 100t125 36.5q72 0 99.5 -49.5t6.5 -124.5l-190 -684h6q108 80 209 221l29 -16q-81 -140 -178.5 -243.5t-159.5 -103.5q-38 0 -58.5 32t-1.5 95l199 695q6 28 -4.5 45.5t-36.5 17.5q-50 0 -117.5 -53t-136.5 -142.5
t-134 -221t-106 -275.5l-45 -160l-123 -35l-28 25l362 1368l-125 84l4 14zM494 1573h-70l287 260h104l184 -260h-59l-197 170z" />
    <glyph glyph-name="Hbar" unicode="&#x126;" horiz-adv-x="1388" 
d="M752 0l8 37l176 35l121 616h-660l-121 -616l160 -35l-6 -37h-504l8 37l175 35l186 946h-197l11 51h196l43 219l-162 37l7 35h505l-6 -35l-176 -37l-43 -219h660l43 219l-162 37l6 35h504l-6 -35l-175 -37l-43 -219h201l-12 -51h-199l-186 -946l158 -35l-7 -37h-503z
M463 1018l-53 -268h659l53 268h-659z" />
    <glyph glyph-name="hbar" unicode="&#x127;" horiz-adv-x="954" 
d="M160 1151l16 55h133l43 162l-125 84l4 14l312 62l-86 -322h379l-17 -55h-377l-159 -606h12q49 86 102 159t113 136.5t125 100t125 36.5q72 0 99.5 -49.5t6.5 -124.5l-190 -684h6q108 80 209 221l29 -16q-81 -140 -178.5 -243.5t-159.5 -103.5q-38 0 -58.5 32t-1.5 95
l199 695q6 28 -4.5 45.5t-36.5 17.5q-50 0 -117.5 -53t-136.5 -142.5t-134 -221t-106 -275.5l-45 -160l-123 -35l-28 25l305 1151h-135z" />
    <glyph glyph-name="Itilde" unicode="&#x128;" horiz-adv-x="561" 
d="M-74 0l8 37l175 35l239 1216l-162 37l7 35h503l-6 -35l-174 -37l-240 -1216l158 -35l-6 -37h-502zM209 1511l-27 11l11 28q83 232 280 144l115 -52q33 -15 51 -21t41 -7t39 10.5t35 36t39 65.5l28 -10l-12 -39q-81 -245 -279 -155l-110 53q-85 41 -126 31t-85 -95z" />
    <glyph glyph-name="itilde" unicode="&#x129;" horiz-adv-x="473" 
d="M129 1198l-27 12l11 29q24 67 54 106t63 50t63 7t67 -20l115 -51q36 -16 58 -21t46.5 0.5t45.5 30t43 70.5l28 -12l-12 -39q-28 -88 -70 -129.5t-93 -39t-113 29.5l-82 39q-78 42 -115.5 32t-81.5 -94zM254 852q-25 10 -67.5 11t-98.5 -13v22q114 105 207 105
q62 0 87.5 -44t4.5 -120l-194 -694h6q46 32 111 100t98 121l28 -16q-79 -136 -176.5 -241.5t-161.5 -105.5q-44 0 -60 36t1 93z" />
    <glyph glyph-name="Imacron" unicode="&#x12a;" horiz-adv-x="561" 
d="M256 1556l20 99h463l-20 -99h-463zM-68 0l9 37l174 35l239 1216l-161 37l6 35h503l-6 -35l-174 -37l-239 -1216l157 -35l-6 -37h-502z" />
    <glyph glyph-name="imacron" unicode="&#x12b;" horiz-adv-x="473" 
d="M172 1266l25 96h401l-25 -96h-401zM254 852q-25 10 -67.5 11t-98.5 -13v22q114 105 207 105q62 0 87.5 -44t4.5 -120l-194 -694h6q46 32 111 100t98 121l28 -16q-79 -136 -176.5 -241.5t-161.5 -105.5q-44 0 -60 36t1 93z" />
    <glyph glyph-name="Ibreve" unicode="&#x12c;" horiz-adv-x="561" 
d="M-74 0l8 37l175 35l239 1216l-162 37l7 35h503l-6 -35l-174 -37l-240 -1216l158 -35l-6 -37h-502zM492 1495q-109 0 -165.5 63t-62.5 199h35q35 -86 82 -124t129 -38q148 0 238 162h32q-25 -121 -101 -191.5t-187 -70.5z" />
    <glyph glyph-name="ibreve" unicode="&#x12d;" horiz-adv-x="473" 
d="M254 852q-25 10 -67.5 11t-98.5 -13v22q114 105 207 105q62 0 87.5 -44t4.5 -120l-194 -694h6q46 32 111 100t98 121l28 -16q-79 -136 -176.5 -241.5t-161.5 -105.5q-44 0 -60 36t1 93zM358 1151q-96 0 -140.5 81t-31.5 238h33q12 -110 50 -162.5t114 -52.5
q42 0 77.5 17.5t62.5 50t46 67t37 80.5h33q-27 -146 -96.5 -232.5t-184.5 -86.5z" />
    <glyph glyph-name="Iogonek" unicode="&#x12e;" horiz-adv-x="561" 
d="M-74 0l8 37l175 35l239 1216l-162 37l7 35h503l-6 -35l-174 -37l-240 -1216l158 -35l-6 -37h-223q-108 -124 -146.5 -189t-38.5 -126q0 -45 28 -70t67 -25q40 0 76.5 23.5t91.5 87.5l30 -16q-61 -91 -127 -143t-149 -52q-70 0 -108 43.5t-38 101.5q0 70 59.5 147.5
t199.5 217.5h-224z" />
    <glyph glyph-name="iogonek" unicode="&#x12f;" horiz-adv-x="473" 
d="M254 852q-25 10 -67.5 11t-98.5 -13v22q114 105 207 105q62 0 87.5 -44t4.5 -120l-194 -694h6q46 32 111 100t98 121l28 -16q-103 -170 -217 -281q-117 -112 -167.5 -166t-79.5 -104.5t-29 -98.5q0 -31 23.5 -57.5t66.5 -26.5q41 0 78.5 24.5t89.5 86.5l30 -16
q-134 -195 -276 -195q-69 0 -107 43t-38 102q0 54 38.5 109.5t80.5 92.5t157 128q8 7 12 10v5h-4q-37 0 -55 33.5t0 92.5zM276 1321q0 40 29.5 69t69.5 29t69 -29t29 -69t-29 -69t-69 -29t-69.5 29t-29.5 69z" />
    <glyph glyph-name="Idotaccent" unicode="&#x130;" horiz-adv-x="561" 
d="M-74 0l8 37l175 35l239 1216l-162 37l7 35h503l-6 -35l-174 -37l-240 -1216l158 -35l-6 -37h-502zM395 1651q0 40 29.5 69t69.5 29t69 -29t29 -69t-29 -69.5t-69 -29.5t-69.5 29.5t-29.5 69.5z" />
    <glyph glyph-name="dotlessi" unicode="&#x131;" horiz-adv-x="473" 
d="M254 852q-25 10 -67.5 11t-98.5 -13v22q114 105 207 105q62 0 87.5 -44t4.5 -120l-194 -694h6q46 32 111 100t98 121l28 -16q-79 -136 -176.5 -241.5t-161.5 -105.5q-44 0 -60 36t1 93z" />
    <glyph glyph-name="IJ" unicode="&#x132;" horiz-adv-x="1140" 
d="M-74 0l8 37l175 35l239 1216l-162 37l7 35h503l-6 -35l-174 -37l-240 -1216l158 -35l-6 -37h-502zM1096 1288l-240 -1218q-13 -68 -26.5 -117.5t-34 -101.5t-46 -89t-62.5 -72.5t-85 -61t-111.5 -46t-142.5 -33.5l-10 39q161 60 234 157.5t110 291.5l246 1251l-162 37
l6 35h504l-6 -35z" />
    <glyph glyph-name="ij" unicode="&#x133;" horiz-adv-x="923" 
d="M254 852q-25 10 -67.5 11t-98.5 -13v22q114 105 207 105q62 0 87.5 -44t4.5 -120l-194 -694h6q46 32 111 100t98 121l28 -16q-79 -136 -176.5 -241.5t-161.5 -105.5q-44 0 -60 36t1 93zM276 1321q0 40 29.5 69t69.5 29t69 -29t29 -69t-29 -69t-69 -29t-69.5 29t-29.5 69z
M475 -203l254 1055q-25 10 -67.5 11t-98.5 -13v22q114 105 207 105q62 0 86.5 -43t5.5 -121l-211 -893q-13 -57 -39.5 -118t-66.5 -121.5t-87 -108.5t-106 -77.5t-119 -29.5q-54 0 -100.5 32t-46.5 83q0 23 12 45.5t19 29.5l30 30q55 -81 91.5 -114.5t72.5 -33.5
q50 0 90 60.5t74 199.5zM750 1321q0 40 29 69t69 29t69 -29t29 -69t-29 -69t-69 -29t-69 29t-29 69z" />
    <glyph glyph-name="Jcircumflex" unicode="&#x134;" horiz-adv-x="579" 
d="M535 1288l-240 -1218q-13 -68 -26.5 -117.5t-34 -101.5t-46 -89t-62.5 -72.5t-85 -61t-111.5 -46t-142.5 -33.5l-10 39q161 60 234 157.5t110 291.5l246 1251l-162 37l6 35h504l-6 -35zM262 1491h-69l286 260h105l184 -260h-59l-197 170z" />
    <glyph glyph-name="jcircumflex" unicode="&#x135;" horiz-adv-x="450" 
d="M2 -203l254 1055q-25 10 -67.5 11t-98.5 -13v22q114 105 207 105q62 0 86.5 -43t5.5 -121l-211 -893q-13 -57 -39.5 -118t-66.5 -121.5t-87 -108.5t-106 -77.5t-119 -29.5q-54 0 -100.5 32t-46.5 83q0 23 12 45.5t19 29.5l30 30q55 -81 91.5 -114.5t72.5 -33.5
q50 0 90 60.5t74 199.5zM160 1114h-56l283 426h78l98 -426h-47l-119 279z" />
    <glyph glyph-name="Kcommaaccent" unicode="&#x136;" horiz-adv-x="1257" 
d="M-74 0l8 37l175 35l239 1216l-162 37l7 35h505l-6 -35l-176 -37l-240 -1216l160 -35l-6 -37h-504zM1192 35l-6 -35q-144 -15 -206 -1q-87 19 -170.5 112.5t-265.5 387.5l-134 218v4l688 561l-160 43l6 35h438l-6 -35l-176 -43l-643 -508q76 -119 120 -188t97.5 -149.5
t80 -120.5t63.5 -89t53.5 -68t45 -45.5t41.5 -33.5t40 -19t44 -15.5t50 -10.5zM381 -528l-6 30q108 37 156.5 76t48.5 88q0 32 -26 53.5t-79 20.5v8q8 51 39.5 81t85.5 30t84.5 -33t30.5 -84q0 -199 -334 -270z" />
    <glyph glyph-name="kcommaaccent" unicode="&#x137;" horiz-adv-x="864" 
d="M678 -68q-85 0 -154 86l-278 342q-38 -105 -53 -161l-52 -189l-123 -35l-28 25l362 1368l-125 84l4 14l312 62l-260 -983h10q219 432 450 432q58 0 98 -37t40 -98q0 -118 -118.5 -219t-377.5 -228l381 -432v-6q-31 -25 -88 -25zM664 860q-63 0 -141 -69.5t-148 -179.5
t-123 -238q237 114 359 213t122 196q0 78 -69 78zM100 -528l-6 30q108 37 156.5 76t48.5 88q0 33 -25.5 54t-78.5 20v8q8 52 39 81.5t85 29.5t84.5 -33t30.5 -84q0 -199 -334 -270z" />
    <glyph glyph-name="kgreenlandic" unicode="&#x138;" horiz-adv-x="882" 
d="M256 852q-26 11 -77 10.5t-89 -12.5v20q46 46 105.5 76.5t113.5 30.5q56 0 83.5 -42.5t6.5 -103.5l-98 -286h8q219 432 451 432q56 0 96.5 -37t40.5 -98q0 -118 -118.5 -218.5t-375.5 -226.5l381 -434v-6q-31 -25 -88 -25q-92 0 -161 86l-275 334q-33 -83 -49 -153
l-47 -189l-127 -35l-29 25zM680 860q-95 0 -213 -144t-199 -343q237 114 359.5 213t122.5 196q0 36 -17.5 57t-52.5 21z" />
    <glyph glyph-name="Lacute" unicode="&#x139;" horiz-adv-x="1093" 
d="M598 1772h158v-15l-281 -266h-49zM276 92q17 -19 44 -28t83 -9h345l247 367h39l-147 -422h-961l8 37l175 35l239 1216l-162 37l7 35h505l-6 -35l-176 -37z" />
    <glyph glyph-name="lacute" unicode="&#x13a;" horiz-adv-x="485" 
d="M434 324q-70 -126 -172 -236.5t-166 -110.5q-44 0 -59.5 35t0.5 92l336 1264l-125 84l4 14l311 62l-373 -1409h7q110 80 209 221zM639 1853h158v-14l-281 -266h-49z" />
    <glyph glyph-name="Lcommaaccent" unicode="&#x13b;" horiz-adv-x="1093" 
d="M244 -528l-6 30q107 37 155.5 76t48.5 88q0 33 -25.5 54t-78.5 20v8q8 51 39.5 81t85.5 30t84.5 -33t30.5 -84q0 -199 -334 -270zM276 92q17 -19 44 -28t83 -9h345l247 367h39l-147 -422h-961l8 37l175 35l239 1216l-162 37l7 35h505l-6 -35l-176 -37z" />
    <glyph glyph-name="lcommaaccent" unicode="&#x13c;" horiz-adv-x="485" 
d="M434 324q-70 -126 -172 -236.5t-166 -110.5q-44 0 -59.5 35t0.5 92l336 1264l-125 84l4 14l311 62l-373 -1409h7q110 80 209 221zM-145 -528l-7 30q108 37 156.5 76t48.5 88q0 33 -25.5 54t-78.5 20v8q8 51 39.5 81t85.5 30t84 -33t30 -84q0 -199 -333 -270z" />
    <glyph glyph-name="Lcaron" unicode="&#x13d;" horiz-adv-x="1093" 
d="M852 1090h-31l111 411h158l-3 -12zM276 92q17 -19 44 -28t83 -9h345l247 367h39l-147 -422h-961l8 37l175 35l239 1216l-162 37l7 35h505l-6 -35l-176 -37z" />
    <glyph glyph-name="lcaron" unicode="&#x13e;" horiz-adv-x="485" 
d="M598 1090h-31l111 411h158l-2 -12zM434 324q-70 -126 -172 -236.5t-166 -110.5q-44 0 -59.5 35t0.5 92l336 1264l-125 84l4 14l311 62l-373 -1409h7q110 80 209 221z" />
    <glyph glyph-name="Ldot" unicode="&#x13f;" horiz-adv-x="1093" 
d="M276 92q17 -19 44 -28t83 -9h345l247 367h39l-147 -422h-961l8 37l175 35l239 1216l-162 37l7 35h505l-6 -35l-176 -37zM829 754q0 44 31.5 75t75.5 31t75 -31t31 -75t-31 -75.5t-75 -31.5t-75.5 31.5t-31.5 75.5z" />
    <glyph glyph-name="ldot" unicode="&#x140;" horiz-adv-x="546" 
d="M557 651q-43 0 -72.5 30t-29.5 73t29.5 72.5t72.5 29.5t72.5 -29.5t29.5 -72.5t-29.5 -73t-72.5 -30zM434 324q-70 -126 -172 -236.5t-166 -110.5q-44 0 -59.5 35t0.5 92l336 1264l-125 84l4 14l311 62l-373 -1409h7q110 80 209 221z" />
    <glyph glyph-name="Lslash" unicode="&#x141;" horiz-adv-x="1093" 
d="M20 537l13 59l188 49l127 643l-162 37l7 35h505l-6 -35l-176 -37l-121 -598l502 129l-14 -59l-500 -129l-107 -539q17 -19 44 -28t83 -9h345l247 367h39l-147 -422h-961l8 37l175 35l100 514z" />
    <glyph glyph-name="lslash" unicode="&#x142;" horiz-adv-x="485" 
d="M23 600l16 62l168 86l166 620l-125 84l4 14l311 62l-184 -694l184 94l-16 -62l-185 -94l-172 -653h7q110 80 209 221l28 -16q-70 -126 -172 -236.5t-166 -110.5q-44 0 -59.5 35t0.5 92l153 582z" />
    <glyph glyph-name="Nacute" unicode="&#x143;" horiz-adv-x="1376" 
d="M1069 -29h-29l-649 1211l-209 -1108l160 -37l-6 -37h-408l9 37l174 37l231 1175q-34 45 -100 62l-60 14l6 35h293l572 -1067l186 991l-162 41l6 35h410l-6 -35l-174 -41l-203 -1036zM1012 1772h157v-15l-280 -266h-49z" />
    <glyph glyph-name="nacute" unicode="&#x144;" horiz-adv-x="976" 
d="M8 0l248 852q-26 11 -77 10.5t-89 -12.5v20q46 46 105.5 76.5t113.5 30.5q56 0 82.5 -42.5t7.5 -103.5l-84 -280h9q67 120 139 212t157 153t162 61q72 0 100 -50t7 -124l-191 -684h7q103 76 208 221l29 -16q-82 -141 -178.5 -244t-159.5 -103q-37 0 -57.5 32t-1.5 95
l198 695q6 28 -4.5 45.5t-36.5 17.5q-47 0 -112.5 -49t-133 -133t-132.5 -212.5t-107 -272.5l-53 -185l-127 -35zM780 1540h140v-20l-279 -406h-49z" />
    <glyph glyph-name="Ncommaaccent" unicode="&#x145;" horiz-adv-x="1376" 
d="M1069 -29h-29l-649 1211l-209 -1108l160 -37l-6 -37h-408l9 37l174 37l231 1175q-34 45 -100 62l-60 14l6 35h293l572 -1067l186 991l-162 41l6 35h410l-6 -35l-174 -41l-203 -1036zM389 -528l-6 30q108 37 156.5 76t48.5 88q0 32 -26 53.5t-79 20.5v8q8 51 39.5 81
t85.5 30t84.5 -33t30.5 -84q0 -199 -334 -270z" />
    <glyph glyph-name="ncommaaccent" unicode="&#x146;" horiz-adv-x="976" 
d="M8 0l248 852q-26 11 -77 10.5t-89 -12.5v20q46 46 105.5 76.5t113.5 30.5q56 0 82.5 -42.5t7.5 -103.5l-84 -280h9q67 120 139 212t157 153t162 61q72 0 100 -50t7 -124l-191 -684h7q103 76 208 221l29 -16q-82 -141 -178.5 -244t-159.5 -103q-37 0 -57.5 32t-1.5 95
l198 695q6 28 -4.5 45.5t-36.5 17.5q-47 0 -112.5 -49t-133 -133t-132.5 -212.5t-107 -272.5l-53 -185l-127 -35zM121 -528l-6 30q107 37 155.5 76t48.5 88q0 33 -25.5 54t-78.5 20v8q8 51 39.5 81t85.5 30t84.5 -33t30.5 -84q0 -199 -334 -270z" />
    <glyph glyph-name="Ncaron" unicode="&#x147;" horiz-adv-x="1376" 
d="M1069 -29h-29l-649 1211l-209 -1108l160 -37l-6 -37h-408l9 37l174 37l231 1175q-34 45 -100 62l-60 14l6 35h293l572 -1067l186 991l-162 41l6 35h410l-6 -35l-174 -41l-203 -1036zM1135 1751h69l-286 -260h-105l-184 260h59l197 -170z" />
    <glyph glyph-name="ncaron" unicode="&#x148;" horiz-adv-x="976" 
d="M8 0l248 852q-26 11 -77 10.5t-89 -12.5v20q46 46 105.5 76.5t113.5 30.5q56 0 82.5 -42.5t7.5 -103.5l-84 -280h9q67 120 139 212t157 153t162 61q72 0 100 -50t7 -124l-191 -684h7q103 76 208 221l29 -16q-82 -141 -178.5 -244t-159.5 -103q-37 0 -57.5 32t-1.5 95
l198 695q6 28 -4.5 45.5t-36.5 17.5q-47 0 -112.5 -49t-133 -133t-132.5 -212.5t-107 -272.5l-53 -185l-127 -35zM895 1540h55l-282 -426h-78l-98 426h47l116 -278z" />
    <glyph glyph-name="napostrophe" unicode="&#x149;" horiz-adv-x="976" 
d="M111 1120l-7 31q108 37 156.5 76t48.5 88q0 33 -25.5 54t-78.5 20v8q8 51 39.5 80.5t85.5 29.5t84 -32.5t30 -83.5q0 -200 -333 -271zM8 0l248 852q-26 11 -77 10.5t-89 -12.5v20q46 46 105.5 76.5t113.5 30.5q56 0 82.5 -42.5t7.5 -103.5l-84 -280h9q67 120 139 212
t157 153t162 61q72 0 100 -50t7 -124l-191 -684h7q103 76 208 221l29 -16q-82 -141 -178.5 -244t-159.5 -103q-37 0 -57.5 32t-1.5 95l198 695q6 28 -4.5 45.5t-36.5 17.5q-47 0 -112.5 -49t-133 -133t-132.5 -212.5t-107 -272.5l-53 -185l-127 -35z" />
    <glyph glyph-name="Eng" unicode="&#x14a;" horiz-adv-x="1376" 
d="M1313 1284l-240 -1214q-26 -129 -60 -212.5t-92 -148t-143 -101.5t-213 -59l-10 35q181 57 274.5 161t137.5 284l12 55l-588 1098l-209 -1108l160 -37l-6 -37h-408l9 37l174 37l231 1175q-38 48 -100 62l-60 14l6 35h293l572 -1065l186 989l-162 41l6 35h410l-6 -35z" />
    <glyph glyph-name="eng" unicode="&#x14b;" horiz-adv-x="948" 
d="M502 -203l235 977q25 88 -35 88q-47 0 -112.5 -49t-133 -133t-132.5 -212.5t-107 -272.5l-53 -185l-127 -35l-29 25l248 852q-26 11 -78 10.5t-88 -12.5v20q46 46 105.5 76.5t113.5 30.5q56 0 82.5 -42.5t7.5 -103.5l-84 -280h9q67 120 139 212t157 153t162 61
q76 0 99.5 -46.5t-2.5 -162.5l-207 -848q-18 -73 -54.5 -149.5t-88.5 -146.5t-123 -114.5t-146 -44.5q-53 0 -100 32.5t-47 82.5q0 15 3 27t11 24t13 18.5t18 19.5l16 16q55 -81 91.5 -114.5t72.5 -33.5q50 0 90 60.5t74 199.5z" />
    <glyph glyph-name="Omacron" unicode="&#x14c;" horiz-adv-x="1490" 
d="M891 1389q167 0 298 -79.5t201 -211.5t70 -291q0 -164 -62 -318.5t-167 -271.5t-254.5 -187.5t-314.5 -70.5q-160 0 -290.5 76.5t-205 210.5t-74.5 299q0 164 62 318t167.5 270t255 186t314.5 70zM1284 856q0 208 -104.5 343.5t-292.5 135.5q-121 0 -235.5 -70.5
t-198 -186t-134.5 -270.5t-51 -316q0 -208 105 -344t293 -136q163 0 307 122.5t227.5 317.5t83.5 404zM631 1556l20 99h574l-23 -99h-571z" />
    <glyph glyph-name="omacron" unicode="&#x14d;" horiz-adv-x="880" 
d="M561 936q-99 0 -188.5 -119t-139 -284.5t-49.5 -315.5q0 -205 117 -205q77 0 151 73t125.5 181t83 232t31.5 227q0 91 -34 151t-97 60zM571 977q72 0 125.5 -24.5t85 -69.5t47 -103t15.5 -131q0 -85 -23.5 -177.5t-71.5 -181.5t-112 -160.5t-152.5 -115t-185.5 -43.5
q-132 0 -199 95t-67 251q0 78 22.5 166.5t68.5 176.5t108.5 158.5t151 114.5t187.5 44zM362 1266l21 96h510l-23 -96h-508z" />
    <glyph glyph-name="Obreve" unicode="&#x14e;" horiz-adv-x="1490" 
d="M891 1389q167 0 298 -79.5t201 -211.5t70 -291q0 -164 -62 -318.5t-167 -271.5t-254.5 -187.5t-314.5 -70.5q-160 0 -290.5 76.5t-205 210.5t-74.5 299q0 164 62 318t167.5 270t255 186t314.5 70zM1284 856q0 208 -104.5 343.5t-292.5 135.5q-121 0 -235.5 -70.5
t-198 -186t-134.5 -270.5t-51 -316q0 -208 105 -344t293 -136q163 0 307 122.5t227.5 317.5t83.5 404zM918 1495q-109 0 -165.5 63t-62.5 199h35q35 -86 82 -124t129 -38q148 0 238 162h32q-25 -121 -101 -191.5t-187 -70.5z" />
    <glyph glyph-name="obreve" unicode="&#x14f;" horiz-adv-x="880" 
d="M561 936q-99 0 -188.5 -119t-139 -284.5t-49.5 -315.5q0 -205 117 -205q77 0 151 73t125.5 181t83 232t31.5 227q0 91 -34 151t-97 60zM571 977q72 0 125.5 -24.5t85 -69.5t47 -103t15.5 -131q0 -85 -23.5 -177.5t-71.5 -181.5t-112 -160.5t-152.5 -115t-185.5 -43.5
q-132 0 -199 95t-67 251q0 78 22.5 166.5t68.5 176.5t108.5 158.5t151 114.5t187.5 44zM610 1151q-96 0 -140.5 81t-31.5 238h33q12 -110 50 -162.5t114 -52.5q42 0 77.5 17.5t62.5 50t46 67t37 80.5h33q-27 -146 -96.5 -232.5t-184.5 -86.5z" />
    <glyph glyph-name="Ohungarumlaut" unicode="&#x150;" horiz-adv-x="1490" 
d="M891 1389q167 0 298 -79.5t201 -211.5t70 -291q0 -164 -62 -318.5t-167 -271.5t-254.5 -187.5t-314.5 -70.5q-160 0 -290.5 76.5t-205 210.5t-74.5 299q0 164 62 318t167.5 270t255 186t314.5 70zM1284 856q0 208 -104.5 343.5t-292.5 135.5q-121 0 -235.5 -70.5
t-198 -186t-134.5 -270.5t-51 -316q0 -208 105 -344t293 -136q163 0 307 122.5t227.5 317.5t83.5 404zM1307 1772v-17l-236 -264h-57l155 281h138zM985 1772v-17l-235 -264h-56l156 281h135z" />
    <glyph glyph-name="ohungarumlaut" unicode="&#x151;" horiz-adv-x="880" 
d="M561 936q-99 0 -188.5 -119t-139 -284.5t-49.5 -315.5q0 -205 117 -205q77 0 151 73t125.5 181t83 232t31.5 227q0 91 -34 151t-97 60zM571 977q72 0 125.5 -24.5t85 -69.5t47 -103t15.5 -131q0 -85 -23.5 -177.5t-71.5 -181.5t-112 -160.5t-152.5 -115t-185.5 -43.5
q-132 0 -199 95t-67 251q0 78 22.5 166.5t68.5 176.5t108.5 158.5t151 114.5t187.5 44zM594 1540h131v-18l-256 -408h-49zM883 1540h129v-18l-256 -408h-49z" />
    <glyph glyph-name="OE" unicode="&#x152;" horiz-adv-x="1935" 
d="M1714 0h-557q-123 0 -261 -5t-224 -7q-94 -2 -179.5 19t-159 67.5t-127 114t-84 164t-30.5 212.5q0 170 68.5 321t184.5 257t273.5 167.5t331.5 61.5q84 0 231 -6t332 -6h297l123 10l-51 -387h-33l-57 322h-467l-111 -564h302l106 220h35l-96 -490h-35l-23 207h-301
l-115 -586q18 -20 46 -28.5t84 -8.5h368l225 340h39zM956 238l201 1038q-109 51 -262 51q-103 0 -200.5 -45.5t-173 -123t-133 -176.5t-88 -211.5t-30.5 -221.5q0 -84 12 -157.5t41.5 -141t74 -116t115 -77t159.5 -28.5q244 0 284 209z" />
    <glyph glyph-name="oe" unicode="&#x153;" horiz-adv-x="1349" 
d="M870 -29q-86 0 -142.5 50.5t-78.5 140.5q-149 -191 -348 -191q-132 0 -199 95t-67 251q0 78 22.5 166.5t68.5 176.5t108.5 158.5t151 114.5t187.5 44q63 0 110 -21.5t75.5 -59.5t44.5 -81.5t22 -97.5q92 117 200.5 188.5t215.5 71.5q69 0 107 -33.5t38 -91.5
q0 -81 -91.5 -161t-222.5 -134.5t-265 -77.5q-23 -87 -23 -168q0 -105 40 -165t116 -60q143 0 270 213l37 -14q-63 -136 -160.5 -225t-216.5 -89zM563 936q-99 0 -188.5 -119t-139 -284.5t-49.5 -315.5q0 -205 117 -205q77 0 151 73t125.5 181t83 232t31.5 227q0 91 -34 151
t-97 60zM1153 907q-76 0 -178 -112.5t-154 -268.5q85 16 175.5 64t155.5 118.5t65 137.5q0 29 -18 45t-46 16z" />
    <glyph glyph-name="Racute" unicode="&#x154;" horiz-adv-x="1214" 
d="M-74 0l8 37l175 35l239 1216l-162 37l7 35h464q194 0 314.5 -80t120.5 -217q0 -68 -24 -125.5t-61 -97t-89 -71t-101.5 -50.5t-105.5 -33q41 -100 65 -159t54 -127t46 -103t40 -77t36 -60t35 -42t36.5 -32t40 -20.5t46.5 -18t55 -14.5l-6 -33q-73 -7 -109 -10t-83.5 3.5
t-68.5 16.5t-56.5 43.5t-54.5 69.5t-55.5 109t-67 148t-81.5 200q-6 15 -9.5 23.5t-8.5 21.5t-10 24h-166l-113 -577l189 -39l-6 -33h-533zM520 1319l-121 -617q247 -13 384 80.5t137 255.5q0 129 -99.5 208.5t-300.5 72.5zM844 1772h157v-15l-280 -266h-49z" />
    <glyph glyph-name="racute" unicode="&#x155;" horiz-adv-x="716" 
d="M10 0l70 240q54 184 97 337t59 214l16 61q-26 11 -77 10.5t-89 -12.5v20q46 46 105.5 76.5t113.5 30.5q63 0 85.5 -46.5t-1.5 -117.5l-110 -350h16q74 157 135.5 261.5t111 158t88 74t79.5 20.5t65.5 -23.5t24.5 -62.5q0 -43 -31 -93.5t-74 -88.5h-35q45 139 -30 139
q-46 0 -124.5 -103t-153.5 -251t-120 -283l-65 -201l-127 -35zM694 1540h140v-20l-279 -406h-49z" />
    <glyph glyph-name="Rcommaaccent" unicode="&#x156;" horiz-adv-x="1280" 
d="M-74 0l8 37l175 35l239 1216l-162 37l7 35h464q194 0 314.5 -80t120.5 -217q0 -68 -24 -125.5t-61 -97t-89 -71t-101.5 -50.5t-105.5 -33q41 -100 65 -159t54 -127t46 -103t40 -77t36 -60t35 -42t36.5 -32t40 -20.5t46.5 -18t55 -14.5l-6 -33q-73 -7 -109 -10t-83.5 3.5
t-68.5 16.5t-56.5 43.5t-54.5 69.5t-55.5 109t-67 148t-81.5 200q-6 15 -9.5 23.5t-8.5 21.5t-10 24h-166l-113 -577l189 -39l-6 -33h-533zM520 1319l-121 -617q247 -13 384 80.5t137 255.5q0 129 -99.5 208.5t-300.5 72.5zM383 -528l-6 30q108 37 156.5 76t48.5 88
q0 32 -26 53.5t-79 20.5v8q8 51 39.5 81t85.5 30t84.5 -33t30.5 -84q0 -199 -334 -270z" />
    <glyph glyph-name="rcommaaccent" unicode="&#x157;" horiz-adv-x="696" 
d="M-174 -528l-6 30q108 37 156.5 76t48.5 88q0 32 -26 53.5t-79 20.5v8q8 51 39.5 81t85.5 30t84.5 -33t30.5 -84q0 -199 -334 -270zM10 0l70 240q54 184 97 337t59 214l16 61q-26 11 -77 10.5t-89 -12.5v20q46 46 105.5 76.5t113.5 30.5q63 0 85.5 -46.5t-1.5 -117.5
l-110 -350h16q74 157 135.5 261.5t111 158t88 74t79.5 20.5t65.5 -23.5t24.5 -62.5q0 -43 -31 -93.5t-74 -88.5h-35q45 139 -30 139q-46 0 -124.5 -103t-153.5 -251t-120 -283l-65 -201l-127 -35z" />
    <glyph glyph-name="Rcaron" unicode="&#x158;" horiz-adv-x="1214" 
d="M-74 0l8 37l175 35l239 1216l-162 37l7 35h464q194 0 314.5 -80t120.5 -217q0 -68 -24 -125.5t-61 -97t-89 -71t-101.5 -50.5t-105.5 -33q41 -100 65 -159t54 -127t46 -103t40 -77t36 -60t35 -42t36.5 -32t40 -20.5t46.5 -18t55 -14.5l-6 -33q-73 -7 -109 -10t-83.5 3.5
t-68.5 16.5t-56.5 43.5t-54.5 69.5t-55.5 109t-67 148t-81.5 200q-6 15 -9.5 23.5t-8.5 21.5t-10 24h-166l-113 -577l189 -39l-6 -33h-533zM520 1319l-121 -617q247 -13 384 80.5t137 255.5q0 129 -99.5 208.5t-300.5 72.5zM977 1751h70l-287 -260h-105l-184 260h59
l197 -170z" />
    <glyph glyph-name="rcaron" unicode="&#x159;" horiz-adv-x="716" 
d="M10 0l70 240q54 184 97 337t59 214l16 61q-26 11 -77 10.5t-89 -12.5v20q46 46 105.5 76.5t113.5 30.5q63 0 85.5 -46.5t-1.5 -117.5l-110 -350h16q74 157 135.5 261.5t111 158t88 74t79.5 20.5t65.5 -23.5t24.5 -62.5q0 -43 -31 -93.5t-74 -88.5h-35q45 139 -30 139
q-46 0 -124.5 -103t-153.5 -251t-120 -283l-65 -201l-127 -35zM807 1540h55l-282 -426h-78l-99 426h48l116 -278z" />
    <glyph glyph-name="Sacute" unicode="&#x15a;" horiz-adv-x="983" 
d="M92 459h31l22 -324q58 -51 119 -79.5t144 -28.5q86 0 159.5 32t121.5 98.5t48 155.5q0 88 -51.5 158t-161.5 143l-71 48q-136 91 -187 159.5t-51 173.5q0 103 67 194t182.5 145.5t248.5 54.5q124 0 299 -66l-74 -360h-33l-12 288q-109 78 -231 78q-132 0 -213.5 -75
t-81.5 -185q0 -63 21.5 -109t57.5 -78.5t107 -80.5l51 -33q158 -104 226.5 -185.5t68.5 -185.5q0 -115 -72 -214.5t-191.5 -156.5t-254.5 -57q-92 0 -190 30t-168 67zM838 1772h157v-15l-280 -266h-49z" />
    <glyph glyph-name="sacute" unicode="&#x15b;" horiz-adv-x="602" 
d="M500 258q0 -60 -48 -126.5t-129 -113.5t-165 -47q-95 0 -149 45.5t-52 98.5q0 30 14.5 60t30.5 42h2q47 -69 113.5 -115.5t132.5 -46.5q52 0 84.5 34.5t32.5 82.5q0 25 -12.5 56t-21 46t-34.5 56l-86 145q-71 120 -81 147q-11 29 -11 64q0 57 37.5 112.5t92 93.5
t115 61.5t107.5 23.5q80 0 114 -32t34 -81q0 -50 -39 -98h-4q-57 62 -105 93.5t-102 31.5q-47 0 -83 -34t-36 -85q0 -32 10 -57.5t47 -87.5l107 -174q38 -61 50.5 -83t23 -52t10.5 -60zM631 1540h139v-20l-278 -406h-50z" />
    <glyph glyph-name="Scircumflex" unicode="&#x15c;" horiz-adv-x="983" 
d="M92 459h31l22 -324q58 -51 119 -79.5t144 -28.5q86 0 159.5 32t121.5 98.5t48 155.5q0 88 -51.5 158t-161.5 143l-71 48q-136 91 -187 159.5t-51 173.5q0 103 67 194t182.5 145.5t248.5 54.5q124 0 299 -66l-74 -360h-33l-12 288q-109 78 -231 78q-132 0 -213.5 -75
t-81.5 -185q0 -63 21.5 -109t57.5 -78.5t107 -80.5l51 -33q158 -104 226.5 -185.5t68.5 -185.5q0 -115 -72 -214.5t-191.5 -156.5t-254.5 -57q-92 0 -190 30t-168 67zM473 1491h-70l287 260h105l184 -260h-59l-197 170z" />
    <glyph glyph-name="scircumflex" unicode="&#x15d;" horiz-adv-x="602" 
d="M500 258q0 -60 -48 -126.5t-129 -113.5t-165 -47q-95 0 -149 45.5t-52 98.5q0 30 14.5 60t30.5 42h2q47 -69 113.5 -115.5t132.5 -46.5q52 0 84.5 34.5t32.5 82.5q0 25 -12.5 56t-21 46t-34.5 56l-86 145q-71 120 -81 147q-11 29 -11 64q0 57 37.5 112.5t92 93.5
t115 61.5t107.5 23.5q80 0 114 -32t34 -81q0 -50 -39 -98h-4q-57 62 -105 93.5t-102 31.5q-47 0 -83 -34t-36 -85q0 -32 10 -57.5t47 -87.5l107 -174q38 -61 50.5 -83t23 -52t10.5 -60zM285 1114h-56l283 426h78l98 -426h-47l-119 279z" />
    <glyph glyph-name="Scedilla" unicode="&#x15e;" horiz-adv-x="983" 
d="M133 -524l2 30q33 9 65.5 22.5t67 34.5t55.5 52.5t21 67.5q0 24 -8.5 42.5t-26.5 31t-25.5 16t-25.5 10.5q82 120 127 186h-4q-92 0 -190 30t-168 67l69 393h31l22 -324q58 -51 119 -79.5t144 -28.5q86 0 159.5 32t121.5 98.5t48 155.5q0 88 -51.5 158t-161.5 143l-71 48
q-135 88 -186.5 158t-51.5 175q0 103 67 194t182.5 145.5t248.5 54.5q124 0 299 -66l-74 -360h-33l-12 288q-109 78 -231 78q-132 0 -213.5 -75t-81.5 -185q0 -91 41 -147t145 -121l51 -33q156 -100 225 -183.5t70 -187.5q0 -162 -135.5 -284.5t-325.5 -141.5l-69 -106
q51 -18 79.5 -54t28.5 -77q0 -44 -16.5 -80.5t-46.5 -62.5t-62.5 -45.5t-76 -33.5t-74 -21.5t-68.5 -14.5z" />
    <glyph glyph-name="scedilla" unicode="&#x15f;" horiz-adv-x="602" 
d="M-129 -524l2 30q33 9 65.5 22.5t67 34.5t55.5 52.5t21 67.5q0 24 -8.5 42.5t-26.5 31t-25.5 16t-25.5 10.5l129 190q-81 7 -125.5 50t-42.5 92q0 30 14.5 60t30.5 42h2q47 -69 113.5 -115.5t132.5 -46.5q52 0 84.5 34.5t32.5 82.5q0 25 -12.5 56t-21 46t-34.5 56l-86 145
q-71 120 -81 147q-11 29 -11 64q0 57 37.5 112.5t92 93.5t115 61.5t107.5 23.5q80 0 114 -32t34 -81q0 -50 -39 -98h-4q-57 62 -105 93.5t-102 31.5q-47 0 -83 -34t-36 -85q0 -32 10 -57.5t47 -87.5l107 -174q38 -61 50.5 -83t23 -52t10.5 -60q0 -90 -100.5 -184
t-223.5 -103l-70 -106q51 -18 80 -54t29 -77q0 -44 -16.5 -80.5t-46.5 -62.5t-62.5 -45.5t-76 -33.5t-74 -21.5t-68.5 -14.5z" />
    <glyph glyph-name="Scaron" unicode="&#x160;" horiz-adv-x="983" 
d="M92 459h31l22 -324q58 -51 119 -79.5t144 -28.5q86 0 159.5 32t121.5 98.5t48 155.5q0 88 -51.5 158t-161.5 143l-71 48q-136 91 -187 159.5t-51 173.5q0 103 67 194t182.5 145.5t248.5 54.5q124 0 299 -66l-74 -360h-33l-12 288q-109 78 -231 78q-132 0 -213.5 -75
t-81.5 -185q0 -92 40 -145.5t146 -122.5l53 -35q159 -103 226 -184t67 -185q0 -115 -72 -214.5t-191.5 -156.5t-254.5 -57q-92 0 -190 30t-168 67zM961 1751h69l-287 -260h-104l-184 260h59l197 -170z" />
    <glyph glyph-name="scaron" unicode="&#x161;" horiz-adv-x="602" 
d="M500 258q0 -60 -48 -126.5t-129 -113.5t-165 -47q-95 0 -149 45.5t-52 98.5q0 30 14.5 60t30.5 42h2q47 -69 113.5 -115.5t132.5 -46.5q52 0 84.5 34.5t32.5 82.5q0 25 -12.5 56t-21 46t-34.5 56l-86 145q-71 120 -81 147q-11 29 -11 64q0 57 37.5 112.5t92 93.5
t115 61.5t107.5 23.5q80 0 114 -32t34 -81q0 -50 -39 -98h-4q-57 62 -105 93.5t-102 31.5q-47 0 -83 -34t-36 -85q0 -32 10 -57.5t47 -87.5l107 -174q38 -61 50.5 -83t23 -52t10.5 -60zM723 1540h55l-282 -426h-78l-99 426h48l116 -278z" />
    <glyph glyph-name="Tcommaaccent" unicode="&#x162;" horiz-adv-x="1232" 
d="M350 1360h869l120 12l-98 -389h-35l-2 322h-352l-244 -1233l180 -35l-6 -37h-544l8 37l194 35l244 1233h-336l-149 -322h-35l63 389zM260 -528l-6 30q108 37 156.5 76t48.5 88q0 32 -26 53.5t-79 20.5v8q8 51 39.5 81t85.5 30t84.5 -33t30.5 -84q0 -199 -334 -270z" />
    <glyph glyph-name="tcommaaccent" unicode="&#x163;" horiz-adv-x="604" 
d="M72 870l8 45l178 33l123 281h80l-62 -281h289l-16 -78h-291l-199 -751h4q54 20 138 94.5t161 171.5l31 -23q-92 -147 -213 -266t-213 -119q-37 0 -56.5 31t-10.5 70l210 792h-161zM-164 -528l-6 30q108 37 156.5 76t48.5 88q0 32 -26 53.5t-79 20.5v8q8 51 39.5 81
t85.5 30t84.5 -33t30.5 -84q0 -199 -334 -270z" />
    <glyph glyph-name="Tcaron" unicode="&#x164;" horiz-adv-x="1232" 
d="M350 1360h869l120 12l-98 -389h-35l-2 322h-352l-244 -1233l180 -35l-6 -37h-544l8 37l194 35l244 1233h-336l-149 -322h-35l63 389zM1083 1751h70l-287 -260h-104l-184 260h59l197 -170z" />
    <glyph glyph-name="tcaron" unicode="&#x165;" horiz-adv-x="604" 
d="M596 1085h-31l111 412h158l-3 -12zM72 870l8 45l178 33l123 281h80l-62 -281h289l-16 -78h-291l-199 -751h4q54 20 138 94.5t161 171.5l31 -23q-92 -147 -213 -266t-213 -119q-37 0 -56.5 31t-10.5 70l210 792h-161z" />
    <glyph glyph-name="Tbar" unicode="&#x166;" horiz-adv-x="1232" 
d="M260 707l12 55h306l106 543h-336l-149 -322h-35l63 389l123 -12h869l120 12l-98 -389h-35l-2 322h-352l-107 -543h336l-10 -55h-338l-125 -635l180 -35l-6 -37h-544l8 37l194 35l125 635h-305z" />
    <glyph glyph-name="tbar" unicode="&#x167;" horiz-adv-x="604" 
d="M72 870l8 45l178 33l123 281h80l-62 -281h289l-16 -78h-291l-62 -233h306l-15 -72h-311l-117 -446h4q54 20 138 94.5t161 171.5l31 -23q-92 -147 -213 -266t-213 -119q-37 0 -56.5 31t-10.5 70l129 487h-127l10 72h137l61 233h-161z" />
    <glyph glyph-name="Utilde" unicode="&#x168;" horiz-adv-x="1308" 
d="M584 -29q-93 0 -168.5 21.5t-136.5 68t-94.5 120.5t-42 178.5t21.5 242.5l141 686l-135 37l6 35h479l-6 -35l-176 -37l-151 -735q-24 -125 -11.5 -216t58 -150t111.5 -88t151 -29q183 0 300 115.5t167 383.5l137 715l-160 41l6 35h383l-6 -35l-149 -43l-152 -758
q-50 -258 -192.5 -405.5t-380.5 -147.5zM604 1511l-26 11l10 28q83 232 280 144l115 -52q33 -15 51 -21t41 -7t39 10.5t35 36t39 65.5l29 -10l-13 -39q-30 -89 -73.5 -133.5t-94 -45.5t-110.5 24l-111 53q-85 41 -126 31t-85 -95z" />
    <glyph glyph-name="utilde" unicode="&#x169;" horiz-adv-x="991" 
d="M55 129l195 723q-26 11 -77 10.5t-89 -12.5v20q46 46 105.5 76.5t113.5 30.5q59 0 79.5 -46t2.5 -114l-178 -672q-3 -24 9 -40.5t38 -16.5q64 0 168 115t193 273.5t120 281.5l49 190l136 13l14 -17l-219 -825h6q46 33 107.5 98t101.5 123l28 -16q-79 -137 -175.5 -242
t-161.5 -105q-37 0 -58 30t-4 91l105 373h-9q-37 -69 -65 -118.5t-68 -112.5t-77.5 -106t-81 -82.5t-90.5 -59t-95 -19.5q-62 0 -101.5 42.5t-21.5 113.5zM362 1204l-26 10l10 29q83 232 281 143l114 -51q33 -15 51 -21t41 -7t39 10.5t35 36t39 65.5l29 -10l-12 -39
q-81 -246 -279 -156l-111 54q-85 41 -126 31t-85 -95z" />
    <glyph glyph-name="Umacron" unicode="&#x16a;" horiz-adv-x="1308" 
d="M584 -29q-93 0 -168.5 21.5t-136.5 68t-94.5 120.5t-42 178.5t21.5 242.5l141 686l-135 37l6 35h479l-6 -35l-176 -37l-151 -735q-24 -125 -11.5 -216t58 -150t111.5 -88t151 -29q183 0 300 115.5t167 383.5l137 715l-160 41l6 35h383l-6 -35l-149 -43l-152 -758
q-50 -258 -192.5 -405.5t-380.5 -147.5zM602 1556l21 99h573l-22 -99h-572z" />
    <glyph glyph-name="umacron" unicode="&#x16b;" horiz-adv-x="991" 
d="M397 1266l21 96h489l-22 -96h-488zM55 129l195 723q-26 11 -77 10.5t-89 -12.5v20q46 46 105.5 76.5t113.5 30.5q59 0 79.5 -46t2.5 -114l-178 -672q-3 -24 9 -40.5t38 -16.5q64 0 168 115t193 273.5t120 281.5l49 190l136 13l14 -17l-219 -825h6q46 33 107.5 98
t101.5 123l28 -16q-79 -137 -175.5 -242t-161.5 -105q-37 0 -58 30t-4 91l105 373h-9q-37 -69 -65 -118.5t-68 -112.5t-77.5 -106t-81 -82.5t-90.5 -59t-95 -19.5q-62 0 -101.5 42.5t-21.5 113.5z" />
    <glyph glyph-name="Ubreve" unicode="&#x16c;" horiz-adv-x="1308" 
d="M584 -29q-93 0 -168.5 21.5t-136.5 68t-94.5 120.5t-42 178.5t21.5 242.5l141 686l-135 37l6 35h479l-6 -35l-176 -37l-151 -735q-24 -125 -11.5 -216t58 -150t111.5 -88t151 -29q183 0 300 115.5t167 383.5l137 715l-160 41l6 35h383l-6 -35l-149 -43l-152 -758
q-50 -258 -192.5 -405.5t-380.5 -147.5zM877 1495q-109 0 -165.5 63t-62.5 199h35q35 -86 82 -124t129 -38q148 0 238 162h32q-25 -121 -101 -191.5t-187 -70.5z" />
    <glyph glyph-name="ubreve" unicode="&#x16d;" horiz-adv-x="991" 
d="M55 129l195 723q-26 11 -77 10.5t-89 -12.5v20q46 46 105.5 76.5t113.5 30.5q59 0 79.5 -46t2.5 -114l-178 -672q-3 -24 9 -40.5t38 -16.5q64 0 168 115t193 273.5t120 281.5l49 190l136 13l14 -17l-219 -825h6q46 33 107.5 98t101.5 123l28 -16q-79 -137 -175.5 -242
t-161.5 -105q-37 0 -58 30t-4 91l105 373h-9q-37 -69 -65 -118.5t-68 -112.5t-77.5 -106t-81 -82.5t-90.5 -59t-95 -19.5q-62 0 -101.5 42.5t-21.5 113.5zM627 1151q-96 0 -140.5 81t-31.5 238h32q12 -110 50 -162.5t114 -52.5q42 0 77.5 17.5t62.5 50t46 67t37 80.5h33
q-27 -146 -96 -232.5t-184 -86.5z" />
    <glyph glyph-name="Uring" unicode="&#x16e;" horiz-adv-x="1308" 
d="M584 -29q-93 0 -168.5 21.5t-136.5 68t-94.5 120.5t-42 178.5t21.5 242.5l141 686l-135 37l6 35h479l-6 -35l-176 -37l-151 -735q-24 -125 -11.5 -216t58 -150t111.5 -88t151 -29q183 0 300 115.5t167 383.5l137 715l-160 41l6 35h383l-6 -35l-149 -43l-152 -758
q-50 -258 -192.5 -405.5t-380.5 -147.5zM690 1669q0 87 58.5 143t144.5 56q89 0 147 -55.5t58 -143.5q0 -87 -58.5 -144t-144.5 -57q-89 0 -147 56t-58 145zM754 1669q0 -62 40.5 -104.5t98.5 -42.5q59 0 101 42.5t42 104.5t-41.5 105t-99.5 43q-59 0 -100 -42.5t-41 -105.5
z" />
    <glyph glyph-name="uring" unicode="&#x16f;" horiz-adv-x="991" 
d="M55 129l195 723q-26 11 -77 10.5t-89 -12.5v20q46 46 105.5 76.5t113.5 30.5q59 0 79.5 -46t2.5 -114l-178 -672q-3 -24 9 -40.5t38 -16.5q64 0 168 115t193 273.5t120 281.5l49 190l136 13l14 -17l-219 -825h6q46 33 107.5 98t101.5 123l28 -16q-79 -137 -175.5 -242
t-161.5 -105q-37 0 -58 30t-4 91l105 373h-9q-37 -69 -65 -118.5t-68 -112.5t-77.5 -106t-81 -82.5t-90.5 -59t-95 -19.5q-62 0 -101.5 42.5t-21.5 113.5zM436 1343q0 87 58.5 143t144.5 56q89 0 147 -55.5t58 -143.5q0 -87 -58.5 -143.5t-144.5 -56.5q-89 0 -147 56
t-58 144zM500 1343q0 -62 40.5 -104.5t98.5 -42.5q59 0 101 42.5t42 104.5t-41.5 105t-99.5 43q-59 0 -100 -42.5t-41 -105.5z" />
    <glyph glyph-name="Uhungarumlaut" unicode="&#x170;" horiz-adv-x="1308" 
d="M584 -29q-93 0 -168.5 21.5t-136.5 68t-94.5 120.5t-42 178.5t21.5 242.5l141 686l-135 37l6 35h479l-6 -35l-176 -37l-151 -735q-24 -125 -11.5 -216t58 -150t111.5 -88t151 -29q183 0 300 115.5t167 383.5l137 715l-160 41l6 35h383l-6 -35l-149 -43l-152 -758
q-50 -258 -192.5 -405.5t-380.5 -147.5zM1278 1772v-17l-236 -264h-57l156 281h137zM956 1772v-17l-235 -264h-55l155 281h135z" />
    <glyph glyph-name="uhungarumlaut" unicode="&#x171;" horiz-adv-x="991" 
d="M55 129l195 723q-26 11 -77 10.5t-89 -12.5v20q46 46 105.5 76.5t113.5 30.5q59 0 79.5 -46t2.5 -114l-178 -672q-3 -24 9 -40.5t38 -16.5q64 0 168 115t193 273.5t120 281.5l49 190l136 13l14 -17l-219 -825h6q46 33 107.5 98t101.5 123l28 -16q-79 -137 -175.5 -242
t-161.5 -105q-37 0 -58 30t-4 91l105 373h-9q-37 -69 -65 -118.5t-68 -112.5t-77.5 -106t-81 -82.5t-90.5 -59t-95 -19.5q-62 0 -101.5 42.5t-21.5 113.5zM621 1540h131v-18l-256 -408h-50zM909 1540h129v-18l-256 -408h-49z" />
    <glyph glyph-name="Uogonek" unicode="&#x172;" horiz-adv-x="1308" 
d="M584 -29q-93 0 -168.5 21.5t-136.5 68t-94.5 120.5t-42 178.5t21.5 242.5l141 686l-135 37l6 35h479l-6 -35l-176 -37l-151 -735q-24 -125 -11.5 -216t58 -150t111.5 -88t151 -29q183 0 300 115.5t167 383.5l137 715l-160 41l6 35h383l-6 -35l-149 -43l-152 -758
q-46 -241 -174 -386t-338 -163q-129 -125 -168 -187t-39 -114q0 -38 26.5 -61t63.5 -23q42 0 78.5 23.5t89.5 87.5l31 -16q-127 -195 -276 -195q-65 0 -105.5 42t-40.5 103q0 76 63 145t220 191h-4z" />
    <glyph glyph-name="uogonek" unicode="&#x173;" horiz-adv-x="991" 
d="M621 -20h-5q-37 0 -54 33t-3 87l105 371h-9q-37 -69 -65 -118.5t-68 -112.5t-77.5 -106t-81 -82.5t-90.5 -59t-95 -19.5q-60 0 -101 43.5t-22 114.5l195 721q-26 11 -77 10.5t-89 -12.5v20q46 46 105.5 76.5t113.5 30.5q59 0 79.5 -46t2.5 -114l-178 -672q-3 -24 9 -40.5
t38 -16.5q64 0 167.5 115t192 273.5t121.5 281.5l49 190l136 13l14 -17l-219 -825h6q46 32 111 100t98 121l28 -16q-107 -176 -217 -281q-117 -112 -167.5 -166t-79.5 -104.5t-29 -98.5q0 -31 23.5 -57.5t66.5 -26.5q41 0 78.5 24.5t89.5 86.5l31 -16q-134 -195 -277 -195
q-69 0 -107 43t-38 102q0 41 17 78t54.5 76t84.5 78.5t117 95.5q11 8 16 12v5z" />
    <glyph glyph-name="Wcircumflex" unicode="&#x174;" horiz-adv-x="1683" 
d="M1049 -12l-129 989l-517 -989h-69l-125 1304l-115 33l6 35h457l-6 -35l-176 -37l92 -1061l438 850l-26 215l-142 33l6 35h482l-6 -35l-179 -37l131 -1077l492 1077l-164 37l6 35h383l-8 -35l-127 -39l-631 -1298h-73zM776 1491h-69l286 260h105l184 -260h-59l-197 170z
" />
    <glyph glyph-name="wcircumflex" unicode="&#x175;" horiz-adv-x="1261" 
d="M791 807l6 -655h6q202 256 279 392.5t77 215.5q0 52 -32.5 82t-84.5 30q-50 0 -108 -20v22q109 103 201 103q60 0 97.5 -37.5t37.5 -97.5q0 -94 -65.5 -208t-276.5 -390l-209 -273h-17l-53 23l6 498h-6q-36 -51 -134 -182t-157 -216l-84 -123h-18l-57 23l-2 854
q-37 14 -82 14q-48 0 -82 -10v22q115 103 209 103q59 0 84 -36.5t24 -129.5l-8 -661h6q230 316 303 432l-4 258q-26 26 -80 26q-33 0 -84 -14v22q112 103 209 103q52 0 75 -38.5t24 -131.5zM549 1114h-55l282 426h78l98 -426h-47l-119 279z" />
    <glyph glyph-name="Ycircumflex" unicode="&#x176;" horiz-adv-x="1212" 
d="M1231 1286l-506 -680l-107 -534l158 -35l-6 -37h-502l8 37l175 35l104 522l-272 698l-115 33l6 35h465l-6 -35l-176 -37l231 -626h6l451 626l-164 37l6 35h379l-8 -35zM606 1491h-69l286 260h105l184 -260h-59l-197 170z" />
    <glyph glyph-name="ycircumflex" unicode="&#x177;" horiz-adv-x="890" 
d="M61 625h-36q15 154 81.5 253.5t155.5 98.5q97 -2 154 -127.5t57 -341.5q0 -304 -92 -576h10q165 186 263 385.5t98 378.5q0 135 -88 252q51 31 106 31q41 0 68 -35.5t26 -114.5q-1 -119 -37.5 -247t-97 -243.5t-139.5 -228.5t-166.5 -208t-177.5 -176.5t-171.5 -137.5
t-150 -88t-112.5 -32q-45 0 -74 26t-29 70q0 43 26.5 71.5t67.5 28.5q90 0 113 -110h4q107 40 188 142.5t126 235.5t66.5 268t21.5 267q0 102 -10.5 179t-29 120t-39.5 63.5t-44 20.5q-46 0 -76 -51t-62 -174zM377 1114h-55l282 426h78l98 -426h-47l-119 279z" />
    <glyph glyph-name="Ydieresis" unicode="&#x178;" horiz-adv-x="1212" 
d="M1231 1286l-506 -680l-107 -534l158 -35l-6 -37h-502l8 37l175 35l104 522l-272 698l-115 33l6 35h465l-6 -35l-176 -37l231 -626h6l451 626l-164 37l6 35h379l-8 -35zM643 1556q-38 0 -64 27t-26 66t26 66.5t64 27.5q40 0 68 -28t28 -66t-28 -65.5t-68 -27.5zM1053 1556
q-38 0 -65 27.5t-27 65.5t27 66t65 28t66 -28t28 -66t-28 -65.5t-66 -27.5z" />
    <glyph glyph-name="Zacute" unicode="&#x179;" horiz-adv-x="1216" 
d="M-16 0l4 27l1044 1276h-635l-174 -363h-35l74 432l144 -12h849v-14l-1056 -1289h694l221 365h39l-133 -434l-131 12h-905zM905 1772h158v-15l-281 -266h-49z" />
    <glyph glyph-name="zacute" unicode="&#x17a;" horiz-adv-x="815" 
d="M813 983l53 -45l-684 -721l283 -106q33 -13 59 -14.5t50.5 9.5t44.5 28t48.5 49t54.5 65q5 7 9 12l8 10l33 -18q-45 -71 -66 -103t-55.5 -77.5t-59 -65t-57 -34.5t-67.5 -15q-39 0 -115 31l-278 110l-109 -139l-59 45l704 744l-278 106q-105 41 -137 2q-42 -51 75 -156
q-30 -35 -54.5 -50t-57.5 -15t-56.5 24t-23.5 66q1 57 47 118t113.5 100.5t128.5 39.5t141 -29l213 -88zM727 1540h139v-20l-278 -406h-49z" />
    <glyph glyph-name="Zdotaccent" unicode="&#x17b;" horiz-adv-x="1216" 
d="M-16 0l4 27l1044 1276h-635l-174 -363h-35l74 432l144 -12h849v-14l-1056 -1289h694l221 365h39l-133 -434l-131 12h-905zM692 1651q0 40 29.5 69t69.5 29t69 -29t29 -69t-29 -69.5t-69 -29.5t-69.5 29.5t-29.5 69.5z" />
    <glyph glyph-name="zdotaccent" unicode="&#x17c;" horiz-adv-x="815" 
d="M813 983l53 -45l-684 -721l283 -106q33 -13 59 -14.5t50.5 9.5t44.5 28t48.5 49t54.5 65q5 7 9 12l8 10l33 -18q-45 -71 -66 -103t-55.5 -77.5t-59 -65t-57 -34.5t-67.5 -15q-39 0 -115 31l-278 110l-109 -139l-59 45l704 744l-278 106q-105 41 -137 2q-42 -51 75 -156
q-30 -35 -54.5 -50t-57.5 -15t-56.5 24t-23.5 66q1 57 47 118t113.5 100.5t128.5 39.5t141 -29l213 -88zM492 1321q0 40 29 69t69 29t69 -29t29 -69t-29 -69t-69 -29t-69 29t-29 69z" />
    <glyph glyph-name="Zcaron" unicode="&#x17d;" horiz-adv-x="1216" 
d="M-16 0l4 27l1044 1276h-635l-174 -363h-35l74 432l144 -12h849v-14l-1056 -1289h694l221 365h39l-133 -434l-131 12h-905zM1030 1751h70l-287 -260h-104l-185 260h60l196 -170z" />
    <glyph glyph-name="zcaron" unicode="&#x17e;" horiz-adv-x="815" 
d="M813 983l53 -45l-684 -721l283 -106q33 -13 59 -14.5t50.5 9.5t44.5 28t48.5 49t54.5 65q5 7 9 12l8 10l33 -18q-45 -71 -66 -103t-55.5 -77.5t-59 -65t-57 -34.5t-67.5 -15q-39 0 -115 31l-278 110l-109 -139l-59 45l704 744l-278 106q-105 41 -137 2q-42 -51 75 -156
q-30 -35 -54.5 -50t-57.5 -15t-56.5 24t-23.5 66q1 57 47 118t113.5 100.5t128.5 39.5t141 -29l213 -88zM813 1540h55l-282 -426h-78l-98 426h47l116 -278z" />
    <glyph glyph-name="florin" unicode="&#x192;" horiz-adv-x="888" 
d="M125 569l12 62h187q66 260 213.5 430t320.5 170q59 0 95 -33.5t36 -69.5q0 -27 -17 -60t-44 -58q-54 67 -96.5 102t-83.5 35q-37 0 -65.5 -16t-62 -63t-65.5 -146t-63 -250l-9 -41h275l-15 -62h-274l-113 -553q-22 -108 -60.5 -206t-92 -178.5t-125.5 -128.5t-152 -48
q-50 0 -98.5 30.5t-48.5 84.5q0 50 61 104q88 -149 166 -149q53 0 88.5 81.5t73.5 262.5l143 700h-186z" />
    <glyph glyph-name="Aringacute" unicode="&#x1fa;" horiz-adv-x="1275" 
d="M-102 0l8 39l127 35l696 1282l64 12l69 10l191 -1306l121 -37l-7 -35h-475l8 37l187 35l-60 415h-487l-211 -409l190 -39l-8 -39h-413zM721 1223l-340 -658h436l-92 658h-4zM621 1634q0 87 58 143t144 56q89 0 147 -55.5t58 -143.5q0 -87 -58.5 -143.5t-144.5 -56.5
q-89 0 -146.5 56t-57.5 144zM684 1634q0 -62 40.5 -104.5t98.5 -42.5q59 0 101.5 42.5t42.5 104.5t-42 105t-100 43q-59 0 -100 -42.5t-41 -105.5zM1016 2163h158v-15l-281 -266h-49z" />
    <glyph glyph-name="aringacute" unicode="&#x1fb;" horiz-adv-x="966" 
d="M870 1032h62l-254 -913h6q51 38 108 99t101 122l29 -16q-82 -141 -178.5 -244t-159.5 -103q-24 0 -41 13.5t-24.5 46.5t11.5 90l95 305h-9q-129 -202 -195 -283q-145 -176 -267 -176q-72 0 -114 50.5t-36 148.5q8 130 58 254.5t123.5 218t158.5 165.5t165.5 109t141.5 37
q89 0 150 -38zM233 84q47 0 120 70.5t140.5 167t122.5 194.5t74 156l49 149q-57 78 -125 78q-95 0 -195 -103.5t-168 -267.5t-77 -329q-5 -115 59 -115zM545 1264q0 87 58.5 142.5t144.5 55.5q89 0 146.5 -55t57.5 -143q0 -87 -58 -144t-144 -57q-89 0 -147 56t-58 145z
M608 1264q0 -62 41 -105t99 -43q59 0 101 43t42 105t-41.5 104.5t-99.5 42.5q-59 0 -100.5 -42.5t-41.5 -104.5zM963 1819h157v-15l-280 -266h-49z" />
    <glyph glyph-name="AEacute" unicode="&#x1fc;" horiz-adv-x="1765" 
d="M1335 690h-301l-116 -598q19 -20 44.5 -28.5t81.5 -8.5h369l227 340h39l-135 -395h-977l8 39l175 33l118 618h-344l-428 -612l191 -39l-8 -39h-424l8 39l127 35l887 1204l-172 47l6 35h927l125 10l-51 -387h-33l-57 322h-467l-108 -551h301l106 219h35l-96 -490h-35z
M989 1307h-18l-400 -553h310zM1329 1772h158v-15l-281 -266h-49z" />
    <glyph glyph-name="aeacute" unicode="&#x1fd;" horiz-adv-x="1177" 
d="M702 -29q-81 0 -138 49.5t-81 135.5h-10q-139 -185 -305 -185q-30 0 -60.5 10.5t-60.5 32t-49 62.5t-18 94q1 88 75.5 144.5t241.5 105.5l209 61l47 168q14 110 -27.5 182t-122.5 72q-69 0 -120 -51l-17 -180q-29 -19 -71 -19q-37 0 -57.5 18t-20.5 48q0 46 55.5 104.5
t144 103.5t172.5 50q95 0 148 -61t47 -162h8q72 94 177 158.5t206 64.5q69 0 107.5 -33t38.5 -92q0 -79 -85 -155t-211 -130t-280 -92q-17 -82 -20 -147q-5 -107 36.5 -174.5t112.5 -67.5q149 0 270 213l37 -14q-24 -57 -57.5 -108t-80 -99.5t-109.5 -77.5t-132 -29z
M492 424l2 8l-156 -55q-101 -37 -146 -79t-45 -99t27 -90t82 -33q63 0 121 48.5t94 106.5q-6 87 21 193zM987 905q-79 0 -179.5 -112t-150.5 -275q167 55 280.5 145t113.5 181q0 28 -16 44.5t-48 16.5zM932 1540h139v-20l-278 -406h-50z" />
    <glyph glyph-name="Oslashacute" unicode="&#x1fe;" horiz-adv-x="1490" 
d="M223 -92h-82l146 188q-92 81 -143.5 197t-51.5 252q0 164 62 318t167.5 270t255 186t314.5 70q177 0 319 -95l111 146h82l-141 -185q94 -80 146 -197t52 -251q0 -164 -62 -318.5t-167 -271.5t-254.5 -187.5t-314.5 -70.5q-179 0 -324 98zM1284 856q0 187 -86 318
l-809 -1049q104 -113 277 -113q122 0 237.5 73t198 191t132.5 271.5t50 308.5zM268 492q0 -187 80 -314l809 1049q-105 108 -270 108q-121 0 -235.5 -71t-198 -186.5t-134.5 -270.5t-51 -315zM1053 1772h157v-15l-280 -266h-49z" />
    <glyph glyph-name="oslashacute" unicode="&#x1ff;" horiz-adv-x="880" 
d="M16 -102h-63l141 186q-61 94 -61 233q0 78 22.5 166.5t68.5 176.5t108.5 158.5t151 114.5t187.5 44q90 0 158 -49l102 135h66l-129 -172q76 -88 76 -242q0 -85 -23.5 -177.5t-71.5 -181.5t-112 -160.5t-152.5 -115t-185.5 -43.5q-105 0 -174 72zM698 737q0 22 -4 58
l-508 -672q18 -111 115 -111q77 0 152 74.5t127.5 185t85 236.5t32.5 229zM180 207v-8l496 657q-38 80 -115 80q-99 0 -189.5 -121.5t-141 -289.5t-50.5 -318zM750 1540h139v-20l-279 -406h-49z" />
    <glyph glyph-name="Scommaaccent" unicode="&#x218;" horiz-adv-x="1044" 
d="M92 459h31l22 -324q58 -51 119 -79.5t144 -28.5q86 0 159.5 32t121.5 98.5t48 155.5q0 88 -51.5 158t-161.5 143l-71 48q-136 91 -187 159.5t-51 173.5q0 103 67 194t182.5 145.5t248.5 54.5q124 0 299 -66l-74 -360h-33l-12 288q-109 78 -231 78q-132 0 -213.5 -75
t-81.5 -185q0 -63 21.5 -109t57.5 -78.5t107 -80.5l51 -33q158 -104 226.5 -185.5t68.5 -185.5q0 -115 -72 -214.5t-191.5 -156.5t-254.5 -57q-92 0 -190 30t-168 67zM164 -528l-6 30q107 37 155.5 76t48.5 88q0 33 -25.5 54t-78.5 20v8q8 51 39.5 81t85.5 30t84.5 -33
t30.5 -84q0 -199 -334 -270z" />
    <glyph glyph-name="scommaaccent" unicode="&#x219;" horiz-adv-x="602" 
d="M-96 -528l-6 30q107 37 155.5 76t48.5 88q0 33 -25.5 54t-78.5 20v8q8 51 39.5 81t85.5 30t84.5 -33t30.5 -84q0 -199 -334 -270zM500 258q0 -60 -48 -126.5t-129 -113.5t-165 -47q-95 0 -149 45.5t-52 98.5q0 30 14.5 60t30.5 42h2q47 -69 113.5 -115.5t132.5 -46.5
q52 0 84.5 34.5t32.5 82.5q0 25 -12.5 56t-21 46t-34.5 56l-86 145q-71 120 -81 147q-11 29 -11 64q0 57 37.5 112.5t92 93.5t115 61.5t107.5 23.5q80 0 114 -32t34 -81q0 -50 -39 -98h-4q-57 62 -105 93.5t-102 31.5q-47 0 -83 -34t-36 -85q0 -32 10 -57.5t47 -87.5
l107 -174q38 -61 50.5 -83t23 -52t10.5 -60z" />
    <glyph glyph-name="uni021A" unicode="&#x21a;" horiz-adv-x="1232" 
d="M350 1360h869l120 12l-98 -389h-35l-2 322h-352l-244 -1233l180 -35l-6 -37h-544l8 37l194 35l244 1233h-336l-149 -322h-35l63 389zM260 -528l-6 30q108 37 156.5 76t48.5 88q0 32 -26 53.5t-79 20.5v8q8 51 39.5 81t85.5 30t84.5 -33t30.5 -84q0 -199 -334 -270z" />
    <glyph glyph-name="uni021B" unicode="&#x21b;" horiz-adv-x="604" 
d="M72 870l8 45l178 33l123 281h80l-62 -281h289l-16 -78h-291l-199 -751h4q54 20 138 94.5t161 171.5l31 -23q-92 -147 -213 -266t-213 -119q-37 0 -56.5 31t-10.5 70l210 792h-161zM-164 -528l-6 30q108 37 156.5 76t48.5 88q0 32 -26 53.5t-79 20.5v8q8 51 39.5 81
t85.5 30t84.5 -33t30.5 -84q0 -199 -334 -270z" />
    <glyph glyph-name="uni0237" unicode="&#x237;" horiz-adv-x="450" 
d="M2 -203l254 1055q-25 10 -67.5 11t-98.5 -13v22q114 105 207 105q62 0 86.5 -43t5.5 -121l-211 -893q-13 -57 -39.5 -118t-66.5 -121.5t-87 -108.5t-106 -77.5t-119 -29.5q-54 0 -100.5 32t-46.5 83q0 23 12 45.5t19 29.5l30 30q55 -81 91.5 -114.5t72.5 -33.5
q50 0 90 60.5t74 199.5z" />
    <glyph glyph-name="circumflex" unicode="&#x2c6;" 
d="M207 1114h-55l282 426h78l98 -426h-47l-119 279z" />
    <glyph glyph-name="caron" unicode="&#x2c7;" 
d="M545 1540h55l-283 -426h-77l-99 426h47l117 -278z" />
    <glyph glyph-name="breve" unicode="&#x2d8;" 
d="M332 1151q-96 0 -140.5 81t-31.5 238h33q12 -110 49.5 -162.5t113.5 -52.5q80 0 133 59t91 156h32q-27 -146 -96 -232.5t-184 -86.5z" />
    <glyph glyph-name="dotaccent" unicode="&#x2d9;" 
d="M463 1321q0 40 29 69t69 29t69 -29t29 -69t-29 -69t-69 -29t-69 29t-29 69z" />
    <glyph glyph-name="ring" unicode="&#x2da;" horiz-adv-x="456" 
d="M164 1343q0 87 58.5 143t144.5 56q89 0 146.5 -55.5t57.5 -143.5q0 -87 -58 -143.5t-144 -56.5q-89 0 -147 56t-58 144zM227 1343q0 -62 41 -104.5t99 -42.5q59 0 101 42.5t42 104.5t-41.5 105t-99.5 43q-59 0 -100.5 -42.5t-41.5 -105.5z" />
    <glyph glyph-name="ogonek" unicode="&#x2db;" horiz-adv-x="768" 
d="M498 0h47q-102 -97 -155 -162t-66 -97t-13 -67q0 -38 26.5 -61t63.5 -23q42 0 78.5 23.5t89.5 87.5l31 -16q-127 -195 -276 -195q-65 0 -105.5 42t-40.5 103q0 28 8 54.5t30.5 56.5t42 52.5t66 61.5t76.5 63.5t97 76.5z" />
    <glyph glyph-name="tilde" unicode="&#x2dc;" 
d="M94 1204l-26 10l10 29q83 231 280 143l115 -51q33 -15 51 -21t41 -7t39 10.5t35 36t39 65.5l29 -10l-13 -39q-81 -245 -278 -156l-111 54q-85 41 -126 31t-85 -95z" />
    <glyph glyph-name="hungarumlaut" unicode="&#x2dd;" 
d="M252 1540h131v-18l-256 -408h-49zM541 1540h129v-18l-256 -408h-49z" />
    <glyph glyph-name="Wgrave" unicode="&#x1e80;" horiz-adv-x="1683" 
d="M1049 -12l-129 989l-517 -989h-69l-125 1304l-115 33l6 35h457l-6 -35l-176 -37l92 -1061l438 850l-26 215l-142 33l6 35h482l-6 -35l-179 -37l131 -1077l492 1077l-164 37l6 35h383l-8 -35l-127 -39l-631 -1298h-73zM733 1772h158l129 -281h-49l-238 266v15z" />
    <glyph glyph-name="wgrave" unicode="&#x1e81;" horiz-adv-x="1261" 
d="M791 807l6 -655h6q202 256 279 392.5t77 215.5q0 52 -32.5 82t-84.5 30q-50 0 -108 -20v22q109 103 201 103q60 0 97.5 -37.5t37.5 -97.5q0 -94 -65.5 -208t-276.5 -390l-209 -273h-17l-53 23l6 498h-6q-36 -51 -134 -182t-157 -216l-84 -123h-18l-57 23l-2 854
q-37 14 -82 14q-48 0 -82 -10v22q115 103 209 103q59 0 84 -36.5t24 -129.5l-8 -661h6q230 316 303 432l-4 258q-26 26 -80 26q-33 0 -84 -14v22q112 103 209 103q52 0 75 -38.5t24 -131.5zM565 1540h140l57 -426h-45l-152 404v22z" />
    <glyph glyph-name="Wacute" unicode="&#x1e82;" horiz-adv-x="1683" 
d="M1049 -12l-129 989l-517 -989h-69l-125 1304l-115 33l6 35h457l-6 -35l-176 -37l92 -1061l438 850l-26 215l-142 33l6 35h482l-6 -35l-179 -37l131 -1077l492 1077l-164 37l6 35h383l-8 -35l-127 -39l-631 -1298h-73zM1141 1772h157v-15l-280 -266h-49z" />
    <glyph glyph-name="wacute" unicode="&#x1e83;" horiz-adv-x="1261" 
d="M791 807l6 -655h6q202 256 279 392.5t77 215.5q0 52 -32.5 82t-84.5 30q-50 0 -108 -20v22q109 103 201 103q60 0 97.5 -37.5t37.5 -97.5q0 -94 -65.5 -208t-276.5 -390l-209 -273h-17l-53 23l6 498h-6q-36 -51 -134 -182t-157 -216l-84 -123h-18l-57 23l-2 854
q-37 14 -82 14q-48 0 -82 -10v22q115 103 209 103q59 0 84 -36.5t24 -129.5l-8 -661h6q230 316 303 432l-4 258q-26 26 -80 26q-33 0 -84 -14v22q112 103 209 103q52 0 75 -38.5t24 -131.5zM905 1540h139v-20l-278 -406h-49z" />
    <glyph glyph-name="Wdieresis" unicode="&#x1e84;" horiz-adv-x="1683" 
d="M1049 -12l-129 989l-517 -989h-69l-125 1304l-115 33l6 35h457l-6 -35l-176 -37l92 -1061l438 850l-26 215l-142 33l6 35h482l-6 -35l-179 -37l131 -1077l492 1077l-164 37l6 35h383l-8 -35l-127 -39l-631 -1298h-73zM813 1556q-38 0 -64 27t-26 66t26 66.5t64 27.5
q40 0 68 -28t28 -66t-28 -65.5t-68 -27.5zM1223 1556q-38 0 -65.5 27.5t-27.5 65.5t27.5 66t65.5 28t66 -28t28 -66t-28 -65.5t-66 -27.5z" />
    <glyph glyph-name="wdieresis" unicode="&#x1e85;" horiz-adv-x="1261" 
d="M791 807l6 -655h6q202 256 279 392.5t77 215.5q0 52 -32.5 82t-84.5 30q-50 0 -108 -20v22q109 103 201 103q60 0 97.5 -37.5t37.5 -97.5q0 -94 -65.5 -208t-276.5 -390l-209 -273h-17l-53 23l6 498h-6q-36 -51 -134 -182t-157 -216l-84 -123h-18l-57 23l-2 854
q-37 14 -82 14q-48 0 -82 -10v22q115 103 209 103q59 0 84 -36.5t24 -129.5l-8 -661h6q230 316 303 432l-4 258q-26 26 -80 26q-33 0 -84 -14v22q112 103 209 103q52 0 75 -38.5t24 -131.5zM616 1229q-38 0 -64 27t-26 65q0 39 26 66.5t64 27.5q40 0 68.5 -28t28.5 -66
t-28.5 -65t-68.5 -27zM926 1229q-38 0 -65 27t-27 65t27 66t65 28t66 -28t28 -66t-28 -65t-66 -27z" />
    <glyph glyph-name="Ygrave" unicode="&#x1ef2;" horiz-adv-x="1212" 
d="M1231 1286l-506 -680l-107 -534l158 -35l-6 -37h-502l8 37l175 35l104 522l-272 698l-115 33l6 35h465l-6 -35l-176 -37l231 -626h6l451 626l-164 37l6 35h379l-8 -35zM594 1772h158l129 -281h-50l-237 266v15z" />
    <glyph glyph-name="ygrave" unicode="&#x1ef3;" horiz-adv-x="890" 
d="M61 625h-36q15 154 81.5 253.5t155.5 98.5q97 -2 154 -127.5t57 -341.5q0 -304 -92 -576h10q165 186 263 385.5t98 378.5q0 135 -88 252q51 31 106 31q41 0 68 -35.5t26 -114.5q-1 -119 -37.5 -247t-97 -243.5t-139.5 -228.5t-166.5 -208t-177.5 -176.5t-171.5 -137.5
t-150 -88t-112.5 -32q-45 0 -74 26t-29 70q0 43 26.5 71.5t67.5 28.5q90 0 113 -110h4q107 40 188 142.5t126 235.5t66.5 268t21.5 267q0 102 -10.5 179t-29 120t-39.5 63.5t-44 20.5q-46 0 -76 -51t-62 -174zM369 1540h139l57 -426h-45l-151 404v22z" />
    <glyph glyph-name="uni2009" unicode="&#x2009;" horiz-adv-x="81" 
 />
    <glyph glyph-name="endash" unicode="&#x2013;" horiz-adv-x="958" 
d="M80 508l14 70h787l-15 -70h-786z" />
    <glyph glyph-name="emdash" unicode="&#x2014;" horiz-adv-x="1777" 
d="M80 508l14 70h1606l-14 -70h-1606z" />
    <glyph glyph-name="quoteleft" unicode="&#x2018;" horiz-adv-x="436" 
d="M541 1483l12 -31q-188 -88 -188 -207q0 -94 108 -133q-3 -48 -28.5 -74t-63.5 -26q-57 0 -97 45t-40 123q0 99 82 181.5t215 121.5z" />
    <glyph glyph-name="quoteright" unicode="&#x2019;" horiz-adv-x="436" 
d="M197 1012l-13 30q189 89 189 207q0 93 -109 133q3 48 28.5 74.5t63.5 26.5q57 0 97.5 -45t40.5 -123q0 -99 -82 -181.5t-215 -121.5z" />
    <glyph glyph-name="quotesinglbase" unicode="&#x201a;" horiz-adv-x="442" 
d="M-39 -197l-12 31q188 88 188 207q0 94 -108 133q3 48 28.5 74t63.5 26q57 0 97 -45t40 -123q0 -99 -82 -181.5t-215 -121.5z" />
    <glyph glyph-name="quotedblleft" unicode="&#x201c;" horiz-adv-x="774" 
d="M541 1483l12 -31q-188 -88 -188 -207q0 -94 108 -133q-3 -48 -28.5 -74t-63.5 -26q-57 0 -97 45t-40 123q0 99 82 181.5t215 121.5zM879 1483l12 -31q-189 -89 -189 -207q0 -93 109 -133q-3 -48 -28.5 -74t-63.5 -26q-57 0 -97 45t-40 123q0 99 82 181.5t215 121.5z" />
    <glyph glyph-name="quotedblright" unicode="&#x201d;" horiz-adv-x="774" 
d="M197 1012l-13 30q189 89 189 207q0 93 -109 133q3 48 28.5 74.5t63.5 26.5q57 0 97.5 -45t40.5 -123q0 -99 -82 -181.5t-215 -121.5zM535 1012l-13 30q189 89 189 207q0 93 -109 133q3 48 28.5 74.5t63.5 26.5q57 0 97 -45t40 -123q0 -99 -81.5 -181.5t-214.5 -121.5z
" />
    <glyph glyph-name="quotedblbase" unicode="&#x201e;" horiz-adv-x="780" 
d="M-39 -197l-12 31q188 88 188 207q0 94 -108 133q3 48 28.5 74t63.5 26q57 0 97 -45t40 -123q0 -99 -82 -181.5t-215 -121.5zM299 -197l-12 31q188 88 188 207q0 94 -108 133q3 48 28.5 74t63.5 26q57 0 97 -45t40 -123q0 -99 -82 -181.5t-215 -121.5z" />
    <glyph glyph-name="dagger" unicode="&#x2020;" horiz-adv-x="612" 
d="M209 1214l14 89l203 -21l27 217h94l-66 -217l211 21l-16 -89l-205 19l-86 -531h-98l129 531z" />
    <glyph glyph-name="daggerdbl" unicode="&#x2021;" horiz-adv-x="610" 
d="M207 1214l16 89l199 -21l29 217h94l-62 -217l207 21l-16 -89l-201 19l-49 -242l209 23l-19 -90l-196 20l-31 -231h-96l61 231l-205 -20l19 90l199 -23l49 240z" />
    <glyph glyph-name="bullet" unicode="&#x2022;" horiz-adv-x="643" 
d="M334 414q-58 0 -98.5 40t-40.5 99t40.5 99t98.5 40t98.5 -40t40.5 -99t-40.5 -99t-98.5 -40z" />
    <glyph glyph-name="ellipsis" unicode="&#x2026;" horiz-adv-x="1259" 
d="M115 -27q-51 0 -86 35t-35 86t35 86t86 35t86 -35t35 -86t-35 -86t-86 -35zM543 -27q-51 0 -86 35t-35 86t35 86t86 35t86 -35t35 -86t-35 -86t-86 -35zM971 -27q-51 0 -86 35t-35 86t35 86t86 35t86 -35t35 -86t-35 -86t-86 -35z" />
    <glyph glyph-name="perthousand" unicode="&#x2030;" horiz-adv-x="2209" 
d="M459 1190q-92 0 -160 -100t-68 -254q0 -96 32.5 -153.5t98.5 -57.5q85 0 154.5 94t69.5 256q0 98 -32.5 156.5t-94.5 58.5zM1405 1290l-1243 -1392h-84l1243 1392h84zM350 580q-110 0 -182 79.5t-72 192.5q0 104 54 193.5t139.5 139.5t179.5 50q110 0 181 -80.5
t71 -193.5q0 -152 -113.5 -266.5t-257.5 -114.5zM1139 580q-92 0 -160 -100.5t-68 -254.5q0 -96 32.5 -153.5t98.5 -57.5q85 0 154.5 94.5t69.5 256.5q0 98 -32.5 156.5t-94.5 58.5zM1030 -31q-110 0 -182 80t-72 193q0 104 54 193.5t139.5 139.5t179.5 50q110 0 181 -81
t71 -194q0 -152 -113.5 -266.5t-257.5 -114.5zM1845 580q-92 0 -159.5 -100.5t-67.5 -254.5q0 -96 32.5 -153.5t98.5 -57.5q85 0 154 94.5t69 256.5q0 98 -32.5 156.5t-94.5 58.5zM1737 -31q-110 0 -182 80t-72 193q0 78 32 150t83.5 122.5t119 80.5t137.5 30q110 0 181 -81
t71 -194q0 -152 -113 -266.5t-257 -114.5z" />
    <glyph glyph-name="uni2032" unicode="&#x2032;" horiz-adv-x="376" 
d="M160 1065h-45l164 461h159v-15z" />
    <glyph glyph-name="uni2033" unicode="&#x2033;" horiz-adv-x="704" 
d="M160 1065h-45l164 461h159v-15zM487 1065h-45l164 461h160v-15z" />
    <glyph glyph-name="guilsinglleft" unicode="&#x2039;" horiz-adv-x="522" 
d="M438 776l27 -33l-322 -331l217 -316l-34 -28l-318 335v19z" />
    <glyph glyph-name="guilsinglright" unicode="&#x203a;" horiz-adv-x="522" 
d="M31 68l-27 32l322 332l-217 316l34 28l318 -336v-18z" />
    <glyph glyph-name="fraction" unicode="&#x2044;" horiz-adv-x="464" 
d="M-319 -164l-41 37l1230 1604l43 -35z" />
    <glyph glyph-name="Euro" unicode="&#x20ac;" horiz-adv-x="1159" 
d="M117 702l16 56h176q67 143 176.5 254.5t224 168t212.5 56.5q96 0 165.5 -51t69.5 -107q0 -55 -74 -102q-113 184 -260 184q-105 0 -209 -115.5t-168 -287.5h500l-14 -56h-502q-30 -102 -41 -188h488l-17 -55h-475v-37q0 -184 78.5 -269t212.5 -85q162 0 321 172l27 -25
q-29 -33 -33.5 -38t-32 -35.5t-36 -37.5t-34.5 -32t-39.5 -32.5t-40 -25.5t-46.5 -24t-47 -15.5t-55 -12.5t-58 -3q-119 0 -206.5 59.5t-129 153.5t-41.5 207q0 53 2 80h-180l16 55h173q15 102 49 188h-168z" />
    <glyph glyph-name="trademark" unicode="&#x2122;" horiz-adv-x="1390" 
d="M664 809l6 27l73 14l97 469l-66 16l4 25h215l60 -365h6l215 365h209l-4 -25l-74 -16l-96 -469l69 -14l-6 -27h-260l6 29l82 14l94 459h-6l-248 -412l-32 -68h-31l-8 60l-82 420h-6l-95 -459l91 -18l-7 -25h-206zM233 1360h484l-29 -178h-22l-15 143h-127l-98 -473l78 -16
l-6 -27h-275l6 27l86 16l99 473h-127l-76 -143h-23z" />
    <glyph glyph-name="onethird" unicode="&#x2153;" horiz-adv-x="1439" 
d="M1139 412v-6q93 -3 156 -45.5t63 -116.5q0 -79 -55 -140t-137.5 -91.5t-174.5 -30.5q-75 0 -124.5 27.5t-49.5 70.5q0 30 15.5 51t54.5 41q60 -143 180 -143q70 0 120 48t48 113q0 49 -25.5 83.5t-69 51.5t-82.5 24t-83 9l6 33q155 44 209.5 91.5t52.5 107.5
q-1 43 -29.5 68.5t-74.5 25.5q-99 0 -191 -115l-28 21q97 176 268 176q82 0 129 -39.5t47 -103.5q3 -129 -225 -211zM96 -164l-41 37l1231 1604l43 -35zM477 1378l-153 -712l122 -25l-4 -29h-383l4 29l140 25l131 604l-156 -8l6 32l287 84h6z" />
    <glyph glyph-name="twothirds" unicode="&#x2154;" horiz-adv-x="1562" 
d="M1262 412v-6q93 -3 156 -45.5t63 -116.5q0 -79 -55 -140t-137.5 -91.5t-174.5 -30.5q-75 0 -124.5 27.5t-49.5 70.5q0 30 15.5 51t54.5 41q60 -143 180 -143q70 0 120 48t48 113q0 49 -25.5 83.5t-69 51.5t-82.5 24t-83 9l6 33q155 44 209.5 91.5t52.5 107.5
q-1 43 -29.5 68.5t-74.5 25.5q-99 0 -191 -115l-29 21q97 176 269 176q82 0 129 -39.5t47 -103.5q3 -129 -225 -211zM379 854l-186 -145h403l-23 -97h-520l4 31l170 152q14 12 52 43.5t52 44t45 39.5t44 41.5t35 38.5t31.5 41t21.5 39.5t16 43.5t4 43q0 61 -37 91t-85 30
q-42 0 -81.5 -19t-59 -36.5t-60.5 -58.5l-27 14q48 89 108.5 138.5t153.5 49.5q94 0 150.5 -56t56.5 -132q0 -34 -11.5 -66t-29 -59t-55 -63t-73 -66.5t-99.5 -81.5zM219 -164l-41 37l1231 1604l43 -35z" />
    <glyph glyph-name="oneeighth" unicode="&#x215b;" horiz-adv-x="1441" 
d="M807 158q0 45 19 80t56 60t70.5 40t81.5 31l-4 4q-58 50 -81 89.5t-23 90.5q0 87 79 150t189 63q96 0 157.5 -45.5t61.5 -110.5q0 -40 -19.5 -74.5t-55 -60.5t-69.5 -43.5t-79 -34.5l24 -20q28 -24 43 -38.5t36 -38.5t30.5 -48.5t9.5 -50.5q0 -90 -85.5 -155.5
t-186.5 -65.5q-120 0 -187 49t-67 129zM96 -164l-41 37l1231 1604l43 -35zM477 1378l-153 -712l122 -25l-4 -29h-383l4 29l140 25l131 604l-156 -8l6 32l287 84h6zM1102 311l-43 35q-71 -39 -102 -82t-31 -106q0 -52 38.5 -97t104.5 -45q63 0 103 33.5t40 95.5
q0 75 -110 166zM1042 594q0 -66 76 -133l47 -41q135 64 135 188q0 59 -36 91t-80 32q-57 0 -99.5 -34t-42.5 -103z" />
    <glyph glyph-name="threeeighths" unicode="&#x215c;" horiz-adv-x="1519" 
d="M885 158q0 45 19 80t56 60t70.5 40t81.5 31l-4 4q-58 50 -81 89.5t-23 90.5q0 87 79 150t189 63q96 0 157.5 -45.5t61.5 -110.5q0 -40 -19.5 -74.5t-55 -60.5t-69.5 -43.5t-79 -34.5l24 -20q28 -24 43 -38.5t36 -38.5t30.5 -48.5t9.5 -50.5q0 -90 -85.5 -155.5
t-186.5 -65.5q-120 0 -187 49t-67 129zM387 1024v-6q93 -3 156 -45.5t63 -116.5q0 -79 -54.5 -140t-137 -91.5t-174.5 -30.5q-75 0 -124.5 27.5t-49.5 70.5q0 30 15 51t54 41q60 -143 180 -143q70 0 120 48.5t48 113.5q0 49 -25.5 83.5t-69 51.5t-82.5 24t-83 9l6 33
q155 44 210 91t53 107q-1 43 -30 68.5t-75 25.5q-99 0 -190 -114l-29 20q97 176 268 176q82 0 129 -39.5t47 -103.5q3 -129 -225 -211zM174 -164l-41 37l1231 1604l43 -35zM1180 311l-43 35q-71 -39 -102 -82t-31 -106q0 -52 38.5 -97t104.5 -45q63 0 103 33.5t40 95.5
q0 75 -110 166zM1120 594q0 -66 76 -133l47 -41q135 64 135 188q0 59 -36 91t-80 32q-57 0 -99.5 -34t-42.5 -103z" />
    <glyph glyph-name="fiveeighths" unicode="&#x215d;" horiz-adv-x="1533" 
d="M899 158q0 45 19 80t56 60t70.5 40t81.5 31l-4 4q-58 50 -81 89.5t-23 90.5q0 87 79 150t189 63q96 0 157.5 -45.5t61.5 -110.5q0 -40 -19.5 -74.5t-55 -60.5t-69.5 -43.5t-79 -34.5l25 -20q37 -31 57 -51t40.5 -55.5t20.5 -69.5q0 -90 -85.5 -155.5t-186.5 -65.5
q-120 0 -187 49t-67 129zM678 1360l-25 -109h-358l-57 -221q73 43 161 43q98 0 166.5 -51t69.5 -145q2 -79 -51 -144.5t-137.5 -101t-176.5 -35.5q-68 0 -124.5 25.5t-57.5 72.5q-2 24 14.5 49t49.5 39q37 -72 82 -103.5t112 -31.5q66 0 119.5 48.5t50.5 127.5
q-3 68 -48 112t-126 44q-83 0 -166 -57l-14 6l114 432h402zM188 -164l-41 37l1231 1604l43 -35zM1194 311l-43 35q-71 -39 -102 -82t-31 -106q0 -52 38.5 -97t104.5 -45q63 0 103.5 33.5t40.5 95.5q0 74 -111 166zM1135 594q0 -67 75 -133l47 -41q136 64 136 188
q0 59 -36.5 91t-80.5 32q-57 0 -99 -34t-42 -103z" />
    <glyph glyph-name="seveneighths" unicode="&#x215e;" horiz-adv-x="1359" 
d="M725 158q0 45 19 80t56 60t70.5 40t81.5 31l-4 4q-58 50 -81 89.5t-23 90.5q0 87 79 150t189 63q96 0 157.5 -45.5t61.5 -110.5q0 -40 -19.5 -74.5t-55 -60.5t-69.5 -43.5t-79 -34.5l25 -20q37 -31 57 -51t40.5 -55.5t20.5 -69.5q0 -90 -85.5 -155.5t-186.5 -65.5
q-120 0 -187 49t-67 129zM14 -164l-41 37l1231 1604l43 -35zM211 612h-90l454 637h-403l25 111h495l-2 -8zM1020 311l-43 35q-71 -39 -102 -82t-31 -106q0 -52 38.5 -97t104.5 -45q63 0 103 33.5t40 95.5q0 75 -110 166zM961 594q0 -67 75 -133l47 -41q136 64 136 188
q0 59 -36.5 91t-80.5 32q-57 0 -99 -34t-42 -103z" />
    <glyph glyph-name="minus" unicode="&#x2212;" horiz-adv-x="1187" 
d="M1079 442h-970v72h970v-72z" />
    <glyph glyph-name="approxequal" unicode="&#x2248;" horiz-adv-x="1187" 
d="M178 547l-61 28q47 87 107 132t145 45q78 0 200 -39l101 -31q117 -35 182 -35q105 0 176 127l59 -31q-48 -83 -105.5 -127.5t-143.5 -44.5q-72 0 -201 37l-102 31q-122 37 -181 37q-98 0 -176 -129zM178 242l-61 28q47 87 107 131.5t145 44.5q81 0 200 -38l101 -31
q117 -35 182 -35q105 0 176 127l59 -31q-48 -83 -105.5 -127.5t-143.5 -44.5q-72 0 -201 37l-102 31q-122 37 -181 37q-98 0 -176 -129z" />
    <glyph glyph-name="notequal" unicode="&#x2260;" horiz-adv-x="1187" 
d="M356 43h-73l159 252h-333v72h380l138 217h-518v71h563l159 250h74l-160 -250h334v-71h-379l-139 -217h518v-72h-563z" />
    <glyph glyph-name="lessequal" unicode="&#x2264;" horiz-adv-x="1183" 
d="M1077 0h-966v72h966v-72zM1077 956l-848 -317l848 -317v-72l-968 358v66l968 358v-76z" />
    <glyph glyph-name="greaterequal" unicode="&#x2265;" horiz-adv-x="1183" 
d="M1077 0h-966v72h966v-72zM111 326l847 317l-847 318v71l968 -358v-66l-968 -358v76z" />
    <glyph glyph-name="uni24C5" unicode="&#x24c5;" horiz-adv-x="1642" 
d="M135 664q6 194 105 356.5t264 256t358 93.5q192 0 351 -93.5t249 -256t84 -356.5q-6 -192 -106 -354t-265.5 -255.5t-357.5 -93.5q-193 0 -352 93.5t-248 255.5t-82 354zM186 664q-5 -181 77.5 -332.5t229.5 -239.5t324 -88t330.5 88t246.5 240.5t99 331.5
q5 180 -78 332.5t-230.5 240.5t-324.5 88t-330.5 -88t-246 -240.5t-97.5 -332.5zM795 590l6 33q125 0 210 56.5t85 162.5q0 51 -22 88t-60 57t-82 28.5t-94 6.5l-131 -678l153 -27l-6 -32h-399l6 32l123 27l125 653l-113 31l6 29h328q135 -6 220 -62t85 -153
q0 -69 -40.5 -122.5t-106 -83t-141.5 -41.5t-152 -5z" />
    <glyph glyph-name="space_uni0326" 
d="M213 -528l-6 30q108 37 156.5 76t48.5 88q0 32 -26 53.5t-79 20.5v8q8 51 39.5 81t85.5 30t84.5 -33t30.5 -84q0 -199 -334 -270z" />
    <glyph glyph-name="caron.alt" 
d="M354 1090h-30l110 411h158l-2 -12z" />
    <glyph glyph-name="space_uni0326.alt" 
d="M614 1595l7 -30q-108 -37 -156.5 -76t-48.5 -88q0 -33 25.5 -54t78.5 -20v-8q-8 -51 -39.5 -81t-85.5 -30t-84 33t-30 84q0 199 333 270z" />
    <glyph glyph-name="grave.uc" 
d="M197 1772h157l129 -281h-49l-237 266v15z" />
    <glyph glyph-name="dieresis.uc" 
d="M346 1556q-38 0 -64 27t-26 66t26 66.5t64 27.5q40 0 68 -28t28 -66t-28 -65.5t-68 -27.5zM756 1556q-38 0 -65 27.5t-27 65.5t27 66t65 28t66 -28t28 -66t-28 -65.5t-66 -27.5z" />
    <glyph glyph-name="macron.uc" 
d="M143 1556l21 99h573l-22 -99h-572z" />
    <glyph glyph-name="acute.uc" 
d="M604 1772h158v-15l-281 -266h-49z" />
    <glyph glyph-name="circumflex.uc" 
d="M350 1491h-69l286 260h105l184 -260h-59l-197 170z" />
    <glyph glyph-name="caron.uc" 
d="M786 1751h70l-287 -260h-104l-184 260h59l197 -170z" />
    <glyph glyph-name="breve.uc" 
d="M508 1495q-109 0 -165 63t-62 199h34q35 -86 82 -124t129 -38q148 0 238 162h33q-25 -121 -101.5 -191.5t-187.5 -70.5z" />
    <glyph glyph-name="dotaccent.uc" 
d="M444 1651q0 40 29.5 69t69.5 29t69 -29t29 -69t-29 -69.5t-69 -29.5t-69.5 29.5t-29.5 69.5z" />
    <glyph glyph-name="ring.uc" 
d="M348 1710q0 87 58.5 143t144.5 56q89 0 147 -55.5t58 -143.5q0 -87 -58.5 -144t-144.5 -57q-89 0 -147 56t-58 145zM412 1710q0 -62 40.5 -104.5t98.5 -42.5q59 0 101 42.5t42 104.5t-41.5 105t-99.5 43q-59 0 -100 -42.5t-41 -105.5z" />
    <glyph glyph-name="tilde.uc" 
d="M236 1511l-27 11l10 28q83 233 281 144l114 -52q33 -15 51 -21t41 -7t39 10.5t35 36t39 65.5l29 -10l-12 -39q-81 -245 -279 -155l-111 53q-85 41 -125.5 31t-84.5 -95z" />
    <glyph glyph-name="hungarumlaut.uc" 
d="M870 1772v-17l-235 -264h-57l155 281h137zM549 1772v-17l-236 -264h-55l156 281h135z" />
    <glyph glyph-name="cedilla.uc" horiz-adv-x="481" 
d="M-106 -524l2 30q33 9 65.5 22.5t66.5 34.5t55 52.5t21 67.5q0 24 -8.5 42.5t-26.5 31t-25.5 16t-25.5 10.5q0 -1 38.5 56t77.5 114l38 57h53l-96 -145q51 -18 80 -54t29 -77q0 -44 -16.5 -80.5t-46.5 -62.5t-62.5 -45.5t-76 -33.5t-74 -21.5t-68.5 -14.5z" />
    <glyph glyph-name="idotaccent" horiz-adv-x="473" 
d="M254 852q-25 10 -67.5 11t-98.5 -13v22q114 105 207 105q62 0 87.5 -44t4.5 -120l-194 -694h6q46 32 111 100t98 121l28 -16q-79 -136 -176.5 -241.5t-161.5 -105.5q-44 0 -60 36t1 93zM276 1321q0 40 29.5 69t69.5 29t69 -29t29 -69t-29 -69t-69 -29t-69.5 29t-29.5 69z
" />
    <glyph glyph-name="dollar.lin" horiz-adv-x="972" 
d="M72 453h30l29 -347q107 -83 250 -86l113 613l-66 37q-128 71 -180.5 146.5t-52.5 174.5q0 106 60.5 192.5t159 137t218.5 63.5l41 228h57l-43 -223h12q68 0 152 -22t152 -52l-74 -340h-31l-14 287q-107 66 -205 73l-105 -561l95 -49q229 -124 229 -313
q0 -121 -69.5 -219.5t-175.5 -153.5t-228 -68l-39 -215h-55l39 211h-4q-104 0 -201.5 28.5t-165.5 65.5zM735 328q0 92 -45 154.5t-145 121.5l-109 -581q127 14 213 99t86 206zM348 1061q0 -90 41 -147.5t135 -110.5l99 532q-117 -9 -196 -86t-79 -188z" />
    <glyph glyph-name="Euro.lin" horiz-adv-x="1130" 
d="M109 797l18 59h135q73 156 192.5 279.5t246 187t237.5 63.5q97 0 170.5 -47t73.5 -112q0 -58 -88 -111q-57 95 -116 144t-134 49q-120 0 -240 -128.5t-194 -324.5h563l-17 -59h-569q-32 -99 -45 -215h543l-19 -60h-530v-51q0 -99 26.5 -176t70 -122t95 -68t107.5 -23
q46 0 87 9.5t70 21t67 38.5t59.5 46t66.5 59l23 -23q-108 -140 -209.5 -204t-237.5 -64q-124 0 -214 61.5t-134.5 166.5t-44.5 241q0 59 4 88h-152l21 60h137q18 114 58 215h-127z" />
    <glyph glyph-name="sterling.lin" horiz-adv-x="1159" 
d="M147 571l11 52h227l80 346q25 106 69 194.5t94 145.5t106.5 97t105.5 57.5t90 17.5q69 0 127.5 -40.5t58.5 -103.5q0 -37 -28.5 -63t-86.5 -45q-39 190 -139 190q-40 0 -70.5 -23t-62.5 -91.5t-59 -188.5l-115 -493h416l-10 -52h-418l-11 -47q-36 -157 -118 -275
t-187 -192q141 -51 267 -118l104 -56q21 -11 51 -27l45 -24l37.5 -20t33.5 -17.5t27.5 -13.5t25.5 -11.5t20.5 -7.5t20 -6t17 -3t17.5 -1q61 0 80.5 85t-10.5 188q25 1 43.5 -0.5t38.5 -6t32.5 -14t20.5 -26t8 -39.5q0 -29 -20.5 -70t-57 -82.5t-97.5 -70.5t-132 -29
q-34 0 -71 6.5t-66 14t-71.5 26.5t-65 29.5t-70 38.5t-63.5 37.5t-68 43t-62 39.5l-125 80q-87 -43 -151 -43q-29 0 -49.5 8t-29.5 20t-12.5 22t-3.5 20q0 34 28 55.5t79 21.5q70 0 172 -30q113 95 170 350l33 145h-226z" />
    <glyph glyph-name="yen.lin" horiz-adv-x="1069" 
d="M133 555l12 57h324l-227 680l-90 33l6 35h434l-6 -35l-172 -35l192 -649h6l422 647l-164 37l7 35h350l-8 -35l-103 -39l-463 -674h326l-12 -57h-334l-29 -145h336l-12 -58h-334l-55 -280l157 -35l-6 -37h-502l9 37l174 35l55 280h-334l12 58h334l29 145h-334z" />
    <glyph glyph-name="florin.lin" horiz-adv-x="882" 
d="M74 569l12 62h225l23 104q38 181 119 328.5t193.5 235t232.5 87.5q59 0 95 -33t36 -69q0 -27 -17.5 -60.5t-44.5 -58.5q-54 67 -96.5 102.5t-83.5 35.5q-29 0 -52 -9t-50.5 -38t-51.5 -79.5t-50.5 -139t-51.5 -210.5l-41 -196h277l-15 -62h-274l-113 -553
q-22 -108 -60.5 -206t-92 -178.5t-125.5 -128.5t-152 -48q-50 0 -98.5 30.5t-48.5 84.5q0 50 61 104q88 -149 166 -149q53 0 89.5 82.5t72.5 261.5l141 700h-225z" />
    <glyph glyph-name="zero.lin" horiz-adv-x="1224" 
d="M791 1384q184 0 288.5 -141.5t104.5 -376.5q0 -126 -32 -255t-93.5 -244t-143 -205.5t-190 -143.5t-225.5 -53q-188 0 -292 140.5t-104 379.5q0 125 32 253.5t93.5 243.5t143.5 205.5t191 143.5t227 53zM504 12q83 0 162 57.5t140 153.5t107.5 215.5t71.5 248.5t25 247
q0 403 -224 403q-106 0 -203.5 -92t-162 -231t-103 -299t-38.5 -301q0 -91 10 -159.5t34 -125.5t69.5 -87t111.5 -30z" />
    <glyph glyph-name="one.lin" horiz-adv-x="727" 
d="M631 1401l-258 -1321l198 -43l-4 -37h-590l7 37l229 43l223 1161l-264 -27l4 39l447 148h8z" />
    <glyph glyph-name="two.lin" horiz-adv-x="960" 
d="M614 555l-440 -401h678l-37 -154h-868l2 25l440 415q109 103 182 189t123.5 189t50.5 198q0 107 -64 172t-167 65q-91 0 -162 -51.5t-151 -161.5l-41 25q84 161 185.5 242.5t242.5 81.5q147 0 239.5 -95.5t92.5 -228.5q0 -230 -306 -510z" />
    <glyph glyph-name="three.lin" horiz-adv-x="894" 
d="M463 782v-6q163 -39 255.5 -125.5t92.5 -226.5q0 -116 -80 -222.5t-210.5 -170.5t-272.5 -64q-108 0 -183 48t-75 122q0 78 102 123q77 -213 268 -213q117 0 203 84t86 215q0 120 -97.5 213.5t-279.5 118.5l13 55q230 118 313.5 198t83.5 177q0 67 -47 109.5t-123 42.5
q-156 0 -324 -220l-36 21q156 328 423 328q113 0 189 -68t76 -166q0 -42 -13.5 -80.5t-31.5 -67.5t-52.5 -59.5t-60.5 -49.5t-72.5 -44t-72 -37.5t-74.5 -34.5z" />
    <glyph glyph-name="four.lin" horiz-adv-x="1089" 
d="M342 37l190 43l58 297h-572l7 31l874 968l39 -6l-172 -887h266l-18 -106h-269l-57 -297l168 -43l-6 -37h-514zM170 483h440l121 625z" />
    <glyph glyph-name="five.lin" horiz-adv-x="950" 
d="M961 1360l-33 -152h-549l-107 -444q93 57 230 57q70 0 134.5 -23t115.5 -65t81.5 -108t30.5 -146q0 -87 -34 -167.5t-91 -142t-130 -108t-154.5 -70.5t-159.5 -24q-109 0 -186.5 47t-77.5 123q0 77 96 117q88 -209 272 -209q56 0 111.5 22.5t102 64.5t75.5 109t29 148
q0 134 -81.5 213.5t-209.5 79.5q-79 0 -134 -21.5t-108 -64.5l-22 6l186 758h613z" />
    <glyph glyph-name="six.lin" horiz-adv-x="1038" 
d="M1069 1350q-130 -55 -246 -125t-221.5 -159t-185 -201t-121.5 -236h6q142 192 322 192q142 0 237.5 -102t95.5 -264q0 -120 -63 -232.5t-177 -185t-249 -72.5q-67 0 -132 24.5t-123 73t-94 134.5t-36 196q0 150 55.5 289t148.5 247t219.5 199.5t264.5 155t287 105.5z
M557 729q-174 0 -291 -205q-14 -74 -14 -164q0 -173 57 -261.5t168 -88.5q130 0 219.5 123.5t89.5 306.5q0 133 -63 211t-166 78z" />
    <glyph glyph-name="seven.lin" horiz-adv-x="907" 
d="M205 0h-133l782 1208h-688l33 152h798l-4 -21q-260 -413 -457 -748t-264 -463z" />
    <glyph glyph-name="eight.lin" horiz-adv-x="956" 
d="M27 252q0 60 23.5 113.5t57.5 92.5t88.5 78.5t100.5 66t110 60.5q17 9 25 13l-61 61q-72 72 -107 134.5t-35 144.5q0 87 58.5 173.5t158.5 143t209 56.5q139 0 236.5 -74.5t97.5 -196.5q0 -46 -16 -90t-48.5 -82t-65 -68.5t-83 -63t-83 -51.5t-83.5 -46l49 -47
q44 -44 63 -64t52 -58.5t47.5 -65.5t26.5 -64t12 -74q0 -81 -41.5 -154t-107 -122.5t-147 -79t-161.5 -29.5q-171 0 -273.5 82.5t-102.5 210.5zM504 606l-49 47q-71 -51 -117 -92t-83.5 -89.5t-55 -102t-17.5 -117.5q0 -43 15 -85.5t44.5 -79t79.5 -59t113 -22.5
q109 0 188.5 73t79.5 195q0 81 -39.5 148.5t-158.5 183.5zM375 1083q0 -81 39.5 -147t132.5 -156l39 -39q129 101 189.5 192.5t60.5 201.5q0 83 -59.5 143.5t-151.5 60.5q-60 0 -116 -27.5t-95 -87.5t-39 -141z" />
    <glyph glyph-name="nine.lin" horiz-adv-x="1026" 
d="M6 0q130 47 248.5 114.5t223.5 154.5t187 199.5t128 238.5h-9q-132 -179 -305 -179q-143 0 -238.5 103t-95.5 276q0 89 38.5 177.5t104.5 157.5t161 112t200 43q74 0 140 -28t116.5 -79.5t80.5 -132.5t30 -180q0 -156 -58 -301.5t-155.5 -259t-226.5 -206.5t-270.5 -155
t-287.5 -94zM545 621q82 0 154.5 53t125.5 149q25 106 25 213q0 150 -54 233t-157 83q-138 0 -231 -129t-93 -312q0 -127 64 -208.5t166 -81.5z" />
    <glyph glyph-name="percent.lin" horiz-adv-x="1540" 
d="M461 731q-110 0 -182 80t-72 193q0 157 114 269.5t259 112.5q110 0 180.5 -80.5t70.5 -193.5q0 -152 -113 -266.5t-257 -114.5zM569 1341q-92 0 -159.5 -100t-67.5 -254q0 -96 32.5 -153.5t98.5 -57.5q85 0 154 94t69 256q0 98 -32.5 156.5t-94.5 58.5zM72 -102
l1405 1566h84l-1405 -1566h-84zM1040 -33q-110 0 -182 80t-72 193q0 104 54 193.5t139.5 139.5t179.5 50q110 0 181 -81t71 -194q0 -152 -113.5 -266.5t-257.5 -114.5zM1149 578q-92 0 -159.5 -100.5t-67.5 -254.5q0 -96 32.5 -153.5t98.5 -57.5q85 0 154 94t69 256
q0 98 -32.5 157t-94.5 59z" />
    <glyph glyph-name="perthousand.lin" horiz-adv-x="2246" 
d="M461 731q-110 0 -182 80t-72 193q0 157 114 269.5t259 112.5q110 0 180.5 -80.5t70.5 -193.5q0 -152 -113 -266.5t-257 -114.5zM569 1341q-92 0 -159.5 -100t-67.5 -254q0 -96 32.5 -153.5t98.5 -57.5q85 0 154 94t69 256q0 98 -32.5 156.5t-94.5 58.5zM72 -102
l1405 1566h84l-1405 -1566h-84zM1040 -33q-110 0 -182 80t-72 193q0 104 54 193.5t139.5 139.5t179.5 50q110 0 181 -81t71 -194q0 -152 -113.5 -266.5t-257.5 -114.5zM1149 578q-92 0 -159.5 -100.5t-67.5 -254.5q0 -96 32.5 -153.5t98.5 -57.5q85 0 154 94t69 256
q0 98 -32.5 157t-94.5 59zM1747 -33q-110 0 -182 80t-72 193q0 104 54 193.5t139.5 139.5t179.5 50q110 0 181 -81t71 -194q0 -152 -113.5 -266.5t-257.5 -114.5zM1855 578q-92 0 -159.5 -100.5t-67.5 -254.5q0 -96 32.5 -153.5t98.5 -57.5q85 0 154 94t69 256
q0 98 -32.5 157t-94.5 59z" />
    <glyph glyph-name="plus.lin" horiz-adv-x="1204" 
d="M1108 586h-444v-443h-82v443h-445v71h445v443h82v-443h444v-71z" />
    <glyph glyph-name="minus.lin" horiz-adv-x="1204" 
d="M1106 586h-971v71h971v-71z" />
    <glyph glyph-name="multiply.lin" horiz-adv-x="1204" 
d="M1008 182l-390 393l-385 -395l-55 53l387 392l-385 393l56 51l387 -389l391 403l53 -53l-391 -401l389 -396z" />
    <glyph glyph-name="divide.lin" horiz-adv-x="1204" 
d="M1108 586h-971v71h971v-71zM623 846q-40 0 -68.5 28t-28.5 68t28.5 68t68.5 28t68 -28t28 -68t-28 -68t-68 -28zM623 205q-40 0 -68.5 28t-28.5 68t28.5 68t68.5 28t68 -28t28 -68t-28 -68t-68 -28z" />
    <glyph glyph-name="equal.lin" horiz-adv-x="1204" 
d="M1108 727h-971v72h971v-72zM1108 438h-971v72h971v-72z" />
    <glyph glyph-name="less.lin" horiz-adv-x="1204" 
d="M1104 1024l-879 -408l879 -405v-78l-967 449v71l967 447v-76z" />
    <glyph glyph-name="greater.lin" horiz-adv-x="1204" 
d="M139 207l879 407l-879 406v80l967 -449v-71l-967 -447v74z" />
    <glyph glyph-name="plusminus.lin" horiz-adv-x="1202" 
d="M1108 817h-444v-442h-82v442h-445v72h445v442h82v-442h444v-72zM137 0v72h971v-72h-971z" />
    <glyph glyph-name="notequal.lin" horiz-adv-x="1204" 
d="M385 186h-74l160 252h-334v72h381l137 217h-518v72h563l160 250h74l-160 -250h334v-72h-379l-139 -217h518v-72h-563z" />
    <glyph glyph-name="approxequal.lin" horiz-adv-x="1204" 
d="M190 690l-61 29q47 87 107 131.5t145 44.5q79 0 201 -39l100 -31q113 -34 182 -34q105 0 176 127l60 -31q-47 -83 -105.5 -127.5t-144.5 -44.5q-72 0 -201 37l-102 30q-122 37 -180 37q-99 0 -177 -129zM190 385l-61 29q47 87 107 131.5t145 44.5q79 0 201 -39l100 -31
q117 -35 182 -35q105 0 176 127l60 -30q-47 -83 -105.5 -127.5t-144.5 -44.5q-75 0 -201 36l-102 31q-122 37 -180 37q-99 0 -177 -129z" />
    <glyph glyph-name="lessequal.lin" horiz-adv-x="1204" 
d="M1106 0h-967v72h967v-72zM1106 1100l-848 -318l848 -317v-72l-969 359v65l969 359v-76z" />
    <glyph glyph-name="greaterequal.lin" horiz-adv-x="1204" 
d="M1106 0h-967v72h967v-72zM139 469l848 317l-848 318v72l969 -359v-65l-969 -359v76z" />
    <glyph glyph-name="numbersign.lin" horiz-adv-x="1214" 
d="M248 977l14 65h252l119 318h67l-118 -318h327l119 318h68l-119 -318h250l-17 -65h-258l-151 -404h241l-14 -65h-252l-135 -365h-68l136 365h-328l-135 -365h-68l135 365h-247l14 65h258l151 404h-241zM557 977l-151 -404h327l152 404h-328z" />
    <glyph glyph-name="ordfeminine.lin" horiz-adv-x="892" 
d="M831 1401h62l-199 -719l6 -2q44 22 100 76.5t93 107.5l25 -14q-60 -108 -138 -184t-149 -76q-41 0 -54.5 34.5t1.5 88.5l59 221h-8q-30 -49 -50.5 -81t-64 -88.5t-80.5 -91t-87 -62t-97 -27.5q-48 0 -79.5 37t-31.5 96q0 139 85 297t211.5 264t238.5 106q80 0 125 -45z
M338 698q46 0 124 81.5t144 187t88 178.5l37 112q-42 70 -115 70q-66 0 -144 -86t-132.5 -220.5t-54.5 -258.5q0 -27 15.5 -45.5t37.5 -18.5z" />
    <glyph glyph-name="ordmasculine.lin" horiz-adv-x="798" 
d="M311 829q0 -32 3.5 -62.5t13 -64t30 -53.5t50.5 -20q71 0 141.5 85t112.5 204t43 223q1 27 -0.5 54t-9.5 66.5t-30.5 64t-58.5 24.5q-73 0 -142.5 -91t-109.5 -210.5t-43 -219.5zM614 1391q112 0 172 -81.5t60 -191.5q0 -103 -37.5 -201t-99 -170t-143 -115.5
t-165.5 -43.5q-108 0 -168.5 83.5t-60.5 200.5q0 135 62 255.5t164 192t216 71.5z" />
    <glyph glyph-name="zero.num" horiz-adv-x="749" 
d="M545 1378q117 0 186.5 -85t69.5 -218q0 -58 -14.5 -121.5t-46.5 -128t-78.5 -115.5t-116.5 -83.5t-154 -32.5q-114 0 -183 86t-69 221q0 56 14.5 118t47.5 126.5t78.5 116t115 84t150.5 32.5zM399 627q77 0 140 87t95 207t32 236q0 81 -32 133.5t-93 52.5
q-77 0 -141 -83.5t-97 -201t-33 -233.5q0 -48 11.5 -90.5t42 -75t75.5 -32.5z" />
    <glyph glyph-name="one.num" horiz-adv-x="446" 
d="M477 1378l-153 -712l122 -25l-4 -29h-383l4 29l140 25l131 604l-156 -8l6 32l287 84h6z" />
    <glyph glyph-name="two.num" horiz-adv-x="591" 
d="M379 854l-186 -145h403l-23 -97h-520l4 31l170 152q25 22 76 66t74 65t58.5 57t51 61.5t28.5 58.5t13 66q0 61 -37 91t-85 30q-42 0 -81.5 -19t-59 -36.5t-60.5 -58.5l-27 14q48 89 108.5 138.5t153.5 49.5q94 0 150.5 -56t56.5 -132q0 -34 -11.5 -66t-29 -59t-55 -63
t-73 -66.5t-99.5 -81.5z" />
    <glyph glyph-name="three.num" horiz-adv-x="567" 
d="M387 1024v-6q93 -3 156 -45.5t63 -116.5q0 -79 -54.5 -140t-137 -91.5t-174.5 -30.5q-75 0 -124.5 27.5t-49.5 70.5q0 30 15 51t54 41q60 -143 180 -143q70 0 119 48.5t49 113.5q0 49 -25.5 83.5t-69 51.5t-82.5 24t-83 9l6 33q155 44 210 91t53 107q-1 43 -30 68.5
t-75 25.5q-99 0 -190 -114l-29 20q97 176 268 176q82 0 129 -39.5t47 -103.5q3 -129 -225 -211z" />
    <glyph glyph-name="four.num" horiz-adv-x="657" 
d="M289 643l114 23l31 143h-350l6 41l520 518l58 -8l-103 -471h152l-15 -80h-153l-31 -143l107 -25l-7 -29h-335zM188 889h265l71 334z" />
    <glyph glyph-name="five.num" horiz-adv-x="595" 
d="M678 1360l-25 -109h-358l-57 -221q73 43 161 43q98 0 166.5 -51t69.5 -145q2 -79 -51 -144.5t-137.5 -101t-176.5 -35.5q-68 0 -124.5 25.5t-57.5 72.5q-2 24 14.5 49t49.5 39q37 -72 82 -103.5t112 -31.5q66 0 119.5 48.5t50.5 127.5q-3 68 -48 112t-126 44
q-83 0 -166 -57l-14 6l114 432h402z" />
    <glyph glyph-name="six.num" horiz-adv-x="657" 
d="M741 1352q-338 -86 -436 -340h6q42 34 81 50.5t89 16.5q88 0 150.5 -54t62.5 -144q0 -124 -81.5 -205.5t-223.5 -81.5q-111 0 -177.5 68.5t-66.5 189.5q0 203 160 349t432 181zM432 1022q-77 0 -147 -82q-15 -62 -15 -133q0 -80 35 -131t90 -51q76 0 122 69.5t46 163.5
q0 76 -34 120t-97 44z" />
    <glyph glyph-name="seven.num" horiz-adv-x="546" 
d="M211 612h-90l454 637h-403l25 111h495l-2 -8z" />
    <glyph glyph-name="eight.num" horiz-adv-x="612" 
d="M98 770q0 45 19.5 80t56.5 60t70.5 40t81.5 31l-4 4q-58 50 -81.5 90t-23.5 90q0 87 79 150t189 63q96 0 158 -45.5t62 -109.5q0 -40 -19.5 -74.5t-55.5 -60.5t-70 -43.5t-79 -34.5l25 -21q28 -24 43 -38.5t36 -38.5t30.5 -48.5t9.5 -50.5q0 -90 -86 -155.5t-187 -65.5
q-120 0 -187 49t-67 129zM393 924l-43 34q-71 -39 -102 -82t-31 -106q0 -52 38 -96.5t105 -44.5q63 0 103.5 33.5t40.5 95.5q0 74 -111 166zM334 1206q0 -66 76 -133l47 -41q135 64 135 189q0 59 -36.5 90.5t-80.5 31.5q-57 0 -99 -34t-42 -103z" />
    <glyph glyph-name="nine.num" horiz-adv-x="647" 
d="M106 633q156 28 271 117t166 223h-4q-43 -35 -81.5 -51.5t-88.5 -16.5q-89 0 -150 52.5t-61 150.5q0 114 84.5 197.5t214.5 83.5q107 0 176 -70.5t69 -190.5q0 -101 -40.5 -193.5t-114.5 -165t-187 -118.5t-249 -53zM418 963q76 0 145 77q15 81 15 134q0 87 -34 133.5
t-91 46.5q-76 0 -122 -69.5t-46 -160.5q0 -79 34 -120t99 -41z" />
    <glyph glyph-name="zero.den" horiz-adv-x="749" 
d="M424 766q117 0 186.5 -85t69.5 -218q0 -58 -14.5 -121.5t-46.5 -128t-78.5 -115.5t-116.5 -83.5t-154 -32.5q-114 0 -183 86t-69 221q0 56 14.5 118t47.5 126.5t78.5 116t115 84t150.5 32.5zM279 14q77 0 140 87.5t94.5 207.5t31.5 236q0 81 -32 133.5t-93 52.5
q-77 0 -141 -83.5t-96.5 -201t-32.5 -233.5q0 -48 11.5 -91t42 -75.5t75.5 -32.5z" />
    <glyph glyph-name="one.den" horiz-adv-x="446" 
d="M356 766l-153 -713l123 -24l-4 -29h-383l4 29l139 24l131 604l-156 -8l6 33l287 84h6z" />
    <glyph glyph-name="two.den" horiz-adv-x="591" 
d="M258 242l-186 -146h403l-22 -96h-521l5 31l169 151q25 22 76 66t74 65t58.5 57.5t51.5 62t29 58.5t13 66q0 61 -37.5 91t-85.5 30q-32 0 -59 -8t-55 -29t-41 -33t-46 -45l-27 15q48 89 108.5 138.5t153.5 49.5q94 0 150.5 -56t56.5 -132q0 -34 -11.5 -66t-29 -59t-55 -63
t-73 -66.5t-99.5 -81.5z" />
    <glyph glyph-name="three.den" horiz-adv-x="567" 
d="M266 412v-6q93 -3 156 -45.5t63 -116.5q0 -79 -54.5 -140t-137 -91.5t-174.5 -30.5q-75 0 -124.5 27.5t-49.5 70.5q0 30 15 51t54 41q60 -143 181 -143q70 0 119.5 48t47.5 113q0 49 -25.5 83.5t-69 51.5t-82.5 24t-83 9l7 33q155 44 209.5 91.5t52.5 107.5
q-1 43 -30 68.5t-75 25.5q-98 0 -190 -115l-29 21q97 176 268 176q82 0 129.5 -39.5t47.5 -103.5q3 -129 -226 -211z" />
    <glyph glyph-name="four.den" horiz-adv-x="657" 
d="M168 31l115 22l30 144h-350l6 41l520 518l58 -8l-103 -472h152l-14 -79h-154l-31 -144l107 -24l-6 -29h-336zM68 276h264l71 334z" />
    <glyph glyph-name="five.den" horiz-adv-x="595" 
d="M557 748l-25 -109h-358l-57 -221q73 43 162 43q97 0 165.5 -51t69.5 -146q2 -79 -51 -144.5t-136.5 -100.5t-176.5 -35q-43 0 -83 10t-69.5 33t-30.5 55q-2 24 14.5 49t49.5 39q37 -72 82 -103.5t112 -31.5q66 0 119.5 48.5t50.5 127.5q-3 68 -48 112t-126 44
q-82 0 -166 -58l-14 6l115 433h401z" />
    <glyph glyph-name="six.den" horiz-adv-x="657" 
d="M621 739q-162 -41 -274.5 -126t-162.5 -214h6q43 35 81.5 51.5t88.5 16.5q87 0 150 -54.5t63 -144.5q0 -124 -81.5 -205t-223.5 -81q-110 0 -176.5 68.5t-66.5 189.5q0 204 159.5 349.5t431.5 180.5zM311 410q-77 0 -147 -82q-14 -57 -14 -133q0 -80 34.5 -131.5
t89.5 -51.5q76 0 122 70t46 164q0 76 -34 120t-97 44z" />
    <glyph glyph-name="seven.den" horiz-adv-x="546" 
d="M90 0h-90l455 637h-404l25 111h495l-2 -9z" />
    <glyph glyph-name="eight.den" horiz-adv-x="612" 
d="M-23 158q0 45 19.5 80t56.5 60t70.5 40t81.5 31l-4 4q-58 50 -81.5 90t-23.5 90q0 86 79.5 149.5t189.5 63.5q96 0 157.5 -45.5t61.5 -110.5q0 -40 -19.5 -74.5t-55.5 -60.5t-70 -43.5t-79 -34.5l25 -20q28 -24 43 -38.5t36 -38.5t30.5 -48.5t9.5 -50.5q0 -90 -86 -155.5
t-187 -65.5q-120 0 -187 49t-67 129zM272 311l-43 35q-71 -39 -102 -82t-31 -106q0 -52 38.5 -97t105.5 -45q63 0 103 33.5t40 95.5q0 74 -111 166zM213 594q0 -66 76 -133l47 -41q135 64 135 188q0 59 -36.5 91t-80.5 32q-57 0 -99 -34t-42 -103z" />
    <glyph glyph-name="nine.den" horiz-adv-x="647" 
d="M-14 20q156 28 270.5 117t165.5 223h-4q-42 -34 -81 -50.5t-89 -16.5q-89 0 -150 52.5t-61 150.5q0 114 84.5 197t214.5 83q107 0 176.5 -70t69.5 -190q0 -101 -40.5 -193.5t-115 -165t-187.5 -118.5t-249 -53zM297 350q76 0 145 78q15 81 15 133q0 87 -34 133.5
t-91 46.5q-76 0 -122 -69.5t-46 -159.5q0 -79 34 -120.5t99 -41.5z" />
    <glyph glyph-name="zero.sub" horiz-adv-x="749" 
d="M403 664q116 0 186 -85.5t70 -218.5q0 -58 -14 -121.5t-46.5 -128t-78.5 -115.5t-116 -83.5t-154 -32.5q-114 0 -183 86t-69 221q0 46 10.5 97.5t31 105.5t55 103t77.5 87.5t103 61.5t128 23zM258 -88q58 0 109.5 51t85 130.5t52.5 171.5t19 177q0 82 -32 134.5t-93 52.5
q-77 0 -141 -83.5t-96.5 -201t-32.5 -233.5q0 -48 11.5 -91t42 -75.5t75.5 -32.5z" />
    <glyph glyph-name="one.sub" horiz-adv-x="446" 
d="M336 664l-154 -713l123 -25l-4 -28h-383l4 28l139 25l132 604l-156 -8l6 33l287 84h6z" />
    <glyph glyph-name="two.sub" horiz-adv-x="591" 
d="M238 139l-187 -145h404l-23 -96h-520l4 30l170 152q24 21 75.5 66t74 65.5t58.5 57t51.5 61.5t28.5 58.5t13 66.5q0 60 -37.5 90t-85.5 30q-42 0 -81.5 -19t-59 -36.5t-60.5 -58.5l-26 14q48 89 108.5 139t153.5 50q94 0 150.5 -56.5t56.5 -132.5q0 -34 -11.5 -66
t-29 -59t-55 -63t-73 -66.5t-99.5 -81.5z" />
    <glyph glyph-name="three.sub" horiz-adv-x="567" 
d="M246 309v-6q93 -3 156 -45.5t63 -116.5q0 -79 -55 -140t-137.5 -91.5t-174.5 -30.5q-75 0 -124.5 27.5t-49.5 70.5q0 30 15.5 51.5t54.5 41.5q60 -144 180 -144q70 0 120 48.5t48 113.5q0 49 -25.5 83.5t-69 51.5t-82.5 24t-83 9l6 33q155 44 209.5 91t52.5 107
q-2 43 -30 69t-74 26q-99 0 -191 -115l-28 20q97 177 268 177q82 0 129 -40t47 -104q3 -129 -225 -211z" />
    <glyph glyph-name="four.sub" horiz-adv-x="657" 
d="M147 -72l115 23l31 143h-350l6 41l520 518l57 -8l-102 -471h151l-14 -80h-153l-31 -143l106 -25l-6 -28h-336zM47 174h264l72 334z" />
    <glyph glyph-name="five.sub" horiz-adv-x="595" 
d="M537 645l-25 -108h-358l-58 -222q73 43 162 43q98 0 166.5 -51t69.5 -145q2 -79 -51 -144.5t-137.5 -101t-176.5 -35.5q-68 0 -124.5 26t-57.5 73q-2 24 14 49t49 39q37 -72 82.5 -104t112.5 -32q66 0 119.5 49t50.5 128q-3 68 -48 111.5t-126 43.5q-83 0 -166 -57l-15 6
l115 432h402z" />
    <glyph glyph-name="six.sub" horiz-adv-x="657" 
d="M600 637q-338 -86 -436 -340h6q43 35 81.5 51.5t88.5 16.5q87 0 150 -54.5t63 -144.5q0 -124 -81.5 -205.5t-223.5 -81.5q-111 0 -177.5 68.5t-66.5 189.5q0 204 160 350t432 181zM291 307q-78 0 -148 -82q-14 -57 -14 -133q0 -80 35 -131t90 -51q76 0 122 69.5t46 163.5
q0 76 -34 120t-97 44z" />
    <glyph glyph-name="seven.sub" horiz-adv-x="546" 
d="M70 -102h-90l454 637h-403l24 110h496l-2 -8z" />
    <glyph glyph-name="eight.sub" horiz-adv-x="612" 
d="M-43 55q0 45 19 80t56 60t70.5 40t81.5 31l-4 4q-57 50 -80.5 90t-23.5 91q0 87 79 150t189 63q96 0 157.5 -45.5t61.5 -110.5q0 -40 -19.5 -74.5t-55 -60.5t-69.5 -43.5t-79 -34.5l25 -21q37 -31 57 -51t40.5 -55.5t20.5 -69.5q0 -90 -85.5 -155.5t-186.5 -65.5
q-120 0 -187 49t-67 129zM252 209l-43 35q-71 -38 -102 -82t-31 -107q0 -52 38 -96.5t105 -44.5q63 0 103 33.5t40 95.5q0 75 -110 166zM193 492q0 -68 75 -134l47 -41q136 64 136 189q0 59 -36.5 91t-80.5 32q-57 0 -99 -34t-42 -103z" />
    <glyph glyph-name="nine.sub" horiz-adv-x="647" 
d="M-35 -82q156 28 270.5 117t165.5 223h-4q-43 -35 -81.5 -51.5t-88.5 -16.5q-89 0 -150 52.5t-61 150.5q0 114 84.5 197.5t214.5 83.5q107 0 176.5 -70t69.5 -190q0 -101 -40.5 -193.5t-115 -165.5t-187.5 -119t-249 -53zM276 248q77 0 146 78q14 75 14 133
q0 87 -34 133.5t-91 46.5q-76 0 -122 -69.5t-46 -159.5q0 -79 34 -120.5t99 -41.5z" />
    <glyph glyph-name="plus.sub" horiz-adv-x="608" 
d="M551 217h-260v-240h-60v240h-262v51h262v242h60v-242h260v-51z" />
    <glyph glyph-name="minus.sub" horiz-adv-x="608" 
d="M551 217h-582v51h582v-51z" />
    <glyph glyph-name="zero.sup" horiz-adv-x="749" 
d="M578 1546q117 0 186.5 -85t69.5 -218q0 -58 -14.5 -121.5t-46.5 -128t-78.5 -115.5t-116.5 -83.5t-154 -32.5q-114 0 -183 86t-69 221q0 56 14.5 118t47.5 126.5t78.5 116t115 84t150.5 32.5zM432 795q58 0 109.5 51t85 130.5t52.5 171.5t19 177q0 81 -32 133.5t-93 52.5
q-77 0 -141 -83.5t-96.5 -201t-32.5 -233.5q0 -48 11.5 -90.5t42 -75t75.5 -32.5z" />
    <glyph glyph-name="one.sup" horiz-adv-x="446" 
d="M510 1546l-154 -712l123 -25l-4 -29h-383l4 29l140 25l131 604l-156 -8l6 32l287 84h6z" />
    <glyph glyph-name="two.sup" horiz-adv-x="591" 
d="M412 1022l-187 -145h404l-23 -97h-520l4 31l170 152q25 22 76 66t74 65t58.5 57t51 61.5t28.5 58.5t13 66q0 61 -37.5 91t-85.5 30q-26 0 -51 -7.5t-40 -14.5t-40.5 -28.5t-32.5 -28.5l-36 -36l-27 15q48 89 108.5 138.5t153.5 49.5q94 0 150.5 -56t56.5 -132
q0 -34 -11.5 -66t-29 -59t-55 -63t-73 -66.5t-99.5 -81.5z" />
    <glyph glyph-name="three.sup" horiz-adv-x="567" 
d="M420 1192v-6q93 -3 156 -45.5t63 -116.5q0 -79 -55 -140t-137.5 -91.5t-174.5 -30.5q-75 0 -124.5 27.5t-49.5 70.5q0 30 15.5 51t54.5 41q60 -143 180 -143q70 0 120 48.5t48 113.5q0 49 -25.5 83.5t-69 51.5t-82.5 24t-83 9l6 32q155 44 209.5 91.5t52.5 107.5
q-1 43 -29.5 68.5t-74.5 25.5q-100 0 -191 -114l-28 20q97 176 268 176q82 0 129 -39.5t47 -103.5q3 -129 -225 -211z" />
    <glyph glyph-name="four.sup" horiz-adv-x="657" 
d="M322 811l114 23l31 143h-350l6 41l520 518l57 -8l-102 -471h152l-15 -80h-153l-31 -143l106 -25l-6 -29h-336zM221 1057h264l72 334z" />
    <glyph glyph-name="five.sup" horiz-adv-x="595" 
d="M711 1528l-25 -109h-358l-58 -221q73 43 162 43q63 0 114.5 -21t86 -66.5t35.5 -109.5q2 -79 -51 -144.5t-137 -100.5t-177 -35q-68 0 -124.5 25.5t-57.5 72.5q-2 24 14 49t49 39q37 -72 82.5 -103.5t112.5 -31.5q66 0 119.5 48.5t50.5 127.5q-3 68 -48 112t-126 44
q-83 0 -166 -57l-14 6l114 432h402z" />
    <glyph glyph-name="six.sup" horiz-adv-x="657" 
d="M774 1520q-338 -86 -436 -340h6q42 34 81 50.5t89 16.5q88 0 150.5 -54t62.5 -144q0 -124 -81.5 -205.5t-223.5 -81.5q-111 0 -177.5 68.5t-66.5 189.5q0 203 160 349t432 181zM465 1190q-78 0 -148 -82q-14 -57 -14 -133q0 -80 35 -131t90 -51q76 0 122 69.5t46 163.5
q0 76 -34 120t-97 44z" />
    <glyph glyph-name="seven.sup" horiz-adv-x="546" 
d="M244 780h-90l454 637h-403l24 111h496l-2 -8z" />
    <glyph glyph-name="eight.sup" horiz-adv-x="612" 
d="M131 938q0 45 19 80t56 60t70.5 40t81.5 31l-4 4q-58 50 -81 89.5t-23 90.5q0 87 79 150t189 63q96 0 157.5 -45t61.5 -110q0 -40 -19.5 -74.5t-55 -60.5t-69.5 -43.5t-79 -34.5l25 -21q37 -31 57 -51t40.5 -55.5t20.5 -69.5q0 -90 -85.5 -155.5t-186.5 -65.5
q-120 0 -187 49t-67 129zM426 1092l-43 34q-71 -39 -102 -82t-31 -106q0 -52 38 -96.5t105 -44.5q63 0 103.5 33.5t40.5 95.5q0 74 -111 166zM367 1374q0 -67 75 -133l47 -41q136 64 136 189q0 59 -36.5 90.5t-80.5 31.5q-57 0 -99 -34t-42 -103z" />
    <glyph glyph-name="nine.sup" horiz-adv-x="647" 
d="M139 801q156 28 270.5 117t165.5 223h-4q-43 -35 -81.5 -51.5t-88.5 -16.5q-89 0 -150 52.5t-61 150.5q0 114 84.5 197t214.5 83q107 0 176.5 -70t69.5 -190q0 -101 -40.5 -193.5t-115 -165t-187.5 -118.5t-249 -53zM451 1130q76 0 145 78q14 75 14 133q0 87 -34 134
t-91 47q-76 0 -122 -69.5t-46 -160.5q0 -79 34.5 -120.5t99.5 -41.5z" />
    <glyph glyph-name="plus.sup" horiz-adv-x="608" 
d="M725 1100h-260v-240h-59v240h-263v51h263v242h59v-242h260v-51z" />
    <glyph glyph-name="minus.sup" horiz-adv-x="608" 
d="M725 1100h-582v51h582v-51z" />
    <glyph glyph-name="A.alt" horiz-adv-x="1228" 
d="M-133 0l8 39l113 35l901 1288l63 12l72 10v-1310l133 -37l-6 -37h-489l8 37l186 35l4 471h-457l-305 -465l191 -39l-8 -39h-414zM862 1237l-407 -619h405l6 617z" />
    <glyph glyph-name="M.alt" horiz-adv-x="1738" 
d="M-74 0l8 39l146 37l362 1212l-161 37l6 35h362l166 -1067l612 1067h316l-6 -35l-174 -37l-78 -1216l127 -35l-6 -37h-471l8 37l176 35l78 1120l-596 -1045l-51 -92h-56l-10 92l-186 1102l-328 -1173l158 -37l-6 -39h-396z" />
    <glyph glyph-name="V.alt" horiz-adv-x="1128" 
d="M250 -12l-2 1304l-94 33l6 35h436l-6 -35l-176 -37l-15 -1061h4l762 1061l-164 37l7 35h340l-9 -35l-77 -33l-963 -1304h-49z" />
    <glyph glyph-name="W.alt" horiz-adv-x="1622" 
d="M879 -12l8 1005l-629 -1005h-68l58 1304l-94 33l6 35h434l-6 -35l-176 -37l-60 -1048l535 870l2 182l-148 33l7 35h487l-6 -35l-178 -37l-23 -1052l610 1052l-163 37l6 35h342l-8 -35l-80 -33l-789 -1304h-67z" />
    <glyph glyph-name="h.alt" horiz-adv-x="911" 
d="M-10 0l362 1368l-125 84l4 14l312 62l-262 -998h8q269 451 475 451q62 0 95.5 -47t33.5 -127q0 -134 -48.5 -284.5t-119.5 -268t-157.5 -195t-157.5 -77.5q-32 0 -57 16t-25 47q0 37 32 72q70 -53 146 -49q26 34 61.5 102t73 158.5t63 201t25.5 205.5q0 60 -14.5 90.5
t-52.5 30.5q-61 0 -150 -86.5t-179.5 -246t-142.5 -341.5l-49 -172l-123 -35z" />
    <glyph glyph-name="v.alt" horiz-adv-x="1003" 
d="M498 825h-256q-56 0 -75.5 -10t-19.5 -33q0 -20 19.5 -39.5t79.5 -56.5q-48 -78 -111 -78q-35 0 -58.5 25t-23.5 59q0 72 90.5 164t192.5 92h274v-14l-110 -195q-86 -152 -123.5 -247.5t-38.5 -178.5q-3 -48 9.5 -84.5t36 -56.5t51 -29.5t57.5 -9.5q75 0 143 47
t114 120.5t73.5 164.5t27.5 178q0 77 -22.5 156t-59.5 133q46 31 90 31q111 0 111 -175q0 -116 -50.5 -258t-128.5 -263.5t-184 -204t-207 -82.5q-90 0 -148.5 60t-57.5 165q0 23 3.5 46t7.5 42t14.5 46.5t16.5 43t23.5 47.5t24.5 46t31 52.5t32 51t37.5 58.5t38.5 60
l76 119v8z" />
    <glyph glyph-name="w.alt" horiz-adv-x="1351" 
d="M608 948l-4 -16l-125 -205q-86 -143 -138.5 -253.5t-61.5 -201.5q-6 -69 29 -113t87 -44q140 0 281 211q20 194 44 324t64 270q28 43 80 43q26 0 41 -12t18 -32t-0.5 -40.5t-11.5 -42.5l-182 -517q13 -95 57.5 -139.5t126.5 -44.5q117 0 205 125t88 336q0 87 -27.5 180
t-64.5 156q43 31 90 31q113 0 113 -191q0 -75 -19.5 -175t-59 -208.5t-92.5 -199.5t-128 -150t-156 -59q-105 0 -147.5 71.5t-34.5 206.5h-6q-195 -278 -387 -278q-83 0 -131.5 62.5t-40.5 150.5q4 46 29 105.5t75 137.5t81.5 123t93.5 130l6 7.5t5 7l5 7.5l82 112v2h-250
q-49 0 -72 -9t-23 -34q0 -21 21 -41t78 -55q-46 -78 -111 -78q-35 0 -58.5 24.5t-23.5 59.5q0 45 40.5 104.5t108.5 105.5t134 46h272z" />
    <glyph glyph-name="Aacute.alt" horiz-adv-x="1228" 
d="M-133 0l8 39l113 35l901 1288l63 12l72 10v-1310l133 -37l-6 -37h-489l8 37l186 35l4 471h-457l-305 -465l191 -39l-8 -39h-414zM862 1237l-407 -619h405l6 617zM1114 1772h158v-15l-281 -266h-49z" />
    <glyph glyph-name="Abreve.alt" horiz-adv-x="1228" 
d="M-133 0l8 39l113 35l901 1288l63 12l72 10v-1310l133 -37l-6 -37h-489l8 37l186 35l4 471h-457l-305 -465l191 -39l-8 -39h-414zM862 1237l-407 -619h405l6 617zM981 1495q-109 0 -165 63t-62 199h34q35 -86 82 -124t129 -38q148 0 238 162h33q-25 -121 -101.5 -191.5
t-187.5 -70.5z" />
    <glyph glyph-name="Acircumflex.alt" horiz-adv-x="1228" 
d="M-133 0l8 39l113 35l901 1288l63 12l72 10v-1310l133 -37l-6 -37h-489l8 37l186 35l4 471h-457l-305 -465l191 -39l-8 -39h-414zM862 1237l-407 -619h405l6 617zM752 1491h-70l287 260h104l184 -260h-59l-197 170z" />
    <glyph glyph-name="Adieresis.alt" horiz-adv-x="1228" 
d="M-133 0l8 39l113 35l901 1288l63 12l72 10v-1310l133 -37l-6 -37h-489l8 37l186 35l4 471h-457l-305 -465l191 -39l-8 -39h-414zM862 1237l-407 -619h405l6 617zM786 1556q-38 0 -64 27t-26 66t26 66.5t64 27.5q40 0 68.5 -28t28.5 -66t-28.5 -65.5t-68.5 -27.5z
M1196 1556q-38 0 -65 27.5t-27 65.5t27 66t65 28t66 -28t28 -66t-28 -65.5t-66 -27.5z" />
    <glyph glyph-name="Agrave.alt" horiz-adv-x="1228" 
d="M-133 0l8 39l113 35l901 1288l63 12l72 10v-1310l133 -37l-6 -37h-489l8 37l186 35l4 471h-457l-305 -465l191 -39l-8 -39h-414zM862 1237l-407 -619h405l6 617zM707 1772h157l129 -281h-49l-237 266v15z" />
    <glyph glyph-name="Amacron.alt" horiz-adv-x="1228" 
d="M-133 0l8 39l113 35l901 1288l63 12l72 10v-1310l133 -37l-6 -37h-489l8 37l186 35l4 471h-457l-305 -465l191 -39l-8 -39h-414zM862 1237l-407 -619h405l6 617zM694 1556l21 99h573l-22 -99h-572z" />
    <glyph glyph-name="Aogonek.alt" horiz-adv-x="1228" 
d="M-133 0l8 39l113 35l901 1288l63 12l72 10v-1310l133 -37l-8 -37h-258q-140 -119 -195 -189t-55 -130q0 -36 23 -63.5t67 -27.5q41 0 78.5 23.5t89.5 87.5l31 -16q-131 -195 -277 -195q-69 0 -107 43t-38 102q0 57 42.5 116t93 103t200.5 161q8 7 12 10v2l4 516h-457
l-305 -465l191 -39l-8 -39h-414zM862 1237l-407 -619h405l6 617z" />
    <glyph glyph-name="Aring.alt" horiz-adv-x="1228" 
d="M-133 0l8 39l113 35l901 1288l63 12l72 10v-1310l133 -37l-6 -37h-489l8 37l186 35l4 471h-457l-305 -465l191 -39l-8 -39h-414zM803 1710q0 87 58.5 143t144.5 56q89 0 146.5 -55.5t57.5 -143.5q0 -87 -58 -144t-144 -57q-89 0 -147 56t-58 145zM862 1237l-407 -619h405
l6 617zM866 1710q0 -62 41 -104.5t99 -42.5q59 0 101 42.5t42 104.5t-41.5 105t-99.5 43q-59 0 -100.5 -42.5t-41.5 -105.5z" />
    <glyph glyph-name="Aringacute.alt" horiz-adv-x="1228" 
d="M-133 0l8 39l113 35l901 1288l63 12l72 10v-1310l133 -37l-6 -37h-489l8 37l186 35l4 471h-457l-305 -465l191 -39l-8 -39h-414zM803 1634q0 87 58.5 143t144.5 56q89 0 146.5 -55.5t57.5 -143.5q0 -87 -58 -143.5t-144 -56.5q-89 0 -147 56t-58 144zM862 1237l-407 -619
h405l6 617zM866 1634q0 -62 41 -104.5t99 -42.5q59 0 101 42.5t42 104.5t-41.5 105t-99.5 43q-59 0 -100.5 -42.5t-41.5 -105.5zM1198 2163h158v-15l-281 -266h-49z" />
    <glyph glyph-name="Atilde.alt" horiz-adv-x="1228" 
d="M-133 0l8 39l113 35l901 1288l63 12l72 10v-1310l133 -37l-6 -37h-489l8 37l186 35l4 471h-457l-305 -465l191 -39l-8 -39h-414zM862 1237l-407 -619h405l6 617zM696 1511l-26 11l10 28q83 233 281 144l114 -52q33 -15 51 -21t41 -7t39 10.5t35 36t39 65.5l29 -10
l-13 -39q-30 -89 -73.5 -133.5t-94 -45.5t-110.5 24l-111 51q-85 43 -126 33t-85 -95z" />
    <glyph glyph-name="Wacute.alt" horiz-adv-x="1622" 
d="M879 -12l8 1005l-629 -1005h-68l58 1304l-94 33l6 35h434l-6 -35l-176 -37l-60 -1048l535 870l2 182l-148 33l7 35h487l-6 -35l-178 -37l-23 -1052l610 1052l-163 37l6 35h342l-8 -35l-80 -33l-789 -1304h-67zM1155 1772h158v-15l-281 -266h-49z" />
    <glyph glyph-name="Wcircumflex.alt" horiz-adv-x="1622" 
d="M879 -12l8 1005l-629 -1005h-68l58 1304l-94 33l6 35h434l-6 -35l-176 -37l-60 -1048l535 870l2 182l-148 33l7 35h487l-6 -35l-178 -37l-23 -1052l610 1052l-163 37l6 35h342l-8 -35l-80 -33l-789 -1304h-67zM791 1491h-70l287 260h104l184 -260h-59l-197 170z" />
    <glyph glyph-name="Wdieresis.alt" horiz-adv-x="1622" 
d="M879 -12l8 1005l-629 -1005h-68l58 1304l-94 33l6 35h434l-6 -35l-176 -37l-60 -1048l535 870l2 182l-148 33l7 35h487l-6 -35l-178 -37l-23 -1052l610 1052l-163 37l6 35h342l-8 -35l-80 -33l-789 -1304h-67zM827 1556q-38 0 -64 27t-26 66t26 66.5t64 27.5
q40 0 68.5 -28t28.5 -66t-28.5 -65.5t-68.5 -27.5zM1237 1556q-38 0 -65 27.5t-27 65.5t27 66t65 28t66 -28t28 -66t-28 -65.5t-66 -27.5z" />
    <glyph glyph-name="Wgrave.alt" horiz-adv-x="1622" 
d="M879 -12l8 1005l-629 -1005h-68l58 1304l-94 33l6 35h434l-6 -35l-176 -37l-60 -1048l535 870l2 182l-148 33l7 35h487l-6 -35l-178 -37l-23 -1052l610 1052l-163 37l6 35h342l-8 -35l-80 -33l-789 -1304h-67zM748 1772h157l129 -281h-49l-237 266v15z" />
    <glyph glyph-name="hbar.alt" horiz-adv-x="911" 
d="M160 1151l16 55h133l43 162l-125 84l4 14l312 62l-86 -322h379l-17 -55h-377l-161 -621h8q269 451 475 451q62 0 95.5 -47t33.5 -127q0 -134 -48.5 -284.5t-119.5 -268t-157.5 -195t-157.5 -77.5q-32 0 -57 16t-25 47q0 37 32 72q70 -53 146 -49q26 34 61.5 102t73 158.5
t63 201t25.5 205.5q0 60 -14.5 90.5t-52.5 30.5q-61 0 -150 -86.5t-179.5 -246t-142.5 -341.5l-49 -172l-123 -35l-28 25l305 1151h-135z" />
    <glyph glyph-name="hcircumflex.alt" horiz-adv-x="911" 
d="M-10 0l362 1368l-125 84l4 14l312 62l-262 -998h8q269 451 475 451q62 0 95.5 -47t33.5 -127q0 -134 -48.5 -284.5t-119.5 -268t-157.5 -195t-157.5 -77.5q-32 0 -57 16t-25 47q0 37 32 72q70 -53 146 -49q26 34 61.5 102t73 158.5t63 201t25.5 205.5q0 60 -14.5 90.5
t-52.5 30.5q-61 0 -150 -86.5t-179.5 -246t-142.5 -341.5l-49 -172l-123 -35zM494 1573h-70l287 260h104l184 -260h-59l-197 170z" />
    <glyph glyph-name="wacute.alt" horiz-adv-x="1351" 
d="M608 948l-4 -16l-125 -205q-86 -143 -138.5 -253.5t-61.5 -201.5q-6 -69 29 -113t87 -44q140 0 281 211q20 194 44 324t64 270q28 43 80 43q26 0 41 -12t18 -32t-0.5 -40.5t-11.5 -42.5l-182 -517q13 -95 57.5 -139.5t126.5 -44.5q117 0 205 125t88 336q0 87 -27.5 180
t-64.5 156q43 31 90 31q113 0 113 -191q0 -75 -19.5 -175t-59 -208.5t-92.5 -199.5t-128 -150t-156 -59q-105 0 -147.5 71.5t-34.5 206.5h-6q-195 -278 -387 -278q-83 0 -131.5 62.5t-40.5 150.5q4 46 29 105.5t75 137.5t81.5 123t93.5 130l6 7.5t5 7l5 7.5l82 112v2h-250
q-49 0 -72 -9t-23 -34q0 -21 21 -41t78 -55q-46 -78 -111 -78q-35 0 -58.5 24.5t-23.5 59.5q0 45 40.5 104.5t108.5 105.5t134 46h272zM1065 1540h139v-20l-278 -406h-49z" />
    <glyph glyph-name="wcircumflex.alt" horiz-adv-x="1351" 
d="M608 948l-4 -16l-125 -205q-86 -143 -138.5 -253.5t-61.5 -201.5q-6 -69 29 -113t87 -44q140 0 281 211q20 194 44 324t64 270q28 43 80 43q26 0 41 -12t18 -32t-0.5 -40.5t-11.5 -42.5l-182 -517q13 -95 57.5 -139.5t126.5 -44.5q117 0 205 125t88 336q0 87 -27.5 180
t-64.5 156q43 31 90 31q113 0 113 -191q0 -75 -19.5 -175t-59 -208.5t-92.5 -199.5t-128 -150t-156 -59q-105 0 -147.5 71.5t-34.5 206.5h-6q-195 -278 -387 -278q-83 0 -131.5 62.5t-40.5 150.5q4 46 29 105.5t75 137.5t81.5 123t93.5 130l6 7.5t5 7l5 7.5l82 112v2h-250
q-49 0 -72 -9t-23 -34q0 -21 21 -41t78 -55q-46 -78 -111 -78q-35 0 -58.5 24.5t-23.5 59.5q0 45 40.5 104.5t108.5 105.5t134 46h272zM709 1114h-56l283 426h78l98 -426h-47l-119 279z" />
    <glyph glyph-name="wdieresis.alt" horiz-adv-x="1351" 
d="M608 948l-4 -16l-125 -205q-86 -143 -138.5 -253.5t-61.5 -201.5q-6 -69 29 -113t87 -44q140 0 281 211q20 194 44 324t64 270q28 43 80 43q26 0 41 -12t18 -32t-0.5 -40.5t-11.5 -42.5l-182 -517q13 -95 57.5 -139.5t126.5 -44.5q117 0 205 125t88 336q0 87 -27.5 180
t-64.5 156q43 31 90 31q113 0 113 -191q0 -75 -19.5 -175t-59 -208.5t-92.5 -199.5t-128 -150t-156 -59q-105 0 -147.5 71.5t-34.5 206.5h-6q-195 -278 -387 -278q-83 0 -131.5 62.5t-40.5 150.5q4 46 29 105.5t75 137.5t81.5 123t93.5 130l6 7.5t5 7l5 7.5l82 112v2h-250
q-49 0 -72 -9t-23 -34q0 -21 21 -41t78 -55q-46 -78 -111 -78q-35 0 -58.5 24.5t-23.5 59.5q0 45 40.5 104.5t108.5 105.5t134 46h272zM774 1229q-38 0 -64 27t-26 65q0 39 26 66.5t64 27.5q40 0 68 -28t28 -66t-28 -65t-68 -27zM1083 1229q-38 0 -65 27t-27 65t27 66t65 28
t66.5 -28t28.5 -66t-28 -65t-67 -27z" />
    <glyph glyph-name="wgrave.alt" horiz-adv-x="1351" 
d="M608 948l-4 -16l-125 -205q-86 -143 -138.5 -253.5t-61.5 -201.5q-6 -69 29 -113t87 -44q140 0 281 211q20 194 44 324t64 270q28 43 80 43q26 0 41 -12t18 -32t-0.5 -40.5t-11.5 -42.5l-182 -517q13 -95 57.5 -139.5t126.5 -44.5q117 0 205 125t88 336q0 87 -27.5 180
t-64.5 156q43 31 90 31q113 0 113 -191q0 -75 -19.5 -175t-59 -208.5t-92.5 -199.5t-128 -150t-156 -59q-105 0 -147.5 71.5t-34.5 206.5h-6q-195 -278 -387 -278q-83 0 -131.5 62.5t-40.5 150.5q4 46 29 105.5t75 137.5t81.5 123t93.5 130l6 7.5t5 7l5 7.5l82 112v2h-250
q-49 0 -72 -9t-23 -34q0 -21 21 -41t78 -55q-46 -78 -111 -78q-35 0 -58.5 24.5t-23.5 59.5q0 45 40.5 104.5t108.5 105.5t134 46h272zM723 1540h139l58 -426h-46l-151 404v22z" />
    <glyph glyph-name="bullet.alt" horiz-adv-x="647" 
d="M285 1315q37 0 70.5 -23t54 -49.5t52.5 -74.5q5 -7 7 -11h14q75 60 111 80t80 20q51 0 80.5 -30t29.5 -76q0 -57 -36 -95t-89 -38q-34 0 -67.5 18t-56 39t-60.5 62h-4q-49 -52 -49 -103q0 -63 110 -149q57 -46 89 -86t32 -86q0 -58 -48 -93t-107 -18q-20 -49 -80 -49
q-39 0 -65 21t-56 81q-5 10 -16 31t-15 28t-12.5 21.5t-14 19.5t-14.5 12t-18 9t-21 2q-34 0 -54.5 -24t-27.5 -58h-16q-11 60 24 106t97 46q35 0 62.5 -16.5t45 -39.5t34 -46t36.5 -39.5t43 -16.5q53 0 53 55q0 30 -21.5 61t-47 54t-47 57.5t-21.5 71.5q0 76 96 148l-2 4
q-95 -29 -159 -29q-49 0 -76 28.5t-27 76.5q0 43 31.5 70.5t75.5 27.5zM627 1399q0 -82 -133 -189h-11q-1 2 -15 28.5t-23.5 46.5t-19 50.5t-9.5 53.5q0 40 32 71t84 31q40 0 67.5 -29t27.5 -63z" />
    <glyph glyph-name="f.short" horiz-adv-x="557" 
d="M74 870l14 78h166q44 146 123.5 278.5t174.5 214t177 81.5q42 0 72 -22t30 -54q0 -49 -51 -111q-65 61 -87 74q-28 16 -62 16q-61 0 -120 -122.5t-108 -354.5h269l-19 -78h-264l-139 -692q-73 -365 -193 -544t-270 -179q-54 0 -100.5 32t-46.5 83q0 22 12 44t19.5 30
t29.5 30q55 -81 91 -114t71 -33q33 0 55.5 23t50 97.5t57.5 201.5t74 348l136 673h-162z" />
    </font>
</defs>
</svg>
