<?xml version="1.0" standalone="no"?>
<!DOCTYPE svg PUBLIC "-//W3C//DTD SVG 1.1//EN" "http://www.w3.org/Graphics/SVG/1.1/DTD/svg11.dtd" >
<svg xmlns="http://www.w3.org/2000/svg" xmlns:xlink="http://www.w3.org/1999/xlink" version="1.1">
<metadata>
Created by FontForge 20170731 at Thu Dec 24 14:22:05 2020
 By Aleksey,,,
(c)2010 Kai Bernau and Commercial Type.
</metadata>
<defs>
<font id="LyonDisplay-Light" horiz-adv-x="1187" >
  <font-face 
    font-family="Lyon Display Light"
    font-weight="300"
    font-stretch="normal"
    units-per-em="2048"
    panose-1="2 0 3 3 8 0 0 2 0 4"
    ascent="1638"
    descent="-410"
    x-height="948"
    cap-height="1360"
    bbox="-330 -545 2370 2163"
    underline-thickness="102"
    underline-position="-409"
    unicode-range="U+0020-FB04"
  />
<missing-glyph horiz-adv-x="368" 
 />
    <glyph glyph-name="f_f" unicode="ff" horiz-adv-x="1132" 
d="M709 63v816h-387v-816l165 -28v-35h-460v35l143 28v807h-158v39l162 41q10 130 64 245t152 191t220 76q70 0 127.5 -29t89.5 -71q61 77 139.5 119.5t163.5 42.5q100 0 177 -49t77 -115q0 -90 -129 -90l-49 149q-49 49 -133 49q-82 0 -149 -80t-66 -241l2 -199h273v-69
h-273v-816l166 -28v-35h-440v35zM555 1405q-47 0 -87.5 -22t-74.5 -67.5t-54 -124.5t-20 -183v-60h390v41q0 138 47 250q-21 68 -70 117t-131 49z" />
    <glyph glyph-name="f_i" unicode="fi" horiz-adv-x="1024" 
d="M586 0v35l123 28v816h-387v-816l165 -28v-35h-460v35l143 28v807h-158v39l160 41q-1 269 121.5 421.5t316.5 152.5q103 0 178.5 -54t75.5 -122q0 -48 -31.5 -73.5t-84.5 -25.5l-33 4l-35 160q-17 17 -29 26.5t-41 20t-65 10.5q-45 0 -84 -19t-72.5 -60t-52 -116.5
t-17.5 -178.5l3 -148h456l82 29v-914l144 -28v-35h-418z" />
    <glyph glyph-name="f_l" unicode="fl" horiz-adv-x="1009" 
d="M580 0v35l129 28v816h-387v-816l165 -28v-35h-460v35l143 28v807h-158v39l160 41q-1 254 123 414t315 160q83 0 158 -47l92 49v-1463l129 -28v-35h-409zM543 1464q-38 0 -75 -17.5t-72.5 -55t-56.5 -109t-20 -166.5l3 -168h387v418q-74 98 -166 98z" />
    <glyph glyph-name="f_f_i" unicode="ffi" horiz-adv-x="1562" 
d="M586 0v35l123 28v816h-387v-816l165 -28v-35h-460v35l143 28v807h-158v39l162 41q10 130 64 245t152 191t220 76q69 0 125 -27.5t90 -68.5q126 158 324 158q103 0 178.5 -54t75.5 -122q0 -48 -32 -73.5t-85 -25.5l-33 4l-34 160q-16 16 -28.5 26t-42 20.5t-65.5 10.5
q-45 0 -84 -19t-72 -60t-51.5 -116.5t-17.5 -178.5l2 -148h457l82 29v-914l143 -28v-35h-434v35l139 28v816h-387v-816l166 -28v-35h-440zM555 1405q-100 0 -168 -97t-68 -300v-60h390v47q0 136 47 248q-23 67 -72 114.5t-129 47.5z" />
    <glyph glyph-name="f_f_l" unicode="ffl" horiz-adv-x="1548" 
d="M586 0v35l123 28v816h-387v-816l165 -28v-35h-460v35l143 28v807h-158v39l162 41q10 130 64 245t152 191t220 76q69 0 125 -27.5t90 -68.5q58 75 138.5 116.5t171.5 41.5q97 0 170 -47l94 49v-1463l129 -28v-35h-404v35l123 28v816h-387v-816l166 -28v-35h-440z
M1081 1464q-38 0 -75 -17.5t-72 -54.5t-56 -108.5t-20 -167.5l2 -168h387v418q-74 98 -166 98zM555 1405q-100 0 -168 -97t-68 -300v-60h390v41q0 140 47 252q-23 68 -71.5 116t-129.5 48z" />
    <glyph glyph-name="f_b" unicode="fb" horiz-adv-x="1622" 
d="M993 -29q-117 0 -241 62l-43 22v1311q-74 98 -166 98q-30 0 -59.5 -10t-60 -35t-54 -63.5t-37.5 -100t-13 -139.5l3 -168h256v-78h-256v-807l165 -28v-35h-460v35l143 28v807h-158v39l160 41q-1 255 123 414.5t315 159.5q83 0 158 -47l92 49v-713q154 164 316 164
q72 0 136 -25.5t117.5 -77.5t85 -143t31.5 -211q0 -143 -78 -270.5t-206 -203t-269 -75.5zM1096 877q-121 0 -236 -121v-637q85 -74 209 -74q65 0 122 27t103 80t72.5 141.5t26.5 202.5q0 160 -88.5 270.5t-208.5 110.5z" />
    <glyph glyph-name="f_f_b" unicode="ffb" horiz-adv-x="2160" 
d="M586 0v35l123 28v816h-387v-816l165 -28v-35h-460v35l143 28v807h-158v39l162 41q10 130 64 245t152 191t220 76q69 0 125 -27.5t90 -68.5q58 75 138.5 116.5t171.5 41.5q97 0 170 -47l94 49v-713q154 164 315 164q72 0 136 -25.5t118 -77.5t85.5 -143t31.5 -211
q0 -143 -78 -270.5t-206 -203t-269 -75.5q-118 0 -242 62l-43 22v1311q-74 98 -166 98q-38 0 -75 -17.5t-72 -54.5t-56 -108.5t-20 -167.5l2 -168h256v-69h-256v-816l166 -28v-35h-440zM1634 877q-120 0 -235 -121v-637q85 -74 209 -74q65 0 121.5 27t102.5 80t72.5 141.5
t26.5 202.5q0 160 -88.5 270.5t-208.5 110.5zM555 1405q-100 0 -168 -97t-68 -300v-60h390v41q0 140 47 252q-23 68 -71.5 116t-129.5 48z" />
    <glyph glyph-name="f_f_h" unicode="ffh" horiz-adv-x="2168" 
d="M586 0v35l123 28v816h-387v-816l165 -28v-35h-460v35l143 28v807h-158v39l162 41q10 130 64 245t152 191t220 76q69 0 125 -27.5t90 -68.5q58 75 138.5 116.5t171.5 41.5q97 0 170 -47l94 49v-740q18 19 43 41.5t75.5 60.5t114 62.5t125.5 24.5q133 0 197.5 -76
t64.5 -256v-580l129 -28v-35h-405v35l125 28v580q-2 98 -51 162.5t-140 64.5q-22 0 -45 -4t-41 -9t-40 -15.5t-35.5 -17.5t-35 -21t-29.5 -20t-28.5 -21t-23.5 -17v-682l155 -28v-35h-436v35l129 28v1303q-74 98 -166 98q-38 0 -75 -17.5t-72 -54.5t-56 -108.5t-20 -167.5
l2 -168h256v-69h-256v-816l166 -28v-35h-440zM555 1405q-100 0 -168 -97t-68 -300v-60h390v41q0 140 47 252q-23 68 -71.5 116t-129.5 48z" />
    <glyph glyph-name="f_f_j" unicode="ffj" horiz-adv-x="1546" 
d="M586 0v35l123 28v816h-387v-816l165 -28v-35h-460v35l143 28v807h-158v39l162 41q10 130 64 245t152 191t220 76q69 0 125 -27.5t90 -68.5q126 158 324 158q103 0 178.5 -54t75.5 -122q0 -48 -32 -73.5t-85 -25.5l-33 4l-34 160q-16 16 -28.5 26t-42 20.5t-65.5 10.5
q-45 0 -84 -19t-72 -60t-51.5 -116.5t-17.5 -178.5l2 -148h457l82 29v-926q0 -128 -12 -208.5t-52 -141.5q-38 -58 -97.5 -95t-186.5 -95l-15 28q86 62 125.5 113t59 130t26.5 228v869h-387v-816l166 -28v-35h-440zM555 1405q-100 0 -168 -97t-68 -300v-60h390v47
q0 136 47 248q-23 67 -72 114.5t-129 47.5z" />
    <glyph glyph-name="f_f_k" unicode="ffk" horiz-adv-x="2052" 
d="M586 0v35l123 28v816h-387v-816l165 -28v-35h-460v35l143 28v807h-158v39l162 41q10 130 64 245t152 191t220 76q69 0 125 -27.5t90 -68.5q58 75 138.5 116.5t171.5 41.5q97 0 170 -47l94 49v-1463l155 -30v-33h-430v33l123 30v1303q-74 98 -166 98q-38 0 -75 -17.5
t-72 -54.5t-56 -108.5t-20 -167.5l2 -168h256v-69h-256v-816l166 -28v-35h-440zM555 1405q-100 0 -168 -97t-68 -300v-60h390v41q0 140 47 252q-23 68 -71.5 116t-129.5 48zM1954 -29q-53 0 -91 25t-87 84l-365 430l428 364l-153 35v39h358v-39l-121 -35l-373 -311l496 -555
q-2 -4 -7.5 -10t-29 -16.5t-55.5 -10.5z" />
    <glyph glyph-name="f_h" unicode="fh" horiz-adv-x="1630" 
d="M586 0v35l123 28v1303q-74 98 -166 98q-38 0 -75 -17.5t-72.5 -55t-56.5 -109t-20 -166.5l3 -168h270v-78h-270v-807l165 -28v-35h-460v35l143 28v807h-158v39l160 41q-1 254 123 414t315 160q83 0 158 -47l92 49v-740q17 19 43 42t76 60.5t114 62t126 24.5
q133 0 197.5 -76t64.5 -256v-580l129 -28v-35h-406v35l125 28v580q-2 98 -50.5 162.5t-139.5 64.5q-22 0 -45 -4t-41 -9t-40.5 -16t-35.5 -17t-35.5 -21t-29.5 -20t-28.5 -21t-23.5 -17v-682l156 -28v-35h-430z" />
    <glyph glyph-name="f_j" unicode="fj" horiz-adv-x="1007" 
d="M512 -489l-14 28q86 62 125.5 113t59 130t26.5 228v869h-387v-816l165 -28v-35h-460v35l143 28v807h-158v39l160 41q-1 269 121.5 421.5t316.5 152.5q103 0 178.5 -54t75.5 -122q0 -48 -31.5 -73.5t-84.5 -25.5l-33 4l-35 160q-17 17 -29 26.5t-41 20t-65 10.5
q-45 0 -84 -18.5t-72.5 -59.5t-52 -116.5t-17.5 -179.5l3 -148h456l82 29v-926q0 -130 -11.5 -209.5t-51.5 -140.5q-38 -58 -97.5 -95t-187.5 -95z" />
    <glyph glyph-name="f_k" unicode="fk" horiz-adv-x="1513" 
d="M580 0v35l129 28v1303q-74 98 -166 98q-38 0 -75 -17.5t-72.5 -55t-56.5 -109t-20 -166.5l3 -168h270v-78h-270v-807l165 -28v-35h-460v35l143 28v807h-158v39l160 41q-1 254 123 414t315 160q83 0 158 -47l92 49v-1463l156 -28v-35h-436zM1415 -29q-53 0 -91 25t-87 84
l-365 430l428 364l-153 35v39h358v-39l-121 -35l-372 -311l495 -555q-2 -4 -7.5 -10t-29 -16.5t-55.5 -10.5z" />
    <glyph glyph-name=".notdef" horiz-adv-x="368" 
 />
    <glyph glyph-name=".null" horiz-adv-x="0" 
 />
    <glyph glyph-name="nonmarkingreturn" horiz-adv-x="682" 
 />
    <glyph glyph-name="space" unicode=" " horiz-adv-x="368" 
 />
    <glyph glyph-name="exclam" unicode="!" horiz-adv-x="516" 
d="M174 1413h170l-57 -1059h-56zM256 -27q-51 0 -86 35t-35 86t35 86t86 35t86 -35t35 -86t-35 -86t-86 -35z" />
    <glyph glyph-name="quotedbl" unicode="&#x22;" horiz-adv-x="727" 
d="M158 1010l-56 479h181l-86 -479h-39zM500 1010l-56 479h181l-86 -479h-39z" />
    <glyph glyph-name="numbersign" unicode="#" 
d="M139 834v65h267l57 318h65l-57 -318h324l57 318h66l-58 -318h256v-65h-266l-72 -404h254v-65h-266l-64 -365h-65l63 365h-323l-64 -365h-65l63 365h-254v65h267l71 404h-256zM461 834l-72 -404h324l71 404h-323z" />
    <glyph glyph-name="dollar" unicode="$" horiz-adv-x="1015" 
d="M76 78v328h35l79 -285q68 -45 134 -69.5t157 -28.5v557l-90 28q-88 27 -146 63t-88.5 82t-42.5 93.5t-12 109.5q0 137 101 235.5t278 115.5v249h56v-245h6q157 0 340 -90v-312h-33l-86 260q-113 82 -227 88v-509l102 -31q168 -53 238.5 -131.5t70.5 -206.5
q0 -83 -36.5 -156.5t-95.5 -124.5t-131.5 -84t-147.5 -43v-215h-56v211q-196 0 -405 111zM567 555l-30 8v-540q108 8 183 81t75 197q0 97 -56 157.5t-172 96.5zM246 1006q0 -89 46 -142t157 -88l32 -10v489q-105 -11 -170 -79t-65 -170z" />
    <glyph glyph-name="percent" unicode="%" horiz-adv-x="1507" 
d="M262 -102l901 1392h74l-901 -1392h-74zM375 1192q-79 0 -121.5 -78.5t-42.5 -189.5q0 -138 48.5 -225t133.5 -87q76 0 118 77.5t42 191.5q0 148 -50 229.5t-128 81.5zM375 565q-126 0 -214.5 91t-88.5 233q0 147 95.5 248.5t219.5 101.5q93 0 164 -47t106 -119.5
t35 -157.5q0 -146 -93 -248t-224 -102zM1118 588q-79 0 -121.5 -79t-42.5 -190q0 -137 48.5 -224t134.5 -87q76 0 117.5 77t41.5 191q0 149 -50 230.5t-128 81.5zM1118 -39q-126 0 -214.5 91t-88.5 233q0 147 95.5 248.5t219.5 101.5q93 0 164 -47t106.5 -119.5t35.5 -157.5
q0 -146 -93.5 -248t-224.5 -102z" />
    <glyph glyph-name="ampersand" unicode="&#x26;" horiz-adv-x="1492" 
d="M1466 913l-176 -43l-223 -415q-60 -109 -78 -136q96 -123 164 -183t127 -60q17 0 32.5 2.5t32.5 9t27 10.5t29 16.5t25.5 16.5t28.5 20t26 19l22 -25q-53 -51 -89 -82t-97 -61t-115 -27q-88 3 -151 48.5t-158 162.5q-192 -227 -428 -227q-99 0 -179 33.5t-127.5 88
t-72.5 117t-25 126.5q0 54 21.5 106.5t52 93t83 86t93.5 75t105 71.5q-116 116 -161 186t-44 158q2 92 59 162.5t139.5 104.5t172.5 34q137 0 226 -62.5t89 -160.5q0 -64 -35.5 -119.5t-76.5 -90t-158 -119.5q-28 -21 -43 -32q109 -121 200 -233l170 -222q32 51 97 173
l176 339l-197 39v35h436v-35zM690 449q-134 166 -244 276q-82 -62 -126.5 -107.5t-69.5 -102t-25 -128.5q0 -60 20.5 -116t59 -101.5t100 -72.5t136.5 -27q97 0 173 37t146 120q-4 5 -66.5 88.5t-103.5 133.5zM360 1161q0 -70 42.5 -132t152.5 -181q114 98 157.5 164
t43.5 149q0 75 -55.5 136t-141.5 61q-87 0 -143 -52t-56 -145z" />
    <glyph glyph-name="quotesingle" unicode="'" horiz-adv-x="385" 
d="M158 1010l-56 479h181l-86 -479h-39z" />
    <glyph glyph-name="parenleft" unicode="(" horiz-adv-x="632" 
d="M614 -369h-57q-383 427 -383 928q0 508 395 940h54q-110 -157 -176 -290t-104 -296t-38 -354q0 -270 74 -483.5t235 -444.5z" />
    <glyph glyph-name="parenright" unicode=")" horiz-adv-x="632" 
d="M18 1499h58q383 -422 383 -928q0 -511 -393 -940h-56q167 235 243.5 447.5t76.5 492.5q0 270 -75 483.5t-237 444.5z" />
    <glyph glyph-name="asterisk" unicode="*" horiz-adv-x="784" 
d="M752 1067l-273 -20l23 -275l-23 -4l-104 258l-254 -113l-12 21l204 174l-172 209l17 18l231 -145l141 235l23 -8l-64 -266l265 -59z" />
    <glyph glyph-name="plus" unicode="+" 
d="M1079 442h-444v-442h-82v442h-444v72h444v442h82v-442h444v-72z" />
    <glyph glyph-name="comma" unicode="," horiz-adv-x="468" 
d="M80 -303l-17 33q85 41 132 97t47 122q0 104 -142 143q-10 50 19.5 91.5t95.5 41.5q65 0 109.5 -53t44.5 -137q0 -222 -289 -338z" />
    <glyph glyph-name="hyphen" unicode="-" horiz-adv-x="722" 
d="M102 487v113h519v-113h-519z" />
    <glyph glyph-name="period" unicode="." horiz-adv-x="479" 
d="M246 -27q-51 0 -86 35t-35 86t35 86t86 35t86 -35t35 -86t-35 -86t-86 -35z" />
    <glyph glyph-name="slash" unicode="/" horiz-adv-x="849" 
d="M-31 -418l-55 25l852 1919l55 -25z" />
    <glyph glyph-name="zero" unicode="0" horiz-adv-x="1200" 
d="M575 989q-139 0 -229 -130t-90 -320q0 -146 48 -267.5t132.5 -191.5t186.5 -70q94 0 168 61.5t113.5 164t39.5 225.5q0 228 -109 378t-260 150zM600 -41q-233 0 -380.5 146t-147.5 391q0 144 73 270t194.5 200t258.5 74q240 0 385 -151t145 -381q0 -110 -43 -211.5
t-114.5 -175.5t-169 -118t-201.5 -44z" />
    <glyph glyph-name="one" unicode="1" horiz-adv-x="675" 
d="M446 1032v-960l209 -33v-39h-583v39l215 29v852h-232v36l387 76h4z" />
    <glyph glyph-name="two" unicode="2" horiz-adv-x="843" 
d="M381 274l-129 -127h555v-147h-741v18l159 166q155 161 230 283.5t75 226.5q0 97 -56.5 157t-143.5 60q-70 0 -124 -41t-102 -112l-30 14q18 51 46 96.5t67 85t93 63t115 23.5q128 0 210.5 -78t82.5 -196q0 -107 -62.5 -208.5t-244.5 -283.5z" />
    <glyph glyph-name="three" unicode="3" horiz-adv-x="796" 
d="M201 -410q-77 0 -123.5 39t-46.5 86q0 33 23 58t55 30q59 -80 139 -157q146 14 238 104t92 227q0 144 -107.5 225t-280.5 81v84l48 12q280 162 280 342q0 81 -57.5 135.5t-141.5 54.5q-70 0 -122.5 -40.5t-100.5 -112.5l-30 14q38 109 124 188.5t203 79.5
q129 0 208 -77.5t79 -186.5q0 -54 -19 -102t-55.5 -87.5t-73 -68t-88.5 -61.5l-79 -51v-7q69 -6 133.5 -31.5t117 -68t84 -106.5t31.5 -140q0 -88 -50 -174.5t-127.5 -149t-172 -101t-180.5 -38.5z" />
    <glyph glyph-name="four" unicode="4" horiz-adv-x="1091" 
d="M668 -401v426h-650v36l779 977h20v-888h287v-125h-287v-426h-149zM147 150h521v653z" />
    <glyph glyph-name="five" unicode="5" horiz-adv-x="700" 
d="M399 156q0 127 -70.5 252.5t-242.5 287.5l141 320h371v-137h-381l-27 -58q205 -208 287 -341.5t82 -284.5q0 -75 -19 -144.5t-49 -123.5t-77 -105t-92 -88t-105.5 -75t-106 -62t-104.5 -52l-16 33q125 75 189 131q220 190 220 447z" />
    <glyph glyph-name="six" unicode="6" horiz-adv-x="1069" 
d="M1055 1364q-276 -119 -482.5 -306t-279.5 -399q66 75 150.5 118.5t177.5 43.5q114 0 201 -56t131 -145.5t44 -195.5q0 -83 -32 -165t-90 -149.5t-147.5 -109t-195.5 -41.5q-90 0 -171 32.5t-143.5 92t-99 152.5t-36.5 206q0 139 54.5 270t146.5 235.5t216.5 194.5
t260.5 154.5t282 108.5zM537 729q-68 0 -140.5 -37.5t-122.5 -101.5q-14 -57 -14 -127q0 -216 87 -333.5t220 -117.5q114 0 185 88.5t71 245.5q0 182 -80 282.5t-206 100.5z" />
    <glyph glyph-name="seven" unicode="7" horiz-adv-x="890" 
d="M166 -354l-74 37l656 1175h-697v158h819v-10l-587 -1135z" />
    <glyph glyph-name="eight" unicode="8" horiz-adv-x="952" 
d="M41 285q0 122 71 202.5t248 188.5l-71 53q-98 71 -144.5 148t-46.5 170q0 144 123 245t291 101q160 0 260 -82t100 -203q0 -38 -8 -71t-30.5 -67t-42 -58.5t-62 -61.5t-71 -59.5t-87.5 -67.5l103 -72q110 -82 168.5 -161.5t58.5 -170.5q0 -108 -64 -192t-160.5 -126
t-203.5 -42q-194 0 -313 93t-119 233zM483 588l-84 61q-192 -145 -192 -332q0 -138 86 -222.5t199 -84.5q66 0 116.5 22t79.5 58t43 77t14 85q0 87 -62.5 162t-199.5 174zM250 1112q0 -88 46.5 -156t145.5 -139l88 -65q97 92 140 166t43 167q0 116 -72 186t-170 70
q-85 0 -153 -60.5t-68 -168.5z" />
    <glyph glyph-name="nine" unicode="9" horiz-adv-x="1060" 
d="M41 -375q278 124 476.5 303.5t264.5 401.5q-142 -156 -317 -156q-114 0 -203.5 55t-135.5 144t-46 194q0 83 33 165t91 149.5t148.5 109t196.5 41.5q186 0 313 -128t127 -347q0 -144 -48 -276.5t-133 -240t-202.5 -197.5t-256 -154.5t-294.5 -106.5zM553 270
q61 0 128.5 36t117.5 97q12 61 12 125q0 218 -82.5 334.5t-214.5 116.5q-113 0 -186.5 -93t-73.5 -251q0 -174 83.5 -269.5t215.5 -95.5z" />
    <glyph glyph-name="colon" unicode=":" horiz-adv-x="479" 
d="M246 -27q-51 0 -86 35t-35 86t35 86t86 35t86 -35t35 -86t-35 -86t-86 -35zM246 707q-51 0 -86 34.5t-35 85.5t35 86t86 35t86 -35t35 -86t-35 -85.5t-86 -34.5z" />
    <glyph glyph-name="semicolon" unicode=";" horiz-adv-x="509" 
d="M121 -303l-17 33q85 41 132 97t47 122q0 104 -142 143q-10 50 19.5 91.5t95.5 41.5q65 0 109.5 -53t44.5 -137q0 -222 -289 -338zM260 707q-51 0 -86 34.5t-35 85.5t35 86t86 35t86 -35t35 -86t-35 -85.5t-86 -34.5z" />
    <glyph glyph-name="less" unicode="&#x3c;" 
d="M1073 881l-878 -408l878 -405v-78l-967 448v72l967 446v-75z" />
    <glyph glyph-name="equal" unicode="=" 
d="M1079 584h-970v71h970v-71zM1079 295h-970v72h970v-72z" />
    <glyph glyph-name="greater" unicode="&#x3e;" 
d="M115 63l878 408l-878 406v79l966 -448v-72l-966 -446v73z" />
    <glyph glyph-name="question" unicode="?" horiz-adv-x="675" 
d="M131 1233v174l31 -6q191 -38 333 -187t142 -303q0 -164 -164 -229l-211 -86l19 -242h-50l-79 359l266 100q73 28 110 68.5t37 105.5q0 81 -80 140.5t-280 93.5zM252 -27q-51 0 -86 35t-35 86t35 86t86 35t86 -35t35 -86t-35 -86t-86 -35z" />
    <glyph glyph-name="at" unicode="@" horiz-adv-x="1886" 
d="M1044 311l33 109h-8q-22 -36 -94 -137q-70 -95 -161 -171.5t-163 -76.5q-76 0 -115.5 50.5t-39.5 129.5q0 90 32 184.5t84 175.5t119.5 153.5t138 123.5t139.5 81t124 30q66 0 143 -60h2l31 84h90l-205 -684q-20 -65 -22 -109.5t13 -67t36.5 -31.5t52.5 -9
q42 0 93.5 19.5t109.5 65t104.5 111t77.5 168.5t31 226q0 168 -83 309t-232 225t-331 84q-119 0 -237 -39t-220 -115t-181 -178.5t-124.5 -239t-45.5 -286.5q0 -171 54 -309.5t149 -229t224 -139.5t281 -49q179 0 332 64v-31q-194 -84 -383 -84q-126 0 -240 25.5
t-215.5 82.5t-175 140t-116 204.5t-42.5 270.5q0 195 87.5 377t226 309.5t313 204t346.5 76.5q170 0 310 -54.5t230.5 -146.5t139.5 -210.5t49 -250.5q0 -139 -57.5 -264.5t-145 -208t-188 -130.5t-190.5 -48q-129 0 -175 70.5t-6 205.5zM739 141q60 0 152 98.5t170.5 230
t112.5 237.5l32 104q-63 94 -133 94q-64 0 -138 -59.5t-134 -151.5t-99.5 -210.5t-39.5 -227.5q0 -115 77 -115z" />
    <glyph glyph-name="A" unicode="A" horiz-adv-x="1294" 
d="M-49 0v39l158 35l466 1296l60 12l74 17l479 -1333l155 -31v-35h-505v39l163 27l-147 421h-520l-139 -409l241 -39v-39h-485zM588 1235l-228 -670h465l-233 670h-4z" />
    <glyph glyph-name="B" unicode="B" horiz-adv-x="1181" 
d="M51 0v39l178 29v1224l-178 33v35l432 2q539 3 539 -291q0 -241 -369 -321v-5q73 -7 136.5 -22t126.5 -43.5t108 -67.5t72.5 -98.5t27.5 -132.5q0 -174 -150.5 -280t-420.5 -105zM625 709h-219v-607q107 -57 219 -57q147 0 226 81.5t79 227.5q0 155 -90.5 247.5
t-214.5 107.5zM406 1319v-561q216 2 327 68.5t111 222.5q0 132 -111.5 204t-326.5 66z" />
    <glyph glyph-name="C" unicode="C" horiz-adv-x="1437" 
d="M772 -45q-140 0 -257 40.5t-196 107.5t-133.5 155.5t-79 182.5t-24.5 190q0 163 61.5 307.5t166 246.5t247 161t299.5 59q113 0 232.5 -33t201.5 -80l19 -336h-39l-117 277q-165 117 -340 117q-151 0 -275.5 -88.5t-195 -240t-70.5 -331.5q0 -168 46.5 -299.5t125.5 -211
t177 -120.5t208 -41q165 0 334 119l160 318h39l-57 -365q-87 -35 -128.5 -50.5t-118.5 -40t-145.5 -34.5t-140.5 -10z" />
    <glyph glyph-name="D" unicode="D" horiz-adv-x="1509" 
d="M406 1315v-1227q103 -41 249 -37q134 3 245 55t183 138t111 195.5t39 230.5q0 141 -43.5 254.5t-119.5 189.5t-181 124.5t-226 66.5t-257 10zM51 0v39l178 29v1224l-178 31v37l580 4q186 -8 337 -61.5t251 -140.5t154 -202t54 -249q0 -162 -60 -295.5t-174 -228
t-286.5 -145.5t-388.5 -48z" />
    <glyph glyph-name="E" unicode="E" horiz-adv-x="1204" 
d="M705 678h-299v-578q32 -40 92 -45h403l186 340h39l-88 -395h-987v39l178 29v1224l-178 33v35h869l135 10v-387h-37l-96 322h-516v-564h299l63 220h35v-490h-35z" />
    <glyph glyph-name="F" unicode="F" horiz-adv-x="1099" 
d="M705 668h-299v-602l215 -29v-37h-570v39l178 29v1224l-178 33v35h891l105 16l14 -403h-35l-106 332h-514v-574h299l69 232h35v-514h-35z" />
    <glyph glyph-name="G" unicode="G" horiz-adv-x="1482" 
d="M815 -41q-150 0 -274 39.5t-207.5 106t-141.5 155.5t-84 186.5t-26 200.5q0 203 107.5 378t288.5 277.5t390 102.5q230 0 447 -117v-340h-35l-115 285q-64 50 -155 81.5t-183 31.5q-117 0 -218.5 -46.5t-175.5 -129.5t-116.5 -205t-42.5 -267q0 -168 48 -299.5
t130.5 -212t188.5 -122t227 -41.5q157 0 277 59v428l-211 33v37h487v-39l-98 -25v-438l-100 -39q-222 -80 -408 -80z" />
    <glyph glyph-name="H" unicode="H" horiz-adv-x="1505" 
d="M922 0v39l178 29v612h-694v-612l180 -29v-39h-535v39l178 29v1224l-178 33v35h535v-35l-180 -33v-553h694v553l-178 33v35h532v-35l-178 -33v-1224l178 -29v-39h-532z" />
    <glyph glyph-name="I" unicode="I" horiz-adv-x="634" 
d="M51 0v41l178 29v1220l-178 33v37h533v-37l-178 -33v-1220l178 -29v-41h-533z" />
    <glyph glyph-name="J" unicode="J" horiz-adv-x="620" 
d="M406 1292v-1204q0 -91 -11 -159t-40.5 -131t-79.5 -109t-128 -83.5t-186 -64.5l-12 43q152 68 216 169.5t64 281.5v1257l-178 33v35h533v-35z" />
    <glyph glyph-name="K" unicode="K" horiz-adv-x="1300" 
d="M51 0v39l178 29v1224l-178 33v35h535v-35l-180 -33v-1224l180 -29v-39h-535zM1008 0l-578 705v6l571 573l-188 41v35h428v-35l-145 -37l-512 -512l587 -708l152 -29v-39h-315z" />
    <glyph glyph-name="L" unicode="L" horiz-adv-x="1169" 
d="M406 102q32 -40 92 -45h426l190 385h35l-92 -442h-1006v39l178 29v1224l-178 31v37h567v-37l-212 -27v-1194z" />
    <glyph glyph-name="M" unicode="M" horiz-adv-x="1748" 
d="M41 0v35l172 43l45 1206l-170 41v35h395l408 -1043l420 1035l2 8h348v-35l-170 -39l45 -1208l172 -43v-35h-551v39l209 39l-39 1149l-422 -1037l-55 -149h-29l-57 149l-440 1076l-37 -1182l225 -47v-37h-471z" />
    <glyph glyph-name="N" unicode="N" horiz-adv-x="1454" 
d="M1253 -12h-34l-922 1194v-1100l229 -39v-43h-475v41l178 45v1147q-59 63 -147 82l-31 8v37h322l805 -1043v961l-213 39v43h458v-41l-178 -45v-1010z" />
    <glyph glyph-name="O" unicode="O" horiz-adv-x="1595" 
d="M817 8q104 0 189.5 37t142.5 99t95.5 146t55.5 174.5t17 188.5q0 139 -41 266.5t-112.5 222.5t-174.5 151.5t-221 56.5q-101 0 -184.5 -38t-139 -100.5t-93.5 -147t-55 -174.5t-17 -185q0 -134 40 -260.5t109.5 -223t171 -155t217.5 -58.5zM795 1403q202 0 366.5 -93
t258 -256t93.5 -362q0 -132 -40 -250t-109.5 -205.5t-160 -152t-194.5 -97t-210 -32.5q-140 0 -270 52t-229 143.5t-158.5 226.5t-59.5 291q0 163 62 304t163.5 233.5t228.5 145t259 52.5z" />
    <glyph glyph-name="P" unicode="P" horiz-adv-x="1073" 
d="M500 559v39q165 15 265.5 107.5t100.5 240.5q0 73 -24.5 134t-76.5 113t-143.5 85.5t-215.5 42.5v-1253l194 -33v-35h-549v39l178 29v1224l-178 31v37h453q262 -6 405.5 -107t143.5 -278q0 -115 -76.5 -211.5t-203.5 -150.5t-273 -54z" />
    <glyph glyph-name="Q" unicode="Q" horiz-adv-x="1595" 
d="M795 1403q202 0 366.5 -92t258 -254t93.5 -361q0 -144 -48.5 -271t-130.5 -217.5t-187.5 -150.5t-222.5 -82q18 -12 90.5 -63t93.5 -65.5t84 -55.5t91 -55t82 -40.5t90.5 -36.5t83.5 -19t91 -9q109 0 188.5 32.5t184.5 113.5l22 -25q-7 -6 -31.5 -30.5t-34 -33t-34 -30.5
t-38.5 -31t-41 -27t-47 -26t-51 -20t-60 -17.5t-65 -9.5t-75 -4q-81 0 -163.5 20.5t-151.5 50.5t-159 86t-157.5 104.5t-175.5 127.5q-19 15 -30 22.5t-27.5 20t-30.5 22.5q-158 31 -286.5 123.5t-206.5 242.5t-78 331q0 131 40.5 248t110 203.5t160 150t194 95.5t208.5 32z
M831 16q125 0 221 55.5t152.5 149t84.5 204.5t28 234q0 187 -69.5 344.5t-198 252t-289.5 94.5q-99 0 -181 -37.5t-136.5 -99.5t-92 -145.5t-54.5 -173.5t-17 -185q0 -183 67.5 -340.5t195.5 -255t289 -97.5z" />
    <glyph glyph-name="R" unicode="R" horiz-adv-x="1284" 
d="M51 0v39l178 29v1224l-178 33v35l428 6q293 4 443.5 -83.5t150.5 -248.5q0 -124 -82.5 -200.5t-238.5 -131.5v-6l397 -618l156 -39v-39h-322l-321 516l-74 121h-182v-569l172 -33v-35h-527zM406 1323v-627h174q134 17 216.5 100.5t82.5 192.5q0 167 -126 252t-347 82z
" />
    <glyph glyph-name="S" unicode="S" horiz-adv-x="1028" 
d="M96 47l-14 369h35l121 -332q101 -68 241 -68q141 0 229.5 78t88.5 209q0 94 -56.5 164t-208.5 137l-102 45q-170 74 -244.5 158.5t-74.5 216.5q0 164 134.5 270.5t325.5 106.5q58 0 122.5 -15t100 -28t91.5 -37l18 -338h-29l-118 297q-40 24 -63 36t-64 24t-84 12
q-114 0 -189 -76.5t-75 -179.5q0 -98 49.5 -159t175.5 -120l153 -69q167 -74 239.5 -156.5t72.5 -210.5q0 -124 -75 -222t-189 -148t-240 -50q-77 0 -152 15t-117.5 30t-101.5 41z" />
    <glyph glyph-name="T" unicode="T" horiz-adv-x="1183" 
d="M147 1360h883l103 16l14 -403h-37l-102 330h-328v-1237l178 -29v-37h-532v37l178 29v1237h-328l-102 -330h-37l14 401z" />
    <glyph glyph-name="U" unicode="U" horiz-adv-x="1449" 
d="M719 -49q-520 0 -520 571v768l-168 35v35h522v-35l-176 -35v-723q0 -532 377 -532q107 0 186 32.5t128 94.5t76 143.5t36 188.5v786l-201 43v37h440v-37l-166 -43v-754q0 -143 -41.5 -254.5t-115 -180.5t-169 -104.5t-208.5 -35.5z" />
    <glyph glyph-name="V" unicode="V" horiz-adv-x="1189" 
d="M563 -25l-483 1315l-135 33v37h473v-37l-152 -33l383 -1079h2l371 1073l-152 39v37h375v-37l-137 -39l-481 -1309h-64z" />
    <glyph glyph-name="W" unicode="W" horiz-adv-x="1789" 
d="M1223 -12l-322 968l-336 -968h-71l-412 1302l-133 33v37h473v-37l-158 -33l322 -1052l284 811l-79 241l-142 33v37h469v-37l-153 -33l348 -1050l307 1044l-154 39v37h375v-37l-135 -39l-410 -1296h-73z" />
    <glyph glyph-name="X" unicode="X" horiz-adv-x="1243" 
d="M-31 37l164 33l412 616l-369 608l-143 31v35h493v-35l-153 -31l286 -485h5l311 483l-162 33v35h393v-35l-143 -33l-367 -544l414 -680l164 -31v-37h-531v37l164 31l-323 550h-6l-359 -548l176 -33v-37h-426v37z" />
    <glyph glyph-name="Y" unicode="Y" horiz-adv-x="1173" 
d="M1075 1284l-399 -641v-573l188 -29v-41h-553v41l189 29v548l-402 672l-133 33v37h486v-37l-152 -33l342 -596h2l352 588l-161 41v37h374v-37z" />
    <glyph glyph-name="Z" unicode="Z" horiz-adv-x="1271" 
d="M53 0v25l858 1278h-673l-109 -342h-33v413l131 -14h920v-8l-871 -1295h732l190 385h37l-92 -442h-1090z" />
    <glyph glyph-name="bracketleft" unicode="[" horiz-adv-x="589" 
d="M565 -371h-352v1872h352v-47h-217v-1778h217v-47z" />
    <glyph glyph-name="backslash" unicode="\" horiz-adv-x="849" 
d="M936 -393l-55 -25l-852 1919l55 25z" />
    <glyph glyph-name="bracketright" unicode="]" horiz-adv-x="589" 
d="M25 1501h352v-1872h-352v47h217v1778h-217v47z" />
    <glyph glyph-name="asciicircum" unicode="^" horiz-adv-x="831" 
d="M143 993h-61l307 555h53l310 -555h-66l-278 449z" />
    <glyph glyph-name="underscore" unicode="_" horiz-adv-x="835" 
d="M8 -408v70h819v-70h-819z" />
    <glyph glyph-name="grave" unicode="`" horiz-adv-x="460" 
d="M90 1540h141l109 -426h-43l-207 412v14z" />
    <glyph glyph-name="a" unicode="a" horiz-adv-x="921" 
d="M309 -29q-41 0 -80.5 12.5t-76 38t-58.5 72.5t-22 109q0 112 79.5 176t243.5 108l215 60v96q0 131 -55.5 203t-146.5 72q-86 0 -140 -50l-10 -192q-31 -17 -72 -17q-40 0 -65 22t-25 58q0 77 115.5 157.5t265.5 80.5t217.5 -71t67.5 -210v-575q0 -33 12.5 -48.5
t50.5 -15.5h103v-26q-107 -56 -185 -56q-74 0 -105 37.5t-30 124.5h-4q-79 -84 -146 -125t-149 -41zM403 78q112 0 207 127v301l-233 -82q-80 -28 -112 -71.5t-32 -104.5q0 -70 42.5 -120t127.5 -50z" />
    <glyph glyph-name="b" unicode="b" horiz-adv-x="1048" 
d="M420 -29q-127 0 -242 62l-43 22v1299l-133 65v15l285 94v-713q157 162 315 162q72 0 136 -26t118 -78t85.5 -143t31.5 -210q0 -143 -78 -270.5t-206 -203t-269 -75.5zM522 877q-120 0 -235 -121v-637q85 -74 209 -74q65 0 121.5 27t102.5 80t72.5 141.5t26.5 202.5
q0 160 -88.5 270.5t-208.5 110.5z" />
    <glyph glyph-name="c" unicode="c" horiz-adv-x="927" 
d="M500 -29q-83 0 -159 30.5t-138 89t-98.5 154.5t-36.5 216q0 113 43 212t112 164t156 102.5t176 37.5q127 0 227.5 -62.5t100.5 -142.5q0 -45 -34 -72.5t-83 -27.5l-37 4l-47 174q-81 70 -166 70q-123 0 -211 -102t-88 -281q0 -204 103.5 -320.5t246.5 -116.5
q94 0 164.5 43.5t138.5 118.5l29 -20q-55 -88 -97 -132q-129 -139 -302 -139z" />
    <glyph glyph-name="d" unicode="d" horiz-adv-x="1087" 
d="M623 1421v15l307 92v-1440l141 -41v-27l-274 -38l-15 139q-150 -150 -311 -150q-97 0 -175 37.5t-127 101.5t-75 146.5t-26 175.5q0 100 30.5 188t83 152t120.5 111t145.5 70.5t156.5 23.5q90 0 174 -39v422zM561 72q115 0 217 94v635q-95 112 -250 112
q-132 0 -218.5 -108t-86.5 -303q0 -53 11 -109.5t36.5 -114.5t63 -103t96.5 -74t131 -29z" />
    <glyph glyph-name="e" unicode="e" horiz-adv-x="942" 
d="M485 -29q-82 0 -151.5 27.5t-117.5 74t-82 107.5t-50 128.5t-16 137.5q0 141 62.5 264t167 195t222.5 72q153 0 247.5 -100t111.5 -287h-662q-2 -18 -2 -58q0 -202 88.5 -316t245.5 -114q167 0 315 164l29 -20q-71 -105 -111 -147q-123 -128 -297 -128zM469 911
q-93 0 -158.5 -73t-87.5 -197h475q-30 137 -81 203.5t-148 66.5z" />
    <glyph glyph-name="f" unicode="f" horiz-adv-x="593" 
d="M27 0v35l143 28v807h-158v39l160 43v74q0 203 126.5 350.5t293.5 147.5q100 0 177 -49t77 -115q0 -90 -129 -90l-49 149q-49 49 -123 49q-41 0 -79 -18.5t-72.5 -58.5t-55 -114.5t-19.5 -174.5l3 -154h270v-78h-270v-807l165 -28v-35h-460z" />
    <glyph glyph-name="g" unicode="g" horiz-adv-x="962" 
d="M954 856h-245v-4q98 -103 98 -223q0 -102 -57 -182.5t-142.5 -121t-179.5 -40.5q-97 0 -166 34q-51 -45 -51 -96q0 -32 26 -54.5t72 -25.5l398 -28q114 -9 177.5 -64.5t63.5 -140.5q0 -101 -78 -195t-209.5 -152.5t-277.5 -58.5q-161 0 -255.5 62.5t-94.5 181.5
q0 63 50 126t124 101l51 27v6q-69 3 -118.5 39.5t-49.5 104.5q0 15 3.5 29.5t12.5 30t15.5 25.5t23.5 26.5t23.5 23t28 25.5t26.5 24v4q-143 90 -143 278q0 157 102.5 255t257.5 98q99 0 226 -53l288 30v-92zM692 -31l-393 27q-117 -91 -117 -201q0 -103 76 -161t223 -58
q83 0 149 25.5t104 66t57.5 84t19.5 84.5q0 53 -33.5 87.5t-85.5 45.5zM242 686q0 -169 56 -260.5t157 -91.5q80 0 134 70.5t54 187.5q0 172 -60.5 255t-156.5 85q-87 0 -135.5 -68t-48.5 -178z" />
    <glyph glyph-name="h" unicode="h" horiz-adv-x="1075" 
d="M649 0v35l125 28v580q-2 98 -50.5 162.5t-139.5 64.5q-22 0 -45 -4t-41 -9t-40.5 -16t-35.5 -17t-35.5 -21t-29.5 -20t-28.5 -21t-23.5 -17v-682l137 -28v-35h-411v35l123 28v1293l-134 65v15l285 92v-742q17 19 43 42t76 60.5t114 62t126 24.5q133 0 197.5 -76
t64.5 -256v-580l129 -28v-35h-406z" />
    <glyph glyph-name="i" unicode="i" horiz-adv-x="489" 
d="M31 0v35l143 28v736l-137 61v14l289 103v-914l143 -28v-35h-438zM242 1212q-44 0 -76.5 32.5t-32.5 76.5t32.5 76.5t76.5 32.5t76 -32.5t32 -76.5t-32 -76.5t-76 -32.5z" />
    <glyph glyph-name="j" unicode="j" horiz-adv-x="475" 
d="M-23 -489l-14 28q86 62 125.5 113t59 130t26.5 228v789l-137 61v14l289 103v-928q0 -124 -12.5 -205t-51.5 -143q-38 -58 -97.5 -95t-187.5 -95zM242 1212q-44 0 -76.5 32.5t-32.5 76.5t32.5 76.5t76.5 32.5t76 -32.5t32 -76.5t-32 -76.5t-76 -32.5z" />
    <glyph glyph-name="k" unicode="k" horiz-adv-x="958" 
d="M154 63v1293l-134 65v15l285 92v-1465l156 -28v-35h-430v35zM860 -29q-53 0 -91 25t-87 84l-365 430l428 364l-153 35v39h358v-39l-121 -35l-372 -311l495 -555q-2 -4 -7.5 -10t-29 -16.5t-55.5 -10.5z" />
    <glyph glyph-name="l" unicode="l" horiz-adv-x="454" 
d="M31 0v35l123 28v1293l-129 65v15l280 92v-1465l129 -28v-35h-403z" />
    <glyph glyph-name="m" unicode="m" horiz-adv-x="1716" 
d="M1294 0v35l121 28v580q-2 99 -49.5 165t-140.5 66q-39 0 -77.5 -10.5t-78 -33.5t-58 -36t-53.5 -40l-12 -9v-682l137 -28v-35h-413v35l125 28v580q-2 98 -51.5 162.5t-139.5 64.5q-22 0 -44.5 -4t-40 -8.5t-41 -16t-35.5 -17t-35.5 -21.5t-29.5 -20t-29 -21l-23 -17v-682
l137 -28v-35h-432v35l143 28v736l-137 61v14l272 97h6l7 -185h2q189 189 360 189q104 0 165.5 -45t86.5 -150h4q7 8 19.5 21t53 46.5t81 59.5t99 47t112.5 21q132 0 197 -76t65 -256v-580l129 -28v-35h-402z" />
    <glyph glyph-name="n" unicode="n" horiz-adv-x="1095" 
d="M31 0v35l143 28v736l-137 61v14l272 97h6l7 -185h2q191 191 360 191q132 0 197 -77t65 -257v-580l129 -28v-35h-405v35l125 28v580q-2 98 -51 162.5t-140 64.5q-22 0 -45 -4t-41 -9t-40 -15.5t-35.5 -17.5t-35 -21t-29.5 -20t-28.5 -21t-23.5 -17v-682l137 -28v-35h-432z
" />
    <glyph glyph-name="o" unicode="o" horiz-adv-x="1099" 
d="M522 924q-131 0 -208.5 -116t-77.5 -294q0 -136 44.5 -248.5t121.5 -176.5t171 -64q131 0 210 117t79 294q0 136 -44 248t-122 176t-174 64zM547 -29q-131 0 -238 59t-172 173.5t-65 263.5q0 116 42 214.5t111 162t154.5 98.5t173.5 35q207 0 341 -139t134 -355
q0 -94 -27.5 -177t-74.5 -143.5t-108.5 -104.5t-131 -65.5t-139.5 -21.5z" />
    <glyph glyph-name="p" unicode="p" horiz-adv-x="1071" 
d="M33 -492v39l125 29v1212l-138 62v14l273 97h6l6 -179h2q137 193 318 193q56 0 108.5 -15.5t100.5 -50.5t83.5 -87t56.5 -130t21 -174q0 -117 -50 -221t-128.5 -173.5t-175.5 -110t-192 -40.5q-70 0 -140 25v-426l205 -27v-37h-481zM543 866q-82 0 -140.5 -43t-93.5 -98
v-616q89 -64 209 -64q141 0 232.5 114t91.5 333q0 159 -86 266.5t-213 107.5z" />
    <glyph glyph-name="q" unicode="q" horiz-adv-x="1077" 
d="M592 -492v37l186 27v555q-151 -158 -307 -158q-97 0 -175 38.5t-127 103.5t-75 148t-26 175q0 119 45.5 222.5t119.5 172.5t169 108.5t194 39.5q133 0 231 -66l97 66h6v-1401l117 -29v-39h-455zM563 72q111 0 215 104v623q-101 114 -250 114q-132 0 -218.5 -107.5
t-86.5 -305.5q0 -52 9.5 -106.5t34.5 -113t62 -104t97.5 -75t136.5 -29.5z" />
    <glyph glyph-name="r" unicode="r" horiz-adv-x="688" 
d="M31 0v35l143 28v736l-137 61v14l272 97h6l4 -277h7l22 45q66 132 120 183t116 51q39 0 65.5 -24t26.5 -62q0 -50 -49 -99l-138 43q-46 -26 -91.5 -89t-71.5 -138v-541l161 -28v-35h-456z" />
    <glyph glyph-name="s" unicode="s" horiz-adv-x="804" 
d="M360 -29q-75 0 -145 21t-115 47l-14 299h35l98 -258q57 -57 166 -57q91 0 148 54.5t57 133.5q0 69 -41 112.5t-135 77.5l-97 35q-107 38 -157.5 100t-50.5 164q0 124 101 200.5t247 76.5q112 0 233 -66v-256h-35l-82 215q-66 58 -141 58q-82 0 -132 -52t-50 -122
q0 -69 40 -110.5t132 -76.5l86 -32q125 -48 180 -109t55 -143q0 -91 -56.5 -164t-143.5 -110.5t-183 -37.5z" />
    <glyph glyph-name="t" unicode="t" horiz-adv-x="630" 
d="M365 -18q-109 0 -160 48.5t-51 162.5l4 677h-160v39l164 43l104 256h41v-260h295v-78h-295v-667q9 -133 152 -133q64 0 162 34l8 -22q-115 -100 -264 -100z" />
    <glyph glyph-name="u" unicode="u" horiz-adv-x="1079" 
d="M776 -18l-16 174q-153 -185 -336 -185q-74 0 -130 25.5t-88 71t-47.5 101.5t-15.5 122v555l-133 39v26l285 54v-627q0 -133 57.5 -193.5t157.5 -60.5q53 0 106 21t80 40t62 48v653l-158 39v26l309 54v-877l142 -41v-27z" />
    <glyph glyph-name="v" unicode="v" horiz-adv-x="927" 
d="M502 -29h-80l-326 910l-114 37v30h417v-30l-135 -39l232 -680l14 -56h6l14 56l230 678l-156 41v30h342v-33l-117 -38z" />
    <glyph glyph-name="w" unicode="w" horiz-adv-x="1429" 
d="M793 969l235 -725l27 -86h4q4 16 20 71l187 648l-156 41v30h338v-33l-121 -41l-280 -907h-89l-229 701l-22 82h-5q-10 -43 -22 -82l-221 -701h-84l-277 914l-116 37v30h413v-30l-137 -41l193 -637l18 -74h4q7 31 21 74l231 729h68z" />
    <glyph glyph-name="x" unicode="x" horiz-adv-x="921" 
d="M528 522l293 -463l111 -24v-35h-393v35l104 24l-211 349h-2l-223 -342l125 -31v-35h-334v35l133 31l270 391l-272 432l-111 29v30h398v-30l-109 -29l193 -320h4l196 316l-120 33v30h292v-30l-100 -33z" />
    <glyph glyph-name="y" unicode="y" horiz-adv-x="927" 
d="M762 877l-156 41v30h340v-33l-117 -38l-448 -1252q-25 -69 -60.5 -107t-95.5 -38q-46 0 -76 28.5t-30 71.5t27.5 70.5t70.5 27.5q61 0 96 -71h4l125 334l-346 940l-114 37v30h421v-30l-135 -39l248 -717h4z" />
    <glyph glyph-name="z" unicode="z" horiz-adv-x="892" 
d="M670 0h-609v33l557 860h-387l-106 -248h-29v313l150 -10h573v-10l-571 -883h414l137 279h30l-43 -346z" />
    <glyph glyph-name="braceleft" unicode="{" horiz-adv-x="659" 
d="M172 567v-4q129 -14 188.5 -63.5t59.5 -163.5v-393q0 -158 47 -220.5t162 -62.5v-31h-31q-105 1 -172.5 23.5t-101.5 69.5t-43.5 108.5t-1.5 153.5l30 354q8 85 -32.5 139.5t-129.5 57.5l-55 2v57l55 2q89 3 129.5 57.5t32.5 139.5l-30 354q-8 92 1.5 153t43.5 108
t101 69.5t173 23.5h31v-31q-115 0 -162 -63t-47 -221v-389q0 -116 -59.5 -166t-188.5 -64z" />
    <glyph glyph-name="bar" unicode="|" horiz-adv-x="409" 
d="M236 -410h-62v1903h62v-1903z" />
    <glyph glyph-name="braceright" unicode="}" horiz-adv-x="659" 
d="M487 563v4q-129 14 -188 63.5t-59 164.5v393q0 158 -47 220t-162 62v31h30q106 -1 173 -23.5t101.5 -69.5t44 -108t1.5 -153l-31 -354q-8 -85 32.5 -139.5t129.5 -57.5l55 -2v-57l-55 -2q-89 -3 -129.5 -57.5t-32.5 -139.5l31 -354q8 -92 -1.5 -153.5t-44 -108.5
t-102 -69.5t-172.5 -23.5h-30v31q115 0 162 63t47 222v389q0 116 59 165.5t188 63.5z" />
    <glyph glyph-name="asciitilde" unicode="~" horiz-adv-x="944" 
d="M72 393l-35 13l8 20q121 302 381 203l158 -60q63 -23 108 -26.5t78 14t55.5 45.5t46.5 76l35 -12l-8 -21q-120 -303 -381 -203l-133 52q-82 37 -142.5 34t-99 -35t-71.5 -100z" />
    <glyph glyph-name="uni00A0" unicode="&#xa0;" horiz-adv-x="368" 
 />
    <glyph glyph-name="exclamdown" unicode="&#xa1;" horiz-adv-x="516" 
d="M338 -274h-170l57 1058h56zM377 1044q0 -51 -35 -85.5t-86 -34.5t-86 34.5t-35 85.5t35 86t86 35t86 -35t35 -86z" />
    <glyph glyph-name="cent" unicode="&#xa2;" horiz-adv-x="958" 
d="M498 -244v217q-61 1 -120 18.5t-115 55t-98 91t-67.5 133.5t-25.5 175q0 109 36 204t96 161t136 108t158 54v237h55v-233q128 0 229 -64.5t101 -140.5q0 -38 -31 -66t-76 -28l-28 4l-50 172q-54 57 -145 66v-824q95 0 160.5 33.5t142.5 110.5l31 -25q-34 -50 -64.5 -86
t-71 -70.5t-90.5 -55t-108 -26.5v-221h-55zM221 539q0 -180 77.5 -295t199.5 -142v818q-83 -7 -147.5 -62.5t-97 -139t-32.5 -179.5z" />
    <glyph glyph-name="sterling" unicode="&#xa3;" horiz-adv-x="1173" 
d="M236 545v53h249l56 219q27 107 73 197t97.5 148t109 99t107 58.5t90.5 17.5q72 0 129 -42t57 -101q0 -72 -114 -107q-39 189 -142 189q-120 0 -186 -264l-103 -414h342l-2 -53h-354l-8 -37q-78 -307 -305 -461q100 -48 268 -162l70 -47q174 -121 224.5 -151.5t86.5 -30.5
q61 0 78.5 83t-12.5 183q141 25 141 -80q0 -23 -12 -54t-38 -64.5t-60.5 -61.5t-86 -46.5t-108.5 -18.5q-43 0 -95 18.5t-93 41.5t-102 68.5t-94 73t-96 81.5q-19 16 -28 24l-117 100q-86 -41 -156 -41q-42 0 -67 19.5t-25 50.5q0 35 30 56.5t75 21.5q64 0 164 -39
q96 86 155 315l39 158h-237z" />
    <glyph glyph-name="yen" unicode="&#xa5;" horiz-adv-x="1048" 
d="M109 537v59h319l-356 637l-133 33v37h485v-37l-152 -33l306 -584h6l313 576l-162 41v37h375v-37l-133 -39l-365 -629v-2h332v-59h-332v-152h334v-59h-334v-254l193 -37v-35h-557v35l192 35v256h-331v59h331v152h-331z" />
    <glyph glyph-name="brokenbar" unicode="&#xa6;" horiz-adv-x="409" 
d="M236 641h-62v852h62v-852zM236 -410h-62v854h62v-854z" />
    <glyph glyph-name="section" unicode="&#xa7;" horiz-adv-x="858" 
d="M510 -197q0 48 -26.5 102.5t-147.5 270.5l-146 258q-66 118 -89 190t-23 138q0 95 42.5 189t109.5 166.5t146.5 129t157.5 87t138 30.5q75 0 110 -26t35 -62q0 -52 -65 -90q-44 30 -77 44.5t-83 18.5q-111 0 -213 -59q-21 -30 -21 -72q0 -12 1 -21.5t4.5 -23t7 -23
t12.5 -29t16.5 -33.5t23.5 -43.5t28.5 -51.5t37 -66t43.5 -79l146 -261q67 -119 90 -190.5t23 -136.5q0 -95 -42.5 -189t-109.5 -166.5t-146.5 -129t-157.5 -87t-138 -30.5q-75 0 -110.5 26t-35.5 62q0 30 16.5 50.5t49.5 39.5q45 -31 77.5 -45.5t81.5 -18.5q107 0 213 60
q21 35 21 71zM199 856q0 -94 31 -181.5t114 -228.5l111 -194q82 -145 109.5 -217.5t27.5 -130.5q0 -63 -25 -103h11q92 106 92 265q0 94 -31.5 180.5t-114.5 228.5l-110 195q-82 146 -110 218.5t-28 129.5q0 62 25 102h-10q-92 -102 -92 -264z" />
    <glyph glyph-name="dieresis" unicode="&#xa8;" horiz-adv-x="798" 
d="M266 1225q-40 0 -67 28t-27 68t27.5 69t66.5 29q41 0 70 -29t29 -69t-29 -68t-70 -28zM578 1225q-40 0 -68.5 28t-28.5 68t28.5 69t68.5 29t68 -29t28 -69t-28 -68t-68 -28z" />
    <glyph glyph-name="copyright" unicode="&#xa9;" horiz-adv-x="1574" 
d="M82 664q0 194 94 356.5t255.5 256t354.5 93.5q192 0 354.5 -93.5t257.5 -256t95 -356.5q0 -192 -95 -354t-257.5 -255.5t-354.5 -93.5q-143 0 -273.5 55.5t-225 149t-150 224t-55.5 274.5zM133 664q0 -180 87.5 -332.5t238 -241t327.5 -88.5t327.5 88.5t238.5 241
t88 332.5q0 181 -88 334t-238.5 241t-327.5 88q-133 0 -253.5 -52t-208 -140.5t-139.5 -211.5t-52 -259zM797 272q-184 0 -290 107t-106 266q0 185 119.5 302.5t302.5 117.5q50 0 102.5 -12.5t78 -23t69.5 -30.5l8 -213h-26l-70 172q-81 68 -174 68q-111 0 -180.5 -95
t-69.5 -267q0 -157 72 -251t194 -94q105 0 172 64l68 190h29l-13 -217q-79 -42 -142 -63t-144 -21z" />
    <glyph glyph-name="ordfeminine" unicode="&#xaa;" horiz-adv-x="835" 
d="M270 483q-71 0 -130.5 47.5t-59.5 131.5q0 93 65.5 144.5t202.5 86.5l172 43v78q0 106 -45 163.5t-119 57.5q-59 0 -102 -37l-21 -160q-23 -14 -55 -14q-80 0 -80 74q0 26 25 58t66 61t102 49t125 20q241 0 241 -223v-463q0 -25 12 -34t46 -9h84v-31q-103 -39 -162 -39
q-62 0 -86.5 34.5t-26.5 94.5h-4q-71 -70 -124.5 -101.5t-125.5 -31.5zM348 578q98 0 172 84v239l-164 -51q-139 -47 -139 -143q0 -59 38 -94t93 -35z" />
    <glyph glyph-name="guillemotleft" unicode="&#xab;" horiz-adv-x="849" 
d="M395 784l31 -28l-236 -348l234 -318l-29 -31l-334 344v19zM707 784l30 -28l-235 -348l233 -318l-28 -31l-334 344v19z" />
    <glyph glyph-name="logicalnot" unicode="&#xac;" 
d="M109 514h970v-397h-75v325h-895v72z" />
    <glyph glyph-name="registered" unicode="&#xae;" horiz-adv-x="817" 
d="M10 1159q0 160 118.5 271.5t283.5 111.5t280 -111t115 -272t-117.5 -271t-283.5 -110t-281 109t-115 272zM59 1159q0 -146 100.5 -245t248.5 -99q150 0 250 98t100 246q0 146 -100.5 244t-249.5 98t-249 -98t-100 -244zM213 969v18l57 10v344l-57 11v18h182
q183 0 183 -102q0 -45 -30.5 -69t-76.5 -38v-4l104 -158l62 -14v-16h-135l-60 88l-47 84h-43v-144l54 -12v-16h-193zM352 1350v-185h54q83 16 83 92q0 43 -36 68t-101 25z" />
    <glyph glyph-name="macron" unicode="&#xaf;" horiz-adv-x="798" 
d="M117 1264v98h565v-98h-565z" />
    <glyph glyph-name="degree" unicode="&#xb0;" horiz-adv-x="585" 
d="M23 1235q0 112 81 191t195 79t190 -78t76 -192q0 -113 -80.5 -192.5t-193.5 -79.5q-116 0 -192 78.5t-76 193.5zM86 1235q0 -95 59 -158t150 -63q90 0 148.5 63.5t58.5 157.5t-58.5 157.5t-148.5 63.5q-91 0 -150 -63t-59 -158z" />
    <glyph glyph-name="plusminus" unicode="&#xb1;" horiz-adv-x="1185" 
d="M1079 674h-444v-443h-82v443h-444v71h444v443h82v-443h444v-71zM109 0v72h970v-72h-970z" />
    <glyph glyph-name="acute" unicode="&#xb4;" horiz-adv-x="460" 
d="M227 1540h142v-14l-207 -412h-43z" />
    <glyph glyph-name="paragraph" unicode="&#xb6;" horiz-adv-x="1071" 
d="M1020 1360v-35l-178 -33v-1278q0 -216 -108.5 -327t-280.5 -111q-150 0 -245 88t-95 230q0 132 80.5 213t199.5 81q90 0 149.5 -56.5t59.5 -131.5q0 -74 -42 -118t-97 -44q-53 0 -86.5 35t-30.5 102q126 21 172 60v14q-33 88 -145 88q-75 0 -137 -61.5t-62 -167.5
q0 -119 77 -197t210 -78q134 0 210.5 97.5t76.5 265.5v1307h-111v-783h-102q-175 0 -298.5 123.5t-123.5 296.5t123.5 296.5t298.5 123.5h485z" />
    <glyph glyph-name="periodcentered" unicode="&#xb7;" horiz-adv-x="602" 
d="M301 432q-51 0 -86 35t-35 86t35 86t86 35t86 -35t35 -86t-35 -86t-86 -35z" />
    <glyph glyph-name="cedilla" unicode="&#xb8;" horiz-adv-x="485" 
d="M98 -524l-10 30q94 35 137 75.5t43 94.5q0 98 -112 129l120 203h58l-70 -119q146 -38 146 -159q0 -47 -21.5 -87.5t-53.5 -66.5t-76.5 -47.5t-81.5 -32.5t-79 -20z" />
    <glyph glyph-name="ordmasculine" unicode="&#xba;" horiz-adv-x="901" 
d="M432 1243q-104 0 -164.5 -91t-60.5 -234q0 -166 76 -278t188 -112q103 0 164 92.5t61 235.5q0 166 -75.5 276.5t-188.5 110.5zM446 483q-163 0 -274 108.5t-111 289.5q0 93 34.5 171.5t90.5 129t126 78.5t143 28q168 0 276.5 -110.5t108.5 -284.5q0 -124 -59 -220
t-147.5 -143t-187.5 -47z" />
    <glyph glyph-name="guillemotright" unicode="&#xbb;" horiz-adv-x="849" 
d="M453 59l-31 29l235 348l-233 318l29 30l335 -344v-18zM143 59l-30 29l235 348l-233 318l28 30l336 -344v-18z" />
    <glyph glyph-name="onequarter" unicode="&#xbc;" horiz-adv-x="1390" 
d="M1217 743v-467h159v-79h-159v-142l116 -20v-35h-346v35l117 18v144h-322l-2 -2v2h-26v39l432 524zM305 1378v-710l131 -19v-37h-389v35l135 19v612l-155 -6v35l270 71h8zM188 -164l-45 37l1104 1604l45 -33zM846 276h258v318z" />
    <glyph glyph-name="onehalf" unicode="&#xbd;" horiz-adv-x="1441" 
d="M1100 195l-117 -99h432v-96h-541v45l160 152q4 4 30.5 28.5t36 34t34 35t36 40.5t29.5 41t26.5 46.5t15.5 46t7 49.5q0 70 -44 112t-101 42q-64 0 -108.5 -26t-90.5 -89l-24 16q32 83 104 140t166 57q91 0 154 -61t63 -144q0 -50 -16 -93.5t-56 -91t-80.5 -85
t-115.5 -100.5zM305 1378v-710l131 -19v-37h-389v35l135 19v612l-155 -6v35l270 71h8zM188 -164l-45 37l1104 1604l45 -33z" />
    <glyph glyph-name="threequarters" unicode="&#xbe;" horiz-adv-x="1398" 
d="M1225 743v-467h159v-79h-159v-142l116 -20v-35h-346v35l117 18v144h-321l-3 -2v2h-26v39l432 524zM258 633q85 0 135.5 42t50.5 120q0 82 -75 128t-215 46v39q127 23 186 73t59 107q0 48 -31 78t-85 30q-102 0 -199 -108l-35 22q48 79 112 124.5t161 45.5q106 0 154 -46
t48 -107q0 -40 -14 -70t-46.5 -54.5t-57 -37.5t-74.5 -35v-8q106 -6 170.5 -56t64.5 -132q0 -72 -49.5 -128.5t-119 -84t-140.5 -27.5q-109 0 -169 31.5t-60 76.5q0 60 80 70l63 -113q7 -9 32.5 -17.5t53.5 -8.5zM197 -164l-45 37l1103 1604l45 -33zM854 276h258v318z" />
    <glyph glyph-name="questiondown" unicode="&#xbf;" horiz-adv-x="675" 
d="M580 -94v-174l-31 6q-191 38 -333 186.5t-142 302.5q0 165 164 230l211 86l-19 241h49l80 -358l-266 -100q-73 -28 -110.5 -68.5t-37.5 -105.5q0 -81 80.5 -140.5t280.5 -93.5zM459 1165q51 0 86 -35t35 -86t-35 -85.5t-86 -34.5t-86 34.5t-35 85.5t35 86t86 35z" />
    <glyph glyph-name="Agrave" unicode="&#xc0;" horiz-adv-x="1294" 
d="M-49 0v39l158 35l466 1296l60 12l74 17l479 -1333l155 -31v-35h-505v39l163 27l-147 421h-520l-139 -409l241 -39v-39h-485zM588 1235l-228 -670h465l-233 670h-4zM375 1772h160l163 -281h-55l-268 268v13z" />
    <glyph glyph-name="Aacute" unicode="&#xc1;" horiz-adv-x="1294" 
d="M-49 0v39l158 35l466 1296l60 12l74 17l479 -1333l155 -31v-35h-505v39l163 27l-147 421h-520l-139 -409l241 -39v-39h-485zM588 1235l-228 -670h465l-233 670h-4zM772 1772h160v-13l-268 -268h-56z" />
    <glyph glyph-name="Acircumflex" unicode="&#xc2;" horiz-adv-x="1294" 
d="M-49 0v39l158 35l466 1296l60 12l74 17l479 -1333l155 -31v-35h-505v39l163 27l-147 421h-520l-139 -409l241 -39v-39h-485zM588 1235l-228 -670h465l-233 670h-4zM428 1491h-59l233 256h111l213 -256h-66l-209 162z" />
    <glyph glyph-name="Atilde" unicode="&#xc3;" horiz-adv-x="1294" 
d="M-49 0v39l158 35l466 1296l60 12l74 17l479 -1333l155 -31v-35h-505v39l163 27l-147 421h-520l-139 -409l241 -39v-39h-485zM588 1235l-228 -670h465l-233 670h-4zM690 1532l-59 20q-36 12 -49 16.5t-39 11.5t-34.5 7t-26 -0.5t-25 -7t-20.5 -17t-22.5 -26t-21.5 -37.5
l-37 19l11 22q42 88 86 126.5t96 37t121 -26.5l67 -22q42 -14 70 -19t56.5 0.5t51 27.5t43.5 62l37 -16l-10 -20q-27 -59 -56 -97t-55.5 -57t-58.5 -23t-60 1t-65 18z" />
    <glyph glyph-name="Adieresis" unicode="&#xc4;" horiz-adv-x="1294" 
d="M-49 0v39l158 35l466 1296l60 12l74 17l479 -1333l155 -31v-35h-505v39l163 27l-147 421h-520l-139 -409l241 -39v-39h-485zM588 1235l-228 -670h465l-233 670h-4zM465 1552q-39 0 -66.5 28.5t-27.5 68.5t27.5 69t66.5 29q41 0 69.5 -29t28.5 -69t-28.5 -68.5
t-69.5 -28.5zM860 1552q-40 0 -68 28.5t-28 68.5t28 69t68 29t68 -29t28 -69t-28 -68.5t-68 -28.5z" />
    <glyph glyph-name="Aring" unicode="&#xc5;" horiz-adv-x="1294" 
d="M-49 0v39l158 35l466 1296l60 12l74 17l479 -1333l155 -31v-35h-505v39l163 27l-147 421h-520l-139 -409l241 -39v-39h-485zM588 1235l-228 -670h465l-233 670h-4zM455 1704q0 87 58 143t144 56q89 0 147 -55.5t58 -143.5q0 -87 -58.5 -144t-144.5 -57q-88 0 -146 56
t-58 145zM518 1704q0 -62 40.5 -105t98.5 -43q59 0 101.5 43t42.5 105t-42 104.5t-100 42.5q-59 0 -100 -42t-41 -105z" />
    <glyph glyph-name="AE" unicode="&#xc6;" horiz-adv-x="1859" 
d="M1360 655h-299v-553q29 -39 92 -47h403l187 340h39l-88 -395h-987v35l178 33v587h-393l-316 -579l230 -41v-35h-457v35l135 41l702 1214l-188 35v35h979l133 10v-387h-37l-96 322h-516v-588h299l63 219h35v-487h-35zM885 1305h-23l-336 -588h359v588z" />
    <glyph glyph-name="Ccedilla" unicode="&#xc7;" horiz-adv-x="1437" 
d="M604 -524l-10 30q94 35 137 75.5t43 94.5q0 98 -112 129l88 152q-136 3 -249 44.5t-189 108.5t-129 154t-77 179.5t-24 187.5q0 163 61.5 307.5t166 246.5t247 161t299.5 59q113 0 232.5 -33t201.5 -80l19 -336h-39l-117 277q-165 117 -340 117q-151 0 -275.5 -88.5
t-195 -240t-70.5 -331.5q0 -168 46.5 -299.5t125.5 -211t177 -120.5t208 -41q165 0 334 119l160 318h39l-57 -365q-84 -33 -121.5 -47t-109.5 -37.5t-135.5 -34.5t-129.5 -14l-39 -68q145 -38 145 -159q0 -48 -21.5 -88t-53 -66t-76 -47.5t-81.5 -32.5t-79 -20z" />
    <glyph glyph-name="Egrave" unicode="&#xc8;" horiz-adv-x="1204" 
d="M705 678h-299v-578q32 -40 92 -45h403l186 340h39l-88 -395h-987v39l178 29v1224l-178 33v35h869l135 10v-387h-37l-96 322h-516v-564h299l63 220h35v-490h-35zM369 1772h159l164 -281h-55l-268 268v13z" />
    <glyph glyph-name="Eacute" unicode="&#xc9;" horiz-adv-x="1204" 
d="M705 678h-299v-578q32 -40 92 -45h403l186 340h39l-88 -395h-987v39l178 29v1224l-178 33v35h869l135 10v-387h-37l-96 322h-516v-564h299l63 220h35v-490h-35zM766 1772h160v-13l-269 -268h-55z" />
    <glyph glyph-name="Ecircumflex" unicode="&#xca;" horiz-adv-x="1204" 
d="M705 678h-299v-578q32 -40 92 -45h403l186 340h39l-88 -395h-987v39l178 29v1224l-178 33v35h869l135 10v-387h-37l-96 322h-516v-564h299l63 220h35v-490h-35zM416 1491h-60l234 256h110l213 -256h-65l-209 162z" />
    <glyph glyph-name="Edieresis" unicode="&#xcb;" horiz-adv-x="1204" 
d="M705 678h-299v-578q32 -40 92 -45h403l186 340h39l-88 -395h-987v39l178 29v1224l-178 33v35h869l135 10v-387h-37l-96 322h-516v-564h299l63 220h35v-490h-35zM444 1552q-39 0 -66.5 28.5t-27.5 68.5t27.5 69t66.5 29q41 0 70 -29t29 -69t-29 -68.5t-70 -28.5zM840 1552
q-40 0 -68.5 28.5t-28.5 68.5t28.5 69t68.5 29t68 -29t28 -69t-28 -68.5t-68 -28.5z" />
    <glyph glyph-name="Igrave" unicode="&#xcc;" horiz-adv-x="634" 
d="M51 0v41l178 29v1220l-178 33v37h533v-37l-178 -33v-1220l178 -29v-41h-533zM29 1772h159l164 -281h-55l-268 268v13z" />
    <glyph glyph-name="Iacute" unicode="&#xcd;" horiz-adv-x="634" 
d="M51 0v41l178 29v1220l-178 33v37h533v-37l-178 -33v-1220l178 -29v-41h-533zM442 1772h160v-13l-268 -268h-55z" />
    <glyph glyph-name="Icircumflex" unicode="&#xce;" horiz-adv-x="634" 
d="M51 0v41l178 29v1220l-178 33v37h533v-37l-178 -33v-1220l178 -29v-41h-533zM123 1491h-66l201 256h131l178 -256h-63l-187 186z" />
    <glyph glyph-name="Idieresis" unicode="&#xcf;" horiz-adv-x="634" 
d="M162 1550q-39 0 -66.5 28.5t-27.5 68.5t27.5 69t66.5 29q41 0 69.5 -29t28.5 -69t-28.5 -68.5t-69.5 -28.5zM471 1550q-40 0 -68 28.5t-28 68.5t28 69t68 29t68 -29t28 -69t-28 -68.5t-68 -28.5zM51 0v41l178 29v1220l-178 33v37h533v-37l-178 -33v-1220l178 -29v-41
h-533z" />
    <glyph glyph-name="Eth" unicode="&#xd0;" horiz-adv-x="1509" 
d="M51 0v39l178 29v585h-174v49h174v590l-178 31v37l580 4q186 -8 337 -61.5t251 -140.5t154 -202t54 -249q0 -162 -60 -295.5t-174 -228t-286.5 -145.5t-388.5 -48zM776 653h-370v-565q103 -41 249 -37q134 3 245 55t183 138t111 195.5t39 230.5q0 141 -43.5 254.5
t-119.5 189.5t-181 124.5t-226 66.5t-257 10v-613h370v-49z" />
    <glyph glyph-name="Ntilde" unicode="&#xd1;" horiz-adv-x="1454" 
d="M1253 -12h-34l-922 1194v-1100l229 -39v-43h-475v41l178 45v1147q-59 63 -147 82l-31 8v37h322l805 -1043v961l-213 39v43h458v-41l-178 -45v-1010zM784 1532l-59 20q-36 12 -49 16.5t-39 11.5t-34.5 7t-26 -0.5t-25 -7t-20.5 -17t-22.5 -26t-21.5 -37.5l-36 19l10 22
q42 88 86 126.5t96 37t121 -26.5l67 -22q42 -14 70.5 -19t57 0.5t51 27.5t43.5 62l37 -16l-11 -20q-27 -59 -56 -97t-55.5 -57t-58.5 -23t-60 1t-65 18z" />
    <glyph glyph-name="Ograve" unicode="&#xd2;" horiz-adv-x="1595" 
d="M526 1772h160l164 -281h-55l-269 268v13zM817 8q104 0 189.5 37t142.5 99t95.5 146t55.5 174.5t17 188.5q0 139 -41 266.5t-112.5 222.5t-174.5 151.5t-221 56.5q-101 0 -184.5 -38t-139 -100.5t-93.5 -147t-55 -174.5t-17 -185q0 -134 40 -260.5t109.5 -223t171 -155
t217.5 -58.5zM795 1403q202 0 366.5 -93t258 -256t93.5 -362q0 -132 -40 -250t-109.5 -205.5t-160 -152t-194.5 -97t-210 -32.5q-140 0 -270 52t-229 143.5t-158.5 226.5t-59.5 291q0 163 62 304t163.5 233.5t228.5 145t259 52.5z" />
    <glyph glyph-name="Oacute" unicode="&#xd3;" horiz-adv-x="1595" 
d="M928 1772h159v-13l-268 -268h-55zM817 8q104 0 189.5 37t142.5 99t95.5 146t55.5 174.5t17 188.5q0 139 -41 266.5t-112.5 222.5t-174.5 151.5t-221 56.5q-101 0 -184.5 -38t-139 -100.5t-93.5 -147t-55 -174.5t-17 -185q0 -134 40 -260.5t109.5 -223t171 -155
t217.5 -58.5zM795 1403q202 0 366.5 -93t258 -256t93.5 -362q0 -132 -40 -250t-109.5 -205.5t-160 -152t-194.5 -97t-210 -32.5q-140 0 -270 52t-229 143.5t-158.5 226.5t-59.5 291q0 163 62 304t163.5 233.5t228.5 145t259 52.5z" />
    <glyph glyph-name="Ocircumflex" unicode="&#xd4;" horiz-adv-x="1595" 
d="M795 1403q202 0 366.5 -93t258 -256t93.5 -362q0 -132 -40 -250t-109.5 -205.5t-160 -152t-194.5 -97t-210 -32.5q-140 0 -270 52t-229 143.5t-158.5 226.5t-59.5 291q0 163 62 304t163.5 233.5t228.5 145t259 52.5zM817 8q104 0 189.5 37t142.5 99t95.5 146t55.5 174.5
t17 188.5q0 139 -41 266.5t-112.5 222.5t-174.5 151.5t-221 56.5q-101 0 -184.5 -38t-139 -100.5t-93.5 -147t-55 -174.5t-17 -185q0 -134 40 -260.5t109.5 -223t171 -155t217.5 -58.5zM590 1491h-60l234 256h110l213 -256h-65l-209 162z" />
    <glyph glyph-name="Otilde" unicode="&#xd5;" horiz-adv-x="1595" 
d="M854 1532l-59 20q-36 12 -49 16.5t-39 11.5t-34.5 7t-26 -0.5t-25 -7t-20.5 -17t-22.5 -26t-21.5 -37.5l-37 19l10 22q42 88 86 126.5t96.5 37t121.5 -26.5l67 -22q42 -14 70 -19t56.5 0.5t51 27.5t43.5 62l37 -16l-10 -20q-27 -59 -56 -97t-55.5 -57t-58.5 -23t-60 1
t-65 18zM817 8q104 0 189.5 37t142.5 99t95.5 146t55.5 174.5t17 188.5q0 139 -41 266.5t-112.5 222.5t-174.5 151.5t-221 56.5q-101 0 -184.5 -38t-139 -100.5t-93.5 -147t-55 -174.5t-17 -185q0 -134 40 -260.5t109.5 -223t171 -155t217.5 -58.5zM795 1403
q202 0 366.5 -93t258 -256t93.5 -362q0 -132 -40 -250t-109.5 -205.5t-160 -152t-194.5 -97t-210 -32.5q-140 0 -270 52t-229 143.5t-158.5 226.5t-59.5 291q0 163 62 304t163.5 233.5t228.5 145t259 52.5z" />
    <glyph glyph-name="Odieresis" unicode="&#xd6;" horiz-adv-x="1595" 
d="M618 1552q-39 0 -66.5 28.5t-27.5 68.5t27.5 69t66.5 29q41 0 70 -29t29 -69t-29 -68.5t-70 -28.5zM1014 1552q-40 0 -68 28.5t-28 68.5t28 69t68 29t68 -29t28 -69t-28 -68.5t-68 -28.5zM817 8q104 0 189.5 37t142.5 99t95.5 146t55.5 174.5t17 188.5q0 139 -41 266.5
t-112.5 222.5t-174.5 151.5t-221 56.5q-101 0 -184.5 -38t-139 -100.5t-93.5 -147t-55 -174.5t-17 -185q0 -134 40 -260.5t109.5 -223t171 -155t217.5 -58.5zM795 1403q202 0 366.5 -93t258 -256t93.5 -362q0 -132 -40 -250t-109.5 -205.5t-160 -152t-194.5 -97t-210 -32.5
q-140 0 -270 52t-229 143.5t-158.5 226.5t-59.5 291q0 163 62 304t163.5 233.5t228.5 145t259 52.5z" />
    <glyph glyph-name="multiply" unicode="&#xd7;" 
d="M979 39l-389 393l-385 -395l-55 53l387 391l-385 393l55 52l387 -389l391 403l53 -53l-391 -402l389 -395z" />
    <glyph glyph-name="Oslash" unicode="&#xd8;" horiz-adv-x="1595" 
d="M150 -74l167 213q-110 97 -172.5 232.5t-62.5 296.5q0 163 62 304t163.5 233.5t228.5 145t259 52.5q227 0 413 -127l138 176h71l-164 -209q121 -99 190.5 -242.5t69.5 -308.5q0 -132 -40 -250t-109.5 -205.5t-160 -152t-194.5 -97t-210 -32.5q-240 0 -439 147l-137 -176
h-73zM817 8q104 0 189.5 37t142.5 99t95.5 146t55.5 174.5t17 188.5q0 136 -39.5 261t-110.5 221l-727 -930q72 -93 169 -145t208 -52zM279 705q0 -253 127 -451l724 926q-154 170 -362 170q-101 0 -184.5 -38t-139 -100.5t-93.5 -147t-55 -174.5t-17 -185z" />
    <glyph glyph-name="Ugrave" unicode="&#xd9;" horiz-adv-x="1449" 
d="M504 1772h160l163 -281h-55l-268 268v13zM719 -49q-520 0 -520 571v768l-168 35v35h522v-35l-176 -35v-723q0 -532 377 -532q107 0 186 32.5t128 94.5t76 143.5t36 188.5v786l-201 43v37h440v-37l-166 -43v-754q0 -143 -41.5 -254.5t-115 -180.5t-169 -104.5
t-208.5 -35.5z" />
    <glyph glyph-name="Uacute" unicode="&#xda;" horiz-adv-x="1449" 
d="M877 1772h159v-13l-268 -268h-55zM719 -49q-520 0 -520 571v768l-168 35v35h522v-35l-176 -35v-723q0 -532 377 -532q107 0 186 32.5t128 94.5t76 143.5t36 188.5v786l-201 43v37h440v-37l-166 -43v-754q0 -143 -41.5 -254.5t-115 -180.5t-169 -104.5t-208.5 -35.5z" />
    <glyph glyph-name="Ucircumflex" unicode="&#xdb;" horiz-adv-x="1449" 
d="M719 -49q-520 0 -520 571v768l-168 35v35h522v-35l-176 -35v-723q0 -532 377 -532q107 0 186 32.5t128 94.5t76 143.5t36 188.5v786l-201 43v37h440v-37l-166 -43v-754q0 -143 -41.5 -254.5t-115 -180.5t-169 -104.5t-208.5 -35.5zM553 1491h-59l233 256h111l213 -256
h-66l-209 162z" />
    <glyph glyph-name="Udieresis" unicode="&#xdc;" horiz-adv-x="1449" 
d="M719 -49q-520 0 -520 571v768l-168 35v35h522v-35l-176 -35v-723q0 -532 377 -532q107 0 186 32.5t128 94.5t76 143.5t36 188.5v786l-201 43v37h440v-37l-166 -43v-754q0 -143 -41.5 -254.5t-115 -180.5t-169 -104.5t-208.5 -35.5zM569 1552q-39 0 -66.5 28.5t-27.5 68.5
t27.5 69t66.5 29q41 0 70 -29t29 -69t-29 -68.5t-70 -28.5zM965 1552q-40 0 -68.5 28.5t-28.5 68.5t28.5 69t68.5 29t68 -29t28 -69t-28 -68.5t-68 -28.5z" />
    <glyph glyph-name="Yacute" unicode="&#xdd;" horiz-adv-x="1173" 
d="M1075 1284l-399 -641v-573l188 -29v-41h-553v41l189 29v548l-402 672l-133 33v37h486v-37l-152 -33l342 -596h2l352 588l-161 41v37h374v-37zM768 1772h160v-13l-269 -268h-55z" />
    <glyph glyph-name="Thorn" unicode="&#xde;" horiz-adv-x="1146" 
d="M51 0v39l178 29v1224l-178 31v37h533v-35l-178 -33v-239h94q284 -6 433.5 -93t149.5 -241q0 -160 -163 -264.5t-420 -104.5v39q181 14 293 93t112 214q0 52 -16.5 97t-54 84.5t-94.5 67.5t-142 44t-192 17v-938l194 -33v-35h-549z" />
    <glyph glyph-name="germandbls" unicode="&#xdf;" horiz-adv-x="1153" 
d="M31 0v39l139 29v802h-158v39l160 43q0 118 28 220.5t82 181.5t140.5 124.5t195.5 45.5q154 0 249.5 -69t95.5 -181q0 -46 -14 -86t-49 -82.5t-66.5 -73t-94.5 -86.5q-51 -46 -75.5 -84.5t-24.5 -83.5q0 -47 29 -81t100 -74l137 -80q115 -66 161 -126.5t46 -142.5
q0 -88 -55.5 -158.5t-142 -107.5t-183.5 -37q-145 0 -258 78l-4 281h27l90 -248q66 -59 166 -59q89 0 146.5 52.5t57.5 139.5q0 67 -40.5 115t-141.5 104l-129 72q-131 74 -131 186q0 37 19.5 79t36 63.5t61.5 71t53 59.5q43 50 59.5 70.5t37.5 56t27.5 69t6.5 80.5
q0 54 -24.5 106.5t-76 90t-118.5 37.5q-61 0 -108.5 -18t-86 -59.5t-59 -116t-20.5 -179.5v-1102h-291z" />
    <glyph glyph-name="agrave" unicode="&#xe0;" horiz-adv-x="921" 
d="M309 -29q-41 0 -80.5 12.5t-76 38t-58.5 72.5t-22 109q0 112 79.5 176t243.5 108l215 60v96q0 131 -55.5 203t-146.5 72q-86 0 -140 -50l-10 -192q-31 -17 -72 -17q-40 0 -65 22t-25 58q0 77 115.5 157.5t265.5 80.5t217.5 -71t67.5 -210v-575q0 -33 12.5 -48.5
t50.5 -15.5h103v-26q-107 -56 -185 -56q-74 0 -105 37.5t-30 124.5h-4q-79 -84 -146 -125t-149 -41zM403 78q112 0 207 127v301l-233 -82q-80 -28 -112 -71.5t-32 -104.5q0 -70 42.5 -120t127.5 -50zM227 1540h142l108 -426h-43l-207 412v14z" />
    <glyph glyph-name="aacute" unicode="&#xe1;" horiz-adv-x="921" 
d="M309 -29q-41 0 -80.5 12.5t-76 38t-58.5 72.5t-22 109q0 112 79.5 176t243.5 108l215 60v96q0 131 -55.5 203t-146.5 72q-86 0 -140 -50l-10 -192q-31 -17 -72 -17q-40 0 -65 22t-25 58q0 77 115.5 157.5t265.5 80.5t217.5 -71t67.5 -210v-575q0 -33 12.5 -48.5
t50.5 -15.5h103v-26q-107 -56 -185 -56q-74 0 -105 37.5t-30 124.5h-4q-79 -84 -146 -125t-149 -41zM403 78q112 0 207 127v301l-233 -82q-80 -28 -112 -71.5t-32 -104.5q0 -70 42.5 -120t127.5 -50zM528 1540h142v-14l-207 -412h-43z" />
    <glyph glyph-name="acircumflex" unicode="&#xe2;" horiz-adv-x="921" 
d="M309 -29q-41 0 -80.5 12.5t-76 38t-58.5 72.5t-22 109q0 112 79.5 176t243.5 108l215 60v96q0 131 -55.5 203t-146.5 72q-86 0 -140 -50l-10 -192q-31 -17 -72 -17q-40 0 -65 22t-25 58q0 77 115.5 157.5t265.5 80.5t217.5 -71t67.5 -210v-575q0 -33 12.5 -48.5
t50.5 -15.5h103v-26q-107 -56 -185 -56q-74 0 -105 37.5t-30 124.5h-4q-79 -84 -146 -125t-149 -41zM403 78q112 0 207 127v301l-233 -82q-80 -28 -112 -71.5t-32 -104.5q0 -70 42.5 -120t127.5 -50zM250 1114h-47l207 426h82l208 -426h-53l-201 305z" />
    <glyph glyph-name="atilde" unicode="&#xe3;" horiz-adv-x="921" 
d="M309 -29q-41 0 -80.5 12.5t-76 38t-58.5 72.5t-22 109q0 112 79.5 176t243.5 108l215 60v96q0 131 -55.5 203t-146.5 72q-86 0 -140 -50l-10 -192q-31 -17 -72 -17q-40 0 -65 22t-25 58q0 77 115.5 157.5t265.5 80.5t217.5 -71t67.5 -210v-575q0 -33 12.5 -48.5
t50.5 -15.5h103v-26q-107 -56 -185 -56q-74 0 -105 37.5t-30 124.5h-4q-79 -84 -146 -125t-149 -41zM403 78q112 0 207 127v301l-233 -82q-80 -28 -112 -71.5t-32 -104.5q0 -70 42.5 -120t127.5 -50zM477 1235l-59 20q-36 12 -49 16.5t-39 11.5t-34.5 7t-26 -0.5t-25 -7
t-20.5 -17t-22.5 -26t-21.5 -37.5l-37 19l11 22q42 88 86 126.5t96 37t121 -26.5l67 -22q42 -14 70.5 -19t56.5 1t50.5 28t43.5 62l37 -17l-10 -20q-27 -59 -56 -97t-55.5 -57t-58.5 -23t-60 1t-65 18z" />
    <glyph glyph-name="adieresis" unicode="&#xe4;" horiz-adv-x="921" 
d="M309 -29q-41 0 -80.5 12.5t-76 38t-58.5 72.5t-22 109q0 112 79.5 176t243.5 108l215 60v96q0 131 -55.5 203t-146.5 72q-86 0 -140 -50l-10 -192q-31 -17 -72 -17q-40 0 -65 22t-25 58q0 77 115.5 157.5t265.5 80.5t217.5 -71t67.5 -210v-575q0 -33 12.5 -48.5
t50.5 -15.5h103v-26q-107 -56 -185 -56q-74 0 -105 37.5t-30 124.5h-4q-79 -84 -146 -125t-149 -41zM403 78q112 0 207 127v301l-233 -82q-80 -28 -112 -71.5t-32 -104.5q0 -70 42.5 -120t127.5 -50zM285 1225q-40 0 -67.5 28t-27.5 68t28 69t67 29q41 0 69.5 -29t28.5 -69
t-28.5 -68t-69.5 -28zM596 1225q-40 0 -68 28t-28 68t28 69t68 29t68 -29t28 -69t-28 -68t-68 -28z" />
    <glyph glyph-name="aring" unicode="&#xe5;" horiz-adv-x="921" 
d="M309 -29q-41 0 -80.5 12.5t-76 38t-58.5 72.5t-22 109q0 112 79.5 176t243.5 108l215 60v96q0 131 -55.5 203t-146.5 72q-86 0 -140 -50l-10 -192q-31 -17 -72 -17q-40 0 -65 22t-25 58q0 77 115.5 157.5t265.5 80.5t217.5 -71t67.5 -210v-575q0 -33 12.5 -48.5
t50.5 -15.5h103v-26q-107 -56 -185 -56q-74 0 -105 37.5t-30 124.5h-4q-79 -84 -146 -125t-149 -41zM252 1343q0 87 58.5 143t144.5 56q89 0 146.5 -55.5t57.5 -143.5q0 -87 -58 -143.5t-144 -56.5q-89 0 -147 56t-58 144zM403 78q112 0 207 127v301l-233 -82
q-80 -28 -112 -71.5t-32 -104.5q0 -70 42.5 -120t127.5 -50zM315 1343q0 -62 41 -104.5t99 -42.5q59 0 101 42.5t42 104.5t-41.5 105t-99.5 43q-59 0 -100.5 -42.5t-41.5 -105.5z" />
    <glyph glyph-name="ae" unicode="&#xe6;" horiz-adv-x="1452" 
d="M309 -29q-41 0 -80.5 12.5t-76 38.5t-58.5 73t-22 108q0 29 7 54t17 45t30.5 38.5t38 32t49 28t54.5 24t63.5 21.5t66.5 19.5t73 19.5l141 37v195q-16 85 -69.5 143t-134.5 58q-86 0 -140 -50l-10 -194q-34 -15 -72 -15q-41 0 -65.5 22t-24.5 58q0 77 115.5 157.5
t265.5 80.5q101 0 163 -39.5t95 -120.5q38 72 114.5 116t174.5 44q152 0 238.5 -88.5t111.5 -231.5l-612 -149v-141q6 -117 86.5 -191t204.5 -74q167 0 315 164l29 -20q-71 -105 -111 -147q-122 -128 -297 -128q-118 0 -209.5 55t-134.5 152l-21 -21q-57 -57 -84 -82
t-68 -54.5t-78.5 -39.5t-84.5 -10zM612 338v139l-159 -45q-130 -37 -175 -79.5t-45 -104.5q0 -70 42.5 -120t127.5 -50q67 0 127 50.5t88 127.5q-6 40 -6 82zM762 686v-131l436 111q-29 119 -80 182t-143 63q-90 0 -146 -64.5t-67 -160.5z" />
    <glyph glyph-name="ccedilla" unicode="&#xe7;" horiz-adv-x="927" 
d="M279 -512l-11 31q94 35 137.5 75.5t43.5 94.5q0 98 -113 129l94 159q-73 11 -137 46.5t-115 94t-80.5 147t-29.5 196.5q0 113 43 212t112 164t156 102.5t176 37.5q127 0 227.5 -62.5t100.5 -142.5q0 -45 -34 -72.5t-83 -27.5l-37 4l-47 174q-81 70 -166 70
q-123 0 -211 -102t-88 -281q0 -204 103.5 -320.5t246.5 -116.5q94 0 164.5 43.5t138.5 118.5l29 -20q-55 -88 -97 -132q-129 -139 -302 -139h-15l-41 -69q146 -38 146 -160q0 -48 -21.5 -88t-53 -66t-76 -47.5t-81.5 -32.5t-79 -20z" />
    <glyph glyph-name="egrave" unicode="&#xe8;" horiz-adv-x="942" 
d="M485 -29q-82 0 -151.5 27.5t-117.5 74t-82 107.5t-50 128.5t-16 137.5q0 141 62.5 264t167 195t222.5 72q153 0 247.5 -100t111.5 -287h-662q-2 -18 -2 -58q0 -202 88.5 -316t245.5 -114q167 0 315 164l29 -20q-71 -105 -111 -147q-123 -128 -297 -128zM469 911
q-93 0 -158.5 -73t-87.5 -197h475q-30 137 -81 203.5t-148 66.5zM297 1540h141l109 -426h-43l-207 412v14z" />
    <glyph glyph-name="eacute" unicode="&#xe9;" horiz-adv-x="942" 
d="M485 -29q-82 0 -151.5 27.5t-117.5 74t-82 107.5t-50 128.5t-16 137.5q0 141 62.5 264t167 195t222.5 72q153 0 247.5 -100t111.5 -287h-662q-2 -18 -2 -58q0 -202 88.5 -316t245.5 -114q167 0 315 164l29 -20q-71 -105 -111 -147q-123 -128 -297 -128zM469 911
q-93 0 -158.5 -73t-87.5 -197h475q-30 137 -81 203.5t-148 66.5zM588 1540h141v-14l-207 -412h-43z" />
    <glyph glyph-name="ecircumflex" unicode="&#xea;" horiz-adv-x="942" 
d="M485 -29q-82 0 -151.5 27.5t-117.5 74t-82 107.5t-50 128.5t-16 137.5q0 141 62.5 264t167 195t222.5 72q153 0 247.5 -100t111.5 -287h-662q-2 -18 -2 -58q0 -202 88.5 -316t245.5 -114q167 0 315 164l29 -20q-71 -105 -111 -147q-123 -128 -297 -128zM469 911
q-93 0 -158.5 -73t-87.5 -197h475q-30 137 -81 203.5t-148 66.5zM311 1114h-47l207 426h82l209 -426h-53l-201 305z" />
    <glyph glyph-name="edieresis" unicode="&#xeb;" horiz-adv-x="942" 
d="M485 -29q-82 0 -151.5 27.5t-117.5 74t-82 107.5t-50 128.5t-16 137.5q0 141 62.5 264t167 195t222.5 72q153 0 247.5 -100t111.5 -287h-662q-2 -18 -2 -58q0 -202 88.5 -316t245.5 -114q167 0 315 164l29 -20q-71 -105 -111 -147q-123 -128 -297 -128zM469 911
q-93 0 -158.5 -73t-87.5 -197h475q-30 137 -81 203.5t-148 66.5zM344 1225q-40 0 -67 28t-27 68t27.5 69t66.5 29q41 0 69.5 -29t28.5 -69t-28.5 -68t-69.5 -28zM655 1225q-40 0 -68 28t-28 68t28 69t68 29t68.5 -29t28.5 -69t-28.5 -68t-68.5 -28z" />
    <glyph glyph-name="igrave" unicode="&#xec;" horiz-adv-x="489" 
d="M31 0v35l143 28v736l-137 61v14l289 103v-914l143 -28v-35h-438zM47 1540h141l109 -426h-43l-207 412v14z" />
    <glyph glyph-name="iacute" unicode="&#xed;" horiz-adv-x="489" 
d="M348 1540h141v-14l-206 -412h-43zM31 0v35l143 28v736l-137 61v14l289 103v-914l143 -28v-35h-438z" />
    <glyph glyph-name="icircumflex" unicode="&#xee;" horiz-adv-x="489" 
d="M31 0v35l143 28v736l-137 61v14l289 103v-914l143 -28v-35h-438zM74 1114h-47l186 426h82l188 -426h-53l-180 301z" />
    <glyph glyph-name="idieresis" unicode="&#xef;" horiz-adv-x="489" 
d="M113 1225q-40 0 -67.5 28t-27.5 68t28 69t67 29q41 0 69.5 -29t28.5 -69t-28.5 -68t-69.5 -28zM406 1225q-40 0 -68.5 28t-28.5 68t28.5 69t68.5 29t68 -29t28 -69t-28 -68t-68 -28zM31 0v35l143 28v736l-137 61v14l289 103v-914l143 -28v-35h-438z" />
    <glyph glyph-name="eth" unicode="&#xf0;" horiz-adv-x="1089" 
d="M213 1108l-31 45l256 152q-117 115 -280 204l20 41q193 -82 344 -194l232 137l30 -43l-217 -129q212 -169 328.5 -378t116.5 -406q0 -168 -64.5 -298t-172.5 -199t-240 -69q-199 0 -334 136t-135 360q0 116 42 214.5t110 162t151 98.5t168 35q105 0 190 -62
q-93 194 -250 351zM846 446q0 165 -64 338q-98 140 -272 140q-126 0 -203.5 -115.5t-77.5 -292.5q0 -210 96 -350.5t240 -140.5q124 0 202.5 118.5t78.5 302.5z" />
    <glyph glyph-name="ntilde" unicode="&#xf1;" horiz-adv-x="1095" 
d="M31 0v35l143 28v736l-137 61v14l272 97h6l7 -185h2q191 191 360 191q132 0 197 -77t65 -257v-580l129 -28v-35h-405v35l125 28v580q-2 98 -51 162.5t-140 64.5q-22 0 -45 -4t-41 -9t-40 -15.5t-35.5 -17.5t-35 -21t-29.5 -20t-28.5 -21t-23.5 -17v-682l137 -28v-35h-432z
M590 1235l-60 20q-37 13 -49.5 17t-38.5 11.5t-34 7t-25.5 -1t-25 -7t-20.5 -17t-22.5 -26t-21.5 -37.5l-37 19l10 22q42 88 86 126.5t96 37t121 -26.5l68 -22q42 -14 70.5 -19t56.5 1t50.5 28t43.5 62l37 -17l-10 -20q-27 -59 -56 -97t-55.5 -57t-58.5 -23t-60 1t-65 18z
" />
    <glyph glyph-name="ograve" unicode="&#xf2;" horiz-adv-x="1099" 
d="M522 924q-131 0 -208.5 -116t-77.5 -294q0 -136 44.5 -248.5t121.5 -176.5t171 -64q131 0 210 117t79 294q0 136 -44 248t-122 176t-174 64zM547 -29q-131 0 -238 59t-172 173.5t-65 263.5q0 116 42 214.5t111 162t154.5 98.5t173.5 35q207 0 341 -139t134 -355
q0 -94 -27.5 -177t-74.5 -143.5t-108.5 -104.5t-131 -65.5t-139.5 -21.5zM317 1540h142l108 -426h-43l-207 412v14z" />
    <glyph glyph-name="oacute" unicode="&#xf3;" horiz-adv-x="1099" 
d="M616 1540h142v-14l-207 -412h-43zM522 924q-131 0 -208.5 -116t-77.5 -294q0 -136 44.5 -248.5t121.5 -176.5t171 -64q131 0 210 117t79 294q0 136 -44 248t-122 176t-174 64zM547 -29q-131 0 -238 59t-172 173.5t-65 263.5q0 116 42 214.5t111 162t154.5 98.5t173.5 35
q207 0 341 -139t134 -355q0 -94 -27.5 -177t-74.5 -143.5t-108.5 -104.5t-131 -65.5t-139.5 -21.5z" />
    <glyph glyph-name="ocircumflex" unicode="&#xf4;" horiz-adv-x="1099" 
d="M547 -29q-131 0 -238 59t-172 173.5t-65 263.5q0 116 42 214.5t111 162t154.5 98.5t173.5 35q207 0 341 -139t134 -355q0 -94 -27.5 -177t-74.5 -143.5t-108.5 -104.5t-131 -65.5t-139.5 -21.5zM522 924q-131 0 -208.5 -116t-77.5 -294q0 -136 44.5 -248.5t121.5 -176.5
t171 -64q131 0 210 117t79 294q0 136 -44 248t-122 176t-174 64zM340 1114h-47l207 426h82l209 -426h-54l-200 305z" />
    <glyph glyph-name="otilde" unicode="&#xf5;" horiz-adv-x="1099" 
d="M522 924q-131 0 -208.5 -116t-77.5 -294q0 -136 44.5 -248.5t121.5 -176.5t171 -64q131 0 210 117t79 294q0 136 -44 248t-122 176t-174 64zM547 -29q-131 0 -238 59t-172 173.5t-65 263.5q0 116 42 214.5t111 162t154.5 98.5t173.5 35q207 0 341 -139t134 -355
q0 -94 -27.5 -177t-74.5 -143.5t-108.5 -104.5t-131 -65.5t-139.5 -21.5zM567 1235l-59 20q-36 12 -49 16.5t-39 11.5t-34.5 7t-26 -0.5t-25 -7t-20.5 -17t-22.5 -26t-21.5 -37.5l-37 19l11 22q42 88 86 126.5t96 37t121 -26.5l67 -22q42 -14 70.5 -19t57 1t51 28t43.5 62
l36 -17l-10 -20q-27 -59 -56 -97t-55.5 -57t-58.5 -23t-60 1t-65 18z" />
    <glyph glyph-name="odieresis" unicode="&#xf6;" horiz-adv-x="1099" 
d="M373 1225q-40 0 -67 28t-27 68t27.5 69t66.5 29q41 0 69.5 -29t28.5 -69t-28.5 -68t-69.5 -28zM684 1225q-40 0 -68 28t-28 68t28 69t68 29t68 -29t28 -69t-28 -68t-68 -28zM522 924q-131 0 -208.5 -116t-77.5 -294q0 -136 44.5 -248.5t121.5 -176.5t171 -64
q131 0 210 117t79 294q0 136 -44 248t-122 176t-174 64zM547 -29q-131 0 -238 59t-172 173.5t-65 263.5q0 116 42 214.5t111 162t154.5 98.5t173.5 35q207 0 341 -139t134 -355q0 -94 -27.5 -177t-74.5 -143.5t-108.5 -104.5t-131 -65.5t-139.5 -21.5z" />
    <glyph glyph-name="divide" unicode="&#xf7;" 
d="M1079 442h-970v72h970v-72zM594 702q-40 0 -68 28.5t-28 68.5t28 68t68 28t68 -28t28 -68t-28 -68.5t-68 -28.5zM594 61q-40 0 -68 28.5t-28 68.5t28 68t68 28t68 -28t28 -68t-28 -68.5t-68 -28.5z" />
    <glyph glyph-name="oslash" unicode="&#xf8;" horiz-adv-x="1099" 
d="M154 -102h-70l145 196q-157 141 -157 373q0 116 42 214.5t111 162t154.5 98.5t173.5 35q147 0 266 -82l131 176h72l-158 -211q77 -68 120.5 -166t43.5 -211q0 -94 -27.5 -177t-74.5 -143.5t-108.5 -104.5t-131 -65.5t-139.5 -21.5q-153 0 -275 86zM862 446q0 181 -74 310
l-450 -609q92 -122 235 -122q131 0 210 118t79 303zM522 924q-131 0 -208.5 -117t-77.5 -301q0 -183 69 -309l449 608q-95 119 -232 119z" />
    <glyph glyph-name="ugrave" unicode="&#xf9;" horiz-adv-x="1079" 
d="M776 -18l-16 174q-153 -185 -336 -185q-74 0 -130 25.5t-88 71t-47.5 101.5t-15.5 122v555l-133 39v26l285 54v-627q0 -133 57.5 -193.5t157.5 -60.5q53 0 106 21t80 40t62 48v653l-158 39v26l309 54v-877l142 -41v-27zM313 1540h142l108 -426h-43l-207 412v14z" />
    <glyph glyph-name="uacute" unicode="&#xfa;" horiz-adv-x="1079" 
d="M776 -18l-16 174q-153 -185 -336 -185q-74 0 -130 25.5t-88 71t-47.5 101.5t-15.5 122v555l-133 39v26l285 54v-627q0 -133 57.5 -193.5t157.5 -60.5q53 0 106 21t80 40t62 48v653l-158 39v26l309 54v-877l142 -41v-27zM614 1540h142v-14l-207 -412h-43z" />
    <glyph glyph-name="ucircumflex" unicode="&#xfb;" horiz-adv-x="1079" 
d="M776 -18l-16 174q-153 -185 -336 -185q-74 0 -130 25.5t-88 71t-47.5 101.5t-15.5 122v555l-133 39v26l285 54v-627q0 -133 57.5 -193.5t157.5 -60.5q53 0 106 21t80 40t62 48v653l-158 39v26l309 54v-877l142 -41v-27zM338 1114h-47l207 426h82l208 -426h-53l-200 305z
" />
    <glyph glyph-name="udieresis" unicode="&#xfc;" horiz-adv-x="1079" 
d="M776 -18l-16 174q-153 -185 -336 -185q-74 0 -130 25.5t-88 71t-47.5 101.5t-15.5 122v555l-133 39v26l285 54v-627q0 -133 57.5 -193.5t157.5 -60.5q53 0 106 21t80 40t62 48v653l-158 39v26l309 54v-877l142 -41v-27zM371 1225q-40 0 -67.5 28t-27.5 68t28 69t67 29
q41 0 69.5 -29t28.5 -69t-28.5 -68t-69.5 -28zM682 1225q-40 0 -68 28t-28 68t28 69t68 29t68 -29t28 -69t-28 -68t-68 -28z" />
    <glyph glyph-name="yacute" unicode="&#xfd;" horiz-adv-x="927" 
d="M762 877l-156 41v30h340v-33l-117 -38l-448 -1252q-25 -69 -60.5 -107t-95.5 -38q-46 0 -76 28.5t-30 71.5t27.5 70.5t70.5 27.5q61 0 96 -71h4l125 334l-346 940l-114 37v30h421v-30l-135 -39l248 -717h4zM608 1540h142v-14l-207 -412h-43z" />
    <glyph glyph-name="thorn" unicode="&#xfe;" horiz-adv-x="1048" 
d="M424 -23q-63 0 -137 19v-424l205 -27v-37h-482v39l125 29v1778l-133 65v15l285 94v-740q53 81 133.5 134t181.5 53q71 0 135 -26t118 -78t86 -143t32 -210q0 -117 -50 -220.5t-129.5 -172.5t-176.5 -108.5t-193 -39.5zM520 866q-143 0 -233 -141v-621q79 -61 194 -61
q153 0 246.5 112.5t93.5 333.5q0 157 -87 267t-214 110z" />
    <glyph glyph-name="ydieresis" unicode="&#xff;" horiz-adv-x="927" 
d="M762 877l-156 41v30h340v-33l-117 -38l-448 -1252q-25 -69 -60.5 -107t-95.5 -38q-46 0 -76 28.5t-30 71.5t27.5 70.5t70.5 27.5q61 0 96 -71h4l125 334l-346 940l-114 37v30h421v-30l-135 -39l248 -717h4zM362 1225q-40 0 -67 28t-27 68t27.5 69t66.5 29q41 0 70 -29
t29 -69t-29 -68t-70 -28zM674 1225q-40 0 -68 28t-28 68t28 69t68 29t68 -29t28 -69t-28 -68t-68 -28z" />
    <glyph glyph-name="Amacron" unicode="&#x100;" horiz-adv-x="1294" 
d="M-49 0v39l158 35l466 1296l60 12l74 17l479 -1333l155 -31v-35h-505v39l163 27l-147 421h-520l-139 -409l241 -39v-39h-485zM588 1235l-228 -670h465l-233 670h-4zM371 1556v99h565v-99h-565z" />
    <glyph glyph-name="amacron" unicode="&#x101;" horiz-adv-x="921" 
d="M309 -29q-41 0 -80.5 12.5t-76 38t-58.5 72.5t-22 109q0 112 79.5 176t243.5 108l215 60v96q0 131 -55.5 203t-146.5 72q-86 0 -140 -50l-10 -192q-31 -17 -72 -17q-40 0 -65 22t-25 58q0 77 115.5 157.5t265.5 80.5t217.5 -71t67.5 -210v-575q0 -33 12.5 -48.5
t50.5 -15.5h103v-26q-107 -56 -185 -56q-74 0 -105 37.5t-30 124.5h-4q-79 -84 -146 -125t-149 -41zM403 78q112 0 207 127v301l-233 -82q-80 -28 -112 -71.5t-32 -104.5q0 -70 42.5 -120t127.5 -50zM164 1264v98h565v-98h-565z" />
    <glyph glyph-name="Abreve" unicode="&#x102;" horiz-adv-x="1294" 
d="M-49 0v39l158 35l466 1296l60 12l74 17l479 -1333l155 -31v-35h-505v39l163 27l-147 421h-520l-139 -409l241 -39v-39h-485zM588 1235l-228 -670h465l-233 670h-4zM641 1495q-62 0 -107.5 22.5t-70 61.5t-36 82.5t-13.5 95.5h35q20 -70 70.5 -114t129.5 -44
q161 0 207 158h35q-3 -50 -15 -92t-38.5 -82.5t-76.5 -64t-120 -23.5z" />
    <glyph glyph-name="abreve" unicode="&#x103;" horiz-adv-x="921" 
d="M309 -29q-41 0 -80.5 12.5t-76 38t-58.5 72.5t-22 109q0 112 79.5 176t243.5 108l215 60v96q0 131 -55.5 203t-146.5 72q-86 0 -140 -50l-10 -192q-31 -17 -72 -17q-40 0 -65 22t-25 58q0 77 115.5 157.5t265.5 80.5t217.5 -71t67.5 -210v-575q0 -33 12.5 -48.5
t50.5 -15.5h103v-26q-107 -56 -185 -56q-74 0 -105 37.5t-30 124.5h-4q-79 -84 -146 -125t-149 -41zM403 78q112 0 207 127v301l-233 -82q-80 -28 -112 -71.5t-32 -104.5q0 -70 42.5 -120t127.5 -50zM444 1147q-107 0 -169 83t-68 240h39q29 -110 78.5 -157t121.5 -47
q146 0 201 204h39q-8 -154 -69 -238.5t-173 -84.5z" />
    <glyph glyph-name="Aogonek" unicode="&#x104;" horiz-adv-x="1294" 
d="M-49 0v39l158 35l466 1296l60 12l74 17l479 -1333l155 -31v-35h-288q-85 -86 -118 -122.5t-58 -82t-25 -90.5q0 -47 29.5 -79t77.5 -32q45 0 86 24.5t92 84.5l26 -18q-23 -33 -37.5 -52.5t-43.5 -51.5t-55.5 -50t-64 -32.5t-77.5 -14.5q-75 0 -123.5 48t-48.5 120
q0 27 5.5 50.5t22 49t29.5 43t46 48t53.5 48t69.5 58.5t77 65l-164 473h-520l-139 -409l241 -39v-39h-485zM588 1235l-228 -670h465l-233 670h-4z" />
    <glyph glyph-name="aogonek" unicode="&#x105;" horiz-adv-x="921" 
d="M756 -33v8q-76 0 -113 42.5t-35 119.5h-4q-79 -84 -146 -125t-149 -41q-41 0 -80.5 12.5t-76 38t-58.5 72.5t-22 109q0 112 79.5 176t243.5 108l215 60v96q0 131 -55.5 203t-146.5 72q-86 0 -140 -50l-10 -192q-31 -17 -72 -17q-40 0 -65 22t-25 58q0 77 115.5 157.5
t265.5 80.5t217.5 -71t67.5 -210v-575q0 -33 12.5 -48.5t50.5 -15.5h103v-24q-104 -62 -173 -113.5t-100 -91.5t-42 -67.5t-11 -57.5q0 -45 28.5 -77t78.5 -32q45 0 86 24.5t92 84.5l26 -18q-23 -33 -37.5 -52.5t-43.5 -51.5t-55.5 -50t-64 -32.5t-77.5 -14.5
q-81 0 -127.5 48t-46.5 118q0 29 7 54.5t25 50t33 42.5t48.5 43.5t53 39t64 43.5t64.5 44zM403 78q112 0 207 127v301l-233 -82q-80 -28 -112 -71.5t-32 -104.5q0 -70 42.5 -120t127.5 -50z" />
    <glyph glyph-name="Cacute" unicode="&#x106;" horiz-adv-x="1437" 
d="M772 -45q-140 0 -257 40.5t-196 107.5t-133.5 155.5t-79 182.5t-24.5 190q0 163 61.5 307.5t166 246.5t247 161t299.5 59q113 0 232.5 -33t201.5 -80l19 -336h-39l-117 277q-165 117 -340 117q-151 0 -275.5 -88.5t-195 -240t-70.5 -331.5q0 -168 46.5 -299.5t125.5 -211
t177 -120.5t208 -41q165 0 334 119l160 318h39l-57 -365q-87 -35 -128.5 -50.5t-118.5 -40t-145.5 -34.5t-140.5 -10zM950 1772h160v-13l-268 -268h-56z" />
    <glyph glyph-name="cacute" unicode="&#x107;" horiz-adv-x="927" 
d="M614 1540h142v-14l-207 -412h-43zM500 -29q-83 0 -159 30.5t-138 89t-98.5 154.5t-36.5 216q0 113 43 212t112 164t156 102.5t176 37.5q127 0 227.5 -62.5t100.5 -142.5q0 -45 -34 -72.5t-83 -27.5l-37 4l-47 174q-81 70 -166 70q-123 0 -211 -102t-88 -281
q0 -204 103.5 -320.5t246.5 -116.5q94 0 164.5 43.5t138.5 118.5l29 -20q-55 -88 -97 -132q-129 -139 -302 -139z" />
    <glyph glyph-name="Ccircumflex" unicode="&#x108;" horiz-adv-x="1437" 
d="M772 -45q-140 0 -257 40.5t-196 107.5t-133.5 155.5t-79 182.5t-24.5 190q0 163 61.5 307.5t166 246.5t247 161t299.5 59q113 0 232.5 -33t201.5 -80l19 -336h-39l-117 277q-165 117 -340 117q-151 0 -275.5 -88.5t-195 -240t-70.5 -331.5q0 -168 46.5 -299.5t125.5 -211
t177 -120.5t208 -41q165 0 334 119l160 318h39l-57 -365q-87 -35 -128.5 -50.5t-118.5 -40t-145.5 -34.5t-140.5 -10zM602 1491h-59l233 256h111l213 -256h-66l-209 162z" />
    <glyph glyph-name="ccircumflex" unicode="&#x109;" horiz-adv-x="927" 
d="M500 -29q-83 0 -159 30.5t-138 89t-98.5 154.5t-36.5 216q0 113 43 212t112 164t156 102.5t176 37.5q127 0 227.5 -62.5t100.5 -142.5q0 -45 -34 -72.5t-83 -27.5l-37 4l-47 174q-81 70 -166 70q-123 0 -211 -102t-88 -281q0 -204 103.5 -320.5t246.5 -116.5
q94 0 164.5 43.5t138.5 118.5l29 -20q-55 -88 -97 -132q-129 -139 -302 -139zM342 1114h-47l207 426h82l209 -426h-54l-200 305z" />
    <glyph glyph-name="Cdotaccent" unicode="&#x10a;" horiz-adv-x="1437" 
d="M772 -45q-140 0 -257 40.5t-196 107.5t-133.5 155.5t-79 182.5t-24.5 190q0 163 61.5 307.5t166 246.5t247 161t299.5 59q113 0 232.5 -33t201.5 -80l19 -336h-39l-117 277q-165 117 -340 117q-151 0 -275.5 -88.5t-195 -240t-70.5 -331.5q0 -168 46.5 -299.5t125.5 -211
t177 -120.5t208 -41q165 0 334 119l160 318h39l-57 -365q-87 -35 -128.5 -50.5t-118.5 -40t-145.5 -34.5t-140.5 -10zM840 1540q-44 0 -76.5 32.5t-32.5 76.5t32.5 76t76.5 32t76 -32t32 -76t-32 -76.5t-76 -32.5z" />
    <glyph glyph-name="cdotaccent" unicode="&#x10b;" horiz-adv-x="927" 
d="M500 -29q-83 0 -159 30.5t-138 89t-98.5 154.5t-36.5 216q0 113 43 212t112 164t156 102.5t176 37.5q127 0 227.5 -62.5t100.5 -142.5q0 -45 -34 -72.5t-83 -27.5l-37 4l-47 174q-81 70 -166 70q-123 0 -211 -102t-88 -281q0 -204 103.5 -320.5t246.5 -116.5
q94 0 164.5 43.5t138.5 118.5l29 -20q-55 -88 -97 -132q-129 -139 -302 -139zM543 1212q-44 0 -76.5 32.5t-32.5 76.5t32.5 76.5t76.5 32.5t76 -32.5t32 -76.5t-32 -76.5t-76 -32.5z" />
    <glyph glyph-name="Ccaron" unicode="&#x10c;" horiz-adv-x="1437" 
d="M772 -45q-140 0 -257 40.5t-196 107.5t-133.5 155.5t-79 182.5t-24.5 190q0 163 61.5 307.5t166 246.5t247 161t299.5 59q113 0 232.5 -33t201.5 -80l19 -336h-39l-117 277q-165 117 -340 117q-151 0 -275.5 -88.5t-195 -240t-70.5 -331.5q0 -168 46.5 -299.5t125.5 -211
t177 -120.5t208 -41q165 0 334 119l160 318h39l-57 -365q-87 -35 -128.5 -50.5t-118.5 -40t-145.5 -34.5t-140.5 -10zM1061 1747h59l-233 -256h-111l-213 256h66l207 -162z" />
    <glyph glyph-name="ccaron" unicode="&#x10d;" horiz-adv-x="927" 
d="M500 -29q-83 0 -159 30.5t-138 89t-98.5 154.5t-36.5 216q0 113 43 212t112 164t156 102.5t176 37.5q127 0 227.5 -62.5t100.5 -142.5q0 -45 -34 -72.5t-83 -27.5l-37 4l-47 174q-81 70 -166 70q-123 0 -211 -102t-88 -281q0 -204 103.5 -320.5t246.5 -116.5
q94 0 164.5 43.5t138.5 118.5l29 -20q-55 -88 -97 -132q-129 -139 -302 -139zM741 1540h47l-206 -426h-82l-209 426h53l199 -295z" />
    <glyph glyph-name="Dcaron" unicode="&#x10e;" horiz-adv-x="1509" 
d="M51 0v39l178 29v1224l-178 31v37l580 4q186 -8 337 -61.5t251 -140.5t154 -202t54 -249q0 -162 -60 -295.5t-174 -228t-286.5 -145.5t-388.5 -48zM406 1315v-1227q103 -41 249 -37q134 3 245 55t183 138t111 195.5t39 230.5q0 141 -43.5 254.5t-119.5 189.5t-181 124.5
t-226 66.5t-257 10zM926 1747h59l-233 -256h-111l-213 256h66l206 -162z" />
    <glyph glyph-name="dcaron" unicode="&#x10f;" horiz-adv-x="1087" 
d="M623 1421v15l307 92v-1440l141 -41v-27l-274 -38l-15 139q-150 -150 -311 -150q-97 0 -175 37.5t-127 101.5t-75 146.5t-26 175.5q0 100 30.5 188t83 152t120.5 111t145.5 70.5t156.5 23.5q90 0 174 -39v422zM561 72q115 0 217 94v635q-95 112 -250 112
q-132 0 -218.5 -108t-86.5 -303q0 -53 11 -109.5t36.5 -114.5t63 -103t96.5 -74t131 -29zM1069 1090h-33l33 411h148v-14z" />
    <glyph glyph-name="Dcroat" unicode="&#x110;" horiz-adv-x="1509" 
d="M51 0v39l178 29v585h-174v49h174v590l-178 31v37l580 4q186 -8 337 -61.5t251 -140.5t154 -202t54 -249q0 -162 -60 -295.5t-174 -228t-286.5 -145.5t-388.5 -48zM776 653h-370v-565q103 -41 249 -37q134 3 245 55t183 138t111 195.5t39 230.5q0 141 -43.5 254.5
t-119.5 189.5t-181 124.5t-226 66.5t-257 10v-613h370v-49z" />
    <glyph glyph-name="dcroat" unicode="&#x111;" horiz-adv-x="1087" 
d="M623 1419v15l307 92v-340h147v-49h-147v-1049l141 -41v-27l-274 -38l-15 139q-150 -150 -311 -150q-97 0 -175 37.5t-127 101.5t-75 146.5t-26 175.5q0 100 30.5 188t83 152t120.5 111t145.5 70.5t156.5 23.5q90 0 174 -39v199h-405v49h405v172zM561 72q115 0 217 94v635
q-95 112 -250 112q-132 0 -218.5 -108t-86.5 -303q0 -53 11 -109.5t36.5 -114.5t63 -103t96.5 -74t131 -29z" />
    <glyph glyph-name="Emacron" unicode="&#x112;" horiz-adv-x="1204" 
d="M705 678h-299v-578q32 -40 92 -45h403l186 340h39l-88 -395h-987v39l178 29v1224l-178 33v35h869l135 10v-387h-37l-96 322h-516v-564h299l63 220h35v-490h-35zM360 1556v99h566v-99h-566z" />
    <glyph glyph-name="emacron" unicode="&#x113;" horiz-adv-x="942" 
d="M485 -29q-82 0 -151.5 27.5t-117.5 74t-82 107.5t-50 128.5t-16 137.5q0 141 62.5 264t167 195t222.5 72q153 0 247.5 -100t111.5 -287h-662q-2 -18 -2 -58q0 -202 88.5 -316t245.5 -114q167 0 315 164l29 -20q-71 -105 -111 -147q-123 -128 -297 -128zM469 911
q-93 0 -158.5 -73t-87.5 -197h475q-30 137 -81 203.5t-148 66.5zM233 1264v98h566v-98h-566z" />
    <glyph glyph-name="Ebreve" unicode="&#x114;" horiz-adv-x="1204" 
d="M705 678h-299v-578q32 -40 92 -45h403l186 340h39l-88 -395h-987v39l178 29v1224l-178 33v35h869l135 10v-387h-37l-96 322h-516v-564h299l63 220h35v-490h-35zM641 1495q-62 0 -107.5 22.5t-70 61.5t-36 82.5t-13.5 95.5h35q20 -70 70.5 -114t129.5 -44q161 0 207 158
h35q-3 -50 -15 -92t-38.5 -82.5t-76.5 -64t-120 -23.5z" />
    <glyph glyph-name="ebreve" unicode="&#x115;" horiz-adv-x="942" 
d="M485 -29q-82 0 -151.5 27.5t-117.5 74t-82 107.5t-50 128.5t-16 137.5q0 141 62.5 264t167 195t222.5 72q153 0 247.5 -100t111.5 -287h-662q-2 -18 -2 -58q0 -202 88.5 -316t245.5 -114q167 0 315 164l29 -20q-71 -105 -111 -147q-123 -128 -297 -128zM469 911
q-93 0 -158.5 -73t-87.5 -197h475q-30 137 -81 203.5t-148 66.5zM506 1147q-107 0 -169.5 83t-68.5 240h39q29 -110 79 -157t122 -47q146 0 201 204h39q-8 -154 -69 -238.5t-173 -84.5z" />
    <glyph glyph-name="Edotaccent" unicode="&#x116;" horiz-adv-x="1204" 
d="M705 678h-299v-578q32 -40 92 -45h403l186 340h39l-88 -395h-987v39l178 29v1224l-178 33v35h869l135 10v-387h-37l-96 322h-516v-564h299l63 220h35v-490h-35zM645 1540q-44 0 -76 32.5t-32 76.5t32 76t76 32t76.5 -32t32.5 -76t-32.5 -76.5t-76.5 -32.5z" />
    <glyph glyph-name="edotaccent" unicode="&#x117;" horiz-adv-x="942" 
d="M485 -29q-82 0 -151.5 27.5t-117.5 74t-82 107.5t-50 128.5t-16 137.5q0 141 62.5 264t167 195t222.5 72q153 0 247.5 -100t111.5 -287h-662q-2 -18 -2 -58q0 -202 88.5 -316t245.5 -114q167 0 315 164l29 -20q-71 -105 -111 -147q-123 -128 -297 -128zM469 911
q-93 0 -158.5 -73t-87.5 -197h475q-30 137 -81 203.5t-148 66.5zM520 1212q-44 0 -76 32.5t-32 76.5t32 76.5t76 32.5t76.5 -32.5t32.5 -76.5t-32.5 -76.5t-76.5 -32.5z" />
    <glyph glyph-name="Eogonek" unicode="&#x118;" horiz-adv-x="1204" 
d="M705 678h-299v-578q32 -40 92 -45h403l186 340h39l-88 -395h-127q-113 -114 -158.5 -177.5t-45.5 -121.5q0 -44 28 -75.5t78 -31.5q45 0 86 24.5t92 84.5l27 -18q-22 -33 -37 -53t-44.5 -51.5t-56 -50t-64 -32.5t-77.5 -14q-75 0 -123.5 48t-48.5 120q0 24 6 47t13 41
t27 41t32 37t45 41.5t50 40.5t62.5 48t67.5 52h-819v39l178 29v1224l-178 33v35h869l135 10v-387h-37l-96 322h-516v-564h299l63 220h35v-490h-35z" />
    <glyph glyph-name="eogonek" unicode="&#x119;" horiz-adv-x="942" 
d="M485 -29q-82 0 -151.5 27.5t-117.5 74t-82 107.5t-50 128.5t-16 137.5q0 141 62.5 264t167 195t222.5 72q150 0 247 -99.5t112 -287.5h-662q-2 -18 -2 -58q0 -202 88.5 -316t245.5 -114q167 0 315 164l29 -20q-54 -87 -143 -176q-12 -12 -40 -39.5t-42.5 -42.5
t-40.5 -41.5t-41 -44t-35.5 -42t-32 -43t-23.5 -40t-17 -40.5t-5 -36q0 -44 29 -75.5t82 -31.5q42 0 82.5 24.5t91.5 84.5l26 -18q-24 -34 -37.5 -52.5t-43 -51.5t-55 -50.5t-64 -32t-78.5 -14.5q-76 0 -124 48t-48 120q0 24 5.5 46.5t13 40.5t25.5 40t30.5 36t42.5 39
t47.5 39t58.5 45.5t64 49.5v8q-70 -25 -136 -25zM469 911q-93 0 -158.5 -73.5t-87.5 -196.5h475q-29 138 -81.5 204t-147.5 66z" />
    <glyph glyph-name="Ecaron" unicode="&#x11a;" horiz-adv-x="1204" 
d="M705 678h-299v-578q32 -40 92 -45h403l186 340h39l-88 -395h-987v39l178 29v1224l-178 33v35h869l135 10v-387h-37l-96 322h-516v-564h299l63 220h35v-490h-35zM877 1747h59l-234 -256h-110l-213 256h65l207 -162z" />
    <glyph glyph-name="ecaron" unicode="&#x11b;" horiz-adv-x="942" 
d="M485 -29q-82 0 -151.5 27.5t-117.5 74t-82 107.5t-50 128.5t-16 137.5q0 141 62.5 264t167 195t222.5 72q153 0 247.5 -100t111.5 -287h-662q-2 -18 -2 -58q0 -202 88.5 -316t245.5 -114q167 0 315 164l29 -20q-71 -105 -111 -147q-123 -128 -297 -128zM469 911
q-93 0 -158.5 -73t-87.5 -197h475q-30 137 -81 203.5t-148 66.5zM711 1540h47l-207 -426h-82l-209 426h53l199 -295z" />
    <glyph glyph-name="Gcircumflex" unicode="&#x11c;" horiz-adv-x="1482" 
d="M815 -41q-150 0 -274 39.5t-207.5 106t-141.5 155.5t-84 186.5t-26 200.5q0 203 107.5 378t288.5 277.5t390 102.5q230 0 447 -117v-340h-35l-115 285q-64 50 -155 81.5t-183 31.5q-117 0 -218.5 -46.5t-175.5 -129.5t-116.5 -205t-42.5 -267q0 -168 48 -299.5
t130.5 -212t188.5 -122t227 -41.5q157 0 277 59v428l-211 33v37h487v-39l-98 -25v-438l-100 -39q-222 -80 -408 -80zM623 1491h-60l234 256h110l213 -256h-65l-209 162z" />
    <glyph glyph-name="gcircumflex" unicode="&#x11d;" horiz-adv-x="962" 
d="M954 856h-245v-4q98 -103 98 -223q0 -102 -57 -182.5t-142.5 -121t-179.5 -40.5q-97 0 -166 34q-51 -45 -51 -96q0 -32 26 -54.5t72 -25.5l398 -28q114 -9 177.5 -64.5t63.5 -140.5q0 -101 -78 -195t-209.5 -152.5t-277.5 -58.5q-161 0 -255.5 62.5t-94.5 181.5
q0 63 50 126t124 101l51 27v6q-69 3 -118.5 39.5t-49.5 104.5q0 15 3.5 29.5t12.5 30t15.5 25.5t23.5 26.5t23.5 23t28 25.5t26.5 24v4q-143 90 -143 278q0 157 102.5 255t257.5 98q99 0 226 -53l288 30v-92zM692 -31l-393 27q-117 -91 -117 -201q0 -103 76 -161t223 -58
q83 0 149 25.5t104 66t57.5 84t19.5 84.5q0 53 -33.5 87.5t-85.5 45.5zM242 686q0 -169 56 -260.5t157 -91.5q80 0 134 70.5t54 187.5q0 172 -60.5 255t-156.5 85q-87 0 -135.5 -68t-48.5 -178zM244 1114h-47l206 426h82l209 -426h-53l-201 305z" />
    <glyph glyph-name="Gbreve" unicode="&#x11e;" horiz-adv-x="1482" 
d="M829 1495q-62 0 -107.5 22.5t-70 61.5t-36 82.5t-13.5 95.5h35q20 -70 71 -114t130 -44q90 0 137.5 42.5t68.5 115.5h35q-3 -50 -15 -92t-38.5 -82.5t-76.5 -64t-120 -23.5zM815 -41q-150 0 -274 39.5t-207.5 106t-141.5 155.5t-84 186.5t-26 200.5q0 203 107.5 378
t288.5 277.5t390 102.5q230 0 447 -117v-340h-35l-115 285q-64 50 -155 81.5t-183 31.5q-117 0 -218.5 -46.5t-175.5 -129.5t-116.5 -205t-42.5 -267q0 -168 48 -299.5t130.5 -212t188.5 -122t227 -41.5q157 0 277 59v428l-211 33v37h487v-39l-98 -25v-438l-100 -39
q-222 -80 -408 -80z" />
    <glyph glyph-name="gbreve" unicode="&#x11f;" horiz-adv-x="962" 
d="M954 856h-245v-4q98 -103 98 -223q0 -102 -57 -182.5t-142.5 -121t-179.5 -40.5q-97 0 -166 34q-51 -45 -51 -96q0 -32 26 -54.5t72 -25.5l398 -28q114 -9 177.5 -64.5t63.5 -140.5q0 -101 -78 -195t-209.5 -152.5t-277.5 -58.5q-161 0 -255.5 62.5t-94.5 181.5
q0 63 50 126t124 101l51 27v6q-69 3 -118.5 39.5t-49.5 104.5q0 15 3.5 29.5t12.5 30t15.5 25.5t23.5 26.5t23.5 23t28 25.5t26.5 24v4q-143 90 -143 278q0 157 102.5 255t257.5 98q99 0 226 -53l288 30v-92zM692 -31l-393 27q-117 -91 -117 -201q0 -103 76 -161t223 -58
q83 0 149 25.5t104 66t57.5 84t19.5 84.5q0 53 -33.5 87.5t-85.5 45.5zM242 686q0 -169 56 -260.5t157 -91.5q80 0 134 70.5t54 187.5q0 172 -60.5 255t-156.5 85q-87 0 -135.5 -68t-48.5 -178zM438 1147q-107 0 -169 83t-68 240h39q29 -110 78.5 -157t121.5 -47
q146 0 201 204h39q-8 -154 -69 -238.5t-173 -84.5z" />
    <glyph glyph-name="Gdotaccent" unicode="&#x120;" horiz-adv-x="1482" 
d="M850 1540q-44 0 -76.5 32.5t-32.5 76.5t32.5 76t76.5 32t76 -32t32 -76t-32 -76.5t-76 -32.5zM815 -41q-150 0 -274 39.5t-207.5 106t-141.5 155.5t-84 186.5t-26 200.5q0 203 107.5 378t288.5 277.5t390 102.5q230 0 447 -117v-340h-35l-115 285q-64 50 -155 81.5
t-183 31.5q-117 0 -218.5 -46.5t-175.5 -129.5t-116.5 -205t-42.5 -267q0 -168 48 -299.5t130.5 -212t188.5 -122t227 -41.5q157 0 277 59v428l-211 33v37h487v-39l-98 -25v-438l-100 -39q-222 -80 -408 -80z" />
    <glyph glyph-name="gdotaccent" unicode="&#x121;" horiz-adv-x="962" 
d="M954 856h-245v-4q98 -103 98 -223q0 -102 -57 -182.5t-142.5 -121t-179.5 -40.5q-97 0 -166 34q-51 -45 -51 -96q0 -32 26 -54.5t72 -25.5l398 -28q114 -9 177.5 -64.5t63.5 -140.5q0 -101 -78 -195t-209.5 -152.5t-277.5 -58.5q-161 0 -255.5 62.5t-94.5 181.5
q0 63 50 126t124 101l51 27v6q-69 3 -118.5 39.5t-49.5 104.5q0 15 3.5 29.5t12.5 30t15.5 25.5t23.5 26.5t23.5 23t28 25.5t26.5 24v4q-143 90 -143 278q0 157 102.5 255t257.5 98q99 0 226 -53l288 30v-92zM692 -31l-393 27q-117 -91 -117 -201q0 -103 76 -161t223 -58
q83 0 149 25.5t104 66t57.5 84t19.5 84.5q0 53 -33.5 87.5t-85.5 45.5zM242 686q0 -169 56 -260.5t157 -91.5q80 0 134 70.5t54 187.5q0 172 -60.5 255t-156.5 85q-87 0 -135.5 -68t-48.5 -178zM440 1212q-44 0 -76 32.5t-32 76.5t32 76.5t76 32.5t76.5 -32.5t32.5 -76.5
t-32.5 -76.5t-76.5 -32.5z" />
    <glyph glyph-name="Gcommaaccent" unicode="&#x122;" horiz-adv-x="1482" 
d="M651 -522l-6 35q189 44 189 147q0 43 -34 68t-91 28v8q6 48 34.5 76.5t79.5 28.5q58 0 100 -41.5t42 -103.5q0 -97 -76.5 -161t-237.5 -85zM815 -41q-150 0 -274 39.5t-207.5 106t-141.5 155.5t-84 186.5t-26 200.5q0 203 107.5 378t288.5 277.5t390 102.5
q230 0 447 -117v-340h-35l-115 285q-64 50 -155 81.5t-183 31.5q-117 0 -218.5 -46.5t-175.5 -129.5t-116.5 -205t-42.5 -267q0 -168 48 -299.5t130.5 -212t188.5 -122t227 -41.5q157 0 277 59v428l-211 33v37h487v-39l-98 -25v-438l-100 -39q-222 -80 -408 -80z" />
    <glyph glyph-name="gcommaaccent" unicode="&#x123;" horiz-adv-x="962" 
d="M954 856h-245v-4q98 -103 98 -223q0 -102 -57 -182.5t-142.5 -121t-179.5 -40.5q-97 0 -166 34q-51 -45 -51 -96q0 -32 26 -54.5t72 -25.5l398 -28q114 -9 177.5 -64.5t63.5 -140.5q0 -101 -78 -195t-209.5 -152.5t-277.5 -58.5q-161 0 -255.5 62.5t-94.5 181.5
q0 63 50 126t124 101l51 27v6q-69 3 -118.5 39.5t-49.5 104.5q0 15 3.5 29.5t12.5 30t15.5 25.5t23.5 26.5t23.5 23t28 25.5t26.5 24v4q-143 90 -143 278q0 157 102.5 255t257.5 98q99 0 226 -53l288 30v-92zM692 -31l-393 27q-117 -91 -117 -201q0 -103 76 -161t223 -58
q83 0 149 25.5t104 66t57.5 84t19.5 84.5q0 53 -33.5 87.5t-85.5 45.5zM242 686q0 -169 56 -260.5t157 -91.5q80 0 134 70.5t54 187.5q0 172 -60.5 255t-156.5 85q-87 0 -135.5 -68t-48.5 -178zM614 1593l7 -34q-189 -44 -189 -148q0 -43 34 -68t91 -28v-8q-6 -47 -35 -76
t-80 -29q-59 0 -100 42t-41 110q0 87 83.5 152.5t229.5 86.5z" />
    <glyph glyph-name="Hcircumflex" unicode="&#x124;" horiz-adv-x="1505" 
d="M922 0v39l178 29v612h-694v-612l180 -29v-39h-535v39l178 29v1224l-178 33v35h535v-35l-180 -33v-553h694v553l-178 33v35h532v-35l-178 -33v-1224l178 -29v-39h-532zM526 1491h-59l233 256h111l213 -256h-66l-208 162z" />
    <glyph glyph-name="hcircumflex" unicode="&#x125;" horiz-adv-x="1075" 
d="M649 0v35l125 28v580q-2 98 -50.5 162.5t-139.5 64.5q-22 0 -45 -4t-41 -9t-40.5 -16t-35.5 -17t-35.5 -21t-29.5 -20t-28.5 -21t-23.5 -17v-682l137 -28v-35h-411v35l123 28v1293l-134 65v15l285 92v-742q17 19 43 42t76 60.5t114 62t126 24.5q133 0 197.5 -76
t64.5 -256v-580l129 -28v-35h-406zM334 1569h-60l234 256h110l213 -256h-65l-209 162z" />
    <glyph glyph-name="Hbar" unicode="&#x126;" horiz-adv-x="1505" 
d="M922 0v39l178 29v612h-694v-612l180 -29v-39h-535v39l178 29v950h-200v51h200v223l-178 33v35h535v-35l-180 -33v-223h694v223l-178 33v35h532v-35l-178 -33v-223h201v-51h-201v-950l178 -29v-39h-532zM406 1018v-279h694v279h-694z" />
    <glyph glyph-name="hbar" unicode="&#x127;" horiz-adv-x="1075" 
d="M649 0v35l125 28v580q-2 98 -50.5 162.5t-139.5 64.5q-22 0 -45 -4t-41 -9t-40.5 -16t-35.5 -17t-35.5 -21t-29.5 -20t-28.5 -21t-23.5 -17v-682l137 -28v-35h-432v35l144 28v1074h-148v49h148v170l-134 65v15l285 92v-342h406v-49h-406v-351q17 19 43 42t76 60.5t114 62
t126 24.5q133 0 197.5 -76t64.5 -256v-580l129 -30v-33h-406z" />
    <glyph glyph-name="Itilde" unicode="&#x128;" horiz-adv-x="634" 
d="M51 0v41l178 29v1220l-178 33v37h533v-37l-178 -33v-1220l178 -29v-41h-533zM354 1532l-59 20q-36 12 -49 16.5t-39 11.5t-34.5 7t-26 -0.5t-25 -7t-20.5 -17t-22.5 -26t-21.5 -37.5l-37 19l11 22q42 88 86 126.5t96 37t121 -26.5l67 -22q42 -14 70.5 -19t57 0.5t51 27.5
t43.5 62l36 -16l-10 -20q-27 -59 -56 -97t-55.5 -57t-58.5 -23t-60 1t-65 18z" />
    <glyph glyph-name="itilde" unicode="&#x129;" horiz-adv-x="489" 
d="M205 1257l-33 17q-65 32 -102.5 17t-77.5 -89l-35 17l10 22q43 88 83.5 129.5t82.5 42.5t92 -22l54 -25q3 -1 9 -4q65 -32 93 -30q49 3 98 90l4 8l35 -15l-10 -20q-22 -48 -43.5 -82t-40.5 -55t-41.5 -31t-40.5 -12.5t-43.5 4.5t-44 15t-49.5 23zM31 0v35l143 28v736
l-137 61v14l289 103v-914l143 -28v-35h-438z" />
    <glyph glyph-name="Imacron" unicode="&#x12a;" horiz-adv-x="634" 
d="M51 0v41l178 29v1220l-178 33v37h533v-37l-178 -33v-1220l178 -29v-41h-533zM72 1556v99h501v-99h-501z" />
    <glyph glyph-name="imacron" unicode="&#x12b;" horiz-adv-x="489" 
d="M31 0v35l143 28v736l-137 61v14l289 103v-914l143 -28v-35h-438zM37 1264v98h442v-98h-442z" />
    <glyph glyph-name="Ibreve" unicode="&#x12c;" horiz-adv-x="634" 
d="M51 0v41l178 29v1220l-178 33v37h533v-37l-178 -33v-1220l178 -29v-41h-533zM311 1495q-62 0 -107.5 22.5t-70 61.5t-36 82.5t-13.5 95.5h35q20 -70 70.5 -114t129.5 -44q161 0 207 158h35q-3 -50 -15 -92t-38.5 -82.5t-76.5 -64t-120 -23.5z" />
    <glyph glyph-name="ibreve" unicode="&#x12d;" horiz-adv-x="489" 
d="M31 0v35l143 28v736l-137 61v14l289 103v-914l143 -28v-35h-438zM264 1147q-107 0 -169 83t-68 240h39q29 -110 78.5 -157t121.5 -47q146 0 201 204h39q-8 -154 -69 -238.5t-173 -84.5z" />
    <glyph glyph-name="Iogonek" unicode="&#x12e;" horiz-adv-x="634" 
d="M51 0v41l178 29v1220l-178 33v37h533v-37l-178 -33v-1220l178 -29v-41h-254q-63 -123 -82 -178t-19 -107q0 -54 28 -87.5t79 -33.5q45 0 86 24.5t92 84.5l27 -18q-28 -41 -48.5 -67t-56 -61.5t-76 -54t-84.5 -18.5q-85 0 -134.5 48.5t-49.5 121.5q0 48 27.5 108t58 103.5
t98.5 134.5h-225z" />
    <glyph glyph-name="iogonek" unicode="&#x12f;" horiz-adv-x="489" 
d="M31 0v35l143 28v736l-137 61v14l289 103v-914l143 -28v-35h-197q-62 -122 -81 -177t-19 -108q0 -54 28 -87.5t79 -33.5q45 0 86 24.5t92 84.5l26 -18q-23 -33 -37.5 -52.5t-43 -51.5t-53 -50t-59.5 -32.5t-71 -14.5q-85 0 -134.5 48.5t-49.5 121.5q0 48 27.5 108
t58 103.5t98.5 134.5h-188zM242 1212q-44 0 -76.5 32.5t-32.5 76.5t32.5 76.5t76.5 32.5t76 -32.5t32 -76.5t-32 -76.5t-76 -32.5z" />
    <glyph glyph-name="Idotaccent" unicode="&#x130;" horiz-adv-x="634" 
d="M51 0v41l178 29v1220l-178 33v37h533v-37l-178 -33v-1220l178 -29v-41h-533zM322 1540q-44 0 -76.5 32.5t-32.5 76.5t32.5 76t76.5 32t76 -32t32 -76t-32 -76.5t-76 -32.5z" />
    <glyph glyph-name="dotlessi" unicode="&#x131;" horiz-adv-x="489" 
d="M31 0v35l143 28v736l-137 61v14l289 103v-914l143 -28v-35h-438z" />
    <glyph glyph-name="IJ" unicode="&#x132;" horiz-adv-x="1232" 
d="M51 0v41l178 29v1220l-178 33v37h533v-37l-178 -33v-1220l178 -29v-41h-533zM1018 1292v-1204q0 -91 -11 -159t-40.5 -131t-79.5 -109t-128 -83.5t-186 -64.5l-12 43q152 68 216.5 169.5t64.5 281.5v1257l-178 33v35h532v-35z" />
    <glyph glyph-name="ij" unicode="&#x133;" horiz-adv-x="958" 
d="M31 0v35l143 28v736l-137 61v14l289 103v-914l143 -28v-35h-438zM242 1212q-44 0 -76.5 32.5t-32.5 76.5t32.5 76.5t76.5 32.5t76 -32.5t32 -76.5t-32 -76.5t-76 -32.5zM463 -489l-14 28q86 62 125 113t58.5 130t26.5 228v789l-137 61v14l289 103v-928q0 -125 -12 -205.5
t-51 -142.5q-38 -58 -97.5 -95t-187.5 -95zM727 1212q-44 0 -76.5 32.5t-32.5 76.5t32.5 76.5t76.5 32.5t76.5 -32.5t32.5 -76.5t-32.5 -76.5t-76.5 -32.5z" />
    <glyph glyph-name="Jcircumflex" unicode="&#x134;" horiz-adv-x="620" 
d="M406 1292v-1204q0 -91 -11 -159t-40.5 -131t-79.5 -109t-128 -83.5t-186 -64.5l-12 43q152 68 216 169.5t64 281.5v1257l-178 33v35h533v-35zM96 1491h-59l233 256h111l213 -256h-66l-209 162z" />
    <glyph glyph-name="jcircumflex" unicode="&#x135;" horiz-adv-x="475" 
d="M-23 -489l-14 28q86 62 125.5 113t59 130t26.5 228v789l-137 61v14l289 103v-928q0 -124 -12.5 -205t-51.5 -143q-38 -58 -97.5 -95t-187.5 -95zM72 1114h-47l186 426h82l188 -426h-53l-180 301z" />
    <glyph glyph-name="Kcommaaccent" unicode="&#x136;" horiz-adv-x="1300" 
d="M51 0v39l178 29v1224l-178 33v35h535v-35l-180 -33v-1224l180 -29v-39h-535zM1008 0l-578 705v6l571 573l-188 41v35h428v-35l-145 -37l-512 -512l587 -708l152 -29v-39h-315zM555 -522l-6 35q188 43 188 147q0 43 -34 68t-91 28v8q6 47 35 76t80 29q58 0 99.5 -41.5
t41.5 -103.5q0 -97 -76 -161t-237 -85z" />
    <glyph glyph-name="kcommaaccent" unicode="&#x137;" horiz-adv-x="958" 
d="M154 63v1293l-134 65v15l285 92v-1465l156 -28v-35h-430v35zM860 -29q-53 0 -91 25t-87 84l-365 430l428 364l-153 35v39h358v-39l-121 -35l-372 -311l495 -555q-2 -4 -7.5 -10t-29 -16.5t-55.5 -10.5zM356 -522l-6 35q189 44 189 147q0 43 -34 68t-91 28v8
q6 48 34.5 76.5t79.5 28.5q58 0 100 -41.5t42 -103.5q0 -97 -76.5 -161t-237.5 -85z" />
    <glyph glyph-name="kgreenlandic" unicode="&#x138;" horiz-adv-x="978" 
d="M31 0v35l143 28v736l-137 61v14l289 97v-908l137 -28v-35h-432zM881 -29q-53 0 -91.5 25t-87.5 84l-364 430l428 364l-154 35v39h359v-39l-121 -35l-373 -311l496 -555q-2 -4 -7.5 -10t-29 -16.5t-55.5 -10.5z" />
    <glyph glyph-name="Lacute" unicode="&#x139;" horiz-adv-x="1169" 
d="M461 1772h160v-13l-269 -268h-55zM406 102q32 -40 92 -45h426l190 385h35l-92 -442h-1006v39l178 29v1224l-178 31v37h567v-37l-212 -27v-1194z" />
    <glyph glyph-name="lacute" unicode="&#x13a;" horiz-adv-x="454" 
d="M375 1853h160v-12l-269 -268h-55zM31 0v35l123 28v1293l-129 65v15l280 92v-1465l129 -28v-35h-403z" />
    <glyph glyph-name="Lcommaaccent" unicode="&#x13b;" horiz-adv-x="1169" 
d="M430 -522l-6 35q188 43 188 147q0 43 -34 68t-91 28v8q6 47 35 76t80 29q58 0 99.5 -41.5t41.5 -103.5q0 -97 -76 -161t-237 -85zM406 102q32 -40 92 -45h426l190 385h35l-92 -442h-1006v39l178 29v1224l-178 31v37h567v-37l-212 -27v-1194z" />
    <glyph glyph-name="lcommaaccent" unicode="&#x13c;" horiz-adv-x="454" 
d="M86 -522l-6 35q188 43 188 147q0 43 -34 68t-91 28v8q6 47 35 76t80 29q58 0 99.5 -41.5t41.5 -103.5q0 -97 -76 -161t-237 -85zM31 0v35l123 28v1293l-129 65v15l280 92v-1465l129 -28v-35h-403z" />
    <glyph glyph-name="Lcaron" unicode="&#x13d;" horiz-adv-x="1169" 
d="M840 1090h-33l33 411h147v-14zM406 102q32 -40 92 -45h426l190 385h35l-92 -442h-1006v39l178 29v1224l-178 31v37h567v-37l-212 -27v-1194z" />
    <glyph glyph-name="lcaron" unicode="&#x13e;" horiz-adv-x="454" 
d="M444 1090h-32l32 411h148v-14zM31 0v35l123 28v1293l-129 65v15l280 92v-1465l129 -28v-35h-403z" />
    <glyph glyph-name="Ldot" unicode="&#x13f;" horiz-adv-x="1169" 
d="M989 641q-47 0 -79.5 33t-32.5 80t32.5 79.5t79.5 32.5t80 -32.5t33 -79.5t-33 -80t-80 -33zM406 104q31 -39 92 -47h432l174 353h39l-86 -410h-1006v39l178 29v1224l-178 31v37h567v-37l-212 -27v-1192z" />
    <glyph glyph-name="ldot" unicode="&#x140;" horiz-adv-x="581" 
d="M520 651q-43 0 -72.5 30t-29.5 73t29.5 72.5t72.5 29.5t73 -29.5t30 -72.5t-30 -73t-73 -30zM31 0v35l123 28v1293l-129 65v15l280 92v-1465l129 -28v-35h-403z" />
    <glyph glyph-name="Lslash" unicode="&#x141;" horiz-adv-x="1169" 
d="M53 553v55l176 47v637l-178 31v37h567v-37l-212 -27v-594l458 123v-53l-458 -125v-545q32 -40 92 -45h426l190 385h35l-92 -442h-1006v35l178 33v532z" />
    <glyph glyph-name="lslash" unicode="&#x142;" horiz-adv-x="454" 
d="M-10 590v61l164 99v606l-134 65v15l285 92v-688l178 108v-61l-178 -109v-715l129 -28v-35h-403v35l123 28v625z" />
    <glyph glyph-name="Nacute" unicode="&#x143;" horiz-adv-x="1454" 
d="M1253 -12h-34l-922 1194v-1100l229 -39v-43h-475v41l178 45v1147q-59 63 -147 82l-31 8v37h322l805 -1043v961l-213 39v43h458v-41l-178 -45v-1010zM879 1772h159v-13l-268 -268h-55z" />
    <glyph glyph-name="nacute" unicode="&#x144;" horiz-adv-x="1095" 
d="M31 0v35l143 28v736l-137 61v14l272 97h6l7 -185h2q191 191 360 191q132 0 197 -77t65 -257v-580l129 -28v-35h-405v35l125 28v580q-2 98 -51 162.5t-140 64.5q-22 0 -45 -4t-41 -9t-40 -15.5t-35.5 -17.5t-35 -21t-29.5 -20t-28.5 -21t-23.5 -17v-682l137 -28v-35h-432z
M631 1540h141v-14l-207 -412h-43z" />
    <glyph glyph-name="Ncommaaccent" unicode="&#x145;" horiz-adv-x="1454" 
d="M1253 -12h-34l-922 1194v-1100l229 -39v-43h-475v41l178 45v1147q-59 63 -147 82l-31 8v37h322l805 -1043v961l-213 39v43h458v-41l-178 -45v-1010zM588 -522l-6 35q188 43 188 147q0 43 -34 68t-91 28v8q6 47 35 76t80 29q58 0 99.5 -41.5t41.5 -103.5q0 -97 -76 -161
t-237 -85z" />
    <glyph glyph-name="ncommaaccent" unicode="&#x146;" horiz-adv-x="1095" 
d="M31 0v35l143 28v736l-137 61v14l272 97h6l7 -185h2q191 191 360 191q132 0 197 -77t65 -257v-580l129 -28v-35h-405v35l125 28v580q-2 98 -51 162.5t-140 64.5q-22 0 -45 -4t-41 -9t-40 -15.5t-35.5 -17.5t-35 -21t-29.5 -20t-28.5 -21t-23.5 -17v-682l137 -28v-35h-432z
M371 -522l-6 35q188 43 188 147q0 43 -34 68t-91 28v8q6 47 35 76t80 29q58 0 99.5 -41.5t41.5 -103.5q0 -97 -76 -161t-237 -85z" />
    <glyph glyph-name="Ncaron" unicode="&#x147;" horiz-adv-x="1454" 
d="M1253 -12h-34l-922 1194v-1100l229 -39v-43h-475v41l178 45v1147q-59 63 -147 82l-31 8v37h322l805 -1043v961l-213 39v43h458v-41l-178 -45v-1010zM989 1747h60l-234 -256h-110l-213 256h65l207 -162z" />
    <glyph glyph-name="ncaron" unicode="&#x148;" horiz-adv-x="1095" 
d="M31 0v35l143 28v736l-137 61v14l272 97h6l7 -185h2q191 191 360 191q132 0 197 -77t65 -257v-580l129 -28v-35h-405v35l125 28v580q-2 98 -51 162.5t-140 64.5q-22 0 -45 -4t-41 -9t-40 -15.5t-35.5 -17.5t-35 -21t-29.5 -20t-28.5 -21t-23.5 -17v-682l137 -28v-35h-432z
M754 1540h47l-207 -426h-82l-209 426h53l199 -295z" />
    <glyph glyph-name="napostrophe" unicode="&#x149;" horiz-adv-x="1095" 
d="M31 0v35l143 28v736l-137 61v14l272 97h6l7 -185h2q191 191 360 191q132 0 197 -77t65 -257v-580l129 -28v-35h-405v35l125 28v580q-2 98 -51 162.5t-140 64.5q-22 0 -45 -4t-41 -9t-40 -15.5t-35.5 -17.5t-35 -21t-29.5 -20t-28.5 -21t-23.5 -17v-682l137 -28v-35h-432z
M-80 1124l-6 35q188 43 188 148q0 43 -34 68t-91 28v8q6 47 35 76t80 29q58 0 99.5 -42t41.5 -104q0 -97 -76 -161t-237 -85z" />
    <glyph glyph-name="Eng" unicode="&#x14a;" horiz-adv-x="1460" 
d="M1423 1319l-178 -45v-1186q0 -122 -19.5 -205.5t-70 -151t-136 -112t-218.5 -78.5l-10 43q198 65 285 176.5t87 274.5v24l-866 1123v-1100l229 -39v-43h-475v41l178 45v1147q-60 62 -145 82l-33 8v37h322l805 -1043v961l-213 39v43h458v-41z" />
    <glyph glyph-name="eng" unicode="&#x14b;" horiz-adv-x="1093" 
d="M795 10v633q-2 98 -51 162.5t-140 64.5q-22 0 -45 -4t-41 -9t-40 -15.5t-35.5 -17.5t-35 -21t-29.5 -20t-28.5 -21t-23.5 -17v-682l137 -28v-35h-432v35l143 28v736l-137 61v14l272 97h6l7 -185h2q191 191 360 191q132 0 197 -77t65 -257v-594q0 -232 -74 -346
q-40 -62 -101 -104t-173 -88l-14 28q84 56 128 113.5t63.5 140.5t19.5 217z" />
    <glyph glyph-name="Omacron" unicode="&#x14c;" horiz-adv-x="1595" 
d="M528 1556v99h566v-99h-566zM817 8q104 0 189.5 37t142.5 99t95.5 146t55.5 174.5t17 188.5q0 139 -41 266.5t-112.5 222.5t-174.5 151.5t-221 56.5q-101 0 -184.5 -38t-139 -100.5t-93.5 -147t-55 -174.5t-17 -185q0 -134 40 -260.5t109.5 -223t171 -155t217.5 -58.5z
M795 1403q202 0 366.5 -93t258 -256t93.5 -362q0 -132 -40 -250t-109.5 -205.5t-160 -152t-194.5 -97t-210 -32.5q-140 0 -270 52t-229 143.5t-158.5 226.5t-59.5 291q0 163 62 304t163.5 233.5t228.5 145t259 52.5z" />
    <glyph glyph-name="omacron" unicode="&#x14d;" horiz-adv-x="1099" 
d="M254 1264v98h565v-98h-565zM522 924q-131 0 -208.5 -116t-77.5 -294q0 -136 44.5 -248.5t121.5 -176.5t171 -64q131 0 210 117t79 294q0 136 -44 248t-122 176t-174 64zM547 -29q-131 0 -238 59t-172 173.5t-65 263.5q0 116 42 214.5t111 162t154.5 98.5t173.5 35
q207 0 341 -139t134 -355q0 -94 -27.5 -177t-74.5 -143.5t-108.5 -104.5t-131 -65.5t-139.5 -21.5z" />
    <glyph glyph-name="Obreve" unicode="&#x14e;" horiz-adv-x="1595" 
d="M809 1495q-62 0 -107.5 22.5t-70 61.5t-36 82.5t-13.5 95.5h34q20 -70 71 -114t130 -44q161 0 207 158h35q-3 -50 -15 -92t-38.5 -82.5t-76.5 -64t-120 -23.5zM817 8q104 0 189.5 37t142.5 99t95.5 146t55.5 174.5t17 188.5q0 139 -41 266.5t-112.5 222.5t-174.5 151.5
t-221 56.5q-101 0 -184.5 -38t-139 -100.5t-93.5 -147t-55 -174.5t-17 -185q0 -134 40 -260.5t109.5 -223t171 -155t217.5 -58.5zM795 1403q202 0 366.5 -93t258 -256t93.5 -362q0 -132 -40 -250t-109.5 -205.5t-160 -152t-194.5 -97t-210 -32.5q-140 0 -270 52t-229 143.5
t-158.5 226.5t-59.5 291q0 163 62 304t163.5 233.5t228.5 145t259 52.5z" />
    <glyph glyph-name="obreve" unicode="&#x14f;" horiz-adv-x="1099" 
d="M522 924q-131 0 -208.5 -116t-77.5 -294q0 -136 44.5 -248.5t121.5 -176.5t171 -64q131 0 210 117t79 294q0 136 -44 248t-122 176t-174 64zM547 -29q-131 0 -238 59t-172 173.5t-65 263.5q0 116 42 214.5t111 162t154.5 98.5t173.5 35q207 0 341 -139t134 -355
q0 -94 -27.5 -177t-74.5 -143.5t-108.5 -104.5t-131 -65.5t-139.5 -21.5zM535 1147q-107 0 -169.5 83t-68.5 240h39q29 -110 79 -157t122 -47q70 0 120.5 47.5t79.5 156.5h39q-8 -154 -68.5 -238.5t-172.5 -84.5z" />
    <glyph glyph-name="Ohungarumlaut" unicode="&#x150;" horiz-adv-x="1595" 
d="M778 1772h135v-15l-215 -266h-55zM1061 1772h137v-15l-215 -266h-57zM817 8q104 0 189.5 37t142.5 99t95.5 146t55.5 174.5t17 188.5q0 139 -41 266.5t-112.5 222.5t-174.5 151.5t-221 56.5q-101 0 -184.5 -38t-139 -100.5t-93.5 -147t-55 -174.5t-17 -185
q0 -134 40 -260.5t109.5 -223t171 -155t217.5 -58.5zM795 1403q202 0 366.5 -93t258 -256t93.5 -362q0 -132 -40 -250t-109.5 -205.5t-160 -152t-194.5 -97t-210 -32.5q-140 0 -270 52t-229 143.5t-158.5 226.5t-59.5 291q0 163 62 304t163.5 233.5t228.5 145t259 52.5z" />
    <glyph glyph-name="ohungarumlaut" unicode="&#x151;" horiz-adv-x="1099" 
d="M483 1540h131v-14l-192 -412h-43zM745 1540h132v-14l-193 -412h-43zM522 924q-131 0 -208.5 -116t-77.5 -294q0 -136 44.5 -248.5t121.5 -176.5t171 -64q131 0 210 117t79 294q0 136 -44 248t-122 176t-174 64zM547 -29q-131 0 -238 59t-172 173.5t-65 263.5
q0 116 42 214.5t111 162t154.5 98.5t173.5 35q207 0 341 -139t134 -355q0 -94 -27.5 -177t-74.5 -143.5t-108.5 -104.5t-131 -65.5t-139.5 -21.5z" />
    <glyph glyph-name="OE" unicode="&#x152;" horiz-adv-x="2037" 
d="M1423 1360h330l135 10v-387h-37l-96 322h-516v-564h299l64 220h34v-490h-34l-64 207h-299v-578q28 -39 92 -45h404l186 340h39l-88 -395h-623q-89 0 -211 -7t-233 -7q-169 0 -306 51t-228 142t-140 216.5t-49 274.5q0 216 98.5 376t272 243t399.5 83q58 0 216 -6t355 -6z
M805 37q147 0 204.5 50t57.5 192v1007q-3 1 -33.5 7.5t-44 9t-42.5 7t-58.5 6t-63.5 1.5q-241 0 -392.5 -164t-151.5 -446q0 -93 18 -184.5t58.5 -180t99.5 -156t149 -108.5t199 -41z" />
    <glyph glyph-name="oe" unicode="&#x153;" horiz-adv-x="1748" 
d="M1286 -29q-128 0 -216 63.5t-134 168.5q-64 -110 -170.5 -171t-218.5 -61q-131 0 -238 59t-172 173.5t-65 263.5q0 116 42 214.5t111 162t154.5 98.5t173.5 35q134 0 239.5 -66.5t161.5 -181.5q60 113 157 180.5t210 67.5q153 0 247 -99t111 -288h-661q-2 -18 -2 -58
q0 -202 88.5 -316t245.5 -114q167 0 315 164l29 -20q-71 -105 -111 -147q-122 -128 -297 -128zM522 924q-131 0 -208.5 -116t-77.5 -294q0 -136 44.5 -248.5t121.5 -176.5t171 -64q131 0 210 117t79 294q0 136 -44 248t-122 176t-174 64zM1266 911q-91 0 -155.5 -74
t-86.5 -196h475q-30 138 -81 204t-152 66z" />
    <glyph glyph-name="Racute" unicode="&#x154;" horiz-adv-x="1284" 
d="M51 0v39l178 29v1224l-178 33v35l428 6q293 4 443.5 -83.5t150.5 -248.5q0 -124 -82.5 -200.5t-238.5 -131.5v-6l397 -618l156 -39v-39h-322l-321 516l-74 121h-182v-569l172 -33v-35h-527zM406 1323v-627h174q134 17 216.5 100.5t82.5 192.5q0 167 -126 252t-347 82z
M731 1772h160v-13l-268 -268h-56z" />
    <glyph glyph-name="racute" unicode="&#x155;" horiz-adv-x="688" 
d="M451 1540h141v-14l-207 -412h-43zM31 0v35l143 28v736l-137 61v14l272 97h6l4 -277h7l22 45q66 132 120 183t116 51q39 0 65.5 -24t26.5 -62q0 -50 -49 -99l-138 43q-46 -26 -91.5 -89t-71.5 -138v-541l161 -28v-35h-456z" />
    <glyph glyph-name="Rcommaaccent" unicode="&#x156;" horiz-adv-x="1284" 
d="M51 0v39l178 29v1224l-178 33v35l428 6q293 4 443.5 -83.5t150.5 -248.5q0 -124 -82.5 -200.5t-238.5 -131.5v-6l397 -618l156 -39v-39h-322l-321 516l-74 121h-182v-569l172 -33v-35h-527zM406 1323v-627h174q134 17 216.5 100.5t82.5 192.5q0 167 -126 252t-347 82z
M514 -522l-6 35q188 43 188 147q0 43 -34 68t-91 28v8q6 47 35 76t80 29q58 0 99.5 -41.5t41.5 -103.5q0 -97 -76 -161t-237 -85z" />
    <glyph glyph-name="rcommaaccent" unicode="&#x157;" horiz-adv-x="688" 
d="M74 -522l-6 35q188 43 188 147q0 43 -34 68t-91 28v8q6 47 35 76t80 29q58 0 99.5 -41.5t41.5 -103.5q0 -97 -76 -161t-237 -85zM31 0v35l143 28v736l-137 61v14l272 97h6l4 -277h7l22 45q66 132 120 183t116 51q39 0 65.5 -24t26.5 -62q0 -50 -49 -99l-138 43
q-46 -26 -91.5 -89t-71.5 -138v-541l161 -28v-35h-456z" />
    <glyph glyph-name="Rcaron" unicode="&#x158;" horiz-adv-x="1284" 
d="M51 0v39l178 29v1224l-178 33v35l428 6q293 4 443.5 -83.5t150.5 -248.5q0 -124 -82.5 -200.5t-238.5 -131.5v-6l397 -618l156 -39v-39h-322l-321 516l-74 121h-182v-569l172 -33v-35h-527zM406 1323v-627h174q134 17 216.5 100.5t82.5 192.5q0 167 -126 252t-347 82z
M842 1747h59l-233 -256h-111l-213 256h66l206 -162z" />
    <glyph glyph-name="rcaron" unicode="&#x159;" horiz-adv-x="688" 
d="M31 0v35l143 28v736l-137 61v14l272 97h6l4 -277h7l22 45q66 132 120 183t116 51q39 0 65.5 -24t26.5 -62q0 -50 -49 -99l-138 43q-46 -26 -91.5 -89t-71.5 -138v-541l161 -28v-35h-456zM588 1540h47l-207 -426h-82l-209 426h53l199 -295z" />
    <glyph glyph-name="Sacute" unicode="&#x15a;" horiz-adv-x="1028" 
d="M96 47l-14 369h35l121 -332q101 -68 241 -68q141 0 229.5 78t88.5 209q0 94 -56.5 164t-208.5 137l-102 45q-170 74 -244.5 158.5t-74.5 216.5q0 164 134.5 270.5t325.5 106.5q58 0 122.5 -15t100 -28t91.5 -37l18 -338h-29l-118 297q-40 24 -63 36t-64 24t-84 12
q-114 0 -189 -76.5t-75 -179.5q0 -98 49.5 -159t175.5 -120l153 -69q167 -74 239.5 -156.5t72.5 -210.5q0 -124 -75 -222t-189 -148t-240 -50q-77 0 -152 15t-117.5 30t-101.5 41zM639 1772h160v-13l-269 -268h-55z" />
    <glyph glyph-name="sacute" unicode="&#x15b;" horiz-adv-x="804" 
d="M514 1540h141v-14l-206 -412h-43zM360 -29q-75 0 -145 21t-115 47l-14 299h35l98 -258q57 -57 166 -57q91 0 148 54.5t57 133.5q0 69 -41 112.5t-135 77.5l-97 35q-107 38 -157.5 100t-50.5 164q0 124 101 200.5t247 76.5q112 0 233 -66v-256h-35l-82 215q-66 58 -141 58
q-82 0 -132 -52t-50 -122q0 -69 40 -110.5t132 -76.5l86 -32q125 -48 180 -109t55 -143q0 -91 -56.5 -164t-143.5 -110.5t-183 -37.5z" />
    <glyph glyph-name="Scircumflex" unicode="&#x15c;" horiz-adv-x="1028" 
d="M96 47l-14 369h35l121 -332q101 -68 241 -68q141 0 229.5 78t88.5 209q0 94 -56.5 164t-208.5 137l-102 45q-170 74 -244.5 158.5t-74.5 216.5q0 164 134.5 270.5t325.5 106.5q58 0 122.5 -15t100 -28t91.5 -37l18 -338h-29l-118 297q-40 24 -63 36t-64 24t-84 12
q-114 0 -189 -76.5t-75 -179.5q0 -98 49.5 -159t175.5 -120l153 -69q167 -74 239.5 -156.5t72.5 -210.5q0 -124 -75 -222t-189 -148t-240 -50q-77 0 -152 15t-117.5 30t-101.5 41zM336 1491h-60l234 256h111l213 -256h-66l-209 162z" />
    <glyph glyph-name="scircumflex" unicode="&#x15d;" horiz-adv-x="804" 
d="M360 -29q-75 0 -145 21t-115 47l-14 299h35l98 -258q57 -57 166 -57q91 0 148 54.5t57 133.5q0 69 -41 112.5t-135 77.5l-97 35q-107 38 -157.5 100t-50.5 164q0 124 101 200.5t247 76.5q112 0 233 -66v-256h-35l-82 215q-66 58 -141 58q-82 0 -132 -52t-50 -122
q0 -69 40 -110.5t132 -76.5l86 -32q125 -48 180 -109t55 -143q0 -91 -56.5 -164t-143.5 -110.5t-183 -37.5zM225 1114h-47l207 426h82l209 -426h-53l-201 305z" />
    <glyph glyph-name="Scedilla" unicode="&#x15e;" horiz-adv-x="1028" 
d="M307 -524l-10 30q94 35 137 75.5t43 94.5q0 98 -112 129l92 156q-172 2 -361 86l-14 369h35l121 -332q101 -68 241 -68q141 0 229.5 78t88.5 209q0 94 -56.5 164t-208.5 137l-102 45q-170 74 -244.5 158.5t-74.5 216.5q0 164 134.5 270.5t325.5 106.5q58 0 122.5 -15
t100 -28t91.5 -37l18 -338h-29l-118 297q-40 24 -63 36t-64 24t-84 12q-114 0 -189 -76.5t-75 -179.5q0 -98 49.5 -159t175.5 -120l153 -69q167 -74 239.5 -156.5t72.5 -210.5q0 -116 -66.5 -210t-168.5 -146t-220 -62l-43 -74q145 -38 145 -159q0 -48 -21.5 -88t-53 -66
t-76 -47.5t-81.5 -32.5t-79 -20z" />
    <glyph glyph-name="scedilla" unicode="&#x15f;" horiz-adv-x="804" 
d="M207 -512l-10 31q94 35 137 75.5t43 94.5q0 98 -113 129l90 153q-75 1 -144 21.5t-110 46.5l-14 299h35l98 -258q57 -57 166 -57q91 0 148 54.5t57 133.5q0 69 -41 112.5t-135 77.5l-97 35q-107 38 -157.5 100t-50.5 164q0 124 101 200.5t247 76.5q112 0 233 -66v-256
h-35l-82 215q-66 58 -141 58q-82 0 -132 -52t-50 -122q0 -69 40 -110.5t132 -76.5l86 -32q125 -48 180 -109t55 -143q0 -124 -96 -208t-231 -100l-43 -73q145 -38 145 -160q0 -48 -21.5 -88t-53 -66t-76 -47.5t-81.5 -32.5t-79 -20z" />
    <glyph glyph-name="Scaron" unicode="&#x160;" horiz-adv-x="1028" 
d="M96 47l-14 369h35l121 -332q101 -68 241 -68q141 0 229.5 78t88.5 209q0 94 -56.5 164t-208.5 137l-102 45q-170 74 -244.5 158.5t-74.5 216.5q0 164 134.5 270.5t325.5 106.5q58 0 122.5 -15t100 -28t91.5 -37l18 -338h-29l-118 297q-40 24 -63 36t-64 24t-84 12
q-114 0 -189 -76.5t-75 -179.5q0 -98 49.5 -159t175.5 -120l153 -69q167 -74 239.5 -156.5t72.5 -210.5q0 -124 -75 -222t-189 -148t-240 -50q-77 0 -152 15t-117.5 30t-101.5 41zM788 1747h60l-234 -256h-110l-213 256h65l207 -162z" />
    <glyph glyph-name="scaron" unicode="&#x161;" horiz-adv-x="804" 
d="M360 -29q-75 0 -145 21t-115 47l-14 299h35l98 -258q57 -57 166 -57q91 0 148 54.5t57 133.5q0 69 -41 112.5t-135 77.5l-97 35q-107 38 -157.5 100t-50.5 164q0 124 101 200.5t247 76.5q112 0 233 -66v-256h-35l-82 215q-66 58 -141 58q-82 0 -132 -52t-50 -122
q0 -69 40 -110.5t132 -76.5l86 -32q125 -48 180 -109t55 -143q0 -91 -56.5 -164t-143.5 -110.5t-183 -37.5zM635 1540h47l-207 -426h-82l-209 426h54l198 -295z" />
    <glyph glyph-name="Tcommaaccent" unicode="&#x162;" horiz-adv-x="1183" 
d="M147 1360h883l103 16l14 -403h-37l-102 330h-328v-1237l178 -29v-37h-532v37l178 29v1237h-328l-102 -330h-37l14 401zM418 -522l-6 35q188 43 188 147q0 43 -34 68t-91 28v8q6 47 35 76t80 29q58 0 99.5 -41.5t41.5 -103.5q0 -97 -76 -161t-237 -85z" />
    <glyph glyph-name="tcommaaccent" unicode="&#x163;" horiz-adv-x="630" 
d="M365 -18q-109 0 -160 48.5t-51 162.5l4 677h-160v39l164 43l104 256h41v-260h295v-78h-295v-667q9 -133 152 -133q64 0 162 34l8 -22q-115 -100 -264 -100zM178 -522l-6 35q188 43 188 147q0 43 -33.5 68t-90.5 28v8q6 48 34.5 76.5t79.5 28.5q58 0 100 -41.5t42 -103.5
q0 -97 -76.5 -161t-237.5 -85z" />
    <glyph glyph-name="Tcaron" unicode="&#x164;" horiz-adv-x="1183" 
d="M147 1360h883l103 16l14 -403h-37l-102 330h-328v-1237l178 -29v-37h-532v37l178 29v1237h-328l-102 -330h-37l14 401zM827 1747h60l-234 -256h-110l-213 256h65l207 -162z" />
    <glyph glyph-name="tcaron" unicode="&#x165;" horiz-adv-x="630" 
d="M365 -18q-109 0 -160 48.5t-51 162.5l4 677h-160v39l164 43l104 256h41v-260h295v-78h-295v-667q9 -133 152 -133q64 0 162 34l8 -22q-115 -100 -264 -100zM498 1090h-33l33 411h147v-14z" />
    <glyph glyph-name="Tbar" unicode="&#x166;" horiz-adv-x="1183" 
d="M139 713v49h365v541h-328l-102 -330h-37l14 401l96 -14h883l103 16l14 -403h-37l-102 330h-328v-541h364v-49h-364v-647l178 -29v-37h-532v37l178 29v647h-365z" />
    <glyph glyph-name="tbar" unicode="&#x167;" horiz-adv-x="630" 
d="M14 565v72h142l2 233h-160v39l164 43l104 256h41v-260h295v-78h-295v-233h295v-72h-295v-362q9 -133 152 -133q64 0 162 34l8 -22q-115 -100 -264 -100q-109 0 -160 48.5t-51 162.5l2 372h-142z" />
    <glyph glyph-name="Utilde" unicode="&#x168;" horiz-adv-x="1449" 
d="M719 -49q-520 0 -520 571v768l-168 35v35h522v-35l-176 -35v-723q0 -532 377 -532q107 0 186 32.5t128 94.5t76 143.5t36 188.5v786l-201 43v37h440v-37l-166 -43v-754q0 -143 -41.5 -254.5t-115 -180.5t-169 -104.5t-208.5 -35.5zM799 1532l-60 20q-37 13 -49.5 17
t-38.5 11.5t-34 7t-25.5 -1t-25 -7t-20.5 -17t-22.5 -26t-21.5 -37.5l-37 19l10 22q42 88 86 126.5t96 37t121 -26.5l68 -22q42 -14 70 -19t56.5 0.5t51 27.5t43.5 62l37 -16l-10 -20q-27 -59 -56 -97t-55.5 -57t-58.5 -23t-60 1t-65 18z" />
    <glyph glyph-name="utilde" unicode="&#x169;" horiz-adv-x="1079" 
d="M776 -18l-16 174q-153 -185 -336 -185q-74 0 -130 25.5t-88 71t-47.5 101.5t-15.5 122v555l-133 39v26l285 54v-627q0 -133 57.5 -193.5t157.5 -60.5q53 0 106 21t80 40t62 48v653l-158 39v26l309 54v-877l142 -41v-27zM565 1235l-59 20q-36 12 -49 16.5t-39 11.5
t-34.5 7t-26 -0.5t-25 -7t-20.5 -17t-22.5 -26t-21.5 -37.5l-37 19l11 22q42 88 86 126.5t96 37t121 -26.5l67 -22q42 -14 70.5 -19t57 1t51 28t43.5 62l36 -17l-10 -20q-27 -59 -56 -97t-55.5 -57t-58.5 -23t-60 1t-65 18z" />
    <glyph glyph-name="Umacron" unicode="&#x16a;" horiz-adv-x="1449" 
d="M719 -49q-520 0 -520 571v768l-168 35v35h522v-35l-176 -35v-723q0 -532 377 -532q107 0 186 32.5t128 94.5t76 143.5t36 188.5v786l-201 43v37h440v-37l-166 -43v-754q0 -143 -41.5 -254.5t-115 -180.5t-169 -104.5t-208.5 -35.5zM467 1556v99h565v-99h-565z" />
    <glyph glyph-name="umacron" unicode="&#x16b;" horiz-adv-x="1079" 
d="M776 -18l-16 174q-153 -185 -336 -185q-74 0 -130 25.5t-88 71t-47.5 101.5t-15.5 122v555l-133 39v26l285 54v-627q0 -133 57.5 -193.5t157.5 -60.5q53 0 106 21t80 40t62 48v653l-158 39v26l309 54v-877l142 -41v-27zM252 1264v98h565v-98h-565z" />
    <glyph glyph-name="Ubreve" unicode="&#x16c;" horiz-adv-x="1449" 
d="M719 -49q-520 0 -520 571v768l-168 35v35h522v-35l-176 -35v-723q0 -532 377 -532q107 0 186 32.5t128 94.5t76 143.5t36 188.5v786l-201 43v37h440v-37l-166 -43v-754q0 -143 -41.5 -254.5t-115 -180.5t-169 -104.5t-208.5 -35.5zM752 1495q-62 0 -108 22.5t-70.5 61.5
t-36 82.5t-13.5 95.5h35q20 -70 71 -114t130 -44q161 0 207 158h34q-3 -50 -15 -92t-38 -82.5t-76 -64t-120 -23.5z" />
    <glyph glyph-name="ubreve" unicode="&#x16d;" horiz-adv-x="1079" 
d="M776 -18l-16 174q-153 -185 -336 -185q-74 0 -130 25.5t-88 71t-47.5 101.5t-15.5 122v555l-133 39v26l285 54v-627q0 -133 57.5 -193.5t157.5 -60.5q53 0 106 21t80 40t62 48v653l-158 39v26l309 54v-877l142 -41v-27zM532 1147q-107 0 -169 83t-68 240h39
q29 -110 79 -157t122 -47q70 0 120.5 47.5t79.5 156.5h39q-8 -154 -69 -238.5t-173 -84.5z" />
    <glyph glyph-name="Uring" unicode="&#x16e;" horiz-adv-x="1449" 
d="M719 -49q-520 0 -520 571v768l-168 35v35h522v-35l-176 -35v-723q0 -532 377 -532q107 0 186 32.5t128 94.5t76 143.5t36 188.5v786l-201 43v37h440v-37l-166 -43v-754q0 -143 -41.5 -254.5t-115 -180.5t-169 -104.5t-208.5 -35.5zM561 1663q0 87 58.5 143t144.5 56
q89 0 147 -55.5t58 -143.5q0 -87 -58.5 -144t-144.5 -57q-89 0 -147 56t-58 145zM625 1663q0 -62 40.5 -104.5t98.5 -42.5q59 0 101 42.5t42 104.5t-41.5 104.5t-99.5 42.5q-59 0 -100 -42t-41 -105z" />
    <glyph glyph-name="uring" unicode="&#x16f;" horiz-adv-x="1079" 
d="M776 -18l-16 174q-153 -185 -336 -185q-74 0 -130 25.5t-88 71t-47.5 101.5t-15.5 122v555l-133 39v26l285 54v-627q0 -133 57.5 -193.5t157.5 -60.5q53 0 106 21t80 40t62 48v653l-158 39v26l309 54v-877l142 -41v-27zM328 1343q0 87 58 143t144 56q89 0 147 -55.5
t58 -143.5q0 -87 -58.5 -143.5t-144.5 -56.5q-89 0 -146.5 56t-57.5 144zM391 1343q0 -62 40.5 -104.5t98.5 -42.5q59 0 101.5 42.5t42.5 104.5t-42 105t-100 43q-59 0 -100 -42.5t-41 -105.5z" />
    <glyph glyph-name="Uhungarumlaut" unicode="&#x170;" horiz-adv-x="1449" 
d="M707 1772h135v-15l-215 -266h-56zM989 1772h137v-15l-215 -266h-57zM719 -49q-520 0 -520 571v768l-168 35v35h522v-35l-176 -35v-723q0 -532 377 -532q107 0 186 32.5t128 94.5t76 143.5t36 188.5v786l-201 43v37h440v-37l-166 -43v-754q0 -143 -41.5 -254.5
t-115 -180.5t-169 -104.5t-208.5 -35.5z" />
    <glyph glyph-name="uhungarumlaut" unicode="&#x171;" horiz-adv-x="1079" 
d="M776 -18l-16 174q-153 -185 -336 -185q-74 0 -130 25.5t-88 71t-47.5 101.5t-15.5 122v555l-133 39v26l285 54v-627q0 -133 57.5 -193.5t157.5 -60.5q53 0 106 21t80 40t62 48v653l-158 39v26l309 54v-877l142 -41v-27zM737 1540h131v-14l-192 -412h-43zM475 1540h131
v-14l-192 -412h-43z" />
    <glyph glyph-name="Uogonek" unicode="&#x172;" horiz-adv-x="1449" 
d="M719 -49q-520 0 -520 571v768l-168 35v35h522v-35l-176 -35v-723q0 -532 377 -532q107 0 186 32.5t128 94.5t76 143.5t36 188.5v786l-201 43v37h440v-37l-166 -43v-754q0 -127 -32.5 -228.5t-91.5 -170.5t-136.5 -111t-171.5 -57q-89 -92 -126.5 -148.5t-37.5 -109.5
q0 -44 28.5 -75.5t78.5 -31.5q45 0 86 24.5t92 84.5l27 -18q-22 -33 -37 -53t-44.5 -51.5t-56 -50t-64 -32.5t-77.5 -14q-76 0 -124 48t-48 120q0 29 6 53.5t23.5 51t31.5 44.5t49.5 48.5t57 47t72.5 56.5q-14 -2 -39 -2z" />
    <glyph glyph-name="uogonek" unicode="&#x173;" horiz-adv-x="1079" 
d="M424 -29q-74 0 -130 25.5t-88 71t-47.5 101.5t-15.5 122v555l-133 39v26l285 54v-627q0 -133 57.5 -193.5t157.5 -60.5q53 0 106 21t80 40t62 48v653l-158 39v26l309 54v-877l142 -41v-27l-215 -30q-107 -109 -151 -171t-44 -118q0 -44 28.5 -75.5t78.5 -31.5
q45 0 86 24.5t92 84.5l26 -18q-23 -33 -37.5 -52.5t-43.5 -51.5t-55.5 -50t-64 -32.5t-77.5 -14.5q-76 0 -124 48t-48 120q0 43 14 78.5t51.5 74.5t71.5 67.5t105 82.5q25 19 38 29l-6 -2l-16 174q-153 -185 -336 -185z" />
    <glyph glyph-name="Wcircumflex" unicode="&#x174;" horiz-adv-x="1789" 
d="M1223 -12l-322 968l-336 -968h-71l-412 1302l-133 33v37h473v-37l-158 -33l322 -1052l284 811l-79 241l-142 33v37h469v-37l-153 -33l348 -1050l307 1044l-154 39v37h375v-37l-135 -39l-410 -1296h-73zM678 1491h-60l234 256h111l213 -256h-66l-209 162z" />
    <glyph glyph-name="wcircumflex" unicode="&#x175;" horiz-adv-x="1429" 
d="M793 969l235 -725l27 -86h4q4 16 20 71l187 648l-156 41v30h338v-33l-121 -41l-280 -907h-89l-229 701l-22 82h-5q-10 -43 -22 -82l-221 -701h-84l-277 914l-116 37v30h413v-30l-137 -41l193 -637l18 -74h4q7 31 21 74l231 729h68zM559 1114h-47l207 426h82l209 -426h-54
l-200 305z" />
    <glyph glyph-name="Ycircumflex" unicode="&#x176;" horiz-adv-x="1173" 
d="M1075 1284l-399 -641v-573l188 -29v-41h-553v41l189 29v548l-402 672l-133 33v37h486v-37l-152 -33l342 -596h2l352 588l-161 41v37h374v-37zM406 1491h-60l234 256h110l213 -256h-65l-209 162z" />
    <glyph glyph-name="ycircumflex" unicode="&#x177;" horiz-adv-x="927" 
d="M762 877l-156 41v30h340v-33l-117 -38l-448 -1252q-25 -69 -60.5 -107t-95.5 -38q-46 0 -76 28.5t-30 71.5t27.5 70.5t70.5 27.5q61 0 96 -71h4l125 334l-346 940l-114 37v30h421v-30l-135 -39l248 -717h4zM319 1114h-47l207 426h82l209 -426h-53l-201 305z" />
    <glyph glyph-name="Ydieresis" unicode="&#x178;" horiz-adv-x="1173" 
d="M1075 1284l-399 -641v-573l188 -29v-41h-553v41l189 29v548l-402 672l-133 33v37h486v-37l-152 -33l342 -596h2l352 588l-161 41v37h374v-37zM430 1552q-39 0 -66.5 28.5t-27.5 68.5t27.5 69t66.5 29q41 0 69.5 -29t28.5 -69t-28.5 -68.5t-69.5 -28.5zM825 1552
q-40 0 -68 28.5t-28 68.5t28 69t68 29t68.5 -29t28.5 -69t-28.5 -68.5t-68.5 -28.5z" />
    <glyph glyph-name="Zacute" unicode="&#x179;" horiz-adv-x="1271" 
d="M53 0v25l858 1278h-673l-109 -342h-33v413l131 -14h920v-8l-871 -1295h732l190 385h37l-92 -442h-1090zM729 1772h160v-13l-268 -268h-56z" />
    <glyph glyph-name="zacute" unicode="&#x17a;" horiz-adv-x="892" 
d="M670 0h-609v33l557 860h-387l-106 -248h-29v313l150 -10h573v-10l-571 -883h414l137 279h30l-43 -346zM543 1540h141v-14l-207 -412h-43z" />
    <glyph glyph-name="Zdotaccent" unicode="&#x17b;" horiz-adv-x="1271" 
d="M53 0v25l858 1278h-673l-109 -342h-33v413l131 -14h920v-8l-871 -1295h732l190 385h37l-92 -442h-1090zM639 1540q-44 0 -76.5 32.5t-32.5 76.5t32.5 76t76.5 32t76.5 -32t32.5 -76t-32.5 -76.5t-76.5 -32.5z" />
    <glyph glyph-name="zdotaccent" unicode="&#x17c;" horiz-adv-x="892" 
d="M670 0h-609v33l557 860h-387l-106 -248h-29v313l150 -10h573v-10l-571 -883h414l137 279h30l-43 -346zM461 1212q-44 0 -76.5 32.5t-32.5 76.5t32.5 76.5t76.5 32.5t76 -32.5t32 -76.5t-32 -76.5t-76 -32.5z" />
    <glyph glyph-name="Zcaron" unicode="&#x17d;" horiz-adv-x="1271" 
d="M53 0v25l858 1278h-673l-109 -342h-33v413l131 -14h920v-8l-871 -1295h732l190 385h37l-92 -442h-1090zM858 1747h60l-234 -256h-111l-213 256h66l207 -162z" />
    <glyph glyph-name="zcaron" unicode="&#x17e;" horiz-adv-x="892" 
d="M670 0h-609v33l557 860h-387l-106 -248h-29v313l150 -10h573v-10l-571 -883h414l137 279h30l-43 -346zM674 1540h47l-207 -426h-82l-209 426h53l199 -295z" />
    <glyph glyph-name="florin" unicode="&#x192;" horiz-adv-x="886" 
d="M86 569l12 62h187q66 260 213.5 430t320.5 170q59 0 95 -33.5t36 -69.5q0 -27 -17 -60t-44 -58q-54 67 -96.5 102t-83.5 35q-37 0 -65.5 -16t-62 -63t-65.5 -146t-63 -250l-9 -41h275l-14 -62h-275l-113 -553q-22 -108 -60.5 -206t-92 -178.5t-125.5 -128.5t-152 -48
q-50 0 -98.5 30.5t-48.5 84.5q0 50 61 104q88 -149 166 -149q53 0 88.5 81.5t73.5 262.5l143 700h-186z" />
    <glyph glyph-name="Aringacute" unicode="&#x1fa;" horiz-adv-x="1294" 
d="M-49 0v39l158 35l466 1296l60 12l74 17l479 -1333l155 -31v-35h-505v39l163 27l-147 421h-520l-139 -409l241 -39v-39h-485zM588 1235l-228 -670h465l-233 670h-4zM451 1634q0 87 58 143t144 56q89 0 147 -55.5t58 -143.5q0 -87 -58.5 -143.5t-144.5 -56.5
q-89 0 -146.5 56t-57.5 144zM514 1634q0 -62 40.5 -104.5t98.5 -42.5q59 0 101.5 42.5t42.5 104.5t-42 105t-100 43q-59 0 -100 -42.5t-41 -105.5zM799 2163h159v-13l-268 -268h-55z" />
    <glyph glyph-name="aringacute" unicode="&#x1fb;" horiz-adv-x="921" 
d="M309 -29q-41 0 -80.5 12.5t-76 38t-58.5 72.5t-22 109q0 112 79.5 176t243.5 108l215 60v96q0 131 -55.5 203t-146.5 72q-86 0 -140 -50l-10 -192q-31 -17 -72 -17q-40 0 -65 22t-25 58q0 77 115.5 157.5t265.5 80.5t217.5 -71t67.5 -210v-575q0 -33 12.5 -48.5
t50.5 -15.5h103v-26q-107 -56 -185 -56q-74 0 -105 37.5t-30 124.5h-4q-79 -84 -146 -125t-149 -41zM252 1313q0 87 58.5 142.5t144.5 55.5q89 0 146.5 -55t57.5 -143q0 -87 -58 -144t-144 -57q-89 0 -147 56t-58 145zM403 78q112 0 207 127v301l-233 -82
q-80 -28 -112 -71.5t-32 -104.5q0 -70 42.5 -120t127.5 -50zM315 1313q0 -62 41 -105t99 -43q59 0 101 43t42 105t-41.5 104.5t-99.5 42.5q-59 0 -100.5 -42.5t-41.5 -104.5zM600 1907h160v-13l-268 -268h-56z" />
    <glyph glyph-name="AEacute" unicode="&#x1fc;" horiz-adv-x="1859" 
d="M1360 655h-299v-553q29 -39 92 -47h403l187 340h39l-88 -395h-987v35l178 33v587h-393l-316 -579l230 -41v-35h-457v35l135 41l702 1214l-188 35v35h979l133 10v-387h-37l-96 322h-516v-588h299l63 219h35v-487h-35zM885 1305h-23l-336 -588h359v588zM1198 1772h160v-13
l-268 -268h-56z" />
    <glyph glyph-name="aeacute" unicode="&#x1fd;" horiz-adv-x="1452" 
d="M309 -29q-41 0 -80.5 12.5t-76 38.5t-58.5 73t-22 108q0 29 7 54t17 45t30.5 38.5t38 32t49 28t54.5 24t63.5 21.5t66.5 19.5t73 19.5l141 37v195q-16 85 -69.5 143t-134.5 58q-86 0 -140 -50l-10 -194q-34 -15 -72 -15q-41 0 -65.5 22t-24.5 58q0 77 115.5 157.5
t265.5 80.5q101 0 163 -39.5t95 -120.5q38 72 114.5 116t174.5 44q152 0 238.5 -88.5t111.5 -231.5l-612 -149v-141q6 -117 86.5 -191t204.5 -74q167 0 315 164l29 -20q-71 -105 -111 -147q-122 -128 -297 -128q-118 0 -209.5 55t-134.5 152l-21 -21q-57 -57 -84 -82
t-68 -54.5t-78.5 -39.5t-84.5 -10zM612 338v139l-159 -45q-130 -37 -175 -79.5t-45 -104.5q0 -70 42.5 -120t127.5 -50q67 0 127 50.5t88 127.5q-6 40 -6 82zM762 686v-131l436 111q-29 119 -80 182t-143 63q-90 0 -146 -64.5t-67 -160.5zM836 1540h141v-14l-207 -412h-43z
" />
    <glyph glyph-name="Oslashacute" unicode="&#x1fe;" horiz-adv-x="1595" 
d="M150 -74l167 213q-110 97 -172.5 232.5t-62.5 296.5q0 163 62 304t163.5 233.5t228.5 145t259 52.5q227 0 413 -127l138 176h71l-164 -209q121 -99 190.5 -242.5t69.5 -308.5q0 -132 -40 -250t-109.5 -205.5t-160 -152t-194.5 -97t-210 -32.5q-240 0 -439 147l-137 -176
h-73zM817 8q104 0 189.5 37t142.5 99t95.5 146t55.5 174.5t17 188.5q0 136 -39.5 261t-110.5 221l-727 -930q72 -93 169 -145t208 -52zM279 705q0 -253 127 -451l724 926q-154 170 -362 170q-101 0 -184.5 -38t-139 -100.5t-93.5 -147t-55 -174.5t-17 -185zM928 1772h159
v-13l-268 -268h-55z" />
    <glyph glyph-name="oslashacute" unicode="&#x1ff;" horiz-adv-x="1099" 
d="M154 -102h-70l145 196q-157 141 -157 373q0 116 42 214.5t111 162t154.5 98.5t173.5 35q147 0 266 -82l131 176h72l-158 -211q77 -68 120.5 -166t43.5 -211q0 -94 -27.5 -177t-74.5 -143.5t-108.5 -104.5t-131 -65.5t-139.5 -21.5q-153 0 -275 86zM862 446q0 181 -74 310
l-450 -609q92 -122 235 -122q131 0 210 118t79 303zM522 924q-131 0 -208.5 -117t-77.5 -301q0 -183 69 -309l449 608q-95 119 -232 119zM616 1540h142v-14l-207 -412h-43z" />
    <glyph glyph-name="Scommaaccent" unicode="&#x218;" horiz-adv-x="1028" 
d="M96 47l-14 369h35l121 -332q101 -68 241 -68q141 0 229.5 78t88.5 209q0 94 -56.5 164t-208.5 137l-102 45q-170 74 -244.5 158.5t-74.5 216.5q0 164 134.5 270.5t325.5 106.5q58 0 122.5 -15t100 -28t91.5 -37l18 -338h-29l-118 297q-40 24 -63 36t-64 24t-84 12
q-114 0 -189 -76.5t-75 -179.5q0 -98 49.5 -159t175.5 -120l153 -69q167 -74 239.5 -156.5t72.5 -210.5q0 -124 -75 -222t-189 -148t-240 -50q-77 0 -152 15t-117.5 30t-101.5 41zM311 -522l-6 35q189 44 189 147q0 43 -34 68t-91 28v8q6 48 34.5 76.5t79.5 28.5
q58 0 100 -41.5t42 -103.5q0 -97 -76.5 -161t-237.5 -85z" />
    <glyph glyph-name="scommaaccent" unicode="&#x219;" horiz-adv-x="804" 
d="M213 -522l-6 35q188 43 188 147q0 43 -34 68t-91 28v8q6 47 35 76t80 29q58 0 99.5 -41.5t41.5 -103.5q0 -97 -76 -161t-237 -85zM360 -29q-75 0 -145 21t-115 47l-14 299h35l98 -258q57 -57 166 -57q91 0 148 54.5t57 133.5q0 69 -41 112.5t-135 77.5l-97 35
q-107 38 -157.5 100t-50.5 164q0 124 101 200.5t247 76.5q112 0 233 -66v-256h-35l-82 215q-66 58 -141 58q-82 0 -132 -52t-50 -122q0 -69 40 -110.5t132 -76.5l86 -32q125 -48 180 -109t55 -143q0 -91 -56.5 -164t-143.5 -110.5t-183 -37.5z" />
    <glyph glyph-name="uni021A" unicode="&#x21a;" horiz-adv-x="1183" 
d="M147 1360h883l103 16l14 -403h-37l-102 330h-328v-1237l178 -29v-37h-532v37l178 29v1237h-328l-102 -330h-37l14 401zM418 -522l-6 35q188 43 188 147q0 43 -34 68t-91 28v8q6 47 35 76t80 29q58 0 99.5 -41.5t41.5 -103.5q0 -97 -76 -161t-237 -85z" />
    <glyph glyph-name="uni021B" unicode="&#x21b;" horiz-adv-x="630" 
d="M365 -18q-109 0 -160 48.5t-51 162.5l4 677h-160v39l164 43l104 256h41v-260h295v-78h-295v-667q9 -133 152 -133q64 0 162 34l8 -22q-115 -100 -264 -100zM178 -522l-6 35q188 43 188 147q0 43 -33.5 68t-90.5 28v8q6 48 34.5 76.5t79.5 28.5q58 0 100 -41.5t42 -103.5
q0 -97 -76.5 -161t-237.5 -85z" />
    <glyph glyph-name="uni0237" unicode="&#x237;" horiz-adv-x="475" 
d="M-23 -489l-14 28q86 62 125.5 113t59 130t26.5 228v789l-137 61v14l289 103v-928q0 -124 -12.5 -205t-51.5 -143q-38 -58 -97.5 -95t-187.5 -95z" />
    <glyph glyph-name="circumflex" unicode="&#x2c6;" horiz-adv-x="460" 
d="M31 1114h-47l206 426h82l209 -426h-53l-201 305z" />
    <glyph glyph-name="caron" unicode="&#x2c7;" horiz-adv-x="460" 
d="M434 1540h47l-207 -426h-81l-209 426h53l199 -295z" />
    <glyph glyph-name="breve" unicode="&#x2d8;" horiz-adv-x="798" 
d="M395 1147q-107 0 -169 83t-68 240h39q29 -110 78.5 -157t121.5 -47q146 0 201 204h39q-8 -154 -69 -238.5t-173 -84.5z" />
    <glyph glyph-name="dotaccent" unicode="&#x2d9;" horiz-adv-x="460" 
d="M233 1212q-44 0 -76 32.5t-32 76.5t32 76.5t76 32.5t76.5 -32.5t32.5 -76.5t-32.5 -76.5t-76.5 -32.5z" />
    <glyph glyph-name="ring" unicode="&#x2da;" horiz-adv-x="460" 
d="M25 1343q0 87 58 143t144 56q89 0 147 -55.5t58 -143.5q0 -87 -58.5 -143.5t-144.5 -56.5q-89 0 -146.5 56t-57.5 144zM88 1343q0 -62 40.5 -104.5t98.5 -42.5q59 0 101.5 42.5t42.5 104.5t-42 105t-100 43q-59 0 -100 -42.5t-41 -105.5z" />
    <glyph glyph-name="ogonek" unicode="&#x2db;" horiz-adv-x="798" 
d="M479 0h41q-114 -115 -159.5 -178t-45.5 -121q0 -44 28.5 -75.5t78.5 -31.5q45 0 86 24.5t92 84.5l27 -18q-22 -33 -37 -53t-44.5 -51.5t-56 -50t-64 -32.5t-77.5 -14q-76 0 -124 48t-48 120q0 24 6 47t13 41t27 41t32 37t45 41.5t50 40.5t62.5 48t67.5 52z" />
    <glyph glyph-name="tilde" unicode="&#x2dc;" horiz-adv-x="460" 
d="M246 1235l-60 20q-37 13 -49.5 17t-38.5 11.5t-34 7t-25.5 -1t-25 -7t-20.5 -17t-22.5 -26t-21.5 -37.5l-37 19l10 22q42 88 86 126.5t96 37t121 -26.5l68 -22q42 -14 70.5 -19t56.5 1t50.5 28t43.5 62l37 -17l-10 -20q-27 -59 -56 -97t-55.5 -57t-58.5 -23t-60 1t-65 18
z" />
    <glyph glyph-name="hungarumlaut" unicode="&#x2dd;" horiz-adv-x="798" 
d="M252 1540h131v-14l-193 -412h-43zM514 1540h131v-14l-192 -412h-43z" />
    <glyph glyph-name="Wgrave" unicode="&#x1e80;" horiz-adv-x="1789" 
d="M1223 -12l-322 968l-336 -968h-71l-412 1302l-133 33v37h473v-37l-158 -33l322 -1052l284 811l-79 241l-142 33v37h469v-37l-153 -33l348 -1050l307 1044l-154 39v37h375v-37l-135 -39l-410 -1296h-73zM610 1772h160l164 -281h-55l-269 268v13z" />
    <glyph glyph-name="wgrave" unicode="&#x1e81;" horiz-adv-x="1429" 
d="M793 969l235 -725l27 -86h4q4 16 20 71l187 648l-156 41v30h338v-33l-121 -41l-280 -907h-89l-229 701l-22 82h-5q-10 -43 -22 -82l-221 -701h-84l-277 914l-116 37v30h413v-30l-137 -41l193 -637l18 -74h4q7 31 21 74l231 729h68zM528 1540h142l108 -426h-43l-207 412
v14z" />
    <glyph glyph-name="Wacute" unicode="&#x1e82;" horiz-adv-x="1789" 
d="M1223 -12l-322 968l-336 -968h-71l-412 1302l-133 33v37h473v-37l-158 -33l322 -1052l284 811l-79 241l-142 33v37h469v-37l-153 -33l348 -1050l307 1044l-154 39v37h375v-37l-135 -39l-410 -1296h-73zM1028 1772h160v-13l-268 -268h-56z" />
    <glyph glyph-name="wacute" unicode="&#x1e83;" horiz-adv-x="1429" 
d="M856 1540h141v-14l-206 -412h-43zM793 969l235 -725l27 -86h4q4 16 20 71l187 648l-156 41v30h338v-33l-121 -41l-280 -907h-89l-229 701l-22 82h-5q-10 -43 -22 -82l-221 -701h-84l-277 914l-116 37v30h413v-30l-137 -41l193 -637l18 -74h4q7 31 21 74l231 729h68z" />
    <glyph glyph-name="Wdieresis" unicode="&#x1e84;" horiz-adv-x="1789" 
d="M1223 -12l-322 968l-336 -968h-71l-412 1302l-133 33v37h473v-37l-158 -33l322 -1052l284 811l-79 241l-142 33v37h469v-37l-153 -33l348 -1050l307 1044l-154 39v37h375v-37l-135 -39l-410 -1296h-73zM698 1552q-39 0 -66.5 28.5t-27.5 68.5t27.5 69t66.5 29
q41 0 70 -29t29 -69t-29 -68.5t-70 -28.5zM1094 1552q-40 0 -68.5 28.5t-28.5 68.5t28.5 69t68.5 29t68 -29t28 -69t-28 -68.5t-68 -28.5z" />
    <glyph glyph-name="wdieresis" unicode="&#x1e85;" horiz-adv-x="1429" 
d="M598 1225q-40 0 -67 28t-27 68t27.5 69t66.5 29q41 0 69.5 -29t28.5 -69t-28.5 -68t-69.5 -28zM909 1225q-40 0 -68 28t-28 68t28 69t68 29t68.5 -29t28.5 -69t-28.5 -68t-68.5 -28zM793 969l235 -725l27 -86h4q4 16 20 71l187 648l-156 41v30h338v-33l-121 -41
l-280 -907h-89l-229 701l-22 82h-5q-10 -43 -22 -82l-221 -701h-84l-277 914l-116 37v30h413v-30l-137 -41l193 -637l18 -74h4q7 31 21 74l231 729h68z" />
    <glyph glyph-name="Ygrave" unicode="&#x1ef2;" horiz-adv-x="1173" 
d="M1075 1284l-399 -641v-573l188 -29v-41h-553v41l189 29v548l-402 672l-133 33v37h486v-37l-152 -33l342 -596h2l352 588l-161 41v37h374v-37zM371 1772h159l164 -281h-55l-268 268v13z" />
    <glyph glyph-name="ygrave" unicode="&#x1ef3;" horiz-adv-x="927" 
d="M762 877l-156 41v30h340v-33l-117 -38l-448 -1252q-25 -69 -60.5 -107t-95.5 -38q-46 0 -76 28.5t-30 71.5t27.5 70.5t70.5 27.5q61 0 96 -71h4l125 334l-346 940l-114 37v30h421v-30l-135 -39l248 -717h4zM303 1540h141l109 -426h-43l-207 412v14z" />
    <glyph glyph-name="uni2009" unicode="&#x2009;" horiz-adv-x="102" 
 />
    <glyph glyph-name="endash" unicode="&#x2013;" horiz-adv-x="962" 
d="M72 508v70h819v-70h-819z" />
    <glyph glyph-name="emdash" unicode="&#x2014;" horiz-adv-x="1781" 
d="M72 508v70h1638v-70h-1638z" />
    <glyph glyph-name="quoteleft" unicode="&#x2018;" horiz-adv-x="442" 
d="M360 1505l13 -30q-91 -44 -126.5 -93.5t-35.5 -109.5q0 -57 37 -95.5t98 -50.5q4 -53 -24 -82.5t-74 -29.5q-64 0 -109 51t-45 129q0 107 72 190.5t194 120.5z" />
    <glyph glyph-name="quoteright" unicode="&#x2019;" horiz-adv-x="442" 
d="M84 1008l-12 30q90 44 125.5 93.5t35.5 109.5q0 57 -37 95t-98 50q-4 53 24.5 83t74.5 30q64 0 108.5 -51t44.5 -129q0 -107 -72 -190.5t-194 -120.5z" />
    <glyph glyph-name="quotesinglbase" unicode="&#x201a;" horiz-adv-x="442" 
d="M84 -211l-12 31q90 44 125.5 93.5t35.5 109.5q0 57 -37 95t-98 50q-4 53 24.5 83t74.5 30q64 0 108.5 -51.5t44.5 -129.5q0 -107 -72 -190.5t-194 -120.5z" />
    <glyph glyph-name="quotedblleft" unicode="&#x201c;" horiz-adv-x="788" 
d="M360 1505l13 -30q-91 -44 -126.5 -93.5t-35.5 -109.5q0 -57 37 -95.5t98 -50.5q4 -53 -24 -82.5t-74 -29.5q-64 0 -109 51t-45 129q0 107 72 190.5t194 120.5zM707 1505l12 -30q-91 -44 -126.5 -93.5t-35.5 -109.5q0 -57 37 -95.5t98 -50.5q4 -53 -24 -82.5t-74 -29.5
q-64 0 -109 51t-45 129q0 107 72.5 190.5t194.5 120.5z" />
    <glyph glyph-name="quotedblright" unicode="&#x201d;" horiz-adv-x="790" 
d="M84 1008l-12 30q90 44 125.5 93.5t35.5 109.5q0 57 -37 95t-98 50q-4 53 24.5 83t74.5 30q64 0 108.5 -51t44.5 -129q0 -107 -72 -190.5t-194 -120.5zM430 1008l-12 30q91 44 126.5 93.5t35.5 109.5q0 57 -37.5 95t-98.5 50q-4 53 24.5 83t74.5 30q64 0 108.5 -51
t44.5 -129q0 -107 -72 -190.5t-194 -120.5z" />
    <glyph glyph-name="quotedblbase" unicode="&#x201e;" horiz-adv-x="794" 
d="M84 -211l-12 31q90 44 125.5 93.5t35.5 109.5q0 57 -37 95t-98 50q-4 53 24.5 83t74.5 30q64 0 108.5 -51.5t44.5 -129.5q0 -107 -72 -190.5t-194 -120.5zM434 -211l-12 31q91 44 126.5 93.5t35.5 109.5q0 57 -37 95t-98 50q-4 53 24 83t74 30q64 0 108.5 -51.5
t44.5 -129.5q0 -107 -72 -190.5t-194 -120.5z" />
    <glyph glyph-name="dagger" unicode="&#x2020;" horiz-adv-x="606" 
d="M61 1219v79l213 -14l-16 215h90l-16 -215l213 14v-79l-215 12l18 -529h-90l16 529z" />
    <glyph glyph-name="daggerdbl" unicode="&#x2021;" horiz-adv-x="606" 
d="M61 1219v79l209 -14l-10 215h86l-12 -215l211 14v-79l-213 12v-238l213 17v-82l-211 16l12 -231h-86l10 231l-209 -16v82l211 -17v238z" />
    <glyph glyph-name="bullet" unicode="&#x2022;" horiz-adv-x="602" 
d="M301 422q-54 0 -92.5 38.5t-38.5 92.5t38.5 92.5t92.5 38.5t92.5 -38.5t38.5 -92.5t-38.5 -92.5t-92.5 -38.5z" />
    <glyph glyph-name="ellipsis" unicode="&#x2026;" horiz-adv-x="1478" 
d="M246 -27q-51 0 -86 35t-35 86t35 86t86 35t86 -35t35 -86t-35 -86t-86 -35zM745 -27q-51 0 -85.5 35t-34.5 86t34.5 86t85.5 35t86 -35t35 -86t-35 -86t-86 -35zM1245 -27q-51 0 -86 35t-35 86t35 86t86 35t86 -35t35 -86t-35 -86t-86 -35z" />
    <glyph glyph-name="perthousand" unicode="&#x2030;" horiz-adv-x="2228" 
d="M262 -102l901 1392h74l-901 -1392h-74zM375 1192q-79 0 -121.5 -78.5t-42.5 -189.5q0 -138 48.5 -225t133.5 -87q76 0 118 77.5t42 191.5q0 148 -50 229.5t-128 81.5zM375 565q-126 0 -214.5 91t-88.5 233q0 147 95.5 248.5t219.5 101.5q93 0 164 -47t106 -119.5
t35 -157.5q0 -146 -93 -248t-224 -102zM1118 588q-79 0 -121.5 -79t-42.5 -190q0 -137 48.5 -224t134.5 -87q76 0 117.5 77t41.5 191q0 149 -50 230.5t-128 81.5zM1118 -39q-126 0 -214.5 91t-88.5 233q0 147 95.5 248.5t219.5 101.5q93 0 164 -47t106.5 -119.5t35.5 -157.5
q0 -146 -93.5 -248t-224.5 -102zM1839 588q-79 0 -121.5 -79t-42.5 -190q0 -137 48.5 -224t134.5 -87q76 0 117.5 77t41.5 191q0 149 -50 230.5t-128 81.5zM1839 -39q-126 0 -214.5 91t-88.5 233q0 147 95.5 248.5t219.5 101.5q93 0 164 -47t106.5 -119.5t35.5 -157.5
q0 -146 -93.5 -248t-224.5 -102z" />
    <glyph glyph-name="uni2032" unicode="&#x2032;" horiz-adv-x="329" 
d="M61 1065l76 461h162v-15l-190 -446h-48z" />
    <glyph glyph-name="uni2033" unicode="&#x2033;" horiz-adv-x="655" 
d="M61 1065l76 461h162v-15l-190 -446h-48zM387 1065l76 461h162v-15l-191 -446h-47z" />
    <glyph glyph-name="guilsinglleft" unicode="&#x2039;" horiz-adv-x="538" 
d="M395 784l31 -28l-236 -348l234 -318l-29 -31l-334 344v19z" />
    <glyph glyph-name="guilsinglright" unicode="&#x203a;" horiz-adv-x="540" 
d="M143 59l-30 29l235 348l-233 318l28 30l336 -344v-18z" />
    <glyph glyph-name="fraction" unicode="&#x2044;" horiz-adv-x="491" 
d="M-285 -164l-45 37l1104 1604l45 -33z" />
    <glyph glyph-name="Euro" unicode="&#x20ac;" horiz-adv-x="1179" 
d="M63 688l9 60h166q60 211 228 337.5t372 126.5q110 0 200 -56.5t90 -131.5q0 -64 -94 -98q-57 115 -126.5 172t-162.5 57q-132 0 -231.5 -111t-130.5 -296h522l-8 -60h-520q-4 -54 -4 -82q0 -52 6 -102h493l-8 -60h-477q35 -177 142 -283t268 -106q89 0 154 32.5t134 98.5
l25 -24q-39 -48 -74 -82t-81.5 -65.5t-103.5 -47.5t-124 -16q-119 0 -214 40t-156 110.5t-96.5 156t-47.5 186.5h-182l8 60h170v39q0 75 12 145h-158z" />
    <glyph glyph-name="trademark" unicode="&#x2122;" horiz-adv-x="1349" 
d="M594 809v27l70 14v469l-70 16v25h221l135 -365h6l140 365h209v-25l-70 -16v-469l74 -14v-27h-260v29l77 14v459h-6l-162 -412l-20 -68h-37l-20 60l-168 420h-6v-459l94 -18v-25h-207zM49 1360h483l9 -178h-23l-45 143h-127v-473l82 -16v-27h-274v27l82 16v473h-127
l-46 -143h-22z" />
    <glyph glyph-name="onethird" unicode="&#x2153;" horiz-adv-x="1497" 
d="M1147 20q85 0 135.5 42t50.5 120q0 82 -75.5 128t-215.5 46v39q127 23 186.5 73t59.5 107q0 48 -31.5 78.5t-85.5 30.5q-100 0 -198 -109l-35 23q48 79 111.5 124.5t160.5 45.5q106 0 154.5 -46.5t48.5 -107.5q0 -32 -11.5 -59t-26 -44.5t-45.5 -36.5t-49.5 -28.5
t-59.5 -27.5v-8q106 -6 170.5 -56.5t64.5 -132.5q0 -72 -49.5 -128.5t-119 -83.5t-140.5 -27q-109 0 -169 31.5t-60 76.5q0 60 79 70l64 -113q7 -9 32.5 -18t53.5 -9zM305 1378v-710l131 -19v-37h-389v35l135 19v612l-155 -6v35l270 71h8zM188 -164l-45 37l1104 1604l45 -33
z" />
    <glyph glyph-name="twothirds" unicode="&#x2154;" horiz-adv-x="1609" 
d="M1260 20q85 0 135.5 42t50.5 120q0 82 -75.5 128t-215.5 46v39q127 23 186.5 73t59.5 107q0 48 -31.5 78.5t-85.5 30.5q-101 0 -199 -109l-34 23q48 79 111.5 124.5t160.5 45.5q106 0 154.5 -46.5t48.5 -107.5q0 -27 -6.5 -49.5t-22.5 -41.5t-29 -31.5t-41.5 -28
t-43.5 -22.5t-50 -23v-8q106 -6 171 -56.5t65 -132.5q0 -72 -49.5 -128.5t-119 -83.5t-140.5 -27q-109 0 -169.5 31.5t-60.5 76.5q0 60 80 70l64 -113q7 -9 32.5 -18t53.5 -9zM268 807l-116 -98h432v-97h-541v45l160 152q4 4 30.5 28.5t36 34t34 35t36 40.5t29.5 41
t26.5 46.5t15.5 46t7 49.5q0 70 -44.5 112t-101.5 42q-64 0 -108 -26t-90 -89l-25 17q32 83 104 139.5t166 56.5q91 0 154.5 -60.5t63.5 -143.5q0 -50 -16.5 -94t-56.5 -91t-80.5 -85t-115.5 -101zM301 -164l-45 37l1104 1604l45 -33z" />
    <glyph glyph-name="oneeighth" unicode="&#x215b;" horiz-adv-x="1486" 
d="M895 174q0 72 49.5 117.5t134.5 75.5l-22 12q-64 34 -93.5 77t-29.5 103q0 80 74 142.5t178 62.5q97 0 166 -47.5t69 -118.5t-46.5 -114.5t-123.5 -75.5l45 -23q140 -70 140 -184q0 -99 -82 -160t-180 -61q-120 0 -199.5 52.5t-79.5 141.5zM305 1378v-710l131 -19v-37
h-389v35l135 19v612l-155 -6v35l270 71h8zM188 -164l-45 37l1104 1604l45 -33zM1219 293l-113 59q-56 -43 -75 -81t-19 -87q0 -59 44.5 -112.5t125.5 -53.5q71 0 109 35t38 90q0 50 -27.5 85.5t-82.5 64.5zM1040 602q0 -90 107 -143l72 -37q86 66 86 162q0 68 -39.5 105.5
t-94.5 37.5q-57 0 -94 -33t-37 -92z" />
    <glyph glyph-name="threeeighths" unicode="&#x215c;" horiz-adv-x="1484" 
d="M893 174q0 72 49.5 117.5t134.5 75.5l-22 12q-64 34 -93.5 77t-29.5 103q0 80 74 142.5t178 62.5q97 0 166 -47.5t69 -118.5t-46.5 -114.5t-123.5 -75.5l45 -23q140 -70 140 -184q0 -99 -82.5 -160t-180.5 -61q-120 0 -199 52.5t-79 141.5zM258 633q85 0 135.5 42
t50.5 120q0 82 -75 128t-215 46v39q127 23 186 73t59 107q0 48 -31 78t-85 30q-102 0 -199 -108l-35 22q48 79 112 124.5t161 45.5q106 0 154 -46t48 -107q0 -40 -14 -70t-46.5 -54.5t-57 -37.5t-74.5 -35v-8q106 -6 170.5 -56t64.5 -132q0 -72 -49.5 -128.5t-119 -84
t-140.5 -27.5q-109 0 -169 31.5t-60 76.5q0 60 80 70l63 -113q7 -9 32.5 -17.5t53.5 -8.5zM186 -164l-45 37l1104 1604l45 -33zM1217 293l-113 59q-56 -43 -75 -81t-19 -87q0 -59 44.5 -112.5t125.5 -53.5q71 0 109 35t38 90q0 50 -27.5 85.5t-82.5 64.5zM1038 602
q0 -90 107 -143l72 -37q86 66 86 162q0 68 -39.5 105.5t-94.5 37.5q-57 0 -94 -33t-37 -92z" />
    <glyph glyph-name="fiveeighths" unicode="&#x215d;" horiz-adv-x="1495" 
d="M903 174q0 72 49.5 117.5t134.5 75.5l-22 12q-64 34 -93.5 77t-29.5 103q0 80 74 142.5t178 62.5q97 0 166.5 -47.5t69.5 -118.5t-46.5 -114.5t-123.5 -75.5l45 -23q139 -69 139 -184q0 -99 -82 -160t-180 -61q-120 0 -199.5 52.5t-79.5 141.5zM535 1249h-394l-6 -194
q76 37 166 37q124 0 200.5 -61t76.5 -159q0 -66 -31 -120.5t-80 -88t-105.5 -51.5t-111.5 -18q-95 0 -159 36.5t-64 88.5q0 28 20 45.5t59 17.5l68 -125q32 -24 92 -24q82 0 137.5 52t55.5 128t-52.5 127t-148.5 51q-79 0 -156 -49h-18l18 418h433v-111zM197 -164l-45 37
l1103 1604l45 -33zM1227 293l-113 59q-56 -43 -75 -81t-19 -87q0 -59 44.5 -112.5t125.5 -53.5q71 0 109 35t38 90q0 50 -27.5 85.5t-82.5 64.5zM1049 602q0 -90 106 -143l72 -37q86 66 86 162q0 68 -39 105.5t-94 37.5q-57 0 -94 -33t-37 -92z" />
    <glyph glyph-name="seveneighths" unicode="&#x215e;" horiz-adv-x="1374" 
d="M782 174q0 127 185 193l-23 12q-64 34 -93.5 77t-29.5 103q0 80 74 142.5t178 62.5q97 0 166.5 -47.5t69.5 -118.5t-46.5 -114.5t-123.5 -75.5l45 -23q139 -69 139 -184q0 -99 -82 -160t-180 -61q-120 0 -199.5 52.5t-79.5 141.5zM76 -164l-45 37l1104 1604l45 -33z
M246 612h-99l357 637h-422v111h504v-21zM1106 293l-113 59q-56 -43 -75 -81t-19 -87q0 -59 44.5 -112.5t125.5 -53.5q71 0 109.5 35t38.5 90q0 50 -27.5 85.5t-83.5 64.5zM928 602q0 -90 106 -143l72 -37q86 66 86 162q0 68 -39 105.5t-94 37.5q-57 0 -94 -33t-37 -92z" />
    <glyph glyph-name="minus" unicode="&#x2212;" 
d="M1079 442h-970v72h970v-72z" />
    <glyph glyph-name="approxequal" unicode="&#x2248;" 
d="M178 547l-61 28q47 87 107 132t145 45q78 0 200 -39l101 -31q117 -35 182 -35q105 0 176 127l59 -31q-48 -83 -105.5 -127.5t-143.5 -44.5q-72 0 -201 37l-102 31q-122 37 -181 37q-98 0 -176 -129zM178 242l-61 28q47 87 107 131.5t145 44.5q81 0 200 -38l101 -31
q117 -35 182 -35q105 0 176 127l59 -31q-48 -83 -105.5 -127.5t-143.5 -44.5q-72 0 -201 37l-102 31q-122 37 -181 37q-98 0 -176 -129z" />
    <glyph glyph-name="notequal" unicode="&#x2260;" 
d="M356 43h-73l159 252h-333v72h380l138 217h-518v71h563l159 250h74l-160 -250h334v-71h-379l-139 -217h518v-72h-563z" />
    <glyph glyph-name="lessequal" unicode="&#x2264;" horiz-adv-x="1183" 
d="M1077 0h-966v72h966v-72zM1077 956l-848 -317l848 -317v-72l-968 358v66l968 358v-76z" />
    <glyph glyph-name="greaterequal" unicode="&#x2265;" horiz-adv-x="1183" 
d="M1077 0h-966v72h966v-72zM111 326l847 317l-847 318v71l968 -358v-66l-968 -358v76z" />
    <glyph glyph-name="uni24C5" unicode="&#x24c5;" horiz-adv-x="1574" 
d="M766 625q125 4 183.5 59.5t58.5 140.5q0 93 -71.5 145t-211.5 52v-688l158 -19v-34h-412v34l125 19v676l-125 16v33h299q193 1 287 -62.5t94 -162.5q0 -116 -107 -182.5t-278 -61.5v35zM82 664q0 194 94 356.5t255.5 256t354.5 93.5q192 0 354.5 -93.5t257.5 -256
t95 -356.5q0 -192 -95 -354t-257.5 -255.5t-354.5 -93.5q-143 0 -273.5 55.5t-225 149t-150 224t-55.5 274.5zM133 664q0 -180 87.5 -332.5t238 -241t327.5 -88.5t327.5 88.5t238.5 241t88 332.5q0 181 -88 334t-238.5 241t-327.5 88q-133 0 -253.5 -52t-208 -140.5
t-139.5 -211.5t-52 -259z" />
    <glyph glyph-name="space_uni0326" horiz-adv-x="798" 
d="M246 -522l-6 35q188 43 188 147q0 43 -34 68t-91 28v8q6 47 35 76t80 29q58 0 99.5 -41.5t41.5 -103.5q0 -97 -76 -161t-237 -85z" />
    <glyph glyph-name="caron.alt" horiz-adv-x="798" 
d="M352 1090h-33l33 411h148v-14z" />
    <glyph glyph-name="space_uni0326.alt" horiz-adv-x="798" 
d="M578 1593l6 -34q-189 -44 -189 -148q0 -43 34 -68t91 -28v-8q-6 -48 -34.5 -76.5t-79.5 -28.5q-59 0 -100.5 42t-41.5 110q0 86 83.5 152t230.5 87z" />
    <glyph glyph-name="grave.uc" horiz-adv-x="798" 
d="M176 1772h160l164 -281h-56l-268 268v13z" />
    <glyph glyph-name="dieresis.uc" horiz-adv-x="798" 
d="M201 1552q-40 0 -67.5 28.5t-27.5 68.5t28 69t67 29q41 0 69.5 -29t28.5 -69t-28.5 -68.5t-69.5 -28.5zM596 1552q-40 0 -68 28.5t-28 68.5t28 69t68 29t68 -29t28 -69t-28 -68.5t-68 -28.5z" />
    <glyph glyph-name="macron.uc" horiz-adv-x="798" 
d="M117 1556v99h565v-99h-565z" />
    <glyph glyph-name="acute.uc" horiz-adv-x="798" 
d="M455 1772h159v-13l-268 -268h-55z" />
    <glyph glyph-name="circumflex.uc" horiz-adv-x="798" 
d="M172 1491h-59l233 256h111l213 -256h-66l-209 162z" />
    <glyph glyph-name="caron.uc" horiz-adv-x="798" 
d="M618 1747h60l-234 -256h-110l-213 256h65l207 -162z" />
    <glyph glyph-name="breve.uc" horiz-adv-x="798" 
d="M387 1495q-62 0 -107.5 22.5t-70 61.5t-36 82.5t-13.5 95.5h35q20 -70 70.5 -114t129.5 -44q161 0 207 158h35q-3 -50 -15 -92t-38.5 -82.5t-76.5 -64t-120 -23.5z" />
    <glyph glyph-name="dotaccent.uc" horiz-adv-x="798" 
d="M399 1540q-44 0 -76 32.5t-32 76.5t32 76t76 32t76.5 -32t32.5 -76t-32.5 -76.5t-76.5 -32.5z" />
    <glyph glyph-name="ring.uc" horiz-adv-x="798" 
d="M197 1704q0 87 58 143t144 56q89 0 147 -55.5t58 -143.5q0 -87 -58.5 -144t-144.5 -57q-88 0 -146 56t-58 145zM260 1704q0 -62 40.5 -105t98.5 -43q59 0 101.5 43t42.5 105t-42 104.5t-100 42.5q-59 0 -100 -42t-41 -105z" />
    <glyph glyph-name="tilde.uc" horiz-adv-x="798" 
d="M428 1532l-59 20q-36 12 -49 16.5t-39 11.5t-34.5 7t-26 -0.5t-25 -7t-20.5 -17t-22.5 -26t-21.5 -37.5l-37 19l10 22q42 88 86 126.5t96.5 37t121.5 -26.5l67 -22q42 -14 70 -19t56.5 0.5t51 27.5t43.5 62l37 -16l-10 -20q-27 -59 -56 -97t-55.5 -57t-58.5 -23t-60 1
t-65 18z" />
    <glyph glyph-name="hungarumlaut.uc" horiz-adv-x="798" 
d="M307 1772h135v-15l-215 -266h-55zM590 1772h137v-15l-215 -266h-57z" />
    <glyph glyph-name="cedilla.uc" horiz-adv-x="485" 
d="M98 -524l-10 30q94 35 137 75.5t43 94.5q0 98 -112 129l120 203h58l-70 -119q146 -38 146 -159q0 -47 -21.5 -87.5t-53.5 -66.5t-76.5 -47.5t-81.5 -32.5t-79 -20z" />
    <glyph glyph-name="idotaccent" horiz-adv-x="489" 
d="M31 0v35l143 28v736l-137 61v14l289 103v-914l143 -28v-35h-438zM242 1212q-44 0 -76.5 32.5t-32.5 76.5t32.5 76.5t76.5 32.5t76 -32.5t32 -76.5t-32 -76.5t-76 -32.5z" />
    <glyph glyph-name="dollar.lin" horiz-adv-x="1019" 
d="M66 70l-15 362h33l115 -317q121 -88 270 -88v594l-59 16q-332 86 -332 362q0 104 55.5 192.5t144.5 141.5t191 66v213h59v-209q183 -3 334 -88l10 -334h-30l-117 299q-78 62 -197 68v-555l90 -25q330 -89 330 -352q0 -96 -40 -179t-103.5 -136.5t-134.5 -86.5t-142 -43
v-215h-59v211q-89 1 -172.5 19.5t-124 35.5t-106.5 48zM528 606v-575q105 18 178.5 99t73.5 196q0 108 -66 180t-186 100zM236 1075q0 -205 208 -260l25 -6v534q-101 -13 -167 -84t-66 -184z" />
    <glyph glyph-name="Euro.lin" horiz-adv-x="1230" 
d="M70 782l6 60h143q53 255 227 408t392 153q125 0 215 -58t90 -135q0 -68 -101 -102q-52 108 -124.5 166.5t-159.5 58.5q-147 0 -244.5 -133.5t-122.5 -357.5h518l-6 -60h-518q-2 -29 -2 -86q0 -68 6 -129h485l-8 -59h-469q35 -208 146.5 -320t275.5 -112q168 0 291 129
l25 -23q-160 -221 -394 -221q-212 0 -355 146.5t-177 400.5h-176l8 59h162q-2 25 -2 78q0 77 8 137h-139z" />
    <glyph glyph-name="sterling.lin" horiz-adv-x="1255" 
d="M276 571v52h238l80 346q25 106 69 194.5t94 145.5t106.5 97t105.5 57.5t90 17.5q69 0 127.5 -40.5t58.5 -103.5q0 -37 -28.5 -63t-86.5 -45q-39 190 -139 190q-40 0 -70.5 -23t-62.5 -91.5t-59 -188.5l-115 -493h406v-52h-418l-10 -47q-36 -156 -118.5 -274t-187.5 -193
q141 -51 267 -118l104 -56q21 -11 51 -27l45 -24l37.5 -20t33.5 -17.5t27.5 -13.5t25.5 -11.5t20.5 -7.5t20 -6t17 -3t17.5 -1q61 0 80.5 85t-10.5 188q25 1 43.5 -0.5t38.5 -6t32.5 -14t20.5 -26t8 -39.5q0 -29 -20.5 -70t-57 -82.5t-97.5 -70.5t-132 -29q-34 0 -71 6.5
t-66 14t-71.5 26.5t-65 29.5t-70 38.5t-63.5 37.5t-68 43t-62 39.5l-125 80q-87 -43 -151 -43q-29 0 -49.5 8t-29.5 20t-12.5 22t-3.5 20q0 34 28 55.5t79 21.5q70 0 172 -30q113 95 170 350l33 145h-226z" />
    <glyph glyph-name="yen.lin" horiz-adv-x="1054" 
d="M125 555v59h315l-358 676l-113 35v35h465v-35l-151 -35l297 -608h10l307 600l-162 43v35h350v-35l-112 -41l-361 -670h318v-59h-318v-145h318v-58h-318v-274l162 -41v-37h-500v37l168 41v274h-317v58h317v145h-317z" />
    <glyph glyph-name="florin.lin" horiz-adv-x="886" 
d="M35 569l12 62h184l23 104q38 181 119 328.5t193.5 235t232.5 87.5q59 0 95 -33t36 -69q0 -27 -17.5 -60.5t-44.5 -58.5q-54 67 -96.5 102.5t-83.5 35.5q-29 0 -52 -9t-50.5 -38t-51.5 -79.5t-50.5 -139t-51.5 -210.5l-41 -196h277l-15 -62h-274l-113 -553
q-22 -108 -60.5 -206t-92 -178.5t-125.5 -128.5t-152 -48q-50 0 -98.5 30.5t-48.5 84.5q0 50 61 104q88 -149 166 -149q53 0 89.5 82.5t72.5 261.5l141 700h-184z" />
    <glyph glyph-name="zero.lin" horiz-adv-x="1247" 
d="M621 1403q92 0 171.5 -30.5t138 -83.5t104.5 -121.5t73.5 -147.5t42 -159t14.5 -159q0 -169 -41.5 -309.5t-114.5 -235t-173 -146.5t-215 -52q-153 0 -276 90.5t-193 256.5t-70 376q0 203 70.5 368.5t194 259t274.5 93.5zM610 1356q-70 0 -127.5 -36.5t-95.5 -98
t-64 -146t-37.5 -177.5t-11.5 -196q0 -139 22 -261t65.5 -220.5t116 -155.5t165.5 -57q86 0 151.5 55t103.5 151t56.5 213.5t18.5 254.5q0 304 -100 489t-263 185z" />
    <glyph glyph-name="one.lin" horiz-adv-x="706" 
d="M467 1401v-1333l209 -33v-35h-590v39l215 29v1153l-256 -68l-18 45l432 203h8z" />
    <glyph glyph-name="two.lin" horiz-adv-x="956" 
d="M356 319l-155 -165h735v-154h-891v49l283 326q21 25 65 75t65 74.5t57 69.5t54.5 73t42.5 70.5t35.5 77t20 77t8.5 85.5q0 123 -81 197.5t-189 74.5q-96 0 -168 -53t-146 -166l-33 19q23 65 58.5 123t85.5 108.5t118.5 80.5t145.5 30q162 0 274.5 -98.5t112.5 -252.5
q0 -42 -12 -86.5t-28.5 -83t-50 -87.5t-61 -85t-76.5 -91t-82 -90t-93.5 -98t-94.5 -100z" />
    <glyph glyph-name="three.lin" horiz-adv-x="921" 
d="M397 29q131 0 217 72.5t86 205.5q0 150 -133 243t-331 99v58q209 94 297 172.5t88 191.5q0 83 -55.5 139t-151.5 56q-86 0 -150.5 -43.5t-140.5 -139.5l-33 23q153 287 383 287q140 0 224.5 -77.5t84.5 -195.5q0 -105 -79 -185.5t-257 -172.5v-6q191 -18 303.5 -119
t112.5 -240q0 -96 -46.5 -178t-122.5 -135t-169.5 -83t-189.5 -30q-126 0 -208.5 52.5t-82.5 123.5q0 37 30.5 64.5t82.5 36.5q41 -105 90 -180q50 -39 151 -39z" />
    <glyph glyph-name="four.lin" horiz-adv-x="1034" 
d="M745 1393v-885h269v-125h-269v-315l185 -33v-35h-535v39l183 29v315h-568v12l723 998h12zM147 508h431v596z" />
    <glyph glyph-name="five.lin" horiz-adv-x="968" 
d="M825 1194h-608l-29 -373q122 51 250 51q196 0 322.5 -116t126.5 -289q0 -110 -48 -205t-126 -158t-174.5 -99t-194.5 -36q-121 0 -207 53.5t-86 133.5q0 35 27 63t84 35q36 -100 82 -193q70 -36 143 -36q158 0 250 97t92 257q0 151 -101.5 251.5t-252.5 100.5
q-118 0 -246 -59l-6 4l55 684h647v-166z" />
    <glyph glyph-name="six.lin" horiz-adv-x="1079" 
d="M922 1364q-269 -112 -439 -295t-211 -436q79 97 169.5 142.5t179.5 45.5q167 0 271.5 -112.5t104.5 -284.5q0 -59 -19 -122.5t-58.5 -124.5t-93.5 -109.5t-130.5 -78.5t-163.5 -30q-89 0 -168 32t-143 93.5t-101.5 164.5t-37.5 234q0 168 64 320.5t176 269.5t262.5 202
t324.5 128zM537 729q-72 0 -145.5 -41t-127.5 -110q-4 -33 -4 -99q0 -226 88.5 -346.5t220.5 -120.5q111 0 182.5 89.5t71.5 244.5q0 183 -82 283t-204 100z" />
    <glyph glyph-name="seven.lin" horiz-adv-x="915" 
d="M221 0h-104l665 1194h-735v166h866v-4z" />
    <glyph glyph-name="eight.lin" horiz-adv-x="991" 
d="M61 287q0 64 18 115t62 98t98 86t144 94l-72 53q-99 72 -145.5 149.5t-46.5 172.5t58 175.5t154 126.5t206 46q161 0 261.5 -83t100.5 -204q0 -33 -8 -64t-18.5 -55.5t-35 -54.5t-43 -50t-57.5 -52.5t-63.5 -52t-75.5 -58.5l102 -74q111 -80 170.5 -160t59.5 -171
q0 -109 -64.5 -194t-162 -128t-205.5 -43q-195 0 -316 94t-121 234zM508 592l-86 61q-195 -147 -195 -331q0 -141 87 -228.5t202 -87.5q67 0 119 22.5t81 59.5t43.5 78.5t14.5 85.5q0 61 -33 118.5t-86 105.5t-147 116zM270 1122q0 -91 48 -159t149 -140l90 -65
q97 92 140.5 166.5t43.5 169.5q0 118 -73.5 190t-171.5 72q-86 0 -156 -63t-70 -171z" />
    <glyph glyph-name="nine.lin" horiz-adv-x="1069" 
d="M154 -4q254 106 427 287t218 399q-75 -92 -156 -127t-172 -35q-168 0 -278.5 124.5t-110.5 307.5q0 56 18.5 117.5t57 121t91.5 107t129 76.5t163 29t167.5 -39t142.5 -107.5t99 -170.5t37 -220q0 -332 -212 -565t-609 -344zM555 612q154 0 254 129q6 44 6 88
q0 247 -92 384t-223 137q-111 0 -179.5 -92.5t-68.5 -262.5q0 -181 89.5 -282t213.5 -101z" />
    <glyph glyph-name="percent.lin" horiz-adv-x="1439" 
d="M201 -102l991 1579h74l-992 -1579h-73zM391 1348q-79 0 -121.5 -79t-42.5 -190q0 -137 48.5 -224t134.5 -87q76 0 117.5 77t41.5 191q0 149 -50 230.5t-128 81.5zM391 721q-126 0 -214.5 90.5t-88.5 232.5q0 147 95.5 249t219.5 102q93 0 164 -47t106.5 -119.5
t35.5 -157.5q0 -146 -93.5 -248t-224.5 -102zM1034 586q-79 0 -121.5 -79t-42.5 -190q0 -137 48.5 -224t134.5 -87q76 0 117.5 77t41.5 191q0 149 -50 230.5t-128 81.5zM1034 -41q-126 0 -214.5 91t-88.5 233q0 147 96 248.5t220 101.5q93 0 164 -47t106 -119.5t35 -157.5
q0 -146 -93.5 -248t-224.5 -102z" />
    <glyph glyph-name="perthousand.lin" horiz-adv-x="2168" 
d="M201 -102l991 1579h74l-992 -1579h-73zM391 1348q-79 0 -121.5 -79t-42.5 -190q0 -137 48.5 -224t134.5 -87q76 0 117.5 77t41.5 191q0 149 -50 230.5t-128 81.5zM391 721q-126 0 -214.5 90.5t-88.5 232.5q0 147 95.5 249t219.5 102q93 0 164 -47t106.5 -119.5
t35.5 -157.5q0 -146 -93.5 -248t-224.5 -102zM1034 586q-79 0 -121.5 -79t-42.5 -190q0 -137 48.5 -224t134.5 -87q76 0 117.5 77t41.5 191q0 149 -50 230.5t-128 81.5zM1034 -41q-126 0 -214.5 91t-88.5 233q0 147 96 248.5t220 101.5q93 0 164 -47t106 -119.5t35 -157.5
q0 -146 -93.5 -248t-224.5 -102zM1763 586q-79 0 -121.5 -79t-42.5 -190q0 -137 48.5 -224t134.5 -87q76 0 118 77t42 191q0 148 -50.5 230t-128.5 82zM1763 -41q-126 0 -214.5 91t-88.5 233q0 147 96 248.5t220 101.5q93 0 164 -47t106 -119.5t35 -157.5q0 -146 -93.5 -248
t-224.5 -102z" />
    <glyph glyph-name="plus.lin" 
d="M1079 586h-444v-443h-82v443h-444v71h444v443h82v-443h444v-71z" />
    <glyph glyph-name="minus.lin" 
d="M1079 586h-970v71h970v-71z" />
    <glyph glyph-name="multiply.lin" 
d="M979 182l-389 393l-385 -395l-55 53l387 392l-385 393l55 51l387 -389l391 403l53 -53l-391 -401l389 -396z" />
    <glyph glyph-name="divide.lin" 
d="M1079 586h-970v71h970v-71zM594 846q-40 0 -68 28t-28 68t28 68t68 28t68 -28t28 -68t-28 -68t-68 -28zM594 205q-40 0 -68 28t-28 68t28 68t68 28t68 -28t28 -68t-28 -68t-68 -28z" />
    <glyph glyph-name="equal.lin" 
d="M1079 727h-970v72h970v-72zM1079 438h-970v72h970v-72z" />
    <glyph glyph-name="less.lin" 
d="M1073 1024l-878 -408l878 -405v-78l-967 449v71l967 447v-76z" />
    <glyph glyph-name="greater.lin" 
d="M115 207l878 407l-878 406v80l966 -449v-71l-966 -447v74z" />
    <glyph glyph-name="plusminus.lin" horiz-adv-x="1185" 
d="M1079 817h-444v-442h-82v442h-444v72h444v442h82v-442h444v-72zM109 0v72h970v-72h-970z" />
    <glyph glyph-name="notequal.lin" 
d="M356 186h-73l159 252h-333v72h380l138 217h-518v72h563l159 250h74l-160 -250h334v-72h-379l-139 -217h518v-72h-563z" />
    <glyph glyph-name="approxequal.lin" 
d="M178 690l-61 29q47 87 107 131.5t145 44.5q78 0 200 -39l101 -31q113 -34 182 -34q105 0 176 127l59 -31q-48 -83 -105.5 -127.5t-143.5 -44.5q-72 0 -201 37l-102 30q-122 37 -181 37q-98 0 -176 -129zM178 385l-61 29q47 87 107 131.5t145 44.5q78 0 200 -39l101 -31
q117 -35 182 -35q105 0 176 127l59 -30q-48 -83 -105.5 -127.5t-143.5 -44.5q-75 0 -201 36l-102 31q-122 37 -181 37q-98 0 -176 -129z" />
    <glyph glyph-name="lessequal.lin" horiz-adv-x="1183" 
d="M1077 0h-966v72h966v-72zM1077 1100l-848 -318l848 -317v-72l-968 359v65l968 359v-76z" />
    <glyph glyph-name="greaterequal.lin" horiz-adv-x="1183" 
d="M1077 0h-966v72h966v-72zM111 469l847 317l-847 318v72l968 -359v-65l-968 -359v76z" />
    <glyph glyph-name="numbersign.lin" 
d="M139 977v65h267l57 318h65l-57 -318h324l57 318h66l-58 -318h256v-65h-266l-72 -404h254v-65h-266l-64 -365h-65l63 365h-323l-64 -365h-65l63 365h-254v65h267l71 404h-256zM461 977l-72 -404h324l71 404h-323z" />
    <glyph glyph-name="ordfeminine.lin" horiz-adv-x="835" 
d="M270 602q-72 0 -131 47t-59 131q0 93 65.5 145t202.5 87l172 43v78q0 106 -45 163.5t-119 57.5q-59 0 -102 -37l-21 -160q-23 -14 -55 -14q-80 0 -80 74q0 26 25 58t66 61t102 49t125 20q241 0 241 -223v-463q0 -25 12 -34t46 -9h84v-31q-103 -39 -162 -39
q-62 0 -86.5 34.5t-26.5 94.5h-4q-71 -70 -124.5 -101.5t-125.5 -31.5zM348 696q98 0 172 84v240l-164 -51q-139 -47 -139 -144q0 -59 38 -94t93 -35z" />
    <glyph glyph-name="ordmasculine.lin" horiz-adv-x="901" 
d="M432 1364q-104 0 -164.5 -91.5t-60.5 -234.5q0 -166 76 -277.5t188 -111.5q103 0 164 92.5t61 235.5q0 166 -75.5 276.5t-188.5 110.5zM446 604q-164 0 -274.5 108t-110.5 289q0 93 34.5 172t90.5 129.5t126 78.5t143 28q168 0 276.5 -110.5t108.5 -284.5
q0 -124 -59 -220t-147.5 -143t-187.5 -47z" />
    <glyph glyph-name="zero.num" horiz-adv-x="770" 
d="M381 1374q66 0 122 -23.5t94 -62t65 -88.5t39 -102t12 -103q0 -181 -94.5 -291t-237.5 -110q-140 0 -232 110t-92 281q0 166 92.5 277.5t231.5 111.5zM371 1335q-62 0 -103 -50t-56.5 -123.5t-14.5 -166.5q2 -99 22.5 -177.5t67.5 -130.5t114 -52q61 0 100.5 50.5
t54.5 126.5t13 173q-3 159 -57 254.5t-141 95.5z" />
    <glyph glyph-name="one.num" horiz-adv-x="454" 
d="M305 1378v-710l131 -19v-37h-389v35l135 19v612l-155 -6v35l270 71h8z" />
    <glyph glyph-name="two.num" horiz-adv-x="610" 
d="M268 807l-116 -98h432v-97h-541v45l160 152q4 4 30.5 28.5t36 34t34 35t36 40.5t29.5 41t26.5 46.5t15.5 46t7 49.5q0 70 -44.5 112t-101.5 42q-64 0 -108 -26t-90 -89l-25 17q32 83 104 139.5t166 56.5q91 0 154.5 -60.5t63.5 -143.5q0 -50 -16.5 -94t-56.5 -91
t-80.5 -85t-115.5 -101z" />
    <glyph glyph-name="three.num" horiz-adv-x="608" 
d="M258 633q85 0 135.5 42t50.5 120q0 82 -75 128t-215 46v39q127 23 186 73t59 107q0 48 -31 78t-85 30q-102 0 -199 -108l-35 22q48 79 112 124.5t161 45.5q106 0 154 -46t48 -107q0 -40 -14 -70t-46.5 -54.5t-57 -37.5t-74.5 -35v-8q106 -6 170.5 -56t64.5 -132
q0 -72 -49.5 -128.5t-119 -84t-140.5 -27.5q-109 0 -169 31.5t-60 76.5q0 60 80 70l63 -113q7 -9 32.5 -17.5t53.5 -8.5z" />
    <glyph glyph-name="four.num" horiz-adv-x="651" 
d="M477 1356v-467h160v-80h-160v-141l117 -21v-35h-346v35l117 19v143h-322l-2 -2v2h-27v39l432 524zM106 889h259v317z" />
    <glyph glyph-name="five.num" horiz-adv-x="616" 
d="M535 1249h-394l-6 -194q76 37 166 37q124 0 200.5 -61t76.5 -159q0 -66 -31 -120.5t-80 -88t-105.5 -51.5t-111.5 -18q-95 0 -159 36.5t-64 88.5q0 28 20 45.5t59 17.5l68 -125q32 -24 92 -24q82 0 137.5 52t55.5 128t-52.5 127t-148.5 51q-79 0 -156 -49h-18l18 418h433
v-111z" />
    <glyph glyph-name="six.num" horiz-adv-x="657" 
d="M567 1358q-157 -52 -249 -140t-117 -206q75 75 180 75q113 0 176.5 -64.5t63.5 -162.5q0 -112 -78 -190t-195 -78q-127 0 -210 84t-83 221q0 195 142 327t362 167zM328 1028q-77 0 -135 -63q-3 -24 -3 -47q0 -133 47.5 -210t120.5 -77q59 0 95 48.5t36 131.5
q0 102 -44.5 159.5t-116.5 57.5z" />
    <glyph glyph-name="seven.num" horiz-adv-x="552" 
d="M195 612h-99l357 637h-422v111h504v-21z" />
    <glyph glyph-name="eight.num" horiz-adv-x="636" 
d="M45 786q0 72 49.5 117.5t134.5 75.5l-22 12q-64 34 -93.5 77t-29.5 103q0 80 74 142.5t178 62.5q97 0 166 -47.5t69 -118.5t-46.5 -114.5t-123.5 -75.5l45 -23q140 -70 140 -184q0 -99 -82 -160t-180 -61q-120 0 -199.5 52.5t-79.5 141.5zM369 905l-113 60
q-56 -43 -75 -81t-19 -87q0 -59 44.5 -112.5t125.5 -53.5q71 0 109 35t38 90q0 50 -27.5 85t-82.5 64zM190 1214q0 -90 107 -143l72 -37q86 66 86 162q0 68 -39 105.5t-94 37.5q-57 0 -94.5 -33t-37.5 -92z" />
    <glyph glyph-name="nine.num" horiz-adv-x="651" 
d="M68 612q157 41 257.5 131t129.5 215q-70 -67 -172 -67q-113 0 -175.5 65.5t-62.5 163.5q0 110 78.5 183t193.5 73q120 0 201.5 -84.5t81.5 -220.5q0 -198 -146 -332t-378 -159zM336 950q71 0 127 56q0 7 1 22t1 23q0 139 -46.5 213.5t-117.5 74.5q-58 0 -94.5 -48
t-36.5 -130q0 -101 46.5 -156t119.5 -55z" />
    <glyph glyph-name="zero.den" horiz-adv-x="770" 
d="M381 762q66 0 122 -23.5t94 -62t65 -88.5t39 -102t12 -103q0 -181 -94.5 -291t-237.5 -110q-140 0 -232 110t-92 281q0 166 92.5 277.5t231.5 111.5zM371 723q-62 0 -103 -50t-56.5 -123.5t-14.5 -166.5q2 -99 22.5 -177.5t67.5 -130.5t114 -52q61 0 100.5 50.5
t54.5 126.5t13 173q-3 159 -57 254.5t-141 95.5z" />
    <glyph glyph-name="one.den" horiz-adv-x="454" 
d="M305 766v-711l131 -18v-37h-389v35l135 18v613l-155 -7v35l270 72h8z" />
    <glyph glyph-name="two.den" horiz-adv-x="610" 
d="M268 195l-116 -99h432v-96h-541v45l160 152q4 4 30.5 28.5t36 34t34 35t36 40.5t29.5 41t26.5 46.5t15.5 46t7 49.5q0 70 -44.5 112t-101.5 42q-64 0 -108 -26t-90 -89l-25 16q32 83 104 140t166 57q91 0 154.5 -61t63.5 -144q0 -40 -13 -78t-32 -69t-57 -71t-72.5 -70.5
t-94.5 -81.5z" />
    <glyph glyph-name="three.den" horiz-adv-x="608" 
d="M258 20q85 0 135.5 42t50.5 120q0 82 -75 128t-215 46v39q127 23 186 73t59 107q0 48 -31 78.5t-85 30.5q-101 0 -199 -109l-35 23q48 79 112 124.5t161 45.5q106 0 154 -46.5t48 -107.5q0 -32 -11.5 -59t-26 -44.5t-45.5 -36.5t-49.5 -28.5t-59.5 -27.5v-8
q106 -6 170.5 -56.5t64.5 -132.5q0 -72 -49.5 -128.5t-119 -83.5t-140.5 -27q-109 0 -169 31.5t-60 76.5q0 60 80 70l63 -113q7 -9 32.5 -18t53.5 -9z" />
    <glyph glyph-name="four.den" horiz-adv-x="651" 
d="M477 743v-467h160v-79h-160v-142l117 -20v-35h-346v35l117 18v144h-322l-2 -2v2h-27v39l432 524zM106 276h259v318z" />
    <glyph glyph-name="five.den" horiz-adv-x="616" 
d="M535 637h-394l-6 -195q76 37 166 37q124 0 200.5 -60.5t76.5 -158.5q0 -66 -31 -120.5t-80 -88t-105.5 -51.5t-111.5 -18q-96 0 -159.5 36t-63.5 88q0 28 20 46t59 18l68 -125q33 -25 92 -25q82 0 137.5 52t55.5 129q0 76 -52.5 127t-148.5 51q-79 0 -156 -49h-18l18 418
h433v-111z" />
    <glyph glyph-name="six.den" horiz-adv-x="657" 
d="M567 745q-157 -52 -249 -140t-117 -206q76 76 180 76q113 0 176.5 -64.5t63.5 -162.5q0 -112 -78 -190t-195 -78q-127 0 -210 84t-83 221q0 195 142 326.5t362 166.5zM328 416q-76 0 -135 -64q-3 -24 -3 -47q0 -133 47.5 -210t120.5 -77q59 0 95 49t36 132
q0 102 -44.5 159.5t-116.5 57.5z" />
    <glyph glyph-name="seven.den" horiz-adv-x="552" 
d="M195 0h-99l357 637h-422v111h504v-21z" />
    <glyph glyph-name="eight.den" horiz-adv-x="636" 
d="M45 174q0 72 49.5 117.5t134.5 75.5l-22 12q-64 34 -93.5 77t-29.5 103q0 80 74 142.5t178 62.5q97 0 166 -47.5t69 -118.5t-46.5 -114.5t-123.5 -75.5l45 -23q140 -70 140 -184q0 -99 -82 -160t-180 -61q-120 0 -199.5 52.5t-79.5 141.5zM369 293l-113 59
q-56 -43 -75 -81t-19 -87q0 -59 44.5 -112.5t125.5 -53.5q71 0 109 35t38 90q0 50 -27.5 85.5t-82.5 64.5zM190 602q0 -90 107 -143l72 -37q86 66 86 162q0 68 -39 105.5t-94 37.5q-57 0 -94.5 -33t-37.5 -92z" />
    <glyph glyph-name="nine.den" horiz-adv-x="651" 
d="M68 0q157 41 257.5 131t129.5 215q-70 -67 -172 -67q-113 0 -175.5 65.5t-62.5 163.5q0 110 78.5 183t193.5 73q120 0 201.5 -84.5t81.5 -220.5q0 -198 -146 -332.5t-378 -159.5zM336 338q72 0 127 55q0 7 1 22t1 23q0 139 -46.5 214t-117.5 75q-58 0 -94.5 -48
t-36.5 -130q0 -101 46.5 -156t119.5 -55z" />
    <glyph glyph-name="zero.sub" horiz-adv-x="770" 
d="M381 659q82 0 148 -35.5t104.5 -92t59 -121t20.5 -129.5q0 -181 -94.5 -291.5t-237.5 -110.5q-140 0 -232 110t-92 281q0 166 92.5 277.5t231.5 111.5zM371 621q-62 0 -103 -50t-56.5 -123.5t-14.5 -166.5q2 -99 22.5 -177.5t67.5 -131t114 -52.5q61 0 100.5 50.5
t54.5 126.5t13 173q-3 159 -57 255t-141 96z" />
    <glyph glyph-name="one.sub" horiz-adv-x="454" 
d="M305 664v-711l131 -19v-36h-389v34l135 19v612l-155 -6v35l270 72h8z" />
    <glyph glyph-name="two.sub" horiz-adv-x="610" 
d="M268 92l-116 -98h432v-96h-541v45l160 151q2 2 30 28.5t36.5 34.5t34 34.5t36 41t29.5 41t27 46.5t15 46t7 50q0 69 -44.5 111t-101.5 42q-64 0 -108 -25.5t-90 -88.5l-25 16q32 83 104 140t166 57q91 0 154.5 -61t63.5 -144q0 -50 -16.5 -94t-56.5 -91t-80.5 -85
t-115.5 -101z" />
    <glyph glyph-name="three.sub" horiz-adv-x="608" 
d="M258 -82q85 0 135.5 42t50.5 120q0 82 -75 128t-215 46v39q127 23 186 73t59 107q0 48 -31 78.5t-85 30.5q-101 0 -199 -109l-35 23q48 79 112 124.5t161 45.5q106 0 154 -46.5t48 -107.5q0 -40 -14 -70t-46.5 -54.5t-57 -37.5t-74.5 -35v-8q106 -6 170.5 -56t64.5 -132
q0 -72 -49.5 -128.5t-119 -84t-140.5 -27.5q-109 0 -169 31.5t-60 77.5q0 59 80 69l63 -112q7 -9 32.5 -18t53.5 -9z" />
    <glyph glyph-name="four.sub" horiz-adv-x="651" 
d="M477 641v-467h160v-80h-160v-141l117 -21v-34h-346v34l117 19v143h-322l-2 -2v2h-27v39l432 524zM106 174h259v318z" />
    <glyph glyph-name="five.sub" horiz-adv-x="616" 
d="M535 535h-394l-6 -195q76 37 166 37q124 0 200.5 -60.5t76.5 -158.5q0 -66 -31 -121t-80 -88.5t-105.5 -51.5t-111.5 -18q-95 0 -159 36.5t-64 88.5q0 28 20 46t59 18l68 -125q33 -25 92 -25q82 0 137.5 52t55.5 128t-52.5 127t-148.5 51q-79 0 -156 -49h-18l18 418h433
v-110z" />
    <glyph glyph-name="six.sub" horiz-adv-x="657" 
d="M567 643q-157 -52 -249 -140t-117 -206q76 76 180 76q113 0 176.5 -65t63.5 -163q0 -112 -78 -190t-195 -78q-127 0 -210 84t-83 221q0 195 142 327t362 167zM328 313q-77 0 -135 -63q-3 -24 -3 -47q0 -133 47.5 -210t120.5 -77q59 0 95 48.5t36 131.5q0 102 -44.5 159.5
t-116.5 57.5z" />
    <glyph glyph-name="seven.sub" horiz-adv-x="552" 
d="M195 -102h-99l357 637h-422v110h504v-20z" />
    <glyph glyph-name="eight.sub" horiz-adv-x="636" 
d="M45 72q0 72 49.5 117t134.5 75l-22 12q-123 64 -123 181q0 80 74 142.5t178 62.5q97 0 166 -47.5t69 -118.5t-46.5 -115t-123.5 -76l45 -22q140 -70 140 -185q0 -99 -82 -160t-180 -61q-120 0 -199.5 53t-79.5 142zM369 190l-113 60q-56 -43 -75 -81t-19 -87
q0 -59 44.5 -112.5t125.5 -53.5q71 0 109 35t38 90q0 50 -27.5 85t-82.5 64zM190 500q0 -90 107 -144l72 -37q86 66 86 162q0 68 -39 106t-94 38q-57 0 -94.5 -33t-37.5 -92z" />
    <glyph glyph-name="nine.sub" horiz-adv-x="651" 
d="M68 -102q157 41 257.5 131t129.5 215q-71 -68 -172 -68q-112 0 -175 65.5t-63 164.5q0 110 78.5 183t193.5 73q120 0 201.5 -84.5t81.5 -221.5q0 -198 -146 -332t-378 -159zM336 236q72 0 127 55q0 7 1 22t1 23q0 139 -46.5 214t-117.5 75q-58 0 -94.5 -48.5
t-36.5 -130.5q0 -101 46.5 -155.5t119.5 -54.5z" />
    <glyph glyph-name="plus.sub" horiz-adv-x="692" 
d="M637 221h-260v-244h-62v244h-260v53h260v244h62v-244h260v-53z" />
    <glyph glyph-name="minus.sub" horiz-adv-x="692" 
d="M637 221h-582v53h582v-53z" />
    <glyph glyph-name="zero.sup" horiz-adv-x="770" 
d="M381 1542q66 0 122 -23.5t94 -62t65 -88.5t39 -102t12 -103q0 -181 -94.5 -291t-237.5 -110q-140 0 -232 110t-92 281q0 166 92.5 277.5t231.5 111.5zM371 1503q-62 0 -103 -50t-56.5 -123.5t-14.5 -166.5q2 -99 22.5 -177.5t67.5 -130.5t114 -52q61 0 100.5 50.5
t54.5 126.5t13 173q-3 159 -57 254.5t-141 95.5z" />
    <glyph glyph-name="one.sup" horiz-adv-x="454" 
d="M305 1546v-710l131 -19v-37h-389v35l135 19v612l-155 -6v35l270 71h8z" />
    <glyph glyph-name="two.sup" horiz-adv-x="610" 
d="M268 975l-116 -98h432v-97h-541v45l160 152q4 4 30.5 28.5t36 34t34 35t36 40.5t29.5 41t26.5 46.5t15.5 46t7 49.5q0 70 -44.5 112t-101.5 42q-64 0 -108 -26t-90 -89l-25 17q32 83 104 139.5t166 56.5q91 0 154.5 -60.5t63.5 -143.5q0 -50 -16.5 -94t-56.5 -91
t-80.5 -85t-115.5 -101z" />
    <glyph glyph-name="three.sup" horiz-adv-x="608" 
d="M258 801q85 0 135.5 42t50.5 120q0 82 -75 128t-215 46v39q127 23 186 73t59 107q0 48 -31 78t-85 30q-102 0 -199 -108l-35 22q48 79 112 124.5t161 45.5q106 0 154 -46t48 -107q0 -40 -14 -70t-46.5 -54.5t-57 -37.5t-74.5 -35v-8q106 -6 170.5 -56.5t64.5 -132.5
q0 -72 -49.5 -128.5t-119 -83.5t-140.5 -27q-109 0 -169 31.5t-60 76.5q0 60 80 70l63 -113q7 -9 32.5 -17.5t53.5 -8.5z" />
    <glyph glyph-name="four.sup" horiz-adv-x="651" 
d="M477 1524v-467h160v-80h-160v-141l117 -21v-35h-346v35l117 19v143h-322l-2 -2v2h-27v39l432 524zM106 1057h259v317z" />
    <glyph glyph-name="five.sup" horiz-adv-x="616" 
d="M535 1417h-394l-6 -194q76 37 166 37q124 0 200.5 -61t76.5 -159q0 -66 -31 -120.5t-80 -88t-105.5 -51.5t-111.5 -18q-95 0 -159 36.5t-64 88.5q0 28 20 45.5t59 17.5l68 -125q32 -24 92 -24q82 0 137.5 52t55.5 128t-52.5 127t-148.5 51q-79 0 -156 -49h-18l18 418h433
v-111z" />
    <glyph glyph-name="six.sup" horiz-adv-x="657" 
d="M567 1526q-157 -52 -249 -140t-117 -206q75 75 180 75q113 0 176.5 -64.5t63.5 -162.5q0 -112 -78 -190t-195 -78q-127 0 -210 84t-83 221q0 195 142 327t362 167zM328 1196q-77 0 -135 -63q-3 -24 -3 -48q0 -133 47.5 -209.5t120.5 -76.5q59 0 95 48.5t36 131.5
q0 102 -44.5 159.5t-116.5 57.5z" />
    <glyph glyph-name="seven.sup" horiz-adv-x="552" 
d="M195 780h-99l357 637h-422v111h504v-21z" />
    <glyph glyph-name="eight.sup" horiz-adv-x="636" 
d="M45 954q0 72 49.5 117.5t134.5 75.5l-22 12q-64 34 -93.5 77t-29.5 103q0 80 74 142.5t178 62.5q97 0 166 -47.5t69 -118.5t-46.5 -114.5t-123.5 -75.5l45 -23q140 -70 140 -184q0 -99 -82 -160t-180 -61q-120 0 -199.5 52.5t-79.5 141.5zM369 1073l-113 60
q-56 -43 -75 -81t-19 -87q0 -59 44.5 -112.5t125.5 -53.5q71 0 109 35t38 90q0 50 -27.5 85t-82.5 64zM190 1382q0 -90 107 -143l72 -37q86 66 86 162q0 68 -39 105.5t-94 37.5q-57 0 -94.5 -33t-37.5 -92z" />
    <glyph glyph-name="nine.sup" horiz-adv-x="651" 
d="M68 780q157 41 257.5 131t129.5 215q-70 -67 -172 -67q-113 0 -175.5 65.5t-62.5 163.5q0 110 78.5 183t193.5 73q120 0 201.5 -84.5t81.5 -220.5q0 -198 -146 -332t-378 -159zM336 1118q71 0 127 56q0 7 1 22t1 23q0 139 -46.5 213.5t-117.5 74.5q-58 0 -94.5 -48
t-36.5 -130q0 -101 46.5 -156t119.5 -55z" />
    <glyph glyph-name="plus.sup" horiz-adv-x="692" 
d="M637 1104h-260v-244h-62v244h-260v53h260v244h62v-244h260v-53z" />
    <glyph glyph-name="minus.sup" horiz-adv-x="692" 
d="M637 1104h-582v53h582v-53z" />
    <glyph glyph-name="bullet.alt" horiz-adv-x="643" 
d="M27 1192q0 51 32.5 77.5t75.5 26.5q34 0 61 -10t52.5 -34.5t39 -41.5t40.5 -55h16q51 52 72.5 71.5t50 32.5t63.5 13q44 0 75.5 -34t31.5 -81q0 -53 -34.5 -86t-86.5 -33q-43 0 -83.5 23.5t-92.5 68.5h-6q-41 -47 -41 -92q0 -13 3 -24.5t7 -20.5t14 -19.5t15.5 -17
t21 -17.5t22.5 -16t26.5 -18t27.5 -18q31 -20 43 -28t34.5 -26.5t31.5 -32t17.5 -33.5t8.5 -42q0 -56 -36.5 -90t-106.5 -21q2 -27 -17 -46t-57 -19q-34 0 -60.5 20.5t-60.5 71.5q-4 6 -19.5 33t-24.5 38.5t-28.5 24.5t-41.5 13q-37 0 -58.5 -28t-21.5 -65h-21
q-18 71 18.5 119.5t98.5 48.5q30 0 56 -14.5t44 -34.5t34.5 -40.5t36 -35t40.5 -14.5q30 0 45.5 17t15.5 42q0 30 -17.5 55.5t-42.5 44.5t-50 38.5t-42.5 48t-17.5 63.5q0 75 78 140l-6 6q-102 -47 -168 -47q-51 0 -79.5 26t-28.5 72zM348 1501q47 0 77 -28t30 -68
q0 -68 -111 -191h-12q-1 2 -13 20t-23.5 36.5t-24 41.5t-20 45.5t-7.5 39.5q0 46 28.5 75t75.5 29z" />
    <glyph glyph-name="f.short" horiz-adv-x="593" 
d="M27 0v35l143 28v807h-158v39l160 43v60q0 217 98 363.5t244 146.5q71 0 119.5 -39.5t48.5 -91.5q0 -91 -129 -91l-49 150q-12 16 -45 16q-66 0 -101.5 -83.5t-35.5 -245.5v-189h270v-78h-270v-807l165 -28v-35h-460z" />
    <glyph glyph-name="f_f.short" horiz-adv-x="1132" 
d="M709 63v816h-387v-816l165 -28v-35h-460v35l143 28v807h-158v39l162 41q10 130 64 245t152 191t220 76q63 0 115.5 -23t85.5 -59q47 67 109 104.5t133 37.5q75 0 121.5 -41t46.5 -90q0 -91 -129 -91l-50 150q-16 16 -47 16q-65 0 -100 -84t-35 -245v-189h273v-69h-273
v-816l166 -28v-35h-440v35zM555 1405q-99 0 -167.5 -97t-68.5 -294v-66h390v64q0 136 41 245q-57 148 -195 148z" />
    <glyph glyph-name="i.ger" horiz-adv-x="489" 
d="M31 0v35l143 28v736l-137 61v14l289 103v-914l143 -28v-35h-438zM242 1182q-44 0 -76.5 32t-32.5 76t32.5 76.5t76.5 32.5t76 -32.5t32 -76.5t-32 -76t-76 -32z" />
    <glyph glyph-name="j.ger" horiz-adv-x="475" 
d="M-23 -489l-14 28q86 62 125.5 113t59 130t26.5 228v789l-137 61v14l289 103v-928q0 -124 -12.5 -205t-51.5 -143q-38 -58 -97.5 -95t-187.5 -95zM242 1182q-44 0 -76.5 32t-32.5 76t32.5 76.5t76.5 32.5t76 -32.5t32 -76.5t-32 -76t-76 -32z" />
    <glyph glyph-name="adieresis.ger" horiz-adv-x="921" 
d="M309 -29q-41 0 -80.5 12.5t-76 38t-58.5 72.5t-22 109q0 112 79.5 176t243.5 108l215 60v96q0 131 -55.5 203t-146.5 72q-86 0 -140 -50l-10 -192q-31 -17 -72 -17q-40 0 -65 22t-25 58q0 77 115.5 157.5t265.5 80.5t217.5 -71t67.5 -210v-575q0 -33 12.5 -48.5
t50.5 -15.5h103v-26q-107 -56 -185 -56q-74 0 -105 37.5t-30 124.5h-4q-79 -84 -146 -125t-149 -41zM403 78q112 0 207 127v301l-233 -82q-80 -28 -112 -71.5t-32 -104.5q0 -70 42.5 -120t127.5 -50zM299 1194q-40 0 -67 28t-27 68t27.5 69.5t66.5 29.5q41 0 69.5 -29.5
t28.5 -69.5t-28.5 -68t-69.5 -28zM610 1194q-40 0 -68 28t-28 68t28.5 69.5t67.5 29.5q40 0 68.5 -29.5t28.5 -69.5t-28.5 -68t-68.5 -28z" />
    <glyph glyph-name="odieresis.ger" horiz-adv-x="1099" 
d="M522 924q-131 0 -208.5 -116t-77.5 -294q0 -136 44.5 -248.5t121.5 -176.5t171 -64q131 0 210 117t79 294q0 136 -44 248t-122 176t-174 64zM547 -29q-131 0 -238 59t-172 173.5t-65 263.5q0 116 42 214.5t111 162t154.5 98.5t173.5 35q207 0 341 -139t134 -355
q0 -94 -27.5 -177t-74.5 -143.5t-108.5 -104.5t-131 -65.5t-139.5 -21.5zM389 1194q-40 0 -67 28t-27 68t27.5 69.5t66.5 29.5q41 0 69.5 -29.5t28.5 -69.5t-28.5 -68t-69.5 -28zM700 1194q-40 0 -68 28t-28 68t28.5 69.5t67.5 29.5q40 0 68.5 -29.5t28.5 -69.5t-28.5 -68
t-68.5 -28z" />
    <glyph glyph-name="udieresis.ger" horiz-adv-x="1079" 
d="M776 -18l-16 174q-153 -185 -336 -185q-74 0 -130 25.5t-88 71t-47.5 101.5t-15.5 122v555l-133 39v26l285 54v-627q0 -133 57.5 -193.5t157.5 -60.5q53 0 106 21t80 40t62 48v653l-158 39v26l309 54v-877l142 -41v-27zM379 1194q-40 0 -67 28t-27 68t27.5 69.5
t66.5 29.5q41 0 69.5 -29.5t28.5 -69.5t-28.5 -68t-69.5 -28zM690 1194q-40 0 -68 28t-28 68t28.5 69.5t67.5 29.5t67.5 -29.5t28.5 -69.5t-28 -68t-68 -28z" />
    <glyph glyph-name="questiondown.uc" horiz-adv-x="675" 
d="M539 143v-174l-31 6q-191 38 -333 187t-142 303q0 164 164 229l211 86l-19 242h49l80 -358l-266 -101q-73 -28 -110.5 -68.5t-37.5 -105.5q0 -38 16.5 -70.5t55.5 -63.5t112 -56t177 -43zM418 1403q51 0 86 -35t35 -86t-35 -86t-86 -35t-86 35t-35 86t35 86t86 35z" />
    <glyph glyph-name="exclamdown.uc" horiz-adv-x="516" 
d="M340 -37h-170l57 1059h56zM379 1282q0 -51 -35 -86t-86 -35t-86 35t-35 86t35 86t86 35t86 -35t35 -86z" />
    <glyph glyph-name="hyphen.uc" horiz-adv-x="722" 
d="M102 600v113h519v-113h-519z" />
    <glyph glyph-name="endash.uc" horiz-adv-x="962" 
d="M72 621v69h819v-69h-819z" />
    <glyph glyph-name="emdash.uc" horiz-adv-x="1781" 
d="M72 621v69h1638v-69h-1638z" />
    <glyph glyph-name="guilsinglleft.uc" horiz-adv-x="538" 
d="M395 897l31 -29l-236 -348l234 -317l-29 -31l-334 344v19z" />
    <glyph glyph-name="guilsinglright.uc" horiz-adv-x="540" 
d="M143 172l-30 29l235 348l-233 317l28 31l336 -344v-18z" />
    <glyph glyph-name="guillemotleft.uc" horiz-adv-x="849" 
d="M395 897l31 -29l-236 -348l234 -317l-29 -31l-334 344v19zM707 897l30 -29l-235 -348l233 -317l-28 -31l-334 344v19z" />
    <glyph glyph-name="guillemotright.uc" horiz-adv-x="849" 
d="M453 172l-31 29l235 348l-233 317l29 31l335 -344v-18zM143 172l-30 29l235 348l-233 317l28 31l336 -344v-18z" />
    <glyph glyph-name="parenleft.uc" horiz-adv-x="632" 
d="M614 -287h-57q-383 427 -383 928q0 508 395 940h54q-110 -157 -176 -290t-104 -296t-38 -354q0 -270 74 -483.5t235 -444.5z" />
    <glyph glyph-name="parenright.uc" horiz-adv-x="632" 
d="M18 1581h58q383 -422 383 -928q0 -511 -393 -940h-56q167 235 243.5 447.5t76.5 492.5q0 270 -75 483.5t-237 444.5z" />
    <glyph glyph-name="bracketleft.uc" horiz-adv-x="589" 
d="M565 -289h-352v1872h352v-47h-217v-1778h217v-47z" />
    <glyph glyph-name="bracketright.uc" horiz-adv-x="589" 
d="M25 1583h352v-1872h-352v47h217v1778h-217v47z" />
    <glyph glyph-name="braceleft.uc" horiz-adv-x="659" 
d="M172 649v-4q129 -14 188.5 -63.5t59.5 -163.5v-393q0 -158 47 -220.5t162 -62.5v-31h-31q-105 1 -172.5 23.5t-101.5 69.5t-43.5 108.5t-1.5 153.5l30 354q8 85 -32.5 139t-129.5 57l-55 2v58l55 2q89 3 129.5 57t32.5 139l-30 355q-8 92 1.5 153t43.5 108t101 69.5
t173 23.5h31v-31q-115 0 -162 -63t-47 -221v-389q0 -116 -59.5 -166t-188.5 -64z" />
    <glyph glyph-name="braceright.uc" horiz-adv-x="659" 
d="M487 645v4q-129 14 -188 63.5t-59 164.5v393q0 158 -47 220t-162 62v31h30q106 -1 173 -23.5t101.5 -69.5t44 -108t1.5 -153l-31 -355q-8 -85 32.5 -139t129.5 -57l55 -2v-58l-55 -2q-89 -3 -129.5 -57t-32.5 -139l31 -354q8 -92 -1.5 -153.5t-44 -108.5t-102 -69.5
t-172.5 -23.5h-30v31q115 0 162 63t47 222v389q0 116 59 165.5t188 63.5z" />
    <glyph glyph-name="slash.uc" horiz-adv-x="849" 
d="M0 -336l-55 25l852 1919l55 -25z" />
    <glyph glyph-name="backslash.uc" horiz-adv-x="849" 
d="M905 -311l-55 -25l-852 1919l55 25z" />
    <glyph glyph-name="bar.uc" horiz-adv-x="409" 
d="M236 -328h-62v1903h62v-1903z" />
    <glyph glyph-name="at.uc" horiz-adv-x="1886" 
d="M1044 434l33 109h-8q-22 -36 -94 -137q-70 -95 -161 -171.5t-163 -76.5q-76 0 -115.5 50.5t-39.5 129.5q0 107 44.5 220t116.5 205t156 166t169 115t151 41q68 0 143 -59h2l31 84h90l-205 -684q-20 -65 -22 -109.5t13 -67t36.5 -31.5t52.5 -9q42 0 93.5 19.5t109.5 65
t104.5 111t77.5 168.5t31 226q0 168 -83 309t-232 225t-331 84q-119 0 -237 -39t-220 -115t-181 -178.5t-124.5 -239t-45.5 -286.5q0 -171 54 -309.5t149 -229t224 -139.5t281 -49q179 0 332 64v-31q-194 -84 -383 -84q-126 0 -240 25.5t-215.5 82.5t-175 140t-116 204.5
t-42.5 270.5q0 157 56.5 306.5t153.5 267t220.5 207t264.5 137.5t278 48q170 0 310 -54t230.5 -146t139.5 -210.5t49 -250.5q0 -139 -57.5 -264.5t-145 -208t-188 -130.5t-190.5 -48q-129 0 -175 70.5t-6 205.5zM739 264q60 0 152 98t170.5 229.5t112.5 237.5l32 105
q-63 94 -133 94q-64 0 -138 -59.5t-134 -151.5t-99.5 -210.5t-39.5 -227.5q0 -115 77 -115z" />
    <glyph glyph-name="Q.cap" horiz-adv-x="1595" 
d="M795 1403q202 0 366.5 -92t258 -254t93.5 -361q0 -144 -47.5 -270t-129 -216t-186 -150.5t-220.5 -82.5q278 -207 472 -289.5t394 -82.5q323 0 551 159l23 -26q-59 -50 -111.5 -86t-129 -74t-171.5 -58t-205 -20q-194 0 -330.5 33.5t-312 133.5t-455.5 310
q-119 23 -222.5 83t-182 148t-123.5 209t-45 257q0 131 40.5 248t110 203.5t160 150t194 95.5t208.5 32zM831 16q125 0 221 55.5t152.5 149t84.5 204.5t28 234q0 187 -69.5 344.5t-198 252t-289.5 94.5q-99 0 -181 -37.5t-136.5 -99.5t-92 -145.5t-54.5 -173.5t-17 -185
q0 -183 67.5 -340.5t195.5 -255t289 -97.5z" />
    <glyph glyph-name="Q.short" horiz-adv-x="1595" 
d="M795 1403q202 0 366.5 -92t258 -254t93.5 -361q0 -147 -50.5 -276.5t-135.5 -220.5t-194 -150t-228 -78q184 -166 282.5 -227t217.5 -61q94 0 190 49l17 -25q-137 -113 -291 -113q-40 0 -78.5 5.5t-70 12t-68.5 24t-61.5 29t-63.5 39.5t-59.5 43t-63.5 53t-62.5 56
t-68.5 63q-41 38 -63 58q-119 21 -224.5 80.5t-184.5 148t-125 210t-46 258.5q0 131 40.5 248t110 203.5t160 150t194 95.5t208.5 32zM831 16q125 0 221 55.5t152.5 149t84.5 204.5t28 234q0 187 -69.5 344.5t-198 252t-289.5 94.5q-99 0 -181 -37.5t-136.5 -99.5
t-92 -145.5t-54.5 -173.5t-17 -185q0 -183 67.5 -340.5t195.5 -255t289 -97.5z" />
    <glyph glyph-name="space.uc" horiz-adv-x="450" 
 />
    </font>
</defs>
</svg>
