<?xml version="1.0" standalone="no"?>
<!DOCTYPE svg PUBLIC "-//W3C//DTD SVG 1.1//EN" "http://www.w3.org/Graphics/SVG/1.1/DTD/svg11.dtd" >
<svg xmlns="http://www.w3.org/2000/svg" xmlns:xlink="http://www.w3.org/1999/xlink" version="1.1">
<metadata>
Created by FontForge 20170731 at Thu Dec 24 14:22:06 2020
 By Aleksey,,,
(c)2010 Kai Bernau and Commercial Type.
</metadata>
<defs>
<font id="LyonDisplay-Black" horiz-adv-x="819" >
  <font-face 
    font-family="Lyon Display Black"
    font-weight="900"
    font-stretch="normal"
    units-per-em="2048"
    panose-1="2 0 10 3 8 0 0 2 0 4"
    ascent="1638"
    descent="-410"
    x-height="1034"
    cap-height="1360"
    bbox="-385 -506 2736 2228"
    underline-thickness="102"
    underline-position="-409"
    unicode-range="U+0020-FB04"
  />
<missing-glyph horiz-adv-x="358" 
 />
    <glyph glyph-name="f_f" unicode="ff" horiz-adv-x="1503" 
d="M852 106v801h-301v-803l102 -24v-80h-628v80l127 26v801h-150v80l152 51q29 93 82 172t117 132.5t139 91.5t148.5 55.5t143.5 17.5q88 0 156.5 -21.5t140.5 -64.5q81 63 178 95t193 32q134 0 238 -57.5t104 -149.5q0 -44 -17.5 -76.5t-45 -50.5t-63.5 -26.5t-72.5 -7
t-71.5 9.5l-66 219q-35 51 -94 51q-58 0 -90 -59.5t-29 -186.5l4 -180h271v-127h-269v-803l166 -24v-80h-674v82zM700 1417q-19 0 -38 -6t-41.5 -26t-38.5 -52t-26.5 -90.5t-8.5 -134.5l2 -74h309q6 43 31 125q-30 130 -83 194t-106 64z" />
    <glyph glyph-name="f_i" unicode="fi" horiz-adv-x="1400" 
d="M743 0v82l109 24v801h-301v-803l102 -24v-80h-628v80l127 26v801h-150v80l152 51q18 96 66 179.5t115.5 143t150.5 102.5t173 64t181 21q150 0 259 -63.5t109 -155.5q0 -68 -60.5 -110.5t-160.5 -42.5q-52 0 -80 12l-82 225q-53 47 -114 47q-172 0 -164 -319l2 -107h538
l166 33v-961l127 -26v-80h-637z" />
    <glyph glyph-name="f_l" unicode="fl" horiz-adv-x="1390" 
d="M743 0v82l109 24v801h-301v-803l102 -24v-80h-628v80l127 26v801h-150v80l152 51q32 157 129.5 274t231.5 176.5t286 59.5q131 0 250 -71l200 57v-1428l123 -26v-80h-631zM688 1458q-142 0 -139 -270v-154h303v185q-21 107 -61.5 173t-102.5 66z" />
    <glyph glyph-name="f_f_i" unicode="ffi" horiz-adv-x="2101" 
d="M743 0v82l109 24v801h-301v-803l102 -24v-80h-628v80l127 26v801h-150v80l152 51q29 93 82 172t117 132.5t139 91.5t148.5 55.5t143.5 17.5q91 0 161 -22t142 -68q185 131 439 131q160 0 271.5 -63t111.5 -156q0 -68 -60.5 -110.5t-160.5 -42.5q-52 0 -80 12l-82 225
q-53 47 -115 47q-172 0 -164 -319l2 -107h539l166 33v-961l127 -26v-80h-637v82l108 24v801h-301v-803l103 -24v-80h-611zM700 1417q-19 0 -38 -6t-41.5 -26t-38.5 -52t-26.5 -90.5t-8.5 -134.5l2 -74h309q9 65 31 123q-30 131 -83 195.5t-106 64.5z" />
    <glyph glyph-name="f_f_l" unicode="ffl" horiz-adv-x="2091" 
d="M743 0v82l109 24v801h-301v-803l102 -24v-80h-628v80l127 26v801h-150v80l152 51q29 93 82 172t117 132.5t139 91.5t148.5 55.5t143.5 17.5q91 0 162 -23t144 -69q89 65 195 99t206 34q130 0 258 -71l203 57v-1428l123 -26v-80h-631v82l108 24v801h-301v-803l103 -24v-80
h-611zM1384 1458q-67 0 -101.5 -69t-33.5 -201v-154h303v185q-46 239 -168 239zM700 1417q-19 0 -38 -6t-41.5 -26t-38.5 -52t-26.5 -90.5t-8.5 -134.5l2 -74h311q8 57 31 121q-31 132 -84.5 197t-106.5 65z" />
    <glyph glyph-name="f_b" unicode="fb" horiz-adv-x="2029" 
d="M1280 -31q-191 0 -356 74l-72 33v1151q-54 231 -162 231q-144 0 -141 -272v-152h219v-127h-217v-803l166 -24v-80h-692v80l127 26v801h-150v80l152 51q32 157 129.5 274t231.5 176.5t286 59.5q131 0 250 -71l200 57v-627q132 150 318 150q77 0 149 -29.5t132 -85
t96 -146.5t36 -204q0 -114 -42.5 -215t-113.5 -174.5t-162 -127t-189.5 -80t-194.5 -26.5zM1300 860q-29 0 -49 -10v-662q52 -125 154 -125q82 0 124 92t42 246q0 203 -82 331t-189 128z" />
    <glyph glyph-name="f_f_b" unicode="ffb" horiz-adv-x="2729" 
d="M743 0v82l109 24v801h-301v-803l102 -24v-80h-628v80l127 26v801h-150v80l152 51q29 93 82 172t117 132.5t139 91.5t148.5 55.5t143.5 17.5q91 0 162 -23t144 -69q90 66 196 99.5t209 33.5q129 0 254 -71l203 57v-627q132 150 317 150q77 0 149 -29.5t132 -85
t96.5 -146.5t36.5 -204q0 -114 -42.5 -215t-113.5 -174.5t-162.5 -127t-190 -80t-194.5 -26.5q-191 0 -356 74l-72 33v1143q-47 239 -163 239q-143 0 -140 -272v-152h219v-127h-217v-803l166 -24v-80h-674zM2001 860q-29 0 -49 -10v-662q52 -125 153 -125q82 0 124 92
t42 246q0 203 -81.5 331t-188.5 128zM700 1417q-19 0 -38 -6t-41.5 -26t-38.5 -52t-26.5 -90.5t-8.5 -134.5l2 -74h311q8 59 31 119q-31 134 -84.5 199t-106.5 65z" />
    <glyph glyph-name="f_f_h" unicode="ffh" horiz-adv-x="2752" 
d="M743 0v82l109 24v801h-301v-803l102 -24v-80h-628v80l127 26v801h-150v80l152 51q29 93 82 172t117 132.5t139 91.5t148.5 55.5t143.5 17.5q91 0 162 -23t144 -69q90 66 196 99.5t209 33.5q129 0 254 -71l203 57v-635q173 168 350 168q141 0 224 -80t83 -227v-654
l127 -26v-80h-627v82l101 24v549q0 86 -44.5 137t-117.5 50q-56 -3 -96 -25v-711l96 -26v-80h-604v82l108 24v1121q-50 231 -163 231q-143 0 -140 -272v-152h219v-127h-217v-803l103 -24v-80h-611zM700 1417q-19 0 -38 -6t-41.5 -25.5t-38.5 -51.5t-26.5 -89.5t-8.5 -132.5
l2 -78h311q8 59 31 119q-31 134 -84.5 199t-106.5 65z" />
    <glyph glyph-name="f_f_j" unicode="ffj" horiz-adv-x="2093" 
d="M743 0v82l109 24v801h-301v-803l102 -24v-80h-628v80l127 26v801h-150v80l152 51q29 93 82 172t117 132.5t139 91.5t148.5 55.5t143.5 17.5q94 0 166.5 -23.5t145.5 -72.5q96 68 213 102.5t231 34.5q150 0 259.5 -63.5t109.5 -155.5q0 -68 -60.5 -110.5t-160.5 -42.5
q-52 0 -80 12l-82 225q-53 47 -115 47q-172 0 -164 -319l2 -107h539l166 33v-856v-34q0 -72 -0.5 -106t-4.5 -88t-13 -84.5t-25 -69t-41.5 -68.5t-61.5 -58q-104 -82 -242 -117t-220 -35l-13 43q93 74 124 108q76 87 91 231q4 44 4 96v878h-301v-803l166 -24v-80h-674z
M700 1417q-19 0 -38 -6t-41.5 -26t-38.5 -52t-26.5 -90.5t-8.5 -134.5l2 -74h311q8 57 31 117q-30 135 -83.5 200.5t-107.5 65.5z" />
    <glyph glyph-name="f_f_k" unicode="ffk" horiz-adv-x="2732" 
d="M743 0v82l109 24v801h-301v-803l102 -24v-80h-628v80l127 26v801h-150v80l152 51q29 93 82 172t117 132.5t139 91.5t148.5 55.5t143.5 17.5q91 0 162 -23t144 -69q90 66 196 99.5t209 33.5q129 0 254 -71l203 57v-1428l116 -26v-80h-624v82l108 24v1121q-50 231 -168 231
q-138 0 -135 -272v-152h219v-127h-217v-803l103 -24v-80h-611zM2497 -29q-123 0 -200.5 46.5t-139.5 162.5l-189 350l359 367l-189 59v78h561v-78l-174 -43l-229 -196l436 -684q-11 -7 -30.5 -17.5t-81 -27.5t-123.5 -17zM700 1417q-19 0 -38 -6t-41.5 -26t-38.5 -52
t-26.5 -90.5t-8.5 -134.5l2 -74h311q8 59 31 119q-31 134 -84.5 199t-106.5 65z" />
    <glyph glyph-name="f_h" unicode="fh" horiz-adv-x="2052" 
d="M743 0v82l109 24v1121q-54 231 -164 231q-142 0 -139 -270v-154h219v-127h-217v-803l102 -24v-80h-628v80l127 26v801h-150v80l152 51q32 157 129.5 274t231.5 176.5t286 59.5q131 0 250 -71l200 57v-635q173 168 351 168q141 0 224 -80t83 -227v-654l127 -26v-80h-627
v82l100 24v549q0 86 -44 137t-117 50q-57 -3 -97 -25v-711l97 -26v-80h-605z" />
    <glyph glyph-name="f_j" unicode="fj" horiz-adv-x="1392" 
d="M645 -449l-12 43q93 74 124 108q76 87 91 231q4 45 4 96v878h-301v-803l166 -24v-80h-692v80l127 26v801h-150v80l152 51q18 96 66 179.5t115.5 143t150.5 102.5t173 64t181 21q150 0 259 -63.5t109 -155.5q0 -68 -60.5 -110.5t-160.5 -42.5q-52 0 -80 12l-82 225
q-53 47 -114 47q-172 0 -164 -319l2 -107h538l166 33v-856q0 -197 -8 -258q-17 -135 -99 -216q-17 -18 -38 -34q-104 -82 -242.5 -117t-220.5 -35z" />
    <glyph glyph-name="f_k" unicode="fk" horiz-adv-x="2031" 
d="M743 0v82l109 24v1113q-19 105 -60 172t-102 67q-144 0 -141 -272v-152h219v-127h-217v-803l102 -24v-80h-628v80l127 26v801h-150v80l152 51q32 157 129.5 274t231.5 176.5t286 59.5q131 0 250 -71l200 57v-1428l117 -26v-80h-625zM1796 -29q-123 0 -200.5 46.5
t-139.5 162.5l-188 350l358 367l-188 59v78h561v-78l-174 -43l-230 -196l437 -684q-11 -7 -31 -17.5t-81.5 -27.5t-123.5 -17z" />
    <glyph glyph-name=".notdef" horiz-adv-x="358" 
 />
    <glyph glyph-name=".null" horiz-adv-x="0" 
 />
    <glyph glyph-name="nonmarkingreturn" horiz-adv-x="682" 
 />
    <glyph glyph-name="space" unicode=" " horiz-adv-x="358" 
 />
    <glyph glyph-name="exclam" unicode="!" horiz-adv-x="636" 
d="M78 1464h481l-209 -1044h-63zM315 -35q-75 0 -131.5 56t-56.5 131q0 76 56.5 132t131.5 56q78 0 133.5 -55.5t55.5 -132.5q0 -76 -56 -131.5t-133 -55.5z" />
    <glyph glyph-name="quotedbl" unicode="&#x22;" horiz-adv-x="983" 
d="M250 889l-133 577h315l-133 -577h-49zM684 889l-133 577h315l-133 -577h-49z" />
    <glyph glyph-name="numbersign" unicode="#" horiz-adv-x="1173" 
d="M137 799v94h248l57 324h88l-57 -324h322l57 324h88l-57 -324h235v-94h-252l-67 -379h229v-94h-246l-57 -326h-88l57 326h-321l-58 -326h-88l58 326h-238v94h254l68 379h-232zM457 799l-68 -379h322l67 379h-321z" />
    <glyph glyph-name="dollar" unicode="$" horiz-adv-x="1271" 
d="M166 49l-43 445h67l170 -344q61 -54 144 -68l63 383l-80 24q-170 51 -253.5 155.5t-83.5 250.5q0 83 36 161t104 142t178.5 103t246.5 40l33 199h79l-34 -203q148 -15 297 -71v-389h-68l-119 297q-47 47 -127 63l-63 -391l151 -47q301 -95 301 -334q0 -116 -52.5 -212
t-138.5 -156.5t-192 -93.5t-217 -34l-39 -237h-80l39 239q-162 13 -319 78zM803 264q0 125 -158 178l-61 -362q91 8 155 55.5t64 128.5zM487 1061q0 -68 34 -110.5t116 -76.5l61 371q-90 -5 -150.5 -57t-60.5 -127z" />
    <glyph glyph-name="percent" unicode="%" horiz-adv-x="1888" 
d="M406 -102l954 1390h102l-962 -1390h-94zM438 1176q-71 0 -71 -168q0 -86 20.5 -179t58.5 -160t82 -67q70 0 70 168q0 89 -20.5 182.5t-58.5 158.5t-81 65zM481 526q-176 0 -282.5 104.5t-106.5 250.5q0 160 114.5 265t274.5 105q165 0 278 -100.5t113 -251.5
q0 -162 -113.5 -267.5t-277.5 -105.5zM1362 623q-72 0 -72 -168q0 -86 20.5 -179t59 -160t82.5 -67q70 0 70 168q0 89 -20.5 182.5t-58.5 158.5t-81 65zM1405 -27q-176 0 -282.5 104.5t-106.5 250.5q0 160 114.5 265t274.5 105q165 0 278 -100.5t113 -251.5
q0 -162 -113.5 -267.5t-277.5 -105.5z" />
    <glyph glyph-name="ampersand" unicode="&#x26;" horiz-adv-x="1785" 
d="M1788 954l-195 -57l-350 -442q27 -31 68.5 -80t58.5 -68.5t46 -48t48.5 -38.5t46.5 -18.5t58 -8.5q81 0 157 32l29 -45q-97 -106 -200 -160.5t-226 -54.5q-55 0 -91.5 8t-76.5 35.5t-74 62t-96 105.5q-241 -217 -491 -217q-198 0 -318.5 110.5t-120.5 286.5
q0 138 94.5 238t258.5 162q-84 78 -123.5 150t-40.5 159q-2 99 64.5 179t182.5 124.5t257 44.5q208 0 323 -75.5t115 -192.5q0 -116 -87.5 -187t-250.5 -108q147 -138 221 -213q103 -108 111 -117q40 58 43 62l211 309l-213 61v82h561v-80zM731 457q-64 65 -155 150.5
t-101 94.5q-59 -75 -59 -186q0 -136 92 -210.5t219 -74.5q96 0 178 39zM586 1196q0 -68 39 -119.5t168 -171.5q100 100 100 240q0 85 -45.5 136.5t-120.5 51.5q-65 0 -103 -38.5t-38 -98.5z" />
    <glyph glyph-name="quotesingle" unicode="'" horiz-adv-x="548" 
d="M250 889l-133 577h315l-133 -577h-49z" />
    <glyph glyph-name="parenleft" unicode="(" horiz-adv-x="714" 
d="M731 -369h-98q-220 172 -346.5 417.5t-126.5 510.5q0 268 128.5 516t342.5 424h108q-174 -206 -262 -432t-88 -508q0 -272 86.5 -498.5t255.5 -429.5z" />
    <glyph glyph-name="parenright" unicode=")" horiz-adv-x="714" 
d="M-18 1497h98q220 -172 346.5 -417.5t126.5 -510.5q0 -268 -128.5 -516t-342.5 -424h-109q174 206 262.5 432t88.5 508q0 272 -86.5 498.5t-255.5 429.5z" />
    <glyph glyph-name="asterisk" unicode="*" horiz-adv-x="806" 
d="M768 1055l-240 -45l-4 -254l-45 -8l-114 219l-244 -72l-21 35l185 178l-152 205l27 28l231 -106l144 197l38 -13l-36 -248l233 -77z" />
    <glyph glyph-name="plus" unicode="+" horiz-adv-x="1163" 
d="M1067 465h-430v-430h-111v430h-430v102h430v430h111v-430h430v-102z" />
    <glyph glyph-name="comma" unicode="," horiz-adv-x="630" 
d="M86 -379l-43 74q119 76 172 144t53 141q0 69 -36.5 115.5t-98.5 64.5q-11 87 37 146t137 59q102 0 156.5 -72t54.5 -172q0 -151 -102 -269.5t-330 -230.5z" />
    <glyph glyph-name="hyphen" unicode="-" horiz-adv-x="757" 
d="M123 487v213h512v-213h-512z" />
    <glyph glyph-name="period" unicode="." horiz-adv-x="550" 
d="M281 -35q-75 0 -132 56t-57 131q0 76 57 132t132 56q78 0 133 -55.5t55 -132.5q0 -76 -55.5 -131.5t-132.5 -55.5z" />
    <glyph glyph-name="slash" unicode="/" horiz-adv-x="847" 
d="M45 -449l-88 35l737 1960l92 -37z" />
    <glyph glyph-name="zero" unicode="0" horiz-adv-x="1347" 
d="M598 1026q-109 0 -109 -256q0 -158 35 -324t97 -280.5t129 -114.5q55 0 78.5 68t23.5 215q0 151 -33.5 310.5t-94 270.5t-126.5 111zM674 -31q-136 0 -249.5 45.5t-188 123t-115.5 178t-41 210.5q0 125 47.5 234t128.5 185t189.5 119.5t228.5 43.5q165 0 301 -71.5
t214.5 -198.5t78.5 -283q0 -168 -80.5 -303t-216 -209t-297.5 -74z" />
    <glyph glyph-name="one" unicode="1" horiz-adv-x="960" 
d="M715 1112v-993l225 -35v-84h-877v84l248 35v751h-270v86l666 156h8z" />
    <glyph glyph-name="two" unicode="2" horiz-adv-x="1046" 
d="M506 338l-98 -57h604v-281h-961v111l197 157q181 146 244 231.5t63 168.5q0 80 -52.5 131t-127.5 51q-128 0 -240 -160l-69 25q53 197 171.5 299t284.5 102q159 0 267 -90t108 -240q0 -67 -23 -123.5t-75 -111t-120.5 -103.5t-172.5 -110z" />
    <glyph glyph-name="three" unicode="3" horiz-adv-x="1048" 
d="M379 -442q-98 0 -184.5 26t-144.5 79.5t-58 123.5q0 71 53.5 113.5t142.5 36.5l207 -297q104 10 175 83t71 199q0 123 -108.5 217.5t-315.5 100.5v133l80 10q166 61 232.5 131.5t66.5 159.5q0 90 -54 140t-136 50q-160 0 -261 -168l-77 27q52 183 165.5 288t286.5 105
q181 0 290.5 -92t109.5 -240q0 -65 -23.5 -119.5t-66.5 -95t-91.5 -70t-111.5 -55.5l-49 -20v-10q195 0 313.5 -97.5t118.5 -265.5q0 -90 -37 -170t-99.5 -138t-144 -100.5t-171 -63.5t-179.5 -21z" />
    <glyph glyph-name="four" unicode="4" horiz-adv-x="1355" 
d="M672 -389v416h-606v166l847 913l119 -19v-798h254v-262h-254v-416h-360zM270 289h402v434z" />
    <glyph glyph-name="five" unicode="5" horiz-adv-x="919" 
d="M416 45q0 123 -74.5 209.5t-226.5 171.5l182 645h510v-315h-518l-8 -29q260 -96 383.5 -226.5t123.5 -314.5q0 -103 -43 -196.5t-114.5 -165.5t-170.5 -134t-205 -105.5t-224 -76.5l-25 56q184 80 297 202t113 279z" />
    <glyph glyph-name="six" unicode="6" horiz-adv-x="1368" 
d="M1214 1454q-65 -32 -118.5 -61.5t-129.5 -79t-136 -100.5t-121 -122t-103 -147q99 47 211 47q92 0 177 -32t152 -90.5t107.5 -149.5t40.5 -199q0 -117 -40 -214t-103.5 -159.5t-145 -105.5t-161 -61.5t-154.5 -18.5q-170 0 -305.5 74t-215 216t-79.5 329q0 137 62.5 269
t170 239.5t248.5 197.5t299.5 151t321.5 91zM594 877h-21q-61 -141 -61 -304q0 -231 77 -377.5t173 -146.5q141 0 141 281q0 90 -19.5 183.5t-56 176t-97.5 135t-136 52.5z" />
    <glyph glyph-name="seven" unicode="7" horiz-adv-x="1110" 
d="M242 -430l-131 53l686 1079h-725v369h1022v-8l-701 -1215z" />
    <glyph glyph-name="eight" unicode="8" horiz-adv-x="1269" 
d="M70 301q0 52 21.5 98.5t54 80.5t78 63.5t87.5 48t88 33.5q-94 52 -150 98.5t-89 111.5t-33 150q0 76 36.5 150t103.5 134.5t173 98t234 37.5q113 0 204.5 -27.5t148 -72t86.5 -98.5t30 -111q0 -61 -28.5 -111.5t-76.5 -84t-93.5 -54.5t-96.5 -35l65 -33
q142 -74 214.5 -163t72.5 -207q0 -134 -77.5 -237t-210.5 -157.5t-298 -54.5q-250 0 -397 92.5t-147 249.5zM561 541l-82 41q-49 -86 -49 -213q0 -138 70 -233t174 -95q64 0 107.5 50t43.5 130q0 101 -63 175t-201 145zM455 1165q0 -82 45 -137.5t129 -99.5l141 -76
q49 86 49 201q0 129 -67 202.5t-152 73.5q-63 0 -104 -45.5t-41 -118.5z" />
    <glyph glyph-name="nine" unicode="9" horiz-adv-x="1351" 
d="M154 -377q270 136 420.5 264.5t216.5 278.5q-114 -60 -240 -60q-92 0 -177 32t-153 91t-108.5 151.5t-40.5 205.5q0 105 36.5 194.5t96.5 150t137 103.5t156.5 62.5t156.5 19.5q172 0 314 -76.5t226.5 -218.5t84.5 -321q0 -122 -39 -233.5t-104.5 -198.5t-156.5 -163.5
t-189.5 -132.5t-209 -101.5t-209.5 -74t-196 -47.5zM780 221h31q41 122 41 285q0 136 -34 256.5t-91.5 193t-122.5 72.5q-66 0 -102.5 -68.5t-36.5 -203.5q0 -92 20.5 -185t58.5 -172t100 -128.5t136 -49.5z" />
    <glyph glyph-name="colon" unicode=":" horiz-adv-x="630" 
d="M324 -35q-75 0 -131 56t-56 131q0 76 56 132t131 56q78 0 133 -55.5t55 -132.5q0 -76 -55.5 -131.5t-132.5 -55.5zM317 664q-75 0 -129.5 55.5t-54.5 132.5q0 75 54.5 131.5t129.5 56.5q78 0 134.5 -56.5t56.5 -131.5q0 -77 -56.5 -132.5t-134.5 -55.5z" />
    <glyph glyph-name="semicolon" unicode=";" horiz-adv-x="636" 
d="M96 -379l-43 74q119 76 172.5 144t53.5 141q0 69 -37 115.5t-99 64.5q-11 87 37 146t137 59q102 0 156.5 -72t54.5 -172q0 -151 -102 -269.5t-330 -230.5zM328 664q-75 0 -130 56t-55 132q0 75 55 131.5t130 56.5q78 0 134 -56t56 -132q0 -77 -56 -132.5t-134 -55.5z" />
    <glyph glyph-name="less" unicode="&#x3c;" horiz-adv-x="1204" 
d="M1087 891l-806 -375l806 -375v-116l-970 458v68l970 457v-117z" />
    <glyph glyph-name="equal" unicode="=" horiz-adv-x="1163" 
d="M1067 606h-971v101h971v-101zM1067 319h-971v101h971v-101z" />
    <glyph glyph-name="greater" unicode="&#x3e;" horiz-adv-x="1204" 
d="M117 141l807 375l-807 375v117l970 -459v-68l-970 -456v116z" />
    <glyph glyph-name="question" unicode="?" horiz-adv-x="950" 
d="M156 1108v383l120 -29q264 -60 426 -201.5t162 -326.5q0 -149 -70.5 -233t-242.5 -123l-207 -48v-110h-84l-67 399l407 80q103 20 139.5 39t36.5 49q0 36 -40.5 57t-146.5 34.5t-313 23.5zM309 -35q-75 0 -131.5 56t-56.5 131q0 76 56.5 132t131.5 56q78 0 133.5 -55.5
t55.5 -132.5q0 -76 -56 -131.5t-133 -55.5z" />
    <glyph glyph-name="at" unicode="@" horiz-adv-x="1974" 
d="M1006 305l14 60h-10l-43 -68q-150 -238 -308 -238q-77 0 -124.5 54t-47.5 143q0 82 30.5 175.5t86 180t126 157.5t159 114t176.5 43q43 0 117 -19l32 66h252l-137 -559q-24 -91 -16.5 -144t34.5 -74.5t76 -21.5q53 0 105 31t96 88.5t72.5 151.5t29.5 208
q4 274 -173 450.5t-453 176.5q-151 0 -293.5 -60t-256 -168.5t-183.5 -275t-72 -364.5q-1 -166 52.5 -299t147.5 -219t218.5 -131.5t269.5 -45.5q113 0 208.5 20.5t149.5 43.5v-43q-65 -40 -192.5 -72.5t-241.5 -32.5q-135 0 -257 27.5t-228.5 86.5t-183.5 145t-121 210
t-43 273q1 139 45.5 270t120.5 238.5t180 197t224 150.5t253 95t266 34q210 0 379.5 -87t263.5 -238t92 -335q-1 -134 -46 -246t-115.5 -185.5t-160.5 -125t-179.5 -74t-173.5 -22.5q-129 0 -186.5 73t-30.5 185zM854 285q36 0 107.5 112.5t121.5 264.5l52 163
q-36 39 -66 39q-59 0 -118 -91t-93.5 -214t-32.5 -221q0 -53 29 -53z" />
    <glyph glyph-name="A" unicode="A" horiz-adv-x="1466" 
d="M-2 0v84l125 35l512 1253l90 19l113 22l512 -1304l118 -25v-84h-755v84l159 29l-114 327h-393l-119 -313l221 -43v-84h-469zM569 979l-163 -430h313z" />
    <glyph glyph-name="B" unicode="B" horiz-adv-x="1406" 
d="M37 0v84l158 37v1118l-158 37v84l665 6q596 5 596 -307q0 -136 -117.5 -217.5t-314.5 -114.5v-6q246 -5 383 -91t137 -251q0 -202 -169.5 -293.5t-503.5 -89.5zM668 674h-60v-436q0 -67 46 -109.5t108 -42.5q94 0 146.5 63.5t52.5 178.5q0 136 -82 230.5t-211 115.5z
M608 1276v-524q84 13 143 37.5t89.5 59t43.5 72t13 83.5q0 117 -85 190.5t-204 81.5z" />
    <glyph glyph-name="C" unicode="C" horiz-adv-x="1486" 
d="M903 -23q-168 0 -307.5 37.5t-236 102.5t-163.5 154t-98.5 190t-31.5 211q0 152 68 287.5t183.5 232t276 153t338.5 56.5q215 0 446 -103v-421h-67l-176 329q-61 59 -118 86t-124 27q-150 0 -244 -145t-94 -406q0 -320 112 -509t289 -189q89 0 148 36l272 388h70
l-94 -435q-132 -44 -231.5 -63t-217.5 -19z" />
    <glyph glyph-name="D" unicode="D" horiz-adv-x="1626" 
d="M608 1294v-1149q65 -61 172 -61q64 0 124.5 37.5t108.5 105.5t77.5 173.5t29.5 230.5q0 300 -140.5 474.5t-371.5 188.5zM37 0v84l158 37v1118l-158 37v84h725q186 0 339 -48.5t257 -135t160.5 -207t56.5 -262.5q0 -104 -31 -202.5t-101.5 -191t-173.5 -161.5
t-257.5 -110.5t-343.5 -41.5h-631z" />
    <glyph glyph-name="E" unicode="E" horiz-adv-x="1333" 
d="M799 647h-185v-502q58 -61 162 -61h197l237 420h78l-76 -504h-1175v84l158 37v1118l-158 37v84h1208v-428h-78l-147 342h-406v-524h185l69 241h80v-573h-80z" />
    <glyph glyph-name="F" unicode="F" horiz-adv-x="1265" 
d="M840 621h-226v-500l213 -33v-88h-790v84l158 37v1118l-158 37v84h1167v-422h-78l-149 334h-363v-553h226l69 244h80v-576h-80z" />
    <glyph glyph-name="G" unicode="G" horiz-adv-x="1646" 
d="M909 -25q-149 0 -275.5 28t-217 77.5t-159.5 114.5t-110 142.5t-61 157t-20 162.5q0 168 73 310t196 236t284 146t339 52q208 0 484 -82l26 -442h-65l-238 352q-118 88 -237 88q-117 0 -205 -75.5t-133 -206.5t-45 -298q0 -162 33 -290.5t91 -209.5t133.5 -123t162.5 -42
q73 0 133 28v449l-228 33v102h756v-96l-127 -33v-479l-82 -21q-312 -80 -508 -80z" />
    <glyph glyph-name="H" unicode="H" horiz-adv-x="1746" 
d="M971 0v84l162 37v516h-519v-516l158 -37v-84h-735v84l158 37v1118l-158 37v84h735v-84l-158 -37v-487h519v487l-158 37v84h735v-84l-158 -37v-1118l158 -37v-84h-739z" />
    <glyph glyph-name="I" unicode="I" horiz-adv-x="808" 
d="M37 0v84l158 37v1118l-158 37v84h735v-84l-158 -37v-1118l158 -37v-84h-735z" />
    <glyph glyph-name="J" unicode="J" horiz-adv-x="796" 
d="M614 1239v-1036q0 -303 -168 -449.5t-516 -167.5l-10 52q119 72 175.5 131t78 129t21.5 190v1151l-179 37v84h756v-84z" />
    <glyph glyph-name="K" unicode="K" horiz-adv-x="1601" 
d="M37 0v84l158 37v1118l-158 37v84h735v-84l-158 -37v-1118l158 -37v-84h-735zM1071 0l-418 621v10l527 606l-195 39v84h520v-84l-186 -43l-336 -375l500 -747l131 -27v-84h-543z" />
    <glyph glyph-name="L" unicode="L" horiz-adv-x="1294" 
d="M614 145q56 -59 164 -59h146l264 477h76l-103 -563h-1124v84l158 37v1118l-158 37v84h735v-84l-158 -37v-1094z" />
    <glyph glyph-name="M" unicode="M" horiz-adv-x="1941" 
d="M16 0v84l164 37l76 1120l-174 35v84h598l315 -737l265 653l22 84h578v-84l-154 -35l61 -1120l158 -37v-84h-723v84l144 37l-48 1016l-340 -844l-100 -254h-53l-98 250l-361 819l-47 -981l227 -41v-86h-510z" />
    <glyph glyph-name="N" unicode="N" horiz-adv-x="1511" 
d="M1350 6l-183 -33l-850 1008l15 -856l227 -41v-84h-514v84l158 35v1014q-28 36 -47.5 57t-50.5 44t-64 32l-39 12v82h539l690 -815l-12 676l-222 57v82h506v-82l-157 -43v-1098z" />
    <glyph glyph-name="O" unicode="O" horiz-adv-x="1656" 
d="M858 68q126 0 201.5 141t75.5 428q0 180 -39.5 331t-118.5 246t-184 95q-120 0 -195.5 -143t-75.5 -431q0 -297 99 -482t237 -185zM831 1401q120 0 232 -28t210.5 -86t172 -140t116 -197.5t42.5 -251.5q0 -127 -43.5 -241.5t-119.5 -201t-175 -150.5t-214 -97t-233 -33
q-124 0 -238 30.5t-210 90.5t-167 143.5t-111 196t-40 242.5q0 151 65.5 287t173 230.5t249 150t290.5 55.5z" />
    <glyph glyph-name="P" unicode="P" horiz-adv-x="1327" 
d="M684 614v76q98 14 161.5 90.5t63.5 194.5q0 59 -17.5 112.5t-52.5 97t-93 70.5t-132 29v-1163l166 -37v-84h-743v84l158 37v1118l-158 37v84l647 2q179 1 317 -40t216.5 -120t78.5 -186q0 -98 -55.5 -178.5t-145.5 -129t-196.5 -73t-214.5 -21.5z" />
    <glyph glyph-name="Q" unicode="Q" horiz-adv-x="1656" 
d="M512 35q-208 72 -333.5 238.5t-125.5 404.5q0 151 65.5 287t173 230.5t249 150t290.5 55.5q120 0 232 -28t210.5 -86t172 -140t116 -197.5t42.5 -251.5q0 -121 -39.5 -229.5t-109.5 -192.5t-161.5 -146.5t-199.5 -98.5q77 -62 123 -97.5t115.5 -82t123 -70.5t121 -42
t133.5 -18q156 0 285 76l24 -35q-192 -206 -530 -206q-74 0 -143.5 9t-137 31t-123 43.5t-122.5 62t-112.5 69.5t-115 83t-109 86t-114.5 95zM858 57q128 0 202.5 139t74.5 439q0 182 -39 334t-118 247t-185 95q-122 0 -196.5 -144.5t-74.5 -437.5q0 -315 97.5 -493.5
t238.5 -178.5z" />
    <glyph glyph-name="R" unicode="R" horiz-adv-x="1505" 
d="M37 0v84l158 37v1118l-158 37v84h622q184 0 320 -27.5t213 -76.5t113 -109t36 -133q0 -109 -71.5 -197t-218.5 -145v-10l323 -551l131 -27v-84h-516l-346 590h-35v-469l146 -37v-84h-717zM608 1276v-592h146q87 26 141.5 102.5t54.5 169.5q0 139 -97.5 224t-244.5 96z
" />
    <glyph glyph-name="S" unicode="S" horiz-adv-x="1191" 
d="M117 55l-45 461h65l199 -379q92 -74 211 -74q90 0 149.5 57.5t59.5 141.5q0 85 -43.5 130t-145.5 83l-118 45q-175 65 -255.5 168.5t-80.5 251.5q0 80 35 158.5t103 147t183.5 111t259.5 42.5q173 0 365 -80v-395h-68l-155 344q-56 49 -150 49q-98 0 -159.5 -55.5
t-61.5 -139.5q0 -88 55 -138.5t178 -94.5l140 -49q288 -105 288 -351q0 -122 -50 -221.5t-134.5 -163t-192 -97.5t-225.5 -34q-176 0 -407 82z" />
    <glyph glyph-name="T" unicode="T" horiz-adv-x="1345" 
d="M1315 1360v-455h-64l-145 350h-223v-1134l200 -37v-84h-823v84l203 37v1134h-223l-146 -350h-63v455h1284z" />
    <glyph glyph-name="U" unicode="U" horiz-adv-x="1513" 
d="M758 -31q-102 0 -188.5 18t-161.5 58.5t-127.5 102.5t-82.5 154.5t-30 209.5v727l-158 37v84h783v-84l-201 -37v-723q0 -95 25 -167t69 -114.5t98 -63.5t117 -21q138 0 228.5 90t89.5 272l-5 723l-202 41v84h491v-84l-155 -41v-668q0 -283 -147 -440.5t-443 -157.5z" />
    <glyph glyph-name="V" unicode="V" horiz-adv-x="1425" 
d="M608 -23l-493 1264l-117 35v84h758v-84l-185 -41l303 -866l314 866l-199 41v84h438v-84l-127 -41l-485 -1258h-207z" />
    <glyph glyph-name="W" unicode="W" horiz-adv-x="2125" 
d="M1360 -25l-295 846l-309 -846h-201l-436 1266l-121 33v86h684v-84l-121 -35l256 -868l201 585l-96 283l-88 35v84h690v-84l-168 -35l258 -838l272 826l-180 47v84h422v-84l-129 -41l-436 -1260h-203z" />
    <glyph glyph-name="X" unicode="X" horiz-adv-x="1490" 
d="M10 84l164 37l379 500l-383 620l-143 35v84h784v-84l-156 -35l222 -381h4l260 375l-172 41v84h467v-84l-156 -43l-344 -469l399 -643l156 -37v-84h-799v86l156 35l-236 405h-4l-282 -401l170 -41v-84h-486v84z" />
    <glyph glyph-name="Y" unicode="Y" horiz-adv-x="1404" 
d="M1274 1235l-350 -662v-452l161 -39v-82h-741v82l162 39v407l-381 711l-127 37v84h776v-84l-201 -37l289 -590l293 586l-211 41v84h463v-84z" />
    <glyph glyph-name="Z" unicode="Z" horiz-adv-x="1355" 
d="M51 0v86l688 1171h-432l-174 -358h-67l14 461h1180v-25l-754 -1235h534l236 394h70l-91 -494h-1204z" />
    <glyph glyph-name="bracketleft" unicode="[" horiz-adv-x="655" 
d="M625 -371h-459v1872h459v-98h-205v-1675h205v-99z" />
    <glyph glyph-name="backslash" unicode="\" horiz-adv-x="847" 
d="M899 -414l-88 -35l-741 1958l92 37z" />
    <glyph glyph-name="bracketright" unicode="]" horiz-adv-x="655" 
d="M31 1501h458v-1872h-458v99h205v1675h-205v98z" />
    <glyph glyph-name="asciicircum" unicode="^" horiz-adv-x="1024" 
d="M193 993h-101l367 555h106l365 -555h-125l-301 379z" />
    <glyph glyph-name="underscore" unicode="_" horiz-adv-x="835" 
d="M8 -471v102h819v-102h-819z" />
    <glyph glyph-name="grave" unicode="`" 
d="M213 1587h285l108 -395h-84l-309 381v14z" />
    <glyph glyph-name="a" unicode="a" horiz-adv-x="1138" 
d="M330 -31q-126 0 -204.5 79t-78.5 190q0 124 84.5 192t286.5 115l192 45v180q-9 80 -44.5 131t-106.5 51q-33 0 -53 -10l-5 -262q-63 -29 -168 -29q-71 0 -112 33t-41 98q0 69 75 135t201.5 108t264.5 42q182 0 280 -80t98 -262v-506q0 -57 18 -71.5t66 -14.5h62v-59
q-20 -11 -53 -28t-117.5 -45t-147.5 -28q-93 0 -144 37.5t-58 130.5h-9q-108 -172 -286 -172zM541 168q37 0 69 22v320h-2q-100 -29 -148 -82t-48 -117q0 -67 36 -105t93 -38z" />
    <glyph glyph-name="b" unicode="b" horiz-adv-x="1290" 
d="M541 -31q-192 0 -357 74l-71 33v1171l-123 86v43l522 152v-621q132 150 317 150q77 0 149 -29.5t132 -85t96.5 -146.5t36.5 -204q0 -114 -42.5 -215t-113.5 -174.5t-162 -127t-189.5 -80t-194.5 -26.5zM565 864q-30 0 -53 -10v-678q46 -113 147 -113q84 0 130.5 95
t46.5 248q0 203 -82 330.5t-189 127.5z" />
    <glyph glyph-name="c" unicode="c" horiz-adv-x="1067" 
d="M567 -27q-120 0 -219 42t-164.5 115t-101 170.5t-35.5 209.5q0 125 47 231t126 176.5t182.5 110t215.5 39.5q167 0 277.5 -80.5t110.5 -191.5q0 -75 -52.5 -114.5t-136.5 -39.5q-70 0 -108 21l-60 288q-34 37 -88 37q-71 0 -113 -75t-42 -193q0 -121 30 -215t82 -151.5
t119 -87t145 -29.5q54 0 111.5 15t88.5 29l30 15l24 -43q-93 -145 -215.5 -212t-253.5 -67z" />
    <glyph glyph-name="d" unicode="d" horiz-adv-x="1302" 
d="M596 1368v39l567 127v-1391l109 -28v-68l-465 -72l-31 131q-119 -137 -309 -137q-179 0 -299.5 138.5t-120.5 365.5q0 126 51 233.5t139 180.5t208 114t257 41h62v242zM707 160q33 0 57 12v672q-70 127 -154 127q-69 0 -117.5 -83t-48.5 -257q0 -214 80.5 -342.5
t182.5 -128.5z" />
    <glyph glyph-name="e" unicode="e" horiz-adv-x="1112" 
d="M557 -27q-148 0 -265 71t-181 195t-64 277q0 116 48.5 220t125.5 175.5t174 113.5t193 42q108 0 189.5 -32t134.5 -94.5t83.5 -145.5t44.5 -193h-651q8 -90 45.5 -162.5t93 -117t120 -68t132.5 -23.5q111 0 242 62l31 -45q-212 -275 -496 -275zM516 975q-54 0 -90 -70.5
t-39 -220.5h272q-6 127 -44.5 209t-98.5 82z" />
    <glyph glyph-name="f" unicode="f" horiz-adv-x="802" 
d="M25 0v80l127 26v801h-150v80l152 51l12 52q49 203 216 330.5t370 127.5q134 0 238 -57.5t104 -149.5q0 -54 -26.5 -91.5t-66.5 -51t-88 -17.5t-90 9l-65 219q-35 51 -94 51q-58 0 -90 -59.5t-29 -186.5l4 -180h268v-127h-266v-801l166 -26v-80h-692z" />
    <glyph glyph-name="g" unicode="g" horiz-adv-x="1191" 
d="M1192 901l-242 14l-6 -10q94 -82 94 -192q0 -140 -125.5 -237t-341.5 -97q-117 0 -215 31q-24 -24 -24 -54q0 -70 102 -73l447 -13q136 -4 207 -73t71 -185q0 -137 -99 -252.5t-261.5 -181t-347.5 -65.5q-211 0 -318.5 66.5t-107.5 174.5q0 74 45 121t131 80v10
q-68 28 -105 82.5t-37 116.5q0 74 47.5 136.5t165.5 139.5v6q-87 45 -133.5 116.5t-46.5 154.5q0 103 65.5 183.5t172.5 122.5t235 42q45 0 88.5 -5.5t75.5 -12t107 -24.5q19 -5 30 -7l326 31v-146zM834 -96l-521 22q-24 -39 -24 -84q0 -98 87.5 -150t223.5 -52
q152 0 233.5 54.5t81.5 115.5q0 35 -22 61t-59 33zM432 793q3 -134 53 -232.5t117 -97.5q45 0 71.5 53t26.5 146q0 133 -51.5 228t-120.5 95q-45 0 -71 -51t-25 -141z" />
    <glyph glyph-name="h" unicode="h" horiz-adv-x="1351" 
d="M709 0v82l100 24v549q0 86 -44.5 137t-117.5 50q-56 -3 -96 -25v-711l96 -26v-80h-622v80l127 26v1156l-123 81v43l522 148v-635q173 168 350 168q141 0 224 -80t83 -227v-654l127 -26v-80h-626z" />
    <glyph glyph-name="i" unicode="i" horiz-adv-x="706" 
d="M27 0v80l131 26v711l-129 105v41l530 104v-961l129 -26v-80h-661zM369 1161q-78 0 -132.5 55t-54.5 134q0 78 54.5 134t132.5 56q79 0 135.5 -56t56.5 -134q0 -79 -56 -134t-136 -55z" />
    <glyph glyph-name="j" unicode="j" horiz-adv-x="698" 
d="M-49 -449l-12 43q93 74 124 108q76 87 91 231q4 44 4 96v788l-129 105v41l530 104v-856q0 -74 -1 -115t-5.5 -96t-14.5 -89.5t-27.5 -74.5t-44.5 -71.5t-65 -61.5q-104 -82 -237 -117t-213 -35zM367 1161q-78 0 -132.5 55t-54.5 134q0 78 54.5 134t132.5 56
q79 0 135.5 -56t56.5 -134q0 -79 -56 -134t-136 -55z" />
    <glyph glyph-name="k" unicode="k" horiz-adv-x="1331" 
d="M152 106v1156l-123 81v43l522 148v-1428l117 -26v-80h-643v80zM1096 -29q-123 0 -200.5 46.5t-139.5 162.5l-189 350l359 367l-189 59v78h561v-78l-174 -43l-229 -196l436 -684q-11 -7 -30.5 -17.5t-81 -27.5t-123.5 -17z" />
    <glyph glyph-name="l" unicode="l" horiz-adv-x="690" 
d="M25 0v80l127 26v1156l-123 81v43l522 148v-1428l123 -26v-80h-649z" />
    <glyph glyph-name="m" unicode="m" horiz-adv-x="2009" 
d="M1366 0v82l100 24v547q0 87 -43.5 138t-117.5 51q-52 0 -97 -25v-711l97 -26v-80h-596v82l100 24v549q0 87 -43.5 137t-118.5 50q-50 0 -96 -27v-709l96 -26v-80h-622v80l127 26v711l-123 90v43l463 121h10l22 -192h4q183 188 373 188q225 0 281 -188h4q183 188 373 188
q141 0 224 -80t83 -227v-654l127 -26v-80h-627z" />
    <glyph glyph-name="n" unicode="n" horiz-adv-x="1351" 
d="M25 0v80l127 26v711l-123 90v43l463 121h10l22 -192h4q183 188 373 188q141 0 224 -80t83 -227v-654l127 -26v-80h-626v82l100 24v549q0 86 -44.5 137t-117.5 50q-56 -3 -96 -25v-711l96 -26v-80h-622z" />
    <glyph glyph-name="o" unicode="o" horiz-adv-x="1290" 
d="M606 985q-41 0 -70 -32.5t-42.5 -87.5t-19 -107t-5.5 -111q0 -159 27 -295.5t76.5 -219.5t109.5 -83q135 0 135 354q0 152 -25.5 284t-74.5 215t-111 83zM645 -31q-140 0 -254.5 44t-187.5 118.5t-112.5 171t-39.5 203.5q0 161 78.5 289.5t214 199t301.5 70.5
q259 0 426.5 -151t167.5 -382q0 -163 -78 -292t-213 -200t-303 -71z" />
    <glyph glyph-name="p" unicode="p" horiz-adv-x="1329" 
d="M0 -430v80l152 26v1141l-123 90v43l463 121h10l20 -192h4q137 176 338 176q78 0 151.5 -29.5t133.5 -84.5t96.5 -145.5t36.5 -201.5q0 -134 -55.5 -250.5t-146.5 -194.5t-208 -122.5t-239 -44.5h-82v-297l227 -37v-78h-778zM600 864q-26 0 -49 -10v-680q20 -47 55.5 -79
t85.5 -32q81 0 131.5 94.5t50.5 256.5q0 208 -82.5 329t-191.5 121z" />
    <glyph glyph-name="q" unicode="q" horiz-adv-x="1304" 
d="M537 -430v78l227 37v413q-118 -129 -297 -129q-83 0 -158.5 34.5t-134 97.5t-93 159.5t-34.5 212.5q0 104 34.5 196t92.5 159t133 116t157.5 73.5t164.5 24.5q118 0 194 -43l334 66h6v-1389l152 -26v-80h-778zM713 162q32 0 51 8v684q-65 117 -152 117q-29 0 -56 -16.5
t-52 -53t-40 -106t-15 -164.5q0 -215 81.5 -342t182.5 -127z" />
    <glyph glyph-name="r" unicode="r" horiz-adv-x="972" 
d="M25 0v80l127 26v711l-123 90v43l471 121h12l14 -274h11l32 71q45 101 101.5 149t146.5 48q75 0 131 -49.5t56 -136.5q0 -99 -68 -154.5t-199 -52.5l-104 114q-26 -13 -51.5 -41t-30.5 -61v-578l192 -26v-80h-718z" />
    <glyph glyph-name="s" unicode="s" horiz-adv-x="993" 
d="M408 -31q-86 0 -159.5 15.5t-168.5 48.5l-14 344h67l143 -264q18 -21 57 -39.5t81 -18.5q73 0 117 36.5t44 98.5q0 100 -118 144l-150 55q-229 83 -229 320q0 160 132 261t361 101q148 0 308 -61v-320h-62l-129 242q-62 51 -133 51q-61 0 -101 -35t-40 -90t32.5 -88
t94.5 -57l147 -56q240 -87 240 -292q0 -173 -148.5 -284.5t-371.5 -111.5z" />
    <glyph glyph-name="t" unicode="t" horiz-adv-x="823" 
d="M430 -31q-302 0 -299 314l6 624h-149v76l151 57l359 244h32v-250h301v-127h-301v-631q20 -73 74.5 -104t124.5 -31q37 0 92 11l13 -68q-100 -54 -194.5 -84.5t-209.5 -30.5z" />
    <glyph glyph-name="u" unicode="u" horiz-adv-x="1331" 
d="M815 -23l-24 158q-178 -166 -353 -166q-37 0 -71 5.5t-69.5 18t-64.5 36.5t-52 57t-35.5 82.5t-12.5 110.5v563l-123 67v49l522 97v-697q0 -82 31.5 -127t116.5 -45q52 0 104 25v643l-120 66v51l520 92v-922l127 -24v-68z" />
    <glyph glyph-name="v" unicode="v" horiz-adv-x="1087" 
d="M612 -27h-147l-402 963l-88 20v78h650v-78l-133 -18l180 -524l10 -43h2l12 43l195 518l-121 24v78h344v-78l-100 -20z" />
    <glyph glyph-name="w" unicode="w" horiz-adv-x="1699" 
d="M1067 1034l254 -575l16 -47h2l13 49l133 471l-162 24v78h397v-78l-112 -20l-326 -963h-164l-235 523l-21 53h-2l-18 -51l-215 -525h-168l-365 963l-114 20v78h698v-78l-146 -20l154 -465l19 -68h2l22 68l217 563h121z" />
    <glyph glyph-name="x" unicode="x" horiz-adv-x="1220" 
d="M776 614l330 -508l96 -26v-80h-637v82l92 24l-163 259l-183 -254l99 -33v-78h-383v78l129 33l278 346l-313 481l-84 20v76h629v-78l-93 -18l146 -233l170 227l-105 26v76h369v-78l-117 -24z" />
    <glyph glyph-name="y" unicode="y" horiz-adv-x="1099" 
d="M899 932l-111 24v78h322v-78l-88 -20l-492 -1188q-45 -110 -106 -166.5t-150 -56.5q-78 0 -135 54.5t-57 139.5q0 84 56 138.5t136 54.5q130 0 175 -125h4l45 111l-430 1040l-78 18v78h631v-78l-125 -16l192 -573z" />
    <glyph glyph-name="z" unicode="z" horiz-adv-x="1075" 
d="M37 0v49l518 883h-272l-146 -316h-67v443l184 -25h776v-12l-538 -920h280l195 342h71l-47 -444h-954z" />
    <glyph glyph-name="braceleft" unicode="{" horiz-adv-x="671" 
d="M195 569v-10q86 -7 137.5 -21t84.5 -45t44.5 -77t9.5 -121l-8 -375q-3 -121 40.5 -166t158.5 -45v-80l-35 -2q-233 -13 -336.5 83.5t-89.5 277.5l30 381q6 80 -15.5 113t-82.5 34l-82 2v94l82 2q61 1 82.5 34.5t15.5 113.5l-30 381q-14 181 89.5 277t336.5 83l35 -2v-78
q-115 0 -158.5 -45.5t-40.5 -167.5l8 -381q3 -140 -53.5 -193.5t-222.5 -66.5z" />
    <glyph glyph-name="bar" unicode="|" horiz-adv-x="471" 
d="M283 -430h-95v1964h95v-1964z" />
    <glyph glyph-name="braceright" unicode="}" horiz-adv-x="671" 
d="M477 561v10q-86 7 -137.5 21.5t-84.5 45t-44.5 77t-9.5 121.5l8 374q3 121 -40.5 166t-158.5 45v80l35 2q233 13 336.5 -83t89.5 -277l-31 -381q-6 -80 16 -113.5t83 -34.5l82 -2v-94l-82 -2q-61 -1 -83 -34t-16 -113l31 -381q14 -181 -89.5 -277.5t-336.5 -83.5l-35 2
v78q115 0 158.5 45.5t40.5 167.5l-8 381q-3 140 53.5 193.5t222.5 66.5z" />
    <glyph glyph-name="asciitilde" unicode="~" horiz-adv-x="1110" 
d="M80 371l-57 26l22 64q136 390 479 270l146 -49q56 -20 87.5 -29.5t66.5 -14.5t55.5 0.5t47 21t48.5 41t53 67.5l55 -27l-22 -65q-77 -206 -196.5 -279t-301.5 -10l-106 37q-69 24 -103 35t-75 19.5t-60.5 5t-46 -16.5t-46 -35.5t-46.5 -60.5z" />
    <glyph glyph-name="uni00A0" unicode="&#xa0;" horiz-adv-x="358" 
 />
    <glyph glyph-name="exclamdown" unicode="&#xa1;" horiz-adv-x="636" 
d="M559 -242h-481l209 1045h63zM322 1257q75 0 131.5 -55.5t56.5 -130.5q0 -76 -56.5 -132t-131.5 -56q-78 0 -133.5 55.5t-55.5 132.5q0 75 55.5 130.5t133.5 55.5z" />
    <glyph glyph-name="cent" unicode="&#xa2;" horiz-adv-x="1124" 
d="M442 -266l41 250q-189 34 -296 179t-107 347q0 165 81.5 294.5t208 196t269.5 66.5h25l36 213h80l-37 -223q135 -24 219.5 -99t84.5 -163q0 -68 -43.5 -105t-116.5 -37q-69 0 -99 19l-26 243q-25 29 -37 39l-115 -684q73 -49 178 -49q65 0 127.5 18.5t92.5 36.5l30 19
l25 -43q-93 -145 -215 -212t-252 -67q-23 0 -35 2l-39 -241h-80zM440 639q0 -193 101 -309l110 657h-10q-82 0 -141.5 -83.5t-59.5 -264.5z" />
    <glyph glyph-name="sterling" unicode="&#xa3;" horiz-adv-x="1544" 
d="M311 528v115h275l14 70q24 115 85.5 218t139.5 175t167 125t171 78.5t148 25.5q104 0 177 -60t73 -126q0 -71 -71 -119t-171 -59q-50 256 -141 256q-52 0 -84 -56t-54 -182l-57 -309l-8 -37h332l-2 -115h-367q-116 -280 -418 -444q26 -15 72.5 -43t66.5 -39l99 -57
q35 -21 96 -58q159 -96 216 -125.5t95 -29.5q146 0 78 323q122 15 186 -14.5t64 -97.5q0 -79 -86 -166.5t-216 -146t-247 -58.5q-137 0 -261 84.5t-263 257.5l-76 94q-118 -39 -190 -39q-67 0 -110.5 32.5t-43.5 90.5q0 62 47.5 96.5t124.5 34.5q91 0 244 -80
q88 106 131 312l14 73h-250z" />
    <glyph glyph-name="yen" unicode="&#xa5;" horiz-adv-x="1335" 
d="M102 526v80h328l-303 578l-127 37v84h711v-84l-148 -37l238 -531h4l264 529l-176 39v84h442v-84l-135 -41l-317 -574h344v-80h-367v-159h367v-82h-367v-162l189 -41v-82h-768v82l188 39v164h-367v82h367v159h-367z" />
    <glyph glyph-name="brokenbar" unicode="&#xa6;" horiz-adv-x="468" 
d="M281 641h-93v893h93v-893zM281 -430h-93v893h93v-893z" />
    <glyph glyph-name="section" unicode="&#xa7;" horiz-adv-x="1124" 
d="M600 -258q0 54 -38.5 120.5t-157.5 236.5q-16 24 -25 36l-66 94q-124 177 -168.5 282t-44.5 224q0 95 40.5 184t107.5 156t151 123t173 91.5t172 55t149 19.5q102 0 161.5 -45.5t59.5 -114.5q0 -56 -39 -102.5t-100 -63.5q-135 90 -285 172q-74 0 -135 -18v-29
q0 -48 37.5 -112.5t142.5 -214.5q27 -37 41 -58l66 -94q124 -178 168.5 -283.5t44.5 -222.5q0 -95 -41 -184t-107.5 -156t-150.5 -123t-172.5 -91.5t-171 -55t-148.5 -19.5q-106 0 -164.5 47t-58.5 121q0 53 38 97t99 63q139 -94 289 -174q73 0 131 18q2 6 2 21zM336 868
q0 -86 29 -162t100 -190l115 -186q82 -134 121.5 -226t39.5 -180q0 -43 -28 -129h14q92 92 92 250q0 86 -29 162t-100 190l-115 187q-85 139 -123.5 227t-37.5 178q0 59 28 129h-14q-92 -92 -92 -250z" />
    <glyph glyph-name="dieresis" unicode="&#xa8;" 
d="M184 1180q-71 0 -121.5 50t-50.5 120q0 69 51 120.5t121 51.5q69 0 120.5 -51.5t51.5 -120.5q0 -70 -51 -120t-121 -50zM633 1180q-69 0 -118.5 50t-49.5 120q0 69 49.5 120.5t118.5 51.5t121.5 -51.5t52.5 -120.5q0 -70 -52 -120t-122 -50z" />
    <glyph glyph-name="copyright" unicode="&#xa9;" horiz-adv-x="1624" 
d="M88 692q0 198 97 364t263.5 261.5t364.5 95.5q148 0 282 -56.5t230.5 -152.5t153.5 -230t57 -282q0 -199 -97 -365.5t-263.5 -262t-364.5 -95.5q-150 0 -284 55.5t-230 151.5t-152.5 230.5t-56.5 285.5zM160 692q0 -133 52.5 -255t140.5 -210t209 -140t253 -52
q175 0 324.5 87.5t238 239t88.5 330.5t-89 330.5t-238.5 238.5t-323.5 87q-132 0 -253 -51.5t-209 -139t-140.5 -209.5t-52.5 -256zM860 276q-116 0 -207 34t-146.5 92t-84.5 131t-29 155q0 114 67 209.5t184.5 151t258.5 55.5q112 0 236 -62v-243h-58l-90 190
q-49 49 -119 49q-72 0 -122 -84.5t-50 -218.5q0 -186 59 -286.5t148 -100.5q39 0 64 14l145 216h60l-62 -250q-126 -52 -254 -52z" />
    <glyph glyph-name="ordfeminine" unicode="&#xaa;" horiz-adv-x="937" 
d="M281 512q-91 0 -155.5 57.5t-64.5 151.5q0 93 63.5 147.5t205.5 85.5l170 37v154q-5 55 -34.5 94t-84.5 39q-25 0 -45 -8l-21 -199q-48 -33 -110 -33q-117 0 -117 95q0 89 126.5 161t274.5 72q173 0 244.5 -65.5t71.5 -208.5v-379q0 -44 13 -58t52 -14h48v-59
q-15 -8 -40 -19.5t-91 -31t-119 -19.5q-73 0 -112 34t-42 95h-10q-41 -58 -92 -93.5t-131 -35.5zM436 672q37 0 64 18v232q-85 -26 -121.5 -60t-36.5 -88q0 -42 25 -72t69 -30z" />
    <glyph glyph-name="guillemotleft" unicode="&#xab;" horiz-adv-x="1042" 
d="M461 827l47 -39l-203 -329l203 -367l-47 -33l-369 359v55zM862 827l47 -39l-202 -329l202 -367l-47 -33l-368 359v55z" />
    <glyph glyph-name="logicalnot" unicode="&#xac;" horiz-adv-x="1163" 
d="M96 567h971v-422h-111v320h-860v102z" />
    <glyph glyph-name="registered" unicode="&#xae;" horiz-adv-x="1077" 
d="M72 1096q0 192 138 325t333 133q126 0 232.5 -60t168.5 -165.5t62 -232.5q0 -126 -63.5 -231t-172 -165.5t-235.5 -60.5q-126 0 -232.5 60t-168.5 165t-62 232zM145 1096q0 -166 114 -281t278 -115q169 0 283 114t114 282q0 167 -114 281t-283 114q-166 0 -279 -114
t-113 -281zM270 874v46l58 10v364l-58 9v45h260q238 0 238 -131q0 -82 -115 -125v-2l127 -160l47 -10v-46h-198l-60 80l-69 93h-13v-121l39 -8v-44h-256zM487 1309v-215h45q72 30 72 100q0 43 -33 78.5t-84 36.5z" />
    <glyph glyph-name="macron" unicode="&#xaf;" 
d="M96 1270v164h627v-164h-627z" />
    <glyph glyph-name="degree" unicode="&#xb0;" horiz-adv-x="624" 
d="M41 1235q0 112 81 191t195 79q115 0 191 -78t76 -192q0 -113 -81 -192.5t-194 -79.5q-116 0 -192 78.5t-76 193.5zM125 1235q0 -85 53.5 -143t134.5 -58t135 58t54 143t-54 143t-135 58t-134.5 -58t-53.5 -143z" />
    <glyph glyph-name="plusminus" unicode="&#xb1;" horiz-adv-x="1163" 
d="M1067 659h-430v-430h-111v430h-430v103h430v430h111v-430h430v-103zM96 0v102h971v-102h-971z" />
    <glyph glyph-name="acute" unicode="&#xb4;" 
d="M322 1587h284v-14l-309 -381h-84z" />
    <glyph glyph-name="paragraph" unicode="&#xb6;" horiz-adv-x="1153" 
d="M1092 1360v-84l-158 -37v-1102q0 -148 -37 -259.5t-103.5 -177t-150 -97t-184.5 -31.5q-167 0 -266 95.5t-99 246.5q0 140 88 226.5t209 86.5q110 0 171 -59t61 -141q0 -89 -50 -136t-116 -47q-53 0 -89 37t-36 90l155 113v10q-38 56 -116 56q-69 0 -126 -59t-57 -165
q0 -110 74.5 -189t208.5 -79q62 0 113.5 20.5t95 64.5t68 123.5t24.5 188.5v1211h-108v-789h-109q-120 0 -222 59.5t-161 161t-59 220.5q0 183 129.5 312.5t312.5 129.5h537z" />
    <glyph glyph-name="periodcentered" unicode="&#xb7;" horiz-adv-x="561" 
d="M281 389q-75 0 -132 55.5t-57 130.5q0 76 57 132.5t132 56.5q78 0 133 -56t55 -133q0 -75 -55.5 -130.5t-132.5 -55.5z" />
    <glyph glyph-name="cedilla" unicode="&#xb8;" horiz-adv-x="583" 
d="M129 -506l-16 57q101 34 153.5 74t52.5 92q0 72 -98 103l133 188h76l-65 -90q93 -8 154 -48.5t61 -111.5q0 -93 -113.5 -161t-337.5 -103z" />
    <glyph glyph-name="ordmasculine" unicode="&#xba;" horiz-adv-x="1005" 
d="M475 1292q-90 0 -90 -264q0 -113 18.5 -217.5t53.5 -173t78 -68.5q88 0 88 273q0 110 -17.5 211.5t-52 170t-78.5 68.5zM504 496q-107 0 -194.5 35t-143 94t-85.5 135.5t-30 161.5q0 194 130 319t323 125q195 0 322.5 -120t127.5 -304q0 -196 -128 -321t-322 -125z" />
    <glyph glyph-name="guillemotright" unicode="&#xbb;" horiz-adv-x="1042" 
d="M582 59l-47 39l202 330l-202 367l47 32l368 -358v-55zM180 59l-47 39l203 330l-203 367l47 32l369 -358v-55z" />
    <glyph glyph-name="onequarter" unicode="&#xbc;" horiz-adv-x="1591" 
d="M1454 791v-457h109v-156h-109v-102l90 -21v-55h-438v55l102 19v104h-368v105l487 526zM471 1368v-711l123 -20v-66h-561v66l141 20v523h-151v53l413 135h35zM299 -160l-68 45l1102 1592l68 -45zM973 334h235v248z" />
    <glyph glyph-name="onehalf" unicode="&#xbd;" horiz-adv-x="1642" 
d="M1382 315l-159 -102h391v-213h-625v66l94 96q18 18 48.5 49.5t44 45.5t36.5 38.5t33 36.5t26 31.5t22.5 31t16 28t12.5 29.5t6 28.5t3 31.5q0 54 -35 89.5t-96 35.5q-46 0 -82.5 -26.5t-79.5 -75.5l-51 34q135 252 344 252q113 0 182.5 -63.5t69.5 -167.5q0 -87 -48 -147
t-153 -128zM471 1368v-711l123 -20v-66h-561v66l141 20v523h-151v53l413 135h35zM299 -160l-68 45l1102 1592l68 -45z" />
    <glyph glyph-name="threequarters" unicode="&#xbe;" horiz-adv-x="1599" 
d="M1462 791v-457h109v-156h-109v-102l90 -21v-55h-438v55l103 19v104h-369v105l487 526zM319 606q39 0 71 30t32 93q0 32 -12 63t-39.5 62.5t-82.5 50.5t-130 19v55q248 46 248 166q0 42 -29 70t-86 28t-107.5 -31.5t-85.5 -76.5l-49 26q40 103 127 167.5t221 64.5
q104 0 174 -51.5t70 -129.5q0 -72 -59.5 -123.5t-135.5 -66.5v-8q116 -12 175 -62.5t59 -130.5q0 -119 -103.5 -194.5t-275.5 -75.5q-106 0 -185 46.5t-79 115.5q0 41 32.5 69.5t86.5 28.5l92 -178q27 -27 71 -27zM307 -160l-67 45l1101 1592l68 -45zM981 334h236v248z" />
    <glyph glyph-name="questiondown" unicode="&#xbf;" horiz-adv-x="950" 
d="M838 115v-383l-121 28q-264 60 -426 202t-162 327q0 149 70.5 233t242.5 123l207 47v111h84l68 -400l-408 -79q-103 -20 -139.5 -39t-36.5 -49q0 -36 40.5 -57t146.5 -34.5t313 -23.5zM684 1257q75 0 131.5 -55.5t56.5 -130.5q0 -76 -56.5 -132t-131.5 -56
q-78 0 -133 55.5t-55 132.5q0 75 55 130.5t133 55.5z" />
    <glyph glyph-name="Agrave" unicode="&#xc0;" horiz-adv-x="1466" 
d="M-2 0v84l125 35l512 1253l90 19l113 22l512 -1304l118 -25v-84h-755v84l159 29l-114 327h-393l-119 -313l221 -43v-84h-469zM336 1772h303l162 -306h-117l-348 277v29zM569 979l-163 -430h313z" />
    <glyph glyph-name="Aacute" unicode="&#xc1;" horiz-adv-x="1466" 
d="M-2 0v84l125 35l512 1253l90 19l113 22l512 -1304l118 -25v-84h-755v84l159 29l-114 327h-393l-119 -313l221 -43v-84h-469zM827 1772h303v-29l-348 -277h-116zM569 979l-163 -430h313z" />
    <glyph glyph-name="Acircumflex" unicode="&#xc2;" horiz-adv-x="1466" 
d="M-2 0v84l125 35l512 1253l90 19l113 22l512 -1304l118 -25v-84h-755v84l159 29l-114 327h-393l-119 -313l221 -43v-84h-469zM535 1466h-101l191 306h219l200 -306h-112l-201 148zM569 979l-163 -430h313z" />
    <glyph glyph-name="Atilde" unicode="&#xc3;" horiz-adv-x="1466" 
d="M-2 0v84l125 35l512 1253l90 19l113 22l512 -1304l118 -25v-84h-755v84l159 29l-114 327h-393l-119 -313l221 -43v-84h-469zM772 1556l-94 25q-89 22 -137 23.5t-81.5 -18t-62.5 -70.5l-49 20l12 35q26 73 52 121t56.5 80t70.5 44t87.5 9.5t112.5 -19.5l92 -24
q71 -17 117 -17.5t90.5 23t81.5 78.5l49 -21l-18 -47q-31 -80 -58.5 -129.5t-57.5 -82t-68.5 -43t-84 -7.5t-110.5 20zM569 979l-163 -430h313z" />
    <glyph glyph-name="Adieresis" unicode="&#xc4;" horiz-adv-x="1466" 
d="M-2 0v84l125 35l512 1253l90 19l113 22l512 -1304l118 -25v-84h-755v84l159 29l-114 327h-393l-119 -313l221 -43v-84h-469zM471 1460q-71 0 -121.5 50t-50.5 120q0 69 51 120.5t121 51.5q69 0 120.5 -51.5t51.5 -120.5q0 -70 -51 -120t-121 -50zM995 1460
q-69 0 -118.5 50t-49.5 120q0 69 49.5 120.5t118.5 51.5t121.5 -51.5t52.5 -120.5q0 -70 -52 -120t-122 -50zM569 979l-163 -430h313z" />
    <glyph glyph-name="Aring" unicode="&#xc5;" horiz-adv-x="1466" 
d="M-2 0v84l125 35l512 1253l90 19l113 22l512 -1304l118 -25v-84h-755v84l159 29l-114 327h-393l-119 -313l221 -43v-84h-469zM504 1698q0 91 65.5 155t165.5 64q101 0 164.5 -62t63.5 -153t-65.5 -155t-166.5 -64t-164 62t-63 153zM569 979l-163 -430h313zM600 1702
q0 -61 39.5 -102t95.5 -41t93.5 39t37.5 100t-39.5 102t-95.5 41t-93.5 -39t-37.5 -100z" />
    <glyph glyph-name="AE" unicode="&#xc6;" horiz-adv-x="1996" 
d="M1462 610h-172v-460q59 -62 162 -62h182l240 416h78l-76 -504h-1159v84l157 37v495h-356l-260 -489l217 -43v-84h-477v84l121 35l624 1120l-194 37v84h1360v-428h-78l-150 338h-391v-563h172l70 243h80v-573h-80zM874 1257h-18l-291 -550h309v550z" />
    <glyph glyph-name="Ccedilla" unicode="&#xc7;" horiz-adv-x="1486" 
d="M596 -506l-16 57q101 34 153.5 74t52.5 92q0 72 -98 103l113 162q-183 13 -326.5 74.5t-231 157t-132.5 212t-45 246.5q0 152 68 287.5t183.5 232t276 153t338.5 56.5q215 0 446 -103v-421h-67l-176 329q-61 59 -118 86t-124 27q-150 0 -244 -145t-94 -406
q0 -320 112 -509t289 -189q89 0 148 36l272 388h70l-94 -435q-132 -44 -231.5 -63t-217.5 -19q-5 0 -14.5 1.5t-14.5 1.5l-43 -62q94 -8 155 -48.5t61 -111.5q0 -93 -113.5 -161t-337.5 -103z" />
    <glyph glyph-name="Egrave" unicode="&#xc8;" horiz-adv-x="1333" 
d="M799 647h-185v-502q58 -61 162 -61h197l237 420h78l-76 -504h-1175v84l158 37v1118l-158 37v84h1208v-428h-78l-147 342h-406v-524h185l69 241h80v-573h-80zM317 1772h304l161 -306h-116l-349 277v29z" />
    <glyph glyph-name="Eacute" unicode="&#xc9;" horiz-adv-x="1333" 
d="M799 647h-185v-502q58 -61 162 -61h197l237 420h78l-76 -504h-1175v84l158 37v1118l-158 37v84h1208v-428h-78l-147 342h-406v-524h185l69 241h80v-573h-80zM809 1772h303v-29l-348 -277h-117z" />
    <glyph glyph-name="Ecircumflex" unicode="&#xca;" horiz-adv-x="1333" 
d="M799 647h-185v-502q58 -61 162 -61h197l237 420h78l-76 -504h-1175v84l158 37v1118l-158 37v84h1208v-428h-78l-147 342h-406v-524h185l69 241h80v-573h-80zM492 1466h-101l191 306h219l200 -306h-112l-201 148z" />
    <glyph glyph-name="Edieresis" unicode="&#xcb;" horiz-adv-x="1333" 
d="M799 647h-185v-502q58 -61 162 -61h197l237 420h78l-76 -504h-1175v84l158 37v1118l-158 37v84h1208v-428h-78l-147 342h-406v-524h185l69 241h80v-573h-80zM418 1460q-71 0 -121.5 50t-50.5 120q0 69 51 120.5t121 51.5q69 0 120.5 -51.5t51.5 -120.5q0 -70 -51 -120
t-121 -50zM942 1460q-69 0 -118.5 50t-49.5 120q0 69 49.5 120.5t118.5 51.5t121.5 -51.5t52.5 -120.5q0 -70 -52 -120t-122 -50z" />
    <glyph glyph-name="Igrave" unicode="&#xcc;" horiz-adv-x="808" 
d="M37 0v84l158 37v1118l-158 37v84h735v-84l-158 -37v-1118l158 -37v-84h-735zM6 1772h303l162 -306h-117l-348 277v29z" />
    <glyph glyph-name="Iacute" unicode="&#xcd;" horiz-adv-x="808" 
d="M37 0v84l158 37v1118l-158 37v84h735v-84l-158 -37v-1118l158 -37v-84h-735zM498 1772h303v-29l-348 -277h-117z" />
    <glyph glyph-name="Icircumflex" unicode="&#xce;" horiz-adv-x="808" 
d="M37 0v84l158 37v1118l-158 37v84h735v-84l-158 -37v-1118l158 -37v-84h-735zM205 1466h-101l191 306h219l201 -306h-113l-201 156z" />
    <glyph glyph-name="Idieresis" unicode="&#xcf;" horiz-adv-x="808" 
d="M172 1450q-71 0 -121.5 50t-50.5 120q0 69 51 120.5t121 51.5q69 0 120.5 -51.5t51.5 -120.5q0 -70 -51 -120t-121 -50zM635 1450q-69 0 -118.5 50t-49.5 120q0 69 49.5 120.5t118.5 51.5t121.5 -51.5t52.5 -120.5q0 -70 -52 -120t-122 -50zM37 0v84l158 37v1118l-158 37
v84h735v-84l-158 -37v-1118l158 -37v-84h-735z" />
    <glyph glyph-name="Eth" unicode="&#xd0;" horiz-adv-x="1626" 
d="M37 0v84l158 37v530h-154v103h154v485l-158 37v84h725q186 0 339 -48.5t257 -135t160.5 -207t56.5 -262.5q0 -104 -31 -202.5t-101.5 -191t-173.5 -161.5t-257.5 -110.5t-343.5 -41.5h-631zM856 651h-248v-506q65 -61 172 -61q64 0 124.5 37.5t108.5 105.5t77.5 173.5
t29.5 230.5q0 300 -140.5 474.5t-371.5 188.5v-540h248v-103z" />
    <glyph glyph-name="Ntilde" unicode="&#xd1;" horiz-adv-x="1511" 
d="M1350 6l-183 -33l-850 1008l15 -856l227 -41v-84h-514v84l158 35v1014q-28 36 -47.5 57t-50.5 44t-64 32l-39 12v82h539l690 -815l-12 676l-222 57v82h506v-82l-157 -43v-1098zM844 1556l-94 25q-89 22 -137 23.5t-81.5 -18t-62.5 -70.5l-49 20l12 35q26 73 52 121
t56.5 80t70.5 44t87.5 9.5t112.5 -19.5l92 -24q71 -17 117 -17.5t90.5 23t81.5 78.5l49 -21l-18 -47q-31 -80 -58.5 -129.5t-57.5 -82t-68.5 -43t-84 -7.5t-110.5 20z" />
    <glyph glyph-name="Ograve" unicode="&#xd2;" horiz-adv-x="1656" 
d="M858 68q126 0 201.5 141t75.5 428q0 180 -39.5 331t-118.5 246t-184 95q-120 0 -195.5 -143t-75.5 -431q0 -297 99 -482t237 -185zM831 1401q120 0 232 -28t210.5 -86t172 -140t116 -197.5t42.5 -251.5q0 -127 -43.5 -241.5t-119.5 -201t-175 -150.5t-214 -97t-233 -33
q-124 0 -238 30.5t-210 90.5t-167 143.5t-111 196t-40 242.5q0 151 65.5 287t173 230.5t249 150t290.5 55.5zM430 1772h303l162 -306h-117l-348 277v29z" />
    <glyph glyph-name="Oacute" unicode="&#xd3;" horiz-adv-x="1656" 
d="M858 68q126 0 201.5 141t75.5 428q0 180 -39.5 331t-118.5 246t-184 95q-120 0 -195.5 -143t-75.5 -431q0 -297 99 -482t237 -185zM831 1401q120 0 232 -28t210.5 -86t172 -140t116 -197.5t42.5 -251.5q0 -127 -43.5 -241.5t-119.5 -201t-175 -150.5t-214 -97t-233 -33
q-124 0 -238 30.5t-210 90.5t-167 143.5t-111 196t-40 242.5q0 151 65.5 287t173 230.5t249 150t290.5 55.5zM922 1772h303v-29l-348 -277h-117z" />
    <glyph glyph-name="Ocircumflex" unicode="&#xd4;" horiz-adv-x="1656" 
d="M831 1401q120 0 232 -28t210.5 -86t172 -140t116 -197.5t42.5 -251.5q0 -127 -43.5 -241.5t-119.5 -201t-175 -150.5t-214 -97t-233 -33q-124 0 -238 30.5t-210 90.5t-167 143.5t-111 196t-40 242.5q0 151 65.5 287t173 230.5t249 150t290.5 55.5zM858 68
q126 0 201.5 141t75.5 428q0 180 -39.5 331t-118.5 246t-184 95q-120 0 -195.5 -143t-75.5 -431q0 -297 99 -482t237 -185zM629 1466h-101l191 306h219l201 -306h-113l-201 148z" />
    <glyph glyph-name="Otilde" unicode="&#xd5;" horiz-adv-x="1656" 
d="M858 68q126 0 201.5 141t75.5 428q0 180 -39.5 331t-118.5 246t-184 95q-120 0 -195.5 -143t-75.5 -431q0 -297 99 -482t237 -185zM831 1401q120 0 232 -28t210.5 -86t172 -140t116 -197.5t42.5 -251.5q0 -127 -43.5 -241.5t-119.5 -201t-175 -150.5t-214 -97t-233 -33
q-124 0 -238 30.5t-210 90.5t-167 143.5t-111 196t-40 242.5q0 151 65.5 287t173 230.5t249 150t290.5 55.5zM866 1556l-94 25q-67 16 -107 21.5t-74 -1.5t-55.5 -27t-43.5 -58l-50 20l13 35q26 73 52 121t56.5 80t70.5 44t87.5 9.5t112.5 -19.5l92 -24q71 -17 116.5 -17.5
t90 23t81.5 78.5l50 -21l-19 -47q-31 -80 -58.5 -129.5t-57.5 -82t-68.5 -43t-84 -7.5t-110.5 20z" />
    <glyph glyph-name="Odieresis" unicode="&#xd6;" horiz-adv-x="1656" 
d="M858 68q126 0 201.5 141t75.5 428q0 180 -39.5 331t-118.5 246t-184 95q-120 0 -195.5 -143t-75.5 -431q0 -297 99 -482t237 -185zM831 1401q120 0 232 -28t210.5 -86t172 -140t116 -197.5t42.5 -251.5q0 -127 -43.5 -241.5t-119.5 -201t-175 -150.5t-214 -97t-233 -33
q-124 0 -238 30.5t-210 90.5t-167 143.5t-111 196t-40 242.5q0 151 65.5 287t173 230.5t249 150t290.5 55.5zM565 1460q-71 0 -121.5 50t-50.5 120q0 69 51 120.5t121 51.5q69 0 120.5 -51.5t51.5 -120.5q0 -70 -51 -120t-121 -50zM1090 1460q-69 0 -118.5 50t-49.5 120
q0 69 49.5 120.5t118.5 51.5t121.5 -51.5t52.5 -120.5q0 -70 -52 -120t-122 -50z" />
    <glyph glyph-name="multiply" unicode="&#xd7;" horiz-adv-x="1163" 
d="M961 49l-381 385l-381 -385l-78 76l385 385l-377 375l84 84l375 -377l370 381l74 -78l-370 -377l380 -383z" />
    <glyph glyph-name="Oslash" unicode="&#xd8;" horiz-adv-x="1656" 
d="M49 -63l221 233q-217 194 -217 508q0 151 65.5 287t173 230.5t249 150t290.5 55.5q277 0 484 -139l131 137h115l-181 -189q224 -197 224 -512q0 -127 -43.5 -241.5t-119.5 -201t-175 -150.5t-214 -97t-233 -33q-276 0 -481 142l-172 -180h-117zM858 68q124 0 198 140.5
t74 428.5q0 147 -28 281l-524 -549q44 -142 118.5 -221.5t161.5 -79.5zM526 735q0 -137 27 -272l524 551q-43 136 -116 215.5t-168 79.5q-118 0 -192.5 -143.5t-74.5 -430.5z" />
    <glyph glyph-name="Ugrave" unicode="&#xd9;" horiz-adv-x="1513" 
d="M758 -31q-102 0 -188.5 18t-161.5 58.5t-127.5 102.5t-82.5 154.5t-30 209.5v727l-158 37v84h783v-84l-201 -37v-723q0 -95 25 -167t69 -114.5t98 -63.5t117 -21q138 0 228.5 90t89.5 272l-5 723l-202 41v84h491v-84l-155 -41v-668q0 -283 -147 -440.5t-443 -157.5z
M463 1772h303l162 -306h-117l-348 277v29z" />
    <glyph glyph-name="Uacute" unicode="&#xda;" horiz-adv-x="1513" 
d="M758 -31q-102 0 -188.5 18t-161.5 58.5t-127.5 102.5t-82.5 154.5t-30 209.5v727l-158 37v84h783v-84l-201 -37v-723q0 -95 25 -167t69 -114.5t98 -63.5t117 -21q138 0 228.5 90t89.5 272l-5 723l-202 41v84h491v-84l-155 -41v-668q0 -283 -147 -440.5t-443 -157.5z
M954 1772h303v-29l-348 -277h-116z" />
    <glyph glyph-name="Ucircumflex" unicode="&#xdb;" horiz-adv-x="1513" 
d="M758 -31q-102 0 -188.5 18t-161.5 58.5t-127.5 102.5t-82.5 154.5t-30 209.5v727l-158 37v84h783v-84l-201 -37v-723q0 -95 25 -167t69 -114.5t98 -63.5t117 -21q138 0 228.5 90t89.5 272l-5 723l-202 41v84h491v-84l-155 -41v-668q0 -283 -147 -440.5t-443 -157.5z
M662 1466h-101l191 306h219l200 -306h-112l-201 148z" />
    <glyph glyph-name="Udieresis" unicode="&#xdc;" horiz-adv-x="1513" 
d="M758 -31q-102 0 -188.5 18t-161.5 58.5t-127.5 102.5t-82.5 154.5t-30 209.5v727l-158 37v84h783v-84l-201 -37v-723q0 -95 25 -167t69 -114.5t98 -63.5t117 -21q138 0 228.5 90t89.5 272l-5 723l-202 41v84h491v-84l-155 -41v-668q0 -283 -147 -440.5t-443 -157.5z
M598 1460q-71 0 -121.5 50t-50.5 120q0 69 51 120.5t121 51.5q69 0 120.5 -51.5t51.5 -120.5q0 -70 -51 -120t-121 -50zM1122 1460q-69 0 -118.5 50t-49.5 120q0 69 49.5 120.5t118.5 51.5t121.5 -51.5t52.5 -120.5q0 -70 -52 -120t-122 -50z" />
    <glyph glyph-name="Yacute" unicode="&#xdd;" horiz-adv-x="1404" 
d="M1274 1235l-350 -662v-452l161 -39v-82h-741v82l162 39v407l-381 711l-127 37v84h776v-84l-201 -37l289 -590l293 586l-211 41v84h463v-84zM936 1772h303v-29l-348 -277h-117z" />
    <glyph glyph-name="Thorn" unicode="&#xde;" horiz-adv-x="1374" 
d="M37 0v84l158 37v1118l-158 37v84h735v-84l-158 -37v-182h134q292 0 438.5 -97t146.5 -251q0 -82 -38 -149.5t-101.5 -112.5t-147 -75.5t-172 -43.5t-178.5 -11v62q101 34 167.5 108.5t66.5 182.5q0 120 -86 206.5t-230 98.5v-854l158 -37v-84h-735z" />
    <glyph glyph-name="germandbls" unicode="&#xdf;" horiz-adv-x="1490" 
d="M25 0v80l127 26v801h-150v80l152 51q39 212 234 360t460 148q212 0 335.5 -77.5t123.5 -211.5q0 -52 -18.5 -95t-57.5 -79.5t-71 -59t-87 -54.5q-75 -44 -102 -67.5t-27 -49.5q0 -31 21.5 -47.5t91.5 -46.5l145 -62q129 -55 186.5 -129t57.5 -178q0 -181 -147 -299.5
t-375 -118.5q-151 0 -271 60l-2 313h60l100 -225q19 -21 52.5 -38.5t74.5 -17.5q76 0 117 46t41 106q0 61 -35 103t-115 77l-98 43q-164 71 -164 221q0 42 17.5 84t36 66.5t59 71.5t57.5 69q37 47 59 82t42 91.5t20 113.5q2 93 -50 153t-137 60q-106 0 -173.5 -89
t-67.5 -282v-1079h-522z" />
    <glyph glyph-name="agrave" unicode="&#xe0;" horiz-adv-x="1138" 
d="M330 -31q-126 0 -204.5 79t-78.5 190q0 124 84.5 192t286.5 115l192 45v180q-9 80 -44.5 131t-106.5 51q-33 0 -53 -10l-5 -262q-63 -29 -168 -29q-71 0 -112 33t-41 98q0 69 75 135t201.5 108t264.5 42q182 0 280 -80t98 -262v-506q0 -57 18 -71.5t66 -14.5h62v-59
q-20 -11 -53 -28t-117.5 -45t-147.5 -28q-93 0 -144 37.5t-58 130.5h-9q-108 -172 -286 -172zM219 1587h285l108 -395h-84l-309 381v14zM541 168q37 0 69 22v320h-2q-100 -29 -148 -82t-48 -117q0 -67 36 -105t93 -38z" />
    <glyph glyph-name="aacute" unicode="&#xe1;" horiz-adv-x="1138" 
d="M330 -31q-126 0 -204.5 79t-78.5 190q0 124 84.5 192t286.5 115l192 45v180q-9 80 -44.5 131t-106.5 51q-33 0 -53 -10l-5 -262q-63 -29 -168 -29q-71 0 -112 33t-41 98q0 69 75 135t201.5 108t264.5 42q182 0 280 -80t98 -262v-506q0 -57 18 -71.5t66 -14.5h62v-59
q-20 -11 -53 -28t-117.5 -45t-147.5 -28q-93 0 -144 37.5t-58 130.5h-9q-108 -172 -286 -172zM633 1587h285v-14l-310 -381h-84zM541 168q37 0 69 22v320h-2q-100 -29 -148 -82t-48 -117q0 -67 36 -105t93 -38z" />
    <glyph glyph-name="acircumflex" unicode="&#xe2;" horiz-adv-x="1138" 
d="M330 -31q-126 0 -204.5 79t-78.5 190q0 124 84.5 192t286.5 115l192 45v180q-9 80 -44.5 131t-106.5 51q-33 0 -53 -10l-5 -262q-63 -29 -168 -29q-71 0 -112 33t-41 98q0 69 75 135t201.5 108t264.5 42q182 0 280 -80t98 -262v-506q0 -57 18 -71.5t66 -14.5h62v-59
q-20 -11 -53 -28t-117.5 -45t-147.5 -28q-93 0 -144 37.5t-58 130.5h-9q-108 -172 -286 -172zM387 1192h-92l194 395h179l192 -395h-92l-197 207zM541 168q37 0 69 22v320h-2q-100 -29 -148 -82t-48 -117q0 -67 36 -105t93 -38z" />
    <glyph glyph-name="atilde" unicode="&#xe3;" horiz-adv-x="1138" 
d="M330 -31q-126 0 -204.5 79t-78.5 190q0 124 84.5 192t286.5 115l192 45v180q-9 80 -44.5 131t-106.5 51q-33 0 -53 -10l-5 -262q-63 -29 -168 -29q-71 0 -112 33t-41 98q0 69 75 135t201.5 108t264.5 42q182 0 280 -80t98 -262v-506q0 -57 18 -71.5t66 -14.5h62v-59
q-20 -11 -53 -28t-117.5 -45t-147.5 -28q-93 0 -144 37.5t-58 130.5h-9q-108 -172 -286 -172zM596 1223l-92 30q-82 27 -132 27t-80.5 -22.5t-60.5 -75.5l-49 20l13 35q64 181 150 235t239 1l90 -31q93 -33 158.5 -13t121.5 103l50 -21l-19 -47q-39 -99 -74 -156.5
t-81 -86.5t-100.5 -27.5t-133.5 29.5zM541 168q37 0 69 22v320h-2q-100 -29 -148 -82t-48 -117q0 -67 36 -105t93 -38z" />
    <glyph glyph-name="adieresis" unicode="&#xe4;" horiz-adv-x="1138" 
d="M330 -31q-126 0 -204.5 79t-78.5 190q0 124 84.5 192t286.5 115l192 45v180q-9 80 -44.5 131t-106.5 51q-33 0 -53 -10l-5 -262q-63 -29 -168 -29q-71 0 -112 33t-41 98q0 69 75 135t201.5 108t264.5 42q182 0 280 -80t98 -262v-506q0 -57 18 -71.5t66 -14.5h62v-59
q-20 -11 -53 -28t-117.5 -45t-147.5 -28q-93 0 -144 37.5t-58 130.5h-9q-108 -172 -286 -172zM346 1180q-71 0 -121.5 50t-50.5 120q0 69 51 120.5t121 51.5q69 0 120.5 -51.5t51.5 -120.5q0 -70 -51 -120t-121 -50zM795 1180q-69 0 -118.5 50t-49.5 120q0 69 49.5 120.5
t118.5 51.5t121.5 -51.5t52.5 -120.5q0 -70 -52 -120t-122 -50zM541 168q37 0 69 22v320h-2q-100 -29 -148 -82t-48 -117q0 -67 36 -105t93 -38z" />
    <glyph glyph-name="aring" unicode="&#xe5;" horiz-adv-x="1138" 
d="M330 -31q-126 0 -204.5 79t-78.5 190q0 124 84.5 192t286.5 115l192 45v180q-9 80 -44.5 131t-106.5 51q-33 0 -53 -10l-5 -262q-63 -29 -168 -29q-71 0 -112 33t-41 98q0 69 75 135t201.5 108t264.5 42q182 0 280 -80t98 -262v-506q0 -57 18 -71.5t66 -14.5h62v-59
q-20 -11 -53 -28t-117.5 -45t-147.5 -28q-93 0 -144 37.5t-58 130.5h-9q-108 -172 -286 -172zM342 1370q0 91 65.5 155t165.5 64q101 0 164.5 -62t63.5 -153t-65.5 -155t-166.5 -64t-164 62t-63 153zM438 1374q0 -61 39.5 -102t95.5 -41t94 39t38 100t-40 102t-96 41
t-93.5 -39t-37.5 -100zM541 168q37 0 69 22v320h-2q-100 -29 -148 -82t-48 -117q0 -67 36 -105t93 -38z" />
    <glyph glyph-name="ae" unicode="&#xe6;" horiz-adv-x="1658" 
d="M330 -31q-126 0 -204.5 79t-78.5 190q0 87 39.5 144.5t137.5 101t272 77.5l116 23v149q0 98 -39.5 158.5t-117.5 60.5q-30 0 -47 -10l-7 -262q-74 -29 -170 -29q-70 0 -110.5 34.5t-40.5 96.5q0 66 72.5 132t197.5 109.5t262 43.5q181 0 265 -106q53 44 125 75t147 31
q191 0 300 -117t136 -334l-618 -61v-39q21 -87 78 -153t132.5 -99t157.5 -33q67 0 116.5 15t117.5 47l30 -45q-212 -275 -491 -275q-120 0 -220.5 50.5t-168.5 142.5q-9 -8 -41.5 -34.5t-44.5 -36t-42 -31.5t-47 -31.5t-46.5 -24.5t-53 -21.5t-53.5 -12t-61 -5.5zM967 672
v-33l241 25q-6 134 -44.5 222.5t-98.5 88.5q-32 0 -52 -22t-33 -91t-13 -190zM539 168q84 0 125 96q-52 113 -52 244q-97 -20 -148.5 -76.5t-51.5 -120.5q0 -67 35.5 -105t91.5 -38z" />
    <glyph glyph-name="ccedilla" unicode="&#xe7;" horiz-adv-x="1067" 
d="M283 -506l-17 57q207 70 207 166q0 72 -98 103l112 160q-205 26 -322.5 173.5t-117.5 356.5q0 125 47 231t126 176.5t182.5 110t215.5 39.5q167 0 277.5 -80.5t110.5 -191.5q0 -75 -52.5 -114.5t-136.5 -39.5q-70 0 -108 21l-60 288q-34 37 -88 37q-71 0 -113 -75
t-42 -193q0 -121 30 -215t82 -151.5t119 -87t145 -29.5q54 0 111.5 15t88.5 29l30 15l24 -43q-93 -145 -215.5 -212t-253.5 -67h-10l-39 -55q93 -8 154 -48.5t61 -111.5q0 -93 -113 -161t-337 -103z" />
    <glyph glyph-name="egrave" unicode="&#xe8;" horiz-adv-x="1112" 
d="M557 -27q-148 0 -265 71t-181 195t-64 277q0 116 48.5 220t125.5 175.5t174 113.5t193 42q108 0 189.5 -32t134.5 -94.5t83.5 -145.5t44.5 -193h-651q8 -90 45.5 -162.5t93 -117t120 -68t132.5 -23.5q111 0 242 62l31 -45q-212 -275 -496 -275zM231 1587h285l109 -395
h-84l-310 381v14zM516 975q-54 0 -90 -70.5t-39 -220.5h272q-6 127 -44.5 209t-98.5 82z" />
    <glyph glyph-name="eacute" unicode="&#xe9;" horiz-adv-x="1112" 
d="M557 -27q-148 0 -265 71t-181 195t-64 277q0 116 48.5 220t125.5 175.5t174 113.5t193 42q108 0 189.5 -32t134.5 -94.5t83.5 -145.5t44.5 -193h-651q8 -90 45.5 -162.5t93 -117t120 -68t132.5 -23.5q111 0 242 62l31 -45q-212 -275 -496 -275zM614 1587h285v-14
l-309 -381h-84zM516 975q-54 0 -90 -70.5t-39 -220.5h272q-6 127 -44.5 209t-98.5 82z" />
    <glyph glyph-name="ecircumflex" unicode="&#xea;" horiz-adv-x="1112" 
d="M557 -27q-148 0 -265 71t-181 195t-64 277q0 116 48.5 220t125.5 175.5t174 113.5t193 42q108 0 189.5 -32t134.5 -94.5t83.5 -145.5t44.5 -193h-651q8 -90 45.5 -162.5t93 -117t120 -68t132.5 -23.5q111 0 242 62l31 -45q-212 -275 -496 -275zM379 1192h-92l194 395h178
l193 -395h-92l-197 207zM516 975q-54 0 -90 -70.5t-39 -220.5h272q-6 127 -44.5 209t-98.5 82z" />
    <glyph glyph-name="edieresis" unicode="&#xeb;" horiz-adv-x="1112" 
d="M557 -27q-148 0 -265 71t-181 195t-64 277q0 116 48.5 220t125.5 175.5t174 113.5t193 42q108 0 189.5 -32t134.5 -94.5t83.5 -145.5t44.5 -193h-651q8 -90 45.5 -162.5t93 -117t120 -68t132.5 -23.5q111 0 242 62l31 -45q-212 -275 -496 -275zM354 1180q-71 0 -121.5 50
t-50.5 120q0 69 51 120.5t121 51.5q69 0 120.5 -51.5t51.5 -120.5q0 -70 -51 -120t-121 -50zM803 1180q-69 0 -118.5 50t-49.5 120q0 69 49.5 120.5t118.5 51.5t121.5 -51.5t52.5 -120.5q0 -70 -52 -120t-122 -50zM516 975q-54 0 -90 -70.5t-39 -220.5h272q-6 127 -44.5 209
t-98.5 82z" />
    <glyph glyph-name="igrave" unicode="&#xec;" horiz-adv-x="706" 
d="M27 0v80l131 26v711l-129 105v41l530 104v-961l129 -26v-80h-661zM0 1587h285l108 -395h-84l-309 381v14z" />
    <glyph glyph-name="iacute" unicode="&#xed;" horiz-adv-x="706" 
d="M27 0v80l131 26v711l-129 105v41l530 104v-961l129 -26v-80h-661zM414 1587h284v-14l-309 -381h-84z" />
    <glyph glyph-name="icircumflex" unicode="&#xee;" horiz-adv-x="706" 
d="M27 0v80l131 26v711l-129 105v41l530 104v-961l129 -26v-80h-661zM168 1192h-92l194 395h179l192 -395h-92l-197 207z" />
    <glyph glyph-name="idieresis" unicode="&#xef;" horiz-adv-x="706" 
d="M137 1180q-71 0 -121.5 50t-50.5 120q0 69 51 120.5t121 51.5q69 0 120.5 -51.5t51.5 -120.5q0 -70 -51 -120t-121 -50zM565 1180q-69 0 -118.5 50t-49.5 120q0 69 49.5 120.5t118.5 51.5t121.5 -51.5t52.5 -120.5q0 -70 -52 -120t-122 -50zM27 0v80l131 26v711l-129 105
v41l530 104v-961l129 -26v-80h-661z" />
    <glyph glyph-name="eth" unicode="&#xf0;" horiz-adv-x="1298" 
d="M154 1104l-33 74l301 125q-114 97 -254 186l33 59q244 -59 438 -155l311 129l31 -76l-250 -105q133 -79 234 -176.5t160.5 -199.5t88.5 -202t29 -198q0 -145 -46 -260.5t-127.5 -189.5t-190 -113t-236.5 -39q-137 0 -249.5 43.5t-185.5 118t-113 170.5t-40 203
q0 96 34 182t91 148.5t129.5 108t150.5 68.5t152 23h45q-68 112 -172 213zM815 387q0 206 -41 363q-33 94 -72.5 146t-93.5 52q-39 0 -66 -28.5t-40 -76t-18 -94.5t-5 -100q0 -154 25.5 -292t74 -226t107.5 -88q129 0 129 344z" />
    <glyph glyph-name="ntilde" unicode="&#xf1;" horiz-adv-x="1351" 
d="M25 0v80l127 26v711l-123 90v43l463 121h10l22 -192h4q183 188 373 188q141 0 224 -80t83 -227v-654l127 -26v-80h-626v82l100 24v549q0 86 -44.5 137t-117.5 50q-56 -3 -96 -25v-711l96 -26v-80h-622zM696 1223l-92 30q-82 27 -131.5 27t-80 -22.5t-60.5 -75.5l-49 20
l12 35q64 181 150 235t239 1l90 -31q93 -33 159 -13t122 103l49 -21l-19 -47q-39 -99 -74 -156.5t-81 -86.5t-100.5 -27.5t-133.5 29.5z" />
    <glyph glyph-name="ograve" unicode="&#xf2;" horiz-adv-x="1290" 
d="M606 985q-41 0 -70 -32.5t-42.5 -87.5t-19 -107t-5.5 -111q0 -159 27 -295.5t76.5 -219.5t109.5 -83q135 0 135 354q0 152 -25.5 284t-74.5 215t-111 83zM645 -31q-140 0 -254.5 44t-187.5 118.5t-112.5 171t-39.5 203.5q0 161 78.5 289.5t214 199t301.5 70.5
q259 0 426.5 -151t167.5 -382q0 -163 -78 -292t-213 -200t-303 -71zM293 1587h285l108 -395h-84l-309 381v14z" />
    <glyph glyph-name="oacute" unicode="&#xf3;" horiz-adv-x="1290" 
d="M606 985q-41 0 -70 -32.5t-42.5 -87.5t-19 -107t-5.5 -111q0 -159 27 -295.5t76.5 -219.5t109.5 -83q135 0 135 354q0 152 -25.5 284t-74.5 215t-111 83zM645 -31q-140 0 -254.5 44t-187.5 118.5t-112.5 171t-39.5 203.5q0 161 78.5 289.5t214 199t301.5 70.5
q259 0 426.5 -151t167.5 -382q0 -163 -78 -292t-213 -200t-303 -71zM707 1587h284v-14l-309 -381h-84z" />
    <glyph glyph-name="ocircumflex" unicode="&#xf4;" horiz-adv-x="1290" 
d="M645 -31q-140 0 -254.5 44t-187.5 118.5t-112.5 171t-39.5 203.5q0 161 78.5 289.5t214 199t301.5 70.5q259 0 426.5 -151t167.5 -382q0 -163 -78 -292t-213 -200t-303 -71zM606 985q-41 0 -70 -32.5t-42.5 -87.5t-19 -107t-5.5 -111q0 -159 27 -295.5t76.5 -219.5
t109.5 -83q135 0 135 354q0 152 -25.5 284t-74.5 215t-111 83zM461 1192h-92l194 395h178l193 -395h-92l-197 207z" />
    <glyph glyph-name="otilde" unicode="&#xf5;" horiz-adv-x="1290" 
d="M606 985q-41 0 -70 -32.5t-42.5 -87.5t-19 -107t-5.5 -111q0 -159 27 -295.5t76.5 -219.5t109.5 -83q135 0 135 354q0 152 -25.5 284t-74.5 215t-111 83zM645 -31q-140 0 -254.5 44t-187.5 118.5t-112.5 171t-39.5 203.5q0 161 78.5 289.5t214 199t301.5 70.5
q259 0 426.5 -151t167.5 -382q0 -163 -78 -292t-213 -200t-303 -71zM670 1223l-92 30q-82 27 -132 27t-80.5 -22.5t-60.5 -75.5l-49 20l12 35q64 181 150 235t239 1l91 -31q93 -33 158.5 -13t121.5 103l49 -21l-18 -47q-39 -99 -74 -156.5t-81 -86.5t-100.5 -27.5
t-133.5 29.5z" />
    <glyph glyph-name="odieresis" unicode="&#xf6;" horiz-adv-x="1290" 
d="M606 985q-41 0 -70 -32.5t-42.5 -87.5t-19 -107t-5.5 -111q0 -159 27 -295.5t76.5 -219.5t109.5 -83q135 0 135 354q0 152 -25.5 284t-74.5 215t-111 83zM645 -31q-140 0 -254.5 44t-187.5 118.5t-112.5 171t-39.5 203.5q0 161 78.5 289.5t214 199t301.5 70.5
q259 0 426.5 -151t167.5 -382q0 -163 -78 -292t-213 -200t-303 -71zM420 1180q-71 0 -121.5 50t-50.5 120q0 69 51 120.5t121 51.5q69 0 120.5 -51.5t51.5 -120.5q0 -70 -51 -120t-121 -50zM868 1180q-69 0 -118.5 50t-49.5 120q0 69 49.5 120.5t118.5 51.5t121.5 -51.5
t52.5 -120.5q0 -70 -52 -120t-122 -50z" />
    <glyph glyph-name="divide" unicode="&#xf7;" horiz-adv-x="1163" 
d="M1067 465h-971v102h971v-102zM582 670q-62 0 -106 45t-44 108q0 59 44.5 104.5t105.5 45.5t107 -45.5t46 -104.5q0 -63 -45.5 -108t-107.5 -45zM582 57q-61 0 -105.5 45.5t-44.5 108.5q0 59 44.5 104t105.5 45t107 -45t46 -104q0 -63 -45.5 -108.5t-107.5 -45.5z" />
    <glyph glyph-name="oslash" unicode="&#xf8;" horiz-adv-x="1290" 
d="M164 -98h-103l177 198q-91 74 -139 180t-48 226q0 161 78.5 289.5t214 199t301.5 70.5q202 0 359 -98l124 141h103l-166 -188q83 -71 128.5 -171.5t45.5 -216.5q0 -163 -78 -292t-213 -200t-303 -71q-198 0 -344 86zM604 985q-41 0 -70.5 -33t-43.5 -87.5t-19.5 -106.5
t-5.5 -107q0 -155 22 -268l299 338q-29 122 -76 193t-106 71zM821 397q0 115 -16 230l-297 -336q30 -111 76 -176.5t100 -65.5q67 0 102 91t35 257z" />
    <glyph glyph-name="ugrave" unicode="&#xf9;" horiz-adv-x="1331" 
d="M815 -23l-24 158q-178 -166 -353 -166q-37 0 -71 5.5t-69.5 18t-64.5 36.5t-52 57t-35.5 82.5t-12.5 110.5v563l-123 67v49l522 97v-697q0 -82 31.5 -127t116.5 -45q52 0 104 25v643l-120 66v51l520 92v-922l127 -24v-68zM315 1587h285l109 -395h-84l-310 381v14z" />
    <glyph glyph-name="uacute" unicode="&#xfa;" horiz-adv-x="1331" 
d="M815 -23l-24 158q-178 -166 -353 -166q-37 0 -71 5.5t-69.5 18t-64.5 36.5t-52 57t-35.5 82.5t-12.5 110.5v563l-123 67v49l522 97v-697q0 -82 31.5 -127t116.5 -45q52 0 104 25v643l-120 66v51l520 92v-922l127 -24v-68zM729 1587h285v-14l-309 -381h-84z" />
    <glyph glyph-name="ucircumflex" unicode="&#xfb;" horiz-adv-x="1331" 
d="M815 -23l-24 158q-178 -166 -353 -166q-37 0 -71 5.5t-69.5 18t-64.5 36.5t-52 57t-35.5 82.5t-12.5 110.5v563l-123 67v49l522 97v-697q0 -82 31.5 -127t116.5 -45q52 0 104 25v643l-120 66v51l520 92v-922l127 -24v-68zM483 1192h-92l195 395h178l192 -395h-92
l-196 207z" />
    <glyph glyph-name="udieresis" unicode="&#xfc;" horiz-adv-x="1331" 
d="M815 -23l-24 158q-178 -166 -353 -166q-37 0 -71 5.5t-69.5 18t-64.5 36.5t-52 57t-35.5 82.5t-12.5 110.5v563l-123 67v49l522 97v-697q0 -82 31.5 -127t116.5 -45q52 0 104 25v643l-120 66v51l520 92v-922l127 -24v-68zM442 1180q-71 0 -121.5 50t-50.5 120
q0 69 51 120.5t121 51.5q69 0 120.5 -51.5t51.5 -120.5q0 -70 -51 -120t-121 -50zM891 1180q-69 0 -118.5 50t-49.5 120q0 69 49.5 120.5t118.5 51.5t121.5 -51.5t52.5 -120.5q0 -70 -52 -120t-122 -50z" />
    <glyph glyph-name="yacute" unicode="&#xfd;" horiz-adv-x="1099" 
d="M899 932l-111 24v78h322v-78l-88 -20l-492 -1188q-45 -110 -106 -166.5t-150 -56.5q-78 0 -135 54.5t-57 139.5q0 84 56 138.5t136 54.5q130 0 175 -125h4l45 111l-430 1040l-78 18v78h631v-78l-125 -16l192 -573zM741 1587h285v-14l-309 -381h-84z" />
    <glyph glyph-name="thorn" unicode="&#xfe;" horiz-adv-x="1308" 
d="M625 -18q-53 0 -93 16v-313l228 -37v-78h-778v80l151 26v1571l-123 86v43l522 152v-621q140 148 312 148q78 0 151.5 -29.5t133.5 -84.5t96.5 -145.5t36.5 -201.5q0 -134 -55.5 -250.5t-145.5 -194.5t-204 -122.5t-232 -44.5zM592 864q-36 0 -60 -12v-682
q49 -107 140 -107q81 0 132.5 95t51.5 256q0 206 -81.5 328t-182.5 122z" />
    <glyph glyph-name="ydieresis" unicode="&#xff;" horiz-adv-x="1099" 
d="M899 932l-111 24v78h322v-78l-88 -20l-492 -1188q-45 -110 -106 -166.5t-150 -56.5q-78 0 -135 54.5t-57 139.5q0 84 56 138.5t136 54.5q130 0 175 -125h4l45 111l-430 1040l-78 18v78h631v-78l-125 -16l192 -573zM393 1180q-71 0 -121.5 50t-50.5 120q0 69 51 120.5
t121 51.5q69 0 120.5 -51.5t51.5 -120.5q0 -70 -51 -120t-121 -50zM842 1180q-69 0 -118.5 50t-49.5 120q0 69 49.5 120.5t118.5 51.5t121.5 -51.5t52.5 -120.5q0 -70 -52 -120t-122 -50z" />
    <glyph glyph-name="Amacron" unicode="&#x100;" horiz-adv-x="1466" 
d="M-2 0v84l125 35l512 1253l90 19l113 22l512 -1304l118 -25v-84h-755v84l159 29l-114 327h-393l-119 -313l221 -43v-84h-469zM420 1536v164h627v-164h-627zM569 979l-163 -430h313z" />
    <glyph glyph-name="amacron" unicode="&#x101;" horiz-adv-x="1138" 
d="M330 -31q-126 0 -204.5 79t-78.5 190q0 124 84.5 192t286.5 115l192 45v180q-9 80 -44.5 131t-106.5 51q-33 0 -53 -10l-5 -262q-63 -29 -168 -29q-71 0 -112 33t-41 98q0 69 75 135t201.5 108t264.5 42q182 0 280 -80t98 -262v-506q0 -57 18 -71.5t66 -14.5h62v-59
q-20 -11 -53 -28t-117.5 -45t-147.5 -28q-93 0 -144 37.5t-58 130.5h-9q-108 -172 -286 -172zM258 1270v164h627v-164h-627zM541 168q37 0 69 22v320h-2q-100 -29 -148 -82t-48 -117q0 -67 36 -105t93 -38z" />
    <glyph glyph-name="Abreve" unicode="&#x102;" horiz-adv-x="1466" 
d="M-2 0v84l125 35l512 1253l90 19l113 22l512 -1304l118 -25v-84h-755v84l159 29l-114 327h-393l-119 -313l221 -43v-84h-469zM721 1454q-134 0 -208.5 93t-76.5 225h94q33 -62 79.5 -97t125.5 -35q83 0 128.5 34.5t78.5 97.5h88q-3 -133 -85 -225.5t-224 -92.5zM569 979
l-163 -430h313z" />
    <glyph glyph-name="abreve" unicode="&#x103;" horiz-adv-x="1138" 
d="M330 -31q-126 0 -204.5 79t-78.5 190q0 124 84.5 192t286.5 115l192 45v180q-9 80 -44.5 131t-106.5 51q-33 0 -53 -10l-5 -262q-63 -29 -168 -29q-71 0 -112 33t-41 98q0 69 75 135t201.5 108t264.5 42q182 0 280 -80t98 -262v-506q0 -57 18 -71.5t66 -14.5h62v-59
q-20 -11 -53 -28t-117.5 -45t-147.5 -28q-93 0 -144 37.5t-58 130.5h-9q-108 -172 -286 -172zM571 1192q-137 0 -214.5 94.5t-77.5 300.5h69q20 -103 77 -158t146 -55q96 0 151 53.5t79 159.5h65q0 -187 -81 -291t-214 -104zM541 168q37 0 69 22v320h-2q-100 -29 -148 -82
t-48 -117q0 -67 36 -105t93 -38z" />
    <glyph glyph-name="Aogonek" unicode="&#x104;" horiz-adv-x="1466" 
d="M-2 0v84l125 35l512 1253l90 19l113 22l512 -1304l118 -25v-84h-462q-78 -37 -110 -85.5t-32 -92.5q0 -48 26.5 -76.5t67.5 -28.5q55 0 113 58l45 -33q-29 -55 -52.5 -90t-58.5 -70t-80.5 -52t-103.5 -17q-90 0 -146.5 51t-56.5 135q0 72 59 142t224 179l-145 420h-391
l-119 -313l221 -43v-84h-469zM569 979l-163 -430h311z" />
    <glyph glyph-name="aogonek" unicode="&#x105;" horiz-adv-x="1138" 
d="M895 -31v8q-137 -10 -196.5 28.5t-71.5 137.5h-11q-105 -174 -286 -174q-126 0 -204.5 79t-78.5 190q0 123 86 191t289 116l188 45v180q-9 80 -44.5 131t-106.5 51q-33 0 -53 -10l-3 -262q-67 -29 -170 -29q-71 0 -112 32.5t-41 96.5q0 69 75 135.5t201.5 109t264.5 42.5
q182 0 280 -80t98 -262v-506q0 -57 18 -71.5t66 -14.5h62v-53q-149 -93 -202.5 -150t-53.5 -114q0 -44 27 -71.5t67 -27.5q55 0 113 58l45 -33q-29 -55 -52.5 -90t-58.5 -70t-80.5 -52t-103.5 -17q-90 0 -146.5 51.5t-56.5 136.5q0 72 58.5 136.5t193.5 131.5zM541 168
q37 0 69 22v320h-2q-101 -31 -148.5 -83t-47.5 -116q0 -67 36 -105t93 -38z" />
    <glyph glyph-name="Cacute" unicode="&#x106;" horiz-adv-x="1486" 
d="M903 -23q-168 0 -307.5 37.5t-236 102.5t-163.5 154t-98.5 190t-31.5 211q0 152 68 287.5t183.5 232t276 153t338.5 56.5q215 0 446 -103v-421h-67l-176 329q-61 59 -118 86t-124 27q-150 0 -244 -145t-94 -406q0 -320 112 -509t289 -189q89 0 148 36l272 388h70
l-94 -435q-132 -44 -231.5 -63t-217.5 -19zM989 1772h303v-29l-348 -277h-117z" />
    <glyph glyph-name="cacute" unicode="&#x107;" horiz-adv-x="1067" 
d="M567 -27q-120 0 -219 42t-164.5 115t-101 170.5t-35.5 209.5q0 125 47 231t126 176.5t182.5 110t215.5 39.5q167 0 277.5 -80.5t110.5 -191.5q0 -75 -52.5 -114.5t-136.5 -39.5q-70 0 -108 21l-60 288q-34 37 -88 37q-71 0 -113 -75t-42 -193q0 -121 30 -215t82 -151.5
t119 -87t145 -29.5q54 0 111.5 15t88.5 29l30 15l24 -43q-93 -145 -215.5 -212t-253.5 -67zM645 1587h285v-14l-309 -381h-84z" />
    <glyph glyph-name="Ccircumflex" unicode="&#x108;" horiz-adv-x="1486" 
d="M903 -23q-168 0 -307.5 37.5t-236 102.5t-163.5 154t-98.5 190t-31.5 211q0 152 68 287.5t183.5 232t276 153t338.5 56.5q215 0 446 -103v-421h-67l-176 329q-61 59 -118 86t-124 27q-150 0 -244 -145t-94 -406q0 -320 112 -509t289 -189q89 0 148 36l272 388h70
l-94 -435q-132 -44 -231.5 -63t-217.5 -19zM696 1466h-100l190 306h220l200 -306h-112l-201 148z" />
    <glyph glyph-name="ccircumflex" unicode="&#x109;" horiz-adv-x="1067" 
d="M567 -27q-120 0 -219 42t-164.5 115t-101 170.5t-35.5 209.5q0 125 47 231t126 176.5t182.5 110t215.5 39.5q167 0 277.5 -80.5t110.5 -191.5q0 -75 -52.5 -114.5t-136.5 -39.5q-70 0 -108 21l-60 288q-34 37 -88 37q-71 0 -113 -75t-42 -193q0 -121 30 -215t82 -151.5
t119 -87t145 -29.5q54 0 111.5 15t88.5 29l30 15l24 -43q-93 -145 -215.5 -212t-253.5 -67zM399 1192h-92l195 395h178l192 -395h-92l-196 207z" />
    <glyph glyph-name="Cdotaccent" unicode="&#x10a;" horiz-adv-x="1486" 
d="M903 -23q-168 0 -307.5 37.5t-236 102.5t-163.5 154t-98.5 190t-31.5 211q0 152 68 287.5t183.5 232t276 153t338.5 56.5q215 0 446 -103v-421h-67l-176 329q-61 59 -118 86t-124 27q-150 0 -244 -145t-94 -406q0 -320 112 -509t289 -189q89 0 148 36l272 388h70
l-94 -435q-132 -44 -231.5 -63t-217.5 -19zM893 1460q-78 0 -132 55t-54 134q0 78 54 134t132 56q79 0 135.5 -56t56.5 -134q0 -79 -56 -134t-136 -55z" />
    <glyph glyph-name="cdotaccent" unicode="&#x10b;" horiz-adv-x="1067" 
d="M567 -27q-120 0 -219 42t-164.5 115t-101 170.5t-35.5 209.5q0 125 47 231t126 176.5t182.5 110t215.5 39.5q167 0 277.5 -80.5t110.5 -191.5q0 -75 -52.5 -114.5t-136.5 -39.5q-70 0 -108 21l-60 288q-34 37 -88 37q-71 0 -113 -75t-42 -193q0 -121 30 -215t82 -151.5
t119 -87t145 -29.5q54 0 111.5 15t88.5 29l30 15l24 -43q-93 -145 -215.5 -212t-253.5 -67zM584 1161q-78 0 -132.5 55t-54.5 134q0 78 54.5 134t132.5 56q79 0 135.5 -56t56.5 -134q0 -79 -56 -134t-136 -55z" />
    <glyph glyph-name="Ccaron" unicode="&#x10c;" horiz-adv-x="1486" 
d="M903 -23q-168 0 -307.5 37.5t-236 102.5t-163.5 154t-98.5 190t-31.5 211q0 152 68 287.5t183.5 232t276 153t338.5 56.5q215 0 446 -103v-421h-67l-176 329q-61 59 -118 86t-124 27q-150 0 -244 -145t-94 -406q0 -320 112 -509t289 -189q89 0 148 36l272 388h70
l-94 -435q-132 -44 -231.5 -63t-217.5 -19zM1087 1772h101l-191 -306h-219l-200 306h112l201 -154z" />
    <glyph glyph-name="ccaron" unicode="&#x10d;" horiz-adv-x="1067" 
d="M567 -27q-120 0 -219 42t-164.5 115t-101 170.5t-35.5 209.5q0 125 47 231t126 176.5t182.5 110t215.5 39.5q167 0 277.5 -80.5t110.5 -191.5q0 -75 -52.5 -114.5t-136.5 -39.5q-70 0 -108 21l-60 288q-34 37 -88 37q-71 0 -113 -75t-42 -193q0 -121 30 -215t82 -151.5
t119 -87t145 -29.5q54 0 111.5 15t88.5 29l30 15l24 -43q-93 -145 -215.5 -212t-253.5 -67zM774 1587h92l-194 -395h-178l-193 395h92l197 -207z" />
    <glyph glyph-name="Dcaron" unicode="&#x10e;" horiz-adv-x="1626" 
d="M37 0v84l158 37v1118l-158 37v84h725q186 0 339 -48.5t257 -135t160.5 -207t56.5 -262.5q0 -104 -31 -202.5t-101.5 -191t-173.5 -161.5t-257.5 -110.5t-343.5 -41.5h-631zM608 1294v-1149q65 -61 172 -61q64 0 124.5 37.5t108.5 105.5t77.5 173.5t29.5 230.5
q0 300 -140.5 474.5t-371.5 188.5zM952 1772h101l-191 -306h-219l-201 306h113l201 -154z" />
    <glyph glyph-name="dcaron" unicode="&#x10f;" horiz-adv-x="1302" 
d="M596 1368v39l567 127v-1391l109 -28v-68l-465 -72l-31 131q-119 -137 -309 -137q-179 0 -299.5 138.5t-120.5 365.5q0 126 51 233.5t139 180.5t208 114t257 41h62v242zM707 160q33 0 57 12v672q-70 127 -154 127q-69 0 -117.5 -83t-48.5 -257q0 -214 80.5 -342.5
t182.5 -128.5zM1309 1063h-66l47 432h271v-16z" />
    <glyph glyph-name="Dcroat" unicode="&#x110;" horiz-adv-x="1626" 
d="M37 0v84l158 37v530h-154v103h154v485l-158 37v84h725q186 0 339 -48.5t257 -135t160.5 -207t56.5 -262.5q0 -104 -31 -202.5t-101.5 -191t-173.5 -161.5t-257.5 -110.5t-343.5 -41.5h-631zM856 651h-248v-506q65 -61 172 -61q64 0 124.5 37.5t108.5 105.5t77.5 173.5
t29.5 230.5q0 300 -140.5 474.5t-371.5 188.5v-540h248v-103z" />
    <glyph glyph-name="dcroat" unicode="&#x111;" horiz-adv-x="1302" 
d="M596 1368v39l567 127v-287h113v-84h-113v-1020l109 -28v-68l-465 -72l-31 129q-115 -135 -309 -135q-179 0 -299.5 138.5t-120.5 365.5q0 257 180.5 413t474.5 156h62v121h-315v84h315v66zM702 162q30 0 62 14v686q-34 60 -67.5 84.5t-75.5 24.5q-70 0 -121 -80.5
t-51 -241.5q0 -220 78.5 -353.5t174.5 -133.5z" />
    <glyph glyph-name="Emacron" unicode="&#x112;" horiz-adv-x="1333" 
d="M799 647h-185v-502q58 -61 162 -61h197l237 420h78l-76 -504h-1175v84l158 37v1118l-158 37v84h1208v-428h-78l-147 342h-406v-524h185l69 241h80v-573h-80zM362 1536v164h627v-164h-627z" />
    <glyph glyph-name="emacron" unicode="&#x113;" horiz-adv-x="1112" 
d="M557 -27q-148 0 -265 71t-181 195t-64 277q0 116 48.5 220t125.5 175.5t174 113.5t193 42q108 0 189.5 -32t134.5 -94.5t83.5 -145.5t44.5 -193h-651q8 -90 45.5 -162.5t93 -117t120 -68t132.5 -23.5q111 0 242 62l31 -45q-212 -275 -496 -275zM240 1270v164h626v-164
h-626zM516 975q-54 0 -90 -70.5t-39 -220.5h272q-6 127 -44.5 209t-98.5 82z" />
    <glyph glyph-name="Ebreve" unicode="&#x114;" horiz-adv-x="1333" 
d="M799 647h-185v-502q58 -61 162 -61h197l237 420h78l-76 -504h-1175v84l158 37v1118l-158 37v84h1208v-428h-78l-147 342h-406v-524h185l69 241h80v-573h-80zM702 1454q-134 0 -208 93t-76 225h94q33 -62 79.5 -97t125.5 -35q83 0 128.5 34.5t78.5 97.5h88
q-3 -133 -85.5 -225.5t-224.5 -92.5z" />
    <glyph glyph-name="ebreve" unicode="&#x115;" horiz-adv-x="1112" 
d="M557 -27q-148 0 -265 71t-181 195t-64 277q0 116 48.5 220t125.5 175.5t174 113.5t193 42q108 0 189.5 -32t134.5 -94.5t83.5 -145.5t44.5 -193h-651q8 -90 45.5 -162.5t93 -117t120 -68t132.5 -23.5q111 0 242 62l31 -45q-212 -275 -496 -275zM586 1192q-137 0 -215 95
t-78 300h69q20 -103 77.5 -158t146.5 -55q96 0 150.5 53.5t78.5 159.5h66q0 -187 -81 -291t-214 -104zM516 975q-54 0 -90 -70.5t-39 -220.5h272q-6 127 -44.5 209t-98.5 82z" />
    <glyph glyph-name="Edotaccent" unicode="&#x116;" horiz-adv-x="1333" 
d="M799 647h-185v-502q58 -61 162 -61h197l237 420h78l-76 -504h-1175v84l158 37v1118l-158 37v84h1208v-428h-78l-147 342h-406v-524h185l69 241h80v-573h-80zM713 1460q-78 0 -132.5 55t-54.5 134q0 78 54.5 134t132.5 56q79 0 135.5 -56t56.5 -134q0 -79 -56 -134
t-136 -55z" />
    <glyph glyph-name="edotaccent" unicode="&#x117;" horiz-adv-x="1112" 
d="M557 -27q-148 0 -265 71t-181 195t-64 277q0 116 48.5 220t125.5 175.5t174 113.5t193 42q108 0 189.5 -32t134.5 -94.5t83.5 -145.5t44.5 -193h-651q8 -90 45.5 -162.5t93 -117t120 -68t132.5 -23.5q111 0 242 62l31 -45q-212 -275 -496 -275zM584 1161q-78 0 -132.5 55
t-54.5 134q0 78 54.5 134t132.5 56q79 0 135.5 -56t56.5 -134q0 -79 -56 -134t-136 -55zM516 975q-54 0 -90 -70.5t-39 -220.5h272q-6 127 -44.5 209t-98.5 82z" />
    <glyph glyph-name="Eogonek" unicode="&#x118;" horiz-adv-x="1333" 
d="M799 647h-185v-502q58 -61 162 -61h197l237 420h78l-76 -504h-213q-81 -118 -81 -184q0 -44 27 -71.5t67 -27.5q54 0 112 58l45 -33q-29 -55 -52.5 -90t-58.5 -70t-80.5 -52t-103.5 -17q-90 0 -146 51t-56 135q0 70 55 139t203 162h-893v84l158 37v1118l-158 37v84h1208
v-428h-78l-147 342h-406v-524h185l69 241h80v-573h-80z" />
    <glyph glyph-name="eogonek" unicode="&#x119;" horiz-adv-x="1112" 
d="M557 -27q-148 0 -265 71t-181 195t-64 277q0 116 48.5 220t125.5 175.5t174 113.5t193 42q108 0 189.5 -32t134.5 -94.5t83.5 -145.5t44.5 -193h-651q8 -90 45.5 -162.5t93 -117t120 -68t132.5 -23.5q111 0 242 62l31 -45q-56 -74 -127 -133q-9 -9 -13 -11
q-107 -91 -149.5 -165t-42.5 -121q0 -46 26.5 -73.5t67.5 -27.5q55 0 113 58l45 -33q-29 -55 -52.5 -90t-58.5 -70t-80.5 -52t-103.5 -17q-90 0 -146.5 51t-56.5 135q0 70 57 139.5t211 163.5v4q-94 -33 -186 -33zM516 975q-54 0 -90 -70.5t-39 -220.5h272q-6 127 -44.5 209
t-98.5 82z" />
    <glyph glyph-name="Ecaron" unicode="&#x11a;" horiz-adv-x="1333" 
d="M799 647h-185v-502q58 -61 162 -61h197l237 420h78l-76 -504h-1175v84l158 37v1118l-158 37v84h1208v-428h-78l-147 342h-406v-524h185l69 241h80v-573h-80zM907 1772h101l-191 -306h-219l-201 306h113l201 -154z" />
    <glyph glyph-name="ecaron" unicode="&#x11b;" horiz-adv-x="1112" 
d="M557 -27q-148 0 -265 71t-181 195t-64 277q0 116 48.5 220t125.5 175.5t174 113.5t193 42q108 0 189.5 -32t134.5 -94.5t83.5 -145.5t44.5 -193h-651q8 -90 45.5 -162.5t93 -117t120 -68t132.5 -23.5q111 0 242 62l31 -45q-212 -275 -496 -275zM768 1587h92l-194 -395
h-179l-192 395h92l197 -207zM516 975q-54 0 -90 -70.5t-39 -220.5h272q-6 127 -44.5 209t-98.5 82z" />
    <glyph glyph-name="Gcircumflex" unicode="&#x11c;" horiz-adv-x="1646" 
d="M909 -25q-149 0 -275.5 28t-217 77.5t-159.5 114.5t-110 142.5t-61 157t-20 162.5q0 168 73 310t196 236t284 146t339 52q208 0 484 -82l26 -442h-65l-238 352q-118 88 -237 88q-117 0 -205 -75.5t-133 -206.5t-45 -298q0 -162 33 -290.5t91 -209.5t133.5 -123t162.5 -42
q73 0 133 28v449l-228 33v102h756v-96l-127 -33v-479l-82 -21q-312 -80 -508 -80zM719 1466h-101l191 306h219l201 -306h-113l-201 148z" />
    <glyph glyph-name="gcircumflex" unicode="&#x11d;" horiz-adv-x="1191" 
d="M1192 901l-242 14l-6 -10q94 -82 94 -192q0 -140 -125.5 -237t-341.5 -97q-117 0 -215 31q-24 -24 -24 -54q0 -70 102 -73l447 -13q136 -4 207 -73t71 -185q0 -137 -99 -252.5t-261.5 -181t-347.5 -65.5q-211 0 -318.5 66.5t-107.5 174.5q0 74 45 121t131 80v10
q-68 28 -105 82.5t-37 116.5q0 74 47.5 136.5t165.5 139.5v6q-87 45 -133.5 116.5t-46.5 154.5q0 103 65.5 183.5t172.5 122.5t235 42q45 0 88.5 -5.5t75.5 -12t107 -24.5q19 -5 30 -7l326 31v-146zM834 -96l-521 22q-24 -39 -24 -84q0 -98 87.5 -150t223.5 -52
q152 0 233.5 54.5t81.5 115.5q0 35 -22 61t-59 33zM432 793q3 -134 53 -232.5t117 -97.5q45 0 71.5 53t26.5 146q0 133 -51.5 228t-120.5 95q-45 0 -71 -51t-25 -141zM379 1192h-92l194 395h178l193 -395h-92l-197 207z" />
    <glyph glyph-name="Gbreve" unicode="&#x11e;" horiz-adv-x="1646" 
d="M909 -25q-149 0 -275.5 28t-217 77.5t-159.5 114.5t-110 142.5t-61 157t-20 162.5q0 168 73 310t196 236t284 146t339 52q208 0 484 -82l26 -442h-65l-238 352q-118 88 -237 88q-117 0 -205 -75.5t-133 -206.5t-45 -298q0 -162 33 -290.5t91 -209.5t133.5 -123t162.5 -42
q73 0 133 28v449l-228 33v102h756v-96l-127 -33v-479l-82 -21q-312 -80 -508 -80zM920 1454q-134 0 -208.5 93t-76.5 225h94q33 -62 79.5 -97t125.5 -35q83 0 128.5 34.5t78.5 97.5h88q-3 -133 -85 -225.5t-224 -92.5z" />
    <glyph glyph-name="gbreve" unicode="&#x11f;" horiz-adv-x="1191" 
d="M1192 901l-242 14l-6 -10q94 -82 94 -192q0 -140 -125.5 -237t-341.5 -97q-117 0 -215 31q-24 -24 -24 -54q0 -70 102 -73l447 -13q136 -4 207 -73t71 -185q0 -137 -99 -252.5t-261.5 -181t-347.5 -65.5q-211 0 -318.5 66.5t-107.5 174.5q0 74 45 121t131 80v10
q-68 28 -105 82.5t-37 116.5q0 74 47.5 136.5t165.5 139.5v6q-87 45 -133.5 116.5t-46.5 154.5q0 103 65.5 183.5t172.5 122.5t235 42q45 0 88.5 -5.5t75.5 -12t107 -24.5q19 -5 30 -7l326 31v-146zM834 -96l-521 22q-24 -39 -24 -84q0 -98 87.5 -150t223.5 -52
q152 0 233.5 54.5t81.5 115.5q0 35 -22 61t-59 33zM563 1192q-137 0 -215 95t-78 300h70q20 -103 77 -158t146 -55q96 0 151 53.5t79 159.5h65q0 -187 -81 -291t-214 -104zM432 793q3 -134 53 -232.5t117 -97.5q45 0 71.5 53t26.5 146q0 133 -51.5 228t-120.5 95
q-45 0 -71 -51t-25 -141z" />
    <glyph glyph-name="Gdotaccent" unicode="&#x120;" horiz-adv-x="1646" 
d="M909 -25q-149 0 -275.5 28t-217 77.5t-159.5 114.5t-110 142.5t-61 157t-20 162.5q0 168 73 310t196 236t284 146t339 52q208 0 484 -82l26 -442h-65l-238 352q-118 88 -237 88q-117 0 -205 -75.5t-133 -206.5t-45 -298q0 -162 33 -290.5t91 -209.5t133.5 -123t162.5 -42
q73 0 133 28v449l-228 33v102h756v-96l-127 -33v-479l-82 -21q-312 -80 -508 -80zM924 1460q-78 0 -132.5 55t-54.5 134q0 78 54.5 134t132.5 56q79 0 135.5 -56t56.5 -134q0 -79 -56 -134t-136 -55z" />
    <glyph glyph-name="gdotaccent" unicode="&#x121;" horiz-adv-x="1191" 
d="M1192 901l-242 14l-6 -10q94 -82 94 -192q0 -140 -125.5 -237t-341.5 -97q-117 0 -215 31q-24 -24 -24 -54q0 -70 102 -73l447 -13q136 -4 207 -73t71 -185q0 -137 -99 -252.5t-261.5 -181t-347.5 -65.5q-211 0 -318.5 66.5t-107.5 174.5q0 74 45 121t131 80v10
q-68 28 -105 82.5t-37 116.5q0 74 47.5 136.5t165.5 139.5v6q-87 45 -133.5 116.5t-46.5 154.5q0 103 65.5 183.5t172.5 122.5t235 42q45 0 88.5 -5.5t75.5 -12t107 -24.5q19 -5 30 -7l326 31v-146zM834 -96l-521 22q-24 -39 -24 -84q0 -98 87.5 -150t223.5 -52
q152 0 233.5 54.5t81.5 115.5q0 35 -22 61t-59 33zM563 1161q-78 0 -132 55t-54 134q0 78 54 134t132 56q79 0 136 -56t57 -134q0 -79 -56.5 -134t-136.5 -55zM432 793q3 -134 53 -232.5t117 -97.5q45 0 71.5 53t26.5 146q0 133 -51.5 228t-120.5 95q-45 0 -71 -51t-25 -141
z" />
    <glyph glyph-name="Gcommaaccent" unicode="&#x122;" horiz-adv-x="1646" 
d="M909 -25q-149 0 -275.5 28t-217 77.5t-159.5 114.5t-110 142.5t-61 157t-20 162.5q0 168 73 310t196 236t284 146t339 52q208 0 484 -82l26 -442h-65l-238 352q-118 88 -237 88q-117 0 -205 -75.5t-133 -206.5t-45 -298q0 -162 33 -290.5t91 -209.5t133.5 -123t162.5 -42
q73 0 133 28v449l-228 33v102h756v-96l-127 -33v-479l-82 -21q-312 -80 -508 -80zM643 -506l-16 57q109 38 158 78t49 90q0 41 -33 68.5t-80 32.5v14q57 103 184 103q79 0 134 -46t55 -122q0 -98 -112.5 -169.5t-338.5 -105.5z" />
    <glyph glyph-name="gcommaaccent" unicode="&#x123;" horiz-adv-x="1191" 
d="M1192 901l-242 14l-6 -10q94 -82 94 -192q0 -140 -125.5 -237t-341.5 -97q-117 0 -215 31q-24 -24 -24 -54q0 -70 102 -73l447 -13q136 -4 207 -73t71 -185q0 -137 -99 -252.5t-261.5 -181t-347.5 -65.5q-211 0 -318.5 66.5t-107.5 174.5q0 74 45 121t131 80v10
q-68 28 -105 82.5t-37 116.5q0 74 47.5 136.5t165.5 139.5v6q-87 45 -133.5 116.5t-46.5 154.5q0 103 65.5 183.5t172.5 122.5t235 42q45 0 88.5 -5.5t75.5 -12t107 -24.5q19 -5 30 -7l326 31v-146zM834 -96l-521 22q-24 -39 -24 -84q0 -98 87.5 -150t223.5 -52
q152 0 233.5 54.5t81.5 115.5q0 35 -22 61t-59 33zM823 1624l17 -57q-109 -38 -158 -78t-49 -90q0 -41 33 -68.5t79 -32.5v-14q-57 -102 -184 -102q-79 0 -133.5 46t-54.5 122q0 98 112 169t338 105zM432 793q3 -134 53 -232.5t117 -97.5q45 0 71.5 53t26.5 146
q0 133 -51.5 228t-120.5 95q-45 0 -71 -51t-25 -141z" />
    <glyph glyph-name="Hcircumflex" unicode="&#x124;" horiz-adv-x="1746" 
d="M971 0v84l162 37v516h-519v-516l158 -37v-84h-735v84l158 37v1118l-158 37v84h735v-84l-158 -37v-487h519v487l-158 37v84h735v-84l-158 -37v-1118l158 -37v-84h-739zM674 1466h-101l191 306h219l201 -306h-113l-201 148z" />
    <glyph glyph-name="hcircumflex" unicode="&#x125;" horiz-adv-x="1351" 
d="M709 0v82l100 24v549q0 86 -44.5 137t-117.5 50q-56 -3 -96 -25v-711l96 -26v-80h-622v80l127 26v1156l-123 81v43l522 148v-635q173 168 350 168q141 0 224 -80t83 -227v-654l127 -26v-80h-626zM481 1548h-100l190 305h220l200 -305h-112l-201 148z" />
    <glyph glyph-name="Hbar" unicode="&#x126;" horiz-adv-x="1746" 
d="M971 0v84l162 37v516h-519v-516l158 -37v-84h-735v84l158 37v835h-187v115h187v168l-158 37v84h735v-84l-158 -37v-168h519v168l-158 37v84h735v-84l-158 -37v-168h189v-115h-189v-835l158 -37v-84h-739zM614 956v-204h519v204h-519z" />
    <glyph glyph-name="hbar" unicode="&#x127;" horiz-adv-x="1351" 
d="M709 0v82l100 24v549q0 86 -44.5 137t-117.5 50q-56 -3 -96 -25v-711l96 -26v-80h-622v80l127 26v1057h-134v84h134v47l-123 49v43l522 148v-287h315v-84h-315v-264q173 168 350 168q141 0 224 -80t83 -227v-654l127 -26v-80h-626z" />
    <glyph glyph-name="Itilde" unicode="&#x128;" horiz-adv-x="808" 
d="M37 0v84l158 37v1118l-158 37v84h735v-84l-158 -37v-1118l158 -37v-84h-735zM442 1556l-94 25q-67 16 -107 21.5t-74 -1.5t-55.5 -27t-43.5 -58l-50 20l13 35q26 73 52 121t56.5 80t70.5 44t87.5 9.5t112.5 -19.5l92 -24q71 -17 117 -17.5t90.5 23t81.5 78.5l49 -21
l-19 -47q-31 -80 -58.5 -129.5t-57.5 -82t-68.5 -43t-84 -7.5t-110.5 20z" />
    <glyph glyph-name="itilde" unicode="&#x129;" horiz-adv-x="706" 
d="M338 1239l-45 14q-82 27 -132 27t-80.5 -22.5t-60.5 -75.5l-49 20l13 35q64 181 150 235t239 1l43 -15q93 -33 158.5 -13t121.5 103l49 -20l-18 -47q-39 -99 -74 -156.5t-81 -87t-100.5 -28t-133.5 29.5zM27 0v80l131 26v711l-129 105v41l530 104v-961l129 -26v-80h-661z
" />
    <glyph glyph-name="Imacron" unicode="&#x12a;" horiz-adv-x="808" 
d="M37 0v84l158 37v1118l-158 37v84h735v-84l-158 -37v-1118l158 -37v-84h-735zM90 1536v164h627v-164h-627z" />
    <glyph glyph-name="imacron" unicode="&#x12b;" horiz-adv-x="706" 
d="M27 0v80l131 26v711l-129 105v41l530 104v-961l129 -26v-80h-661zM41 1270v164h627v-164h-627z" />
    <glyph glyph-name="Ibreve" unicode="&#x12c;" horiz-adv-x="808" 
d="M37 0v84l158 37v1118l-158 37v84h735v-84l-158 -37v-1118l158 -37v-84h-735zM391 1454q-134 0 -208.5 93t-76.5 225h95q33 -62 79.5 -97t125.5 -35q82 0 127.5 34.5t78.5 97.5h88q-3 -133 -85 -225.5t-224 -92.5z" />
    <glyph glyph-name="ibreve" unicode="&#x12d;" horiz-adv-x="706" 
d="M27 0v80l131 26v711l-129 105v41l530 104v-961l129 -26v-80h-661zM352 1192q-137 0 -215 95t-78 300h70q20 -103 77 -158t146 -55q96 0 151 53.5t79 159.5h65q0 -187 -81 -291t-214 -104z" />
    <glyph glyph-name="Iogonek" unicode="&#x12e;" horiz-adv-x="808" 
d="M37 0v84l158 37v1118l-158 37v84h735v-84l-158 -37v-1118l158 -37v-84h-317q-58 -118 -58 -180q0 -46 27 -74.5t68 -28.5q54 0 112 58l45 -33q-29 -55 -52.5 -90t-58.5 -70t-80.5 -52t-103.5 -17q-90 0 -146 51t-56 135q0 68 51.5 137.5t183.5 163.5h-350z" />
    <glyph glyph-name="iogonek" unicode="&#x12f;" horiz-adv-x="706" 
d="M27 0v80l131 26v711l-129 105v41l530 104v-961l129 -26v-80h-278q-58 -118 -58 -180q0 -46 26.5 -74.5t67.5 -28.5q55 0 113 58l45 -33q-29 -55 -52.5 -90t-58.5 -70t-80.5 -52t-103.5 -17q-90 0 -146.5 51t-56.5 135q0 68 52 137.5t184 163.5h-315zM369 1161
q-78 0 -132.5 55t-54.5 134q0 78 54.5 134t132.5 56q79 0 135.5 -56t56.5 -134q0 -79 -56 -134t-136 -55z" />
    <glyph glyph-name="Idotaccent" unicode="&#x130;" horiz-adv-x="808" 
d="M37 0v84l158 37v1118l-158 37v84h735v-84l-158 -37v-1118l158 -37v-84h-735zM401 1460q-78 0 -132 55t-54 134q0 78 54 134t132 56q79 0 136 -56t57 -134q0 -79 -56.5 -134t-136.5 -55z" />
    <glyph glyph-name="dotlessi" unicode="&#x131;" horiz-adv-x="706" 
d="M27 0v80l131 26v711l-129 105v41l530 104v-961l129 -26v-80h-661z" />
    <glyph glyph-name="IJ" unicode="&#x132;" horiz-adv-x="1595" 
d="M1413 1239v-1036q0 -303 -168 -449.5t-516 -167.5l-10 52q118 72 175 131t78 129t21 190v1151l-178 37v84h756v-84zM37 0v84l158 37v1118l-158 37v84h735v-84l-158 -37v-1118l158 -37v-84h-735z" />
    <glyph glyph-name="ij" unicode="&#x133;" horiz-adv-x="1378" 
d="M27 0v80l131 26v711l-129 105v41l530 104v-961l129 -26v-80h-661zM369 1161q-78 0 -132.5 55t-54.5 134q0 78 54.5 134t132.5 56q79 0 135.5 -56t56.5 -134q0 -79 -56 -134t-136 -55zM631 -449l-13 43q93 74 123 108q77 86 92 229q5 45 5 98v788l-129 105v41l530 104
v-856q0 -74 -1 -115t-5.5 -96t-14.5 -89.5t-27.5 -74.5t-44.5 -71.5t-65 -61.5q-104 -82 -237 -117t-213 -35zM1047 1161q-78 0 -132.5 55t-54.5 134q0 78 54.5 134t132.5 56q79 0 135.5 -56t56.5 -134q0 -79 -56 -134t-136 -55z" />
    <glyph glyph-name="Jcircumflex" unicode="&#x134;" horiz-adv-x="796" 
d="M614 1239v-1036q0 -303 -168 -449.5t-516 -167.5l-10 52q119 72 175.5 131t78 129t21.5 190v1151l-179 37v84h756v-84zM201 1466h-101l191 306h219l201 -306h-113l-201 148z" />
    <glyph glyph-name="jcircumflex" unicode="&#x135;" horiz-adv-x="698" 
d="M-49 -449l-12 43q93 74 124 108q76 87 91 231q4 44 4 96v788l-129 105v41l530 104v-856q0 -74 -1 -115t-5.5 -96t-14.5 -89.5t-27.5 -74.5t-44.5 -71.5t-65 -61.5q-104 -82 -237 -117t-213 -35zM166 1192h-92l194 395h178l193 -395h-92l-197 207z" />
    <glyph glyph-name="Kcommaaccent" unicode="&#x136;" horiz-adv-x="1601" 
d="M37 0v84l158 37v1118l-158 37v84h735v-84l-158 -37v-1118l158 -37v-84h-735zM1071 0l-418 621v10l527 606l-195 39v84h520v-84l-186 -43l-336 -375l500 -747l131 -27v-84h-543zM623 -506l-17 57q109 38 158 78t49 90q0 41 -33 68.5t-80 32.5v14q57 103 185 103
q79 0 133.5 -46t54.5 -122q0 -98 -112 -169.5t-338 -105.5z" />
    <glyph glyph-name="kcommaaccent" unicode="&#x137;" horiz-adv-x="1331" 
d="M152 106v1156l-123 81v43l522 148v-1428l117 -26v-80h-643v80zM1096 -29q-123 0 -200.5 46.5t-139.5 162.5l-189 350l359 367l-189 59v78h561v-78l-174 -43l-229 -196l436 -684q-11 -7 -30.5 -17.5t-81 -27.5t-123.5 -17zM442 -506l-16 57q109 38 158 78t49 90
q0 41 -33 68.5t-80 32.5v14q57 103 185 103q79 0 133.5 -46t54.5 -122q0 -98 -112.5 -169.5t-338.5 -105.5z" />
    <glyph glyph-name="kgreenlandic" unicode="&#x138;" horiz-adv-x="1331" 
d="M25 0v80l127 26v711l-123 90v43l522 121v-965l117 -26v-80h-643zM1096 -29q-123 0 -200.5 46.5t-139.5 162.5l-189 350l359 367l-189 59v78h561v-78l-174 -43l-229 -196l436 -684q-11 -7 -30.5 -17.5t-81 -27.5t-123.5 -17z" />
    <glyph glyph-name="Lacute" unicode="&#x139;" horiz-adv-x="1294" 
d="M614 145q56 -59 164 -59h146l264 477h76l-103 -563h-1124v84l158 37v1118l-158 37v84h735v-84l-158 -37v-1094zM516 1772h303v-29l-348 -277h-117z" />
    <glyph glyph-name="lacute" unicode="&#x13a;" horiz-adv-x="690" 
d="M25 0v80l127 26v1156l-123 81v43l522 148v-1428l123 -26v-80h-649zM446 1853h304v-28l-349 -277h-116z" />
    <glyph glyph-name="Lcommaaccent" unicode="&#x13b;" horiz-adv-x="1294" 
d="M614 145q56 -59 164 -59h146l264 477h76l-103 -563h-1124v84l158 37v1118l-158 37v84h735v-84l-158 -37v-1094zM377 -506l-17 57q109 38 158 78t49 90q0 41 -33 68.5t-79 32.5v14q57 103 184 103q79 0 133.5 -46t54.5 -122q0 -98 -112 -169.5t-338 -105.5z" />
    <glyph glyph-name="lcommaaccent" unicode="&#x13c;" horiz-adv-x="690" 
d="M25 0v80l127 26v1156l-123 81v43l522 148v-1428l123 -26v-80h-649zM76 -506l-17 57q109 38 158 78t49 90q0 41 -33 68.5t-79 32.5v14q57 103 184 103q79 0 133.5 -46t54.5 -122q0 -98 -112 -169.5t-338 -105.5z" />
    <glyph glyph-name="Lcaron" unicode="&#x13d;" horiz-adv-x="1294" 
d="M614 145q56 -59 164 -59h146l264 477h76l-103 -563h-1124v84l158 37v1118l-158 37v84h735v-84l-158 -37v-1094zM1012 1063h-66l47 432h271v-16z" />
    <glyph glyph-name="lcaron" unicode="&#x13e;" horiz-adv-x="690" 
d="M25 0v80l127 26v1156l-123 81v43l522 148v-1428l123 -26v-80h-649zM696 1063h-65l47 432h270v-16z" />
    <glyph glyph-name="Ldot" unicode="&#x13f;" horiz-adv-x="1294" 
d="M1087 578q-73 0 -128.5 55t-55.5 127q0 76 55 131t129 55q77 0 132 -55t55 -131q0 -73 -55.5 -127.5t-131.5 -54.5zM614 145q56 -59 164 -59h146l250 397h75l-88 -483h-1124v84l158 37v1118l-158 37v84h735v-84l-158 -37v-1094z" />
    <glyph glyph-name="ldot" unicode="&#x140;" horiz-adv-x="942" 
d="M817 578q-73 0 -128.5 55t-55.5 127q0 76 55 131t129 55q77 0 132 -55t55 -131q0 -73 -55.5 -127.5t-131.5 -54.5zM25 0v80l127 26v1156l-123 81v43l522 148v-1428l123 -26v-80h-649z" />
    <glyph glyph-name="Lslash" unicode="&#x141;" horiz-adv-x="1294" 
d="M49 483v97l146 45v614l-158 37v84h735v-84l-158 -37v-483l369 116v-96l-369 -117v-507q57 -60 164 -60h146l264 471h76l-103 -563h-1124v84l158 37v407z" />
    <glyph glyph-name="lslash" unicode="&#x142;" horiz-adv-x="690" 
d="M25 580v106l127 53v523l-123 81v43l522 148v-629l151 64v-105l-151 -63v-695l123 -26v-80h-649v80l127 26v527z" />
    <glyph glyph-name="Nacute" unicode="&#x143;" horiz-adv-x="1511" 
d="M1350 6l-183 -33l-850 1008l15 -856l227 -41v-84h-514v84l158 35v1014q-28 36 -47.5 57t-50.5 44t-64 32l-39 12v82h539l690 -815l-12 676l-222 57v82h506v-82l-157 -43v-1098zM899 1772h303v-29l-348 -277h-117z" />
    <glyph glyph-name="nacute" unicode="&#x144;" horiz-adv-x="1351" 
d="M25 0v80l127 26v711l-123 90v43l463 121h10l22 -192h4q183 188 373 188q141 0 224 -80t83 -227v-654l127 -26v-80h-626v82l100 24v549q0 86 -44.5 137t-117.5 50q-56 -3 -96 -25v-711l96 -26v-80h-622zM733 1587h285v-14l-309 -381h-84z" />
    <glyph glyph-name="Ncommaaccent" unicode="&#x145;" horiz-adv-x="1511" 
d="M1350 6l-183 -33l-850 1008l15 -856l227 -41v-84h-514v84l158 35v1014q-28 36 -47.5 57t-50.5 44t-64 32l-39 12v82h539l690 -815l-12 676l-222 57v82h506v-82l-157 -43v-1098zM532 -506l-16 57q109 38 158 78t49 90q0 41 -33 68.5t-80 32.5v14q57 103 185 103
q79 0 133.5 -46t54.5 -122q0 -98 -112.5 -169.5t-338.5 -105.5z" />
    <glyph glyph-name="ncommaaccent" unicode="&#x146;" horiz-adv-x="1351" 
d="M25 0v80l127 26v711l-123 90v43l463 121h10l22 -192h4q183 188 373 188q141 0 224 -80t83 -227v-654l127 -26v-80h-626v82l100 24v549q0 86 -44.5 137t-117.5 50q-56 -3 -96 -25v-711l96 -26v-80h-622zM399 -506l-16 57q109 38 158 78t49 90q0 41 -33 68.5t-80 32.5v14
q57 103 185 103q79 0 133.5 -46t54.5 -122q0 -98 -112.5 -169.5t-338.5 -105.5z" />
    <glyph glyph-name="Ncaron" unicode="&#x147;" horiz-adv-x="1511" 
d="M1350 6l-183 -33l-850 1008l15 -856l227 -41v-84h-514v84l158 35v1014q-28 36 -47.5 57t-50.5 44t-64 32l-39 12v82h539l690 -815l-12 676l-222 57v82h506v-82l-157 -43v-1098zM997 1772h101l-191 -306h-219l-201 306h113l201 -154z" />
    <glyph glyph-name="ncaron" unicode="&#x148;" horiz-adv-x="1351" 
d="M25 0v80l127 26v711l-123 90v43l463 121h10l22 -192h4q183 188 373 188q141 0 224 -80t83 -227v-654l127 -26v-80h-626v82l100 24v549q0 86 -44.5 137t-117.5 50q-56 -3 -96 -25v-711l96 -26v-80h-622zM862 1587h92l-194 -395h-178l-193 395h92l197 -207z" />
    <glyph glyph-name="napostrophe" unicode="&#x149;" horiz-adv-x="1351" 
d="M25 0v80l127 26v711l-123 90v43l463 121h10l22 -192h4q183 188 373 188q141 0 224 -80t83 -227v-654l127 -26v-80h-626v82l100 24v549q0 86 -44.5 137t-117.5 50q-56 -3 -96 -25v-711l96 -26v-80h-622zM-43 1120l-16 58q109 38 157.5 78t48.5 90q0 41 -32.5 68t-79.5 32
v14q57 103 184 103q79 0 134 -46t55 -122q0 -98 -112.5 -169.5t-338.5 -105.5z" />
    <glyph glyph-name="Eng" unicode="&#x14a;" horiz-adv-x="1527" 
d="M1503 1278l-157 -43v-1030q0 -293 -152.5 -440.5t-476.5 -172.5l-10 52q87 30 152 61t124.5 73.5t99 99t58.5 126.5l-813 965l16 -844l227 -41v-84h-526v84l158 35v1014q-28 36 -47.5 57t-50.5 44t-64 32l-39 12v82h539l690 -815l-12 676l-222 57v82h506v-82z" />
    <glyph glyph-name="eng" unicode="&#x14b;" horiz-adv-x="1347" 
d="M809 29v626q0 86 -44.5 137t-117.5 50q-56 -3 -96 -25v-711l96 -26v-80h-622v80l127 26v711l-123 90v43l463 121h10l22 -192h4q183 188 373 188q141 0 224 -80t83 -227v-549q0 -66 -0.5 -99t-3.5 -85t-8.5 -80.5t-16.5 -67.5t-27.5 -65.5t-41 -55.5t-57.5 -55
q-104 -82 -237.5 -117t-213.5 -35l-12 43q93 74 124 108q76 87 91 231q4 45 4 96z" />
    <glyph glyph-name="Omacron" unicode="&#x14c;" horiz-adv-x="1656" 
d="M858 68q126 0 201.5 141t75.5 428q0 180 -39.5 331t-118.5 246t-184 95q-120 0 -195.5 -143t-75.5 -431q0 -297 99 -482t237 -185zM831 1401q120 0 232 -28t210.5 -86t172 -140t116 -197.5t42.5 -251.5q0 -127 -43.5 -241.5t-119.5 -201t-175 -150.5t-214 -97t-233 -33
q-124 0 -238 30.5t-210 90.5t-167 143.5t-111 196t-40 242.5q0 151 65.5 287t173 230.5t249 150t290.5 55.5zM514 1536v164h627v-164h-627z" />
    <glyph glyph-name="omacron" unicode="&#x14d;" horiz-adv-x="1290" 
d="M606 985q-41 0 -70 -32.5t-42.5 -87.5t-19 -107t-5.5 -111q0 -159 27 -295.5t76.5 -219.5t109.5 -83q135 0 135 354q0 152 -25.5 284t-74.5 215t-111 83zM645 -31q-140 0 -254.5 44t-187.5 118.5t-112.5 171t-39.5 203.5q0 161 78.5 289.5t214 199t301.5 70.5
q259 0 426.5 -151t167.5 -382q0 -163 -78 -292t-213 -200t-303 -71zM332 1270v164h626v-164h-626z" />
    <glyph glyph-name="Obreve" unicode="&#x14e;" horiz-adv-x="1656" 
d="M858 68q126 0 201.5 141t75.5 428q0 180 -39.5 331t-118.5 246t-184 95q-120 0 -195.5 -143t-75.5 -431q0 -297 99 -482t237 -185zM831 1401q120 0 232 -28t210.5 -86t172 -140t116 -197.5t42.5 -251.5q0 -127 -43.5 -241.5t-119.5 -201t-175 -150.5t-214 -97t-233 -33
q-124 0 -238 30.5t-210 90.5t-167 143.5t-111 196t-40 242.5q0 151 65.5 287t173 230.5t249 150t290.5 55.5zM815 1454q-134 0 -208.5 93t-76.5 225h95q33 -62 79 -97t125 -35q83 0 128.5 34.5t78.5 97.5h88q-3 -133 -85 -225.5t-224 -92.5z" />
    <glyph glyph-name="obreve" unicode="&#x14f;" horiz-adv-x="1290" 
d="M606 985q-41 0 -70 -32.5t-42.5 -87.5t-19 -107t-5.5 -111q0 -159 27 -295.5t76.5 -219.5t109.5 -83q135 0 135 354q0 152 -25.5 284t-74.5 215t-111 83zM645 -31q-140 0 -254.5 44t-187.5 118.5t-112.5 171t-39.5 203.5q0 161 78.5 289.5t214 199t301.5 70.5
q259 0 426.5 -151t167.5 -382q0 -163 -78 -292t-213 -200t-303 -71zM645 1192q-137 0 -215 95t-78 300h70q20 -103 77 -158t146 -55q96 0 150.5 53.5t78.5 159.5h66q0 -187 -81 -291t-214 -104z" />
    <glyph glyph-name="Ohungarumlaut" unicode="&#x150;" horiz-adv-x="1656" 
d="M858 68q126 0 201.5 141t75.5 428q0 180 -39.5 331t-118.5 246t-184 95q-120 0 -195.5 -143t-75.5 -431q0 -297 99 -482t237 -185zM831 1401q120 0 232 -28t210.5 -86t172 -140t116 -197.5t42.5 -251.5q0 -127 -43.5 -241.5t-119.5 -201t-175 -150.5t-214 -97t-233 -33
q-124 0 -238 30.5t-210 90.5t-167 143.5t-111 196t-40 242.5q0 151 65.5 287t173 230.5t249 150t290.5 55.5zM647 1772h262v-23l-237 -283h-109zM1022 1772h264v-23l-239 -283h-109z" />
    <glyph glyph-name="ohungarumlaut" unicode="&#x151;" horiz-adv-x="1290" 
d="M606 985q-41 0 -70 -32.5t-42.5 -87.5t-19 -107t-5.5 -111q0 -159 27 -295.5t76.5 -219.5t109.5 -83q135 0 135 354q0 152 -25.5 284t-74.5 215t-111 83zM645 -31q-140 0 -254.5 44t-187.5 118.5t-112.5 171t-39.5 203.5q0 161 78.5 289.5t214 199t301.5 70.5
q259 0 426.5 -151t167.5 -382q0 -163 -78 -292t-213 -200t-303 -71zM475 1587h254v-18l-246 -377h-82zM815 1587h256v-18l-246 -377h-86z" />
    <glyph glyph-name="OE" unicode="&#x152;" horiz-adv-x="2207" 
d="M1681 1360h439v-428h-78l-150 338h-391v-520h172l70 241h80v-573h-80l-70 229h-172v-497q59 -62 162 -62h182l240 416h78l-76 -504h-406q-111 0 -420 -7t-442 -7q-156 0 -294 45t-243.5 129.5t-167 215.5t-61.5 292q0 151 65.5 284.5t173 224.5t248.5 144t291 53
q72 0 295 -7t555 -7zM868 63q110 0 162.5 85.5t52.5 220.5v780q-43 70 -105 109.5t-130 39.5q-142 0 -232 -144t-90 -431q0 -295 102.5 -477.5t239.5 -182.5z" />
    <glyph glyph-name="oe" unicode="&#x153;" horiz-adv-x="1984" 
d="M1430 -27q-104 0 -204 55.5t-171 151.5q-70 -101 -178.5 -160t-241.5 -59q-137 0 -250 44t-186 119t-112.5 171.5t-39.5 204.5q0 162 80 291t217 199.5t305 70.5q132 0 237.5 -55.5t174.5 -151.5q75 99 182 156t217 57q211 0 318 -120t135 -345h-651q8 -90 45.5 -162.5
t93 -117t120 -68t132.5 -23.5q110 0 241 62l31 -45q-212 -275 -495 -275zM608 979q-40 0 -66.5 -32t-38 -89t-15 -106.5t-3.5 -114.5q0 -147 24.5 -281.5t72.5 -223.5t108 -89q119 0 119 352q0 143 -23.5 275t-70.5 220.5t-107 88.5zM1389 975q-54 0 -90 -70.5t-39 -220.5
h272q-6 127 -44.5 209t-98.5 82z" />
    <glyph glyph-name="Racute" unicode="&#x154;" horiz-adv-x="1505" 
d="M37 0v84l158 37v1118l-158 37v84h622q184 0 320 -27.5t213 -76.5t113 -109t36 -133q0 -109 -71.5 -197t-218.5 -145v-10l323 -551l131 -27v-84h-516l-346 590h-35v-469l146 -37v-84h-717zM608 1276v-592h146q87 26 141.5 102.5t54.5 169.5q0 139 -97.5 224t-244.5 96z
M815 1772h303v-29l-348 -277h-117z" />
    <glyph glyph-name="racute" unicode="&#x155;" horiz-adv-x="972" 
d="M25 0v80l127 26v711l-123 90v43l471 121h12l14 -274h11l32 71q45 101 101.5 149t146.5 48q75 0 131 -49.5t56 -136.5q0 -99 -68 -154.5t-199 -52.5l-104 114q-26 -13 -51.5 -41t-30.5 -61v-578l192 -26v-80h-718zM616 1587h285v-14l-309 -381h-84z" />
    <glyph glyph-name="Rcommaaccent" unicode="&#x156;" horiz-adv-x="1505" 
d="M37 0v84l158 37v1118l-158 37v84h622q184 0 320 -27.5t213 -76.5t113 -109t36 -133q0 -109 -71.5 -197t-218.5 -145v-10l323 -551l131 -27v-84h-516l-346 590h-35v-469l146 -37v-84h-717zM608 1276v-592h146q87 26 141.5 102.5t54.5 169.5q0 139 -97.5 224t-244.5 96z
M563 -506l-16 57q109 38 158 78t49 90q0 41 -33 68.5t-80 32.5v14q57 103 184 103q79 0 134 -46t55 -122q0 -98 -112.5 -169.5t-338.5 -105.5z" />
    <glyph glyph-name="rcommaaccent" unicode="&#x157;" horiz-adv-x="972" 
d="M25 0v80l127 26v711l-123 90v43l471 121h12l14 -274h11l32 71q45 101 101.5 149t146.5 48q75 0 131 -49.5t56 -136.5q0 -99 -68 -154.5t-199 -52.5l-104 114q-26 -13 -51.5 -41t-30.5 -61v-578l192 -26v-80h-718zM90 -506l-16 57q109 38 158 78t49 90q0 41 -33 68.5
t-80 32.5v14q57 103 184 103q79 0 134 -46t55 -122q0 -98 -112.5 -169.5t-338.5 -105.5z" />
    <glyph glyph-name="Rcaron" unicode="&#x158;" horiz-adv-x="1505" 
d="M37 0v84l158 37v1118l-158 37v84h622q184 0 320 -27.5t213 -76.5t113 -109t36 -133q0 -109 -71.5 -197t-218.5 -145v-10l323 -551l131 -27v-84h-516l-346 590h-35v-469l146 -37v-84h-717zM608 1276v-592h146q87 26 141.5 102.5t54.5 169.5q0 139 -97.5 224t-244.5 96z
M913 1772h101l-191 -306h-219l-201 306h113l201 -154z" />
    <glyph glyph-name="rcaron" unicode="&#x159;" horiz-adv-x="972" 
d="M25 0v80l127 26v711l-123 90v43l471 121h12l14 -274h11l32 71q45 101 101.5 149t146.5 48q75 0 131 -49.5t56 -136.5q0 -99 -68 -154.5t-199 -52.5l-104 114q-26 -13 -51.5 -41t-30.5 -61v-578l192 -26v-80h-718zM745 1587h93l-195 -395h-178l-193 395h93l196 -207z" />
    <glyph glyph-name="Sacute" unicode="&#x15a;" horiz-adv-x="1191" 
d="M117 55l-45 461h65l199 -379q92 -74 211 -74q90 0 149.5 58t59.5 143q0 83 -44 128.5t-147 84.5l-116 43q-175 65 -255.5 168.5t-80.5 251.5q0 80 35 158.5t103 147t183.5 111t259.5 42.5q173 0 365 -80v-395h-68l-155 344q-56 49 -150 49q-98 0 -159.5 -55.5
t-61.5 -139.5q0 -88 55 -138.5t178 -94.5l140 -49q288 -105 288 -351q0 -122 -50 -221.5t-134.5 -163t-192 -97.5t-225.5 -34q-176 0 -407 82zM745 1772h304v-29l-349 -277h-116z" />
    <glyph glyph-name="sacute" unicode="&#x15b;" horiz-adv-x="993" 
d="M408 -31q-86 0 -159.5 15.5t-168.5 48.5l-14 344h67l143 -264q18 -21 57 -39.5t81 -18.5q73 0 117 36.5t44 98.5q0 100 -118 144l-150 55q-229 83 -229 320q0 160 132 261t361 101q148 0 308 -61v-320h-62l-129 242q-62 51 -133 51q-61 0 -101 -35t-40 -90t32.5 -88
t94.5 -57l147 -56q240 -87 240 -292q0 -173 -148.5 -284.5t-371.5 -111.5zM610 1587h285v-14l-309 -381h-84z" />
    <glyph glyph-name="Scircumflex" unicode="&#x15c;" horiz-adv-x="1191" 
d="M117 55l-45 461h65l199 -379q92 -74 211 -74q91 0 150 59t59 150q0 74 -44 120.5t-141 82.5l-122 45q-175 65 -255.5 168.5t-80.5 251.5q0 80 35 158.5t103 147t183.5 111t259.5 42.5q173 0 365 -80v-395h-68l-155 344q-56 49 -150 49q-98 0 -159.5 -55.5t-61.5 -139.5
q0 -88 55 -138.5t178 -94.5l140 -49q288 -105 288 -351q0 -122 -50 -221.5t-134.5 -163t-192 -97.5t-225.5 -34q-176 0 -407 82zM453 1466h-101l191 306h219l201 -306h-113l-201 148z" />
    <glyph glyph-name="scircumflex" unicode="&#x15d;" horiz-adv-x="993" 
d="M408 -31q-86 0 -159.5 15.5t-168.5 48.5l-14 344h67l143 -264q18 -21 57 -39.5t81 -18.5q73 0 117 36.5t44 98.5q0 100 -118 144l-150 55q-229 83 -229 320q0 160 132 261t361 101q148 0 308 -61v-320h-62l-129 242q-62 51 -133 51q-61 0 -101 -35t-40 -90t32.5 -88
t94.5 -57l147 -56q240 -87 240 -292q0 -173 -148.5 -284.5t-371.5 -111.5zM344 1192h-92l194 395h179l192 -395h-92l-197 207z" />
    <glyph glyph-name="Scedilla" unicode="&#x15e;" horiz-adv-x="1191" 
d="M319 -506l-16 57q207 70 207 166q0 72 -98 103l108 153q-183 2 -403 82l-45 461h65l199 -379q92 -74 211 -74q90 0 149.5 58t59.5 145q0 81 -43 126.5t-135 80.5l-129 47q-175 65 -255.5 168.5t-80.5 251.5q0 80 35 158.5t103 147t183.5 111t259.5 42.5q173 0 365 -80
v-395h-68l-155 344q-56 49 -150 49q-98 0 -159.5 -55.5t-61.5 -139.5q0 -88 55 -138.5t178 -94.5l140 -49q288 -105 288 -351q0 -112 -42.5 -206t-116 -157t-168 -101t-201.5 -48l-43 -59q93 -8 154 -48.5t61 -111.5q0 -93 -113.5 -161t-337.5 -103z" />
    <glyph glyph-name="scedilla" unicode="&#x15f;" horiz-adv-x="993" 
d="M412 -31q-88 0 -162.5 15.5t-169.5 48.5l-14 344h67l143 -264q18 -21 57 -39.5t81 -18.5q73 0 117 36.5t44 98.5q0 53 -29 87.5t-89 56.5l-150 55q-229 83 -229 320q0 160 132 261t361 101q148 0 308 -61v-320h-62l-129 242q-62 51 -133 51q-61 0 -101 -35t-40 -90
t32.5 -88t94.5 -57l147 -56q240 -87 240 -292q0 -156 -123.5 -263.5t-315.5 -128.5l-38 -55q93 -8 154 -48.5t61 -111.5q0 -93 -113.5 -161t-337.5 -103l-16 57q207 70 207 166q0 72 -99 103z" />
    <glyph glyph-name="Scaron" unicode="&#x160;" horiz-adv-x="1191" 
d="M117 55l-45 461h65l199 -379q92 -74 211 -74q91 0 150 59t59 150q0 78 -41.5 121.5t-136.5 79.5l-129 47q-175 65 -255.5 168.5t-80.5 251.5q0 80 35 158.5t103 147t183.5 111t259.5 42.5q173 0 365 -80v-395h-68l-155 344q-56 49 -150 49q-98 0 -159.5 -55.5
t-61.5 -139.5q0 -88 55 -138.5t178 -94.5l140 -49q288 -105 288 -351q0 -122 -50 -221.5t-134.5 -163t-192 -97.5t-225.5 -34q-176 0 -407 82zM844 1772h100l-190 -306h-219l-201 306h112l201 -154z" />
    <glyph glyph-name="scaron" unicode="&#x161;" horiz-adv-x="993" 
d="M408 -31q-86 0 -159.5 15.5t-168.5 48.5l-14 344h67l143 -264q18 -21 57 -39.5t81 -18.5q73 0 117 36.5t44 98.5q0 100 -118 144l-150 55q-229 83 -229 320q0 160 132 261t361 101q148 0 308 -61v-320h-62l-129 242q-62 51 -133 51q-61 0 -101 -35t-40 -90t32.5 -88
t94.5 -57l147 -56q240 -87 240 -292q0 -173 -148.5 -284.5t-371.5 -111.5zM725 1587h92l-194 -395h-179l-192 395h92l197 -207z" />
    <glyph glyph-name="Tcommaaccent" unicode="&#x162;" horiz-adv-x="1345" 
d="M1315 1360v-455h-64l-145 350h-223v-1134l200 -37v-84h-823v84l203 37v1134h-223l-146 -350h-63v455h1284zM408 -506l-17 57q109 38 158 78t49 90q0 41 -33 68.5t-80 32.5v14q57 103 185 103q79 0 133.5 -46t54.5 -122q0 -98 -112 -169.5t-338 -105.5z" />
    <glyph glyph-name="tcommaaccent" unicode="&#x163;" horiz-adv-x="823" 
d="M430 -31q-302 0 -299 314l6 624h-149v76l151 57l359 244h32v-250h301v-127h-301v-631q20 -73 74.5 -104t124.5 -31q37 0 92 11l13 -68q-100 -54 -194.5 -84.5t-209.5 -30.5zM166 -506l-16 57q109 38 157.5 78t48.5 90q0 41 -33 68.5t-79 32.5v14q57 103 184 103
q79 0 133.5 -46t54.5 -122q0 -98 -112 -169.5t-338 -105.5z" />
    <glyph glyph-name="Tcaron" unicode="&#x164;" horiz-adv-x="1345" 
d="M1315 1360v-455h-64l-145 350h-223v-1134l200 -37v-84h-823v84l203 37v1134h-223l-146 -350h-63v455h1284zM872 1772h101l-191 -306h-219l-201 306h113l201 -154z" />
    <glyph glyph-name="tcaron" unicode="&#x165;" horiz-adv-x="823" 
d="M430 -31q-302 0 -299 314l6 624h-149v76l151 57l359 244h32v-250h301v-127h-301v-631q20 -73 74.5 -104t124.5 -31q37 0 92 11l13 -68q-100 -54 -194.5 -84.5t-209.5 -30.5zM711 1155h-66l47 432h271v-16z" />
    <glyph glyph-name="Tbar" unicode="&#x166;" horiz-adv-x="1345" 
d="M160 680v115h303v452h-223l-146 -342h-63v455h1284v-455h-64l-145 342h-223v-452h299v-115h-299v-559l200 -37v-84h-823v84l203 37v559h-303z" />
    <glyph glyph-name="tbar" unicode="&#x167;" horiz-adv-x="823" 
d="M-12 614v101h147l2 192h-149v76l151 57l359 244h32v-250h301v-127h-301v-192h301v-101h-301v-338q20 -73 74.5 -104t124.5 -31q37 0 92 11l13 -68q-100 -54 -194.5 -84.5t-209.5 -30.5q-302 0 -299 314l2 331h-145z" />
    <glyph glyph-name="Utilde" unicode="&#x168;" horiz-adv-x="1513" 
d="M758 -31q-102 0 -188.5 18t-161.5 58.5t-127.5 102.5t-82.5 154.5t-30 209.5v727l-158 37v84h783v-84l-201 -37v-723q0 -95 25 -167t69 -114.5t98 -63.5t117 -21q138 0 228.5 90t89.5 272l-5 723l-202 41v84h491v-84l-155 -41v-668q0 -283 -147 -440.5t-443 -157.5z
M899 1556l-94 25q-89 22 -137 23.5t-81.5 -18t-62.5 -70.5l-49 20l12 35q26 73 52 121t56.5 80t70.5 44t87.5 9.5t112.5 -19.5l92 -24q71 -17 117 -17.5t90.5 23t81.5 78.5l49 -21l-18 -47q-31 -80 -58.5 -129.5t-57.5 -82t-68.5 -43t-84 -7.5t-110.5 20z" />
    <glyph glyph-name="utilde" unicode="&#x169;" horiz-adv-x="1331" 
d="M815 -23l-24 158q-178 -166 -353 -166q-37 0 -71 5.5t-69.5 18t-64.5 36.5t-52 57t-35.5 82.5t-12.5 110.5v563l-123 67v49l522 97v-697q0 -82 31.5 -127t116.5 -45q52 0 104 25v643l-120 66v51l520 92v-922l127 -24v-68zM692 1223l-92 30q-82 27 -131.5 27t-80 -22.5
t-60.5 -75.5l-49 20l12 35q64 181 150 235t239 1l90 -31q93 -33 159 -13t122 103l49 -21l-19 -47q-39 -99 -74 -156.5t-81 -86.5t-100.5 -27.5t-133.5 29.5z" />
    <glyph glyph-name="Umacron" unicode="&#x16a;" horiz-adv-x="1513" 
d="M758 -31q-102 0 -188.5 18t-161.5 58.5t-127.5 102.5t-82.5 154.5t-30 209.5v727l-158 37v84h783v-84l-201 -37v-723q0 -95 25 -167t69 -114.5t98 -63.5t117 -21q138 0 228.5 90t89.5 272l-5 723l-202 41v84h491v-84l-155 -41v-668q0 -283 -147 -440.5t-443 -157.5z
M547 1536v164h627v-164h-627z" />
    <glyph glyph-name="umacron" unicode="&#x16b;" horiz-adv-x="1331" 
d="M815 -23l-24 158q-178 -166 -353 -166q-37 0 -71 5.5t-69.5 18t-64.5 36.5t-52 57t-35.5 82.5t-12.5 110.5v563l-123 67v49l522 97v-697q0 -82 31.5 -127t116.5 -45q52 0 104 25v643l-120 66v51l520 92v-922l127 -24v-68zM354 1270v164h627v-164h-627z" />
    <glyph glyph-name="Ubreve" unicode="&#x16c;" horiz-adv-x="1513" 
d="M758 -31q-102 0 -188.5 18t-161.5 58.5t-127.5 102.5t-82.5 154.5t-30 209.5v727l-158 37v84h783v-84l-201 -37v-723q0 -95 25 -167t69 -114.5t98 -63.5t117 -21q138 0 228.5 90t89.5 272l-5 723l-202 41v84h491v-84l-155 -41v-668q0 -283 -147 -440.5t-443 -157.5z
M848 1454q-134 0 -208.5 93t-76.5 225h94q33 -62 79.5 -97t125.5 -35q83 0 128.5 34.5t78.5 97.5h88q-3 -133 -85 -225.5t-224 -92.5z" />
    <glyph glyph-name="ubreve" unicode="&#x16d;" horiz-adv-x="1331" 
d="M815 -23l-24 158q-178 -166 -353 -166q-37 0 -71 5.5t-69.5 18t-64.5 36.5t-52 57t-35.5 82.5t-12.5 110.5v563l-123 67v49l522 97v-697q0 -82 31.5 -127t116.5 -45q52 0 104 25v643l-120 66v51l520 92v-922l127 -24v-68zM668 1192q-137 0 -215 95t-78 300h69
q20 -103 77.5 -158t146.5 -55q96 0 150.5 53.5t78.5 159.5h66q0 -187 -81 -291t-214 -104z" />
    <glyph glyph-name="Uring" unicode="&#x16e;" horiz-adv-x="1513" 
d="M758 -31q-102 0 -188.5 18t-161.5 58.5t-127.5 102.5t-82.5 154.5t-30 209.5v727l-158 37v84h783v-84l-201 -37v-723q0 -95 25 -167t69 -114.5t98 -63.5t117 -21q138 0 228.5 90t89.5 272l-5 723l-202 41v84h491v-84l-155 -41v-668q0 -283 -147 -440.5t-443 -157.5z
M631 1698q0 91 65.5 155t165.5 64q101 0 164.5 -62t63.5 -153t-65.5 -155t-166.5 -64t-164 62t-63 153zM727 1702q0 -61 39.5 -102t95.5 -41t93.5 39t37.5 100t-39.5 102t-95.5 41t-93.5 -39t-37.5 -100z" />
    <glyph glyph-name="uring" unicode="&#x16f;" horiz-adv-x="1331" 
d="M815 -23l-24 158q-178 -166 -353 -166q-37 0 -71 5.5t-69.5 18t-64.5 36.5t-52 57t-35.5 82.5t-12.5 110.5v563l-123 67v49l522 97v-697q0 -82 31.5 -127t116.5 -45q52 0 104 25v643l-120 66v51l520 92v-922l127 -24v-68zM438 1370q0 91 66 155t166 64q101 0 164 -62
t63 -153t-65 -155t-166 -64t-164.5 62t-63.5 153zM535 1374q0 -61 39.5 -102t95.5 -41t93.5 39t37.5 100t-39.5 102t-95.5 41t-93.5 -39t-37.5 -100z" />
    <glyph glyph-name="Uhungarumlaut" unicode="&#x170;" horiz-adv-x="1513" 
d="M758 -31q-102 0 -188.5 18t-161.5 58.5t-127.5 102.5t-82.5 154.5t-30 209.5v727l-158 37v84h783v-84l-201 -37v-723q0 -95 25 -167t69 -114.5t98 -63.5t117 -21q138 0 228.5 90t89.5 272l-5 723l-202 41v84h491v-84l-155 -41v-668q0 -283 -147 -440.5t-443 -157.5z
M680 1772h262v-23l-237 -283h-109zM1055 1772h264v-23l-240 -283h-108z" />
    <glyph glyph-name="uhungarumlaut" unicode="&#x171;" horiz-adv-x="1331" 
d="M815 -23l-24 158q-178 -166 -353 -166q-37 0 -71 5.5t-69.5 18t-64.5 36.5t-52 57t-35.5 82.5t-12.5 110.5v563l-123 67v49l522 97v-697q0 -82 31.5 -127t116.5 -45q52 0 104 25v643l-120 66v51l520 92v-922l127 -24v-68zM848 1587h256v-18l-246 -377h-86zM508 1587h254
v-18l-246 -377h-82z" />
    <glyph glyph-name="Uogonek" unicode="&#x172;" horiz-adv-x="1513" 
d="M758 -31q-102 0 -188.5 18t-161.5 58.5t-127.5 102.5t-82.5 154.5t-30 209.5v727l-158 37v84h783v-84l-201 -37v-723q0 -95 25 -167t69 -114.5t98 -63.5t117 -21q138 0 228.5 90t89.5 272l-5 723l-202 41v84h491v-84l-155 -41v-668q0 -239 -105 -390t-317 -191
q-72 -106 -72 -170q0 -44 27 -71.5t67 -27.5q55 0 113 58l45 -33q-29 -55 -52.5 -90t-58.5 -70t-80.5 -52t-103.5 -17q-90 0 -146.5 51t-56.5 135q0 65 46.5 127.5t168.5 144.5q-11 0 -32 -1t-33 -1z" />
    <glyph glyph-name="uogonek" unicode="&#x173;" horiz-adv-x="1331" 
d="M438 -31q-37 0 -71 5.5t-69.5 18t-64.5 36.5t-52 57t-35.5 82.5t-12.5 110.5v563l-123 67v49l522 97v-697q0 -82 31.5 -127t116.5 -45q52 0 104 25v643l-120 66v51l520 92v-922l127 -24v-68l-400 -57q-75 -108 -75 -176q0 -44 27 -71.5t67 -27.5q54 0 112 58l45 -33
q-29 -55 -52.5 -90t-58.5 -70t-80 -52t-103 -17q-90 0 -146.5 51t-56.5 135q0 66 48.5 129.5t176.5 148.5l-24 158q-178 -166 -353 -166z" />
    <glyph glyph-name="Wcircumflex" unicode="&#x174;" horiz-adv-x="2125" 
d="M1360 -25l-295 846l-309 -846h-201l-436 1266l-121 33v86h684v-84l-121 -35l256 -868l201 585l-96 283l-88 35v84h690v-84l-168 -35l258 -838l272 826l-180 47v84h422v-84l-129 -41l-436 -1260h-203zM963 1466h-101l191 306h219l201 -306h-113l-201 148z" />
    <glyph glyph-name="wcircumflex" unicode="&#x175;" horiz-adv-x="1699" 
d="M1067 1034l254 -575l16 -47h2l13 49l133 471l-162 24v78h397v-78l-112 -20l-326 -963h-164l-235 523l-21 53h-2l-18 -51l-215 -525h-168l-365 963l-114 20v78h698v-78l-146 -20l154 -465l19 -68h2l22 68l217 563h121zM825 1192h-92l195 395h178l192 -395h-92l-196 207z
" />
    <glyph glyph-name="Ycircumflex" unicode="&#x176;" horiz-adv-x="1404" 
d="M1274 1235l-350 -662v-452l161 -39v-82h-741v82l162 39v407l-381 711l-127 37v84h776v-84l-201 -37l289 -590l293 586l-211 41v84h463v-84zM643 1466h-100l190 306h219l201 -306h-113l-200 148z" />
    <glyph glyph-name="ycircumflex" unicode="&#x177;" horiz-adv-x="1099" 
d="M899 932l-111 24v78h322v-78l-88 -20l-492 -1188q-45 -110 -106 -166.5t-150 -56.5q-78 0 -135 54.5t-57 139.5q0 84 56 138.5t136 54.5q130 0 175 -125h4l45 111l-430 1040l-78 18v78h631v-78l-125 -16l192 -573zM496 1192h-93l195 395h178l193 -395h-92l-197 207z" />
    <glyph glyph-name="Ydieresis" unicode="&#x178;" horiz-adv-x="1404" 
d="M1274 1235l-350 -662v-452l161 -39v-82h-741v82l162 39v407l-381 711l-127 37v84h776v-84l-201 -37l289 -590l293 586l-211 41v84h463v-84zM539 1460q-71 0 -121.5 50t-50.5 120q0 69 51 120.5t121 51.5q69 0 120.5 -51.5t51.5 -120.5q0 -70 -51 -120t-121 -50z
M1063 1460q-69 0 -118.5 50t-49.5 120q0 69 49.5 120.5t118.5 51.5t121.5 -51.5t52.5 -120.5q0 -70 -52 -120t-122 -50z" />
    <glyph glyph-name="Zacute" unicode="&#x179;" horiz-adv-x="1355" 
d="M51 0v86l688 1171h-432l-174 -358h-67l14 461h1180v-25l-754 -1235h534l236 394h70l-91 -494h-1204zM752 1772h303v-29l-348 -277h-117z" />
    <glyph glyph-name="zacute" unicode="&#x17a;" horiz-adv-x="1075" 
d="M37 0v49l518 883h-272l-146 -316h-67v443l184 -25h776v-12l-538 -920h280l195 342h71l-47 -444h-954zM618 1587h285v-14l-309 -381h-84z" />
    <glyph glyph-name="Zdotaccent" unicode="&#x17b;" horiz-adv-x="1355" 
d="M51 0v86l688 1171h-432l-174 -358h-67l14 461h1180v-25l-754 -1235h534l236 394h70l-91 -494h-1204zM655 1460q-78 0 -132 55t-54 134q0 78 54 134t132 56q79 0 136 -56t57 -134q0 -79 -56.5 -134t-136.5 -55z" />
    <glyph glyph-name="zdotaccent" unicode="&#x17c;" horiz-adv-x="1075" 
d="M37 0v49l518 883h-272l-146 -316h-67v443l184 -25h776v-12l-538 -920h280l195 342h71l-47 -444h-954zM557 1161q-78 0 -132 55t-54 134q0 78 54 134t132 56q79 0 136 -56t57 -134q0 -79 -56.5 -134t-136.5 -55z" />
    <glyph glyph-name="Zcaron" unicode="&#x17d;" horiz-adv-x="1355" 
d="M51 0v86l688 1171h-432l-174 -358h-67l14 461h1180v-25l-754 -1235h534l236 394h70l-91 -494h-1204zM850 1772h100l-190 -306h-219l-201 306h113l200 -154z" />
    <glyph glyph-name="zcaron" unicode="&#x17e;" horiz-adv-x="1075" 
d="M37 0v49l518 883h-272l-146 -316h-67v443l184 -25h776v-12l-538 -920h280l195 342h71l-47 -444h-954zM748 1587h92l-195 -395h-178l-193 395h93l196 -207z" />
    <glyph glyph-name="florin" unicode="&#x192;" horiz-adv-x="1191" 
d="M113 604l20 115h258q36 112 115 213t171.5 167t186.5 105t166 39q71 0 131 -43t60 -119q0 -87 -63 -138t-157 -62q-45 233 -118 233q-72 0 -99 -240l-18 -155h309l-18 -115h-303l-29 -254q-15 -133 -52 -249t-85.5 -199t-108 -150.5t-119.5 -110t-120.5 -71.5t-109.5 -41
t-89 -12q-80 0 -136.5 49.5t-56.5 109.5q0 138 207 193q33 -110 73.5 -167.5t74.5 -57.5q27 0 47 35t31 133l86 792h-254z" />
    <glyph glyph-name="Aringacute" unicode="&#x1fa;" horiz-adv-x="1466" 
d="M-2 0v84l125 35l512 1253l90 19l113 22l512 -1304l118 -25v-84h-755v84l159 29l-114 327h-393l-119 -313l221 -43v-84h-469zM516 1661q0 91 66 155t166 64q101 0 164 -62t63 -153t-65.5 -155t-166.5 -64t-164 62t-63 153zM860 2228h303v-28l-348 -277h-117zM569 979
l-163 -430h313zM612 1665q0 -61 40 -102t96 -41t93.5 39t37.5 100t-40 102t-96 41t-93.5 -39t-37.5 -100z" />
    <glyph glyph-name="aringacute" unicode="&#x1fb;" horiz-adv-x="1138" 
d="M330 -31q-126 0 -204.5 79t-78.5 190q0 124 84.5 192t286.5 115l192 45v180q-9 80 -44.5 131t-106.5 51q-33 0 -53 -10l-5 -262q-63 -29 -168 -29q-71 0 -112 33t-41 98q0 69 75 135t201.5 108t264.5 42q182 0 280 -80t98 -262v-506q0 -57 18 -71.5t66 -14.5h62v-59
q-20 -11 -53 -28t-117.5 -45t-147.5 -28q-93 0 -144 37.5t-58 130.5h-9q-108 -172 -286 -172zM342 1350q0 91 65.5 155t165.5 64q101 0 164.5 -62t63.5 -153t-65.5 -155t-166.5 -64t-164 62t-63 153zM666 1935h303v-28l-348 -277h-117zM438 1354q0 -61 39.5 -102.5
t95.5 -41.5t94 39.5t38 100.5t-40 102t-96 41t-93.5 -39t-37.5 -100zM541 168q37 0 69 22v320h-2q-100 -29 -148 -82t-48 -117q0 -67 36 -105t93 -38z" />
    <glyph glyph-name="AEacute" unicode="&#x1fc;" horiz-adv-x="1996" 
d="M1462 610h-172v-460q59 -62 162 -62h182l240 416h78l-76 -504h-1159v84l157 37v495h-356l-260 -489l217 -43v-84h-477v84l121 35l624 1120l-194 37v84h1360v-428h-78l-150 338h-391v-563h172l70 243h80v-573h-80zM874 1257h-18l-291 -550h309v550zM1227 1772h303v-29
l-348 -277h-117z" />
    <glyph glyph-name="aeacute" unicode="&#x1fd;" horiz-adv-x="1658" 
d="M330 -31q-126 0 -204.5 79t-78.5 190q0 87 39.5 144.5t137.5 101t272 77.5l116 23v149q0 98 -39.5 158.5t-117.5 60.5q-30 0 -47 -10l-7 -262q-74 -29 -170 -29q-70 0 -110.5 34.5t-40.5 96.5q0 66 72.5 132t197.5 109.5t262 43.5q181 0 265 -106q53 44 125 75t147 31
q191 0 300 -117t136 -334l-618 -63v-37q21 -87 78 -153t132.5 -99t157.5 -33q67 0 116.5 15t117.5 47l30 -45q-212 -275 -491 -275q-120 0 -220.5 50.5t-168.5 142.5q-9 -8 -41.5 -34.5t-44.5 -36t-42 -31.5t-47 -31.5t-46.5 -24.5t-53 -21.5t-53.5 -12t-61 -5.5zM983 1587
h285v-14l-310 -381h-84zM967 672v-33l241 25q-6 134 -44.5 222.5t-98.5 88.5q-32 0 -52 -22t-33 -91t-13 -190zM539 168q84 0 125 96q-52 113 -52 244q-97 -20 -148.5 -76.5t-51.5 -120.5q0 -67 35.5 -105t91.5 -38z" />
    <glyph glyph-name="Oslashacute" unicode="&#x1fe;" horiz-adv-x="1656" 
d="M49 -63l221 233q-217 194 -217 508q0 151 65.5 287t173 230.5t249 150t290.5 55.5q277 0 484 -139l131 137h115l-181 -189q224 -197 224 -512q0 -127 -43.5 -241.5t-119.5 -201t-175 -150.5t-214 -97t-233 -33q-276 0 -481 142l-172 -180h-117zM858 68q124 0 198 140.5
t74 428.5q0 147 -28 281l-524 -549q44 -142 118.5 -221.5t161.5 -79.5zM526 735q0 -137 27 -272l524 551q-43 136 -116 215.5t-168 79.5q-118 0 -192.5 -143.5t-74.5 -430.5zM922 1772h303v-29l-348 -277h-117z" />
    <glyph glyph-name="oslashacute" unicode="&#x1ff;" horiz-adv-x="1290" 
d="M164 -98h-103l177 198q-91 74 -139 180t-48 226q0 161 78.5 289.5t214 199t301.5 70.5q202 0 359 -98l124 141h103l-166 -188q83 -71 128.5 -171.5t45.5 -216.5q0 -163 -78 -292t-213 -200t-303 -71q-198 0 -344 86zM604 985q-41 0 -70.5 -33t-43.5 -87.5t-19.5 -106.5
t-5.5 -107q0 -155 22 -268l299 338q-29 122 -76 193t-106 71zM821 397q0 115 -16 230l-297 -336q30 -111 76 -176.5t100 -65.5q67 0 102 91t35 257zM707 1587h284v-14l-309 -381h-84z" />
    <glyph glyph-name="Scommaaccent" unicode="&#x218;" horiz-adv-x="1191" 
d="M117 55l-45 461h65l199 -379q92 -74 211 -74q91 0 150 59t59 150q0 76 -43.5 121t-134.5 80l-129 47q-175 65 -255.5 168.5t-80.5 251.5q0 80 35 158.5t103 147t183.5 111t259.5 42.5q173 0 365 -80v-395h-68l-155 344q-56 49 -150 49q-98 0 -159.5 -55.5t-61.5 -139.5
q0 -88 55 -138.5t178 -94.5l140 -49q288 -105 288 -351q0 -122 -50 -221.5t-134.5 -163t-192 -97.5t-225.5 -34q-176 0 -407 82zM309 -506l-16 57q109 38 158 78t49 90q0 41 -33 68.5t-80 32.5v14q57 103 184 103q79 0 134 -46t55 -122q0 -98 -112.5 -169.5t-338.5 -105.5z
" />
    <glyph glyph-name="scommaaccent" unicode="&#x219;" horiz-adv-x="993" 
d="M408 -31q-86 0 -159.5 15.5t-168.5 48.5l-14 344h67l143 -264q18 -21 57 -39.5t81 -18.5q73 0 117 36.5t44 98.5q0 100 -118 144l-150 55q-229 83 -229 320q0 160 132 261t361 101q148 0 308 -61v-320h-62l-129 242q-62 51 -133 51q-61 0 -101 -35t-40 -90t32.5 -88
t94.5 -57l147 -56q240 -87 240 -292q0 -173 -148.5 -284.5t-371.5 -111.5zM217 -506l-16 57q109 38 158 78t49 90q0 41 -33 68.5t-80 32.5v14q57 103 184 103q79 0 134 -46t55 -122q0 -98 -112.5 -169.5t-338.5 -105.5z" />
    <glyph glyph-name="uni021A" unicode="&#x21a;" horiz-adv-x="1345" 
d="M1315 1360v-455h-64l-145 350h-223v-1134l200 -37v-84h-823v84l203 37v1134h-223l-146 -350h-63v455h1284zM408 -506l-17 57q109 38 158 78t49 90q0 41 -33 68.5t-80 32.5v14q57 103 185 103q79 0 133.5 -46t54.5 -122q0 -98 -112 -169.5t-338 -105.5z" />
    <glyph glyph-name="uni021B" unicode="&#x21b;" horiz-adv-x="823" 
d="M430 -31q-302 0 -299 314l6 624h-149v76l151 57l359 244h32v-250h301v-127h-301v-631q20 -73 74.5 -104t124.5 -31q37 0 92 11l13 -68q-100 -54 -194.5 -84.5t-209.5 -30.5zM166 -506l-16 57q109 38 157.5 78t48.5 90q0 41 -33 68.5t-79 32.5v14q57 103 184 103
q79 0 133.5 -46t54.5 -122q0 -98 -112 -169.5t-338 -105.5z" />
    <glyph glyph-name="uni0237" unicode="&#x237;" horiz-adv-x="698" 
d="M-49 -449l-12 43q93 74 124 108q76 87 91 231q4 44 4 96v788l-129 105v41l530 104v-856q0 -74 -1 -115t-5.5 -96t-14.5 -89.5t-27.5 -74.5t-44.5 -71.5t-65 -61.5q-104 -82 -237 -117t-213 -35z" />
    <glyph glyph-name="circumflex" unicode="&#x2c6;" 
d="M219 1192h-92l195 395h178l192 -395h-92l-197 207z" />
    <glyph glyph-name="caron" unicode="&#x2c7;" 
d="M600 1587h92l-194 -395h-179l-192 395h92l197 -207z" />
    <glyph glyph-name="breve" unicode="&#x2d8;" 
d="M410 1192q-137 0 -215 95t-78 300h69q20 -103 77.5 -158t146.5 -55q96 0 150.5 53.5t78.5 159.5h66q0 -187 -81 -291t-214 -104z" />
    <glyph glyph-name="dotaccent" unicode="&#x2d9;" 
d="M410 1161q-78 0 -132.5 55t-54.5 134q0 78 54.5 134t132.5 56q79 0 135.5 -56t56.5 -134q0 -79 -56 -134t-136 -55z" />
    <glyph glyph-name="ring" unicode="&#x2da;" 
d="M180 1370q0 91 66 155t166 64q101 0 164 -62t63 -153t-65 -155t-166 -64t-164.5 62t-63.5 153zM276 1374q0 -61 40 -102t96 -41t93.5 39t37.5 100t-39.5 102t-95.5 41t-94 -39t-38 -100z" />
    <glyph glyph-name="ogonek" unicode="&#x2db;" 
d="M442 27h43q-100 -139 -100 -211q0 -44 27 -71.5t67 -27.5q55 0 113 58l45 -33q-29 -55 -52.5 -90t-58.5 -70t-80.5 -52t-103.5 -17q-90 0 -146.5 51t-56.5 135q0 75 64.5 149.5t238.5 178.5z" />
    <glyph glyph-name="tilde" unicode="&#x2dc;" 
d="M414 1223l-92 30q-82 27 -132 27t-80.5 -22.5t-60.5 -75.5l-49 20l12 35q64 181 150 235t239 1l91 -31q93 -33 158.5 -13t121.5 103l49 -21l-18 -47q-39 -99 -74 -156.5t-81 -86.5t-100.5 -27.5t-133.5 29.5z" />
    <glyph glyph-name="hungarumlaut" unicode="&#x2dd;" 
d="M160 1587h254v-18l-246 -377h-82zM500 1587h256v-18l-246 -377h-86z" />
    <glyph glyph-name="Wgrave" unicode="&#x1e80;" horiz-adv-x="2125" 
d="M1360 -25l-295 846l-309 -846h-201l-436 1266l-121 33v86h684v-84l-121 -35l256 -868l201 585l-96 283l-88 35v84h690v-84l-168 -35l258 -838l272 826l-180 47v84h422v-84l-129 -41l-436 -1260h-203zM764 1772h303l162 -306h-117l-348 277v29z" />
    <glyph glyph-name="wgrave" unicode="&#x1e81;" horiz-adv-x="1699" 
d="M1067 1034l254 -575l16 -47h2l13 49l133 471l-162 24v78h397v-78l-112 -20l-326 -963h-164l-235 523l-21 53h-2l-18 -51l-215 -525h-168l-365 963l-114 20v78h698v-78l-146 -20l154 -465l19 -68h2l22 68l217 563h121zM657 1587h285l109 -395h-84l-310 381v14z" />
    <glyph glyph-name="Wacute" unicode="&#x1e82;" horiz-adv-x="2125" 
d="M1360 -25l-295 846l-309 -846h-201l-436 1266l-121 33v86h684v-84l-121 -35l256 -868l201 585l-96 283l-88 35v84h690v-84l-168 -35l258 -838l272 826l-180 47v84h422v-84l-129 -41l-436 -1260h-203zM1255 1772h304v-29l-349 -277h-116z" />
    <glyph glyph-name="wacute" unicode="&#x1e83;" horiz-adv-x="1699" 
d="M1067 1034l254 -575l16 -47h2l13 49l133 471l-162 24v78h397v-78l-112 -20l-326 -963h-164l-235 523l-21 53h-2l-18 -51l-215 -525h-168l-365 963l-114 20v78h698v-78l-146 -20l154 -465l19 -68h2l22 68l217 563h121zM1071 1587h285v-14l-309 -381h-84z" />
    <glyph glyph-name="Wdieresis" unicode="&#x1e84;" horiz-adv-x="2125" 
d="M1360 -25l-295 846l-309 -846h-201l-436 1266l-121 33v86h684v-84l-121 -35l256 -868l201 585l-96 283l-88 35v84h690v-84l-168 -35l258 -838l272 826l-180 47v84h422v-84l-129 -41l-436 -1260h-203zM899 1460q-71 0 -121.5 50t-50.5 120q0 69 51 120.5t121 51.5
q69 0 120.5 -51.5t51.5 -120.5q0 -70 -51 -120t-121 -50zM1423 1460q-69 0 -118.5 50t-49.5 120q0 69 49.5 120.5t118.5 51.5t121.5 -51.5t52.5 -120.5q0 -70 -52 -120t-122 -50z" />
    <glyph glyph-name="wdieresis" unicode="&#x1e85;" horiz-adv-x="1699" 
d="M1067 1034l254 -575l16 -47h2l13 49l133 471l-162 24v78h397v-78l-112 -20l-326 -963h-164l-235 523l-21 53h-2l-18 -51l-215 -525h-168l-365 963l-114 20v78h698v-78l-146 -20l154 -465l19 -68h2l22 68l217 563h121zM784 1180q-71 0 -121.5 50t-50.5 120q0 69 51 120.5
t121 51.5q69 0 120.5 -51.5t51.5 -120.5q0 -70 -51 -120t-121 -50zM1233 1180q-69 0 -118.5 50t-49.5 120q0 69 49.5 120.5t118.5 51.5t121.5 -51.5t52.5 -120.5q0 -70 -52 -120t-122 -50z" />
    <glyph glyph-name="Ygrave" unicode="&#x1ef2;" horiz-adv-x="1404" 
d="M1274 1235l-350 -662v-452l161 -39v-82h-741v82l162 39v407l-381 711l-127 37v84h776v-84l-201 -37l289 -590l293 586l-211 41v84h463v-84zM444 1772h304l161 -306h-116l-349 277v29z" />
    <glyph glyph-name="ygrave" unicode="&#x1ef3;" horiz-adv-x="1099" 
d="M899 932l-111 24v78h322v-78l-88 -20l-492 -1188q-45 -110 -106 -166.5t-150 -56.5q-78 0 -135 54.5t-57 139.5q0 84 56 138.5t136 54.5q130 0 175 -125h4l45 111l-430 1040l-78 18v78h631v-78l-125 -16l192 -573zM328 1587h284l109 -395h-84l-309 381v14z" />
    <glyph glyph-name="uni2009" unicode="&#x2009;" horiz-adv-x="102" 
 />
    <glyph glyph-name="endash" unicode="&#x2013;" horiz-adv-x="962" 
d="M72 526v103h819v-103h-819z" />
    <glyph glyph-name="emdash" unicode="&#x2014;" horiz-adv-x="1781" 
d="M72 526v103h1638v-103h-1638z" />
    <glyph glyph-name="quoteleft" unicode="&#x2018;" horiz-adv-x="604" 
d="M469 1507l33 -59q-82 -42 -133.5 -102t-51.5 -119q0 -30 13 -53t28.5 -35.5t44.5 -22.5t45.5 -13.5t47.5 -8.5q6 -89 -42 -147t-132 -58q-82 0 -140.5 58t-58.5 159q0 226 346 401z" />
    <glyph glyph-name="quoteright" unicode="&#x2019;" horiz-adv-x="604" 
d="M135 889l-33 59q82 42 133.5 102t51.5 119q0 30 -12.5 53t-28.5 35.5t-44.5 23t-45.5 14t-47 8.5q-6 89 42 146.5t132 57.5q81 0 139.5 -58t58.5 -159q0 -226 -346 -401z" />
    <glyph glyph-name="quotesinglbase" unicode="&#x201a;" horiz-adv-x="604" 
d="M135 -203l-33 60q82 42 133.5 102t51.5 119q0 25 -7.5 45t-23.5 33.5t-30.5 22.5t-39.5 15.5t-38.5 9.5t-38.5 7q-6 89 42 147t132 58q81 0 139.5 -58t58.5 -159q0 -227 -346 -402z" />
    <glyph glyph-name="quotedblleft" unicode="&#x201c;" horiz-adv-x="1054" 
d="M469 1507l33 -59q-82 -42 -133.5 -102t-51.5 -119q0 -30 13 -53t28.5 -35.5t44.5 -22.5t45.5 -13.5t47.5 -8.5q6 -89 -42 -147t-132 -58q-82 0 -140.5 58t-58.5 159q0 226 346 401zM920 1507l32 -59q-82 -42 -133 -102t-51 -119q0 -25 7.5 -45t23.5 -33.5t30.5 -22.5
t39.5 -15.5t38.5 -9.5t38.5 -7q6 -89 -42 -147t-132 -58q-82 0 -140.5 58t-58.5 159q0 226 347 401z" />
    <glyph glyph-name="quotedblright" unicode="&#x201d;" horiz-adv-x="1054" 
d="M135 889l-33 59q82 42 133.5 102t51.5 119q0 30 -12.5 53t-28.5 35.5t-44.5 23t-45.5 14t-47 8.5q-6 89 42 146.5t132 57.5q81 0 139.5 -58t58.5 -159q0 -226 -346 -401zM586 889l-33 59q82 42 133 102t51 119q0 30 -12.5 53t-28.5 35.5t-44.5 23t-45.5 14t-47 8.5
q-6 89 42 146.5t132 57.5q82 0 140.5 -58t58.5 -159q0 -226 -346 -401z" />
    <glyph glyph-name="quotedblbase" unicode="&#x201e;" horiz-adv-x="1054" 
d="M135 -203l-33 60q82 42 133.5 102t51.5 119q0 25 -7.5 45t-23.5 33.5t-30.5 22.5t-39.5 15.5t-38.5 9.5t-38.5 7q-6 89 42 147t132 58q81 0 139.5 -58t58.5 -159q0 -227 -346 -402zM586 -203l-33 60q82 42 133 102t51 119q0 25 -7.5 45t-23.5 33.5t-30.5 22.5t-39.5 15.5
t-38.5 9.5t-38.5 7q-6 89 42 147t132 58q82 0 140.5 -58t58.5 -159q0 -227 -346 -402z" />
    <glyph glyph-name="dagger" unicode="&#x2020;" horiz-adv-x="722" 
d="M74 1126v170l239 -36l-39 249h170l-36 -249l241 36v-170l-243 39l38 -487h-170l43 487z" />
    <glyph glyph-name="daggerdbl" unicode="&#x2021;" horiz-adv-x="722" 
d="M74 1126v170l237 -36l-37 249h170l-34 -249l239 36v-170l-241 39v-207l241 37v-170l-237 39l32 -241h-170l37 241l-237 -39v170l241 -37v207z" />
    <glyph glyph-name="bullet" unicode="&#x2022;" horiz-adv-x="675" 
d="M338 348q-94 0 -159.5 65.5t-65.5 159.5q0 93 66 159.5t159 66.5q92 0 158.5 -67t66.5 -159q0 -93 -66 -159t-159 -66z" />
    <glyph glyph-name="ellipsis" unicode="&#x2026;" horiz-adv-x="1611" 
d="M281 -35q-75 0 -132 56t-57 131q0 76 57 132t132 56q78 0 133 -55.5t55 -132.5q0 -76 -55.5 -131.5t-132.5 -55.5zM811 -35q-75 0 -131.5 56t-56.5 131q0 76 56.5 132t131.5 56q78 0 133 -55.5t55 -132.5q0 -76 -55.5 -131.5t-132.5 -55.5zM1341 -35q-75 0 -131.5 56
t-56.5 131q0 76 56.5 132t131.5 56q78 0 133.5 -55.5t55.5 -132.5q0 -76 -56 -131.5t-133 -55.5z" />
    <glyph glyph-name="perthousand" unicode="&#x2030;" horiz-adv-x="2779" 
d="M406 -102l954 1390h102l-962 -1390h-94zM438 1176q-71 0 -71 -168q0 -86 20.5 -179t58.5 -160t82 -67q70 0 70 168q0 89 -20.5 182.5t-58.5 158.5t-81 65zM481 526q-176 0 -282.5 104.5t-106.5 250.5q0 160 114.5 265t274.5 105q165 0 278 -100.5t113 -251.5
q0 -162 -113.5 -267.5t-277.5 -105.5zM1362 623q-72 0 -72 -168q0 -86 20.5 -179t59 -160t82.5 -67q70 0 70 168q0 89 -20.5 182.5t-58.5 158.5t-81 65zM1405 -27q-176 0 -282.5 104.5t-106.5 250.5q0 160 114.5 265t274.5 105q165 0 278 -100.5t113 -251.5
q0 -162 -113.5 -267.5t-277.5 -105.5zM2253 623q-72 0 -72 -168q0 -86 20.5 -179t59 -160t82.5 -67q70 0 70 168q0 89 -20.5 182.5t-58.5 158.5t-81 65zM2296 -27q-176 0 -282.5 104.5t-106.5 250.5q0 160 114.5 265t274.5 105q165 0 278 -100.5t113 -251.5
q0 -162 -113.5 -267.5t-277.5 -105.5z" />
    <glyph glyph-name="uni2032" unicode="&#x2032;" horiz-adv-x="526" 
d="M139 1001l41 533h295v-21l-276 -512h-60z" />
    <glyph glyph-name="uni2033" unicode="&#x2033;" horiz-adv-x="962" 
d="M139 1001l41 533h295v-21l-276 -512h-60zM575 1001l41 533h295v-21l-276 -512h-60z" />
    <glyph glyph-name="guilsinglleft" unicode="&#x2039;" horiz-adv-x="641" 
d="M461 827l47 -39l-203 -329l203 -367l-47 -33l-369 359v55z" />
    <glyph glyph-name="guilsinglright" unicode="&#x203a;" horiz-adv-x="641" 
d="M180 59l-47 39l203 330l-203 367l47 32l369 -358v-55z" />
    <glyph glyph-name="fraction" unicode="&#x2044;" horiz-adv-x="399" 
d="M-317 -160l-68 45l1102 1592l67 -45z" />
    <glyph glyph-name="Euro" unicode="&#x20ac;" horiz-adv-x="1421" 
d="M86 733l14 80h150q39 115 118 208t175.5 149t199.5 86t201 30q95 0 182 -29t142 -81t55 -113q0 -74 -59 -115t-156 -51q-41 73 -73 120t-69.5 86.5t-77 58t-85.5 18.5q-89 0 -148 -89.5t-69 -277.5h413l-14 -80h-401q0 -89 12 -160h371l-13 -81h-338q26 -80 68.5 -137
t94 -86.5t101 -42.5t101.5 -13q100 0 171 34t153 101l45 -43q-76 -116 -148 -187t-170.5 -112t-224.5 -41q-259 0 -412.5 141.5t-177.5 385.5h-162l13 81h145q0 94 14 160h-141z" />
    <glyph glyph-name="trademark" unicode="&#x2122;" horiz-adv-x="1761" 
d="M737 766v47l88 16v467l-82 17v47h381l95 -277l106 277h358v-47l-77 -17v-467l71 -16v-47h-387v47l76 16v416h-10l-154 -379l-37 -90h-75l-33 90l-142 379h-10v-416l82 -16v-47h-250zM76 1360h608v-238h-39l-53 170h-103v-463l82 -16v-47h-378v47l77 16v463h-102l-53 -170
h-39v238z" />
    <glyph glyph-name="onethird" unicode="&#x2153;" horiz-adv-x="1726" 
d="M1331 35q39 0 71 30t32 93q0 25 -7 49.5t-25.5 51.5t-47 47t-76.5 33t-109 13v56q248 46 248 165q0 42 -29 70.5t-85 28.5q-57 0 -107.5 -31.5t-85.5 -77.5l-49 27q40 103 127 167t221 64q105 0 174.5 -51t69.5 -129q0 -72 -59.5 -123.5t-135.5 -66.5v-9q116 -12 175 -62
t59 -130q0 -119 -103.5 -194.5t-275.5 -75.5q-106 0 -185 46t-79 115q0 41 32 70t86 29l93 -179q26 -26 71 -26zM471 1368v-711l123 -20v-66h-561v66l141 20v523h-151v53l413 135h35zM340 -160l-68 45l1102 1592l68 -45z" />
    <glyph glyph-name="twothirds" unicode="&#x2154;" horiz-adv-x="1757" 
d="M428 887l-160 -103h391v-213h-624v66l94 96q18 18 48.5 49.5t44 45.5t36.5 38.5t33 36.5t26 31.5t22.5 31t16 28t12.5 29.5t6 28.5t3 31.5q0 54 -35 89.5t-96 35.5q-46 0 -82.5 -26.5t-79.5 -75.5l-51 35q135 252 344 252q113 0 182.5 -64t69.5 -168q0 -86 -48 -146
t-153 -128zM1362 35q39 0 70.5 30t31.5 93q0 32 -12 63t-39.5 62t-82.5 50t-130 19v56q248 46 248 165q0 42 -29 70.5t-86 28.5t-107 -31.5t-85 -77.5l-49 27q40 103 127 167t221 64q104 0 173.5 -51t69.5 -129q0 -72 -59 -123.5t-135 -66.5v-9q116 -12 174.5 -62t58.5 -130
q0 -119 -103.5 -194.5t-275.5 -75.5q-106 0 -185 46t-79 115q0 41 32.5 70t86.5 29l92 -179q26 -26 72 -26zM371 -160l-68 45l1102 1592l68 -45z" />
    <glyph glyph-name="oneeighth" unicode="&#x215b;" horiz-adv-x="1787" 
d="M1026 188q0 133 205 172q-164 82 -164 222q0 41 19.5 81.5t58 77.5t108 59.5t158.5 22.5q148 0 235 -53.5t87 -126.5q0 -125 -185 -162q104 -43 156.5 -98.5t52.5 -132.5q0 -71 -32 -125.5t-85.5 -86t-115.5 -47.5t-129 -16q-164 0 -266.5 53t-102.5 160zM471 1368v-711
l123 -20v-66h-561v66l141 20v523h-151v53l413 135h35zM340 -160l-68 45l1102 1592l68 -45zM1370 301l-76 31q-30 -58 -30 -115q0 -86 43.5 -135t109.5 -49q45 0 76 26.5t31 77.5q0 49 -34.5 89t-119.5 75zM1294 668q0 -42 32.5 -76t107.5 -64l49 -20q35 55 35 119
q0 59 -35 100t-94 41q-41 0 -68 -27t-27 -73z" />
    <glyph glyph-name="threeeighths" unicode="&#x215c;" horiz-adv-x="1744" 
d="M983 188q0 133 205 172q-164 82 -164 222q0 41 19.5 81.5t58 77.5t108 59.5t158.5 22.5q148 0 235 -53.5t87 -126.5q0 -125 -185 -162q104 -43 156.5 -98.5t52.5 -132.5q0 -71 -32 -125.5t-85.5 -86t-115.5 -47.5t-129 -16q-164 0 -266.5 53t-102.5 160zM319 606
q39 0 71 30t32 93q0 32 -12 63t-39.5 62.5t-82.5 50.5t-130 19v55q248 46 248 166q0 42 -29 70t-86 28t-107.5 -31.5t-85.5 -76.5l-49 26q40 103 127 167.5t221 64.5q104 0 174 -51.5t70 -129.5q0 -72 -59.5 -123.5t-135.5 -66.5v-8q116 -12 175 -62.5t59 -130.5
q0 -119 -103.5 -194.5t-275.5 -75.5q-106 0 -185 46.5t-79 115.5q0 41 32.5 69.5t86.5 28.5l92 -178q27 -27 71 -27zM297 -160l-68 45l1102 1592l68 -45zM1327 301l-76 31q-30 -58 -30 -115q0 -86 43.5 -135t109.5 -49q45 0 76 26.5t31 77.5q0 49 -34.5 89t-119.5 75z
M1251 668q0 -42 32.5 -76t107.5 -64l49 -20q35 55 35 119q0 59 -35 100t-94 41q-41 0 -68 -27t-27 -73z" />
    <glyph glyph-name="fiveeighths" unicode="&#x215d;" horiz-adv-x="1755" 
d="M993 188q0 133 205 172q-164 82 -164 222q0 41 19.5 81.5t58 77.5t108 59.5t158.5 22.5q148 0 235 -53.5t87 -126.5q0 -125 -184 -162q104 -43 156 -98.5t52 -132.5q0 -71 -32 -125.5t-85.5 -86t-115.5 -47.5t-129 -16q-164 0 -266.5 53t-102.5 160zM606 1149h-469
l-2 -113q113 29 189 29q163 0 249 -60.5t86 -170.5q0 -89 -54 -155.5t-140.5 -99t-190.5 -32.5q-103 0 -181.5 41t-78.5 110q0 42 35.5 68.5t91.5 26.5l84 -179q27 -16 64 -16q58 0 88.5 34t30.5 93q0 75 -48.5 115.5t-121.5 40.5q-86 0 -172 -21l-3 4l11 496h532v-211z
M307 -160l-67 45l1101 1592l68 -45zM1337 301l-75 31q-31 -60 -31 -115q0 -86 43.5 -135t109.5 -49q45 0 76 26.5t31 77.5q0 49 -34.5 89t-119.5 75zM1262 668q0 -43 32.5 -76.5t106.5 -63.5l49 -20q35 55 35 119q0 59 -35 100t-94 41q-41 0 -67.5 -27t-26.5 -73z" />
    <glyph glyph-name="seveneighths" unicode="&#x215e;" horiz-adv-x="1542" 
d="M780 188q0 133 205 172q-164 82 -164 222q0 41 19.5 81.5t58 77.5t108 59.5t158.5 22.5q148 0 235 -53.5t87 -126.5q0 -125 -184 -162q104 -43 156 -98.5t52 -132.5q0 -71 -32 -125.5t-85.5 -86t-115.5 -47.5t-129 -16q-164 0 -266.5 53t-102.5 160zM246 571h-172
l405 553h-448v236h635v-14q-143 -254 -248 -447.5t-138 -260.5zM94 -160l-67 45l1101 1592l68 -45zM1124 301l-75 31q-31 -60 -31 -115q0 -86 43.5 -135t109.5 -49q45 0 76 26.5t31 77.5q0 49 -34.5 89t-119.5 75zM1049 668q0 -43 32.5 -76.5t106.5 -63.5l49 -20
q35 55 35 119q0 59 -35 100t-94 41q-41 0 -67.5 -27t-26.5 -73z" />
    <glyph glyph-name="minus" unicode="&#x2212;" horiz-adv-x="1163" 
d="M1067 465h-971v102h971v-102z" />
    <glyph glyph-name="approxequal" unicode="&#x2248;" horiz-adv-x="1163" 
d="M160 514l-74 45q102 205 270 205q53 0 89 -9t112 -38l82 -33q125 -51 178 -51q58 0 100 35.5t82 107.5l76 -47q-99 -197 -258 -197q-101 0 -215 50l-82 34q-71 29 -101.5 38.5t-60.5 9.5q-66 0 -112.5 -39t-85.5 -111zM160 213l-74 45q102 205 270 205q53 0 89 -9
t112 -38l82 -33q125 -51 178 -51q58 0 100 35.5t82 107.5l76 -47q-99 -197 -258 -197q-101 0 -215 50l-82 34q-69 28 -100.5 37.5t-61.5 9.5q-66 0 -112.5 -38.5t-85.5 -110.5z" />
    <glyph glyph-name="notequal" unicode="&#x2260;" horiz-adv-x="1163" 
d="M272 82h-100l197 237h-273v101h357l153 186h-510v101h594l197 237h106l-198 -237h272v-101h-356l-156 -186h512v-101h-596z" />
    <glyph glyph-name="lessequal" unicode="&#x2264;" horiz-adv-x="1204" 
d="M1067 0h-971v102h971v-102zM1067 987l-780 -319l780 -318v-121l-971 404v59l971 404v-109z" />
    <glyph glyph-name="greaterequal" unicode="&#x2265;" horiz-adv-x="1204" 
d="M1067 0h-971v102h971v-102zM96 338l781 319l-781 318v121l971 -404v-59l-971 -404v109z" />
    <glyph glyph-name="uni24C5" unicode="&#x24c5;" horiz-adv-x="1660" 
d="M854 633q60 16 102.5 62t42.5 122q0 81 -52 139.5t-136 61.5v-635l102 -27v-57h-464v57l104 27v604l-104 27v57h385q188 0 297.5 -57.5t109.5 -171.5q0 -82 -56.5 -142.5t-143 -89t-187.5 -28.5v51zM88 692q0 198 97 364t263.5 261.5t364.5 95.5q148 0 282 -56.5
t230.5 -152.5t153.5 -230t57 -282q0 -199 -97 -365.5t-263.5 -262t-364.5 -95.5q-150 0 -284 55.5t-230 151.5t-152.5 230.5t-56.5 285.5zM160 692q0 -133 52.5 -255t140.5 -210t209 -140t253 -52q175 0 324.5 87.5t238 239t88.5 330.5t-89 330.5t-238.5 238.5t-323.5 87
q-132 0 -253 -51.5t-209 -139t-140.5 -209.5t-52.5 -256z" />
    <glyph glyph-name="space_uni0326" 
d="M129 -506l-16 57q109 38 157.5 78t48.5 90q0 41 -33 68.5t-79 32.5v14q57 103 184 103q79 0 134 -46t55 -122q0 -98 -112.5 -169.5t-338.5 -105.5z" />
    <glyph glyph-name="caron.alt" 
d="M301 1063h-65l47 432h270v-16z" />
    <glyph glyph-name="space_uni0326.alt" 
d="M618 1624l17 -57q-109 -38 -158 -78t-49 -90q0 -41 33 -68.5t80 -32.5v-14q-57 -102 -185 -102q-79 0 -133.5 46t-54.5 122q0 98 112 169t338 105z" />
    <glyph glyph-name="grave.uc" 
d="M139 1772h303l162 -306h-117l-348 277v29z" />
    <glyph glyph-name="dieresis.uc" horiz-adv-x="821" 
d="M147 1460q-71 0 -121.5 50t-50.5 120q0 69 51 120.5t121 51.5q69 0 120.5 -51.5t51.5 -120.5q0 -70 -51 -120t-121 -50zM672 1460q-69 0 -118.5 50t-49.5 120q0 69 49.5 120.5t118.5 51.5t121.5 -51.5t52.5 -120.5q0 -70 -52 -120t-122 -50z" />
    <glyph glyph-name="macron.uc" 
d="M96 1536v164h627v-164h-627z" />
    <glyph glyph-name="acute.uc" 
d="M367 1772h303v-29l-348 -277h-117z" />
    <glyph glyph-name="circumflex.uc" 
d="M209 1466h-100l190 306h219l201 -306h-113l-200 148z" />
    <glyph glyph-name="caron.uc" 
d="M618 1772h101l-191 -306h-219l-200 306h112l201 -154z" />
    <glyph glyph-name="breve.uc" 
d="M412 1454q-134 0 -208.5 93t-76.5 225h94q33 -62 79.5 -97t125.5 -35q83 0 128.5 34.5t78.5 97.5h88q-3 -133 -85 -225.5t-224 -92.5z" />
    <glyph glyph-name="dotaccent.uc" 
d="M408 1460q-78 0 -132.5 55t-54.5 134q0 78 54.5 134t132.5 56q79 0 135.5 -56t56.5 -134q0 -79 -56 -134t-136 -55z" />
    <glyph glyph-name="ring.uc" 
d="M180 1698q0 91 66 155t166 64q101 0 164 -62t63 -153t-65 -155t-166 -64t-164.5 62t-63.5 153zM276 1702q0 -61 40 -102t96 -41t93.5 39t37.5 100t-39.5 102t-95.5 41t-94 -39t-38 -100z" />
    <glyph glyph-name="tilde.uc" 
d="M424 1556l-94 25q-89 22 -137 23.5t-81.5 -18t-62.5 -70.5l-49 20l12 35q26 73 52 121t56.5 80t70.5 44t87.5 9.5t112.5 -19.5l92 -24q71 -17 117 -17.5t90.5 23t81.5 78.5l49 -21l-18 -47q-31 -80 -58.5 -129.5t-57.5 -82t-68.5 -43t-84 -7.5t-110.5 20z" />
    <glyph glyph-name="hungarumlaut.uc" 
d="M147 1772h263v-23l-238 -283h-109zM522 1772h264v-23l-239 -283h-109z" />
    <glyph glyph-name="cedilla.uc" horiz-adv-x="583" 
d="M129 -506l-16 57q101 34 153.5 74t52.5 92q0 72 -98 103l133 188h76l-65 -90q93 -8 154 -48.5t61 -111.5q0 -93 -113.5 -161t-337.5 -103z" />
    <glyph glyph-name="idotaccent" horiz-adv-x="706" 
d="M27 0v80l131 26v711l-129 105v41l530 104v-961l129 -26v-80h-661zM369 1161q-78 0 -132.5 55t-54.5 134q0 78 54.5 134t132.5 56q79 0 135.5 -56t56.5 -134q0 -79 -56 -134t-136 -55z" />
    <glyph glyph-name="dollar.lin" horiz-adv-x="1259" 
d="M117 49l-45 469h71l189 -366q62 -56 133 -76l70 422l-76 22q-182 51 -268.5 154t-86.5 264q0 86 36.5 166.5t106 147.5t184 109t257.5 46l33 199h80l-35 -201q124 -10 319 -78v-403h-67l-127 311q-58 61 -139 76l-72 -426l190 -54q152 -42 230 -132.5t78 -219.5
q0 -94 -38.5 -176.5t-103 -141.5t-149 -102.5t-176.5 -65.5t-185 -24l-37 -225h-79l36 227q-139 9 -329 78zM795 270q0 148 -183 207l-69 -414h4q113 0 180.5 61.5t67.5 145.5zM455 1110q0 -146 149 -203l68 408q-95 -8 -156 -64.5t-61 -140.5z" />
    <glyph glyph-name="Euro.lin" horiz-adv-x="1413" 
d="M84 811l14 82h138q30 102 86 187.5t126.5 145t152.5 101t165 61t164 19.5q160 0 269.5 -60t109.5 -153q0 -72 -64 -119.5t-166 -56.5q-35 78 -60 125.5t-57 91.5t-66.5 64t-74.5 20q-100 0 -159 -113.5t-68 -312.5h407l-14 -82h-393q0 -105 16 -193h348l-12 -81h-317
q48 -159 144.5 -234.5t209.5 -75.5q101 0 171.5 29.5t145.5 91.5l46 -43q-60 -88 -110.5 -146t-114 -104.5t-139.5 -68t-171 -21.5q-230 0 -395.5 161.5t-202.5 410.5h-170l12 81h150v44q0 78 12 149h-133z" />
    <glyph glyph-name="sterling.lin" horiz-adv-x="1574" 
d="M248 528v115h276l58 275q23 114 87 216t145.5 173.5t173.5 124.5t175.5 78.5t147.5 25.5q116 0 198 -64t82 -131q0 -76 -68 -120.5t-190 -44.5q-43 129 -84 187t-90 58q-88 0 -131 -231l-102 -547h336v-115h-367q-49 -137 -154.5 -243t-242.5 -181q114 -57 301 -163
l207 -117q106 -60 141.5 -76.5t64.5 -15.5q132 3 62 303q117 17 182.5 -14t65.5 -99q0 -81 -87.5 -168t-219 -143.5t-252.5 -56.5q-146 0 -249 57t-222 221l-146 201q-180 -70 -274 -70q-70 0 -111 34t-41 95t46.5 100t129.5 39q106 0 287 -75q52 78 90 247l27 125h-252z
" />
    <glyph glyph-name="yen.lin" horiz-adv-x="1376" 
d="M123 565v82h326l-302 592l-127 37v84h711v-84l-147 -37l231 -563h4l271 561l-177 39v84h443v-84l-135 -41l-316 -588h342v-82h-366v-192h366v-82h-366v-168l188 -41v-82h-768v82l188 39v170h-366v82h366v192h-366z" />
    <glyph glyph-name="florin.lin" horiz-adv-x="1206" 
d="M117 584l20 114h236l6 47q13 119 66.5 227.5t128 186.5t161 136t168 87t146.5 29q87 0 137.5 -41t50.5 -121q0 -87 -62.5 -146t-152.5 -75q-54 254 -123 254q-71 0 -98 -240l-39 -344h317l-18 -114h-311l-27 -234q-15 -134 -51.5 -249.5t-84.5 -199t-107.5 -151
t-119 -110t-120.5 -71t-110.5 -40.5t-90.5 -12q-80 0 -136.5 49.5t-56.5 109.5q0 138 207 193q32 -103 73 -163t71 -60q22 0 35.5 11.5t26.5 53.5t22 121l79 752h-243z" />
    <glyph glyph-name="zero.lin" horiz-adv-x="1433" 
d="M715 1407q138 0 255.5 -51t201.5 -143.5t132 -228t48 -298.5q0 -133 -36.5 -250t-98.5 -201t-143 -145t-170 -91t-179 -30q-195 0 -342 92.5t-224 257t-77 377.5q0 132 37 248t99.5 199.5t143.5 144t171.5 90t181.5 29.5zM662 1317q-81 0 -122.5 -119t-41.5 -328
q0 -140 18.5 -282t52 -261t87 -193.5t116.5 -74.5q81 0 121.5 122.5t40.5 322.5q0 207 -34.5 393t-98 303t-139.5 117z" />
    <glyph glyph-name="one.lin" horiz-adv-x="919" 
d="M696 1378v-1259l213 -35v-84h-856v84l238 35v975l-256 -17l-15 84l633 217h43z" />
    <glyph glyph-name="two.lin" horiz-adv-x="1175" 
d="M485 373l-67 -54h686v-319h-1032v102l184 197q12 13 36 38q172 184 236 270q119 162 119 292q0 100 -61.5 165.5t-153.5 65.5q-159 0 -285 -172l-65 41q93 212 218.5 312t303.5 100q188 0 300 -103.5t112 -265.5q0 -75 -23.5 -143t-53 -117t-103 -118.5t-125 -112
t-167.5 -132.5q-39 -30 -59 -46z" />
    <glyph glyph-name="three.lin" horiz-adv-x="1107" 
d="M510 59q77 0 124.5 55t47.5 134q0 141 -108.5 243t-305.5 132v88q197 48 280 122.5t83 174.5q0 72 -50 122t-130 50q-169 0 -287 -156l-66 37q36 81 80 142.5t104 109.5t139.5 73t176.5 25q167 0 266 -85t99 -218q0 -224 -285 -330v-10q153 -22 251.5 -116t98.5 -228
q0 -135 -76.5 -239t-207.5 -159t-293 -55q-171 0 -283.5 71t-112.5 181q0 67 53.5 110.5t133.5 45.5l151 -281q42 -39 117 -39z" />
    <glyph glyph-name="four.lin" horiz-adv-x="1243" 
d="M989 1362v-782h213v-258h-213v-203l160 -35v-84h-692v84l174 33v205h-611v149l809 918zM238 580h393v442z" />
    <glyph glyph-name="five.lin" horiz-adv-x="1093" 
d="M942 1026h-702l-7 -225q99 27 164.5 38t151.5 11q216 0 349.5 -111.5t133.5 -287.5q0 -119 -51 -214.5t-137.5 -155t-195 -91t-228.5 -31.5q-63 0 -126.5 15t-119 43.5t-90.5 76.5t-35 107q0 73 62.5 113.5t144.5 35.5l152 -293q28 -14 67 -14q82 0 145.5 67.5
t63.5 178.5q0 63 -25 113.5t-66.5 80t-91.5 45t-104 15.5q-133 0 -264 -51l-8 4l29 864h788v-334z" />
    <glyph glyph-name="six.lin" horiz-adv-x="1292" 
d="M1094 1368q-239 -110 -381.5 -241.5t-200.5 -299.5q136 84 276 84q189 0 305.5 -120t116.5 -293q0 -113 -38.5 -206.5t-98.5 -153.5t-136.5 -102t-149 -59.5t-138.5 -17.5q-258 0 -417.5 158.5t-159.5 402.5q0 121 32 230.5t87 195.5t132 160.5t165 129.5t188 98
t198 70.5t199 43.5zM584 782q-44 0 -92 -30q-19 -93 -19 -189q0 -225 59 -370.5t146 -145.5q70 0 103.5 68t33.5 225q0 114 -30 215.5t-83.5 164t-117.5 62.5z" />
    <glyph glyph-name="seven.lin" horiz-adv-x="1085" 
d="M393 0h-223l645 991h-735v369h1014v-17q-288 -542 -463.5 -877.5t-206.5 -400.5z" />
    <glyph glyph-name="eight.lin" horiz-adv-x="1275" 
d="M61 311q0 63 25 116t58.5 85.5t86 61.5t87 41.5t83.5 27.5q-151 90 -213.5 169.5t-62.5 205.5q0 50 20 103t64.5 105.5t107.5 94t156 67t203 25.5q227 0 359 -88.5t132 -214.5q0 -53 -22.5 -98t-54 -75t-80.5 -56t-87 -40.5t-87 -29.5q77 -45 127.5 -78t102.5 -75.5
t81.5 -81.5t48 -87.5t18.5 -103.5q0 -103 -56 -187.5t-144.5 -134.5t-190.5 -77t-202 -27q-110 0 -206 19.5t-177.5 59.5t-129 110t-47.5 163zM582 539l-111 63q-65 -84 -65 -223q0 -142 77.5 -238t182.5 -96q77 0 127.5 53.5t50.5 143.5q0 81 -55 144t-207 153zM457 1163
q0 -79 51.5 -133.5t189.5 -136.5l74 -45q66 86 66 199q0 128 -64 203t-156 75q-80 0 -120.5 -47.5t-40.5 -114.5z" />
    <glyph glyph-name="nine.lin" horiz-adv-x="1277" 
d="M158 27q247 86 387.5 213.5t195.5 294.5q-102 -72 -237 -72q-81 0 -156.5 25.5t-141 75.5t-105.5 138t-40 201q0 105 34.5 192.5t90.5 145t129 97.5t147.5 57.5t149.5 17.5q165 0 297 -74.5t209.5 -216t77.5 -325.5q0 -153 -56 -284t-151.5 -225.5t-227 -166t-277 -113.5
t-306.5 -61zM690 584q40 0 70 20q18 88 18 189q0 229 -63 381.5t-152 152.5q-63 0 -95 -71.5t-32 -182.5q0 -122 28.5 -231.5t88 -183.5t137.5 -74z" />
    <glyph glyph-name="percent.lin" horiz-adv-x="1789" 
d="M297 -102l1053 1509h102l-1061 -1509h-94zM428 1315q-72 0 -72 -168q0 -86 20.5 -179t59 -160t82.5 -67q70 0 70 168q0 89 -20.5 182.5t-58.5 158.5t-81 65zM471 666q-176 0 -282.5 104t-106.5 250q0 160 114.5 265.5t274.5 105.5q165 0 278 -101t113 -252
q0 -162 -113.5 -267t-277.5 -105zM1274 608q-72 0 -72 -168q0 -86 20.5 -179t59 -159.5t82.5 -66.5q70 0 70 168q0 89 -20.5 182t-58.5 158t-81 65zM1317 -41q-176 0 -282.5 104t-106.5 250q0 160 114.5 265.5t274.5 105.5q165 0 278 -100.5t113 -251.5
q0 -162 -113.5 -267.5t-277.5 -105.5z" />
    <glyph glyph-name="perthousand.lin" horiz-adv-x="2682" 
d="M297 -102l1053 1509h102l-1061 -1509h-94zM428 1315q-72 0 -72 -168q0 -86 20.5 -179t59 -160t82.5 -67q70 0 70 168q0 89 -20.5 182.5t-58.5 158.5t-81 65zM471 666q-176 0 -282.5 104t-106.5 250q0 160 114.5 265.5t274.5 105.5q165 0 278 -101t113 -252
q0 -162 -113.5 -267t-277.5 -105zM1274 608q-72 0 -72 -168q0 -86 20.5 -179t59 -159.5t82.5 -66.5q70 0 70 168q0 89 -20.5 182t-58.5 158t-81 65zM1317 -41q-176 0 -282.5 104t-106.5 250q0 160 114.5 265.5t274.5 105.5q165 0 278 -100.5t113 -251.5
q0 -162 -113.5 -267.5t-277.5 -105.5zM2167 608q-72 0 -72 -168q0 -86 20.5 -179t59 -159.5t82.5 -66.5q70 0 70 168q0 89 -20.5 182t-58.5 158t-81 65zM2210 -41q-176 0 -282.5 104t-106.5 250q0 160 114.5 265.5t274.5 105.5q165 0 278 -100.5t113 -251.5
q0 -162 -113.5 -267.5t-277.5 -105.5z" />
    <glyph glyph-name="plus.lin" horiz-adv-x="1163" 
d="M1067 588h-430v-430h-111v430h-430v102h430v430h111v-430h430v-102z" />
    <glyph glyph-name="minus.lin" horiz-adv-x="1163" 
d="M1067 588h-971v102h971v-102z" />
    <glyph glyph-name="multiply.lin" horiz-adv-x="1163" 
d="M961 172l-381 385l-381 -385l-78 76l385 385l-377 375l84 84l375 -377l370 381l74 -78l-370 -377l380 -383z" />
    <glyph glyph-name="divide.lin" horiz-adv-x="1163" 
d="M1067 588h-971v102h971v-102zM582 793q-62 0 -106 45t-44 108q0 59 44.5 104.5t105.5 45.5t107 -45.5t46 -104.5q0 -63 -45.5 -108t-107.5 -45zM582 180q-61 0 -105.5 45.5t-44.5 108.5q0 59 44.5 104t105.5 45t107 -45t46 -104q0 -63 -45.5 -108.5t-107.5 -45.5z" />
    <glyph glyph-name="equal.lin" horiz-adv-x="1163" 
d="M1067 729h-971v100h971v-100zM1067 442h-971v101h971v-101z" />
    <glyph glyph-name="less.lin" horiz-adv-x="1204" 
d="M1087 1014l-806 -375l806 -375v-117l-970 459v68l970 456v-116z" />
    <glyph glyph-name="greater.lin" horiz-adv-x="1204" 
d="M117 264l807 375l-807 375v116l970 -458v-68l-970 -457v117z" />
    <glyph glyph-name="plusminus.lin" horiz-adv-x="1163" 
d="M1067 782h-430v-430h-111v430h-430v103h430v430h111v-430h430v-103zM96 0v102h971v-102h-971z" />
    <glyph glyph-name="notequal.lin" horiz-adv-x="1163" 
d="M272 205h-100l197 237h-273v101h355l155 186h-510v100h592l199 238h106l-198 -238h272v-100h-356l-156 -186h512v-101h-596z" />
    <glyph glyph-name="approxequal.lin" horiz-adv-x="1163" 
d="M160 637l-74 45q102 205 270 205q53 0 89 -9t112 -38l82 -33q125 -51 178 -51q58 0 100 35.5t82 107.5l76 -47q-99 -197 -258 -197q-101 0 -215 50l-82 34q-69 28 -100.5 37.5t-61.5 9.5q-66 0 -112.5 -38.5t-85.5 -110.5zM160 336l-74 45q102 205 270 205q53 0 89 -9
t112 -38l82 -33q125 -51 178 -51q58 0 100 35.5t82 107.5l76 -47q-99 -197 -258 -197q-103 0 -215 49l-82 35q-69 28 -100.5 37.5t-61.5 9.5q-66 0 -112.5 -38.5t-85.5 -110.5z" />
    <glyph glyph-name="lessequal.lin" horiz-adv-x="1204" 
d="M1067 0h-971v102h971v-102zM1067 1110l-780 -319l780 -318v-121l-971 404v59l971 404v-109z" />
    <glyph glyph-name="greaterequal.lin" horiz-adv-x="1204" 
d="M1067 0h-971v102h971v-102zM96 461l781 319l-781 318v121l971 -404v-59l-971 -404v109z" />
    <glyph glyph-name="numbersign.lin" horiz-adv-x="1173" 
d="M137 922v94h248l57 323h88l-57 -323h322l57 323h88l-57 -323h235v-94h-252l-67 -379h229v-94h-246l-57 -326h-88l57 326h-321l-58 -326h-88l58 326h-238v94h254l68 379h-232zM457 922l-68 -379h322l67 379h-321z" />
    <glyph glyph-name="ordfeminine.lin" horiz-adv-x="937" 
d="M281 553q-91 0 -155.5 57.5t-64.5 151.5q0 93 63.5 147.5t205.5 85.5l170 37v154q-5 55 -34.5 94t-84.5 39q-25 0 -45 -8l-21 -199q-48 -33 -110 -33q-117 0 -117 95q0 89 126.5 161t274.5 72q173 0 244.5 -65.5t71.5 -208.5v-379q0 -44 13 -58t52 -14h48v-59
q-15 -8 -40 -19.5t-91 -31t-119 -19.5q-73 0 -112 34t-42 95h-10q-41 -58 -92 -93.5t-131 -35.5zM436 713q37 0 64 18v232q-85 -26 -121.5 -60t-36.5 -88q0 -42 25 -72t69 -30z" />
    <glyph glyph-name="ordmasculine.lin" horiz-adv-x="1005" 
d="M475 1333q-90 0 -90 -264q0 -113 18.5 -217.5t53.5 -173t78 -68.5q88 0 88 273q0 110 -17.5 211.5t-52 170t-78.5 68.5zM504 537q-107 0 -194.5 35t-143 94t-85.5 135.5t-30 161.5q0 194 130 319t323 125q195 0 322.5 -120t127.5 -304q0 -196 -128 -321t-322 -125z" />
    <glyph glyph-name="zero.num" horiz-adv-x="878" 
d="M438 1391q109 0 199 -48t145.5 -146t55.5 -230q0 -95 -37 -175.5t-95 -131t-126 -78t-134 -27.5q-189 0 -297 117.5t-108 308.5q0 95 37 175t95 130t127.5 77.5t137.5 27.5zM414 1331q-72 0 -72 -256q0 -105 12 -207t41 -179t68 -77q72 0 72 254q0 111 -13.5 215t-42 177
t-65.5 73z" />
    <glyph glyph-name="one.num" horiz-adv-x="610" 
d="M471 1368v-711l123 -20v-66h-561v66l141 20v523h-151v53l413 135h35z" />
    <glyph glyph-name="two.num" horiz-adv-x="688" 
d="M428 887l-160 -103h391v-213h-624v66l94 96q18 18 48.5 49.5t44 45.5t36.5 38.5t33 36.5t26 31.5t22.5 31t16 28t12.5 29.5t6 28.5t3 31.5q0 54 -35 89.5t-96 35.5q-46 0 -82.5 -26.5t-79.5 -75.5l-51 35q135 252 344 252q113 0 182.5 -64t69.5 -168q0 -86 -48 -146
t-153 -128z" />
    <glyph glyph-name="three.num" horiz-adv-x="714" 
d="M319 606q39 0 71 30t32 93q0 32 -12 63t-39.5 62.5t-82.5 50.5t-130 19v55q248 46 248 166q0 42 -29 70t-86 28t-107.5 -31.5t-85.5 -76.5l-49 26q40 103 127 167.5t221 64.5q104 0 174 -51.5t70 -129.5q0 -72 -59.5 -123.5t-135.5 -66.5v-8q116 -12 175 -62.5t59 -130.5
q0 -119 -103.5 -194.5t-275.5 -75.5q-106 0 -185 46.5t-79 115.5q0 41 32.5 69.5t86.5 28.5l92 -178q27 -27 71 -27z" />
    <glyph glyph-name="four.num" horiz-adv-x="770" 
d="M633 1362v-457h108v-155h-108v-103l90 -20v-56h-438v56l102 18v105h-369v104l488 526zM152 905h235v248z" />
    <glyph glyph-name="five.num" horiz-adv-x="686" 
d="M606 1149h-469l-2 -113q113 29 189 29q163 0 249 -60.5t86 -170.5q0 -89 -54 -155.5t-140.5 -99t-190.5 -32.5q-103 0 -181.5 41t-78.5 110q0 42 35.5 68.5t91.5 26.5l84 -179q27 -16 64 -16q58 0 88.5 34t30.5 93q0 75 -48.5 115.5t-121.5 40.5q-86 0 -172 -21l-3 4
l11 496h532v-211z" />
    <glyph glyph-name="six.num" horiz-adv-x="790" 
d="M684 1362q-299 -105 -360 -297q77 55 174 55q119 0 192.5 -72.5t73.5 -177.5q0 -70 -26.5 -127.5t-66 -91t-87.5 -56.5t-88 -31.5t-72 -8.5q-180 0 -285.5 101t-105.5 253q0 118 56 213.5t149 156t205.5 95t234.5 39.5zM367 1030q-39 0 -58 -24q-4 -20 -4 -60
q0 -142 41 -239t88 -97q72 0 72 160q0 122 -40 191t-99 69z" />
    <glyph glyph-name="seven.num" horiz-adv-x="649" 
d="M246 571h-172l405 553h-448v236h635v-14q-143 -254 -248 -447.5t-138 -260.5z" />
    <glyph glyph-name="eight.num" horiz-adv-x="774" 
d="M12 760q0 133 205 172q-81 40 -122.5 93t-41.5 128q0 41 19.5 82t58 77.5t108 59.5t158.5 23q148 0 235 -54t87 -127q0 -124 -184 -161q103 -43 155.5 -99t52.5 -133q0 -57 -21.5 -104t-57 -78t-83 -52t-97.5 -30.5t-103 -9.5q-164 0 -266.5 53t-102.5 160zM356 872
l-75 31q-31 -60 -31 -115q0 -86 43.5 -135t109.5 -49q45 0 76 27t31 78q0 49 -34.5 88.5t-119.5 74.5zM281 1239q0 -42 32 -75.5t107 -63.5l49 -21q35 55 35 119q0 59 -35 100t-94 41q-41 0 -67.5 -27t-26.5 -73z" />
    <glyph glyph-name="nine.num" horiz-adv-x="788" 
d="M86 588q146 32 239 106t132 183q-73 -48 -162 -48q-119 0 -193.5 78t-74.5 185q0 134 100 218.5t252 84.5q160 0 268.5 -103t108.5 -252q0 -96 -33.5 -176t-93.5 -137.5t-143.5 -99t-182 -63.5t-211.5 -27zM424 920q35 0 51 16q12 56 12 117q0 127 -41.5 207.5
t-91.5 80.5q-75 0 -75 -161q0 -121 43 -190.5t102 -69.5z" />
    <glyph glyph-name="zero.den" horiz-adv-x="878" 
d="M438 819q109 0 199 -48t145.5 -146t55.5 -230q0 -95 -37 -175.5t-95 -130.5t-126 -77.5t-134 -27.5q-189 0 -297 117.5t-108 308.5q0 95 36.5 174.5t95.5 129.5t128 77.5t137 27.5zM414 760q-72 0 -72 -256q0 -105 12 -207t41 -179t68 -77q72 0 72 254q0 111 -13.5 215
t-42 177t-65.5 73z" />
    <glyph glyph-name="one.den" horiz-adv-x="610" 
d="M471 797v-711l123 -20v-66h-561v66l141 20v522h-151v54l413 135h35z" />
    <glyph glyph-name="two.den" horiz-adv-x="688" 
d="M428 315l-160 -102h391v-213h-624v66l94 96q18 18 48.5 49.5t44 45.5t36.5 38.5t33 36.5t26 31.5t22.5 31t16 28t12.5 29.5t6 28.5t3 31.5q0 54 -35 89.5t-96 35.5q-46 0 -82.5 -26.5t-79.5 -75.5l-51 34q135 252 344 252q113 0 182.5 -63.5t69.5 -167.5q0 -87 -48 -147
t-153 -128z" />
    <glyph glyph-name="three.den" horiz-adv-x="714" 
d="M319 35q39 0 71 30t32 93q0 32 -12 63t-39.5 62t-82.5 50t-130 19v56q248 46 248 165q0 42 -29 70.5t-86 28.5t-107.5 -31.5t-85.5 -77.5l-49 27q40 103 127 167t221 64q105 0 174.5 -51t69.5 -129q0 -72 -59.5 -123.5t-135.5 -66.5v-9q116 -12 175 -62t59 -130
q0 -119 -103.5 -194.5t-275.5 -75.5q-106 0 -185 46t-79 115q0 41 32.5 70t86.5 29l92 -179q26 -26 71 -26z" />
    <glyph glyph-name="four.den" horiz-adv-x="770" 
d="M633 791v-457h108v-156h-108v-102l90 -21v-55h-438v55l102 19v104h-369v105l488 526zM152 334h235v248z" />
    <glyph glyph-name="five.den" horiz-adv-x="686" 
d="M606 578h-469l-2 -113q113 29 189 29q162 0 248.5 -61t86.5 -171q0 -89 -54 -155.5t-140.5 -99t-190.5 -32.5q-65 0 -123.5 17t-97.5 52.5t-39 82.5q0 42 35.5 68t91.5 26l84 -178q27 -16 64 -16q58 0 88.5 34t30.5 93q0 75 -48.5 115t-121.5 40q-91 0 -172 -20l-3 4
l11 495h532v-210z" />
    <glyph glyph-name="six.den" horiz-adv-x="790" 
d="M684 791q-299 -105 -360 -297q77 55 174 55q119 0 192.5 -72.5t73.5 -177.5q0 -70 -26.5 -127.5t-66 -91t-87.5 -56.5t-88 -31.5t-72 -8.5q-180 0 -285.5 101t-105.5 253q0 118 56 213.5t149 156t205.5 95t234.5 39.5zM367 459q-39 0 -58 -25q-4 -20 -4 -59
q0 -142 41 -239t88 -97q72 0 72 160q0 122 -40 191t-99 69z" />
    <glyph glyph-name="seven.den" horiz-adv-x="649" 
d="M246 0h-172l407 553h-450v235h635v-14q-143 -254 -248 -447.5t-138 -260.5z" />
    <glyph glyph-name="eight.den" horiz-adv-x="774" 
d="M12 188q0 133 205 172q-164 82 -164 222q0 41 19.5 81.5t58 77.5t108 59.5t158.5 22.5q148 0 235 -53.5t87 -126.5q0 -125 -184 -162q104 -43 156 -98.5t52 -132.5q0 -71 -32 -125.5t-85.5 -86t-115.5 -47.5t-129 -16q-164 0 -266.5 53t-102.5 160zM356 301l-75 31
q-31 -60 -31 -115q0 -86 43.5 -135t109.5 -49q45 0 76 26.5t31 77.5q0 49 -34.5 89t-119.5 75zM281 668q0 -43 32.5 -76.5t106.5 -63.5l49 -20q35 55 35 119q0 59 -35 100t-94 41q-41 0 -67.5 -27t-26.5 -73z" />
    <glyph glyph-name="nine.den" horiz-adv-x="788" 
d="M86 16q146 32 239 106t132 183q-71 -47 -162 -47q-119 0 -193.5 77.5t-74.5 184.5q0 134 100 218.5t252 84.5q160 0 268.5 -102.5t108.5 -251.5q0 -96 -33.5 -176t-93.5 -138t-143.5 -99.5t-182 -63.5t-211.5 -27zM424 348q34 0 51 17q12 55 12 116q0 127 -41.5 208
t-91.5 81q-75 0 -75 -162q0 -121 43 -190.5t102 -69.5z" />
    <glyph glyph-name="zero.sub" horiz-adv-x="878" 
d="M438 717q109 0 199 -48t145.5 -146t55.5 -230q0 -95 -37 -175.5t-95 -131t-126 -78t-134 -27.5q-189 0 -297 117.5t-108 308.5q0 95 37 175t95 130t127.5 77.5t137.5 27.5zM414 657q-72 0 -72 -256q0 -105 12 -206.5t41 -178.5t68 -77q72 0 72 254q0 111 -13.5 215
t-42 176.5t-65.5 72.5z" />
    <glyph glyph-name="one.sub" horiz-adv-x="610" 
d="M471 694v-710l123 -21v-65h-561v65l141 21v522h-151v53l413 135h35z" />
    <glyph glyph-name="two.sub" horiz-adv-x="688" 
d="M428 213l-160 -102h391v-213h-624v65l94 96q145 150 170 180q70 83 77 150q1 10 1 21q0 54 -35 89.5t-96 35.5q-46 0 -82 -26.5t-80 -76.5l-51 35q135 252 344 252q113 0 182.5 -64t69.5 -168q0 -86 -48 -146t-153 -128z" />
    <glyph glyph-name="three.sub" horiz-adv-x="714" 
d="M319 -68q39 0 71 30t32 93q0 32 -12 63t-39.5 62.5t-82.5 50.5t-130 19v55q248 46 248 166q0 42 -29 70t-86 28t-107.5 -31.5t-85.5 -76.5l-49 26q40 103 127 167.5t221 64.5q105 0 174.5 -51t69.5 -129q0 -72 -59.5 -124t-135.5 -67v-8q116 -12 175 -62.5t59 -130.5
q0 -119 -103.5 -194.5t-275.5 -75.5q-106 0 -185 46.5t-79 115.5q0 41 32.5 69.5t86.5 28.5l92 -178q27 -27 71 -27z" />
    <glyph glyph-name="four.sub" horiz-adv-x="770" 
d="M633 688v-457h108v-155h-108v-103l90 -20v-55h-438v55l102 18v105h-369v104l488 527zM152 231h235v248z" />
    <glyph glyph-name="five.sub" horiz-adv-x="686" 
d="M606 475h-469l-2 -113q113 29 189 29q163 0 249 -60.5t86 -170.5q0 -89 -54 -155.5t-140.5 -99t-190.5 -32.5q-65 0 -123.5 17t-97.5 52.5t-39 82.5q0 42 35.5 68t91.5 26l84 -178q28 -17 64 -17q58 0 88.5 34t30.5 93q0 75 -48.5 115.5t-121.5 40.5q-86 0 -172 -21l-3 4
l11 496h532v-211z" />
    <glyph glyph-name="six.sub" horiz-adv-x="790" 
d="M684 688q-299 -105 -360 -297q77 55 174 55q119 0 192.5 -72t73.5 -177q0 -70 -26.5 -127.5t-66 -91.5t-87.5 -57t-88 -31.5t-72 -8.5q-179 0 -285 101t-106 254q0 118 56 213.5t149 155.5t205.5 94.5t234.5 39.5zM367 356q-39 0 -58 -24q-4 -20 -4 -60q0 -142 41 -238.5
t88 -96.5q72 0 72 159q0 122 -40 191t-99 69z" />
    <glyph glyph-name="seven.sub" horiz-adv-x="649" 
d="M246 -102h-172l407 553h-450v235h635v-14q-143 -254 -248 -447.5t-138 -260.5z" />
    <glyph glyph-name="eight.sub" horiz-adv-x="774" 
d="M12 86q0 133 205 172q-81 40 -122.5 93t-41.5 128q0 41 19.5 82t58 77.5t108 59.5t158.5 23q148 0 235 -53.5t87 -126.5q0 -125 -184 -162q103 -43 155.5 -99t52.5 -133q0 -57 -21.5 -104t-57 -78t-83 -52t-97.5 -30.5t-103 -9.5q-164 0 -266.5 53t-102.5 160zM356 199
l-75 30q-31 -60 -31 -114q0 -86 43.5 -135.5t109.5 -49.5q45 0 76 27t31 78q0 49 -34.5 89t-119.5 75zM281 565q0 -42 32 -75.5t107 -63.5l49 -20q35 55 35 118q0 60 -35 101t-94 41q-41 0 -67.5 -27.5t-26.5 -73.5z" />
    <glyph glyph-name="nine.sub" horiz-adv-x="788" 
d="M86 -86q146 32 239 106t132 183q-71 -47 -162 -47q-119 0 -193.5 77.5t-74.5 184.5q0 134 100 218.5t252 84.5q160 0 268.5 -102.5t108.5 -251.5q0 -96 -33.5 -176t-93.5 -138t-143.5 -99.5t-182 -63.5t-211.5 -27zM424 246q35 0 51 16q12 56 12 117q0 127 -41.5 208
t-91.5 81q-75 0 -75 -162q0 -121 43 -190.5t102 -69.5z" />
    <glyph glyph-name="plus.sub" horiz-adv-x="655" 
d="M614 227h-243v-235h-88v235h-242v84h242v238h88v-238h243v-84z" />
    <glyph glyph-name="minus.sub" horiz-adv-x="655" 
d="M614 227h-573v84h573v-84z" />
    <glyph glyph-name="zero.sup" horiz-adv-x="878" 
d="M438 1565q109 0 199 -48t145.5 -146t55.5 -230q0 -95 -37 -175.5t-95 -131t-126 -78t-134 -27.5q-189 0 -297 117.5t-108 308.5q0 95 37 175t95 130t127.5 77.5t137.5 27.5zM414 1505q-72 0 -72 -256q0 -105 12 -207t41 -179t68 -77q72 0 72 254q0 111 -13.5 215t-42 177
t-65.5 73z" />
    <glyph glyph-name="one.sup" horiz-adv-x="610" 
d="M471 1542v-711l123 -20v-66h-561v66l141 20v523h-151v53l413 135h35z" />
    <glyph glyph-name="two.sup" horiz-adv-x="688" 
d="M428 1061l-160 -103h391v-213h-624v66l94 96q18 18 48.5 49.5t44 45.5t36.5 38.5t33 36.5t26 31.5t22.5 31t16 28t12.5 29.5t6 28.5t3 31.5q0 54 -35 89.5t-96 35.5q-46 0 -82.5 -26.5t-79.5 -75.5l-51 35q135 252 344 252q113 0 182.5 -64t69.5 -168q0 -86 -48 -146
t-153 -128z" />
    <glyph glyph-name="three.sup" horiz-adv-x="714" 
d="M319 780q39 0 71 30t32 93q0 32 -12 63t-39.5 62.5t-82.5 50.5t-130 19v55q248 46 248 166q0 42 -29 70t-86 28t-107.5 -31.5t-85.5 -76.5l-49 26q40 103 127 167.5t221 64.5q104 0 174 -51.5t70 -129.5q0 -72 -59.5 -123.5t-135.5 -66.5v-8q116 -12 175 -62.5t59 -130.5
q0 -119 -103.5 -194.5t-275.5 -75.5q-106 0 -185 46.5t-79 115.5q0 41 32.5 69.5t86.5 28.5l92 -178q27 -27 71 -27z" />
    <glyph glyph-name="four.sup" horiz-adv-x="770" 
d="M633 1536v-457h108v-155h-108v-103l90 -20v-56h-438v56l102 18v105h-369v104l488 526zM152 1079h235v248z" />
    <glyph glyph-name="five.sup" horiz-adv-x="686" 
d="M606 1323h-469l-2 -113q113 29 189 29q163 0 249 -60.5t86 -170.5q0 -89 -54 -155.5t-140.5 -99t-190.5 -32.5q-103 0 -181.5 41t-78.5 110q0 42 35.5 68.5t91.5 26.5l84 -179q27 -16 64 -16q58 0 88.5 34t30.5 93q0 75 -48.5 115.5t-121.5 40.5q-86 0 -172 -21l-3 4
l11 496h532v-211z" />
    <glyph glyph-name="six.sup" horiz-adv-x="790" 
d="M684 1536q-299 -105 -360 -297q77 55 174 55q119 0 192.5 -72.5t73.5 -177.5q0 -70 -26.5 -127.5t-66 -91t-87.5 -56.5t-88 -31.5t-72 -8.5q-180 0 -285.5 101t-105.5 253q0 118 56 213.5t149 156t205.5 95t234.5 39.5zM367 1204q-39 0 -58 -24q-4 -20 -4 -60
q0 -142 41 -239t88 -97q72 0 72 160q0 122 -40 191t-99 69z" />
    <glyph glyph-name="seven.sup" horiz-adv-x="649" 
d="M246 745h-172l407 553h-450v236h635v-14q-143 -254 -248 -447.5t-138 -260.5z" />
    <glyph glyph-name="eight.sup" horiz-adv-x="774" 
d="M12 934q0 133 205 172q-81 40 -122.5 93t-41.5 128q0 41 19.5 82t58 77.5t108 59.5t158.5 23q148 0 235 -53.5t87 -126.5q0 -125 -184 -162q103 -43 155.5 -99t52.5 -133q0 -57 -21.5 -104t-57 -78t-83 -52t-97.5 -30.5t-103 -9.5q-164 0 -266.5 53t-102.5 160zM356 1047
l-75 30q-31 -60 -31 -114q0 -86 43.5 -135.5t109.5 -49.5q45 0 76 27t31 78q0 49 -34.5 89t-119.5 75zM281 1413q0 -42 32 -75.5t107 -63.5l49 -21q35 55 35 119q0 59 -35 100t-94 41q-41 0 -67.5 -27t-26.5 -73z" />
    <glyph glyph-name="nine.sup" horiz-adv-x="788" 
d="M86 762q146 32 239 106t132 183q-71 -47 -162 -47q-119 0 -193.5 77.5t-74.5 184.5q0 134 100 218.5t252 84.5q160 0 268.5 -103t108.5 -252q0 -96 -33.5 -176t-93.5 -137.5t-143.5 -99t-182 -63.5t-211.5 -27zM424 1094q35 0 51 16q12 56 12 117q0 127 -41.5 208
t-91.5 81q-75 0 -75 -162q0 -121 43 -190.5t102 -69.5z" />
    <glyph glyph-name="plus.sup" horiz-adv-x="655" 
d="M614 1075h-243v-235h-88v235h-242v84h242v238h88v-238h243v-84z" />
    <glyph glyph-name="minus.sup" horiz-adv-x="655" 
d="M614 1075h-573v84h573v-84z" />
    <glyph glyph-name="bullet.alt" horiz-adv-x="870" 
d="M78 1151q0 66 40 101.5t91 35.5q39 0 74 -18.5t54 -38t52 -61t49 -58.5h33q23 20 53 49.5t42.5 40.5t32.5 24t39 17t46 4q61 0 98 -39t37 -96q0 -66 -43.5 -108.5t-109.5 -42.5q-37 0 -66 16.5t-65 48t-64 47.5h-14q-37 -61 -37 -94q0 -50 36 -76.5t156 -79.5
q63 -28 95 -65.5t32 -95.5q0 -62 -45.5 -104.5t-126.5 -35.5q-6 -25 -29.5 -44t-68.5 -19q-41 0 -72.5 19.5t-64.5 64.5l-25.5 34t-29 36.5t-27 27t-36 23t-40.5 6.5q-46 0 -66 -27.5t-20 -69.5h-25q-32 80 8 143.5t130 63.5q48 0 85.5 -21.5t57.5 -47t46.5 -47t53.5 -21.5
q25 0 40.5 14.5t15.5 40.5q0 23 -17 44t-41.5 39t-49 38.5t-41.5 52.5t-17 70q0 50 53 143l-14 2q-116 -61 -166 -61q-59 0 -94 34.5t-35 90.5zM475 1501q53 0 90 -32t37 -83q0 -30 -18 -65t-38 -58.5t-45 -49t-28 -29.5h-35q-3 5 -21 32.5t-33.5 52.5t-29.5 57.5t-14 53.5
q0 50 39 85.5t96 35.5z" />
    <glyph glyph-name="f.short" horiz-adv-x="802" 
d="M25 0v80l127 26v801h-150v80l150 51l26 95q36 124 117.5 219t185.5 144.5t213 49.5q121 0 198 -58.5t77 -139.5q0 -44 -25.5 -79.5t-63.5 -52.5t-82.5 -23t-82.5 9l-70 264q-106 0 -100 -223l4 -209h268v-127h-266v-803l166 -24v-80h-692z" />
    <glyph glyph-name="f_f.short" horiz-adv-x="1503" 
d="M743 0v82l109 24v801h-301v-803l102 -24v-80h-628v80l127 26v801h-150v80l152 51q29 93 82 172t117 132.5t139 91.5t148.5 55.5t143.5 17.5q155 0 287 -80q73 59 159 89t165 30q121 0 197.5 -58.5t76.5 -139.5q0 -44 -25.5 -79.5t-63.5 -52.5t-82.5 -23t-82.5 9l-69 264
q-107 0 -101 -223l4 -209h271v-127h-269v-803l166 -24v-80h-674zM551 1100v-66h309q12 94 47 172q-55 121 -102.5 167t-106.5 46q-147 0 -147 -319z" />
    <glyph glyph-name="i.ger" horiz-adv-x="706" 
d="M27 0v80l131 26v711l-129 105v41l530 104v-961l129 -26v-80h-661zM369 1141q-78 0 -132.5 54.5t-54.5 133.5q0 78 54.5 134.5t132.5 56.5q79 0 135.5 -56.5t56.5 -134.5q0 -79 -56 -133.5t-136 -54.5z" />
    <glyph glyph-name="j.ger" horiz-adv-x="698" 
d="M-49 -449l-12 43q93 74 124 108q76 87 91 231q4 44 4 96v788l-129 105v41l530 104v-856q0 -74 -1 -115t-5.5 -96t-14.5 -89.5t-27.5 -74.5t-44.5 -71.5t-65 -61.5q-104 -82 -237 -117t-213 -35zM367 1141q-78 0 -132.5 54.5t-54.5 133.5q0 78 54.5 134.5t132.5 56.5
q79 0 135.5 -56.5t56.5 -134.5q0 -79 -56 -133.5t-136 -54.5z" />
    <glyph glyph-name="adieresis.ger" horiz-adv-x="1138" 
d="M330 -31q-126 0 -204.5 79t-78.5 190q0 124 84.5 192t286.5 115l192 45v180q-9 80 -44.5 131t-106.5 51q-33 0 -53 -10l-5 -262q-63 -29 -168 -29q-71 0 -112 33t-41 98q0 69 75 135t201.5 108t264.5 42q182 0 280 -80t98 -262v-506q0 -57 18 -71.5t66 -14.5h62v-59
q-20 -11 -53 -28t-117.5 -45t-147.5 -28q-93 0 -144 37.5t-58 130.5h-9q-108 -172 -286 -172zM344 1159q-71 0 -121.5 50t-50.5 120q0 69 51 120.5t121 51.5q69 0 120.5 -51.5t51.5 -120.5q0 -70 -51 -120t-121 -50zM793 1159q-69 0 -118.5 50t-49.5 120q0 69 49.5 120.5
t118.5 51.5t121.5 -51.5t52.5 -120.5q0 -70 -52 -120t-122 -50zM541 168q37 0 69 22v320h-2q-100 -29 -148 -82t-48 -117q0 -67 36 -105t93 -38z" />
    <glyph glyph-name="odieresis.ger" horiz-adv-x="1290" 
d="M606 985q-41 0 -70 -32.5t-42.5 -87.5t-19 -107t-5.5 -111q0 -159 27 -295.5t76.5 -219.5t109.5 -83q135 0 135 354q0 152 -25.5 284t-74.5 215t-111 83zM645 -31q-140 0 -254.5 44t-187.5 118.5t-112.5 171t-39.5 203.5q0 161 78.5 289.5t214 199t301.5 70.5
q259 0 426.5 -151t167.5 -382q0 -163 -78 -292t-213 -200t-303 -71zM420 1159q-71 0 -121.5 50t-50.5 120q0 69 51 120.5t121 51.5q69 0 120.5 -51.5t51.5 -120.5q0 -70 -51 -120t-121 -50zM868 1159q-69 0 -118.5 50t-49.5 120q0 69 49.5 120.5t118.5 51.5t121.5 -51.5
t52.5 -120.5q0 -70 -52 -120t-122 -50z" />
    <glyph glyph-name="udieresis.ger" horiz-adv-x="1331" 
d="M815 -23l-24 158q-178 -166 -353 -166q-37 0 -71 5.5t-69.5 18t-64.5 36.5t-52 57t-35.5 82.5t-12.5 110.5v563l-123 67v49l522 97v-697q0 -82 31.5 -127t116.5 -45q52 0 104 25v643l-120 66v51l520 92v-922l127 -24v-68zM440 1159q-71 0 -121.5 50t-50.5 120
q0 69 51 120.5t121 51.5q69 0 120.5 -51.5t51.5 -120.5q0 -70 -51 -120t-121 -50zM889 1159q-69 0 -118.5 50t-49.5 120q0 69 49.5 120.5t118.5 51.5t121.5 -51.5t52.5 -120.5q0 -70 -52 -120t-122 -50z" />
    <glyph glyph-name="questiondown.uc" horiz-adv-x="950" 
d="M840 270v-383l-121 29q-264 60 -426 201.5t-162 326.5q0 149 70.5 233.5t242.5 123.5l207 47v110h84l68 -399l-408 -80q-103 -20 -139.5 -39t-36.5 -49q0 -36 40.5 -57t146.5 -34.5t313 -23.5zM686 1413q75 0 131.5 -55.5t56.5 -130.5q0 -76 -56.5 -132.5t-131.5 -56.5
q-78 0 -133 56t-55 133q0 75 55 130.5t133 55.5z" />
    <glyph glyph-name="exclamdown.uc" horiz-adv-x="636" 
d="M559 -86h-481l209 1044h63zM322 1413q75 0 131.5 -55.5t56.5 -130.5q0 -76 -56.5 -132.5t-131.5 -56.5q-78 0 -133.5 56t-55.5 133q0 75 55.5 130.5t133.5 55.5z" />
    <glyph glyph-name="hyphen.uc" horiz-adv-x="757" 
d="M123 590v213h512v-213h-512z" />
    <glyph glyph-name="endash.uc" horiz-adv-x="962" 
d="M72 649v103h819v-103h-819z" />
    <glyph glyph-name="emdash.uc" horiz-adv-x="1781" 
d="M72 649v103h1638v-103h-1638z" />
    <glyph glyph-name="guilsinglleft.uc" horiz-adv-x="630" 
d="M471 950l47 -39l-203 -329l203 -367l-47 -33l-369 359v55z" />
    <glyph glyph-name="guilsinglright.uc" horiz-adv-x="630" 
d="M160 182l-47 39l202 330l-202 367l47 32l368 -358v-55z" />
    <glyph glyph-name="guillemotleft.uc" horiz-adv-x="1032" 
d="M471 950l47 -39l-203 -329l203 -367l-47 -33l-369 359v55zM872 950l48 -39l-203 -329l203 -367l-48 -33l-368 359v55z" />
    <glyph glyph-name="guillemotright.uc" horiz-adv-x="1032" 
d="M561 182l-47 39l203 330l-203 367l47 32l369 -358v-55zM160 182l-47 39l202 330l-202 367l47 32l368 -358v-55z" />
    <glyph glyph-name="parenleft.uc" horiz-adv-x="745" 
d="M731 -287h-98q-220 172 -346.5 417.5t-126.5 510.5q0 268 128.5 516t342.5 424h108q-174 -206 -262 -432t-88 -508q0 -272 86.5 -498.5t255.5 -429.5z" />
    <glyph glyph-name="parenright.uc" horiz-adv-x="745" 
d="M14 1579h99q220 -172 346.5 -417.5t126.5 -510.5q0 -268 -128.5 -516t-342.5 -424h-109q174 206 262 432t88 508q0 272 -86.5 498.5t-255.5 429.5z" />
    <glyph glyph-name="bracketleft.uc" horiz-adv-x="694" 
d="M664 -289h-459v1872h459v-98h-205v-1675h205v-99z" />
    <glyph glyph-name="bracketright.uc" horiz-adv-x="694" 
d="M31 1583h458v-1872h-458v99h205v1675h-205v98z" />
    <glyph glyph-name="braceleft.uc" horiz-adv-x="729" 
d="M236 651v-10q86 -7 137.5 -21t84.5 -45t44.5 -77t9.5 -121l-8 -375q-3 -121 40 -166t158 -45v-80l-34 -2q-233 -13 -336.5 83.5t-89.5 277.5l30 381q6 80 -15.5 113t-82.5 34l-82 2v94l82 2q61 1 82.5 34.5t15.5 113.5l-30 381q-14 181 89.5 277t336.5 83l34 -2v-78
q-115 0 -158 -45.5t-40 -167.5l8 -381q3 -140 -53.5 -193.5t-222.5 -66.5z" />
    <glyph glyph-name="braceright.uc" horiz-adv-x="729" 
d="M494 643v10q-86 7 -137.5 21.5t-84.5 45t-45 77t-10 121.5l8 374q3 121 -40 166t-158 45v80l34 2q233 13 336.5 -83t89.5 -277l-30 -381q-6 -80 15.5 -113.5t82.5 -34.5l82 -2v-94l-82 -2q-61 -1 -82.5 -34t-15.5 -113l30 -381q14 -181 -89.5 -277.5t-336.5 -83.5l-34 2
v78q115 0 158 45.5t40 167.5l-8 381q-3 139 54 192.5t223 67.5z" />
    <glyph glyph-name="slash.uc" horiz-adv-x="847" 
d="M66 -365l-89 35l738 1960l92 -37z" />
    <glyph glyph-name="backslash.uc" horiz-adv-x="847" 
d="M879 -332l-88 -35l-742 1958l92 37z" />
    <glyph glyph-name="bar.uc" horiz-adv-x="471" 
d="M283 -379h-95v1964h95v-1964z" />
    <glyph glyph-name="at.uc" horiz-adv-x="1974" 
d="M1006 418l14 59h-10l-43 -67q-150 -238 -308 -238q-77 0 -124.5 54t-47.5 143q0 82 30.5 175t86 180t126 158t159 113.5t176.5 42.5q47 0 117 -18l32 65h252l-137 -559q-24 -91 -16.5 -144t34.5 -74t76 -21q53 0 105 31t96 88.5t72.5 151.5t29.5 208q4 274 -173 450.5
t-453 176.5q-120 0 -236.5 -37.5t-218.5 -112t-180 -177.5t-123.5 -243t-46.5 -299q-1 -166 52 -299t147 -218.5t219 -131t270 -45.5q113 0 208.5 20.5t149.5 43.5v-44q-65 -40 -192.5 -72t-241.5 -32q-135 0 -257 27.5t-228.5 86.5t-183.5 144.5t-121 209.5t-43 273
q2 166 64 320.5t168.5 273.5t243.5 208.5t295.5 136.5t317.5 47q210 0 379.5 -87t263.5 -238t92 -335q-1 -134 -46 -246t-115.5 -185.5t-160.5 -125t-179.5 -74t-173.5 -22.5q-129 0 -186.5 73t-30.5 185zM854 397q36 0 107.5 112.5t121.5 264.5l52 164q-36 39 -66 39
q-59 0 -118 -91t-93.5 -214t-32.5 -221q0 -54 29 -54z" />
    <glyph glyph-name="Q.cap" horiz-adv-x="1656" 
d="M831 1401q120 0 232 -28t210.5 -86t172 -140t116 -197.5t42.5 -251.5q0 -157 -67.5 -292t-177 -226.5t-249.5 -142.5q240 -190 393.5 -262t343.5 -72q86 0 178 26t156 64l31 -45q-40 -43 -91.5 -80.5t-127.5 -74.5t-182.5 -58.5t-229.5 -21.5q-142 0 -254.5 23.5
t-239 87.5t-253.5 157t-318 252q-211 72 -337 239t-126 406q0 151 65.5 287t173 230.5t249 150t290.5 55.5zM858 57q82 0 141 55.5t95 187.5t36 335q0 182 -38 333.5t-116 247t-183 95.5q-120 0 -193.5 -144.5t-73.5 -437.5q0 -315 96.5 -493.5t235.5 -178.5z" />
    <glyph glyph-name="Q.short" horiz-adv-x="1656" 
d="M831 1401q120 0 232 -28t210.5 -86t172 -140t116 -197.5t42.5 -251.5q0 -131 -47 -248t-128.5 -204t-187 -148t-225.5 -90q22 -13 69.5 -41.5l67.5 -40.5t58.5 -34t58 -31t50 -23t50.5 -20t43.5 -10.5t44.5 -4.5q85 0 156 43l28 -36q-26 -28 -59 -54t-83.5 -55.5
t-119 -47.5t-143.5 -18q-86 0 -175.5 30t-187 93t-173.5 122t-189 155q-208 72 -333.5 238.5t-125.5 404.5q0 151 65.5 287t173 230.5t249 150t290.5 55.5zM858 57q82 0 141 55.5t95 187.5t36 335q0 182 -38 333.5t-116 247t-183 95.5q-120 0 -193.5 -144.5t-73.5 -437.5
q0 -315 96.5 -493.5t235.5 -178.5z" />
    <glyph glyph-name="space.uc" horiz-adv-x="409" 
 />
    </font>
</defs>
</svg>
